G04*
G04 #@! TF.GenerationSoftware,Altium Limited,Altium Designer,20.1.14 (287)*
G04*
G04 Layer_Physical_Order=1*
G04 Layer_Color=255*
%FSLAX44Y44*%
%MOMM*%
G71*
G04*
G04 #@! TF.SameCoordinates,F9CCF83C-BBFD-4EAF-9253-F7A08A0B78FC*
G04*
G04*
G04 #@! TF.FilePolarity,Positive*
G04*
G01*
G75*
%ADD26C,0.4000*%
%ADD27R,1.6000X2.4000*%
%ADD28R,0.4500X0.4500*%
%ADD29R,2.1000X2.1000*%
%ADD30R,1.1000X2.1000*%
%ADD31R,1.5750X1.5750*%
%ADD32C,1.5750*%
%ADD33C,0.6500*%
%ADD34C,2.0000*%
G36*
X882338Y1298013D02*
X883721Y1297440D01*
X884966Y1296608D01*
X886025Y1295550D01*
X886857Y1294304D01*
X887430Y1292921D01*
X887722Y1291452D01*
Y1290704D01*
X887887Y1289874D01*
X888003Y1289037D01*
X888017Y1289012D01*
X888017Y233038D01*
Y232289D01*
X887725Y230820D01*
X887152Y229437D01*
X886320Y228191D01*
X885261Y227133D01*
X884016Y226301D01*
X882633Y225728D01*
X881164Y225435D01*
X788406D01*
X787508Y226334D01*
X787585Y422160D01*
X787590Y423428D01*
X802590D01*
Y430880D01*
X816650D01*
Y430708D01*
X825150D01*
Y439208D01*
X816650D01*
Y439036D01*
X802590D01*
Y448428D01*
X788494D01*
X787596Y449326D01*
X787655Y597825D01*
X802582D01*
Y606548D01*
X816650D01*
Y606377D01*
X825150D01*
Y614877D01*
X816650D01*
Y614705D01*
X802582D01*
Y622825D01*
X788563D01*
X787665Y623723D01*
X787732Y793152D01*
X802582D01*
Y802019D01*
X816650D01*
Y801847D01*
X825150D01*
Y810347D01*
X816650D01*
Y810176D01*
X802582D01*
Y818152D01*
X788641D01*
X787743Y819051D01*
X787813Y995993D01*
X802582D01*
Y1003763D01*
X816650D01*
Y1003591D01*
X825150D01*
Y1012091D01*
X816650D01*
Y1011919D01*
X802582D01*
Y1020993D01*
X788721D01*
X787823Y1021891D01*
X787887Y1184772D01*
X788025Y1185986D01*
X789295Y1185986D01*
X803024D01*
Y1196846D01*
X816650D01*
Y1196675D01*
X825150D01*
Y1205175D01*
X816650D01*
Y1205003D01*
X803024D01*
Y1210986D01*
X789168D01*
X787898Y1212203D01*
X787912Y1247474D01*
X788805Y1248374D01*
X789183Y1248374D01*
X793680D01*
Y1258249D01*
Y1268124D01*
X789191D01*
X787921Y1269028D01*
X787932Y1298306D01*
X880869D01*
X882338Y1298013D01*
D02*
G37*
G36*
X818680Y432739D02*
X818641Y432780D01*
X818521Y432818D01*
X818320Y432851D01*
X818040Y432879D01*
X816721Y432938D01*
X814680Y432958D01*
Y436958D01*
X818680Y437178D01*
Y432739D01*
D02*
G37*
G36*
X785893Y1297407D02*
X785882Y1269029D01*
X785915Y1268861D01*
X785910Y1268690D01*
X785992Y1268474D01*
X786037Y1268249D01*
X786132Y1268106D01*
X786193Y1267946D01*
X786350Y1267778D01*
X786478Y1267587D01*
X786621Y1267492D01*
X786738Y1267367D01*
X788008Y1266463D01*
X788218Y1266369D01*
X788410Y1266240D01*
X788578Y1266207D01*
X788734Y1266137D01*
X788805Y1266135D01*
Y1251613D01*
X788796Y1250414D01*
X788409Y1250335D01*
X788025Y1250258D01*
X788021Y1250256D01*
X788017Y1250255D01*
X787692Y1250036D01*
X787363Y1249816D01*
X787361Y1249813D01*
X787357Y1249810D01*
X786464Y1248910D01*
X786248Y1248583D01*
X786029Y1248255D01*
X786028Y1248251D01*
X786025Y1248247D01*
X785949Y1247858D01*
X785873Y1247475D01*
X785859Y1212204D01*
X785863Y1212183D01*
X785860Y1212161D01*
X785941Y1211793D01*
X786014Y1211424D01*
X786026Y1211405D01*
X786031Y1211384D01*
X786246Y1211076D01*
X786456Y1210762D01*
X786474Y1210750D01*
X786487Y1210732D01*
X787756Y1209514D01*
X788025Y1209343D01*
Y1188025D01*
X787745Y1187969D01*
X787460Y1187945D01*
X787358Y1187892D01*
X787244Y1187869D01*
X787007Y1187711D01*
X786753Y1187580D01*
X786679Y1187492D01*
X786582Y1187428D01*
X786424Y1187190D01*
X786240Y1186972D01*
X786205Y1186862D01*
X786141Y1186766D01*
X786085Y1186486D01*
X785998Y1186214D01*
X785861Y1185001D01*
X785871Y1184886D01*
X785848Y1184773D01*
X785784Y1021892D01*
X785784Y1021892D01*
X785784Y1021892D01*
X785871Y1021451D01*
X785939Y1021112D01*
X785939Y1021111D01*
X785939Y1021111D01*
X786132Y1020823D01*
X786380Y1020450D01*
X786381Y1020450D01*
X786381Y1020450D01*
X787279Y1019551D01*
X787279Y1019551D01*
X787279Y1019551D01*
X787582Y1019349D01*
Y997986D01*
X787448Y997960D01*
X787033Y997877D01*
X787033Y997877D01*
X787032Y997877D01*
X786746Y997685D01*
X786371Y997436D01*
X786371Y997435D01*
X786371Y997435D01*
X786171Y997137D01*
X785929Y996774D01*
X785929Y996774D01*
X785929Y996773D01*
X785853Y996394D01*
X785773Y995994D01*
X785703Y819051D01*
X785703Y819051D01*
X785703Y819051D01*
X785791Y818611D01*
X785858Y818271D01*
X785858Y818271D01*
X785859Y818271D01*
X786051Y817982D01*
X786300Y817609D01*
X786300Y817609D01*
X786300Y817609D01*
X787198Y816711D01*
X787198Y816711D01*
X787198Y816711D01*
X787582Y816454D01*
Y795162D01*
X787368Y795119D01*
X786953Y795037D01*
X786952Y795036D01*
X786952Y795036D01*
X786665Y794845D01*
X786291Y794595D01*
X786291Y794594D01*
X786290Y794594D01*
X786091Y794296D01*
X785849Y793933D01*
X785849Y793933D01*
X785848Y793933D01*
X785773Y793554D01*
X785693Y793153D01*
X785626Y623724D01*
X785626Y623724D01*
X785626Y623723D01*
X785714Y623283D01*
X785781Y622943D01*
X785781Y622943D01*
X785781Y622943D01*
X785974Y622654D01*
X786223Y622282D01*
X786223Y622281D01*
X786223Y622281D01*
X787121Y621383D01*
X787121Y621383D01*
X787121Y621383D01*
X787476Y621146D01*
X787582Y621075D01*
Y599850D01*
X787261Y599786D01*
X786875Y599709D01*
X786875Y599709D01*
X786875Y599709D01*
X786543Y599487D01*
X786214Y599267D01*
X786213Y599267D01*
X786213Y599267D01*
X785994Y598938D01*
X785771Y598606D01*
X785771Y598605D01*
X785771Y598605D01*
X785693Y598214D01*
X785616Y597826D01*
X785557Y449327D01*
X785557Y449327D01*
X785557Y449327D01*
X785645Y448886D01*
X785712Y448547D01*
X785712Y448547D01*
X785712Y448546D01*
X785905Y448258D01*
X786154Y447885D01*
X786154Y447885D01*
X786154Y447885D01*
X787052Y446987D01*
X787052Y446986D01*
X787052Y446986D01*
X787406Y446749D01*
X787590Y446626D01*
Y425467D01*
X787202Y425390D01*
X786818Y425315D01*
X786814Y425313D01*
X786810Y425312D01*
X786482Y425093D01*
X786154Y424876D01*
X786152Y424872D01*
X786149Y424870D01*
X785929Y424542D01*
X785710Y424216D01*
X785709Y424212D01*
X785706Y424208D01*
X785629Y423820D01*
X785551Y423436D01*
X785546Y422168D01*
X785547Y422165D01*
X785546Y422161D01*
X785469Y226334D01*
X785467Y226332D01*
X784603Y225546D01*
X784352Y225435D01*
X693851D01*
X692382Y225728D01*
X690999Y226301D01*
X689753Y227133D01*
X688695Y228191D01*
X687863Y229436D01*
X687290Y230820D01*
X686998Y232289D01*
Y233038D01*
X686997Y1290720D01*
X686968Y1290867D01*
X686989Y1291015D01*
X686777Y1291829D01*
X686995Y1292921D01*
X687568Y1294304D01*
X688400Y1295549D01*
X689458Y1296608D01*
X690704Y1297440D01*
X692087Y1298013D01*
X693556Y1298306D01*
X784995D01*
X785893Y1297407D01*
D02*
G37*
%LPC*%
G36*
X808555Y1268124D02*
X803680D01*
Y1263249D01*
X808555D01*
Y1268124D01*
D02*
G37*
G36*
Y1253249D02*
X803680D01*
Y1248374D01*
X808555D01*
Y1253249D01*
D02*
G37*
G36*
X868070Y1222702D02*
X864676Y1222255D01*
X861514Y1220946D01*
X858798Y1218862D01*
X856714Y1216146D01*
X855405Y1212984D01*
X854958Y1209590D01*
X855405Y1206196D01*
X856714Y1203034D01*
X858798Y1200318D01*
X861514Y1198234D01*
X864676Y1196925D01*
X868070Y1196478D01*
X871464Y1196925D01*
X874626Y1198234D01*
X877342Y1200318D01*
X879426Y1203034D01*
X880735Y1206196D01*
X881182Y1209590D01*
X880735Y1212984D01*
X879426Y1216146D01*
X877342Y1218862D01*
X874626Y1220946D01*
X871464Y1222255D01*
X868070Y1222702D01*
D02*
G37*
G36*
X811752Y1116400D02*
X791752D01*
Y1088400D01*
X811752D01*
Y1098011D01*
X816650D01*
Y1097840D01*
X825150D01*
Y1106340D01*
X816650D01*
Y1106168D01*
X811752D01*
Y1116400D01*
D02*
G37*
G36*
Y922011D02*
X791752D01*
Y894011D01*
X811752D01*
Y904929D01*
X816650D01*
Y904757D01*
X825150D01*
Y913257D01*
X816650D01*
Y913085D01*
X811752D01*
Y922011D01*
D02*
G37*
G36*
Y719172D02*
X791752D01*
Y691172D01*
X811752D01*
Y700808D01*
X816650D01*
Y700636D01*
X825150D01*
Y709136D01*
X816650D01*
Y708965D01*
X811752D01*
Y719172D01*
D02*
G37*
G36*
Y533235D02*
X791752D01*
Y505235D01*
X811752D01*
Y515707D01*
X816650D01*
Y515535D01*
X825150D01*
Y524035D01*
X816650D01*
Y523863D01*
X811752D01*
Y533235D01*
D02*
G37*
G36*
Y359713D02*
X791752D01*
Y331713D01*
X811752D01*
Y340086D01*
X816650D01*
Y339914D01*
X825150D01*
Y348414D01*
X816650D01*
Y348243D01*
X811752D01*
Y359713D01*
D02*
G37*
G36*
X868070Y336492D02*
X864676Y336045D01*
X861514Y334735D01*
X858798Y332652D01*
X856714Y329936D01*
X855405Y326774D01*
X854958Y323380D01*
X855405Y319986D01*
X856714Y316824D01*
X858798Y314108D01*
X861514Y312024D01*
X864676Y310715D01*
X868070Y310268D01*
X871464Y310715D01*
X874626Y312024D01*
X877342Y314108D01*
X879426Y316824D01*
X880735Y319986D01*
X881182Y323380D01*
X880735Y326774D01*
X879426Y329936D01*
X877342Y332652D01*
X874626Y334735D01*
X871464Y336045D01*
X868070Y336492D01*
D02*
G37*
G36*
X808555Y279039D02*
X803680D01*
Y274163D01*
X808555D01*
Y279039D01*
D02*
G37*
G36*
X793680D02*
X788805D01*
Y274163D01*
X793680D01*
Y279039D01*
D02*
G37*
G36*
X808555Y264163D02*
X803680D01*
Y259289D01*
X808555D01*
Y264163D01*
D02*
G37*
G36*
X793680D02*
X788805D01*
Y259289D01*
X793680D01*
Y264163D01*
D02*
G37*
G36*
X757680Y1287831D02*
X755200Y1287505D01*
X752889Y1286548D01*
X750904Y1285025D01*
X749382Y1283040D01*
X748425Y1280730D01*
X748098Y1278250D01*
X748425Y1275770D01*
X749382Y1273458D01*
X750904Y1271474D01*
X752889Y1269951D01*
X755200Y1268994D01*
X757680Y1268668D01*
X760160Y1268994D01*
X762471Y1269951D01*
X764455Y1271474D01*
X765978Y1273458D01*
X766935Y1275770D01*
X767262Y1278250D01*
X766935Y1280730D01*
X765978Y1283040D01*
X764455Y1285025D01*
X762471Y1286548D01*
X760160Y1287505D01*
X757680Y1287831D01*
D02*
G37*
G36*
X778680Y1266860D02*
Y1263249D01*
X782291D01*
X780723Y1265292D01*
X778680Y1266860D01*
D02*
G37*
G36*
X768680D02*
X766637Y1265292D01*
X765069Y1263249D01*
X768680D01*
Y1266860D01*
D02*
G37*
G36*
X782290Y1253249D02*
X778680D01*
Y1249639D01*
X780723Y1251207D01*
X782290Y1253249D01*
D02*
G37*
G36*
X768680D02*
X765070D01*
X766637Y1251207D01*
X768680Y1249639D01*
Y1253249D01*
D02*
G37*
G36*
X705350Y1222702D02*
X701956Y1222255D01*
X698794Y1220946D01*
X696078Y1218862D01*
X693995Y1216146D01*
X692685Y1212984D01*
X692238Y1209590D01*
X692685Y1206196D01*
X693995Y1203034D01*
X696078Y1200318D01*
X698794Y1198234D01*
X701956Y1196925D01*
X705350Y1196478D01*
X708744Y1196925D01*
X711906Y1198234D01*
X714622Y1200318D01*
X716705Y1203034D01*
X718015Y1206196D01*
X718462Y1209590D01*
X718015Y1212984D01*
X716705Y1216146D01*
X714622Y1218862D01*
X711906Y1220946D01*
X708744Y1222255D01*
X705350Y1222702D01*
D02*
G37*
G36*
Y336492D02*
X701956Y336045D01*
X698794Y334735D01*
X696078Y332652D01*
X693995Y329936D01*
X692685Y326774D01*
X692238Y323380D01*
X692685Y319986D01*
X693995Y316824D01*
X696078Y314108D01*
X698794Y312024D01*
X701956Y310715D01*
X705350Y310268D01*
X708744Y310715D01*
X711906Y312024D01*
X714622Y314108D01*
X716705Y316824D01*
X718015Y319986D01*
X718462Y323380D01*
X718015Y326774D01*
X716705Y329936D01*
X714622Y332652D01*
X711906Y334735D01*
X708744Y336045D01*
X705350Y336492D01*
D02*
G37*
G36*
X757680Y298745D02*
X755200Y298419D01*
X752889Y297462D01*
X750904Y295939D01*
X749382Y293955D01*
X748425Y291644D01*
X748098Y289163D01*
X748425Y286684D01*
X749382Y284373D01*
X750904Y282388D01*
X752889Y280865D01*
X755200Y279908D01*
X757680Y279582D01*
X760160Y279908D01*
X762471Y280865D01*
X764455Y282388D01*
X765978Y284373D01*
X766935Y286684D01*
X767262Y289163D01*
X766935Y291644D01*
X765978Y293955D01*
X764455Y295939D01*
X762471Y297462D01*
X760160Y298419D01*
X757680Y298745D01*
D02*
G37*
G36*
X778680Y277774D02*
Y274163D01*
X782290D01*
X780723Y276206D01*
X778680Y277774D01*
D02*
G37*
G36*
X768680D02*
X766637Y276206D01*
X765070Y274163D01*
X768680D01*
Y277774D01*
D02*
G37*
G36*
X782290Y264163D02*
X778680D01*
Y260553D01*
X780723Y262120D01*
X782290Y264163D01*
D02*
G37*
G36*
X768680D02*
X765070D01*
X766637Y262120D01*
X768680Y260553D01*
Y264163D01*
D02*
G37*
%LPD*%
D26*
X799428Y1200925D02*
G03*
X795082Y1199125I0J-6146D01*
G01*
X802312Y1102400D02*
G03*
X803060Y1102090I748J748D01*
G01*
X795082Y1008493D02*
G03*
X796656Y1007841I1574J1574D01*
G01*
X804716Y909007D02*
G03*
X802312Y908011I0J-3401D01*
G01*
X796156Y806097D02*
G03*
X795082Y805652I0J-1519D01*
G01*
X802312Y705172D02*
G03*
X803000Y704886I688J688D01*
G01*
X795811Y610627D02*
G03*
X795082Y610325I0J-1031D01*
G01*
X803640Y519785D02*
G03*
X802312Y519235I0J-1878D01*
G01*
X795082Y435657D02*
G03*
X796770Y434958I1688J1688D01*
G01*
X802312Y345713D02*
G03*
X806052Y344164I3740J3740D01*
G01*
X799428Y1200925D02*
X819681D01*
X803060Y1102090D02*
X819793D01*
X796656Y1007841D02*
X820900D01*
X804716Y909007D02*
X820900D01*
X796156Y806097D02*
X818650D01*
X803000Y704886D02*
X818650D01*
X795811Y610627D02*
X819702D01*
X803640Y519785D02*
X820900D01*
X796770Y434958D02*
X820900D01*
X806052Y344164D02*
X820900D01*
D27*
X773252Y345713D02*
D03*
X801752D02*
D03*
X773252Y1102400D02*
D03*
X801752D02*
D03*
X773252Y908011D02*
D03*
X801752D02*
D03*
X773252Y705172D02*
D03*
X801752D02*
D03*
X773252Y519235D02*
D03*
X801752D02*
D03*
D28*
X820900Y434958D02*
D03*
X828900D02*
D03*
Y1102090D02*
D03*
X820900D02*
D03*
X828900Y909007D02*
D03*
X820900D02*
D03*
X828900Y704886D02*
D03*
X820900D02*
D03*
X828900Y519785D02*
D03*
X820900D02*
D03*
X828900Y344164D02*
D03*
X820900D02*
D03*
Y1200925D02*
D03*
X828900D02*
D03*
Y1007841D02*
D03*
X820900D02*
D03*
X828900Y806097D02*
D03*
X820900D02*
D03*
X828900Y610627D02*
D03*
X820900D02*
D03*
D29*
X775090Y435928D02*
D03*
X775524Y1198486D02*
D03*
X775082Y1008493D02*
D03*
Y805652D02*
D03*
Y610325D02*
D03*
D30*
X795090Y435928D02*
D03*
X795524Y1198486D02*
D03*
X795082Y1008493D02*
D03*
Y805652D02*
D03*
Y610325D02*
D03*
D31*
X798680Y1258250D02*
D03*
Y269163D02*
D03*
D32*
X773680Y1258250D02*
D03*
Y269163D02*
D03*
D33*
X757680Y1278250D02*
D03*
Y289163D02*
D03*
D34*
X705350Y1209590D02*
D03*
X868070D02*
D03*
Y323380D02*
D03*
X705350D02*
D03*
M02*
