G04*
G04 #@! TF.GenerationSoftware,Altium Limited,Altium Designer,20.1.14 (287)*
G04*
G04 Layer_Color=16711935*
%FSLAX44Y44*%
%MOMM*%
G71*
G04*
G04 #@! TF.SameCoordinates,F9CCF83C-BBFD-4EAF-9253-F7A08A0B78FC*
G04*
G04*
G04 #@! TF.FilePolarity,Negative*
G04*
G01*
G75*
%ADD22R,1.7750X1.7750*%
%ADD23C,1.7750*%
%ADD24C,0.8500*%
%ADD25C,2.2000*%
G36*
X785570Y1067300D02*
X785722D01*
X785875Y1067287D01*
X785986D01*
X786069Y1067273D01*
X786124D01*
X786138D01*
X786430Y1067245D01*
X786693Y1067203D01*
X786943Y1067176D01*
X787178Y1067120D01*
X787386Y1067079D01*
X787581Y1067037D01*
X787747Y1066995D01*
X787900Y1066940D01*
X788038Y1066898D01*
X788149Y1066857D01*
X788246Y1066815D01*
X788329Y1066787D01*
X788385Y1066760D01*
X788427Y1066732D01*
X788454Y1066718D01*
X788468D01*
X788718Y1066579D01*
X788954Y1066427D01*
X789189Y1066260D01*
X789397Y1066108D01*
X789564Y1065969D01*
X789703Y1065858D01*
X789758Y1065803D01*
X789799Y1065775D01*
X789813Y1065747D01*
X789827D01*
X789952Y1065622D01*
X790049Y1065511D01*
X790146Y1065414D01*
X790229Y1065317D01*
X790354Y1065151D01*
X790437Y1065012D01*
X790479Y1064915D01*
X790507Y1064832D01*
X790521Y1064790D01*
Y1064776D01*
X790535Y1064749D01*
X790548Y1064707D01*
X790618Y1064610D01*
X790701Y1064527D01*
X790715Y1064499D01*
X790729Y1064485D01*
X790784Y1064416D01*
X790840Y1064319D01*
X790937Y1064125D01*
X790978Y1064027D01*
X791006Y1063958D01*
X791034Y1063903D01*
Y1063889D01*
X791075Y1063722D01*
X791117Y1063556D01*
X791131Y1063390D01*
X791145Y1063237D01*
X791159Y1063112D01*
Y1062932D01*
X791131Y1062752D01*
X791075Y1062627D01*
X790992Y1062516D01*
X790909Y1062447D01*
X790826Y1062391D01*
X790757Y1062349D01*
X790701Y1062336D01*
X790687D01*
X790493Y1062308D01*
X790327Y1062336D01*
X790160Y1062363D01*
X790021Y1062419D01*
X789911Y1062488D01*
X789813Y1062544D01*
X789758Y1062585D01*
X789744Y1062599D01*
X789689Y1062641D01*
X789619Y1062682D01*
X789453Y1062752D01*
X789245Y1062807D01*
X789051Y1062863D01*
X788857Y1062904D01*
X788704Y1062918D01*
X788635Y1062932D01*
X788593Y1062946D01*
X788565D01*
X788551D01*
X788357Y1062960D01*
X788108Y1062987D01*
X787830Y1063001D01*
X787525Y1063015D01*
X787206Y1063029D01*
X786859Y1063043D01*
X786180Y1063071D01*
X785861Y1063084D01*
X785556Y1063098D01*
X785278D01*
X785029Y1063112D01*
X784821D01*
X784738Y1063126D01*
X784668D01*
X784613D01*
X784557D01*
X784543D01*
X784529D01*
X784086Y1063140D01*
X783684D01*
X783323Y1063154D01*
X783004D01*
X782727D01*
X782477D01*
X782269D01*
X782089D01*
X781936D01*
X781811D01*
X781714D01*
X781645D01*
X781589D01*
X781548D01*
X781520D01*
X781340Y1063126D01*
X781187Y1063098D01*
X781062Y1063057D01*
X780979Y1063015D01*
X780910Y1062987D01*
X780854Y1062946D01*
X780841Y1062932D01*
X780827Y1062918D01*
X780716Y1062793D01*
X780605Y1062710D01*
X780508Y1062627D01*
X780424Y1062571D01*
X780355Y1062530D01*
X780300Y1062502D01*
X780272Y1062488D01*
X780258D01*
X780133D01*
X780036Y1062516D01*
X779953Y1062571D01*
X779898Y1062654D01*
X779856Y1062738D01*
X779814Y1062849D01*
X779787Y1063098D01*
X779800Y1063348D01*
Y1063459D01*
X779814Y1063556D01*
X779828Y1063653D01*
X779842Y1063722D01*
X779856Y1063764D01*
Y1063778D01*
X779925Y1064027D01*
X780008Y1064277D01*
X780106Y1064513D01*
X780203Y1064721D01*
X780314Y1064929D01*
X780411Y1065109D01*
X780522Y1065276D01*
X780632Y1065428D01*
X780730Y1065567D01*
X780827Y1065692D01*
X780910Y1065803D01*
X780993Y1065886D01*
X781062Y1065955D01*
X781104Y1065997D01*
X781132Y1066025D01*
X781146Y1066038D01*
X781506Y1066330D01*
X781881Y1066579D01*
X782255Y1066774D01*
X782602Y1066926D01*
X782754Y1066995D01*
X782907Y1067037D01*
X783032Y1067079D01*
X783143Y1067120D01*
X783226Y1067148D01*
X783295Y1067162D01*
X783337Y1067176D01*
X783351D01*
X783808Y1067245D01*
X784280Y1067287D01*
X784751Y1067314D01*
X785181D01*
X785389D01*
X785570Y1067300D01*
D02*
G37*
G36*
X790618Y1061781D02*
X790701D01*
X790757Y1061767D01*
X790770D01*
X790909Y1061628D01*
X791006Y1061476D01*
X791062Y1061295D01*
X791089Y1061129D01*
X791103Y1060976D01*
Y1060852D01*
X791089Y1060768D01*
Y1060741D01*
X791034Y1060477D01*
X790951Y1060228D01*
X790854Y1060020D01*
X790757Y1059825D01*
X790673Y1059673D01*
X790590Y1059548D01*
X790535Y1059479D01*
X790521Y1059451D01*
X790313Y1059187D01*
X790105Y1058938D01*
X789911Y1058716D01*
X789716Y1058508D01*
X789522Y1058328D01*
X789342Y1058161D01*
X789175Y1058023D01*
X789009Y1057898D01*
X788870Y1057787D01*
X788732Y1057690D01*
X788621Y1057620D01*
X788524Y1057551D01*
X788440Y1057509D01*
X788385Y1057482D01*
X788343Y1057454D01*
X788329D01*
X788108Y1057357D01*
X787872Y1057274D01*
X787359Y1057149D01*
X786832Y1057052D01*
X786319Y1056996D01*
X786083Y1056969D01*
X785861Y1056955D01*
X785653Y1056941D01*
X785487D01*
X785334Y1056927D01*
X785237D01*
X785167D01*
X785140D01*
X784765D01*
X784405Y1056955D01*
X784072Y1056982D01*
X783767Y1057024D01*
X783475Y1057066D01*
X783226Y1057107D01*
X782990Y1057163D01*
X782768Y1057218D01*
X782588Y1057274D01*
X782421Y1057329D01*
X782283Y1057371D01*
X782172Y1057412D01*
X782075Y1057454D01*
X782019Y1057482D01*
X781978Y1057495D01*
X781964Y1057509D01*
X781756Y1057620D01*
X781562Y1057759D01*
X781368Y1057925D01*
X781187Y1058092D01*
X780841Y1058438D01*
X780549Y1058799D01*
X780411Y1058979D01*
X780300Y1059132D01*
X780203Y1059285D01*
X780119Y1059409D01*
X780050Y1059520D01*
X779995Y1059604D01*
X779967Y1059659D01*
X779953Y1059673D01*
X779814Y1059909D01*
X779717Y1060103D01*
X779634Y1060255D01*
X779592Y1060366D01*
X779565Y1060463D01*
X779537Y1060519D01*
Y1060560D01*
X779565Y1060685D01*
X779620Y1060768D01*
X779703Y1060838D01*
X779800Y1060879D01*
X779911Y1060907D01*
X779995Y1060921D01*
X780050D01*
X780062D01*
X780050Y1060935D01*
X780008Y1060990D01*
X779995Y1061018D01*
X779911Y1061143D01*
X779842Y1061254D01*
X779800Y1061351D01*
X779759Y1061434D01*
X779745Y1061490D01*
X779731Y1061531D01*
Y1061559D01*
X779745Y1061614D01*
X779759Y1061670D01*
X779842Y1061739D01*
X779953Y1061781D01*
X780078D01*
X780217D01*
X780327Y1061767D01*
X780411Y1061739D01*
X780424D01*
X780438D01*
X780535Y1061698D01*
X780632Y1061656D01*
X780702Y1061614D01*
X780757Y1061600D01*
X780841Y1061573D01*
X780868Y1061559D01*
X781035Y1061476D01*
X781160Y1061379D01*
X781257Y1061268D01*
X781312Y1061171D01*
X781354Y1061060D01*
X781368Y1060976D01*
X781381Y1060921D01*
Y1060907D01*
X781368Y1060810D01*
X781354Y1060727D01*
X781324Y1060668D01*
X781284Y1060658D01*
X781132Y1060630D01*
X781118D01*
X781062Y1060616D01*
X780993Y1060602D01*
X780910Y1060588D01*
X780841Y1060574D01*
X780771Y1060546D01*
X780730Y1060533D01*
X780716Y1060519D01*
X780702Y1060533D01*
X780674Y1060574D01*
X780632Y1060644D01*
X780563Y1060713D01*
X780480Y1060796D01*
X780369Y1060852D01*
X780230Y1060907D01*
X780078Y1060921D01*
X780062D01*
X780119Y1060852D01*
X780217Y1060741D01*
X780327Y1060644D01*
X780452Y1060533D01*
X780605Y1060450D01*
X780757Y1060394D01*
X780785D01*
X780854D01*
X780952Y1060408D01*
X781062Y1060436D01*
X781187Y1060491D01*
X781284Y1060588D01*
X781324Y1060668D01*
X781437Y1060699D01*
X781562Y1060741D01*
X781673Y1060768D01*
X781770Y1060810D01*
X781839Y1060838D01*
X781881Y1060852D01*
X781895Y1060865D01*
X781936Y1060879D01*
X782005Y1060907D01*
X782103Y1060921D01*
X782214Y1060935D01*
X782463Y1060963D01*
X782740Y1060976D01*
X783018Y1060990D01*
X783143D01*
X783254Y1061004D01*
X783337D01*
X783420D01*
X783462D01*
X783475D01*
X784127Y1061032D01*
X784433Y1061046D01*
X784724Y1061060D01*
X785015Y1061074D01*
X785278Y1061087D01*
X785514Y1061101D01*
X785750Y1061115D01*
X785958Y1061129D01*
X786138Y1061143D01*
X786291Y1061157D01*
X786430D01*
X786541Y1061171D01*
X786610Y1061184D01*
X786665D01*
X786679D01*
X786929Y1061198D01*
X787165Y1061226D01*
X787373Y1061240D01*
X787581Y1061268D01*
X787747Y1061282D01*
X787913Y1061309D01*
X788052Y1061323D01*
X788177Y1061337D01*
X788288Y1061351D01*
X788385Y1061365D01*
X788468Y1061379D01*
X788524Y1061393D01*
X788579D01*
X788607Y1061406D01*
X788635D01*
X788843Y1061448D01*
X789037Y1061490D01*
X789217Y1061531D01*
X789370Y1061559D01*
X789508Y1061587D01*
X789619Y1061614D01*
X789675Y1061628D01*
X789703D01*
X789869Y1061656D01*
X789994Y1061698D01*
X790091Y1061725D01*
X790160Y1061739D01*
X790216Y1061753D01*
X790243Y1061767D01*
X790257Y1061781D01*
X790285Y1061795D01*
X790354D01*
X790437D01*
X790535D01*
X790618Y1061781D01*
D02*
G37*
G36*
X790965Y1056663D02*
X791020Y1056649D01*
X791048D01*
X791131Y1056608D01*
X791200Y1056539D01*
X791311Y1056386D01*
X791380Y1056206D01*
X791408Y1056012D01*
X791422Y1055817D01*
X791408Y1055665D01*
Y1055595D01*
X791394Y1055554D01*
Y1055512D01*
X791339Y1055207D01*
X791297Y1054861D01*
X791256Y1054514D01*
X791228Y1054181D01*
X791214Y1054028D01*
Y1053876D01*
X791200Y1053751D01*
Y1053640D01*
X791186Y1053543D01*
Y1053182D01*
X791172Y1052974D01*
X791186Y1052780D01*
Y1052461D01*
X791200Y1052337D01*
X791214Y1052225D01*
Y1052128D01*
X791228Y1052045D01*
X791242Y1051990D01*
X791256Y1051893D01*
X791283Y1051851D01*
Y1051837D01*
X791311Y1051740D01*
X791339Y1051643D01*
Y1051477D01*
X791297Y1051324D01*
X791256Y1051185D01*
X791186Y1051088D01*
X791131Y1051005D01*
X791075Y1050964D01*
X791062Y1050950D01*
X790978Y1050894D01*
X790895Y1050839D01*
X790757Y1050783D01*
X790632Y1050755D01*
X790521Y1050769D01*
X790437Y1050783D01*
X790368Y1050811D01*
X790327Y1050839D01*
X790313Y1050853D01*
X790216Y1050964D01*
X790146Y1051088D01*
X790118Y1051227D01*
X790105Y1051352D01*
Y1051477D01*
X790118Y1051574D01*
X790132Y1051643D01*
Y1051671D01*
X790146Y1051782D01*
Y1051854D01*
X790105Y1051823D01*
X790021Y1051782D01*
X789938Y1051740D01*
X789744Y1051685D01*
X789522Y1051657D01*
X789314Y1051629D01*
X789134Y1051615D01*
X789064D01*
X789009D01*
X788981D01*
X788967D01*
X788773D01*
X788621Y1051629D01*
X788468Y1051657D01*
X788343Y1051685D01*
X788246Y1051726D01*
X788163Y1051768D01*
X788094Y1051809D01*
X788038Y1051851D01*
X787955Y1051934D01*
X787913Y1052018D01*
X787900Y1052073D01*
Y1052087D01*
X787913Y1052229D01*
X787775Y1052212D01*
X787511Y1052184D01*
X787248Y1052156D01*
X786956Y1052128D01*
X786360Y1052073D01*
X786069Y1052045D01*
X785792Y1052031D01*
X785542Y1052004D01*
X785320Y1051990D01*
X785126Y1051976D01*
X784987Y1051962D01*
X784932Y1051948D01*
X784890D01*
X784876D01*
X784862D01*
X784349Y1051907D01*
X783878Y1051879D01*
X783462Y1051851D01*
X783073Y1051823D01*
X782727Y1051796D01*
X782421Y1051782D01*
X782158Y1051768D01*
X781922Y1051754D01*
X781714Y1051740D01*
X781548D01*
X781409Y1051726D01*
X781284D01*
X781201D01*
X781146D01*
X781118D01*
X781104D01*
X779634D01*
X779578Y1054139D01*
Y1055485D01*
X779592Y1055609D01*
Y1055804D01*
X779606Y1055873D01*
Y1055942D01*
X779620Y1055984D01*
Y1056039D01*
X779648Y1056206D01*
X779703Y1056344D01*
X779773Y1056455D01*
X779828Y1056539D01*
X779898Y1056594D01*
X779953Y1056622D01*
X779995Y1056649D01*
X780008D01*
X780106Y1056663D01*
X780189Y1056677D01*
X780286Y1056663D01*
X780369Y1056636D01*
X780535Y1056566D01*
X780688Y1056469D01*
X780813Y1056372D01*
X780924Y1056275D01*
X780979Y1056206D01*
X781007Y1056178D01*
X781298Y1055776D01*
X789716D01*
X790188Y1056289D01*
X790257Y1056386D01*
X790327Y1056455D01*
X790396Y1056525D01*
X790479Y1056566D01*
X790618Y1056636D01*
X790757Y1056677D01*
X790867D01*
X790965Y1056663D01*
D02*
G37*
G36*
X780535Y1051421D02*
X780605Y1051393D01*
X780702Y1051338D01*
X780771Y1051255D01*
X780799Y1051185D01*
X780813Y1051130D01*
Y1051116D01*
X780799Y1050964D01*
X780757Y1050839D01*
X780702Y1050755D01*
X780646Y1050700D01*
X780591Y1050672D01*
X780535Y1050645D01*
X780494D01*
X780480D01*
X780466Y1050631D01*
X780452D01*
X780438D01*
X780327Y1050589D01*
X780286Y1050575D01*
X780272D01*
X780189Y1050561D01*
X780106Y1050547D01*
X780050Y1050534D01*
X780036D01*
X779939Y1050520D01*
X779828Y1050534D01*
X779745Y1050547D01*
X779731D01*
X779717D01*
X779648Y1050575D01*
X779606Y1050617D01*
X779551Y1050742D01*
X779537Y1050797D01*
X779523Y1050839D01*
Y1050894D01*
X779537Y1051005D01*
X779592Y1051116D01*
X779662Y1051199D01*
X779745Y1051269D01*
X779842Y1051338D01*
X779911Y1051379D01*
X779967Y1051393D01*
X779981Y1051407D01*
X780133Y1051435D01*
X780258Y1051449D01*
X780369D01*
X780466D01*
X780535Y1051421D01*
D02*
G37*
G36*
X786554Y1051504D02*
X786610Y1051490D01*
X786637D01*
X786721Y1051449D01*
X786790Y1051379D01*
X786901Y1051227D01*
X786984Y1051061D01*
X787040Y1050866D01*
X787067Y1050700D01*
X787095Y1050547D01*
Y1050409D01*
X787081Y1050076D01*
X787026Y1049757D01*
X786970Y1049452D01*
X786887Y1049188D01*
X786818Y1048953D01*
X786790Y1048869D01*
X786749Y1048786D01*
X786735Y1048717D01*
X786707Y1048675D01*
X786693Y1048648D01*
Y1048634D01*
X786527Y1048315D01*
X786346Y1048037D01*
X786166Y1047788D01*
X785986Y1047580D01*
X785833Y1047427D01*
X785708Y1047302D01*
X785625Y1047233D01*
X785611Y1047205D01*
X785597D01*
X785403Y1047053D01*
X785237Y1046942D01*
X785070Y1046858D01*
X784946Y1046789D01*
X784835Y1046748D01*
X784751Y1046706D01*
X784696Y1046692D01*
X784682D01*
X784599Y1046678D01*
X784516Y1046664D01*
X784308Y1046637D01*
X784072Y1046623D01*
X783836Y1046609D01*
X783628Y1046595D01*
X783545D01*
X783462D01*
X783392D01*
X783337D01*
X783309D01*
X783295D01*
X783073D01*
X782865Y1046609D01*
X782671Y1046623D01*
X782491Y1046650D01*
X782338Y1046678D01*
X782186Y1046706D01*
X782047Y1046734D01*
X781922Y1046761D01*
X781825Y1046789D01*
X781728Y1046817D01*
X781659Y1046845D01*
X781589Y1046872D01*
X781548Y1046900D01*
X781506Y1046914D01*
X781479Y1046928D01*
X781368Y1046997D01*
X781257Y1047080D01*
X781062Y1047274D01*
X780882Y1047496D01*
X780716Y1047718D01*
X780591Y1047926D01*
X780494Y1048093D01*
X780452Y1048162D01*
X780438Y1048217D01*
X780411Y1048245D01*
Y1048259D01*
X780272Y1048606D01*
X780175Y1048911D01*
X780106Y1049188D01*
X780050Y1049424D01*
X780036Y1049646D01*
Y1049826D01*
X780050Y1049979D01*
X780078Y1050104D01*
X780119Y1050215D01*
X780175Y1050312D01*
X780217Y1050381D01*
X780272Y1050423D01*
X780314Y1050464D01*
X780355Y1050492D01*
X780369Y1050506D01*
X780383D01*
X780563Y1050534D01*
X780743D01*
X780882Y1050492D01*
X781021Y1050436D01*
X781118Y1050367D01*
X781201Y1050298D01*
X781257Y1050256D01*
X781271Y1050242D01*
X781284D01*
X781326Y1050229D01*
X781395D01*
X781451D01*
X781520D01*
X781576D01*
X781617D01*
X781631D01*
X781700D01*
X781797Y1050242D01*
X781908D01*
X782033Y1050256D01*
X782311Y1050298D01*
X782602Y1050325D01*
X782879Y1050367D01*
X783004Y1050381D01*
X783115Y1050409D01*
X783212Y1050423D01*
X783281D01*
X783323Y1050436D01*
X783337D01*
X783587Y1050478D01*
X783808Y1050506D01*
X784016Y1050534D01*
X784197Y1050575D01*
X784363Y1050603D01*
X784502Y1050631D01*
X784627Y1050658D01*
X784738Y1050672D01*
X784835Y1050700D01*
X784918Y1050714D01*
X784973Y1050728D01*
X785029Y1050742D01*
X785098Y1050769D01*
X785112D01*
X785251Y1050825D01*
X785376Y1050880D01*
X785473Y1050936D01*
X785556Y1050977D01*
X785611Y1051033D01*
X785653Y1051061D01*
X785681Y1051088D01*
X785695Y1051102D01*
X785778Y1051199D01*
X785875Y1051283D01*
X785958Y1051352D01*
X786041Y1051407D01*
X786194Y1051477D01*
X786346Y1051518D01*
X786457D01*
X786554Y1051504D01*
D02*
G37*
G36*
X780480Y1046331D02*
X780646Y1046248D01*
X780799Y1046165D01*
X780938Y1046068D01*
X781049Y1045985D01*
X781118Y1045929D01*
X781132Y1045901D01*
X781146D01*
X781548Y1045499D01*
X785639Y1045569D01*
X786013D01*
X786360Y1045583D01*
X786693D01*
X787012Y1045596D01*
X787289D01*
X787567Y1045610D01*
X787816Y1045624D01*
X788052D01*
X788260Y1045638D01*
X788454D01*
X788635Y1045652D01*
X788801Y1045666D01*
X788954D01*
X789092Y1045680D01*
X789328Y1045694D01*
X789508Y1045721D01*
X789661Y1045735D01*
X789758Y1045749D01*
X789827Y1045763D01*
X789883Y1045777D01*
X789911D01*
X789924Y1045791D01*
X790105Y1045901D01*
X790271Y1045971D01*
X790410Y1045999D01*
X790548Y1045985D01*
X790659Y1045957D01*
X790757Y1045901D01*
X790840Y1045818D01*
X790909Y1045735D01*
X791006Y1045527D01*
X791075Y1045333D01*
X791089Y1045264D01*
X791103Y1045194D01*
X791117Y1045153D01*
Y1045139D01*
X791131Y1044945D01*
X791145Y1044764D01*
X791159Y1044612D01*
Y1044334D01*
X791145Y1044223D01*
Y1044112D01*
X791131Y1044029D01*
X791103Y1043891D01*
X791089Y1043807D01*
X791062Y1043752D01*
Y1043738D01*
X791034Y1043669D01*
X791006Y1043572D01*
X790965Y1043350D01*
X790951Y1043253D01*
X790937Y1043169D01*
X790923Y1043114D01*
Y1043086D01*
X790881Y1042712D01*
X790854Y1042532D01*
X790826Y1042379D01*
X790812Y1042254D01*
X790798Y1042143D01*
X790784Y1042088D01*
Y1042060D01*
X790743Y1041880D01*
X790673Y1041755D01*
X790604Y1041658D01*
X790521Y1041602D01*
X790451Y1041561D01*
X790382Y1041547D01*
X790340Y1041533D01*
X790327D01*
X790229D01*
X790160Y1041561D01*
X790049Y1041630D01*
X789966Y1041741D01*
X789938Y1041852D01*
X789924Y1041977D01*
Y1042088D01*
X789938Y1042157D01*
X789911Y1042143D01*
X789841Y1042129D01*
X789758D01*
X789730D01*
X789716D01*
X789522Y1042143D01*
X789356Y1042129D01*
X789231Y1042102D01*
X789134Y1042074D01*
X789064Y1042046D01*
X789009Y1042004D01*
X788995Y1041991D01*
X788981Y1041977D01*
X788898Y1041880D01*
X788815Y1041810D01*
X788745Y1041755D01*
X788690Y1041713D01*
X788607Y1041672D01*
X788593D01*
X788579D01*
X788454D01*
X788371Y1041685D01*
X788302Y1041699D01*
X788288Y1041713D01*
X788177Y1041755D01*
X788052Y1041783D01*
X787983Y1041796D01*
X787941Y1041810D01*
X787913Y1041824D01*
X787900D01*
X787678Y1041838D01*
X787470Y1041852D01*
X787373Y1041838D01*
X787303D01*
X787248D01*
X787234D01*
X786582Y1041796D01*
X785986Y1041769D01*
X785417Y1041741D01*
X784876Y1041713D01*
X784377Y1041685D01*
X783919Y1041672D01*
X783489Y1041658D01*
X783087D01*
X782713Y1041644D01*
X782366D01*
X782061D01*
X781770D01*
X781520Y1041658D01*
X781284D01*
X781062Y1041672D01*
X780868D01*
X780702Y1041685D01*
X780549Y1041699D01*
X780424Y1041713D01*
X780314Y1041727D01*
X780217Y1041741D01*
X780119Y1041755D01*
X779995Y1041783D01*
X779911Y1041810D01*
X779870Y1041838D01*
X779842Y1041852D01*
X779814Y1041921D01*
X779800Y1042004D01*
X779773Y1042115D01*
X779759Y1042240D01*
X779717Y1042532D01*
X779689Y1042850D01*
X779662Y1043156D01*
Y1043294D01*
X779648Y1043405D01*
Y1043516D01*
X779634Y1043586D01*
Y1043655D01*
X779620Y1043932D01*
X779606Y1044168D01*
Y1044390D01*
X779592Y1044598D01*
Y1045055D01*
X779606Y1045166D01*
Y1045347D01*
X779620Y1045416D01*
Y1045458D01*
X779634Y1045527D01*
Y1045541D01*
X779676Y1045680D01*
X779717Y1045791D01*
X779759Y1045901D01*
X779814Y1045985D01*
X779898Y1046137D01*
X779995Y1046234D01*
X780064Y1046304D01*
X780133Y1046345D01*
X780175Y1046373D01*
X780189D01*
X780258D01*
X780327D01*
X780480Y1046331D01*
D02*
G37*
G36*
X785736Y1040507D02*
X785819D01*
X785916Y1040479D01*
X785986Y1040437D01*
X786013Y1040424D01*
X786027Y1040410D01*
X786055Y1040396D01*
X786111D01*
X786180Y1040382D01*
X786277D01*
X786360D01*
X786443D01*
X786499D01*
X786513D01*
X786735Y1040368D01*
X786943Y1040326D01*
X787109Y1040271D01*
X787262Y1040202D01*
X787386Y1040132D01*
X787484Y1040077D01*
X787539Y1040035D01*
X787553Y1040021D01*
X787622Y1039952D01*
X787678Y1039883D01*
X787747Y1039730D01*
X787789Y1039577D01*
Y1039453D01*
X787775Y1039328D01*
X787747Y1039245D01*
X787733Y1039189D01*
X787719Y1039162D01*
X787664Y1039106D01*
X787567Y1039064D01*
X787428Y1039037D01*
X787275Y1038995D01*
X787095Y1038967D01*
X786901Y1038953D01*
X786485Y1038912D01*
X786277D01*
X786083Y1038898D01*
X785902D01*
X785736Y1038884D01*
X785597D01*
X785500D01*
X785431D01*
X785403D01*
X785029D01*
X784696Y1038898D01*
X784405Y1038912D01*
X784155Y1038926D01*
X783933Y1038953D01*
X783753Y1038981D01*
X783587Y1039009D01*
X783462Y1039023D01*
X783365Y1039051D01*
X783281Y1039078D01*
X783212Y1039106D01*
X783170Y1039134D01*
X783143Y1039148D01*
X783129Y1039162D01*
X783115Y1039175D01*
X783073Y1039328D01*
X783059Y1039467D01*
X783087Y1039577D01*
X783129Y1039688D01*
X783184Y1039758D01*
X783226Y1039827D01*
X783268Y1039855D01*
X783281Y1039869D01*
X783365Y1039910D01*
X783462Y1039966D01*
X783684Y1040049D01*
X783933Y1040146D01*
X784183Y1040229D01*
X784405Y1040299D01*
X784516Y1040326D01*
X784599Y1040354D01*
X784668Y1040368D01*
X784738Y1040382D01*
X784765Y1040396D01*
X784779D01*
X784973Y1040437D01*
X785154Y1040465D01*
X785306Y1040493D01*
X785431Y1040507D01*
X785556Y1040521D01*
X785653D01*
X785736Y1040507D01*
D02*
G37*
G36*
X790424Y1041131D02*
X790548Y1041075D01*
X790632Y1040992D01*
X790687Y1040909D01*
X790715Y1040826D01*
X790729Y1040742D01*
X790743Y1040687D01*
Y1040673D01*
X790729Y1040521D01*
X790673Y1040396D01*
X790590Y1040312D01*
X790632D01*
X790715D01*
X790770Y1040299D01*
X790812Y1040285D01*
X790826D01*
X790937Y1040243D01*
X791034Y1040174D01*
X791103Y1040105D01*
X791159Y1040035D01*
X791200Y1039966D01*
X791228Y1039910D01*
X791242Y1039869D01*
Y1039855D01*
X791256Y1039702D01*
X791270Y1039536D01*
Y1038898D01*
X791256Y1038842D01*
Y1038773D01*
X791186Y1037442D01*
X789411D01*
X789231D01*
X789078D01*
X788926Y1037456D01*
X788801D01*
X788690Y1037469D01*
X788621D01*
X788565Y1037483D01*
X788551D01*
X788302Y1037525D01*
X788108Y1037580D01*
X787955Y1037636D01*
X787844Y1037719D01*
X787747Y1037802D01*
X787705Y1037886D01*
X787664Y1037983D01*
Y1038163D01*
X787691Y1038246D01*
X787747Y1038399D01*
X787789Y1038454D01*
X787816Y1038496D01*
X787830Y1038523D01*
X787844Y1038537D01*
X788066Y1038690D01*
X788163Y1038745D01*
X788246Y1038801D01*
X788316Y1038842D01*
X788371Y1038870D01*
X788413Y1038898D01*
X788427D01*
X788635Y1039009D01*
X788829Y1039106D01*
X788995Y1039203D01*
X789134Y1039300D01*
X789245Y1039370D01*
X789328Y1039425D01*
X789383Y1039467D01*
X789397Y1039480D01*
X789536Y1039591D01*
X789647Y1039675D01*
X789730Y1039758D01*
X789799Y1039827D01*
X789855Y1039883D01*
X789897Y1039924D01*
X789911Y1039952D01*
X789924Y1039966D01*
X790035Y1040091D01*
X790160Y1040188D01*
X790192Y1040209D01*
X790118Y1040216D01*
X789994Y1040271D01*
X789911Y1040354D01*
X789855Y1040437D01*
X789827Y1040521D01*
X789799Y1040604D01*
Y1040673D01*
X789813Y1040826D01*
X789869Y1040950D01*
X789952Y1041034D01*
X790035Y1041089D01*
X790118Y1041117D01*
X790202Y1041131D01*
X790257Y1041145D01*
X790271D01*
X790424Y1041131D01*
D02*
G37*
G36*
X780438Y1041270D02*
X780549Y1041242D01*
X780660Y1041186D01*
X780757Y1041117D01*
X780854Y1041034D01*
X781007Y1040853D01*
X781132Y1040687D01*
X781173Y1040618D01*
X781201Y1040576D01*
X781215Y1040534D01*
X781229Y1040521D01*
X781354Y1040285D01*
X781479Y1040091D01*
X781603Y1039910D01*
X781700Y1039758D01*
X781797Y1039647D01*
X781867Y1039564D01*
X781922Y1039508D01*
X781936Y1039494D01*
X782075Y1039370D01*
X782200Y1039259D01*
X782325Y1039162D01*
X782435Y1039092D01*
X782519Y1039037D01*
X782588Y1038995D01*
X782630Y1038967D01*
X782643D01*
X782879Y1038829D01*
X782976Y1038773D01*
X783073Y1038704D01*
X783157Y1038648D01*
X783212Y1038607D01*
X783254Y1038579D01*
X783268Y1038565D01*
X783365Y1038468D01*
X783448Y1038371D01*
X783503Y1038288D01*
X783531Y1038191D01*
X783559Y1038108D01*
X783573Y1038052D01*
Y1037997D01*
X783559Y1037899D01*
X783545Y1037816D01*
X783462Y1037678D01*
X783351Y1037567D01*
X783212Y1037497D01*
X783087Y1037456D01*
X782976Y1037428D01*
X782893Y1037414D01*
X782879D01*
X782865D01*
X782602D01*
X782366Y1037428D01*
X782130Y1037456D01*
X781936Y1037497D01*
X781784Y1037539D01*
X781659Y1037567D01*
X781576Y1037594D01*
X781548Y1037608D01*
X781298Y1037678D01*
X781090Y1037761D01*
X780924Y1037830D01*
X780785Y1037899D01*
X780688Y1037955D01*
X780632Y1037997D01*
X780591Y1038024D01*
X780577Y1038038D01*
X780494Y1038135D01*
X780411Y1038246D01*
X780286Y1038496D01*
X780230Y1038621D01*
X780203Y1038718D01*
X780175Y1038773D01*
Y1038801D01*
X780119Y1038981D01*
X780078Y1039120D01*
X780036Y1039245D01*
X779995Y1039328D01*
X779967Y1039383D01*
X779939Y1039425D01*
X779925Y1039453D01*
X779856Y1039550D01*
X779800Y1039675D01*
X779759Y1039799D01*
X779731Y1039938D01*
X779717Y1040063D01*
X779703Y1040174D01*
Y1040271D01*
X779717Y1040479D01*
X779731Y1040659D01*
X779773Y1040812D01*
X779800Y1040937D01*
X779842Y1041034D01*
X779884Y1041089D01*
X779898Y1041131D01*
X779911Y1041145D01*
X780050Y1041228D01*
X780189Y1041270D01*
X780314Y1041283D01*
X780438Y1041270D01*
D02*
G37*
G36*
X790978Y1037178D02*
X790992D01*
X791048Y1037123D01*
X791103Y1037040D01*
X791145Y1036929D01*
X791186Y1036804D01*
X791214Y1036665D01*
X791242Y1036513D01*
X791283Y1036208D01*
X791297Y1035902D01*
X791311Y1035764D01*
Y1035403D01*
X791297Y1035126D01*
X791283Y1034876D01*
X791270Y1034654D01*
X791242Y1034474D01*
X791228Y1034307D01*
X791186Y1034155D01*
X791159Y1034044D01*
X791131Y1033947D01*
X791103Y1033864D01*
X791075Y1033794D01*
X791048Y1033739D01*
X791020Y1033711D01*
X790992Y1033670D01*
X790978Y1033656D01*
X790895Y1033628D01*
X790826Y1033614D01*
X790659Y1033642D01*
X790507Y1033697D01*
X790368Y1033781D01*
X790243Y1033878D01*
X790146Y1033961D01*
X790091Y1034016D01*
X790063Y1034044D01*
X789827Y1034211D01*
X789578Y1034349D01*
X789286Y1034474D01*
X788981Y1034571D01*
X788676Y1034668D01*
X788357Y1034737D01*
X788038Y1034793D01*
X787733Y1034835D01*
X787428Y1034862D01*
X787151Y1034890D01*
X786901Y1034904D01*
X786679Y1034918D01*
X786499D01*
X786360D01*
X786319D01*
X786277D01*
X786263D01*
X786249D01*
X786111Y1034904D01*
X786000D01*
X785792D01*
X785653Y1034890D01*
X785542D01*
X785459D01*
X785417Y1034904D01*
X785389D01*
X785320Y1034946D01*
X785278Y1035001D01*
X785237Y1035070D01*
X785223Y1035126D01*
Y1035278D01*
X785251Y1035417D01*
X785292Y1035556D01*
X785348Y1035667D01*
X785389Y1035736D01*
X785403Y1035750D01*
Y1035764D01*
X785487Y1035833D01*
X785583Y1035889D01*
X785708Y1035930D01*
X785861Y1035986D01*
X786180Y1036041D01*
X786527Y1036097D01*
X786846Y1036124D01*
X786998D01*
X787123Y1036138D01*
X787234D01*
X787317D01*
X787373D01*
X787386D01*
X787678D01*
X787927D01*
X788163D01*
X788357D01*
X788524D01*
X788676D01*
X788801D01*
X788898D01*
X788981D01*
X789051D01*
X789106D01*
X789134D01*
X789175D01*
X789189D01*
X789203Y1036152D01*
X789231Y1036166D01*
X789328Y1036235D01*
X789453Y1036332D01*
X789592Y1036443D01*
X789730Y1036554D01*
X789855Y1036637D01*
X789938Y1036707D01*
X789952Y1036721D01*
X789966Y1036734D01*
X790091Y1036832D01*
X790216Y1036915D01*
X790424Y1037040D01*
X790604Y1037123D01*
X790743Y1037164D01*
X790854Y1037192D01*
X790937D01*
X790978Y1037178D01*
D02*
G37*
G36*
X785084Y1028899D02*
X785195Y1028843D01*
X785278Y1028774D01*
X785334Y1028677D01*
X785362Y1028594D01*
X785376Y1028524D01*
X785389Y1028469D01*
Y1028455D01*
X785362Y1028316D01*
X785306Y1028205D01*
X785223Y1028136D01*
X785126Y1028094D01*
X785043Y1028081D01*
X784959D01*
X784904D01*
X784876D01*
X784738Y1028136D01*
X784641Y1028205D01*
X784557Y1028289D01*
X784516Y1028372D01*
X784488Y1028441D01*
X784460Y1028497D01*
Y1028552D01*
X784474Y1028677D01*
X784529Y1028760D01*
X784613Y1028829D01*
X784696Y1028871D01*
X784779Y1028899D01*
X784862Y1028913D01*
X784918D01*
X784932D01*
X785084Y1028899D01*
D02*
G37*
G36*
X780383Y1036929D02*
X780508Y1036901D01*
X780646Y1036859D01*
X780771Y1036804D01*
X781007Y1036679D01*
X781104Y1036610D01*
X781201Y1036554D01*
X781271Y1036499D01*
X781326Y1036457D01*
X781368Y1036429D01*
X781381Y1036415D01*
X781631Y1036180D01*
X781867Y1035986D01*
X782089Y1035819D01*
X782297Y1035680D01*
X782463Y1035570D01*
X782602Y1035486D01*
X782685Y1035445D01*
X782699Y1035431D01*
X782713D01*
X782962Y1035306D01*
X783226Y1035167D01*
X783475Y1035015D01*
X783725Y1034876D01*
X783933Y1034751D01*
X784016Y1034696D01*
X784100Y1034654D01*
X784169Y1034613D01*
X784211Y1034585D01*
X784238Y1034557D01*
X784252D01*
X784599Y1034349D01*
X784932Y1034127D01*
X785278Y1033933D01*
X785583Y1033753D01*
X785722Y1033670D01*
X785847Y1033600D01*
X785958Y1033531D01*
X786055Y1033475D01*
X786138Y1033434D01*
X786194Y1033406D01*
X786235Y1033378D01*
X786249D01*
X786332Y1033337D01*
X786443Y1033267D01*
X786568Y1033198D01*
X786693Y1033129D01*
X786984Y1032962D01*
X787275Y1032796D01*
X787539Y1032643D01*
X787664Y1032574D01*
X787775Y1032518D01*
X787858Y1032463D01*
X787927Y1032421D01*
X787969Y1032408D01*
X787983Y1032394D01*
X788219Y1032255D01*
X788440Y1032130D01*
X788635Y1032019D01*
X788815Y1031908D01*
X788981Y1031811D01*
X789134Y1031728D01*
X789259Y1031645D01*
X789383Y1031575D01*
X789481Y1031520D01*
X789564Y1031478D01*
X789633Y1031437D01*
X789689Y1031395D01*
X789758Y1031354D01*
X789786Y1031340D01*
X791311Y1030480D01*
X791256Y1029315D01*
X791242Y1029079D01*
X791214Y1028871D01*
X791186Y1028705D01*
X791159Y1028580D01*
X791131Y1028483D01*
X791117Y1028427D01*
X791089Y1028386D01*
Y1028372D01*
X791020Y1028275D01*
X790909Y1028192D01*
X790798Y1028122D01*
X790673Y1028067D01*
X790548Y1028011D01*
X790451Y1027983D01*
X790382Y1027956D01*
X790354D01*
X790132Y1027914D01*
X789938D01*
X789772Y1027928D01*
X789647Y1027956D01*
X789550Y1027997D01*
X789494Y1028025D01*
X789453Y1028053D01*
X789439Y1028067D01*
X789425D01*
X789383D01*
X789342D01*
X789273D01*
X789106Y1028053D01*
X788912Y1028025D01*
X788718Y1028011D01*
X788565Y1027983D01*
X788496D01*
X788440Y1027970D01*
X788413D01*
X788399D01*
X788038Y1027942D01*
X787705D01*
X787414Y1027956D01*
X787178Y1027997D01*
X786984Y1028025D01*
X786846Y1028067D01*
X786804Y1028081D01*
X786762Y1028094D01*
X786749Y1028108D01*
X786735D01*
X786596Y1028178D01*
X786485Y1028261D01*
X786388Y1028330D01*
X786305Y1028400D01*
X786235Y1028455D01*
X786166Y1028524D01*
X786083Y1028622D01*
X786041Y1028705D01*
X786013Y1028774D01*
Y1028829D01*
X786041Y1028885D01*
X786083Y1028927D01*
X786208Y1028982D01*
X786346Y1029024D01*
X786513Y1029037D01*
X786536D01*
X786499Y1029051D01*
X786402Y1029079D01*
X786332Y1029093D01*
X786305Y1029107D01*
X786083Y1029176D01*
X785861Y1029246D01*
X785667Y1029329D01*
X785500Y1029398D01*
X785362Y1029467D01*
X785251Y1029523D01*
X785181Y1029565D01*
X785154Y1029578D01*
X785112Y1029606D01*
X785029Y1029634D01*
X784932Y1029689D01*
X784807Y1029745D01*
X784668Y1029814D01*
X784516Y1029897D01*
X784183Y1030050D01*
X783864Y1030202D01*
X783725Y1030272D01*
X783587Y1030327D01*
X783475Y1030383D01*
X783392Y1030424D01*
X783337Y1030438D01*
X783323Y1030452D01*
X783018Y1030591D01*
X782754Y1030702D01*
X782519Y1030813D01*
X782311Y1030896D01*
X782144Y1030979D01*
X781992Y1031035D01*
X781867Y1031090D01*
X781756Y1031132D01*
X781673Y1031159D01*
X781617Y1031187D01*
X781562Y1031201D01*
X781520Y1031215D01*
X781492Y1031229D01*
X781479D01*
X781340Y1031256D01*
X781187Y1031312D01*
X781021Y1031395D01*
X780868Y1031478D01*
X780716Y1031575D01*
X780605Y1031659D01*
X780522Y1031714D01*
X780508Y1031742D01*
X780494D01*
X779703Y1032338D01*
Y1035154D01*
X779717Y1035403D01*
X779731Y1035625D01*
X779745Y1035833D01*
X779759Y1036000D01*
X779773Y1036152D01*
X779787Y1036291D01*
X779800Y1036402D01*
X779814Y1036499D01*
X779828Y1036568D01*
X779842Y1036624D01*
X779856Y1036665D01*
Y1036693D01*
X779870Y1036721D01*
X779953Y1036818D01*
X780036Y1036887D01*
X780147Y1036929D01*
X780258Y1036943D01*
X780383Y1036929D01*
D02*
G37*
G36*
X781201Y1029648D02*
X781381Y1029467D01*
X781534Y1029329D01*
X781659Y1029218D01*
X781770Y1029148D01*
X781853Y1029079D01*
X781908Y1029051D01*
X781936Y1029024D01*
X781950D01*
X782047Y1028982D01*
X782158Y1028954D01*
X782408Y1028927D01*
X782519Y1028913D01*
X782616D01*
X782671D01*
X782699D01*
X782907D01*
X783087Y1028885D01*
X783240Y1028857D01*
X783379Y1028829D01*
X783489Y1028788D01*
X783573Y1028732D01*
X783656Y1028691D01*
X783711Y1028635D01*
X783808Y1028538D01*
X783850Y1028441D01*
X783864Y1028386D01*
Y1028358D01*
X783850Y1028261D01*
X783822Y1028164D01*
X783767Y1028094D01*
X783697Y1028025D01*
X783531Y1027928D01*
X783337Y1027859D01*
X783143Y1027817D01*
X782976Y1027803D01*
X782907Y1027789D01*
X782851D01*
X782824D01*
X782810D01*
X782588Y1027775D01*
X782380Y1027762D01*
X782200Y1027720D01*
X782047Y1027678D01*
X781908Y1027651D01*
X781825Y1027609D01*
X781756Y1027595D01*
X781742Y1027581D01*
X781576Y1027498D01*
X781451Y1027415D01*
X781326Y1027332D01*
X781243Y1027249D01*
X781160Y1027193D01*
X781118Y1027138D01*
X781090Y1027110D01*
X781076Y1027096D01*
X780910Y1026902D01*
X780757Y1026749D01*
X780702Y1026694D01*
X780646Y1026652D01*
X780619Y1026638D01*
X780605Y1026624D01*
X780494Y1026569D01*
X780397Y1026541D01*
X780286D01*
X780189Y1026555D01*
X780119Y1026583D01*
X780050Y1026611D01*
X780008Y1026624D01*
X779995Y1026638D01*
X779953Y1026708D01*
X779911Y1026791D01*
X779870Y1026888D01*
X779842Y1026999D01*
X779787Y1027249D01*
X779745Y1027512D01*
X779703Y1027762D01*
Y1027873D01*
X779689Y1027983D01*
Y1028067D01*
X779676Y1028122D01*
Y1028178D01*
X779662Y1028400D01*
X779648Y1028608D01*
Y1029093D01*
X779662Y1029232D01*
X779676Y1029343D01*
Y1029440D01*
X779689Y1029537D01*
X779703Y1029606D01*
X779717Y1029703D01*
X779745Y1029773D01*
Y1029786D01*
X780078Y1030535D01*
X781201Y1029648D01*
D02*
G37*
G36*
X786124Y1017957D02*
X786319D01*
X786485Y1017943D01*
X786637D01*
X786762Y1017929D01*
X786873Y1017915D01*
X786943D01*
X786998Y1017901D01*
X787012D01*
X787248Y1017874D01*
X787470Y1017832D01*
X787678Y1017790D01*
X787872Y1017749D01*
X788052Y1017707D01*
X788205Y1017665D01*
X788357Y1017624D01*
X788496Y1017582D01*
X788607Y1017541D01*
X788718Y1017513D01*
X788801Y1017471D01*
X788884Y1017444D01*
X788940Y1017416D01*
X788981Y1017402D01*
X788995Y1017388D01*
X789009D01*
X789273Y1017235D01*
X789536Y1017069D01*
X789786Y1016889D01*
X790008Y1016709D01*
X790202Y1016542D01*
X790354Y1016403D01*
X790410Y1016348D01*
X790451Y1016306D01*
X790465Y1016292D01*
X790479Y1016279D01*
X790687Y1016043D01*
X790854Y1015835D01*
X791006Y1015641D01*
X791117Y1015460D01*
X791200Y1015322D01*
X791270Y1015211D01*
X791297Y1015141D01*
X791311Y1015114D01*
X791394Y1014892D01*
X791450Y1014656D01*
X791491Y1014406D01*
X791519Y1014184D01*
X791533Y1013977D01*
X791547Y1013824D01*
Y1013519D01*
X791533Y1013380D01*
X791519Y1013255D01*
X791478Y1013144D01*
X791408Y1012978D01*
X791325Y1012839D01*
X791228Y1012756D01*
X791159Y1012701D01*
X791103Y1012673D01*
X791075Y1012659D01*
X790978Y1012631D01*
X790895D01*
X790715Y1012645D01*
X790562Y1012701D01*
X790424Y1012784D01*
X790313Y1012867D01*
X790229Y1012936D01*
X790174Y1012992D01*
X790160Y1013019D01*
X790008Y1013130D01*
X789869Y1013228D01*
X789730Y1013311D01*
X789592Y1013366D01*
X789494Y1013408D01*
X789397Y1013436D01*
X789342Y1013449D01*
X789328D01*
X789231Y1013463D01*
X789092Y1013477D01*
X788926Y1013491D01*
X788745Y1013505D01*
X788551Y1013519D01*
X788343D01*
X787913Y1013547D01*
X787705Y1013560D01*
X787497D01*
X787317Y1013574D01*
X787151D01*
X787026D01*
X786915Y1013588D01*
X786859D01*
X786832D01*
X786319Y1013616D01*
X785819Y1013630D01*
X785348Y1013658D01*
X784904Y1013671D01*
X784488Y1013685D01*
X784100Y1013699D01*
X783739D01*
X783406Y1013713D01*
X783115D01*
X782865D01*
X782643Y1013727D01*
X782449D01*
X782311D01*
X782200D01*
X782144D01*
X782116D01*
X781784D01*
X781492Y1013741D01*
X781229Y1013768D01*
X780993Y1013796D01*
X780799Y1013838D01*
X780632Y1013879D01*
X780494Y1013921D01*
X780383Y1013963D01*
X780286Y1014004D01*
X780217Y1014046D01*
X780161Y1014087D01*
X780119Y1014129D01*
X780078Y1014184D01*
X780064Y1014198D01*
X780008Y1014351D01*
X779995Y1014462D01*
X780008Y1014545D01*
X780036Y1014601D01*
X780064Y1014628D01*
X780092Y1014642D01*
X780119Y1014656D01*
X780133D01*
X780189Y1014670D01*
X780230Y1014698D01*
X780300Y1014739D01*
X780355Y1014795D01*
X780480Y1014933D01*
X780605Y1015086D01*
X780716Y1015238D01*
X780799Y1015377D01*
X780841Y1015433D01*
X780854Y1015474D01*
X780882Y1015502D01*
Y1015516D01*
X781104Y1015876D01*
X781326Y1016181D01*
X781562Y1016445D01*
X781770Y1016667D01*
X781950Y1016833D01*
X782103Y1016958D01*
X782158Y1017000D01*
X782186Y1017028D01*
X782214Y1017055D01*
X782227D01*
X782533Y1017235D01*
X782865Y1017388D01*
X783198Y1017513D01*
X783517Y1017624D01*
X783656Y1017665D01*
X783794Y1017707D01*
X783919Y1017735D01*
X784016Y1017763D01*
X784100Y1017776D01*
X784169Y1017790D01*
X784211Y1017804D01*
X784224D01*
X784738Y1017887D01*
X785237Y1017943D01*
X785708Y1017957D01*
X785916Y1017971D01*
X786124Y1017957D01*
D02*
G37*
G36*
X791145Y1011660D02*
X791214Y1011619D01*
X791270Y1011550D01*
X791311Y1011494D01*
X791339Y1011439D01*
X791367Y1011397D01*
Y1011383D01*
X791380Y1011300D01*
X791394Y1011203D01*
X791380Y1011092D01*
X791353Y1010995D01*
X791270Y1010773D01*
X791172Y1010551D01*
X791062Y1010371D01*
X790965Y1010204D01*
X790923Y1010149D01*
X790895Y1010107D01*
X790867Y1010079D01*
Y1010066D01*
X790632Y1009761D01*
X790396Y1009511D01*
X790174Y1009303D01*
X789980Y1009150D01*
X789827Y1009025D01*
X789703Y1008942D01*
X789619Y1008901D01*
X789592Y1008887D01*
X789397Y1008790D01*
X789203Y1008734D01*
X789009Y1008679D01*
X788843Y1008651D01*
X788704Y1008637D01*
X788593D01*
X788524D01*
X788496D01*
X788302Y1008665D01*
X788149Y1008720D01*
X788010Y1008790D01*
X787927Y1008873D01*
X787858Y1008956D01*
X787803Y1009025D01*
X787789Y1009081D01*
X787775Y1009095D01*
X787761Y1009233D01*
X787775Y1009372D01*
X787816Y1009483D01*
X787872Y1009580D01*
X787941Y1009650D01*
X788010Y1009719D01*
X788052Y1009747D01*
X788066Y1009761D01*
X788219Y1009857D01*
X788385Y1009968D01*
X788565Y1010079D01*
X788732Y1010176D01*
X788884Y1010260D01*
X788995Y1010329D01*
X789078Y1010385D01*
X789092Y1010398D01*
X789106D01*
X789342Y1010537D01*
X789550Y1010676D01*
X789730Y1010815D01*
X789897Y1010939D01*
X790021Y1011050D01*
X790118Y1011133D01*
X790174Y1011189D01*
X790202Y1011203D01*
X790368Y1011341D01*
X790507Y1011466D01*
X790646Y1011550D01*
X790757Y1011605D01*
X790840Y1011647D01*
X790909Y1011674D01*
X790951Y1011688D01*
X790965D01*
X791062D01*
X791145Y1011660D01*
D02*
G37*
G36*
X780743Y1011161D02*
X780952Y1011092D01*
X781146Y1011009D01*
X781298Y1010925D01*
X781368Y1010884D01*
X781409Y1010856D01*
X781437Y1010828D01*
X781451D01*
X781506Y1010787D01*
X781589Y1010745D01*
X781686Y1010690D01*
X781797Y1010648D01*
X782033Y1010551D01*
X782269Y1010468D01*
X782505Y1010385D01*
X782616Y1010357D01*
X782713Y1010329D01*
X782782Y1010301D01*
X782838Y1010287D01*
X782879Y1010274D01*
X782893D01*
X783059Y1010232D01*
X783198Y1010190D01*
X783323Y1010163D01*
X783420Y1010135D01*
X783489Y1010107D01*
X783531Y1010093D01*
X783559Y1010079D01*
X783573D01*
X783794Y1009982D01*
X783975Y1009899D01*
X784127Y1009788D01*
X784238Y1009691D01*
X784322Y1009594D01*
X784377Y1009497D01*
X784419Y1009400D01*
X784433Y1009317D01*
Y1009150D01*
X784391Y1009012D01*
X784349Y1008928D01*
X784322Y1008914D01*
Y1008901D01*
X784224Y1008845D01*
X784100Y1008790D01*
X783933Y1008748D01*
X783753Y1008720D01*
X783559Y1008693D01*
X783351Y1008665D01*
X782935Y1008637D01*
X782727Y1008623D01*
X782519D01*
X782338D01*
X782186D01*
X782047D01*
X781936D01*
X781881D01*
X781853D01*
X781631D01*
X781423Y1008637D01*
X781229Y1008651D01*
X781062D01*
X780910Y1008665D01*
X780771Y1008679D01*
X780646D01*
X780535Y1008693D01*
X780438Y1008707D01*
X780355Y1008720D01*
X780230Y1008734D01*
X780161Y1008748D01*
X780133D01*
X779967Y1008790D01*
X779842Y1008859D01*
X779731Y1008928D01*
X779662Y1009012D01*
X779620Y1009081D01*
X779592Y1009150D01*
X779578Y1009192D01*
Y1009206D01*
X779565Y1009344D01*
X779578Y1009469D01*
X779620Y1009580D01*
X779662Y1009691D01*
X779717Y1009774D01*
X779759Y1009844D01*
X779787Y1009885D01*
X779800Y1009899D01*
X779898Y1010024D01*
X779967Y1010121D01*
X780008Y1010218D01*
X780036Y1010301D01*
X780050Y1010371D01*
X780064Y1010412D01*
Y1010454D01*
X780050Y1010565D01*
Y1010676D01*
X780064Y1010787D01*
X780092Y1010870D01*
X780106Y1010939D01*
X780133Y1010995D01*
X780147Y1011036D01*
X780161Y1011050D01*
X780244Y1011120D01*
X780327Y1011161D01*
X780424Y1011189D01*
X780522D01*
X780632D01*
X780743Y1011161D01*
D02*
G37*
G36*
X780369Y1008374D02*
X780522Y1008304D01*
X780674Y1008221D01*
X780785Y1008138D01*
X780882Y1008055D01*
X780938Y1007999D01*
X780965Y1007971D01*
X781298Y1007514D01*
X784724D01*
X784807D01*
X784890D01*
X785070D01*
X785140D01*
X785209D01*
X785251D01*
X785265D01*
X785597D01*
X785875D01*
X786111D01*
X786305D01*
X786443D01*
X786541D01*
X786610D01*
X786624D01*
X786776D01*
X786943D01*
X787109Y1007500D01*
X787262D01*
X787400D01*
X787511Y1007486D01*
X787581D01*
X787595D01*
X787608D01*
X787816Y1007472D01*
X787983D01*
X788121Y1007458D01*
X788232D01*
X788302D01*
X788357D01*
X788385D01*
X788399D01*
X788482D01*
X788565Y1007444D01*
X788759Y1007403D01*
X788843Y1007389D01*
X788912Y1007375D01*
X788967Y1007361D01*
X788981D01*
X789106Y1007320D01*
X789217Y1007292D01*
X789300Y1007264D01*
X789356Y1007236D01*
X789411Y1007223D01*
X789439Y1007209D01*
X789453Y1007195D01*
X789481Y1007167D01*
X789536Y1007125D01*
X789647Y1007042D01*
X789703Y1007014D01*
X789758Y1006973D01*
X789786Y1006959D01*
X789799Y1006945D01*
X789966Y1006806D01*
X790091Y1006695D01*
X790160Y1006612D01*
X790188Y1006599D01*
Y1006585D01*
X790257Y1006474D01*
X790299Y1006377D01*
X790327Y1006321D01*
Y1006293D01*
X790562Y1006030D01*
X790743Y1005808D01*
X790881Y1005628D01*
X790992Y1005475D01*
X791062Y1005364D01*
X791117Y1005281D01*
X791131Y1005226D01*
X791145Y1005212D01*
X791186Y1005073D01*
X791214Y1004948D01*
X791228Y1004823D01*
X791242Y1004698D01*
Y1004601D01*
X791228Y1004518D01*
Y1004449D01*
X791200Y1004310D01*
X791159Y1004185D01*
X791075Y1003977D01*
X791006Y1003811D01*
X790923Y1003686D01*
X790854Y1003603D01*
X790798Y1003561D01*
X790788Y1003555D01*
X790798Y1003547D01*
X790867Y1003506D01*
X790909Y1003450D01*
X790937Y1003423D01*
X790951Y1003409D01*
X791006Y1003326D01*
X791048Y1003242D01*
X791103Y1003090D01*
X791117Y1002951D01*
X791103Y1002840D01*
X791089Y1002757D01*
X791062Y1002688D01*
X791034Y1002646D01*
X791020Y1002632D01*
X790909Y1002535D01*
X790798Y1002480D01*
X790687Y1002466D01*
X790576D01*
X790479Y1002480D01*
X790410Y1002493D01*
X790354Y1002507D01*
X790340Y1002521D01*
X790257Y1002563D01*
X790188Y1002618D01*
X790105Y1002743D01*
X790063Y1002798D01*
X790049Y1002854D01*
X790035Y1002882D01*
Y1002896D01*
X790021Y1002993D01*
X790008Y1003090D01*
X790021Y1003270D01*
Y1003339D01*
X790035Y1003395D01*
X790049Y1003423D01*
Y1003437D01*
X790091Y1003520D01*
X790117Y1003553D01*
X790035Y1003589D01*
X789924Y1003631D01*
X789855Y1003672D01*
X789827Y1003686D01*
X789730Y1003783D01*
X789647Y1003825D01*
X789578Y1003839D01*
X789522D01*
X789467Y1003811D01*
X789439Y1003783D01*
X789411Y1003755D01*
Y1003742D01*
X789328Y1003658D01*
X789203Y1003617D01*
X789064Y1003603D01*
X788926Y1003617D01*
X788787Y1003644D01*
X788676Y1003672D01*
X788593Y1003686D01*
X788579Y1003700D01*
X788565D01*
X788385Y1003769D01*
X788232Y1003811D01*
X788163Y1003825D01*
X788121Y1003839D01*
X788094D01*
X788080D01*
X787872D01*
X787678Y1003811D01*
X787595Y1003797D01*
X787525D01*
X787484Y1003783D01*
X787470D01*
X787400Y1003769D01*
X787303Y1003755D01*
X787095Y1003728D01*
X786859Y1003700D01*
X786624Y1003672D01*
X786402Y1003644D01*
X786305Y1003631D01*
X786221Y1003617D01*
X786152D01*
X786097Y1003603D01*
X786069D01*
X786055D01*
X785639Y1003561D01*
X785209Y1003534D01*
X784793Y1003506D01*
X784405Y1003492D01*
X784224Y1003478D01*
X784058D01*
X783905D01*
X783781Y1003464D01*
X783684D01*
X783614D01*
X783559D01*
X783545D01*
X783240Y1003450D01*
X782962D01*
X782713Y1003437D01*
X782491Y1003423D01*
X782297D01*
X782130Y1003409D01*
X781992Y1003395D01*
X781867D01*
X781770Y1003381D01*
X781673D01*
X781617Y1003367D01*
X781562D01*
X781520Y1003353D01*
X781492D01*
X781479D01*
X781354Y1003326D01*
X781243Y1003284D01*
X781160Y1003242D01*
X781090Y1003201D01*
X781035Y1003159D01*
X780993Y1003118D01*
X780965Y1003104D01*
Y1003090D01*
X780841Y1002937D01*
X780716Y1002826D01*
X780605Y1002743D01*
X780522Y1002688D01*
X780438Y1002660D01*
X780383Y1002632D01*
X780341D01*
X780327D01*
X780244Y1002646D01*
X780161Y1002674D01*
X780092Y1002729D01*
X780022Y1002785D01*
X779911Y1002951D01*
X779800Y1003159D01*
X779717Y1003395D01*
X779662Y1003658D01*
X779606Y1003936D01*
X779565Y1004227D01*
X779537Y1004518D01*
X779509Y1004796D01*
X779495Y1005059D01*
Y1005780D01*
X779509Y1006210D01*
X779537Y1006599D01*
X779565Y1006931D01*
X779606Y1007223D01*
X779648Y1007472D01*
X779689Y1007680D01*
X779731Y1007860D01*
X779773Y1007999D01*
X779828Y1008110D01*
X779870Y1008207D01*
X779911Y1008277D01*
X779953Y1008318D01*
X779981Y1008360D01*
X779995Y1008374D01*
X780022Y1008388D01*
X780106Y1008401D01*
X780203D01*
X780369Y1008374D01*
D02*
G37*
G36*
X780466Y1001495D02*
X780494Y1001481D01*
X780508D01*
X780605Y1001426D01*
X780716Y1001342D01*
X780910Y1001162D01*
X780979Y1001079D01*
X781049Y1001010D01*
X781090Y1000954D01*
X781104Y1000940D01*
X781645Y1000288D01*
X784030D01*
X784529D01*
X785001Y1000275D01*
X785209Y1000261D01*
X785403D01*
X785597Y1000247D01*
X785764Y1000233D01*
X785916D01*
X786055Y1000219D01*
X786166D01*
X786263Y1000205D01*
X786346D01*
X786402Y1000191D01*
X786430D01*
X786443D01*
X786624Y1000177D01*
X786790Y1000150D01*
X786929Y1000136D01*
X787067Y1000122D01*
X787178Y1000108D01*
X787289Y1000094D01*
X787456Y1000080D01*
X787581Y1000067D01*
X787664Y1000053D01*
X787705Y1000039D01*
X787719D01*
X787900Y999997D01*
X788024Y999983D01*
X788108D01*
X788121D01*
X788135D01*
X788260Y1000011D01*
X788371Y1000053D01*
X788454Y1000094D01*
X788468Y1000122D01*
X788482D01*
X788607Y1000177D01*
X788732Y1000219D01*
X788940Y1000275D01*
X789120D01*
X789245Y1000261D01*
X789356Y1000219D01*
X789425Y1000177D01*
X789467Y1000136D01*
X789481Y1000122D01*
Y1000025D01*
X789467Y999928D01*
X789439Y999831D01*
X789397Y999761D01*
X789356Y999692D01*
X789328Y999650D01*
X789300Y999623D01*
X789286Y999609D01*
X789092Y999456D01*
X788898Y999331D01*
X788801Y999290D01*
X788732Y999262D01*
X788690Y999234D01*
X788676D01*
X788593Y999207D01*
X788510Y999179D01*
X788288Y999123D01*
X788038Y999068D01*
X787747Y999026D01*
X787442Y998985D01*
X787109Y998957D01*
X786443Y998902D01*
X786111Y998874D01*
X785805Y998860D01*
X785514Y998846D01*
X785265Y998832D01*
X785057D01*
X784973Y998818D01*
X784904D01*
X784848D01*
X784807D01*
X784779D01*
X784765D01*
X781742Y998763D01*
X781187Y998250D01*
X781035Y998125D01*
X780882Y998014D01*
X780743Y997917D01*
X780619Y997861D01*
X780508Y997806D01*
X780397Y997764D01*
X780230Y997737D01*
X780092D01*
X779995Y997750D01*
X779939Y997778D01*
X779925Y997792D01*
X779856Y997861D01*
X779787Y997959D01*
X779745Y998055D01*
X779689Y998180D01*
X779620Y998472D01*
X779578Y998763D01*
X779537Y999040D01*
Y999165D01*
X779523Y999276D01*
Y999775D01*
X779537Y1000025D01*
X779565Y1000247D01*
X779592Y1000441D01*
X779620Y1000621D01*
X779648Y1000774D01*
X779689Y1000899D01*
X779731Y1001023D01*
X779773Y1001121D01*
X779800Y1001190D01*
X779842Y1001259D01*
X779870Y1001301D01*
X779925Y1001370D01*
X779939Y1001384D01*
X780050Y1001453D01*
X780147Y1001481D01*
X780244Y1001509D01*
X780327D01*
X780411D01*
X780466Y1001495D01*
D02*
G37*
G36*
X780341Y997390D02*
X780522Y997334D01*
X780688Y997251D01*
X780841Y997168D01*
X780952Y997085D01*
X781035Y997029D01*
X781049Y997001D01*
X781062D01*
X781146Y996946D01*
X781257Y996891D01*
X781395Y996849D01*
X781520Y996821D01*
X781645Y996794D01*
X781756Y996780D01*
X781825Y996766D01*
X781839D01*
X781853D01*
X781922D01*
X781992Y996752D01*
X782186Y996738D01*
X782421D01*
X782685Y996724D01*
X782962D01*
X783281Y996710D01*
X783905D01*
X784211Y996696D01*
X784502D01*
X784779D01*
X785015D01*
X785209D01*
X785362D01*
X785431D01*
X785459D01*
X785487D01*
X785500D01*
X785778D01*
X786041D01*
X786527D01*
X786970D01*
X787359Y996710D01*
X787691D01*
X787997Y996724D01*
X788246D01*
X788468D01*
X788649Y996738D01*
X788801D01*
X788926Y996752D01*
X789023D01*
X789078Y996766D01*
X789134D01*
X789148D01*
X789162D01*
X789383Y996794D01*
X789578Y996849D01*
X789758Y996905D01*
X789897Y996960D01*
X790021Y997015D01*
X790105Y997071D01*
X790160Y997099D01*
X790174Y997113D01*
X790327Y997237D01*
X790479Y997320D01*
X790632Y997362D01*
X790757Y997376D01*
X790881D01*
X790965Y997362D01*
X791020Y997348D01*
X791048D01*
X791131Y997307D01*
X791200Y997265D01*
X791297Y997140D01*
X791367Y996988D01*
X791394Y996849D01*
X791408Y996696D01*
Y996585D01*
X791394Y996502D01*
Y996475D01*
X791367Y996350D01*
X791353Y996197D01*
X791325Y996031D01*
X791311Y995864D01*
X791283Y995504D01*
X791270Y995143D01*
X791256Y994963D01*
Y994658D01*
X791242Y994533D01*
Y993534D01*
X791256Y993340D01*
Y993174D01*
X791270Y993035D01*
Y992910D01*
X791283Y992799D01*
X791297Y992716D01*
Y992647D01*
X791311Y992591D01*
X791325Y992550D01*
X791339Y992494D01*
Y992480D01*
X791380Y992356D01*
X791394Y992245D01*
Y992161D01*
X791380Y992092D01*
X791367Y992023D01*
X791339Y991981D01*
X791325Y991967D01*
Y991953D01*
X791256Y991884D01*
X791172Y991842D01*
X790965Y991787D01*
X790881Y991773D01*
X790798Y991759D01*
X790743D01*
X790729D01*
X790576Y991773D01*
X790451Y991787D01*
X790354Y991815D01*
X790271Y991856D01*
X790229Y991898D01*
X790188Y991926D01*
X790160Y991940D01*
Y991953D01*
X790118Y992037D01*
X790105Y992134D01*
X790118Y992231D01*
X790132Y992328D01*
X790160Y992425D01*
X790188Y992494D01*
X790202Y992550D01*
X790216Y992564D01*
X790243Y992605D01*
X790257Y992633D01*
X790229D01*
X790174D01*
X790160D01*
X790146D01*
X790063D01*
X789980Y992619D01*
X789799Y992605D01*
X789730D01*
X789661Y992591D01*
X789619D01*
X789605D01*
X789494Y992578D01*
X789383Y992564D01*
X789300Y992550D01*
X789231D01*
X789175Y992536D01*
X789134D01*
X789120D01*
X789106D01*
X788967D01*
X788843Y992564D01*
X788787D01*
X788745Y992578D01*
X788718Y992591D01*
X788704D01*
X788635Y992619D01*
X788579Y992661D01*
X788551Y992702D01*
X788524Y992730D01*
X788510Y992799D01*
Y992827D01*
X788524Y992938D01*
Y993123D01*
X788510Y993118D01*
X788454D01*
X788385D01*
X788316D01*
X788246D01*
X788205D01*
X788191D01*
X787997D01*
X787830Y993091D01*
X787705Y993077D01*
X787608Y993049D01*
X787539Y993021D01*
X787497Y993007D01*
X787470Y992980D01*
X787331Y992896D01*
X787206Y992841D01*
X787095Y992827D01*
X786998D01*
X786929Y992841D01*
X786873Y992869D01*
X786832Y992883D01*
X786818Y992896D01*
X786721Y992966D01*
X786665Y993007D01*
X786624Y993049D01*
X786610Y993063D01*
X786599Y993085D01*
X786554Y993063D01*
X786471Y993021D01*
X786346Y992994D01*
X786208Y992966D01*
X786055Y992938D01*
X785875Y992910D01*
X785514Y992869D01*
X785154Y992827D01*
X784987Y992813D01*
X784835Y992799D01*
X784724Y992785D01*
X784627Y992772D01*
X784557D01*
X784543D01*
X783850Y992730D01*
X783531Y992702D01*
X783226Y992689D01*
X782935Y992675D01*
X782657Y992661D01*
X782394D01*
X782172Y992647D01*
X781950D01*
X781770Y992633D01*
X781603D01*
X781465D01*
X781354D01*
X781284D01*
X781229D01*
X781215D01*
X779634D01*
X779578Y994963D01*
Y996239D01*
X779592Y996364D01*
Y996544D01*
X779606Y996627D01*
Y996683D01*
X779620Y996752D01*
Y996780D01*
X779648Y996946D01*
X779703Y997085D01*
X779759Y997196D01*
X779814Y997265D01*
X779884Y997334D01*
X779925Y997362D01*
X779967Y997390D01*
X779981D01*
X780064Y997404D01*
X780161Y997418D01*
X780341Y997390D01*
D02*
G37*
G36*
X785944Y991870D02*
X786027Y991856D01*
X786111Y991842D01*
X786166Y991829D01*
X786208Y991801D01*
X786221Y991787D01*
X786235D01*
X786319Y991731D01*
X786430Y991690D01*
X786554Y991635D01*
X786679Y991593D01*
X786804Y991565D01*
X786915Y991537D01*
X786984Y991510D01*
X786998D01*
X787012D01*
X787248Y991468D01*
X787511Y991426D01*
X787789Y991399D01*
X788038Y991385D01*
X788274Y991371D01*
X788371D01*
X788454D01*
X788524D01*
X788579D01*
X788607D01*
X788621D01*
X788829D01*
X789009D01*
X789175Y991357D01*
X789328D01*
X789467D01*
X789578Y991343D01*
X789689D01*
X789786Y991329D01*
X789924Y991316D01*
X790035Y991302D01*
X790091Y991288D01*
X790105D01*
X790243Y991232D01*
X790382Y991163D01*
X790521Y991080D01*
X790659Y990983D01*
X790770Y990886D01*
X790854Y990816D01*
X790909Y990761D01*
X790937Y990747D01*
X791062Y990608D01*
X791159Y990470D01*
X791228Y990359D01*
X791297Y990248D01*
X791339Y990151D01*
X791367Y990081D01*
X791394Y990040D01*
Y990026D01*
X791422Y989873D01*
X791450Y989679D01*
X791464Y989485D01*
X791478Y989291D01*
X791491Y989110D01*
Y988500D01*
X791478Y988237D01*
X791450Y988029D01*
X791422Y987862D01*
X791408Y987737D01*
X791380Y987654D01*
X791367Y987599D01*
Y987585D01*
X791311Y987460D01*
X791214Y987321D01*
X791117Y987197D01*
X791020Y987086D01*
X790923Y986989D01*
X790840Y986905D01*
X790784Y986850D01*
X790770Y986836D01*
X790618Y986739D01*
X790479Y986642D01*
X790229Y986503D01*
X790021Y986406D01*
X789827Y986351D01*
X789675Y986337D01*
X789550Y986351D01*
X789439Y986392D01*
X789356Y986448D01*
X789286Y986517D01*
X789231Y986586D01*
X789203Y986670D01*
X789175Y986753D01*
X789162Y986822D01*
X789148Y986878D01*
Y986933D01*
X789134Y987072D01*
X789120Y987197D01*
X789092Y987280D01*
X789064Y987349D01*
X789037Y987391D01*
X789023Y987432D01*
X788995Y987446D01*
X788954Y987460D01*
X788912D01*
X788787Y987474D01*
X788621D01*
X788454D01*
X788302Y987460D01*
X788163D01*
X788108Y987446D01*
X788066D01*
X788052D01*
X788038D01*
X787761Y987432D01*
X787525D01*
X787331D01*
X787178D01*
X787067Y987446D01*
X786984Y987460D01*
X786943Y987474D01*
X786929D01*
X786804Y987516D01*
X786679Y987585D01*
X786554Y987682D01*
X786430Y987779D01*
X786332Y987876D01*
X786235Y987959D01*
X786180Y988015D01*
X786166Y988043D01*
X786027Y988209D01*
X785902Y988348D01*
X785819Y988473D01*
X785750Y988569D01*
X785708Y988653D01*
X785681Y988708D01*
X785667Y988736D01*
Y988750D01*
X785653Y988847D01*
X785639Y988972D01*
X785681Y989194D01*
X785695Y989305D01*
X785722Y989388D01*
X785736Y989443D01*
X785750Y989457D01*
X785792Y989568D01*
X785819Y989637D01*
X785833Y989693D01*
X785847Y989734D01*
X785861Y989762D01*
X785875Y989776D01*
X785861D01*
X785847D01*
X785833D01*
X785708Y989818D01*
X785611Y989845D01*
X785528D01*
X785459D01*
X785403Y989832D01*
X785376Y989818D01*
X785348Y989804D01*
X785292Y989748D01*
X785265Y989665D01*
X785209Y989499D01*
Y989416D01*
X785195Y989346D01*
Y989291D01*
X785181Y989124D01*
X785167Y988972D01*
X785098Y988694D01*
X785001Y988459D01*
X784890Y988264D01*
X784793Y988112D01*
X784696Y988001D01*
X784627Y987932D01*
X784599Y987904D01*
X784349Y987737D01*
X784086Y987613D01*
X783822Y987516D01*
X783559Y987460D01*
X783323Y987419D01*
X783226Y987405D01*
X783143D01*
X783073Y987391D01*
X783018D01*
X782990D01*
X782976D01*
X782754D01*
X782546Y987419D01*
X782172Y987488D01*
X782019Y987529D01*
X781867Y987585D01*
X781728Y987640D01*
X781603Y987696D01*
X781492Y987765D01*
X781395Y987821D01*
X781312Y987876D01*
X781257Y987918D01*
X781201Y987959D01*
X781160Y987987D01*
X781146Y988001D01*
X781132Y988015D01*
X781007Y988154D01*
X780882Y988306D01*
X780743Y988500D01*
X780605Y988694D01*
X780341Y989138D01*
X780092Y989596D01*
X779981Y989818D01*
X779870Y990026D01*
X779773Y990220D01*
X779689Y990386D01*
X779634Y990525D01*
X779578Y990622D01*
X779551Y990691D01*
X779537Y990719D01*
X779551Y990802D01*
X779565Y990872D01*
X779648Y990996D01*
X779759Y991080D01*
X779884Y991135D01*
X780022Y991163D01*
X780133Y991177D01*
X780217Y991191D01*
X780230D01*
X780244D01*
X780466Y991177D01*
X780623Y991141D01*
X780646Y991107D01*
X780757Y991010D01*
X780910Y990899D01*
X780924Y990886D01*
X780979Y990858D01*
X781062Y990816D01*
X781160Y990788D01*
X781271Y990761D01*
X781381Y990747D01*
X781492Y990775D01*
X781551Y990816D01*
X781645D01*
X781770D01*
X781825D01*
X781867D01*
X781881D01*
X781895D01*
X782033D01*
X782158Y990830D01*
X782269Y990844D01*
X782366Y990858D01*
X782533Y990886D01*
X782643Y990927D01*
X782727Y990955D01*
X782782Y990996D01*
X782796Y991010D01*
X782810Y991024D01*
X782879Y991080D01*
X782976Y991107D01*
X783101Y991121D01*
X783226D01*
X783365D01*
X783462Y991107D01*
X783545Y991094D01*
X783559D01*
X783573D01*
X783697Y991080D01*
X783808Y991066D01*
X784044Y991094D01*
X784252Y991149D01*
X784446Y991218D01*
X784613Y991302D01*
X784738Y991371D01*
X784821Y991426D01*
X784835Y991440D01*
X784848D01*
X785043Y991565D01*
X785223Y991676D01*
X785376Y991745D01*
X785500Y991801D01*
X785611Y991842D01*
X785681Y991856D01*
X785722Y991870D01*
X785736D01*
X785847Y991884D01*
X785944Y991870D01*
D02*
G37*
G36*
X781035Y991926D02*
X781146Y991870D01*
X781257Y991801D01*
X781340Y991718D01*
X781423Y991648D01*
X781479Y991579D01*
X781520Y991524D01*
X781534Y991510D01*
X781617Y991357D01*
X781659Y991218D01*
X781673Y991107D01*
X781659Y991010D01*
X781645Y990941D01*
X781617Y990886D01*
X781603Y990858D01*
X781589Y990844D01*
X781551Y990816D01*
X781492D01*
X781354D01*
X781215Y990830D01*
X781118Y990844D01*
X781090D01*
X781076Y990858D01*
X781062Y990872D01*
X781035Y990913D01*
X780979Y990969D01*
X780910Y991024D01*
X780799Y991080D01*
X780646Y991135D01*
X780623Y991141D01*
X780577Y991205D01*
X780522Y991302D01*
X780494Y991385D01*
X780466Y991440D01*
Y991496D01*
X780480Y991648D01*
X780535Y991745D01*
X780605Y991829D01*
X780688Y991884D01*
X780771Y991912D01*
X780841Y991926D01*
X780896Y991940D01*
X780910D01*
X781035Y991926D01*
D02*
G37*
G36*
X790909Y985810D02*
X791020Y985768D01*
X791089Y985726D01*
X791145Y985699D01*
X791159Y985685D01*
X791172Y985588D01*
X791186Y985505D01*
X791172Y985352D01*
X791117Y985227D01*
X791034Y985116D01*
X790951Y985033D01*
X790934Y985020D01*
X790937Y985019D01*
X791006Y985005D01*
X791117Y984922D01*
X791200Y984797D01*
X791256Y984659D01*
X791283Y984520D01*
X791297Y984395D01*
X791311Y984312D01*
Y984146D01*
X791297Y984035D01*
X791270Y983924D01*
X791242Y983840D01*
X791172Y983702D01*
X791075Y983618D01*
X790992Y983563D01*
X790923Y983535D01*
X790867Y983521D01*
X790854D01*
X790770Y983535D01*
X790709Y983548D01*
X790687Y983618D01*
X790604Y983854D01*
X790507Y984090D01*
X790382Y984298D01*
Y984409D01*
X790396Y984534D01*
X790424Y984631D01*
X790451Y984714D01*
X790535Y984853D01*
X790562Y984881D01*
X790479D01*
X790396D01*
X790340D01*
X790299Y984894D01*
X790285Y984908D01*
X790271D01*
X790216Y984978D01*
X790188Y985033D01*
X790146Y985172D01*
Y985297D01*
X790160Y985408D01*
X790202Y985505D01*
X790243Y985588D01*
X790271Y985643D01*
X790285Y985657D01*
X790382Y985713D01*
X790465Y985768D01*
X790632Y985824D01*
X790784D01*
X790909Y985810D01*
D02*
G37*
G36*
X780327Y985685D02*
X780424Y985657D01*
X780535Y985602D01*
X780730Y985491D01*
X780910Y985352D01*
X780965Y985297D01*
X781021Y985255D01*
X781049Y985227D01*
X781062Y985213D01*
X781146Y985200D01*
X781243Y985172D01*
X781451Y985144D01*
X781534Y985130D01*
X781617Y985116D01*
X781673Y985102D01*
X781686D01*
X781784Y985089D01*
X781922Y985075D01*
X782103Y985061D01*
X782311Y985047D01*
X782533Y985033D01*
X782782Y985019D01*
X783281Y985005D01*
X783517Y984992D01*
X783753Y984978D01*
X783975D01*
X784169Y984964D01*
X784322D01*
X784446Y984950D01*
X784529D01*
X784543D01*
X784557D01*
X785154Y984922D01*
X785695Y984908D01*
X786180Y984894D01*
X786624Y984867D01*
X787012D01*
X787359Y984853D01*
X787664D01*
X787941Y984839D01*
X788163D01*
X788357D01*
X788510D01*
X788621D01*
X788718D01*
X788787D01*
X788815D01*
X788829D01*
X789009D01*
X789189Y984825D01*
X789342Y984797D01*
X789481Y984783D01*
X789730Y984714D01*
X789924Y984645D01*
X790063Y984589D01*
X790160Y984520D01*
X790229Y984478D01*
X790243Y984464D01*
X790313Y984381D01*
X790382Y984298D01*
Y984159D01*
X790410Y984048D01*
X790437Y983896D01*
X790493Y983757D01*
X790576Y983646D01*
X790701Y983549D01*
X790709Y983548D01*
X790757Y983397D01*
X790784Y983300D01*
X790812Y983216D01*
X790826Y983147D01*
X790840Y983092D01*
X790854Y983064D01*
Y983050D01*
X790923Y982675D01*
X790951Y982356D01*
X790978Y982079D01*
Y981677D01*
X790965Y981538D01*
X790951Y981469D01*
Y981441D01*
X790923Y981302D01*
X790881Y981178D01*
X790826Y981081D01*
X790770Y980997D01*
X790715Y980928D01*
X790646Y980887D01*
X790521Y980817D01*
X790382Y980789D01*
X790271Y980776D01*
X790202Y980789D01*
X790174D01*
X790146Y980803D01*
X790091D01*
X790021Y980817D01*
X789924Y980831D01*
X789827D01*
X789703D01*
X789425Y980845D01*
X789106Y980859D01*
X788759D01*
X788385Y980873D01*
X787997D01*
X787622D01*
X787262D01*
X786929D01*
X786624D01*
X786485D01*
X786360D01*
X786263D01*
X786166D01*
X786097D01*
X786041D01*
X786013D01*
X786000D01*
X785639D01*
X785292D01*
X784973Y980859D01*
X784668D01*
X784391D01*
X784113Y980845D01*
X783864D01*
X783628Y980831D01*
X783420D01*
X783212D01*
X783018Y980817D01*
X782851D01*
X782546Y980803D01*
X782283Y980789D01*
X782075Y980776D01*
X781908Y980762D01*
X781770Y980748D01*
X781673Y980734D01*
X781603D01*
X781562Y980720D01*
X781534D01*
X781354Y980678D01*
X781215Y980623D01*
X781160Y980595D01*
X781118Y980567D01*
X781104Y980554D01*
X781090D01*
X780952Y980470D01*
X780854Y980387D01*
X780799Y980332D01*
X780785Y980318D01*
X780743Y980276D01*
X780688Y980235D01*
X780563Y980193D01*
X780508Y980179D01*
X780452Y980165D01*
X780424D01*
X780411D01*
X780300D01*
X780203Y980179D01*
X780050Y980235D01*
X779995Y980276D01*
X779953Y980318D01*
X779925Y980332D01*
X779911Y980346D01*
X779814Y980456D01*
X779731Y980609D01*
X779676Y980762D01*
X779634Y980914D01*
X779606Y981053D01*
X779592Y981178D01*
X779578Y981261D01*
Y982273D01*
X779592Y982509D01*
X779606Y983008D01*
X779620Y983244D01*
X779634Y983466D01*
Y983674D01*
X779648Y983854D01*
Y984007D01*
X779662Y984118D01*
Y984215D01*
X779689Y984478D01*
X779703Y984714D01*
X779731Y984894D01*
X779745Y985061D01*
X779773Y985172D01*
X779787Y985255D01*
X779800Y985311D01*
Y985324D01*
X779856Y985477D01*
X779939Y985574D01*
X780022Y985643D01*
X780119Y985685D01*
X780217Y985699D01*
X780327Y985685D01*
D02*
G37*
G36*
X790978Y979985D02*
X790992D01*
X791048Y979930D01*
X791103Y979846D01*
X791145Y979735D01*
X791186Y979611D01*
X791214Y979472D01*
X791242Y979319D01*
X791283Y979014D01*
X791297Y978709D01*
X791311Y978570D01*
Y978210D01*
X791297Y977933D01*
X791283Y977683D01*
X791270Y977461D01*
X791242Y977281D01*
X791228Y977114D01*
X791186Y976962D01*
X791159Y976851D01*
X791131Y976754D01*
X791103Y976671D01*
X791075Y976601D01*
X791048Y976546D01*
X791020Y976518D01*
X790992Y976476D01*
X790978Y976462D01*
X790895Y976435D01*
X790826Y976421D01*
X790659Y976449D01*
X790507Y976504D01*
X790368Y976587D01*
X790243Y976684D01*
X790146Y976768D01*
X790091Y976823D01*
X790063Y976851D01*
X789827Y977017D01*
X789578Y977156D01*
X789286Y977281D01*
X788981Y977378D01*
X788676Y977475D01*
X788357Y977544D01*
X788038Y977600D01*
X787733Y977641D01*
X787428Y977669D01*
X787151Y977697D01*
X786901Y977711D01*
X786679Y977725D01*
X786499D01*
X786360D01*
X786319D01*
X786277D01*
X786263D01*
X786249D01*
X786111Y977711D01*
X786000D01*
X785792D01*
X785653Y977697D01*
X785542D01*
X785459D01*
X785417Y977711D01*
X785389D01*
X785320Y977752D01*
X785278Y977808D01*
X785237Y977877D01*
X785223Y977933D01*
Y978085D01*
X785251Y978224D01*
X785292Y978362D01*
X785348Y978473D01*
X785389Y978543D01*
X785403Y978557D01*
Y978570D01*
X785487Y978640D01*
X785583Y978695D01*
X785708Y978737D01*
X785861Y978792D01*
X786180Y978848D01*
X786527Y978903D01*
X786846Y978931D01*
X786998D01*
X787123Y978945D01*
X787234D01*
X787317D01*
X787373D01*
X787386D01*
X787678D01*
X787927D01*
X788163D01*
X788357D01*
X788524D01*
X788676D01*
X788801D01*
X788898D01*
X788981D01*
X789051D01*
X789106D01*
X789134D01*
X789175D01*
X789189D01*
X789203Y978959D01*
X789231Y978973D01*
X789328Y979042D01*
X789453Y979139D01*
X789592Y979250D01*
X789730Y979361D01*
X789855Y979444D01*
X789938Y979513D01*
X789952Y979527D01*
X789966Y979541D01*
X790091Y979638D01*
X790216Y979722D01*
X790424Y979846D01*
X790604Y979930D01*
X790743Y979971D01*
X790854Y979999D01*
X790937D01*
X790978Y979985D01*
D02*
G37*
G36*
X785084Y971706D02*
X785195Y971650D01*
X785278Y971581D01*
X785334Y971484D01*
X785362Y971401D01*
X785376Y971331D01*
X785389Y971276D01*
Y971262D01*
X785362Y971123D01*
X785306Y971012D01*
X785223Y970943D01*
X785126Y970901D01*
X785043Y970887D01*
X784959D01*
X784904D01*
X784876D01*
X784738Y970943D01*
X784641Y971012D01*
X784557Y971095D01*
X784516Y971179D01*
X784488Y971248D01*
X784460Y971303D01*
Y971359D01*
X784474Y971484D01*
X784529Y971567D01*
X784613Y971636D01*
X784696Y971678D01*
X784779Y971706D01*
X784862Y971719D01*
X784918D01*
X784932D01*
X785084Y971706D01*
D02*
G37*
G36*
X780383Y979735D02*
X780508Y979708D01*
X780646Y979666D01*
X780771Y979611D01*
X781007Y979486D01*
X781104Y979416D01*
X781201Y979361D01*
X781271Y979305D01*
X781326Y979264D01*
X781368Y979236D01*
X781381Y979222D01*
X781631Y978987D01*
X781867Y978792D01*
X782089Y978626D01*
X782297Y978487D01*
X782463Y978376D01*
X782602Y978293D01*
X782685Y978251D01*
X782699Y978238D01*
X782713D01*
X782962Y978113D01*
X783226Y977974D01*
X783475Y977822D01*
X783725Y977683D01*
X783933Y977558D01*
X784016Y977503D01*
X784100Y977461D01*
X784169Y977419D01*
X784211Y977392D01*
X784238Y977364D01*
X784252D01*
X784599Y977156D01*
X784932Y976934D01*
X785278Y976740D01*
X785583Y976560D01*
X785722Y976476D01*
X785847Y976407D01*
X785958Y976338D01*
X786055Y976282D01*
X786138Y976240D01*
X786194Y976213D01*
X786235Y976185D01*
X786249D01*
X786332Y976143D01*
X786443Y976074D01*
X786568Y976005D01*
X786693Y975935D01*
X786984Y975769D01*
X787275Y975603D01*
X787539Y975450D01*
X787664Y975381D01*
X787775Y975325D01*
X787858Y975270D01*
X787927Y975228D01*
X787969Y975214D01*
X787983Y975200D01*
X788219Y975062D01*
X788440Y974937D01*
X788635Y974826D01*
X788815Y974715D01*
X788981Y974618D01*
X789134Y974535D01*
X789259Y974452D01*
X789383Y974382D01*
X789481Y974327D01*
X789564Y974285D01*
X789633Y974243D01*
X789689Y974202D01*
X789758Y974160D01*
X789786Y974146D01*
X791311Y973287D01*
X791256Y972122D01*
X791242Y971886D01*
X791214Y971678D01*
X791186Y971511D01*
X791159Y971387D01*
X791131Y971290D01*
X791117Y971234D01*
X791089Y971192D01*
Y971179D01*
X791020Y971081D01*
X790909Y970998D01*
X790798Y970929D01*
X790673Y970873D01*
X790548Y970818D01*
X790451Y970790D01*
X790382Y970762D01*
X790354D01*
X790132Y970721D01*
X789938D01*
X789772Y970735D01*
X789647Y970762D01*
X789550Y970804D01*
X789494Y970832D01*
X789453Y970860D01*
X789439Y970873D01*
X789425D01*
X789383D01*
X789342D01*
X789273D01*
X789106Y970860D01*
X788912Y970832D01*
X788718Y970818D01*
X788565Y970790D01*
X788496D01*
X788440Y970776D01*
X788413D01*
X788399D01*
X788038Y970749D01*
X787705D01*
X787414Y970762D01*
X787178Y970804D01*
X786984Y970832D01*
X786846Y970873D01*
X786804Y970887D01*
X786762Y970901D01*
X786749Y970915D01*
X786735D01*
X786596Y970984D01*
X786485Y971068D01*
X786388Y971137D01*
X786305Y971206D01*
X786235Y971262D01*
X786166Y971331D01*
X786083Y971428D01*
X786041Y971511D01*
X786013Y971581D01*
Y971636D01*
X786041Y971692D01*
X786083Y971733D01*
X786208Y971789D01*
X786346Y971830D01*
X786513Y971844D01*
X786536D01*
X786499Y971858D01*
X786402Y971886D01*
X786332Y971900D01*
X786305Y971914D01*
X786083Y971983D01*
X785861Y972052D01*
X785667Y972135D01*
X785500Y972205D01*
X785362Y972274D01*
X785251Y972330D01*
X785181Y972371D01*
X785154Y972385D01*
X785112Y972413D01*
X785029Y972441D01*
X784932Y972496D01*
X784807Y972551D01*
X784668Y972621D01*
X784516Y972704D01*
X784183Y972857D01*
X783864Y973009D01*
X783725Y973079D01*
X783587Y973134D01*
X783475Y973189D01*
X783392Y973231D01*
X783337Y973245D01*
X783323Y973259D01*
X783018Y973398D01*
X782754Y973509D01*
X782519Y973619D01*
X782311Y973703D01*
X782144Y973786D01*
X781992Y973841D01*
X781867Y973897D01*
X781756Y973938D01*
X781673Y973966D01*
X781617Y973994D01*
X781562Y974008D01*
X781520Y974022D01*
X781492Y974035D01*
X781479D01*
X781340Y974063D01*
X781187Y974119D01*
X781021Y974202D01*
X780868Y974285D01*
X780716Y974382D01*
X780605Y974465D01*
X780522Y974521D01*
X780508Y974549D01*
X780494D01*
X779703Y975145D01*
Y977960D01*
X779717Y978210D01*
X779731Y978432D01*
X779745Y978640D01*
X779759Y978806D01*
X779773Y978959D01*
X779787Y979097D01*
X779800Y979208D01*
X779814Y979305D01*
X779828Y979375D01*
X779842Y979430D01*
X779856Y979472D01*
Y979500D01*
X779870Y979527D01*
X779953Y979624D01*
X780036Y979694D01*
X780147Y979735D01*
X780258Y979749D01*
X780383Y979735D01*
D02*
G37*
G36*
X781201Y972455D02*
X781381Y972274D01*
X781534Y972135D01*
X781659Y972025D01*
X781770Y971955D01*
X781853Y971886D01*
X781908Y971858D01*
X781936Y971830D01*
X781950D01*
X782047Y971789D01*
X782158Y971761D01*
X782408Y971733D01*
X782519Y971719D01*
X782616D01*
X782671D01*
X782699D01*
X782907D01*
X783087Y971692D01*
X783240Y971664D01*
X783379Y971636D01*
X783489Y971595D01*
X783573Y971539D01*
X783656Y971497D01*
X783711Y971442D01*
X783808Y971345D01*
X783850Y971248D01*
X783864Y971192D01*
Y971165D01*
X783850Y971068D01*
X783822Y970971D01*
X783767Y970901D01*
X783697Y970832D01*
X783531Y970735D01*
X783337Y970665D01*
X783143Y970624D01*
X782976Y970610D01*
X782907Y970596D01*
X782851D01*
X782824D01*
X782810D01*
X782588Y970582D01*
X782380Y970568D01*
X782200Y970527D01*
X782047Y970485D01*
X781908Y970457D01*
X781825Y970416D01*
X781756Y970402D01*
X781742Y970388D01*
X781576Y970305D01*
X781451Y970222D01*
X781326Y970138D01*
X781243Y970055D01*
X781160Y970000D01*
X781118Y969944D01*
X781090Y969917D01*
X781076Y969903D01*
X780910Y969708D01*
X780757Y969556D01*
X780702Y969501D01*
X780646Y969459D01*
X780619Y969445D01*
X780605Y969431D01*
X780494Y969376D01*
X780397Y969348D01*
X780286D01*
X780189Y969362D01*
X780119Y969390D01*
X780050Y969417D01*
X780008Y969431D01*
X779995Y969445D01*
X779953Y969514D01*
X779911Y969598D01*
X779870Y969695D01*
X779842Y969806D01*
X779787Y970055D01*
X779745Y970319D01*
X779703Y970568D01*
Y970679D01*
X779689Y970790D01*
Y970873D01*
X779676Y970929D01*
Y970984D01*
X779662Y971206D01*
X779648Y971414D01*
Y971900D01*
X779662Y972038D01*
X779676Y972149D01*
Y972246D01*
X779689Y972344D01*
X779703Y972413D01*
X779717Y972510D01*
X779745Y972579D01*
Y972593D01*
X780078Y973342D01*
X781201Y972455D01*
D02*
G37*
G36*
X786568Y969057D02*
X786998Y968987D01*
X787400Y968904D01*
X787789Y968793D01*
X788149Y968668D01*
X788496Y968530D01*
X788801Y968391D01*
X789092Y968252D01*
X789342Y968100D01*
X789564Y967961D01*
X789772Y967836D01*
X789924Y967725D01*
X790063Y967628D01*
X790146Y967559D01*
X790216Y967503D01*
X790229Y967490D01*
X790313Y967406D01*
X790396Y967309D01*
X790576Y967087D01*
X790743Y966838D01*
X790895Y966574D01*
X791020Y966339D01*
X791075Y966228D01*
X791131Y966144D01*
X791159Y966061D01*
X791186Y966006D01*
X791214Y965964D01*
Y965950D01*
X791297Y965742D01*
X791380Y965534D01*
X791436Y965354D01*
X791478Y965187D01*
X791505Y965035D01*
X791533Y964896D01*
Y964771D01*
X791547Y964660D01*
X791533Y964480D01*
X791505Y964355D01*
X791491Y964286D01*
X791478Y964258D01*
X791408Y964175D01*
X791311Y964120D01*
X791200Y964092D01*
X791089Y964064D01*
X790992D01*
X790909D01*
X790840D01*
X790826D01*
X790646Y964092D01*
X790493Y964147D01*
X790368Y964203D01*
X790257Y964272D01*
X790174Y964342D01*
X790105Y964397D01*
X790077Y964438D01*
X790063Y964452D01*
X790021Y964480D01*
X789952Y964494D01*
X789869Y964522D01*
X789772Y964536D01*
X789675Y964549D01*
X789592Y964563D01*
X789536Y964577D01*
X789522D01*
X789425Y964591D01*
X789300D01*
X789051Y964605D01*
X788773Y964619D01*
X788496D01*
X788246D01*
X788135Y964633D01*
X788038D01*
X787955D01*
X787900D01*
X787858D01*
X787844D01*
X787220D01*
X786637Y964647D01*
X786374Y964660D01*
X786111D01*
X785875Y964674D01*
X785653D01*
X785459Y964688D01*
X785278Y964702D01*
X785112D01*
X784987Y964716D01*
X784876D01*
X784807Y964730D01*
X784751D01*
X784738D01*
X784488Y964744D01*
X784252Y964758D01*
X784058Y964771D01*
X783878Y964785D01*
X783711Y964799D01*
X783587Y964813D01*
X783462Y964827D01*
X783365Y964841D01*
X783281D01*
X783212Y964855D01*
X783157D01*
X783115D01*
X783059Y964868D01*
X783046D01*
X782921Y964882D01*
X782768D01*
X782449Y964868D01*
X782311Y964855D01*
X782186Y964841D01*
X782103Y964827D01*
X782089D01*
X782075D01*
X781867Y964799D01*
X781673Y964785D01*
X781479D01*
X781298Y964799D01*
X781146Y964813D01*
X781021Y964841D01*
X780938Y964855D01*
X780910D01*
X780799Y964882D01*
X780702Y964924D01*
X780605Y964966D01*
X780535Y965007D01*
X780507Y965032D01*
X780535Y964966D01*
X780577Y964882D01*
X780605Y964813D01*
X780619Y964785D01*
X780660Y964674D01*
X780702Y964591D01*
X780716Y964536D01*
X780730Y964522D01*
X780743Y964411D01*
X780757Y964314D01*
Y964189D01*
X780743Y964120D01*
X780730Y964064D01*
X780660Y963981D01*
X780591Y963939D01*
X780577Y963925D01*
X780563D01*
X780411Y963884D01*
X780300Y963870D01*
X780217Y963856D01*
X780203D01*
X780189D01*
X780064Y963870D01*
X779953Y963884D01*
X779856Y963925D01*
X779787Y963967D01*
X779745Y964009D01*
X779703Y964036D01*
X779676Y964064D01*
Y964078D01*
X779620Y964161D01*
X779592Y964258D01*
X779537Y964466D01*
Y964563D01*
X779523Y964633D01*
Y964855D01*
X779537Y964979D01*
X779565Y965090D01*
X779578Y965187D01*
X779620Y965271D01*
X779648Y965340D01*
X779717Y965437D01*
X779800Y965506D01*
X779856Y965534D01*
X779911Y965548D01*
X779925D01*
X780064Y965520D01*
X780189Y965465D01*
X780286Y965396D01*
X780300Y965376D01*
Y965368D01*
X780314Y965285D01*
X780355Y965201D01*
X780424Y965104D01*
X780507Y965032D01*
X780494Y965063D01*
X780480Y965077D01*
X780466Y965132D01*
X780424Y965215D01*
X780355Y965298D01*
X780300Y965376D01*
Y965437D01*
X780341Y965687D01*
X780411Y965909D01*
X780494Y966103D01*
X780577Y966269D01*
X780646Y966408D01*
X780716Y966519D01*
X780757Y966574D01*
X780771Y966602D01*
X780841Y966699D01*
X780938Y966796D01*
X781160Y967032D01*
X781409Y967268D01*
X781659Y967503D01*
X781895Y967711D01*
X781992Y967809D01*
X782089Y967878D01*
X782158Y967947D01*
X782214Y968003D01*
X782255Y968030D01*
X782269Y968044D01*
X782546Y968252D01*
X782838Y968433D01*
X783157Y968585D01*
X783475Y968710D01*
X783794Y968807D01*
X784113Y968890D01*
X784433Y968960D01*
X784738Y969015D01*
X785015Y969057D01*
X785278Y969071D01*
X785514Y969084D01*
X785722Y969098D01*
X785889D01*
X786013D01*
X786097D01*
X786111D01*
X786124D01*
X786568Y969057D01*
D02*
G37*
G36*
X780258Y962552D02*
X780272D01*
X780286D01*
X780397Y962497D01*
X780480Y962441D01*
X780549Y962400D01*
X780563Y962386D01*
X780646Y962289D01*
X780743Y962192D01*
X780813Y962109D01*
X780827Y962095D01*
X780841Y962081D01*
X780924Y961998D01*
X781021Y961915D01*
X781229Y961776D01*
X781312Y961720D01*
X781395Y961679D01*
X781451Y961651D01*
X781465Y961637D01*
X781784Y961485D01*
X781922Y961429D01*
X782061Y961374D01*
X782172Y961332D01*
X782255Y961304D01*
X782311Y961276D01*
X782325D01*
X782643Y961166D01*
X782796Y961124D01*
X782949Y961068D01*
X783073Y961027D01*
X783170Y960999D01*
X783226Y960985D01*
X783254Y960971D01*
X783434Y960902D01*
X783587Y960833D01*
X783725Y960750D01*
X783836Y960680D01*
X783933Y960611D01*
X783989Y960555D01*
X784030Y960528D01*
X784044Y960514D01*
X784127Y960403D01*
X784169Y960278D01*
X784183Y960167D01*
Y960056D01*
X784169Y959959D01*
X784155Y959876D01*
X784127Y959820D01*
Y959807D01*
X784072Y959751D01*
X783975Y959709D01*
X783850Y959668D01*
X783684Y959626D01*
X783503Y959598D01*
X783309Y959571D01*
X782907Y959529D01*
X782699Y959515D01*
X782491Y959501D01*
X782311D01*
X782144Y959488D01*
X782005D01*
X781908D01*
X781839D01*
X781811D01*
X781437D01*
X781104Y959501D01*
X780799D01*
X780549Y959529D01*
X780327Y959543D01*
X780133Y959571D01*
X779981Y959598D01*
X779842Y959626D01*
X779745Y959654D01*
X779662Y959668D01*
X779592Y959696D01*
X779551Y959723D01*
X779509Y959737D01*
X779495Y959751D01*
X779481Y959765D01*
X779454Y959876D01*
Y959987D01*
X779481Y960112D01*
X779509Y960236D01*
X779551Y960333D01*
X779592Y960417D01*
X779620Y960472D01*
X779634Y960500D01*
X779717Y960666D01*
X779773Y960819D01*
X779800Y960944D01*
X779814Y961041D01*
X779828Y961124D01*
X779814Y961180D01*
Y961235D01*
X779773Y961471D01*
X779745Y961679D01*
Y961859D01*
X779759Y962012D01*
X779787Y962136D01*
X779800Y962234D01*
X779814Y962289D01*
X779828Y962303D01*
X779870Y962372D01*
X779911Y962441D01*
X779967Y962483D01*
X779981Y962497D01*
X780078Y962552D01*
X780175Y962566D01*
X780258Y962552D01*
D02*
G37*
G36*
X785847Y964092D02*
X785930Y964078D01*
X786111Y963981D01*
X786277Y963870D01*
X786416Y963745D01*
X786541Y963634D01*
X786624Y963551D01*
X786637Y963537D01*
X786651Y963523D01*
X786749Y963412D01*
X786832Y963315D01*
X786915Y963246D01*
X786970Y963190D01*
X787026Y963163D01*
X787067Y963135D01*
X787081Y963121D01*
X787095D01*
X787178Y963093D01*
X787303D01*
X787442Y963079D01*
X787595Y963093D01*
X787733D01*
X787858D01*
X787941Y963107D01*
X787955D01*
X787969D01*
X788205D01*
X788413D01*
X788593D01*
X788759Y963093D01*
X788912Y963066D01*
X789037Y963038D01*
X789134Y963010D01*
X789231Y962982D01*
X789300Y962955D01*
X789356Y962927D01*
X789439Y962885D01*
X789481Y962844D01*
X789494Y962830D01*
X789522Y962774D01*
X789536Y962747D01*
X789550D01*
X789578Y962774D01*
X789647Y962816D01*
X789716Y962871D01*
X789730Y962885D01*
X789744Y962899D01*
X789855Y962982D01*
X789938Y963079D01*
X790008Y963163D01*
X790049Y963232D01*
X790077Y963301D01*
X790091Y963357D01*
Y963398D01*
X790105Y963482D01*
X790160Y963537D01*
X790243Y963565D01*
X790327Y963593D01*
X790410D01*
X790493D01*
X790548D01*
X790562D01*
X790646Y963565D01*
X790715Y963509D01*
X790770Y963426D01*
X790826Y963329D01*
X790881Y963121D01*
X790923Y962871D01*
X790937Y962650D01*
X790951Y962539D01*
Y962441D01*
X790937Y962358D01*
Y962247D01*
X790909Y962025D01*
X790895Y961817D01*
X790867Y961623D01*
X790826Y961457D01*
X790798Y961290D01*
X790757Y961152D01*
X790729Y961027D01*
X790687Y960916D01*
X790659Y960805D01*
X790632Y960722D01*
X790576Y960597D01*
X790535Y960528D01*
X790521Y960500D01*
X790424Y960320D01*
X790313Y960181D01*
X790216Y960070D01*
X790132Y960001D01*
X790049Y959931D01*
X789994Y959904D01*
X789952Y959876D01*
X789938D01*
X789869Y959848D01*
X789786Y959834D01*
X789564Y959793D01*
X789328Y959779D01*
X789078Y959751D01*
X788857Y959737D01*
X788745D01*
X788662Y959723D01*
X788593D01*
X788524D01*
X788496D01*
X788482D01*
X788232Y959709D01*
X787997Y959682D01*
X787789Y959654D01*
X787595Y959640D01*
X787428Y959612D01*
X787289Y959571D01*
X787151Y959543D01*
X787040Y959515D01*
X786943Y959488D01*
X786873Y959460D01*
X786804Y959446D01*
X786749Y959418D01*
X786679Y959390D01*
X786665Y959377D01*
X786457Y959266D01*
X786277Y959196D01*
X786124Y959155D01*
X786000Y959127D01*
X785889D01*
X785819D01*
X785764Y959141D01*
X785750D01*
X785653Y959196D01*
X785570Y959307D01*
X785500Y959446D01*
X785445Y959612D01*
X785389Y959807D01*
X785348Y960028D01*
X785292Y960472D01*
X785265Y960694D01*
X785251Y960902D01*
X785237Y961096D01*
Y961276D01*
X785223Y961429D01*
Y962039D01*
X785237Y962386D01*
X785265Y962691D01*
X785278Y962969D01*
X785306Y963204D01*
X785348Y963398D01*
X785376Y963565D01*
X785417Y963704D01*
X785459Y963814D01*
X785487Y963898D01*
X785514Y963967D01*
X785556Y964009D01*
X785570Y964050D01*
X785597Y964064D01*
X785611Y964078D01*
X785681Y964106D01*
X785764D01*
X785847Y964092D01*
D02*
G37*
G36*
X800684Y1124131D02*
X800851D01*
X800976Y1124089D01*
X801017D01*
X801184Y1124047D01*
X801351Y1124006D01*
X801476Y1123964D01*
X801517D01*
X802225Y1123131D01*
X802475Y1122964D01*
X802642Y1122798D01*
X802767Y1122714D01*
X802809Y1122673D01*
X802934Y1122548D01*
X803017Y1122464D01*
X803100Y1122423D01*
X803225Y1122256D01*
X803267Y1122214D01*
Y1122173D01*
X803558Y1121756D01*
X803725Y1121423D01*
X803808Y1121131D01*
X803850Y1121090D01*
Y1121048D01*
X803808Y1120881D01*
X803767Y1120715D01*
X803725Y1120590D01*
X803683Y1120548D01*
X803558Y1120340D01*
X803392Y1120215D01*
X803267Y1120132D01*
X803225Y1120090D01*
X801684Y1119298D01*
X800976Y1118882D01*
X800351Y1118549D01*
X799768Y1118257D01*
X799351Y1118049D01*
X799184Y1117965D01*
X799060Y1117882D01*
X799018Y1117840D01*
X798976D01*
X798685Y1117591D01*
X798310Y1117299D01*
X797560Y1116716D01*
X797185Y1116466D01*
X796893Y1116258D01*
X796727Y1116133D01*
X796644Y1116091D01*
X796060Y1115716D01*
X795602Y1115383D01*
X795185Y1115133D01*
X794852Y1114883D01*
X794602Y1114716D01*
X794436Y1114591D01*
X794352Y1114550D01*
X794311Y1114508D01*
X794061Y1114341D01*
X794019Y1114300D01*
X793978D01*
X793894Y1114258D01*
X793852Y1114217D01*
X793769Y1114133D01*
X793727D01*
X789562Y1111217D01*
X789354Y1111092D01*
X789104Y1110926D01*
X788895Y1110759D01*
X788854Y1110717D01*
X788812D01*
X788437Y1110467D01*
X788146Y1110301D01*
X787979Y1110176D01*
X787937Y1110134D01*
X786979Y1109509D01*
X786854Y1109384D01*
X786646Y1109259D01*
X786229Y1109009D01*
X786063Y1108885D01*
X785896Y1108760D01*
X785771Y1108718D01*
X785730Y1108676D01*
X785396Y1108468D01*
X785146Y1108301D01*
X784896Y1108135D01*
X784730Y1108010D01*
X784605Y1107926D01*
X784522Y1107885D01*
X784480Y1107843D01*
X784272Y1107718D01*
X784063Y1107551D01*
X783605Y1107218D01*
X783397Y1107093D01*
X783230Y1106968D01*
X783105Y1106885D01*
X783064Y1106843D01*
X782730Y1106593D01*
X782439Y1106385D01*
X782189Y1106218D01*
X782231D01*
X782564Y1106260D01*
X782730Y1106302D01*
X782814D01*
X783022Y1106344D01*
X783189Y1106385D01*
X783314D01*
X783355D01*
X783980Y1106427D01*
X784522Y1106510D01*
X785021Y1106552D01*
X785438Y1106593D01*
X785771Y1106635D01*
X785980Y1106677D01*
X786146Y1106718D01*
X786188D01*
X786813Y1106802D01*
X787312Y1106843D01*
X787729Y1106885D01*
X788062D01*
X788312Y1106927D01*
X788479D01*
X788562D01*
X788604D01*
X788729D01*
X788895Y1106968D01*
X789104D01*
X789354Y1107010D01*
X789937Y1107052D01*
X790603Y1107135D01*
X791187Y1107177D01*
X791728Y1107260D01*
X791936D01*
X792103Y1107302D01*
X792186D01*
X792228D01*
X795019Y1107635D01*
X795144D01*
X795352Y1107676D01*
X795602Y1107718D01*
X795894Y1107760D01*
X796144Y1107801D01*
X796352Y1107843D01*
X796518Y1107885D01*
X796560D01*
X797268Y1107926D01*
X797935Y1107843D01*
X798476Y1107676D01*
X798976Y1107510D01*
X799351Y1107302D01*
X799643Y1107093D01*
X799809Y1106968D01*
X799851Y1106927D01*
X800267Y1106510D01*
X800642Y1106218D01*
X800851Y1106052D01*
X800892Y1106010D01*
X800934D01*
Y1105802D01*
X800976Y1105594D01*
X801017Y1105427D01*
Y1105385D01*
X801059Y1105135D01*
Y1104802D01*
X801017Y1104552D01*
X800892Y1104302D01*
X800726Y1104094D01*
X800559Y1103927D01*
X800351Y1103802D01*
X800226Y1103678D01*
X800101Y1103636D01*
X800059Y1103594D01*
X799851Y1103469D01*
X799643Y1103386D01*
X799476Y1103303D01*
X799393Y1103261D01*
X799060Y1103094D01*
X798768Y1102969D01*
X798601Y1102886D01*
X798518Y1102844D01*
X798268Y1102678D01*
X798060Y1102553D01*
X797893Y1102469D01*
X797851Y1102428D01*
X797685Y1102345D01*
X797518Y1102303D01*
X797352Y1102219D01*
X797310D01*
X796727Y1102011D01*
X796227Y1101803D01*
X795810Y1101595D01*
X795435Y1101386D01*
X795144Y1101220D01*
X794936Y1101053D01*
X794811Y1100970D01*
X794769Y1100928D01*
X794686Y1100845D01*
X794561Y1100803D01*
X794477Y1100720D01*
X794436D01*
X794227Y1100637D01*
X794102Y1100553D01*
X794061Y1100512D01*
X794019D01*
X793727Y1100303D01*
X793644Y1100220D01*
X793603Y1100178D01*
X793436Y1100012D01*
X793269Y1099887D01*
X793186Y1099803D01*
X793144Y1099762D01*
X792603Y1099304D01*
X792103Y1098887D01*
X791645Y1098554D01*
X791228Y1098221D01*
X790895Y1097929D01*
X790562Y1097679D01*
X790020Y1097221D01*
X789645Y1096929D01*
X789395Y1096721D01*
X789229Y1096638D01*
X789187Y1096596D01*
X788479Y1096054D01*
X787812Y1095555D01*
X787229Y1095096D01*
X786729Y1094722D01*
X786271Y1094388D01*
X785896Y1094097D01*
X785563Y1093847D01*
X785271Y1093638D01*
X785063Y1093430D01*
X784855Y1093305D01*
X784605Y1093097D01*
X784480Y1093014D01*
X784438Y1092972D01*
X784313Y1092889D01*
X784147Y1092764D01*
X783813Y1092472D01*
X783647Y1092347D01*
X783480Y1092222D01*
X783397Y1092180D01*
X783355Y1092139D01*
X782605Y1091556D01*
X781981Y1091056D01*
X781522Y1090681D01*
X781106Y1090348D01*
X780856Y1090098D01*
X780648Y1089931D01*
X780564Y1089848D01*
X780523Y1089806D01*
X780439Y1089681D01*
X780314Y1089598D01*
X780189Y1089514D01*
X780148D01*
X778148Y1088640D01*
X777857Y1088223D01*
X777607Y1087848D01*
X777357Y1087515D01*
X777149Y1087307D01*
X776940Y1087098D01*
X776815Y1086973D01*
X776732Y1086932D01*
X776690Y1086890D01*
X776190Y1086557D01*
X775857Y1086307D01*
X775649Y1086140D01*
X775607Y1086099D01*
X775191Y1085765D01*
X774732Y1085432D01*
X774566Y1085266D01*
X774399Y1085141D01*
X774316Y1085057D01*
X774274Y1085016D01*
X773733Y1084557D01*
X773275Y1084183D01*
X773149Y1084057D01*
X773025Y1083974D01*
X772983Y1083891D01*
X772941D01*
X772858Y1083849D01*
X772775Y1083808D01*
X772483Y1083641D01*
X772191Y1083516D01*
X772108Y1083433D01*
X772066D01*
X771733Y1083099D01*
X771358Y1082850D01*
X771025Y1082683D01*
X770650Y1082558D01*
X770359Y1082475D01*
X770109Y1082433D01*
X769942Y1082391D01*
X769900D01*
X769817Y1082350D01*
X769650Y1082308D01*
X769525Y1082266D01*
X769442D01*
X769109D01*
X768859Y1082308D01*
X768817Y1082350D01*
X768776D01*
X768734Y1082391D01*
X768776Y1082433D01*
X768734D01*
X768692D01*
X768734Y1082391D01*
X768692Y1082350D01*
X768651Y1082266D01*
X768692Y1082225D01*
X768734D01*
X768776D01*
Y1082100D01*
X768526D01*
X768317Y1082141D01*
X768151D01*
X768067Y1082183D01*
X767943Y1082225D01*
X767901Y1082266D01*
X767776Y1082433D01*
X767692Y1082558D01*
X767609Y1082725D01*
X767568Y1082766D01*
X767734Y1083099D01*
X767901Y1083349D01*
X768026Y1083516D01*
X768067Y1083558D01*
X768234Y1083724D01*
X768317Y1083849D01*
X768401Y1083933D01*
Y1083974D01*
X768359Y1083891D01*
X768317D01*
X768276Y1083933D01*
X768234Y1084016D01*
X768276Y1084183D01*
X768317Y1084307D01*
Y1084349D01*
X768526Y1084682D01*
X768692Y1084932D01*
X768817Y1085057D01*
X768859Y1085099D01*
X769067Y1085266D01*
X769359Y1085474D01*
X769900Y1085849D01*
X770150Y1086015D01*
X770359Y1086140D01*
X770525Y1086224D01*
X770567Y1086265D01*
X770942Y1086515D01*
X771150Y1086682D01*
X771317Y1086807D01*
X771358Y1086890D01*
Y1086932D01*
X771317Y1086973D01*
X771275D01*
X771442Y1087057D01*
X771608Y1087098D01*
X771733Y1087140D01*
X771775D01*
X771983D01*
X772150D01*
X772233Y1087098D01*
X772316D01*
X772400Y1087057D01*
Y1087140D01*
X772441Y1087223D01*
X772608Y1087348D01*
X772816Y1087515D01*
X772858Y1087557D01*
X772899D01*
X772650Y1087765D01*
X772899Y1088140D01*
X773149Y1088390D01*
X773316Y1088556D01*
X773358Y1088598D01*
X773649Y1088765D01*
X773899Y1088931D01*
X774149Y1089015D01*
X774191Y1089056D01*
X774232D01*
X774274Y1089008D01*
Y1088931D01*
X774316Y1088890D01*
X774441Y1088723D01*
X774649Y1088556D01*
X774774D01*
X774899D01*
X774982D01*
X775149Y1088598D01*
X775399Y1088640D01*
X775732D01*
X775691Y1088681D01*
X775649Y1088806D01*
X775524Y1089015D01*
X775357Y1089181D01*
X775149Y1089348D01*
X774997Y1089424D01*
X775107Y1089556D01*
X775149Y1089639D01*
X775191Y1089681D01*
X775441D01*
X775482Y1089723D01*
X775607Y1089806D01*
X775774Y1089889D01*
X775816Y1089931D01*
X776065Y1090056D01*
X776190Y1090098D01*
X776274Y1090181D01*
X776315D01*
X776375Y1090240D01*
X779948Y1093988D01*
X779939Y1094013D01*
X779981Y1094138D01*
X780023Y1094222D01*
Y1094263D01*
X780106Y1094430D01*
X780231Y1094555D01*
X780273Y1094638D01*
X780314Y1094680D01*
X781189Y1095430D01*
X782064Y1096138D01*
X782855Y1096763D01*
X783564Y1097304D01*
X784147Y1097721D01*
X784605Y1098054D01*
X784771Y1098179D01*
X784896Y1098262D01*
X784938Y1098345D01*
X784980D01*
X785355Y1098679D01*
X785605Y1098845D01*
X785771Y1098970D01*
X785813Y1099012D01*
X786979Y1099887D01*
X787521Y1100303D01*
X787896Y1100678D01*
X788146Y1100928D01*
X788187Y1100970D01*
X788229Y1101012D01*
X788479Y1101303D01*
X788604Y1101386D01*
X788645Y1101428D01*
X788771Y1101553D01*
X788854Y1101636D01*
X788937Y1101720D01*
X789062Y1101845D01*
X789165Y1101926D01*
X787021Y1101678D01*
X786604Y1101595D01*
X786313D01*
X786146D01*
X786105D01*
X785438Y1101678D01*
X784855D01*
X784605D01*
X784397D01*
X784272D01*
X784230D01*
X783938Y1101636D01*
X783605D01*
X782855Y1101553D01*
X782064Y1101470D01*
X781272Y1101428D01*
X780564Y1101345D01*
X780273D01*
X779981Y1101303D01*
X779773D01*
X779565Y1101261D01*
X779481D01*
X779439D01*
X778315D01*
X778232D01*
X778065Y1101220D01*
X777690Y1101178D01*
X777482Y1101136D01*
X777357D01*
X777232Y1101095D01*
X777190D01*
X776649Y1100928D01*
X776149Y1100720D01*
X775691Y1100512D01*
X775274Y1100262D01*
X774982Y1100053D01*
X774732Y1099887D01*
X774566Y1099762D01*
X774524Y1099720D01*
X774232Y1099512D01*
X773941Y1099304D01*
X773399Y1099054D01*
X773191Y1099012D01*
X773025Y1098970D01*
X772941Y1098929D01*
X772899D01*
X769900Y1099429D01*
X769775Y1099470D01*
X769609Y1099554D01*
X769317Y1099803D01*
X769109Y1100053D01*
X769067Y1100095D01*
X769025Y1100137D01*
X769192Y1100637D01*
X769359Y1101053D01*
X769442Y1101261D01*
X769484Y1101386D01*
X769525Y1101470D01*
Y1101511D01*
X769692Y1102011D01*
X769859Y1102386D01*
X769984Y1102636D01*
X770025Y1102678D01*
Y1102719D01*
X770275Y1102886D01*
X770525Y1103094D01*
X770983Y1103552D01*
X771192Y1103719D01*
X771317Y1103886D01*
X771400Y1104011D01*
X771442Y1104052D01*
X771816Y1104219D01*
X772108Y1104386D01*
X772358Y1104552D01*
X772566Y1104636D01*
X772733Y1104761D01*
X772858Y1104844D01*
X772899Y1104885D01*
X772941D01*
X773275Y1105094D01*
X773608Y1105344D01*
X773774Y1105469D01*
X773899Y1105594D01*
X773983Y1105635D01*
X774024Y1105677D01*
X774232Y1105844D01*
X774441Y1106010D01*
X774566Y1106094D01*
X774649Y1106177D01*
X774732Y1106260D01*
X774774D01*
X774857Y1106344D01*
X774982Y1106427D01*
X775232Y1106635D01*
X775482Y1106843D01*
X775565Y1106885D01*
X775607Y1106927D01*
X776024Y1107260D01*
X776357Y1107468D01*
X776565Y1107635D01*
X776649Y1107676D01*
X780273Y1110342D01*
X780898Y1110759D01*
X781439Y1111134D01*
X781856Y1111384D01*
X782231Y1111592D01*
X782522Y1111759D01*
X782730Y1111842D01*
X782855Y1111925D01*
X782897D01*
X783813Y1112717D01*
X784230Y1113092D01*
X784647Y1113425D01*
X784980Y1113675D01*
X785271Y1113883D01*
X785438Y1114008D01*
X785521Y1114050D01*
X788521Y1116049D01*
X788687Y1116174D01*
X788771Y1116216D01*
X788854Y1116299D01*
X789687Y1116966D01*
X790104Y1117257D01*
X790437Y1117507D01*
X790728Y1117716D01*
X790978Y1117882D01*
X791145Y1117965D01*
X791187Y1118007D01*
X791561Y1118257D01*
X791853Y1118465D01*
X792103Y1118632D01*
X792311Y1118757D01*
X792478Y1118840D01*
X792561Y1118924D01*
X792645D01*
X792686Y1118965D01*
X792853Y1119049D01*
X792978Y1119215D01*
X793144Y1119340D01*
X793186Y1119382D01*
X793394Y1119548D01*
X793561Y1119715D01*
X793686Y1119757D01*
X793727Y1119798D01*
X796144Y1121381D01*
X796352Y1121506D01*
X796518Y1121631D01*
X796602Y1121673D01*
X796644Y1121714D01*
Y1121620D01*
X800476Y1124172D01*
X800684Y1124131D01*
D02*
G37*
G36*
X774997Y1089424D02*
X774899Y1089306D01*
X774649Y1089015D01*
X774566Y1088848D01*
X774482Y1088765D01*
X774274Y1089008D01*
Y1089389D01*
X774607Y1089473D01*
X774899D01*
X774997Y1089424D01*
D02*
G37*
G36*
X815814Y1109096D02*
X816022Y1108923D01*
X816196Y1108784D01*
X816335Y1108645D01*
X816439Y1108575D01*
X816508Y1108506D01*
X816543Y1108471D01*
X817341Y1107082D01*
Y1106944D01*
X817376Y1106770D01*
X817411Y1106596D01*
Y1106214D01*
X817376Y1106006D01*
X817307Y1105867D01*
X817272Y1105832D01*
X817168Y1105694D01*
X817029Y1105520D01*
X816890Y1105312D01*
X816717Y1105069D01*
X816578Y1104826D01*
X816473Y1104652D01*
X816404Y1104513D01*
X816369Y1104478D01*
X815918Y1103610D01*
X815675Y1103228D01*
X815501Y1102881D01*
X815328Y1102569D01*
X815189Y1102326D01*
X815119Y1102187D01*
X815085Y1102117D01*
X814842Y1101701D01*
X814668Y1101388D01*
X814564Y1101145D01*
X814460Y1100971D01*
X814390Y1100867D01*
X814355Y1100833D01*
Y1100798D01*
X814251Y1100659D01*
X814112Y1100451D01*
X813973Y1100312D01*
X813939Y1100242D01*
X813730Y1099964D01*
X813557Y1099756D01*
X813487Y1099617D01*
X813453Y1099583D01*
X813279Y1099339D01*
X813105Y1099096D01*
X812967Y1098923D01*
X812897Y1098888D01*
Y1098853D01*
X812654Y1098506D01*
X812550Y1098228D01*
X812480Y1098089D01*
Y1098055D01*
X812446Y1097881D01*
X812376Y1097742D01*
X812307Y1097673D01*
X812272Y1097638D01*
X812029Y1097221D01*
X811821Y1096874D01*
X811751Y1096735D01*
X811717Y1096631D01*
X811682Y1096596D01*
Y1096562D01*
X811543Y1096353D01*
X811404Y1096145D01*
X811300Y1095937D01*
X811265Y1095902D01*
Y1095867D01*
X811230Y1095798D01*
X811196Y1095728D01*
X811057Y1095485D01*
X810953Y1095312D01*
X810883Y1095242D01*
Y1095208D01*
X810848Y1095138D01*
X810814Y1095034D01*
X810779Y1094965D01*
Y1094930D01*
X810710Y1094791D01*
X810640Y1094652D01*
X810571Y1094583D01*
Y1094548D01*
X810189Y1093958D01*
X809911Y1093471D01*
X809668Y1093090D01*
X809494Y1092812D01*
X809355Y1092569D01*
X809286Y1092430D01*
X809217Y1092360D01*
Y1092326D01*
X809078Y1092048D01*
X808869Y1091770D01*
X808800Y1091631D01*
X808730Y1091527D01*
X808661Y1091458D01*
Y1091423D01*
X808418Y1091041D01*
X808244Y1090798D01*
X808175Y1090624D01*
X808140Y1090590D01*
Y1090347D01*
X807967Y1090208D01*
X807828Y1090138D01*
X807793Y1090069D01*
X807758Y1090034D01*
X807689Y1089895D01*
X807585Y1089756D01*
X807550Y1089652D01*
X807515Y1089617D01*
X807411Y1089444D01*
X807342Y1089340D01*
X807307Y1089270D01*
X807237Y1089201D01*
X807098Y1089131D01*
X806925Y1088992D01*
X806717Y1088888D01*
X806543Y1088784D01*
X806369Y1088680D01*
X806230Y1088610D01*
X806196Y1088576D01*
X806057Y1088923D01*
X806161Y1088992D01*
X806265Y1089097D01*
Y1089131D01*
X806196Y1089166D01*
X806092Y1089131D01*
X805987Y1089097D01*
X806057Y1088923D01*
X806022Y1088853D01*
X805987D01*
X805918Y1088819D01*
X805814Y1088784D01*
X805536Y1088749D01*
X805328D01*
X805258D01*
X805223D01*
Y1089652D01*
X805293Y1089826D01*
X805328Y1089895D01*
Y1089930D01*
X805362Y1090103D01*
Y1090173D01*
X805395Y1090269D01*
X805362Y1090381D01*
Y1090972D01*
X805397Y1091110D01*
X805432Y1091215D01*
X805467Y1091249D01*
Y1091284D01*
X805536Y1091423D01*
X805675Y1091666D01*
X805814Y1091909D01*
X805953Y1092187D01*
X806092Y1092465D01*
X806230Y1092708D01*
X806300Y1092847D01*
X806335Y1092916D01*
X806578Y1093367D01*
X806786Y1093784D01*
X806960Y1094096D01*
X807098Y1094374D01*
X807237Y1094583D01*
X807307Y1094721D01*
X807342Y1094791D01*
X807376Y1094826D01*
X807446Y1094965D01*
X807515Y1095138D01*
X807723Y1095555D01*
X807828Y1095728D01*
X807932Y1095902D01*
X807967Y1096041D01*
X808001Y1096076D01*
X808210Y1096423D01*
X808314Y1096666D01*
X808383Y1096805D01*
X808418Y1096874D01*
X808487Y1097013D01*
X808557Y1097152D01*
X808626Y1097221D01*
X808661Y1097256D01*
X808730Y1097360D01*
X808800Y1097430D01*
X808835Y1097499D01*
X808973Y1097742D01*
X809112Y1097951D01*
X809217Y1098089D01*
X809286Y1098228D01*
X809355Y1098402D01*
X809390Y1098437D01*
X809633Y1098958D01*
X809842Y1099409D01*
X810050Y1099756D01*
X810189Y1099999D01*
X810328Y1100208D01*
X810432Y1100346D01*
X810467Y1100416D01*
X810484Y1100433D01*
X812434Y1104351D01*
X812411Y1104339D01*
X812237Y1104270D01*
X812168Y1104235D01*
X812133D01*
X811890Y1104166D01*
X811612Y1104096D01*
X811092Y1103923D01*
X810848Y1103853D01*
X810640Y1103819D01*
X810501Y1103749D01*
X810467D01*
X810085Y1103610D01*
X809737Y1103471D01*
X809425Y1103332D01*
X809147Y1103194D01*
X808939Y1103089D01*
X808765Y1102985D01*
X808661Y1102951D01*
X808626Y1102916D01*
X808522Y1102846D01*
X808348Y1102742D01*
X808140Y1102638D01*
X807932Y1102499D01*
X807723Y1102395D01*
X807550Y1102291D01*
X807411Y1102221D01*
X807376Y1102187D01*
X806335Y1101458D01*
X806022Y1101249D01*
X805710Y1101041D01*
X805085Y1100555D01*
X804772Y1100346D01*
X804564Y1100173D01*
X804425Y1100069D01*
X804355Y1100034D01*
X803835Y1099652D01*
X803418Y1099305D01*
X803071Y1098992D01*
X802828Y1098749D01*
X802619Y1098576D01*
X802480Y1098437D01*
X802411Y1098367D01*
X802376Y1098333D01*
X802307Y1098298D01*
X802237Y1098228D01*
X802168Y1098194D01*
X802133Y1098159D01*
X801994Y1098055D01*
X801925Y1098020D01*
X801890Y1097985D01*
X801751Y1097777D01*
X801578Y1097603D01*
X801265Y1097256D01*
X801092Y1097117D01*
X800953Y1097013D01*
X800883Y1096944D01*
X800849Y1096909D01*
X800501Y1096562D01*
X800467Y1096527D01*
X800397Y1096458D01*
X800258Y1096284D01*
X800085Y1096110D01*
X800050Y1096076D01*
X800015Y1096041D01*
X799842Y1095833D01*
X799633Y1095624D01*
X799217Y1095138D01*
X799043Y1094930D01*
X798904Y1094756D01*
X798800Y1094652D01*
X798765Y1094617D01*
X798453Y1094235D01*
X798106Y1093853D01*
X797758Y1093437D01*
X797446Y1093055D01*
X797203Y1092742D01*
X796960Y1092465D01*
X796821Y1092291D01*
X796786Y1092222D01*
X796508Y1091874D01*
X796335Y1091631D01*
X796265Y1091492D01*
X796231Y1091458D01*
X796092Y1091215D01*
X795918Y1090937D01*
X795814Y1090728D01*
X795744Y1090694D01*
Y1090659D01*
X795501Y1090312D01*
X795328Y1090069D01*
X795258Y1089930D01*
X795224Y1089895D01*
X795050Y1089617D01*
X794911Y1089409D01*
X794842Y1089270D01*
X794807Y1089201D01*
X794633Y1088958D01*
X794494Y1088715D01*
X794356Y1088541D01*
X794321Y1088506D01*
Y1088472D01*
X794147Y1088194D01*
X794008Y1088020D01*
X793939Y1087916D01*
X793904Y1087881D01*
X793557Y1087291D01*
X793418Y1087048D01*
X793279Y1086805D01*
X793175Y1086631D01*
X793106Y1086492D01*
X793036Y1086388D01*
Y1086354D01*
X792307Y1085173D01*
X792203Y1085034D01*
X792168Y1084930D01*
X792133Y1084860D01*
X791856Y1084340D01*
X791846Y1084322D01*
X792029Y1084444D01*
X792515Y1084756D01*
X792932Y1085069D01*
X793279Y1085347D01*
X793557Y1085555D01*
X793765Y1085729D01*
X793904Y1085833D01*
X793939Y1085867D01*
X794113Y1086006D01*
X794321Y1086180D01*
X794772Y1086562D01*
X794981Y1086701D01*
X795154Y1086840D01*
X795293Y1086944D01*
X795328Y1086979D01*
X795571Y1087013D01*
X795814Y1086979D01*
X796022Y1086909D01*
X796231Y1086805D01*
X796404Y1086735D01*
X796508Y1086631D01*
X796578Y1086597D01*
X796612Y1086562D01*
X796717Y1086458D01*
X796890Y1086319D01*
X796994Y1086215D01*
X797064Y1086145D01*
X797307Y1085902D01*
X797446Y1085763D01*
X797550Y1085659D01*
X797585Y1085624D01*
X797828Y1085347D01*
X798001Y1085069D01*
X798036Y1084930D01*
X798071Y1084826D01*
X798106Y1084756D01*
Y1084722D01*
X798071Y1084479D01*
X797967Y1084305D01*
X797793Y1083992D01*
X797585Y1083819D01*
X797550Y1083749D01*
X797515D01*
X797203Y1083541D01*
X796786Y1083263D01*
X796300Y1082951D01*
X795849Y1082638D01*
X795432Y1082361D01*
X795085Y1082117D01*
X794946Y1082048D01*
X794842Y1081979D01*
X794772Y1081909D01*
X794738D01*
X794772Y1081840D01*
Y1081805D01*
X794738Y1081701D01*
X794668Y1081666D01*
X794633Y1081631D01*
X792897Y1080590D01*
X792515Y1080381D01*
X792203Y1080208D01*
X791925Y1080069D01*
X791682Y1079965D01*
X791508Y1079861D01*
X791404Y1079826D01*
X791335Y1079791D01*
X791300D01*
X790953Y1079652D01*
X790640Y1079479D01*
X790501Y1079409D01*
X790432Y1079340D01*
X790363Y1079305D01*
X790328D01*
X790154Y1079201D01*
X789981Y1079097D01*
X789772Y1078992D01*
X789668Y1078923D01*
X789633D01*
X789286Y1079027D01*
X788939Y1079166D01*
X788765Y1079201D01*
X788626Y1079270D01*
X788557Y1079305D01*
X788522D01*
X788245Y1079444D01*
X787967Y1079617D01*
X787689Y1079826D01*
X787481Y1080034D01*
X787272Y1080242D01*
X787133Y1080381D01*
X787029Y1080520D01*
X786995Y1080555D01*
X787029D01*
X786995Y1080624D01*
X786960Y1080694D01*
Y1080833D01*
X786995Y1081041D01*
X787029Y1081319D01*
X787064Y1081527D01*
X787099Y1081562D01*
Y1081597D01*
X787168Y1081736D01*
Y1081805D01*
X787272Y1082499D01*
X787446Y1083194D01*
X787654Y1083854D01*
X787863Y1084479D01*
X788071Y1084999D01*
X788175Y1085208D01*
X788245Y1085416D01*
X788314Y1085555D01*
X788383Y1085659D01*
X788418Y1085729D01*
Y1085763D01*
X788904Y1086770D01*
X789425Y1087708D01*
X789911Y1088576D01*
X790363Y1089340D01*
X790571Y1089652D01*
X790744Y1089965D01*
X790918Y1090242D01*
X791057Y1090451D01*
X791161Y1090624D01*
X791265Y1090763D01*
X791300Y1090833D01*
X791335Y1090867D01*
X791613Y1091284D01*
X791786Y1091631D01*
X791856Y1091770D01*
X791925Y1091874D01*
X791960Y1091909D01*
Y1091944D01*
X792168Y1092326D01*
X792376Y1092673D01*
X792481Y1092777D01*
X792550Y1092881D01*
X792585Y1092951D01*
X792619Y1092985D01*
X792758Y1093124D01*
X792932Y1093333D01*
X793106Y1093576D01*
X793349Y1093853D01*
X793869Y1094478D01*
X794425Y1095103D01*
X794946Y1095694D01*
X795189Y1095971D01*
X795397Y1096215D01*
X795571Y1096423D01*
X795710Y1096562D01*
X795779Y1096666D01*
X795814Y1096701D01*
X796265Y1097221D01*
X796682Y1097708D01*
X797029Y1098124D01*
X797342Y1098471D01*
X797619Y1098784D01*
X797862Y1099027D01*
X798036Y1099235D01*
X798210Y1099409D01*
X798314Y1099548D01*
X798418Y1099652D01*
X798557Y1099791D01*
X798626Y1099860D01*
X798661Y1099895D01*
X798696Y1099999D01*
X798869Y1100277D01*
X799008Y1100520D01*
X799043Y1100589D01*
X799078Y1100624D01*
X799494Y1101041D01*
X799842Y1101388D01*
X800154Y1101631D01*
X800397Y1101839D01*
X800605Y1101978D01*
X800744Y1102083D01*
X800814Y1102152D01*
X800849D01*
X800953Y1102430D01*
X801161Y1102603D01*
X801265Y1102673D01*
X801300Y1102707D01*
X801439Y1102777D01*
X801508Y1102812D01*
X801578Y1102846D01*
X802133Y1103367D01*
X802758Y1103853D01*
X803036Y1104062D01*
X803314Y1104235D01*
X803522Y1104374D01*
X803730Y1104478D01*
X803835Y1104548D01*
X803869Y1104582D01*
X803904Y1104617D01*
X803974Y1104687D01*
X804043Y1104721D01*
X804078Y1104756D01*
X804321Y1104895D01*
X804390Y1104930D01*
X804425Y1104964D01*
X804529Y1104999D01*
X804598Y1105034D01*
X804668D01*
X804703Y1105103D01*
X804737Y1105138D01*
X804842Y1105277D01*
X804946Y1105346D01*
X805015Y1105416D01*
X805050D01*
X809737Y1108228D01*
X810085Y1108332D01*
X810362Y1108367D01*
X810571Y1108437D01*
X810605D01*
X810640D01*
X810744Y1108471D01*
X810883Y1108506D01*
X811161Y1108610D01*
X811300Y1108645D01*
X811404Y1108714D01*
X811473Y1108749D01*
X811508D01*
X811647Y1108784D01*
X811821Y1108853D01*
X812064Y1108888D01*
X812342Y1108957D01*
X813001Y1109027D01*
X813696Y1109131D01*
X814390Y1109200D01*
X814703Y1109235D01*
X814980Y1109270D01*
X815189Y1109305D01*
X815397Y1109339D01*
X815501D01*
X815536D01*
X815814Y1109096D01*
D02*
G37*
G36*
X798983Y1066446D02*
X799066Y1066436D01*
X799149Y1066404D01*
X799212Y1066373D01*
X799275Y1066352D01*
X799316Y1066321D01*
X799347Y1066311D01*
X799358Y1066300D01*
X799431Y1066238D01*
X799514Y1066175D01*
X799701Y1066081D01*
X799785Y1066040D01*
X799847Y1066009D01*
X799889Y1065998D01*
X799910Y1065988D01*
X800055Y1065936D01*
X800212Y1065884D01*
X800358Y1065832D01*
X800503Y1065790D01*
X800628Y1065748D01*
X800722Y1065717D01*
X800764Y1065707D01*
X800795D01*
X800805Y1065696D01*
X800816D01*
X801003Y1065644D01*
X801159Y1065592D01*
X801295Y1065550D01*
X801399Y1065519D01*
X801482Y1065488D01*
X801545Y1065467D01*
X801586Y1065446D01*
X801597D01*
X801815Y1065373D01*
X802065Y1065290D01*
X802305Y1065228D01*
X802534Y1065155D01*
X802742Y1065103D01*
X802826Y1065082D01*
X802909Y1065061D01*
X802971Y1065051D01*
X803013Y1065040D01*
X803044Y1065030D01*
X803055D01*
X803211Y1064988D01*
X803367Y1064946D01*
X803503Y1064915D01*
X803627Y1064874D01*
X803742Y1064842D01*
X803846Y1064801D01*
X803930Y1064769D01*
X804013Y1064738D01*
X804148Y1064686D01*
X804242Y1064644D01*
X804294Y1064613D01*
X804315Y1064603D01*
X804419Y1064540D01*
X804513Y1064488D01*
X804596Y1064446D01*
X804669Y1064415D01*
X804721Y1064394D01*
X804773Y1064374D01*
X804794Y1064363D01*
X804804D01*
X804888Y1064342D01*
X804971Y1064311D01*
X805158Y1064259D01*
X805231Y1064238D01*
X805294Y1064217D01*
X805335Y1064207D01*
X805356D01*
X805606Y1064134D01*
X805721Y1064092D01*
X805825Y1064061D01*
X805908Y1064030D01*
X805981Y1063999D01*
X806023Y1063988D01*
X806033Y1063978D01*
X806189Y1063915D01*
X806314Y1063853D01*
X806419Y1063790D01*
X806502Y1063738D01*
X806564Y1063697D01*
X806596Y1063665D01*
X806616Y1063645D01*
X806627Y1063634D01*
X806668Y1063561D01*
X806700Y1063468D01*
X806731Y1063259D01*
X806741Y1063166D01*
X806752Y1063093D01*
Y1063020D01*
X806741Y1062864D01*
X806731Y1062728D01*
X806710Y1062624D01*
X806689Y1062541D01*
X806668Y1062478D01*
X806648Y1062426D01*
X806627Y1062405D01*
Y1062395D01*
X806616Y1062384D01*
X806668Y1062364D01*
X806700Y1062353D01*
X806710Y1062343D01*
X806741Y1062280D01*
X806762Y1062207D01*
X806773Y1062145D01*
Y1062051D01*
X806762Y1062010D01*
X806752Y1061989D01*
Y1061978D01*
X806679Y1061853D01*
X806585Y1061770D01*
X806523Y1061718D01*
X806502Y1061708D01*
X806491D01*
X806429Y1061676D01*
X806356Y1061656D01*
X806241Y1061645D01*
X806200Y1061635D01*
X806158Y1061645D01*
X806137D01*
X806127D01*
X806075Y1061687D01*
X806033Y1061728D01*
X806002Y1061770D01*
X805992Y1061822D01*
X805981Y1061926D01*
X805992Y1062020D01*
X805999Y1062043D01*
X806116Y1062093D01*
X806283Y1062166D01*
X806429Y1062239D01*
X806491Y1062280D01*
X806554Y1062322D01*
X806596Y1062364D01*
X806616Y1062384D01*
X806543Y1062395D01*
X806460D01*
X806356Y1062374D01*
X806241Y1062332D01*
X806106Y1062260D01*
X806096Y1062239D01*
X806064Y1062187D01*
X806023Y1062114D01*
X805999Y1062043D01*
X805971Y1062030D01*
X805835Y1061978D01*
X805783Y1061957D01*
X805742Y1061947D01*
X805721Y1061937D01*
X805710D01*
X805679Y1061895D01*
X805637Y1061853D01*
X805575Y1061822D01*
X805512Y1061801D01*
X805460Y1061780D01*
X805408Y1061770D01*
X805367Y1061760D01*
X805356D01*
X805242Y1061739D01*
X805148Y1061718D01*
X805065Y1061708D01*
X804992D01*
X804940Y1061697D01*
X804898D01*
X804877D01*
X804867D01*
X804783D01*
X804679Y1061708D01*
X804461Y1061718D01*
X804357Y1061728D01*
X804273Y1061739D01*
X804221Y1061749D01*
X804200D01*
X804034Y1061770D01*
X803877Y1061780D01*
X803742Y1061791D01*
X803627Y1061801D01*
X803544Y1061812D01*
X803471Y1061822D01*
X803430D01*
X803419D01*
X803315D01*
X803232Y1061843D01*
X803148Y1061853D01*
X803076Y1061874D01*
X803013Y1061895D01*
X802971Y1061916D01*
X802940Y1061926D01*
X802930Y1061937D01*
X802836Y1061968D01*
X802732Y1061999D01*
X802638Y1062020D01*
X802534Y1062030D01*
X802451D01*
X802378Y1062041D01*
X802336D01*
X802315D01*
X802107Y1062051D01*
X801909Y1062072D01*
X801722Y1062114D01*
X801555Y1062145D01*
X801420Y1062187D01*
X801316Y1062228D01*
X801274Y1062239D01*
X801243Y1062249D01*
X801232Y1062260D01*
X801222D01*
X800993Y1062343D01*
X800785Y1062416D01*
X800576Y1062468D01*
X800399Y1062510D01*
X800253Y1062541D01*
X800139Y1062562D01*
X800097D01*
X800055Y1062572D01*
X800045D01*
X800035D01*
X799826D01*
X799660Y1062562D01*
X799524Y1062541D01*
X799420Y1062499D01*
X799337Y1062468D01*
X799285Y1062437D01*
X799254Y1062416D01*
X799243Y1062405D01*
X799170Y1062343D01*
X799087Y1062301D01*
X799004Y1062280D01*
X798920D01*
X798848Y1062291D01*
X798785Y1062301D01*
X798743Y1062312D01*
X798733Y1062322D01*
X798618Y1062395D01*
X798525Y1062478D01*
X798452Y1062572D01*
X798400Y1062655D01*
X798358Y1062739D01*
X798337Y1062801D01*
X798327Y1062843D01*
Y1062864D01*
X798316Y1062936D01*
X798306Y1063030D01*
X798296Y1063134D01*
X798285Y1063259D01*
X798275Y1063509D01*
Y1063759D01*
X798264Y1063999D01*
Y1064686D01*
X798275Y1064957D01*
Y1065186D01*
X798285Y1065373D01*
X798296Y1065519D01*
Y1065623D01*
X798306Y1065655D01*
Y1065707D01*
X798327Y1065811D01*
X798348Y1065915D01*
X798400Y1066081D01*
X798462Y1066207D01*
X798535Y1066311D01*
X798618Y1066384D01*
X798712Y1066425D01*
X798806Y1066446D01*
X798889Y1066456D01*
X798983Y1066446D01*
D02*
G37*
G36*
X802971Y1061739D02*
X803076Y1061697D01*
X803148Y1061635D01*
X803201Y1061572D01*
X803232Y1061510D01*
X803242Y1061447D01*
X803253Y1061406D01*
Y1061395D01*
X803232Y1061281D01*
X803190Y1061197D01*
X803117Y1061135D01*
X803034Y1061093D01*
X802961Y1061072D01*
X802888Y1061051D01*
X802847D01*
X802826D01*
X802680Y1061062D01*
X802576Y1061104D01*
X802503Y1061166D01*
X802451Y1061229D01*
X802420Y1061291D01*
X802409Y1061354D01*
X802399Y1061395D01*
Y1061406D01*
X802420Y1061520D01*
X802461Y1061603D01*
X802534Y1061666D01*
X802607Y1061708D01*
X802690Y1061728D01*
X802763Y1061739D01*
X802805Y1061749D01*
X802826D01*
X802971Y1061739D01*
D02*
G37*
G36*
X799045Y1061656D02*
X799118Y1061603D01*
X799202Y1061541D01*
X799264Y1061479D01*
X799337Y1061406D01*
X799379Y1061354D01*
X799420Y1061312D01*
X799431Y1061301D01*
X799483Y1061249D01*
X799535Y1061197D01*
X799629Y1061135D01*
X799670Y1061114D01*
X799691Y1061104D01*
X799712Y1061093D01*
X799722D01*
X799795Y1061072D01*
X799910Y1061062D01*
X800024Y1061051D01*
X800160D01*
X800274Y1061041D01*
X800378D01*
X800420D01*
X800441D01*
X800462D01*
X800472D01*
X800628D01*
X800764D01*
X800878Y1061051D01*
X800982D01*
X801076Y1061062D01*
X801149Y1061072D01*
X801222Y1061083D01*
X801274D01*
X801357Y1061104D01*
X801409Y1061124D01*
X801430Y1061135D01*
X801441D01*
X801514Y1061187D01*
X801597Y1061218D01*
X801691Y1061239D01*
X801763D01*
X801836D01*
X801888Y1061229D01*
X801930Y1061218D01*
X801941D01*
X802045Y1061177D01*
X802117Y1061114D01*
X802170Y1061051D01*
X802201Y1060989D01*
X802222Y1060927D01*
X802243Y1060874D01*
Y1060833D01*
X802232Y1060781D01*
X802201Y1060729D01*
X802149Y1060677D01*
X802076Y1060624D01*
X802003Y1060583D01*
X801909Y1060531D01*
X801722Y1060447D01*
X801534Y1060385D01*
X801441Y1060354D01*
X801368Y1060322D01*
X801295Y1060312D01*
X801243Y1060291D01*
X801211Y1060281D01*
X801201D01*
X801066Y1060239D01*
X800941Y1060187D01*
X800826Y1060145D01*
X800722Y1060114D01*
X800545Y1060041D01*
X800399Y1059979D01*
X800295Y1059927D01*
X800222Y1059896D01*
X800181Y1059875D01*
X800170Y1059864D01*
X799972Y1059729D01*
X799878Y1059656D01*
X799795Y1059583D01*
X799733Y1059521D01*
X799681Y1059469D01*
X799649Y1059437D01*
X799639Y1059427D01*
X799504Y1059292D01*
X799379Y1059177D01*
X799264Y1059083D01*
X799160Y1059010D01*
X799066Y1058948D01*
X798983Y1058896D01*
X798900Y1058865D01*
X798837Y1058844D01*
X798723Y1058823D01*
X798650D01*
X798598Y1058833D01*
X798587Y1058844D01*
X798535Y1058885D01*
X798483Y1058958D01*
X798441Y1059031D01*
X798400Y1059125D01*
X798348Y1059344D01*
X798306Y1059573D01*
X798285Y1059791D01*
X798275Y1059885D01*
X798264Y1059979D01*
Y1060364D01*
X798275Y1060552D01*
X798296Y1060718D01*
X798316Y1060864D01*
X798337Y1061000D01*
X798369Y1061114D01*
X798400Y1061218D01*
X798420Y1061301D01*
X798452Y1061374D01*
X798483Y1061437D01*
X798514Y1061489D01*
X798535Y1061520D01*
X798577Y1061572D01*
X798587Y1061583D01*
X798671Y1061624D01*
X798743Y1061656D01*
X798806Y1061676D01*
X798868Y1061687D01*
X798910D01*
X798952D01*
X798972D01*
X798983D01*
X799045Y1061656D01*
D02*
G37*
G36*
X805762Y1058594D02*
X805898Y1058552D01*
X806002Y1058490D01*
X806066Y1058435D01*
X806075Y1058490D01*
X806106Y1058531D01*
X806127Y1058563D01*
X806148Y1058573D01*
X806158Y1058583D01*
X806210Y1058594D01*
X806262D01*
X806366Y1058583D01*
X806470Y1058542D01*
X806575Y1058490D01*
X806658Y1058427D01*
X806721Y1058375D01*
X806762Y1058334D01*
X806783Y1058323D01*
X806835Y1058219D01*
X806866Y1058136D01*
X806877Y1058052D01*
Y1057990D01*
X806866Y1057938D01*
X806856Y1057906D01*
X806845Y1057886D01*
Y1057875D01*
X806793Y1057823D01*
X806731Y1057782D01*
X806668Y1057761D01*
X806664Y1057760D01*
X806679Y1057729D01*
X806689Y1057688D01*
X806700Y1057667D01*
X806731Y1057573D01*
X806752Y1057469D01*
X806762Y1057428D01*
X806773Y1057396D01*
X806783Y1057375D01*
Y1057365D01*
X806804Y1057230D01*
X806814Y1057105D01*
X806825Y1057053D01*
Y1056980D01*
X806814Y1056876D01*
X806804Y1056771D01*
X806783Y1056688D01*
X806762Y1056626D01*
X806741Y1056563D01*
X806731Y1056521D01*
X806710Y1056501D01*
Y1056490D01*
X806658Y1056417D01*
X806596Y1056355D01*
X806450Y1056240D01*
X806387Y1056199D01*
X806346Y1056167D01*
X806304Y1056157D01*
X806293Y1056146D01*
X806116Y1056063D01*
X805960Y1056011D01*
X805815Y1055969D01*
X805700Y1055949D01*
X805606Y1055938D01*
X805533Y1055928D01*
X805492D01*
X805481D01*
X805367Y1055949D01*
X805252Y1055990D01*
X805148Y1056042D01*
X805065Y1056105D01*
X804981Y1056157D01*
X804929Y1056209D01*
X804888Y1056251D01*
X804877Y1056261D01*
X804742Y1056417D01*
X804638Y1056584D01*
X804565Y1056750D01*
X804502Y1056896D01*
X804471Y1057032D01*
X804440Y1057136D01*
Y1057178D01*
X804429Y1057209D01*
Y1057428D01*
X804450Y1057615D01*
X804482Y1057782D01*
X804533Y1057927D01*
X804586Y1058042D01*
X804638Y1058136D01*
X804669Y1058188D01*
X804679Y1058208D01*
X804773Y1058313D01*
X804888Y1058406D01*
X805013Y1058469D01*
X805138Y1058521D01*
X805252Y1058563D01*
X805346Y1058583D01*
X805408Y1058604D01*
X805419D01*
X805429D01*
X805606Y1058615D01*
X805762Y1058594D01*
D02*
G37*
G36*
X806825Y1055813D02*
X806835D01*
X806877Y1055772D01*
X806908Y1055688D01*
X806939Y1055584D01*
X806970Y1055449D01*
X806991Y1055293D01*
X807002Y1055126D01*
X807022Y1054762D01*
X807033Y1054584D01*
Y1053814D01*
X807022Y1053616D01*
X807012Y1053439D01*
Y1053272D01*
X807002Y1053116D01*
X806991Y1052981D01*
X806981Y1052856D01*
X806970Y1052741D01*
X806960Y1052647D01*
Y1052564D01*
X806950Y1052491D01*
X806939Y1052429D01*
Y1052345D01*
X806929Y1052325D01*
Y1052304D01*
X806898Y1052158D01*
X806845Y1052054D01*
X806793Y1051971D01*
X806741Y1051918D01*
X806689Y1051877D01*
X806637Y1051856D01*
X806606Y1051845D01*
X806596D01*
X806523Y1051835D01*
X806450D01*
X806387Y1051856D01*
X806346Y1051877D01*
X806304Y1051898D01*
X806273Y1051929D01*
X806262Y1051939D01*
X806252Y1051950D01*
X806210Y1052012D01*
X806169Y1052075D01*
X806137Y1052200D01*
X806127Y1052262D01*
X806116Y1052304D01*
Y1052460D01*
X806096D01*
X806054Y1052450D01*
X805992Y1052439D01*
X805929Y1052429D01*
X805856D01*
X805794Y1052418D01*
X805752Y1052408D01*
X805742D01*
X805585Y1052398D01*
X805440D01*
X805325Y1052408D01*
X805221Y1052418D01*
X805127Y1052439D01*
X805054Y1052460D01*
X804992Y1052491D01*
X804950Y1052523D01*
X804908Y1052554D01*
X804888Y1052585D01*
X804846Y1052637D01*
X804836Y1052679D01*
Y1052700D01*
X804842Y1052778D01*
X804763Y1052752D01*
X804648Y1052731D01*
X804513Y1052710D01*
X804367Y1052689D01*
X804211Y1052668D01*
X804044Y1052658D01*
X803867Y1052637D01*
X803492Y1052606D01*
X803096Y1052574D01*
X802690Y1052554D01*
X802274Y1052533D01*
X801878Y1052523D01*
X801493Y1052502D01*
X801139Y1052491D01*
X800972D01*
X800826Y1052481D01*
X800691D01*
X800566D01*
X800451Y1052470D01*
X800368D01*
X800285D01*
X800233D01*
X800201D01*
X800191D01*
X798358Y1052439D01*
X798327Y1053064D01*
Y1053699D01*
X798337Y1053928D01*
X798348Y1054137D01*
X798358Y1054230D01*
Y1054366D01*
X798369Y1054418D01*
Y1054460D01*
X798379Y1054574D01*
X798389Y1054678D01*
Y1054772D01*
X798400Y1054855D01*
X798420Y1054991D01*
X798431Y1055084D01*
X798452Y1055147D01*
X798462Y1055188D01*
X798473Y1055209D01*
Y1055220D01*
X798535Y1055355D01*
X798598Y1055470D01*
X798681Y1055543D01*
X798754Y1055605D01*
X798848Y1055636D01*
X798931Y1055647D01*
X799014D01*
X799097Y1055626D01*
X799264Y1055574D01*
X799326Y1055543D01*
X799389Y1055501D01*
X799441Y1055470D01*
X799483Y1055438D01*
X799504Y1055428D01*
X799514Y1055417D01*
X799826Y1055074D01*
X805929D01*
X806179Y1055417D01*
X806252Y1055501D01*
X806325Y1055584D01*
X806398Y1055647D01*
X806460Y1055699D01*
X806564Y1055772D01*
X806658Y1055803D01*
X806741Y1055824D01*
X806793D01*
X806825Y1055813D01*
D02*
G37*
%LPC*%
G36*
X790590Y1040312D02*
X790451D01*
X790368Y1040299D01*
X790285Y1040271D01*
X790271D01*
X790243Y1040243D01*
X790192Y1040209D01*
X790271Y1040202D01*
X790285D01*
X790340D01*
X790424Y1040229D01*
X790507Y1040257D01*
X790590Y1040312D01*
D02*
G37*
G36*
X790437Y1003700D02*
X790424D01*
X790382D01*
X790340Y1003686D01*
X790271Y1003672D01*
X790202Y1003631D01*
X790146Y1003589D01*
X790117Y1003553D01*
X790160Y1003534D01*
X790313Y1003492D01*
X790465Y1003478D01*
X790604D01*
X790743Y1003520D01*
X790757Y1003534D01*
X790788Y1003555D01*
X790646Y1003658D01*
X790548Y1003686D01*
X790437Y1003700D01*
D02*
G37*
G36*
X790299Y992675D02*
X790285D01*
X790257Y992633D01*
X790299D01*
X790313Y992647D01*
X790299D01*
Y992675D01*
D02*
G37*
G36*
X790854Y985033D02*
X790840D01*
X790784Y985019D01*
X790701Y984992D01*
X790618Y984936D01*
X790562Y984881D01*
X790673Y984908D01*
X790798Y984936D01*
X790826Y984950D01*
X790881Y984978D01*
X790934Y985020D01*
X790854Y985033D01*
D02*
G37*
G36*
X782189Y1106218D02*
X781856D01*
X781814D01*
X781772D01*
X781606D01*
X781564D01*
X781522Y1106177D01*
X781272Y1106135D01*
X781231D01*
X781147Y1106094D01*
X781064D01*
X781189Y1106052D01*
X781356Y1106010D01*
X781397Y1105969D01*
X781439Y1105885D01*
Y1105677D01*
X781647Y1105844D01*
X781731Y1105885D01*
X781856Y1105969D01*
X781981Y1106094D01*
X782189Y1106218D01*
D02*
G37*
G36*
X772025Y1086515D02*
X771858D01*
X771733Y1086432D01*
X771567Y1086265D01*
X771483Y1086057D01*
Y1085974D01*
X772061Y1086038D01*
X772025Y1086515D01*
D02*
G37*
G36*
X770817Y1083953D02*
Y1083849D01*
X770775Y1083683D01*
X770733Y1083349D01*
X770692Y1083266D01*
Y1083224D01*
X771108D01*
Y1083558D01*
X771150Y1083808D01*
Y1083891D01*
X770983D01*
X770858Y1083933D01*
X770817Y1083953D01*
D02*
G37*
%LPD*%
D22*
X798680Y1258250D02*
D03*
Y269163D02*
D03*
D23*
X773680Y1258250D02*
D03*
Y269163D02*
D03*
D24*
X757680Y1278250D02*
D03*
Y289163D02*
D03*
D25*
X705350Y1209590D02*
D03*
X868070D02*
D03*
Y323380D02*
D03*
X705350D02*
D03*
M02*
