G04*
G04 #@! TF.GenerationSoftware,Altium Limited,Altium Designer,20.1.14 (287)*
G04*
G04 Layer_Color=65535*
%FSLAX44Y44*%
%MOMM*%
G71*
G04*
G04 #@! TF.SameCoordinates,F9CCF83C-BBFD-4EAF-9253-F7A08A0B78FC*
G04*
G04*
G04 #@! TF.FilePolarity,Positive*
G04*
G01*
G75*
%ADD10C,0.1700*%
%ADD11C,0.1800*%
%ADD12C,0.3000*%
%ADD13C,0.2540*%
G36*
X862559Y758831D02*
X864500Y758200D01*
X865495Y756428D01*
X865591Y755145D01*
X865149Y752847D01*
X862378Y751276D01*
X855673Y751112D01*
Y753148D01*
X859281D01*
X861637Y753158D01*
X863382Y753639D01*
X863905Y755095D01*
X863023Y756753D01*
X861565Y756950D01*
X857569Y757021D01*
X855742Y757531D01*
X855681Y758496D01*
X859648Y758914D01*
X862559Y758831D01*
D02*
G37*
G36*
X865473Y765183D02*
Y764144D01*
X861366Y762415D01*
X855673Y761218D01*
X856123Y762448D01*
X862473Y764759D01*
X855673Y767673D01*
X855706Y768860D01*
X865473Y765183D01*
D02*
G37*
G36*
X857353Y760725D02*
X861366Y762415D01*
X863108Y762781D01*
X857353Y760725D01*
D02*
G37*
G36*
X707650Y919085D02*
X707876Y919068D01*
X708015Y919050D01*
X708154Y919033D01*
X708327Y918998D01*
X708518Y918963D01*
X708726Y918929D01*
X708951Y918894D01*
X709194Y918842D01*
X709455Y918790D01*
X716533Y917263D01*
Y914158D01*
X709455Y915650D01*
X709437D01*
X709402Y915667D01*
X709333Y915685D01*
X709246Y915702D01*
X709021Y915737D01*
X708778Y915789D01*
X708518Y915841D01*
X708275Y915893D01*
X708171Y915910D01*
X708084Y915928D01*
X708015Y915945D01*
X707963D01*
X707945D01*
X707876D01*
X707789Y915928D01*
X707685Y915910D01*
X707564Y915875D01*
X707442Y915823D01*
X707303Y915754D01*
X707199Y915650D01*
X707182Y915633D01*
X707147Y915598D01*
X707113Y915528D01*
X707043Y915424D01*
X706991Y915303D01*
X706956Y915164D01*
X706922Y914991D01*
X706904Y914782D01*
Y914661D01*
X706922Y914574D01*
X706939Y914470D01*
X706974Y914349D01*
X707060Y914071D01*
X707130Y913915D01*
X707217Y913742D01*
X707303Y913568D01*
X707425Y913377D01*
X707581Y913204D01*
X707737Y913013D01*
X707928Y912840D01*
X708154Y912666D01*
X708171D01*
X708188Y912631D01*
X708258Y912597D01*
X708327Y912562D01*
X708431Y912493D01*
X708552Y912423D01*
X708709Y912354D01*
X708882Y912267D01*
X709073Y912180D01*
X709298Y912094D01*
X709559Y911989D01*
X709836Y911903D01*
X710148Y911799D01*
X710496Y911712D01*
X710877Y911608D01*
X711276Y911521D01*
X716533Y910411D01*
Y907305D01*
X709541Y908763D01*
X709524D01*
X709489Y908780D01*
X709420D01*
X709351Y908797D01*
X709142Y908832D01*
X708882Y908884D01*
X708622Y908936D01*
X708362Y908971D01*
X708136Y908988D01*
X708032Y909006D01*
X707963D01*
X707945D01*
X707876D01*
X707806Y908988D01*
X707685Y908971D01*
X707564Y908936D01*
X707442Y908867D01*
X707321Y908797D01*
X707199Y908693D01*
X707182Y908676D01*
X707147Y908641D01*
X707113Y908572D01*
X707043Y908468D01*
X706991Y908346D01*
X706956Y908207D01*
X706922Y908034D01*
X706904Y907843D01*
Y907757D01*
X706922Y907652D01*
X706939Y907514D01*
X706974Y907357D01*
X707043Y907167D01*
X707113Y906976D01*
X707217Y906768D01*
X707234Y906750D01*
X707269Y906681D01*
X707338Y906577D01*
X707442Y906455D01*
X707564Y906299D01*
X707702Y906143D01*
X707876Y905970D01*
X708067Y905814D01*
X708084Y905796D01*
X708154Y905744D01*
X708275Y905675D01*
X708431Y905571D01*
X708622Y905449D01*
X708865Y905345D01*
X709142Y905224D01*
X709437Y905102D01*
X709455D01*
X709524Y905085D01*
X709628Y905050D01*
X709802Y904998D01*
X709906Y904981D01*
X710044Y904946D01*
X710183Y904911D01*
X710339Y904877D01*
X710530Y904842D01*
X710738Y904790D01*
X710964Y904738D01*
X711207Y904686D01*
X716533Y903558D01*
Y900453D01*
X704927Y902864D01*
Y905814D01*
X706349Y905519D01*
X706332Y905536D01*
X706280Y905605D01*
X706193Y905692D01*
X706089Y905814D01*
X705950Y905987D01*
X705811Y906160D01*
X705673Y906386D01*
X705499Y906629D01*
X705343Y906889D01*
X705204Y907167D01*
X705048Y907479D01*
X704927Y907791D01*
X704823Y908121D01*
X704736Y908450D01*
X704684Y908815D01*
X704667Y909162D01*
Y909370D01*
X704684Y909491D01*
X704701Y909613D01*
X704736Y909908D01*
X704805Y910220D01*
X704892Y910567D01*
X705031Y910879D01*
X705222Y911174D01*
X705239Y911209D01*
X705326Y911295D01*
X705447Y911417D01*
X705603Y911556D01*
X705829Y911712D01*
X706089Y911868D01*
X706384Y911989D01*
X706731Y912094D01*
X706714D01*
X706696Y912128D01*
X706575Y912215D01*
X706419Y912354D01*
X706210Y912545D01*
X705985Y912787D01*
X705742Y913082D01*
X705482Y913429D01*
X705256Y913828D01*
Y913846D01*
X705239Y913880D01*
X705204Y913932D01*
X705170Y914019D01*
X705117Y914123D01*
X705066Y914245D01*
X704961Y914540D01*
X704857Y914904D01*
X704753Y915286D01*
X704684Y915719D01*
X704667Y916170D01*
Y916309D01*
X704684Y916396D01*
Y916517D01*
X704701Y916656D01*
X704753Y916968D01*
X704840Y917298D01*
X704979Y917662D01*
X705170Y918009D01*
X705274Y918165D01*
X705413Y918322D01*
Y918339D01*
X705447Y918356D01*
X705551Y918443D01*
X705707Y918564D01*
X705933Y918720D01*
X706228Y918859D01*
X706557Y918981D01*
X706956Y919068D01*
X707165Y919102D01*
X707390D01*
X707425D01*
X707512D01*
X707650Y919085D01*
D02*
G37*
G36*
X707859Y899239D02*
X707963D01*
X708067Y899221D01*
X708188Y899204D01*
X708344Y899186D01*
X708518Y899152D01*
X708691Y899117D01*
X708917Y899082D01*
X709142Y899048D01*
X709402Y898996D01*
X709680Y898944D01*
X709992Y898874D01*
X716533Y897452D01*
Y894346D01*
X709975Y895769D01*
X709958D01*
X709906Y895786D01*
X709836Y895804D01*
X709732Y895821D01*
X709628Y895838D01*
X709489Y895873D01*
X709194Y895925D01*
X708899Y895977D01*
X708605Y896029D01*
X708483Y896046D01*
X708362Y896064D01*
X708275Y896081D01*
X708205D01*
X708171D01*
X708101D01*
X707997Y896064D01*
X707859Y896029D01*
X707702Y895994D01*
X707546Y895925D01*
X707390Y895838D01*
X707251Y895717D01*
X707234Y895699D01*
X707199Y895647D01*
X707147Y895578D01*
X707078Y895457D01*
X707009Y895318D01*
X706956Y895162D01*
X706922Y894954D01*
X706904Y894728D01*
Y894606D01*
X706939Y894450D01*
X706974Y894260D01*
X707043Y894034D01*
X707147Y893774D01*
X707303Y893479D01*
X707494Y893167D01*
Y893149D01*
X707512Y893132D01*
X707598Y893028D01*
X707720Y892872D01*
X707893Y892681D01*
X708119Y892473D01*
X708379Y892247D01*
X708674Y892022D01*
X709021Y891831D01*
X709056Y891814D01*
X709090Y891796D01*
X709160Y891761D01*
X709246Y891727D01*
X709351Y891692D01*
X709472Y891640D01*
X709611Y891588D01*
X709784Y891536D01*
X709992Y891467D01*
X710218Y891397D01*
X710461Y891328D01*
X710756Y891258D01*
X711068Y891189D01*
X711398Y891102D01*
X711779Y891015D01*
X716533Y890027D01*
Y886921D01*
X704927Y889333D01*
Y892317D01*
X706453Y892022D01*
X706436Y892039D01*
X706419Y892074D01*
X706367Y892126D01*
X706297Y892213D01*
X706210Y892317D01*
X706124Y892421D01*
X705916Y892698D01*
X705707Y893010D01*
X705464Y893375D01*
X705256Y893739D01*
X705083Y894103D01*
Y894121D01*
X705066Y894156D01*
X705048Y894208D01*
X705013Y894277D01*
X704979Y894364D01*
X704944Y894468D01*
X704875Y894728D01*
X704805Y895023D01*
X704736Y895370D01*
X704684Y895751D01*
X704667Y896151D01*
Y896289D01*
X704684Y896393D01*
Y896515D01*
X704701Y896654D01*
X704771Y896983D01*
X704875Y897330D01*
X705013Y897712D01*
X705222Y898093D01*
X705360Y898267D01*
X705499Y898423D01*
X705517Y898440D01*
X705534Y898458D01*
X705586Y898493D01*
X705655Y898562D01*
X705725Y898614D01*
X705829Y898683D01*
X706072Y898839D01*
X706384Y898996D01*
X706766Y899134D01*
X707182Y899221D01*
X707425Y899239D01*
X707668Y899256D01*
X707702D01*
X707789D01*
X707859Y899239D01*
D02*
G37*
G36*
X706401Y886314D02*
X706627Y886297D01*
X706887Y886279D01*
X707199Y886262D01*
X707546Y886210D01*
X707911Y886175D01*
X708327Y886106D01*
X708743Y886037D01*
X709194Y885950D01*
X709680Y885846D01*
X710166Y885724D01*
X710669Y885568D01*
X711172Y885412D01*
X711207Y885395D01*
X711293Y885377D01*
X711432Y885325D01*
X711623Y885238D01*
X711849Y885152D01*
X712109Y885048D01*
X712404Y884909D01*
X712716Y884753D01*
X713063Y884597D01*
X713393Y884406D01*
X713757Y884198D01*
X714104Y883972D01*
X714434Y883747D01*
X714763Y883486D01*
X715075Y883209D01*
X715370Y882931D01*
X715388Y882914D01*
X715440Y882862D01*
X715509Y882775D01*
X715596Y882654D01*
X715700Y882515D01*
X715839Y882341D01*
X715960Y882133D01*
X716099Y881925D01*
X716238Y881665D01*
X716359Y881405D01*
X716481Y881110D01*
X716602Y880815D01*
X716689Y880485D01*
X716758Y880155D01*
X716810Y879809D01*
X716828Y879444D01*
Y879358D01*
X716810Y879253D01*
Y879115D01*
X716776Y878959D01*
X716758Y878750D01*
X716706Y878542D01*
X716654Y878299D01*
X716585Y878056D01*
X716481Y877796D01*
X716376Y877536D01*
X716238Y877258D01*
X716082Y876981D01*
X715891Y876721D01*
X715665Y876460D01*
X715422Y876217D01*
X715405Y876200D01*
X715353Y876165D01*
X715266Y876096D01*
X715162Y876027D01*
X715006Y875922D01*
X714833Y875818D01*
X714624Y875714D01*
X714381Y875593D01*
X714121Y875471D01*
X713809Y875367D01*
X713479Y875263D01*
X713115Y875159D01*
X712716Y875090D01*
X712282Y875020D01*
X711831Y874986D01*
X711346Y874968D01*
X711311D01*
X711242D01*
X711103D01*
X710929Y874986D01*
X710704D01*
X710443Y875020D01*
X710148Y875038D01*
X709819Y875072D01*
X709472Y875107D01*
X709090Y875177D01*
X708674Y875229D01*
X708258Y875315D01*
X707355Y875524D01*
X706904Y875645D01*
X706436Y875784D01*
X706419D01*
X706401Y875801D01*
X706297Y875836D01*
X706141Y875888D01*
X705933Y875975D01*
X705690Y876061D01*
X705395Y876183D01*
X705083Y876321D01*
X704736Y876478D01*
X704389Y876668D01*
X704007Y876859D01*
X703261Y877293D01*
X702897Y877536D01*
X702567Y877813D01*
X702238Y878074D01*
X701943Y878369D01*
X701926Y878386D01*
X701873Y878438D01*
X701804Y878525D01*
X701717Y878646D01*
X701596Y878802D01*
X701474Y878976D01*
X701336Y879167D01*
X701197Y879392D01*
X701058Y879652D01*
X700919Y879913D01*
X700798Y880208D01*
X700676Y880520D01*
X700590Y880832D01*
X700520Y881162D01*
X700468Y881509D01*
X700451Y881873D01*
Y881960D01*
X700468Y882064D01*
Y882203D01*
X700486Y882359D01*
X700520Y882550D01*
X700572Y882775D01*
X700624Y883001D01*
X700711Y883243D01*
X700798Y883504D01*
X700919Y883764D01*
X701058Y884042D01*
X701214Y884302D01*
X701405Y884562D01*
X701630Y884822D01*
X701873Y885065D01*
X701891Y885082D01*
X701943Y885117D01*
X702012Y885186D01*
X702134Y885256D01*
X702272Y885360D01*
X702463Y885464D01*
X702671Y885585D01*
X702914Y885707D01*
X703192Y885811D01*
X703487Y885932D01*
X703834Y886037D01*
X704198Y886141D01*
X704597Y886210D01*
X705013Y886279D01*
X705482Y886314D01*
X705968Y886331D01*
X706002D01*
X706072D01*
X706210D01*
X706401Y886314D01*
D02*
G37*
G36*
X702966Y874118D02*
X702984Y874101D01*
X703001Y874066D01*
X703053Y874014D01*
X703122Y873945D01*
X703209Y873841D01*
X703313Y873737D01*
X703435Y873598D01*
X703574Y873459D01*
X703747Y873303D01*
X703921Y873130D01*
X704129Y872939D01*
X704337Y872748D01*
X704580Y872540D01*
X704840Y872331D01*
X705117Y872106D01*
X705413Y871880D01*
X705430Y871863D01*
X705482Y871828D01*
X705569Y871759D01*
X705690Y871672D01*
X705846Y871568D01*
X706037Y871447D01*
X706245Y871308D01*
X706471Y871152D01*
X706731Y870978D01*
X707009Y870805D01*
X707303Y870614D01*
X707616Y870423D01*
X708310Y870024D01*
X709038Y869625D01*
X709056Y869608D01*
X709125Y869573D01*
X709229Y869521D01*
X709385Y869452D01*
X709559Y869365D01*
X709767Y869261D01*
X709992Y869157D01*
X710253Y869035D01*
X710547Y868896D01*
X710842Y868758D01*
X711484Y868480D01*
X712161Y868203D01*
X712838Y867942D01*
X712872Y867925D01*
X712942Y867908D01*
X713080Y867856D01*
X713254Y867804D01*
X713445Y867734D01*
X713688Y867647D01*
X713948Y867561D01*
X714243Y867474D01*
X714833Y867283D01*
X715457Y867092D01*
X715752Y867006D01*
X716030Y866936D01*
X716290Y866884D01*
X716533Y866832D01*
Y863848D01*
X716515D01*
X716481Y863866D01*
X716411D01*
X716307Y863883D01*
X716186Y863918D01*
X716047Y863952D01*
X715873Y863987D01*
X715665Y864039D01*
X715440Y864091D01*
X715197Y864161D01*
X714937Y864230D01*
X714642Y864317D01*
X714312Y864421D01*
X713982Y864525D01*
X713618Y864646D01*
X713236Y864768D01*
X713202Y864785D01*
X713115Y864802D01*
X712976Y864854D01*
X712803Y864924D01*
X712560Y865011D01*
X712300Y865132D01*
X711987Y865253D01*
X711658Y865392D01*
X711293Y865548D01*
X710894Y865704D01*
X710478Y865895D01*
X710062Y866086D01*
X709177Y866520D01*
X708275Y867006D01*
X708240Y867023D01*
X708171Y867075D01*
X708032Y867144D01*
X707859Y867248D01*
X707650Y867370D01*
X707390Y867543D01*
X707113Y867717D01*
X706783Y867925D01*
X706453Y868150D01*
X706089Y868393D01*
X705707Y868671D01*
X705308Y868949D01*
X704892Y869261D01*
X704476Y869573D01*
X703643Y870267D01*
Y863415D01*
X700746Y864004D01*
Y874587D01*
X702966Y874118D01*
D02*
G37*
G36*
X704840Y861177D02*
X704944D01*
X705083Y861159D01*
X705378Y861107D01*
X705725Y861020D01*
X706106Y860882D01*
X706505Y860691D01*
X706696Y860587D01*
X706887Y860448D01*
X706904D01*
X706939Y860413D01*
X706974Y860378D01*
X707043Y860309D01*
X707234Y860153D01*
X707442Y859928D01*
X707685Y859633D01*
X707928Y859303D01*
X708171Y858904D01*
X708362Y858453D01*
Y858470D01*
X708379Y858505D01*
X708414Y858557D01*
X708466Y858626D01*
X708570Y858800D01*
X708743Y859025D01*
X708934Y859268D01*
X709177Y859511D01*
X709455Y859737D01*
X709767Y859945D01*
X709784D01*
X709802Y859962D01*
X709854Y859997D01*
X709906Y860014D01*
X710079Y860101D01*
X710305Y860188D01*
X710565Y860275D01*
X710877Y860361D01*
X711189Y860413D01*
X711536Y860431D01*
X711554D01*
X711623D01*
X711710D01*
X711831Y860413D01*
X711987Y860396D01*
X712178Y860361D01*
X712386Y860327D01*
X712612Y860275D01*
X712855Y860205D01*
X713115Y860118D01*
X713375Y860014D01*
X713653Y859893D01*
X713948Y859754D01*
X714225Y859581D01*
X714520Y859390D01*
X714798Y859164D01*
X714815Y859147D01*
X714885Y859077D01*
X714989Y858991D01*
X715110Y858852D01*
X715266Y858678D01*
X715440Y858470D01*
X715630Y858245D01*
X715804Y857967D01*
X715995Y857672D01*
X716186Y857325D01*
X716359Y856961D01*
X716515Y856579D01*
X716637Y856146D01*
X716741Y855712D01*
X716810Y855244D01*
X716828Y854740D01*
Y854549D01*
X716810Y854411D01*
X716793Y854237D01*
X716758Y854029D01*
X716723Y853804D01*
X716689Y853561D01*
X716550Y853023D01*
X716463Y852745D01*
X716342Y852468D01*
X716220Y852190D01*
X716064Y851913D01*
X715891Y851652D01*
X715683Y851392D01*
X715665Y851375D01*
X715630Y851340D01*
X715561Y851271D01*
X715474Y851184D01*
X715353Y851080D01*
X715197Y850958D01*
X715023Y850837D01*
X714833Y850698D01*
X714607Y850559D01*
X714364Y850421D01*
X714104Y850282D01*
X713809Y850161D01*
X713479Y850039D01*
X713132Y849952D01*
X712768Y849865D01*
X712386Y849796D01*
X712022Y852797D01*
X712039D01*
X712074Y852815D01*
X712144D01*
X712230Y852832D01*
X712334Y852849D01*
X712456Y852884D01*
X712716Y852953D01*
X713011Y853040D01*
X713306Y853144D01*
X713584Y853283D01*
X713688Y853370D01*
X713792Y853457D01*
X713809Y853474D01*
X713861Y853543D01*
X713948Y853647D01*
X714035Y853804D01*
X714121Y853994D01*
X714208Y854203D01*
X714260Y854463D01*
X714277Y854758D01*
Y854862D01*
X714260Y854931D01*
X714243Y855139D01*
X714191Y855382D01*
X714104Y855660D01*
X713982Y855972D01*
X713809Y856267D01*
X713566Y856545D01*
X713531Y856579D01*
X713427Y856649D01*
X713271Y856770D01*
X713063Y856909D01*
X712785Y857030D01*
X712473Y857152D01*
X712109Y857221D01*
X711710Y857256D01*
X711693D01*
X711658D01*
X711623D01*
X711554D01*
X711380Y857221D01*
X711155Y857187D01*
X710912Y857117D01*
X710652Y857013D01*
X710391Y856874D01*
X710166Y856683D01*
X710148Y856666D01*
X710079Y856579D01*
X709975Y856458D01*
X709871Y856284D01*
X709767Y856059D01*
X709663Y855799D01*
X709593Y855486D01*
X709576Y855139D01*
Y855001D01*
X709593Y854845D01*
X709628Y854654D01*
X707009Y855191D01*
Y855295D01*
X707026Y855382D01*
Y855625D01*
X707009Y855712D01*
Y855816D01*
X706991Y855937D01*
X706939Y856215D01*
X706870Y856527D01*
X706748Y856857D01*
X706592Y857152D01*
X706384Y857429D01*
X706349Y857464D01*
X706263Y857533D01*
X706124Y857637D01*
X705933Y857759D01*
X705673Y857880D01*
X705378Y857984D01*
X705031Y858054D01*
X704649Y858089D01*
X704632D01*
X704614D01*
X704528D01*
X704372Y858071D01*
X704198Y858036D01*
X704007Y857984D01*
X703799Y857898D01*
X703591Y857794D01*
X703417Y857637D01*
X703400Y857620D01*
X703348Y857551D01*
X703261Y857464D01*
X703175Y857325D01*
X703105Y857152D01*
X703018Y856961D01*
X702966Y856735D01*
X702949Y856475D01*
Y856354D01*
X702966Y856232D01*
X703018Y856076D01*
X703071Y855885D01*
X703157Y855677D01*
X703279Y855469D01*
X703452Y855261D01*
X703469Y855244D01*
X703556Y855174D01*
X703678Y855070D01*
X703851Y854949D01*
X704094Y854810D01*
X704389Y854671D01*
X704736Y854532D01*
X705152Y854411D01*
X704597Y851548D01*
X704580D01*
X704510Y851566D01*
X704424Y851600D01*
X704302Y851652D01*
X704163Y851704D01*
X703990Y851774D01*
X703799Y851843D01*
X703591Y851947D01*
X703157Y852156D01*
X702706Y852416D01*
X702272Y852711D01*
X702064Y852884D01*
X701873Y853058D01*
X701856Y853075D01*
X701804Y853127D01*
X701735Y853214D01*
X701648Y853318D01*
X701544Y853474D01*
X701422Y853630D01*
X701301Y853838D01*
X701162Y854064D01*
X701023Y854324D01*
X700902Y854584D01*
X700780Y854896D01*
X700676Y855209D01*
X700590Y855556D01*
X700503Y855903D01*
X700468Y856284D01*
X700451Y856683D01*
Y856892D01*
X700468Y857048D01*
X700486Y857238D01*
X700520Y857447D01*
X700555Y857672D01*
X700607Y857932D01*
X700676Y858193D01*
X700746Y858470D01*
X700850Y858748D01*
X700971Y859025D01*
X701110Y859303D01*
X701284Y859563D01*
X701457Y859806D01*
X701683Y860032D01*
X701700Y860049D01*
X701735Y860084D01*
X701804Y860136D01*
X701908Y860222D01*
X702012Y860309D01*
X702168Y860396D01*
X702325Y860500D01*
X702515Y860621D01*
X702723Y860725D01*
X702949Y860830D01*
X703192Y860916D01*
X703452Y861020D01*
X703730Y861090D01*
X704007Y861142D01*
X704320Y861177D01*
X704632Y861194D01*
X704649D01*
X704684D01*
X704753D01*
X704840Y861177D01*
D02*
G37*
G36*
X712282Y848200D02*
Y842111D01*
X709264Y842718D01*
Y848807D01*
X712282Y848200D01*
D02*
G37*
G36*
X706401Y841556D02*
X706627Y841538D01*
X706887Y841521D01*
X707199Y841504D01*
X707546Y841452D01*
X707911Y841417D01*
X708327Y841348D01*
X708743Y841278D01*
X709194Y841191D01*
X709680Y841087D01*
X710166Y840966D01*
X710669Y840810D01*
X711172Y840654D01*
X711207Y840636D01*
X711293Y840619D01*
X711432Y840567D01*
X711623Y840480D01*
X711849Y840393D01*
X712109Y840289D01*
X712404Y840151D01*
X712716Y839994D01*
X713063Y839838D01*
X713393Y839647D01*
X713757Y839439D01*
X714104Y839214D01*
X714434Y838988D01*
X714763Y838728D01*
X715075Y838450D01*
X715370Y838173D01*
X715388Y838156D01*
X715440Y838103D01*
X715509Y838017D01*
X715596Y837895D01*
X715700Y837757D01*
X715839Y837583D01*
X715960Y837375D01*
X716099Y837167D01*
X716238Y836906D01*
X716359Y836646D01*
X716481Y836351D01*
X716602Y836056D01*
X716689Y835727D01*
X716758Y835397D01*
X716810Y835050D01*
X716828Y834686D01*
Y834599D01*
X716810Y834495D01*
Y834356D01*
X716776Y834200D01*
X716758Y833992D01*
X716706Y833784D01*
X716654Y833541D01*
X716585Y833298D01*
X716481Y833038D01*
X716376Y832778D01*
X716238Y832500D01*
X716082Y832222D01*
X715891Y831962D01*
X715665Y831702D01*
X715422Y831459D01*
X715405Y831442D01*
X715353Y831407D01*
X715266Y831338D01*
X715162Y831268D01*
X715006Y831164D01*
X714833Y831060D01*
X714624Y830956D01*
X714381Y830835D01*
X714121Y830713D01*
X713809Y830609D01*
X713479Y830505D01*
X713115Y830401D01*
X712716Y830331D01*
X712282Y830262D01*
X711831Y830227D01*
X711346Y830210D01*
X711311D01*
X711242D01*
X711103D01*
X710929Y830227D01*
X710704D01*
X710443Y830262D01*
X710148Y830279D01*
X709819Y830314D01*
X709472Y830349D01*
X709090Y830418D01*
X708674Y830470D01*
X708258Y830557D01*
X707355Y830765D01*
X706904Y830887D01*
X706436Y831025D01*
X706419D01*
X706401Y831043D01*
X706297Y831077D01*
X706141Y831130D01*
X705933Y831216D01*
X705690Y831303D01*
X705395Y831424D01*
X705083Y831563D01*
X704736Y831719D01*
X704389Y831910D01*
X704007Y832101D01*
X703261Y832535D01*
X702897Y832778D01*
X702567Y833055D01*
X702238Y833315D01*
X701943Y833610D01*
X701926Y833628D01*
X701873Y833680D01*
X701804Y833766D01*
X701717Y833888D01*
X701596Y834044D01*
X701474Y834218D01*
X701336Y834408D01*
X701197Y834634D01*
X701058Y834894D01*
X700919Y835154D01*
X700798Y835449D01*
X700676Y835761D01*
X700590Y836074D01*
X700520Y836403D01*
X700468Y836750D01*
X700451Y837115D01*
Y837201D01*
X700468Y837305D01*
Y837444D01*
X700486Y837600D01*
X700520Y837791D01*
X700572Y838017D01*
X700624Y838242D01*
X700711Y838485D01*
X700798Y838745D01*
X700919Y839006D01*
X701058Y839283D01*
X701214Y839543D01*
X701405Y839804D01*
X701630Y840064D01*
X701873Y840307D01*
X701891Y840324D01*
X701943Y840359D01*
X702012Y840428D01*
X702134Y840498D01*
X702272Y840602D01*
X702463Y840706D01*
X702671Y840827D01*
X702914Y840949D01*
X703192Y841053D01*
X703487Y841174D01*
X703834Y841278D01*
X704198Y841382D01*
X704597Y841452D01*
X705013Y841521D01*
X705482Y841556D01*
X705968Y841573D01*
X706002D01*
X706072D01*
X706210D01*
X706401Y841556D01*
D02*
G37*
G36*
X704667Y826307D02*
X704649D01*
X704632D01*
X704580Y826289D01*
X704510D01*
X704354Y826255D01*
X704146Y826203D01*
X703938Y826151D01*
X703712Y826064D01*
X703521Y825960D01*
X703348Y825838D01*
X703331Y825821D01*
X703279Y825769D01*
X703227Y825682D01*
X703140Y825578D01*
X703071Y825439D01*
X703018Y825266D01*
X702966Y825075D01*
X702949Y824849D01*
Y824815D01*
X702966Y824711D01*
X702984Y824572D01*
X703036Y824381D01*
X703105Y824156D01*
X703227Y823913D01*
X703383Y823670D01*
X703591Y823427D01*
X703608Y823410D01*
X703626Y823392D01*
X703695Y823340D01*
X703764Y823271D01*
X703868Y823201D01*
X703990Y823115D01*
X704129Y823010D01*
X704302Y822906D01*
X704493Y822802D01*
X704701Y822681D01*
X704944Y822560D01*
X705204Y822438D01*
X705499Y822317D01*
X705811Y822195D01*
X706158Y822091D01*
X706523Y821987D01*
Y822004D01*
X706488Y822039D01*
X706453Y822091D01*
X706419Y822160D01*
X706367Y822264D01*
X706315Y822369D01*
X706176Y822646D01*
X706054Y822959D01*
X705950Y823340D01*
X705881Y823739D01*
X705846Y824156D01*
Y824329D01*
X705863Y824468D01*
X705881Y824624D01*
X705916Y824815D01*
X705950Y825006D01*
X706002Y825231D01*
X706072Y825474D01*
X706158Y825717D01*
X706263Y825977D01*
X706384Y826220D01*
X706540Y826480D01*
X706714Y826740D01*
X706904Y826983D01*
X707130Y827209D01*
X707147Y827226D01*
X707182Y827261D01*
X707269Y827313D01*
X707355Y827400D01*
X707494Y827486D01*
X707650Y827590D01*
X707824Y827712D01*
X708032Y827816D01*
X708275Y827937D01*
X708535Y828042D01*
X708813Y828146D01*
X709125Y828232D01*
X709455Y828319D01*
X709802Y828371D01*
X710183Y828406D01*
X710582Y828423D01*
X710600D01*
X710652D01*
X710756D01*
X710877Y828406D01*
X711033D01*
X711207Y828371D01*
X711415Y828354D01*
X711640Y828319D01*
X711883Y828267D01*
X712144Y828215D01*
X712699Y828059D01*
X712994Y827972D01*
X713288Y827851D01*
X713584Y827729D01*
X713878Y827573D01*
X713896Y827556D01*
X713948Y827538D01*
X714017Y827486D01*
X714139Y827417D01*
X714260Y827330D01*
X714399Y827243D01*
X714746Y826983D01*
X715110Y826688D01*
X715474Y826324D01*
X715839Y825908D01*
X715995Y825682D01*
X716134Y825457D01*
Y825439D01*
X716168Y825405D01*
X716203Y825335D01*
X716238Y825248D01*
X716290Y825127D01*
X716359Y824988D01*
X716411Y824832D01*
X716481Y824659D01*
X716602Y824260D01*
X716723Y823826D01*
X716793Y823340D01*
X716828Y822820D01*
Y822681D01*
X716810Y822594D01*
Y822473D01*
X716793Y822334D01*
X716776Y822178D01*
X716741Y822004D01*
X716671Y821640D01*
X716550Y821224D01*
X716394Y820807D01*
X716168Y820391D01*
Y820374D01*
X716134Y820339D01*
X716099Y820287D01*
X716047Y820218D01*
X715891Y820027D01*
X715665Y819784D01*
X715388Y819506D01*
X715058Y819229D01*
X714659Y818968D01*
X714208Y818726D01*
X714191D01*
X714156Y818708D01*
X714069Y818673D01*
X713965Y818639D01*
X713844Y818587D01*
X713688Y818552D01*
X713497Y818500D01*
X713288Y818448D01*
X713046Y818379D01*
X712785Y818326D01*
X712508Y818292D01*
X712196Y818240D01*
X711866Y818205D01*
X711502Y818170D01*
X711137Y818153D01*
X710738D01*
X710721D01*
X710686D01*
X710634D01*
X710547D01*
X710443D01*
X710322Y818170D01*
X710183D01*
X710027Y818188D01*
X709645Y818205D01*
X709229Y818257D01*
X708743Y818309D01*
X708223Y818396D01*
X707668Y818483D01*
X707078Y818621D01*
X706471Y818760D01*
X705863Y818951D01*
X705239Y819159D01*
X704632Y819419D01*
X704025Y819714D01*
X703452Y820044D01*
X703435D01*
X703417Y820061D01*
X703331Y820131D01*
X703175Y820235D01*
X702984Y820391D01*
X702758Y820582D01*
X702498Y820807D01*
X702238Y821085D01*
X701943Y821397D01*
X701665Y821727D01*
X701405Y822108D01*
X701145Y822525D01*
X700919Y822976D01*
X700728Y823444D01*
X700572Y823965D01*
X700486Y824502D01*
X700451Y824780D01*
Y825248D01*
X700468Y825370D01*
X700486Y825526D01*
X700503Y825699D01*
X700538Y825890D01*
X700572Y826098D01*
X700694Y826550D01*
X700763Y826792D01*
X700867Y827035D01*
X700989Y827261D01*
X701110Y827486D01*
X701266Y827712D01*
X701440Y827920D01*
X701457Y827937D01*
X701492Y827972D01*
X701544Y828024D01*
X701630Y828093D01*
X701735Y828180D01*
X701856Y828267D01*
X702012Y828371D01*
X702186Y828493D01*
X702376Y828597D01*
X702602Y828718D01*
X702845Y828822D01*
X703122Y828926D01*
X703417Y829030D01*
X703730Y829117D01*
X704077Y829186D01*
X704441Y829239D01*
X704667Y826307D01*
D02*
G37*
G36*
X704840Y816418D02*
X704944D01*
X705083Y816401D01*
X705378Y816349D01*
X705725Y816262D01*
X706106Y816123D01*
X706505Y815932D01*
X706696Y815828D01*
X706887Y815690D01*
X706904D01*
X706939Y815655D01*
X706974Y815620D01*
X707043Y815551D01*
X707234Y815395D01*
X707442Y815169D01*
X707685Y814874D01*
X707928Y814545D01*
X708171Y814146D01*
X708362Y813695D01*
Y813712D01*
X708379Y813747D01*
X708414Y813799D01*
X708466Y813868D01*
X708570Y814042D01*
X708743Y814267D01*
X708934Y814510D01*
X709177Y814753D01*
X709455Y814978D01*
X709767Y815186D01*
X709784D01*
X709802Y815204D01*
X709854Y815238D01*
X709906Y815256D01*
X710079Y815343D01*
X710305Y815429D01*
X710565Y815516D01*
X710877Y815603D01*
X711189Y815655D01*
X711536Y815672D01*
X711554D01*
X711623D01*
X711710D01*
X711831Y815655D01*
X711987Y815638D01*
X712178Y815603D01*
X712386Y815568D01*
X712612Y815516D01*
X712855Y815447D01*
X713115Y815360D01*
X713375Y815256D01*
X713653Y815134D01*
X713948Y814996D01*
X714225Y814822D01*
X714520Y814631D01*
X714798Y814406D01*
X714815Y814389D01*
X714885Y814319D01*
X714989Y814232D01*
X715110Y814093D01*
X715266Y813920D01*
X715440Y813712D01*
X715630Y813486D01*
X715804Y813209D01*
X715995Y812914D01*
X716186Y812567D01*
X716359Y812203D01*
X716515Y811821D01*
X716637Y811387D01*
X716741Y810954D01*
X716810Y810485D01*
X716828Y809982D01*
Y809791D01*
X716810Y809652D01*
X716793Y809479D01*
X716758Y809271D01*
X716723Y809045D01*
X716689Y808802D01*
X716550Y808265D01*
X716463Y807987D01*
X716342Y807709D01*
X716220Y807432D01*
X716064Y807154D01*
X715891Y806894D01*
X715683Y806634D01*
X715665Y806617D01*
X715630Y806582D01*
X715561Y806512D01*
X715474Y806426D01*
X715353Y806322D01*
X715197Y806200D01*
X715023Y806079D01*
X714833Y805940D01*
X714607Y805801D01*
X714364Y805662D01*
X714104Y805524D01*
X713809Y805402D01*
X713479Y805281D01*
X713132Y805194D01*
X712768Y805107D01*
X712386Y805038D01*
X712022Y808039D01*
X712039D01*
X712074Y808056D01*
X712144D01*
X712230Y808074D01*
X712334Y808091D01*
X712456Y808126D01*
X712716Y808195D01*
X713011Y808282D01*
X713306Y808386D01*
X713584Y808525D01*
X713688Y808612D01*
X713792Y808698D01*
X713809Y808716D01*
X713861Y808785D01*
X713948Y808889D01*
X714035Y809045D01*
X714121Y809236D01*
X714208Y809444D01*
X714260Y809705D01*
X714277Y809999D01*
Y810104D01*
X714260Y810173D01*
X714243Y810381D01*
X714191Y810624D01*
X714104Y810901D01*
X713982Y811214D01*
X713809Y811509D01*
X713566Y811786D01*
X713531Y811821D01*
X713427Y811890D01*
X713271Y812012D01*
X713063Y812150D01*
X712785Y812272D01*
X712473Y812393D01*
X712109Y812463D01*
X711710Y812497D01*
X711693D01*
X711658D01*
X711623D01*
X711554D01*
X711380Y812463D01*
X711155Y812428D01*
X710912Y812359D01*
X710652Y812255D01*
X710391Y812116D01*
X710166Y811925D01*
X710148Y811908D01*
X710079Y811821D01*
X709975Y811700D01*
X709871Y811526D01*
X709767Y811301D01*
X709663Y811040D01*
X709593Y810728D01*
X709576Y810381D01*
Y810242D01*
X709593Y810086D01*
X709628Y809895D01*
X707009Y810433D01*
Y810537D01*
X707026Y810624D01*
Y810867D01*
X707009Y810954D01*
Y811058D01*
X706991Y811179D01*
X706939Y811457D01*
X706870Y811769D01*
X706748Y812098D01*
X706592Y812393D01*
X706384Y812671D01*
X706349Y812706D01*
X706263Y812775D01*
X706124Y812879D01*
X705933Y813001D01*
X705673Y813122D01*
X705378Y813226D01*
X705031Y813296D01*
X704649Y813330D01*
X704632D01*
X704614D01*
X704528D01*
X704372Y813313D01*
X704198Y813278D01*
X704007Y813226D01*
X703799Y813139D01*
X703591Y813035D01*
X703417Y812879D01*
X703400Y812862D01*
X703348Y812792D01*
X703261Y812706D01*
X703175Y812567D01*
X703105Y812393D01*
X703018Y812203D01*
X702966Y811977D01*
X702949Y811717D01*
Y811595D01*
X702966Y811474D01*
X703018Y811318D01*
X703071Y811127D01*
X703157Y810919D01*
X703279Y810711D01*
X703452Y810502D01*
X703469Y810485D01*
X703556Y810416D01*
X703678Y810312D01*
X703851Y810190D01*
X704094Y810051D01*
X704389Y809913D01*
X704736Y809774D01*
X705152Y809652D01*
X704597Y806790D01*
X704580D01*
X704510Y806807D01*
X704424Y806842D01*
X704302Y806894D01*
X704163Y806946D01*
X703990Y807016D01*
X703799Y807085D01*
X703591Y807189D01*
X703157Y807397D01*
X702706Y807657D01*
X702272Y807952D01*
X702064Y808126D01*
X701873Y808299D01*
X701856Y808317D01*
X701804Y808369D01*
X701735Y808455D01*
X701648Y808559D01*
X701544Y808716D01*
X701422Y808872D01*
X701301Y809080D01*
X701162Y809305D01*
X701023Y809566D01*
X700902Y809826D01*
X700780Y810138D01*
X700676Y810450D01*
X700590Y810797D01*
X700503Y811144D01*
X700468Y811526D01*
X700451Y811925D01*
Y812133D01*
X700468Y812289D01*
X700486Y812480D01*
X700520Y812688D01*
X700555Y812914D01*
X700607Y813174D01*
X700676Y813434D01*
X700746Y813712D01*
X700850Y813989D01*
X700971Y814267D01*
X701110Y814545D01*
X701284Y814805D01*
X701457Y815048D01*
X701683Y815273D01*
X701700Y815291D01*
X701735Y815325D01*
X701804Y815377D01*
X701908Y815464D01*
X702012Y815551D01*
X702168Y815638D01*
X702325Y815742D01*
X702515Y815863D01*
X702723Y815967D01*
X702949Y816071D01*
X703192Y816158D01*
X703452Y816262D01*
X703730Y816331D01*
X704007Y816384D01*
X704320Y816418D01*
X704632Y816436D01*
X704649D01*
X704684D01*
X704753D01*
X704840Y816418D01*
D02*
G37*
G36*
X716810Y792703D02*
Y790517D01*
X700260Y798428D01*
Y800631D01*
X716810Y792703D01*
D02*
G37*
G36*
X707650Y778634D02*
X707876Y778616D01*
X708015Y778599D01*
X708154Y778582D01*
X708327Y778547D01*
X708518Y778512D01*
X708726Y778478D01*
X708951Y778443D01*
X709194Y778391D01*
X709455Y778339D01*
X716533Y776812D01*
Y773707D01*
X709455Y775199D01*
X709437D01*
X709402Y775216D01*
X709333Y775234D01*
X709246Y775251D01*
X709021Y775286D01*
X708778Y775338D01*
X708518Y775390D01*
X708275Y775442D01*
X708171Y775459D01*
X708084Y775477D01*
X708015Y775494D01*
X707963D01*
X707945D01*
X707876D01*
X707789Y775477D01*
X707685Y775459D01*
X707564Y775424D01*
X707442Y775372D01*
X707303Y775303D01*
X707199Y775199D01*
X707182Y775182D01*
X707147Y775147D01*
X707113Y775077D01*
X707043Y774973D01*
X706991Y774852D01*
X706956Y774713D01*
X706922Y774540D01*
X706904Y774332D01*
Y774210D01*
X706922Y774123D01*
X706939Y774019D01*
X706974Y773898D01*
X707060Y773620D01*
X707130Y773464D01*
X707217Y773291D01*
X707303Y773117D01*
X707425Y772926D01*
X707581Y772753D01*
X707737Y772562D01*
X707928Y772389D01*
X708154Y772215D01*
X708171D01*
X708188Y772180D01*
X708258Y772146D01*
X708327Y772111D01*
X708431Y772041D01*
X708552Y771972D01*
X708709Y771903D01*
X708882Y771816D01*
X709073Y771729D01*
X709298Y771643D01*
X709559Y771538D01*
X709836Y771452D01*
X710148Y771348D01*
X710496Y771261D01*
X710877Y771157D01*
X711276Y771070D01*
X716533Y769960D01*
Y766854D01*
X709541Y768312D01*
X709524D01*
X709489Y768329D01*
X709420D01*
X709351Y768346D01*
X709142Y768381D01*
X708882Y768433D01*
X708622Y768485D01*
X708362Y768520D01*
X708136Y768537D01*
X708032Y768555D01*
X707963D01*
X707945D01*
X707876D01*
X707806Y768537D01*
X707685Y768520D01*
X707564Y768485D01*
X707442Y768416D01*
X707321Y768346D01*
X707199Y768242D01*
X707182Y768225D01*
X707147Y768190D01*
X707113Y768121D01*
X707043Y768017D01*
X706991Y767895D01*
X706956Y767757D01*
X706922Y767583D01*
X706904Y767392D01*
Y767306D01*
X706922Y767201D01*
X706939Y767063D01*
X706974Y766906D01*
X707043Y766716D01*
X707113Y766525D01*
X707217Y766317D01*
X707234Y766299D01*
X707269Y766230D01*
X707338Y766126D01*
X707442Y766004D01*
X707564Y765848D01*
X707702Y765692D01*
X707876Y765519D01*
X708067Y765362D01*
X708084Y765345D01*
X708154Y765293D01*
X708275Y765224D01*
X708431Y765120D01*
X708622Y764998D01*
X708865Y764894D01*
X709142Y764773D01*
X709437Y764651D01*
X709455D01*
X709524Y764634D01*
X709628Y764599D01*
X709802Y764547D01*
X709906Y764530D01*
X710044Y764495D01*
X710183Y764460D01*
X710339Y764426D01*
X710530Y764391D01*
X710738Y764339D01*
X710964Y764287D01*
X711207Y764235D01*
X716533Y763107D01*
Y760002D01*
X704927Y762413D01*
Y765362D01*
X706349Y765068D01*
X706332Y765085D01*
X706280Y765154D01*
X706193Y765241D01*
X706089Y765362D01*
X705950Y765536D01*
X705811Y765709D01*
X705673Y765935D01*
X705499Y766178D01*
X705343Y766438D01*
X705204Y766716D01*
X705048Y767028D01*
X704927Y767340D01*
X704823Y767670D01*
X704736Y767999D01*
X704684Y768364D01*
X704667Y768711D01*
Y768919D01*
X704684Y769040D01*
X704701Y769162D01*
X704736Y769457D01*
X704805Y769769D01*
X704892Y770116D01*
X705031Y770428D01*
X705222Y770723D01*
X705239Y770758D01*
X705326Y770844D01*
X705447Y770966D01*
X705603Y771105D01*
X705829Y771261D01*
X706089Y771417D01*
X706384Y771538D01*
X706731Y771643D01*
X706714D01*
X706696Y771677D01*
X706575Y771764D01*
X706419Y771903D01*
X706210Y772094D01*
X705985Y772336D01*
X705742Y772631D01*
X705482Y772978D01*
X705256Y773377D01*
Y773395D01*
X705239Y773429D01*
X705204Y773481D01*
X705170Y773568D01*
X705117Y773672D01*
X705066Y773794D01*
X704961Y774089D01*
X704857Y774453D01*
X704753Y774835D01*
X704684Y775268D01*
X704667Y775719D01*
Y775858D01*
X704684Y775945D01*
Y776066D01*
X704701Y776205D01*
X704753Y776517D01*
X704840Y776847D01*
X704979Y777211D01*
X705170Y777558D01*
X705274Y777714D01*
X705413Y777870D01*
Y777888D01*
X705447Y777905D01*
X705551Y777992D01*
X705707Y778113D01*
X705933Y778270D01*
X706228Y778408D01*
X706557Y778530D01*
X706956Y778616D01*
X707165Y778651D01*
X707390D01*
X707425D01*
X707512D01*
X707650Y778634D01*
D02*
G37*
G36*
X707859Y758788D02*
X707963D01*
X708067Y758770D01*
X708188Y758753D01*
X708344Y758735D01*
X708518Y758701D01*
X708691Y758666D01*
X708917Y758631D01*
X709142Y758597D01*
X709402Y758545D01*
X709680Y758493D01*
X709992Y758423D01*
X716533Y757001D01*
Y753895D01*
X709975Y755318D01*
X709958D01*
X709906Y755335D01*
X709836Y755352D01*
X709732Y755370D01*
X709628Y755387D01*
X709489Y755422D01*
X709194Y755474D01*
X708899Y755526D01*
X708605Y755578D01*
X708483Y755595D01*
X708362Y755613D01*
X708275Y755630D01*
X708205D01*
X708171D01*
X708101D01*
X707997Y755613D01*
X707859Y755578D01*
X707702Y755543D01*
X707546Y755474D01*
X707390Y755387D01*
X707251Y755266D01*
X707234Y755248D01*
X707199Y755196D01*
X707147Y755127D01*
X707078Y755006D01*
X707009Y754867D01*
X706956Y754711D01*
X706922Y754502D01*
X706904Y754277D01*
Y754156D01*
X706939Y753999D01*
X706974Y753809D01*
X707043Y753583D01*
X707147Y753323D01*
X707303Y753028D01*
X707494Y752716D01*
Y752698D01*
X707512Y752681D01*
X707598Y752577D01*
X707720Y752421D01*
X707893Y752230D01*
X708119Y752022D01*
X708379Y751796D01*
X708674Y751571D01*
X709021Y751380D01*
X709056Y751363D01*
X709090Y751345D01*
X709160Y751310D01*
X709246Y751276D01*
X709351Y751241D01*
X709472Y751189D01*
X709611Y751137D01*
X709784Y751085D01*
X709992Y751015D01*
X710218Y750946D01*
X710461Y750877D01*
X710756Y750807D01*
X711068Y750738D01*
X711398Y750651D01*
X711779Y750564D01*
X716533Y749576D01*
Y746470D01*
X704927Y748882D01*
Y751866D01*
X706453Y751571D01*
X706436Y751588D01*
X706419Y751623D01*
X706367Y751675D01*
X706297Y751761D01*
X706210Y751866D01*
X706124Y751970D01*
X705916Y752247D01*
X705707Y752560D01*
X705464Y752924D01*
X705256Y753288D01*
X705083Y753652D01*
Y753670D01*
X705066Y753705D01*
X705048Y753756D01*
X705013Y753826D01*
X704979Y753913D01*
X704944Y754017D01*
X704875Y754277D01*
X704805Y754572D01*
X704736Y754919D01*
X704684Y755301D01*
X704667Y755699D01*
Y755838D01*
X704684Y755942D01*
Y756064D01*
X704701Y756203D01*
X704771Y756532D01*
X704875Y756879D01*
X705013Y757261D01*
X705222Y757643D01*
X705360Y757816D01*
X705499Y757972D01*
X705517Y757990D01*
X705534Y758007D01*
X705586Y758042D01*
X705655Y758111D01*
X705725Y758163D01*
X705829Y758232D01*
X706072Y758389D01*
X706384Y758545D01*
X706766Y758683D01*
X707182Y758770D01*
X707425Y758788D01*
X707668Y758805D01*
X707702D01*
X707789D01*
X707859Y758788D01*
D02*
G37*
G36*
X706401Y745863D02*
X706627Y745846D01*
X706887Y745828D01*
X707199Y745811D01*
X707546Y745759D01*
X707911Y745724D01*
X708327Y745655D01*
X708743Y745585D01*
X709194Y745499D01*
X709680Y745395D01*
X710166Y745273D01*
X710669Y745117D01*
X711172Y744961D01*
X711207Y744944D01*
X711293Y744926D01*
X711432Y744874D01*
X711623Y744788D01*
X711849Y744701D01*
X712109Y744597D01*
X712404Y744458D01*
X712716Y744302D01*
X713063Y744146D01*
X713393Y743955D01*
X713757Y743747D01*
X714104Y743521D01*
X714434Y743296D01*
X714763Y743035D01*
X715075Y742758D01*
X715370Y742480D01*
X715388Y742463D01*
X715440Y742411D01*
X715509Y742324D01*
X715596Y742203D01*
X715700Y742064D01*
X715839Y741890D01*
X715960Y741682D01*
X716099Y741474D01*
X716238Y741214D01*
X716359Y740954D01*
X716481Y740659D01*
X716602Y740364D01*
X716689Y740034D01*
X716758Y739705D01*
X716810Y739358D01*
X716828Y738993D01*
Y738906D01*
X716810Y738802D01*
Y738664D01*
X716776Y738507D01*
X716758Y738299D01*
X716706Y738091D01*
X716654Y737848D01*
X716585Y737605D01*
X716481Y737345D01*
X716376Y737085D01*
X716238Y736807D01*
X716082Y736530D01*
X715891Y736270D01*
X715665Y736009D01*
X715422Y735766D01*
X715405Y735749D01*
X715353Y735714D01*
X715266Y735645D01*
X715162Y735576D01*
X715006Y735471D01*
X714833Y735367D01*
X714624Y735263D01*
X714381Y735142D01*
X714121Y735021D01*
X713809Y734916D01*
X713479Y734812D01*
X713115Y734708D01*
X712716Y734639D01*
X712282Y734569D01*
X711831Y734535D01*
X711346Y734517D01*
X711311D01*
X711242D01*
X711103D01*
X710929Y734535D01*
X710704D01*
X710443Y734569D01*
X710148Y734587D01*
X709819Y734621D01*
X709472Y734656D01*
X709090Y734725D01*
X708674Y734778D01*
X708258Y734864D01*
X707355Y735072D01*
X706904Y735194D01*
X706436Y735333D01*
X706419D01*
X706401Y735350D01*
X706297Y735385D01*
X706141Y735437D01*
X705933Y735524D01*
X705690Y735610D01*
X705395Y735732D01*
X705083Y735871D01*
X704736Y736027D01*
X704389Y736217D01*
X704007Y736408D01*
X703261Y736842D01*
X702897Y737085D01*
X702567Y737363D01*
X702238Y737623D01*
X701943Y737918D01*
X701926Y737935D01*
X701873Y737987D01*
X701804Y738074D01*
X701717Y738195D01*
X701596Y738351D01*
X701474Y738525D01*
X701336Y738716D01*
X701197Y738941D01*
X701058Y739201D01*
X700919Y739462D01*
X700798Y739756D01*
X700676Y740069D01*
X700590Y740381D01*
X700520Y740711D01*
X700468Y741058D01*
X700451Y741422D01*
Y741509D01*
X700468Y741613D01*
Y741752D01*
X700486Y741908D01*
X700520Y742098D01*
X700572Y742324D01*
X700624Y742550D01*
X700711Y742792D01*
X700798Y743053D01*
X700919Y743313D01*
X701058Y743590D01*
X701214Y743851D01*
X701405Y744111D01*
X701630Y744371D01*
X701873Y744614D01*
X701891Y744631D01*
X701943Y744666D01*
X702012Y744735D01*
X702134Y744805D01*
X702272Y744909D01*
X702463Y745013D01*
X702671Y745135D01*
X702914Y745256D01*
X703192Y745360D01*
X703487Y745481D01*
X703834Y745585D01*
X704198Y745690D01*
X704597Y745759D01*
X705013Y745828D01*
X705482Y745863D01*
X705968Y745880D01*
X706002D01*
X706072D01*
X706210D01*
X706401Y745863D01*
D02*
G37*
G36*
X716533Y728671D02*
Y725531D01*
X705447Y727838D01*
Y727821D01*
X705482Y727786D01*
X705517Y727734D01*
X705551Y727665D01*
X705603Y727578D01*
X705673Y727457D01*
X705829Y727196D01*
X706020Y726867D01*
X706210Y726485D01*
X706401Y726051D01*
X706609Y725583D01*
Y725566D01*
X706627Y725531D01*
X706662Y725462D01*
X706696Y725375D01*
X706731Y725253D01*
X706783Y725132D01*
X706887Y724820D01*
X707009Y724473D01*
X707130Y724091D01*
X707251Y723692D01*
X707338Y723310D01*
X704545Y723900D01*
Y723918D01*
X704528Y723952D01*
X704493Y724004D01*
X704458Y724074D01*
X704424Y724178D01*
X704372Y724282D01*
X704233Y724559D01*
X704059Y724906D01*
X703868Y725288D01*
X703626Y725722D01*
X703365Y726190D01*
X703088Y726676D01*
X702775Y727196D01*
X702429Y727717D01*
X702064Y728237D01*
X701683Y728740D01*
X701284Y729243D01*
X700867Y729712D01*
X700434Y730146D01*
Y732037D01*
X716533Y728671D01*
D02*
G37*
G36*
X710634Y718609D02*
Y720587D01*
X713271Y720014D01*
Y718071D01*
X716533Y717377D01*
Y714445D01*
X713271Y715122D01*
Y708842D01*
X710686Y709380D01*
X700520Y718002D01*
Y720725D01*
X710634Y718609D01*
D02*
G37*
G36*
X712282Y707749D02*
Y701660D01*
X709264Y702267D01*
Y708356D01*
X712282Y707749D01*
D02*
G37*
G36*
X706401Y701105D02*
X706627Y701087D01*
X706887Y701070D01*
X707199Y701053D01*
X707546Y701001D01*
X707911Y700966D01*
X708327Y700897D01*
X708743Y700827D01*
X709194Y700740D01*
X709680Y700636D01*
X710166Y700515D01*
X710669Y700359D01*
X711172Y700203D01*
X711207Y700185D01*
X711293Y700168D01*
X711432Y700116D01*
X711623Y700029D01*
X711849Y699942D01*
X712109Y699838D01*
X712404Y699699D01*
X712716Y699543D01*
X713063Y699387D01*
X713393Y699196D01*
X713757Y698988D01*
X714104Y698763D01*
X714434Y698537D01*
X714763Y698277D01*
X715075Y697999D01*
X715370Y697722D01*
X715388Y697704D01*
X715440Y697652D01*
X715509Y697566D01*
X715596Y697444D01*
X715700Y697306D01*
X715839Y697132D01*
X715960Y696924D01*
X716099Y696716D01*
X716238Y696455D01*
X716359Y696195D01*
X716481Y695900D01*
X716602Y695605D01*
X716689Y695276D01*
X716758Y694946D01*
X716810Y694599D01*
X716828Y694235D01*
Y694148D01*
X716810Y694044D01*
Y693905D01*
X716776Y693749D01*
X716758Y693541D01*
X716706Y693333D01*
X716654Y693090D01*
X716585Y692847D01*
X716481Y692587D01*
X716376Y692327D01*
X716238Y692049D01*
X716082Y691771D01*
X715891Y691511D01*
X715665Y691251D01*
X715422Y691008D01*
X715405Y690991D01*
X715353Y690956D01*
X715266Y690887D01*
X715162Y690817D01*
X715006Y690713D01*
X714833Y690609D01*
X714624Y690505D01*
X714381Y690384D01*
X714121Y690262D01*
X713809Y690158D01*
X713479Y690054D01*
X713115Y689950D01*
X712716Y689880D01*
X712282Y689811D01*
X711831Y689776D01*
X711346Y689759D01*
X711311D01*
X711242D01*
X711103D01*
X710929Y689776D01*
X710704D01*
X710443Y689811D01*
X710148Y689828D01*
X709819Y689863D01*
X709472Y689898D01*
X709090Y689967D01*
X708674Y690019D01*
X708258Y690106D01*
X707355Y690314D01*
X706904Y690436D01*
X706436Y690574D01*
X706419D01*
X706401Y690592D01*
X706297Y690626D01*
X706141Y690678D01*
X705933Y690765D01*
X705690Y690852D01*
X705395Y690973D01*
X705083Y691112D01*
X704736Y691268D01*
X704389Y691459D01*
X704007Y691650D01*
X703261Y692084D01*
X702897Y692327D01*
X702567Y692604D01*
X702238Y692864D01*
X701943Y693159D01*
X701926Y693177D01*
X701873Y693229D01*
X701804Y693315D01*
X701717Y693437D01*
X701596Y693593D01*
X701474Y693766D01*
X701336Y693957D01*
X701197Y694183D01*
X701058Y694443D01*
X700919Y694703D01*
X700798Y694998D01*
X700676Y695310D01*
X700590Y695623D01*
X700520Y695952D01*
X700468Y696299D01*
X700451Y696664D01*
Y696750D01*
X700468Y696854D01*
Y696993D01*
X700486Y697149D01*
X700520Y697340D01*
X700572Y697566D01*
X700624Y697791D01*
X700711Y698034D01*
X700798Y698294D01*
X700919Y698555D01*
X701058Y698832D01*
X701214Y699092D01*
X701405Y699353D01*
X701630Y699613D01*
X701873Y699856D01*
X701891Y699873D01*
X701943Y699908D01*
X702012Y699977D01*
X702134Y700046D01*
X702272Y700151D01*
X702463Y700255D01*
X702671Y700376D01*
X702914Y700498D01*
X703192Y700602D01*
X703487Y700723D01*
X703834Y700827D01*
X704198Y700931D01*
X704597Y701001D01*
X705013Y701070D01*
X705482Y701105D01*
X705968Y701122D01*
X706002D01*
X706072D01*
X706210D01*
X706401Y701105D01*
D02*
G37*
G36*
Y688666D02*
X706627Y688649D01*
X706887Y688631D01*
X707199Y688614D01*
X707546Y688562D01*
X707911Y688527D01*
X708327Y688458D01*
X708743Y688389D01*
X709194Y688302D01*
X709680Y688198D01*
X710166Y688076D01*
X710669Y687920D01*
X711172Y687764D01*
X711207Y687747D01*
X711293Y687729D01*
X711432Y687677D01*
X711623Y687590D01*
X711849Y687504D01*
X712109Y687400D01*
X712404Y687261D01*
X712716Y687105D01*
X713063Y686949D01*
X713393Y686758D01*
X713757Y686550D01*
X714104Y686324D01*
X714434Y686098D01*
X714763Y685838D01*
X715075Y685561D01*
X715370Y685283D01*
X715388Y685266D01*
X715440Y685214D01*
X715509Y685127D01*
X715596Y685006D01*
X715700Y684867D01*
X715839Y684693D01*
X715960Y684485D01*
X716099Y684277D01*
X716238Y684017D01*
X716359Y683756D01*
X716481Y683462D01*
X716602Y683167D01*
X716689Y682837D01*
X716758Y682507D01*
X716810Y682160D01*
X716828Y681796D01*
Y681709D01*
X716810Y681605D01*
Y681467D01*
X716776Y681310D01*
X716758Y681102D01*
X716706Y680894D01*
X716654Y680651D01*
X716585Y680408D01*
X716481Y680148D01*
X716376Y679888D01*
X716238Y679610D01*
X716082Y679333D01*
X715891Y679072D01*
X715665Y678812D01*
X715422Y678569D01*
X715405Y678552D01*
X715353Y678517D01*
X715266Y678448D01*
X715162Y678379D01*
X715006Y678275D01*
X714833Y678170D01*
X714624Y678066D01*
X714381Y677945D01*
X714121Y677823D01*
X713809Y677719D01*
X713479Y677615D01*
X713115Y677511D01*
X712716Y677442D01*
X712282Y677372D01*
X711831Y677338D01*
X711346Y677320D01*
X711311D01*
X711242D01*
X711103D01*
X710929Y677338D01*
X710704D01*
X710443Y677372D01*
X710148Y677390D01*
X709819Y677424D01*
X709472Y677459D01*
X709090Y677529D01*
X708674Y677581D01*
X708258Y677667D01*
X707355Y677876D01*
X706904Y677997D01*
X706436Y678136D01*
X706419D01*
X706401Y678153D01*
X706297Y678188D01*
X706141Y678240D01*
X705933Y678326D01*
X705690Y678413D01*
X705395Y678535D01*
X705083Y678673D01*
X704736Y678830D01*
X704389Y679020D01*
X704007Y679211D01*
X703261Y679645D01*
X702897Y679888D01*
X702567Y680165D01*
X702238Y680426D01*
X701943Y680721D01*
X701926Y680738D01*
X701873Y680790D01*
X701804Y680877D01*
X701717Y680998D01*
X701596Y681154D01*
X701474Y681328D01*
X701336Y681519D01*
X701197Y681744D01*
X701058Y682004D01*
X700919Y682265D01*
X700798Y682560D01*
X700676Y682872D01*
X700590Y683184D01*
X700520Y683514D01*
X700468Y683861D01*
X700451Y684225D01*
Y684312D01*
X700468Y684416D01*
Y684555D01*
X700486Y684711D01*
X700520Y684902D01*
X700572Y685127D01*
X700624Y685353D01*
X700711Y685595D01*
X700798Y685856D01*
X700919Y686116D01*
X701058Y686393D01*
X701214Y686654D01*
X701405Y686914D01*
X701630Y687174D01*
X701873Y687417D01*
X701891Y687434D01*
X701943Y687469D01*
X702012Y687538D01*
X702134Y687608D01*
X702272Y687712D01*
X702463Y687816D01*
X702671Y687937D01*
X702914Y688059D01*
X703192Y688163D01*
X703487Y688284D01*
X703834Y688389D01*
X704198Y688493D01*
X704597Y688562D01*
X705013Y688631D01*
X705482Y688666D01*
X705968Y688683D01*
X706002D01*
X706072D01*
X706210D01*
X706401Y688666D01*
D02*
G37*
G36*
X710634Y673851D02*
Y675828D01*
X713271Y675256D01*
Y673313D01*
X716533Y672619D01*
Y669687D01*
X713271Y670364D01*
Y664084D01*
X710686Y664622D01*
X700520Y673243D01*
Y675967D01*
X710634Y673851D01*
D02*
G37*
%LPC*%
G36*
X705517Y883278D02*
X705222D01*
X705204D01*
X705170D01*
X705100D01*
X705031D01*
X704823Y883261D01*
X704562Y883226D01*
X704268Y883174D01*
X703990Y883087D01*
X703712Y882983D01*
X703487Y882844D01*
X703469Y882827D01*
X703400Y882775D01*
X703313Y882671D01*
X703209Y882550D01*
X703122Y882393D01*
X703036Y882203D01*
X702966Y881994D01*
X702949Y881751D01*
Y881717D01*
X702966Y881613D01*
X702984Y881457D01*
X703053Y881248D01*
X703140Y881023D01*
X703296Y880780D01*
X703487Y880520D01*
X703626Y880381D01*
X703764Y880260D01*
X703782Y880242D01*
X703816Y880225D01*
X703886Y880173D01*
X703990Y880103D01*
X704129Y880017D01*
X704285Y879930D01*
X704476Y879809D01*
X704718Y879704D01*
X704979Y879566D01*
X705274Y879444D01*
X705603Y879305D01*
X705985Y879167D01*
X706384Y879028D01*
X706835Y878889D01*
X707321Y878750D01*
X707859Y878612D01*
X707893D01*
X707963Y878594D01*
X708101Y878559D01*
X708275Y878525D01*
X708500Y878473D01*
X708743Y878421D01*
X709021Y878369D01*
X709316Y878317D01*
X709645Y878264D01*
X709975Y878213D01*
X710669Y878108D01*
X711346Y878039D01*
X711675Y878022D01*
X711987D01*
X712005D01*
X712039D01*
X712109D01*
X712196D01*
X712300Y878039D01*
X712421D01*
X712699Y878074D01*
X713011Y878126D01*
X713306Y878195D01*
X713584Y878299D01*
X713705Y878369D01*
X713809Y878438D01*
X713826Y878455D01*
X713896Y878507D01*
X713965Y878612D01*
X714069Y878733D01*
X714156Y878889D01*
X714243Y879063D01*
X714312Y879271D01*
X714329Y879514D01*
Y879600D01*
X714312Y879670D01*
X714295Y879826D01*
X714225Y880034D01*
X714139Y880277D01*
X714000Y880555D01*
X713792Y880815D01*
X713670Y880954D01*
X713531Y881075D01*
X713514Y881092D01*
X713479Y881110D01*
X713410Y881162D01*
X713306Y881231D01*
X713185Y881318D01*
X713011Y881405D01*
X712820Y881509D01*
X712577Y881630D01*
X712317Y881751D01*
X712005Y881873D01*
X711658Y882012D01*
X711259Y882150D01*
X710825Y882289D01*
X710339Y882428D01*
X709819Y882567D01*
X709246Y882706D01*
X709212D01*
X709142Y882723D01*
X709004Y882758D01*
X708830Y882792D01*
X708605Y882844D01*
X708362Y882879D01*
X708084Y882931D01*
X707789Y883001D01*
X707477Y883053D01*
X707147Y883105D01*
X706471Y883191D01*
X705829Y883261D01*
X705517Y883278D01*
D02*
G37*
G36*
Y838520D02*
X705222D01*
X705204D01*
X705170D01*
X705100D01*
X705031D01*
X704823Y838503D01*
X704562Y838468D01*
X704268Y838416D01*
X703990Y838329D01*
X703712Y838225D01*
X703487Y838086D01*
X703469Y838069D01*
X703400Y838017D01*
X703313Y837913D01*
X703209Y837791D01*
X703122Y837635D01*
X703036Y837444D01*
X702966Y837236D01*
X702949Y836993D01*
Y836958D01*
X702966Y836854D01*
X702984Y836698D01*
X703053Y836490D01*
X703140Y836264D01*
X703296Y836022D01*
X703487Y835761D01*
X703626Y835623D01*
X703764Y835501D01*
X703782Y835484D01*
X703816Y835467D01*
X703886Y835415D01*
X703990Y835345D01*
X704129Y835258D01*
X704285Y835172D01*
X704476Y835050D01*
X704718Y834946D01*
X704979Y834807D01*
X705274Y834686D01*
X705603Y834547D01*
X705985Y834408D01*
X706384Y834269D01*
X706835Y834131D01*
X707321Y833992D01*
X707859Y833853D01*
X707893D01*
X707963Y833836D01*
X708101Y833801D01*
X708275Y833766D01*
X708500Y833714D01*
X708743Y833662D01*
X709021Y833610D01*
X709316Y833558D01*
X709645Y833506D01*
X709975Y833454D01*
X710669Y833350D01*
X711346Y833281D01*
X711675Y833263D01*
X711987D01*
X712005D01*
X712039D01*
X712109D01*
X712196D01*
X712300Y833281D01*
X712421D01*
X712699Y833315D01*
X713011Y833367D01*
X713306Y833437D01*
X713584Y833541D01*
X713705Y833610D01*
X713809Y833680D01*
X713826Y833697D01*
X713896Y833749D01*
X713965Y833853D01*
X714069Y833975D01*
X714156Y834131D01*
X714243Y834304D01*
X714312Y834512D01*
X714329Y834755D01*
Y834842D01*
X714312Y834911D01*
X714295Y835068D01*
X714225Y835276D01*
X714139Y835519D01*
X714000Y835796D01*
X713792Y836056D01*
X713670Y836195D01*
X713531Y836317D01*
X713514Y836334D01*
X713479Y836351D01*
X713410Y836403D01*
X713306Y836473D01*
X713185Y836560D01*
X713011Y836646D01*
X712820Y836750D01*
X712577Y836872D01*
X712317Y836993D01*
X712005Y837115D01*
X711658Y837253D01*
X711259Y837392D01*
X710825Y837531D01*
X710339Y837670D01*
X709819Y837809D01*
X709246Y837947D01*
X709212D01*
X709142Y837965D01*
X709004Y837999D01*
X708830Y838034D01*
X708605Y838086D01*
X708362Y838121D01*
X708084Y838173D01*
X707789Y838242D01*
X707477Y838294D01*
X707147Y838346D01*
X706471Y838433D01*
X705829Y838503D01*
X705517Y838520D01*
D02*
G37*
G36*
X710374Y825370D02*
X710357D01*
X710322D01*
X710253D01*
X710166D01*
X710062Y825352D01*
X709940D01*
X709680Y825301D01*
X709368Y825248D01*
X709056Y825162D01*
X708778Y825040D01*
X708518Y824867D01*
X708483Y824849D01*
X708414Y824780D01*
X708327Y824676D01*
X708205Y824537D01*
X708101Y824364D01*
X707997Y824156D01*
X707928Y823930D01*
X707911Y823670D01*
Y823566D01*
X707928Y823444D01*
X707963Y823305D01*
X708032Y823115D01*
X708101Y822906D01*
X708223Y822681D01*
X708379Y822455D01*
X708396Y822421D01*
X708466Y822351D01*
X708570Y822247D01*
X708726Y822108D01*
X708934Y821952D01*
X709177Y821796D01*
X709489Y821640D01*
X709836Y821501D01*
X709854D01*
X709888Y821484D01*
X709940Y821467D01*
X710010Y821449D01*
X710097Y821432D01*
X710201Y821397D01*
X710461Y821345D01*
X710756Y821276D01*
X711103Y821224D01*
X711467Y821189D01*
X711849Y821172D01*
X711866D01*
X711901D01*
X711970D01*
X712057D01*
X712161Y821189D01*
X712282Y821206D01*
X712560Y821241D01*
X712872Y821293D01*
X713185Y821380D01*
X713479Y821501D01*
X713740Y821657D01*
X713757Y821675D01*
X713826Y821744D01*
X713930Y821848D01*
X714035Y822004D01*
X714139Y822178D01*
X714243Y822403D01*
X714312Y822646D01*
X714329Y822906D01*
Y822993D01*
X714312Y823063D01*
X714277Y823236D01*
X714225Y823444D01*
X714121Y823704D01*
X713965Y823965D01*
X713878Y824103D01*
X713757Y824225D01*
X713635Y824364D01*
X713479Y824485D01*
X713462Y824502D01*
X713427Y824520D01*
X713358Y824572D01*
X713271Y824624D01*
X713150Y824693D01*
X713011Y824763D01*
X712838Y824849D01*
X712647Y824936D01*
X712439Y825006D01*
X712213Y825092D01*
X711953Y825162D01*
X711675Y825231D01*
X711380Y825283D01*
X711068Y825335D01*
X710721Y825352D01*
X710374Y825370D01*
D02*
G37*
G36*
X705517Y742827D02*
X705222D01*
X705204D01*
X705170D01*
X705100D01*
X705031D01*
X704823Y742810D01*
X704562Y742775D01*
X704268Y742723D01*
X703990Y742636D01*
X703712Y742532D01*
X703487Y742393D01*
X703469Y742376D01*
X703400Y742324D01*
X703313Y742220D01*
X703209Y742098D01*
X703122Y741942D01*
X703036Y741752D01*
X702966Y741543D01*
X702949Y741301D01*
Y741266D01*
X702966Y741162D01*
X702984Y741006D01*
X703053Y740797D01*
X703140Y740572D01*
X703296Y740329D01*
X703487Y740069D01*
X703626Y739930D01*
X703764Y739809D01*
X703782Y739791D01*
X703816Y739774D01*
X703886Y739722D01*
X703990Y739652D01*
X704129Y739566D01*
X704285Y739479D01*
X704476Y739358D01*
X704718Y739253D01*
X704979Y739115D01*
X705274Y738993D01*
X705603Y738854D01*
X705985Y738716D01*
X706384Y738577D01*
X706835Y738438D01*
X707321Y738299D01*
X707859Y738160D01*
X707893D01*
X707963Y738143D01*
X708101Y738108D01*
X708275Y738074D01*
X708500Y738022D01*
X708743Y737970D01*
X709021Y737918D01*
X709316Y737866D01*
X709645Y737813D01*
X709975Y737762D01*
X710669Y737657D01*
X711346Y737588D01*
X711675Y737571D01*
X711987D01*
X712005D01*
X712039D01*
X712109D01*
X712196D01*
X712300Y737588D01*
X712421D01*
X712699Y737623D01*
X713011Y737675D01*
X713306Y737744D01*
X713584Y737848D01*
X713705Y737918D01*
X713809Y737987D01*
X713826Y738004D01*
X713896Y738056D01*
X713965Y738160D01*
X714069Y738282D01*
X714156Y738438D01*
X714243Y738612D01*
X714312Y738820D01*
X714329Y739063D01*
Y739149D01*
X714312Y739219D01*
X714295Y739375D01*
X714225Y739583D01*
X714139Y739826D01*
X714000Y740104D01*
X713792Y740364D01*
X713670Y740502D01*
X713531Y740624D01*
X713514Y740641D01*
X713479Y740659D01*
X713410Y740711D01*
X713306Y740780D01*
X713185Y740867D01*
X713011Y740954D01*
X712820Y741058D01*
X712577Y741179D01*
X712317Y741301D01*
X712005Y741422D01*
X711658Y741561D01*
X711259Y741700D01*
X710825Y741838D01*
X710339Y741977D01*
X709819Y742116D01*
X709246Y742255D01*
X709212D01*
X709142Y742272D01*
X709004Y742307D01*
X708830Y742341D01*
X708605Y742393D01*
X708362Y742428D01*
X708084Y742480D01*
X707789Y742550D01*
X707477Y742602D01*
X707147Y742654D01*
X706471Y742740D01*
X705829Y742810D01*
X705517Y742827D01*
D02*
G37*
G36*
X705603Y716718D02*
X710634Y712503D01*
Y715677D01*
X705603Y716718D01*
D02*
G37*
G36*
X705517Y698069D02*
X705222D01*
X705204D01*
X705170D01*
X705100D01*
X705031D01*
X704823Y698051D01*
X704562Y698017D01*
X704268Y697965D01*
X703990Y697878D01*
X703712Y697774D01*
X703487Y697635D01*
X703469Y697618D01*
X703400Y697566D01*
X703313Y697462D01*
X703209Y697340D01*
X703122Y697184D01*
X703036Y696993D01*
X702966Y696785D01*
X702949Y696542D01*
Y696507D01*
X702966Y696403D01*
X702984Y696247D01*
X703053Y696039D01*
X703140Y695814D01*
X703296Y695571D01*
X703487Y695310D01*
X703626Y695172D01*
X703764Y695050D01*
X703782Y695033D01*
X703816Y695015D01*
X703886Y694964D01*
X703990Y694894D01*
X704129Y694807D01*
X704285Y694721D01*
X704476Y694599D01*
X704718Y694495D01*
X704979Y694356D01*
X705274Y694235D01*
X705603Y694096D01*
X705985Y693957D01*
X706384Y693819D01*
X706835Y693680D01*
X707321Y693541D01*
X707859Y693402D01*
X707893D01*
X707963Y693385D01*
X708101Y693350D01*
X708275Y693315D01*
X708500Y693263D01*
X708743Y693211D01*
X709021Y693159D01*
X709316Y693107D01*
X709645Y693055D01*
X709975Y693003D01*
X710669Y692899D01*
X711346Y692830D01*
X711675Y692812D01*
X711987D01*
X712005D01*
X712039D01*
X712109D01*
X712196D01*
X712300Y692830D01*
X712421D01*
X712699Y692864D01*
X713011Y692916D01*
X713306Y692986D01*
X713584Y693090D01*
X713705Y693159D01*
X713809Y693229D01*
X713826Y693246D01*
X713896Y693298D01*
X713965Y693402D01*
X714069Y693524D01*
X714156Y693680D01*
X714243Y693853D01*
X714312Y694061D01*
X714329Y694304D01*
Y694391D01*
X714312Y694460D01*
X714295Y694616D01*
X714225Y694825D01*
X714139Y695068D01*
X714000Y695345D01*
X713792Y695605D01*
X713670Y695744D01*
X713531Y695866D01*
X713514Y695883D01*
X713479Y695900D01*
X713410Y695952D01*
X713306Y696022D01*
X713185Y696108D01*
X713011Y696195D01*
X712820Y696299D01*
X712577Y696421D01*
X712317Y696542D01*
X712005Y696664D01*
X711658Y696802D01*
X711259Y696941D01*
X710825Y697080D01*
X710339Y697219D01*
X709819Y697357D01*
X709246Y697496D01*
X709212D01*
X709142Y697514D01*
X709004Y697548D01*
X708830Y697583D01*
X708605Y697635D01*
X708362Y697670D01*
X708084Y697722D01*
X707789Y697791D01*
X707477Y697843D01*
X707147Y697895D01*
X706471Y697982D01*
X705829Y698051D01*
X705517Y698069D01*
D02*
G37*
G36*
Y685630D02*
X705222D01*
X705204D01*
X705170D01*
X705100D01*
X705031D01*
X704823Y685613D01*
X704562Y685578D01*
X704268Y685526D01*
X703990Y685439D01*
X703712Y685335D01*
X703487Y685196D01*
X703469Y685179D01*
X703400Y685127D01*
X703313Y685023D01*
X703209Y684902D01*
X703122Y684745D01*
X703036Y684555D01*
X702966Y684346D01*
X702949Y684103D01*
Y684069D01*
X702966Y683965D01*
X702984Y683809D01*
X703053Y683600D01*
X703140Y683375D01*
X703296Y683132D01*
X703487Y682872D01*
X703626Y682733D01*
X703764Y682611D01*
X703782Y682594D01*
X703816Y682577D01*
X703886Y682525D01*
X703990Y682455D01*
X704129Y682369D01*
X704285Y682282D01*
X704476Y682160D01*
X704718Y682056D01*
X704979Y681918D01*
X705274Y681796D01*
X705603Y681657D01*
X705985Y681519D01*
X706384Y681380D01*
X706835Y681241D01*
X707321Y681102D01*
X707859Y680964D01*
X707893D01*
X707963Y680946D01*
X708101Y680911D01*
X708275Y680877D01*
X708500Y680825D01*
X708743Y680773D01*
X709021Y680721D01*
X709316Y680668D01*
X709645Y680617D01*
X709975Y680564D01*
X710669Y680460D01*
X711346Y680391D01*
X711675Y680374D01*
X711987D01*
X712005D01*
X712039D01*
X712109D01*
X712196D01*
X712300Y680391D01*
X712421D01*
X712699Y680426D01*
X713011Y680478D01*
X713306Y680547D01*
X713584Y680651D01*
X713705Y680721D01*
X713809Y680790D01*
X713826Y680807D01*
X713896Y680859D01*
X713965Y680964D01*
X714069Y681085D01*
X714156Y681241D01*
X714243Y681414D01*
X714312Y681623D01*
X714329Y681866D01*
Y681952D01*
X714312Y682022D01*
X714295Y682178D01*
X714225Y682386D01*
X714139Y682629D01*
X714000Y682906D01*
X713792Y683167D01*
X713670Y683306D01*
X713531Y683427D01*
X713514Y683444D01*
X713479Y683462D01*
X713410Y683514D01*
X713306Y683583D01*
X713185Y683670D01*
X713011Y683756D01*
X712820Y683861D01*
X712577Y683982D01*
X712317Y684103D01*
X712005Y684225D01*
X711658Y684364D01*
X711259Y684502D01*
X710825Y684641D01*
X710339Y684780D01*
X709819Y684919D01*
X709246Y685058D01*
X709212D01*
X709142Y685075D01*
X709004Y685110D01*
X708830Y685144D01*
X708605Y685196D01*
X708362Y685231D01*
X708084Y685283D01*
X707789Y685353D01*
X707477Y685405D01*
X707147Y685457D01*
X706471Y685543D01*
X705829Y685613D01*
X705517Y685630D01*
D02*
G37*
G36*
X705603Y671960D02*
X710634Y667744D01*
Y670919D01*
X705603Y671960D01*
D02*
G37*
%LPD*%
D10*
X855777Y760215D02*
G03*
X855843Y760182I48J13D01*
G01*
X855723Y760459D02*
G03*
X855777Y760215I2284J375D01*
G01*
X855685Y760800D02*
G03*
X855723Y760459I3281J191D01*
G01*
X855673Y761218D02*
G03*
X855685Y760800I7210J-0D01*
G01*
X855688Y761849D02*
G03*
X855673Y761218I13768J-631D01*
G01*
X855749Y762156D02*
G03*
X855688Y761849I969J-354D01*
G01*
X855883Y762332D02*
G03*
X855749Y762156I220J-305D01*
G01*
X856123Y762448D02*
G03*
X855883Y762332I208J-739D01*
G01*
X856123Y762448D02*
G03*
X857613Y762915I-7347J26070D01*
G01*
Y762915D02*
G03*
X859889Y763721I-47376J137261D01*
G01*
Y763721D02*
G03*
X862386Y764633I-391827J1076824D01*
G01*
D02*
G03*
X862473Y764759I-46J126D01*
G01*
D02*
G03*
X862417Y764841I-88J0D01*
G01*
D02*
G03*
X861475Y765202I-54013J-139557D01*
G01*
Y765202D02*
G03*
X860377Y765603I-16378J-43179D01*
G01*
X860377Y765603D02*
G03*
X859073Y766049I-29393J-83833D01*
G01*
X855681Y768542D02*
G03*
X855673Y768165I8959J-377D01*
G01*
X855706Y768860D02*
G03*
X855681Y768542I4552J-510D01*
G01*
X855740Y769111D02*
G03*
X855706Y768860I5446J-866D01*
G01*
X855783Y769148D02*
G03*
X855740Y769111I0J-44D01*
G01*
X855960Y769118D02*
G03*
X855783Y769148I-177J-501D01*
G01*
X859121Y768004D02*
G03*
X855960Y769118I-2284614J-6477744D01*
G01*
X862001Y766981D02*
G03*
X859121Y768004I-220471J-615916D01*
G01*
X864023Y766242D02*
G03*
X862001Y766981I-58221J-156264D01*
G01*
X860743Y761937D02*
G03*
X858918Y761285I1551390J-4346508D01*
G01*
D02*
G03*
X857353Y760725I842543J-2357354D01*
G01*
D02*
G03*
X855977Y760232I3421609J-9553469D01*
G01*
D02*
G03*
X855843Y760182I1624J-4532D01*
G01*
X859282Y753148D02*
G03*
X861637Y753158I-1J293068D01*
G01*
D02*
G03*
X862487Y753212I-61J7668D01*
G01*
X862487Y753212D02*
G03*
X862976Y753353I-188J1568D01*
G01*
X862976Y753353D02*
G03*
X863382Y753639I-623J1317D01*
G01*
Y753639D02*
G03*
X863766Y754262I-1120J1120D01*
G01*
D02*
G03*
X863905Y755095I-2615J865D01*
G01*
X863905D02*
G03*
X863785Y755918I-2670J31D01*
G01*
D02*
G03*
X863416Y756509I-1306J-406D01*
G01*
D02*
G03*
X863023Y756753I-806J-858D01*
G01*
D02*
G03*
X862490Y756883I-806J-2146D01*
G01*
Y756883D02*
G03*
X861566Y756950I-1169J-9761D01*
G01*
Y756950D02*
G03*
X859365Y756994I-5699J-229446D01*
G01*
X862559Y758831D02*
G03*
X859648Y758914I-4891J-121382D01*
G01*
X863760Y758637D02*
G03*
X862559Y758831I-1406J-4900D01*
G01*
X864500Y758200D02*
G03*
X863760Y758637I-1210J-1203D01*
G01*
X865173Y757327D02*
G03*
X864500Y758200I-3808J-2243D01*
G01*
X865495Y756428D02*
G03*
X865173Y757327I-2514J-392D01*
G01*
X865591Y755145D02*
G03*
X865495Y756428I-8047J44D01*
G01*
X865479Y753837D02*
G03*
X865591Y755145I-8101J1353D01*
G01*
X865149Y752847D02*
G03*
X865479Y753837I-2968J1540D01*
G01*
X864504Y751974D02*
G03*
X865149Y752847I-2426J2467D01*
G01*
X863701Y751501D02*
G03*
X864504Y751974I-547J1845D01*
G01*
X862378Y751276D02*
G03*
X863701Y751501I-277J5623D01*
G01*
X859523Y751180D02*
G03*
X862378Y751276I-1616J90936D01*
G01*
X848775Y762443D02*
G03*
X848525Y760018I11305J-2395D01*
G01*
D02*
G03*
X848801Y757656I10470J27D01*
G01*
D02*
G03*
X849609Y755390I10455J2450D01*
G01*
D02*
G03*
X850930Y753249I11529J5636D01*
G01*
D02*
G03*
X852219Y751814I9485J7228D01*
G01*
D02*
G03*
X853683Y750659I7176J7584D01*
G01*
D02*
G03*
X855344Y749771I5837J8929D01*
G01*
D02*
G03*
X857222Y749136I5116J12028D01*
G01*
D02*
G03*
X860119Y748772I2892J11306D01*
G01*
D02*
G03*
X862930Y749160I-5J10431D01*
G01*
D02*
G03*
X865553Y750295I-2861J10202D01*
G01*
D02*
G03*
X867896Y752129I-6426J10625D01*
G01*
Y752129D02*
G03*
X869451Y753963I-10200J10224D01*
G01*
Y753963D02*
G03*
X870523Y755878I-8178J5837D01*
G01*
D02*
G03*
X871140Y757948I-8938J3791D01*
G01*
D02*
G03*
X871340Y760248I-12419J2236D01*
G01*
X871340D02*
G03*
X871277Y761682I-18446J-94D01*
G01*
X871277D02*
G03*
X871096Y762815I-7631J-634D01*
G01*
D02*
G03*
X870743Y763935I-7897J-1873D01*
G01*
X870743Y763935D02*
G03*
X870134Y765332I-21033J-8345D01*
G01*
X870134Y765332D02*
G03*
X868755Y767474I-9094J-4338D01*
G01*
D02*
G03*
X866845Y769276I-8695J-7303D01*
G01*
D02*
G03*
X864520Y770631I-7140J-9581D01*
G01*
D02*
G03*
X861919Y771454I-5089J-11558D01*
G01*
Y771454D02*
G03*
X857639Y771420I-2059J-10245D01*
G01*
Y771420D02*
G03*
X853622Y769686I2419J-11122D01*
G01*
D02*
G03*
X850500Y766528I6650J-9699D01*
G01*
D02*
G03*
X848775Y762443I9726J-6511D01*
G01*
X844473Y760246D02*
G03*
X844477Y758983I222859J0D01*
G01*
D02*
G03*
X844488Y757916I112952J642D01*
G01*
D02*
G03*
X844503Y756965I1047338J15833D01*
G01*
D02*
G03*
X844523Y756942I23J0D01*
G01*
Y756942D02*
G03*
X844563Y756939I61J482D01*
G01*
D02*
G03*
X845016Y756918I64852J1433884D01*
G01*
Y756918D02*
G03*
X845530Y756896I14189J315585D01*
G01*
Y756896D02*
G03*
X846130Y756870I25378J586296D01*
G01*
X847422Y759137D02*
G03*
X847530Y758026I17966J1180D01*
G01*
X847389Y760212D02*
G03*
X847422Y759137I15535J-57D01*
G01*
X847430Y761288D02*
G03*
X847389Y760212I15502J-1132D01*
G01*
X847546Y762398D02*
G03*
X847430Y761288I17888J-2426D01*
G01*
X849150Y766712D02*
G03*
X848854Y766147I10615J-5910D01*
G01*
X849473Y767258D02*
G03*
X849150Y766712I10175J-6392D01*
G01*
X849780Y767719D02*
G03*
X849473Y767258I8620J-6068D01*
G01*
X850004Y767978D02*
G03*
X849780Y767719I1156J-1231D01*
G01*
X850004Y767978D02*
G03*
X850184Y768162I-2002J2131D01*
G01*
Y768162D02*
G03*
X850335Y768351I-1722J1537D01*
G01*
Y768351D02*
G03*
X850444Y768521I-1545J1111D01*
G01*
D02*
G03*
X850473Y768630I-192J109D01*
G01*
D02*
G03*
X850423Y768765I-207J0D01*
G01*
Y768765D02*
G03*
X849933Y769321I-38003J-32963D01*
G01*
D02*
G03*
X849340Y769964I-19957J-17832D01*
G01*
Y769964D02*
G03*
X848635Y770687I-34141J-32575D01*
G01*
X847428Y771913D02*
G03*
X848635Y770687I108263J105385D01*
G01*
X847079Y772350D02*
G03*
X847428Y771913I2374J1534D01*
G01*
X847022Y772645D02*
G03*
X847079Y772350I396J-76D01*
G01*
X847173Y772949D02*
G03*
X847022Y772645I466J-422D01*
G01*
X853606Y771098D02*
G03*
X852185Y770161I4464J-8312D01*
G01*
X855420Y771945D02*
G03*
X853606Y771098I6652J-16609D01*
G01*
X857239Y772558D02*
G03*
X855420Y771945I4548J-16509D01*
G01*
X858646Y772748D02*
G03*
X857240Y772558I0J-5298D01*
G01*
X862592Y772510D02*
G03*
X861973Y772634I-2637J-11595D01*
G01*
X863294Y772337D02*
G03*
X862592Y772510I-5250J-19827D01*
G01*
X863970Y772145D02*
G03*
X863294Y772337I-5743J-18944D01*
G01*
X864502Y771964D02*
G03*
X863970Y772145I-2920J-7695D01*
G01*
X865483Y771522D02*
G03*
X864502Y771964I-4125J-7842D01*
G01*
X866681Y770846D02*
G03*
X865483Y771522I-12063J-19980D01*
G01*
X867793Y770141D02*
G03*
X866681Y770846I-16758J-25211D01*
G01*
X868174Y769747D02*
G03*
X867793Y770141I-1092J-675D01*
G01*
X868174Y769747D02*
G03*
X868323Y769716I89J55D01*
G01*
Y769716D02*
G03*
X868780Y770058I-4051J5889D01*
G01*
X868780D02*
G03*
X869414Y770614I-7035J8657D01*
G01*
Y770614D02*
G03*
X870297Y771472I-33264J35132D01*
G01*
X871319Y770694D02*
G03*
X870611Y769973I48638J-48437D01*
G01*
D02*
G03*
X870015Y769342I26989J-26098D01*
G01*
X870015Y769342D02*
G03*
X869511Y768792I73123J-67507D01*
G01*
X869510D02*
G03*
X869473Y768695I106J-96D01*
G01*
D02*
G03*
X869499Y768601I184J0D01*
G01*
Y768601D02*
G03*
X869679Y768305I12988J7710D01*
G01*
D02*
G03*
X869906Y767957I9277J5799D01*
G01*
D02*
G03*
X870175Y767572I14758J10025D01*
G01*
X871028Y766186D02*
G03*
X870175Y767572I-10134J-5281D01*
G01*
X871733Y764611D02*
G03*
X871028Y766186I-13497J-5092D01*
G01*
X872245Y762960D02*
G03*
X871733Y764611I-14047J-3455D01*
G01*
X872523Y761348D02*
G03*
X872245Y762960I-11547J-1160D01*
G01*
X872180Y757184D02*
G03*
X872418Y758474I-7939J2134D01*
G01*
X871715Y755766D02*
G03*
X872180Y757184I-12779J4978D01*
G01*
X871075Y754351D02*
G03*
X871715Y755766I-13054J6749D01*
G01*
X870312Y753068D02*
G03*
X871075Y754351I-10385J7046D01*
G01*
X872377Y747291D02*
G03*
X872672Y747458I-152J614D01*
G01*
X872090Y747339D02*
G03*
X872377Y747291I198J309D01*
G01*
X871660Y747680D02*
G03*
X872090Y747339I1898J1948D01*
G01*
X870419Y748903D02*
G03*
X871660Y747680I113507J113981D01*
G01*
X870419Y748903D02*
G03*
X869700Y749611I-59365J-59612D01*
G01*
D02*
G03*
X869075Y750206I-31600J-32502D01*
G01*
Y750206D02*
G03*
X868527Y750717I-99903J-106748D01*
G01*
Y750717D02*
G03*
X868447Y750749I-80J-86D01*
G01*
D02*
G03*
X868372Y750726I0J-138D01*
G01*
D02*
G03*
X868136Y750568I6353J-9722D01*
G01*
D02*
G03*
X867860Y750369I4776J-6931D01*
G01*
D02*
G03*
X867555Y750134I8299J-11062D01*
G01*
X866305Y749303D02*
G03*
X867555Y750134I-4254J7757D01*
G01*
X864810Y748604D02*
G03*
X866305Y749303I-4711J12016D01*
G01*
X863104Y748048D02*
G03*
X864810Y748604I-3853J14733D01*
G01*
X861223Y747652D02*
G03*
X863104Y748048I-3204J19839D01*
G01*
X856711Y748050D02*
G03*
X858523Y747659I5510J21137D01*
G01*
X855165Y748558D02*
G03*
X856711Y748050I4831J12095D01*
G01*
X853767Y749227D02*
G03*
X855165Y748558I5722J10158D01*
G01*
X852406Y750102D02*
G03*
X853767Y749227I8160J11195D01*
G01*
X849380Y753385D02*
G03*
X849716Y752872I17772J11286D01*
G01*
X849029Y753952D02*
G03*
X849380Y753385I25399J15336D01*
G01*
X848712Y754490D02*
G03*
X849029Y753952I23766J13623D01*
G01*
X848493Y754899D02*
G03*
X848712Y754490I7617J3832D01*
G01*
X820872Y760956D02*
G03*
X820723Y760351I9883J-2746D01*
G01*
D02*
G03*
X820704Y760004I1116J-238D01*
G01*
X820704D02*
G03*
X820788Y759656I1263J120D01*
G01*
X820788D02*
G03*
X821056Y759025I13273J5275D01*
G01*
X821056D02*
G03*
X821546Y758270I2752J1250D01*
G01*
D02*
G03*
X822290Y757595I3477J3082D01*
G01*
D02*
G03*
X823628Y756715I9917J13632D01*
G01*
D02*
G03*
X826673Y754939I156121J264094D01*
G01*
X831535Y752138D02*
G03*
X826673Y754939I-6484604J-11251505D01*
G01*
X836367Y749352D02*
G03*
X831535Y752138I-6393196J-11081862D01*
G01*
X841643Y746307D02*
G03*
X836367Y749352I-7771021J-13457886D01*
G01*
X847873Y742708D02*
G03*
X841643Y746307I-14997264J-25957954D01*
G01*
X866073Y732193D02*
G03*
X872959Y728231I1081180J1871116D01*
G01*
X872959Y728231D02*
G03*
X875141Y727082I17289J30176D01*
G01*
X875141Y727082D02*
G03*
X876435Y726644I2411J5000D01*
G01*
D02*
G03*
X877634Y726617I674J3280D01*
G01*
D02*
G03*
X878317Y726870I-292J1837D01*
G01*
D02*
G03*
X878983Y727403I-1803J2930D01*
G01*
D02*
G03*
X879530Y728120I-2738J2659D01*
G01*
D02*
G03*
X879864Y728913I-2743J1622D01*
G01*
D02*
G03*
X879972Y729710I-3039J818D01*
G01*
D02*
G03*
X880014Y736915I-4447189J29896D01*
G01*
D02*
G03*
X880038Y746424I-1837157J9372D01*
G01*
D02*
G03*
X880026Y760679I-8799537J-665D01*
G01*
D02*
G03*
X879984Y781000I-28864883J-48938D01*
G01*
D02*
G03*
X879928Y787712I-564296J-1354D01*
G01*
D02*
G03*
X879842Y791403I-201793J-2886D01*
G01*
D02*
G03*
X879573Y792327I-1946J-63D01*
G01*
D02*
G03*
X879062Y793030I-3896J-2295D01*
G01*
Y793030D02*
G03*
X878495Y793497I-1753J-1552D01*
G01*
D02*
G03*
X877825Y793755I-1122J-1910D01*
G01*
Y793755D02*
G03*
X877008Y793834I-765J-3671D01*
G01*
D02*
G03*
X876080Y793709I54J-3901D01*
G01*
Y793709D02*
G03*
X875134Y793362I1313J-5047D01*
G01*
Y793362D02*
G03*
X873652Y792584I10287J-21402D01*
G01*
D02*
G03*
X869773Y790357I403024J-706263D01*
G01*
X864203Y787139D02*
G03*
X869773Y790357I-12187579J21100349D01*
G01*
X858610Y783908D02*
G03*
X864203Y787139I-12420050J21515610D01*
G01*
X853728Y781091D02*
G03*
X858609Y783908I-11357402J19686204D01*
G01*
X850873Y779447D02*
G03*
X853728Y781091I-1461807J2540393D01*
G01*
X850873Y779447D02*
G03*
X849610Y778720I1873208J-3255360D01*
G01*
D02*
G03*
X848026Y777807I4654536J-8081674D01*
G01*
Y777807D02*
G03*
X846395Y776867I4795897J-8323376D01*
G01*
Y776867D02*
G03*
X844973Y776047I2769348J-4803928D01*
G01*
Y776047D02*
G03*
X828574Y766571I6210016J-10765237D01*
G01*
D02*
G03*
X823915Y763764I78557J-135703D01*
G01*
X823915D02*
G03*
X821679Y762177I12626J-20164D01*
G01*
X821679D02*
G03*
X820872Y760956I1488J-1859D01*
G01*
X817847Y758708D02*
G03*
X817964Y758301I2428J480D01*
G01*
X817770Y759222D02*
G03*
X817847Y758708I5575J571D01*
G01*
X817734Y759815D02*
G03*
X817770Y759222I7113J133D01*
G01*
X817743Y760459D02*
G03*
X817734Y759815I9894J-459D01*
G01*
X817807Y761233D02*
G03*
X817743Y760459I10600J-1268D01*
G01*
X817924Y761827D02*
G03*
X817807Y761233I3878J-1072D01*
G01*
X818127Y762389D02*
G03*
X817924Y761827I3547J-1599D01*
G01*
X818462Y763059D02*
G03*
X818127Y762389I8324J-4573D01*
G01*
X819375Y764348D02*
G03*
X818462Y763059I5155J-4623D01*
G01*
X820547Y765378D02*
G03*
X819375Y764348I3726J-5422D01*
G01*
X822748Y766772D02*
G03*
X820547Y765378I17490J-30048D01*
G01*
X829859Y770891D02*
G03*
X822748Y766772I1009116J-1750056D01*
G01*
X829859Y770891D02*
G03*
X833819Y773177I-3546763J6150901D01*
G01*
X850688Y782921D02*
G03*
X857673Y786957I-19036803J32949893D01*
G01*
X869560Y793809D02*
G03*
X857673Y786957I2917407J-5074561D01*
G01*
X873224Y795802D02*
G03*
X869560Y793809I40308J-78478D01*
G01*
X875318Y796667D02*
G03*
X873224Y795802I4162J-13044D01*
G01*
X877126Y796948D02*
G03*
X875318Y796667I0J-5949D01*
G01*
X879002Y796662D02*
G03*
X877126Y796948I-1875J-5999D01*
G01*
X880602Y795832D02*
G03*
X879002Y796662I-3141J-4095D01*
G01*
X881863Y794471D02*
G03*
X880602Y795832I-4611J-3008D01*
G01*
X882745Y792640D02*
G03*
X881863Y794471I-7478J-2472D01*
G01*
X882953Y791425D02*
G03*
X882745Y792639I-4132J-83D01*
G01*
X883018Y786852D02*
G03*
X882953Y791425I-396054J-3395D01*
G01*
X883049Y779012D02*
G03*
X883018Y786852I-840146J643D01*
G01*
X883026Y759839D02*
G03*
X883049Y779012I-21590730J35616D01*
G01*
X881974Y726137D02*
G03*
X882541Y727113I-4921J3512D01*
G01*
X881205Y725222D02*
G03*
X881974Y726137I-5403J5321D01*
G01*
X880323Y724460D02*
G03*
X881205Y725222I-4280J5845D01*
G01*
X879419Y723943D02*
G03*
X880323Y724460I-1840J4265D01*
G01*
X878321Y723616D02*
G03*
X879419Y723943I-834J4805D01*
G01*
X877029Y723499D02*
G03*
X878321Y723616I-71J7970D01*
G01*
X875719Y723593D02*
G03*
X877029Y723499I1237J8053D01*
G01*
X874564Y723899D02*
G03*
X875719Y723593I2004J5221D01*
G01*
X873656Y724319D02*
G03*
X874564Y723899I3609J6617D01*
G01*
X870852Y725861D02*
G03*
X873656Y724319I221196J398818D01*
G01*
X867930Y727505D02*
G03*
X870852Y725861I134229J235104D01*
G01*
X865473Y728941D02*
G03*
X867930Y727505I72451J121161D01*
G01*
X865473Y728941D02*
G03*
X864639Y729432I-34917J-58392D01*
G01*
X858057Y733242D02*
G03*
X851763Y736882I-7523646J-13001353D01*
G01*
D02*
G03*
X846973Y739647I-2562997J-4433951D01*
G01*
X844544Y741048D02*
G03*
X846973Y739647I5474518J9488978D01*
G01*
X841873Y742590D02*
G03*
X844544Y741048I8029985J13912079D01*
G01*
X839361Y744040D02*
G03*
X841873Y742590I7399524J12814093D01*
G01*
X837473Y745130D02*
G03*
X839361Y744040I2435318J4213020D01*
G01*
X837473Y745130D02*
G03*
X835542Y746245I-1040920J-1800734D01*
G01*
D02*
G03*
X832868Y747786I-3706074J-6427139D01*
G01*
D02*
G03*
X829971Y749455I-4050529J-7031328D01*
G01*
Y749455D02*
G03*
X827273Y751006I-3055899J-5309724D01*
G01*
X824804Y752438D02*
G03*
X827273Y751006I196504J336110D01*
G01*
X822597Y753743D02*
G03*
X824804Y752438I130233J217678D01*
G01*
X820751Y754856D02*
G03*
X822597Y753743I174718J287840D01*
G01*
X820200Y755238D02*
G03*
X820751Y754856I3392J4297D01*
G01*
X819544Y755847D02*
G03*
X820200Y755238I4140J3805D01*
G01*
X818905Y756625D02*
G03*
X819544Y755847I7224J5274D01*
G01*
X818355Y757475D02*
G03*
X818905Y756625I7846J4477D01*
G01*
X817964Y758301D02*
G03*
X818355Y757475I5609J2152D01*
G01*
X882986Y735838D02*
X883000Y788537D01*
X879909Y788812D02*
X880008Y735760D01*
X822748Y766772D02*
X873224Y795802D01*
X823915Y763765D02*
X875134Y793362D01*
X823628Y756715D02*
X874134Y727588D01*
X820751Y754856D02*
X872380Y725017D01*
X858057Y733242D02*
X864681Y729377D01*
X855673Y767182D02*
X859073Y766049D01*
X855673Y767182D02*
Y768165D01*
X864023Y766242D02*
X865473Y765702D01*
Y764664D02*
Y765702D01*
Y763625D02*
Y764664D01*
X860743Y761937D02*
X865473Y763625D01*
X855673Y751112D02*
X859523Y751180D01*
X855673Y751112D02*
Y752130D01*
Y753148D01*
X859282D01*
X855773Y757048D02*
X859365Y756994D01*
X855712Y758014D02*
X855773Y757048D01*
X855650Y758979D02*
X855712Y758014D01*
X855650Y758979D02*
X859648Y758914D01*
X844473Y763549D02*
X846088D01*
X844473Y760248D02*
Y763549D01*
X846130Y756870D02*
X847687Y756804D01*
X847530Y758026D02*
X847687Y756804D01*
X847546Y762398D02*
X847702Y763549D01*
X846088D02*
X847702D01*
X843273Y755749D02*
X845669D01*
X843273D02*
Y760248D01*
Y764749D01*
X845723Y764753D01*
X848173Y764757D01*
X848854Y766147D01*
X847173Y772949D02*
X847550Y773365D01*
X849474Y771448D01*
X851397Y769532D01*
X852185Y770161D01*
X858646Y772748D02*
X859262D01*
X859318Y775498D01*
X859373Y778249D01*
X859918Y778311D01*
X860462Y778374D01*
X860518Y775624D01*
X860573Y772875D01*
X861973Y772634D01*
X870297Y771472D02*
X872271Y773439D01*
X872718Y772993D01*
X873164Y772547D01*
X871319Y770694D02*
X873164Y772547D01*
X872523Y761348D02*
X872573Y760848D01*
X875273Y760749D01*
X877973Y760648D01*
Y760148D02*
Y760648D01*
Y759649D02*
Y760148D01*
X875251Y759593D02*
X877973Y759649D01*
X872528Y759538D02*
X875251Y759593D01*
X872418Y758474D02*
X872528Y759538D01*
X869315Y751599D02*
X870312Y753068D01*
X869315Y751599D02*
X871193Y749728D01*
X873072Y747858D01*
X872672Y747458D02*
X873072Y747858D01*
X860473Y747530D02*
X861223Y747651D01*
X860473Y744839D02*
Y747530D01*
Y742149D02*
Y744839D01*
X859873Y742149D02*
X860473D01*
X859273D02*
X859873D01*
X859273D02*
Y744839D01*
Y747530D01*
X858523Y747659D02*
X859273Y747530D01*
X851440Y750807D02*
X852406Y750102D01*
X849557Y748933D02*
X851440Y750807D01*
X847675Y747058D02*
X849557Y748933D01*
X847229Y747504D02*
X847675Y747058D01*
X846783Y747950D02*
X847229Y747504D01*
X846783Y747950D02*
X848648Y749823D01*
X850512Y751695D01*
X849716Y752872D02*
X850512Y751695D01*
X848065Y755749D02*
X848493Y754899D01*
X845669Y755749D02*
X848065D01*
X847873Y742708D02*
X851311Y740722D01*
X854611Y738816D01*
X857417Y737194D01*
X858873Y736353D01*
X882973Y728048D02*
X883026Y759839D01*
X882541Y727113D02*
X882973Y728048D01*
D11*
X14646182Y-54491841D02*
G03*
X14645609Y-54492827I41266484J-23842952D01*
G01*
X29280193Y86160D02*
G03*
X29280400Y86519I-44785605J25877285D01*
G01*
X43912578Y-54430825D02*
G03*
X43912466Y-54431021I24498467J-14155194D01*
G01*
X43914316Y-54427817D02*
G03*
X43914155Y-54428101I35528684J-20529280D01*
G01*
X-14570438Y-54486538D02*
G03*
X-14570498Y-54486436I-1192767J-688803D01*
G01*
X-14570421Y-54486567D02*
G03*
X-14571530Y-54484648I-17136123J-9897801D01*
G01*
X14683368Y-54421333D02*
G03*
X14680839Y-54425703I37671970J-21806035D01*
G01*
D12*
X14646781Y-54491240D02*
G03*
X14646208Y-54492231I41266484J-23842952D01*
G01*
X29280793Y86760D02*
G03*
X29281001Y87119I-44785605J25877285D01*
G01*
X43913179Y-54430225D02*
G03*
X43913066Y-54430420I24498467J-14155194D01*
G01*
X43914917Y-54427217D02*
G03*
X43914751Y-54427500I35528684J-20529280D01*
G01*
X-14569838Y-54485938D02*
G03*
X-14569899Y-54485835I-1192767J-688803D01*
G01*
X-14569821Y-54485967D02*
G03*
X-14570929Y-54484048I-17136123J-9897801D01*
G01*
X14683969Y-54420732D02*
G03*
X14681439Y-54425103I37671970J-21806035D01*
G01*
D13*
X813182Y330473D02*
Y360953D01*
X805570Y424498D02*
Y447358D01*
X813182Y1087160D02*
Y1117640D01*
Y892771D02*
Y923251D01*
Y689932D02*
Y720412D01*
Y503995D02*
Y534475D01*
X806004Y1187056D02*
Y1209916D01*
X805562Y997063D02*
Y1019923D01*
Y794222D02*
Y817082D01*
Y598895D02*
Y621755D01*
M02*
