G04*
G04 #@! TF.GenerationSoftware,Altium Limited,Altium Designer,20.1.14 (287)*
G04*
G04 Layer_Physical_Order=2*
G04 Layer_Color=16711680*
%FSLAX44Y44*%
%MOMM*%
G71*
G04*
G04 #@! TF.SameCoordinates,F9CCF83C-BBFD-4EAF-9253-F7A08A0B78FC*
G04*
G04*
G04 #@! TF.FilePolarity,Positive*
G04*
G01*
G75*
%ADD31R,1.5750X1.5750*%
%ADD32C,1.5750*%
%ADD33C,0.6500*%
%ADD34C,2.0000*%
G36*
X882338Y1298013D02*
X883721Y1297440D01*
X884966Y1296608D01*
X886025Y1295550D01*
X886857Y1294304D01*
X887430Y1292921D01*
X887722Y1291452D01*
Y1290704D01*
X887887Y1289874D01*
X888003Y1289037D01*
X888017Y1289012D01*
X888017Y233038D01*
Y232289D01*
X887725Y230820D01*
X887152Y229437D01*
X886320Y228191D01*
X885261Y227133D01*
X884016Y226301D01*
X882633Y225728D01*
X881164Y225435D01*
X693851D01*
X692382Y225728D01*
X690999Y226301D01*
X689753Y227133D01*
X688695Y228191D01*
X687863Y229436D01*
X687290Y230820D01*
X686998Y232289D01*
Y233038D01*
X686997Y1290720D01*
X686968Y1290867D01*
X686989Y1291015D01*
X686777Y1291829D01*
X686995Y1292921D01*
X687568Y1294304D01*
X688400Y1295549D01*
X689458Y1296608D01*
X690704Y1297440D01*
X692087Y1298013D01*
X693556Y1298306D01*
X880869D01*
X882338Y1298013D01*
D02*
G37*
%LPC*%
G36*
X757680Y1287831D02*
X755200Y1287505D01*
X752889Y1286548D01*
X750904Y1285025D01*
X749382Y1283040D01*
X748425Y1280730D01*
X748098Y1278250D01*
X748425Y1275770D01*
X749382Y1273458D01*
X750904Y1271474D01*
X752889Y1269951D01*
X755200Y1268994D01*
X757680Y1268668D01*
X760160Y1268994D01*
X762471Y1269951D01*
X764455Y1271474D01*
X765978Y1273458D01*
X766935Y1275770D01*
X767262Y1278250D01*
X766935Y1280730D01*
X765978Y1283040D01*
X764455Y1285025D01*
X762471Y1286548D01*
X760160Y1287505D01*
X757680Y1287831D01*
D02*
G37*
G36*
X778680Y1266860D02*
Y1263249D01*
X782291D01*
X780723Y1265292D01*
X778680Y1266860D01*
D02*
G37*
G36*
X768680D02*
X766637Y1265292D01*
X765069Y1263249D01*
X768680D01*
Y1266860D01*
D02*
G37*
G36*
X782290Y1253249D02*
X778680D01*
Y1249639D01*
X780723Y1251207D01*
X782290Y1253249D01*
D02*
G37*
G36*
X768680D02*
X765070D01*
X766637Y1251207D01*
X768680Y1249639D01*
Y1253249D01*
D02*
G37*
G36*
X808555Y1268124D02*
X788805D01*
Y1248374D01*
X808555D01*
Y1268124D01*
D02*
G37*
G36*
X868070Y1222702D02*
X864676Y1222255D01*
X861514Y1220946D01*
X858798Y1218862D01*
X856714Y1216146D01*
X855405Y1212984D01*
X854958Y1209590D01*
X855405Y1206196D01*
X856714Y1203034D01*
X858798Y1200318D01*
X861514Y1198234D01*
X864676Y1196925D01*
X868070Y1196478D01*
X871464Y1196925D01*
X874626Y1198234D01*
X877342Y1200318D01*
X879426Y1203034D01*
X880735Y1206196D01*
X881182Y1209590D01*
X880735Y1212984D01*
X879426Y1216146D01*
X877342Y1218862D01*
X874626Y1220946D01*
X871464Y1222255D01*
X868070Y1222702D01*
D02*
G37*
G36*
X705350D02*
X701956Y1222255D01*
X698794Y1220946D01*
X696078Y1218862D01*
X693995Y1216146D01*
X692685Y1212984D01*
X692238Y1209590D01*
X692685Y1206196D01*
X693995Y1203034D01*
X696078Y1200318D01*
X698794Y1198234D01*
X701956Y1196925D01*
X705350Y1196478D01*
X708744Y1196925D01*
X711906Y1198234D01*
X714622Y1200318D01*
X716705Y1203034D01*
X718015Y1206196D01*
X718462Y1209590D01*
X718015Y1212984D01*
X716705Y1216146D01*
X714622Y1218862D01*
X711906Y1220946D01*
X708744Y1222255D01*
X705350Y1222702D01*
D02*
G37*
G36*
X868070Y336492D02*
X864676Y336045D01*
X861514Y334735D01*
X858798Y332652D01*
X856714Y329936D01*
X855405Y326774D01*
X854958Y323380D01*
X855405Y319986D01*
X856714Y316824D01*
X858798Y314108D01*
X861514Y312024D01*
X864676Y310715D01*
X868070Y310268D01*
X871464Y310715D01*
X874626Y312024D01*
X877342Y314108D01*
X879426Y316824D01*
X880735Y319986D01*
X881182Y323380D01*
X880735Y326774D01*
X879426Y329936D01*
X877342Y332652D01*
X874626Y334735D01*
X871464Y336045D01*
X868070Y336492D01*
D02*
G37*
G36*
X705350D02*
X701956Y336045D01*
X698794Y334735D01*
X696078Y332652D01*
X693995Y329936D01*
X692685Y326774D01*
X692238Y323380D01*
X692685Y319986D01*
X693995Y316824D01*
X696078Y314108D01*
X698794Y312024D01*
X701956Y310715D01*
X705350Y310268D01*
X708744Y310715D01*
X711906Y312024D01*
X714622Y314108D01*
X716705Y316824D01*
X718015Y319986D01*
X718462Y323380D01*
X718015Y326774D01*
X716705Y329936D01*
X714622Y332652D01*
X711906Y334735D01*
X708744Y336045D01*
X705350Y336492D01*
D02*
G37*
G36*
X757680Y298745D02*
X755200Y298419D01*
X752889Y297462D01*
X750904Y295939D01*
X749382Y293955D01*
X748425Y291644D01*
X748098Y289163D01*
X748425Y286684D01*
X749382Y284373D01*
X750904Y282388D01*
X752889Y280865D01*
X755200Y279908D01*
X757680Y279582D01*
X760160Y279908D01*
X762471Y280865D01*
X764455Y282388D01*
X765978Y284373D01*
X766935Y286684D01*
X767262Y289163D01*
X766935Y291644D01*
X765978Y293955D01*
X764455Y295939D01*
X762471Y297462D01*
X760160Y298419D01*
X757680Y298745D01*
D02*
G37*
G36*
X778680Y277774D02*
Y274163D01*
X782290D01*
X780723Y276206D01*
X778680Y277774D01*
D02*
G37*
G36*
X768680D02*
X766637Y276206D01*
X765070Y274163D01*
X768680D01*
Y277774D01*
D02*
G37*
G36*
X782290Y264163D02*
X778680D01*
Y260553D01*
X780723Y262120D01*
X782290Y264163D01*
D02*
G37*
G36*
X768680D02*
X765070D01*
X766637Y262120D01*
X768680Y260553D01*
Y264163D01*
D02*
G37*
G36*
X808555Y279039D02*
X788805D01*
Y259289D01*
X808555D01*
Y279039D01*
D02*
G37*
%LPD*%
D31*
X798680Y1258250D02*
D03*
Y269163D02*
D03*
D32*
X773680Y1258250D02*
D03*
Y269163D02*
D03*
D33*
X757680Y1278250D02*
D03*
Y289163D02*
D03*
D34*
X705350Y1209590D02*
D03*
X868070D02*
D03*
Y323380D02*
D03*
X705350D02*
D03*
M02*
