G04*
G04 #@! TF.GenerationSoftware,Altium Limited,Altium Designer,20.1.14 (287)*
G04*
G04 Layer_Color=32896*
%FSLAX44Y44*%
%MOMM*%
G71*
G04*
G04 #@! TF.SameCoordinates,F9CCF83C-BBFD-4EAF-9253-F7A08A0B78FC*
G04*
G04*
G04 #@! TF.FilePolarity,Positive*
G04*
G01*
G75*
%ADD35C,0.1000*%
G36*
X797240Y701728D02*
X797920Y701631D01*
X798503Y701534D01*
X798989Y701388D01*
X799378Y701291D01*
X799572Y701242D01*
X799669Y701194D01*
X800301Y700902D01*
X800884Y700562D01*
X801419Y700222D01*
X801807Y699882D01*
X802148Y699590D01*
X802439Y699347D01*
X802585Y699202D01*
X802633Y699153D01*
X803022Y698618D01*
X803411Y698084D01*
X803702Y697549D01*
X803897Y697064D01*
X804091Y696626D01*
X804237Y696286D01*
X804285Y696092D01*
X804334Y695994D01*
X804528Y695314D01*
X804674Y694585D01*
X804771Y693905D01*
X804820Y693322D01*
X804868Y692788D01*
X804917Y692350D01*
Y692010D01*
X804868Y691038D01*
X804771Y690067D01*
X804674Y689192D01*
X804480Y688366D01*
X804334Y687734D01*
X804237Y687200D01*
X804188Y687005D01*
X804140Y686860D01*
X804091Y686811D01*
Y686762D01*
X803751Y685839D01*
X803459Y684916D01*
X803168Y684138D01*
X802876Y683458D01*
X802633Y682875D01*
X802439Y682438D01*
X802342Y682146D01*
X802293Y682049D01*
X801905Y681126D01*
X801516Y680251D01*
X801127Y679425D01*
X800787Y678696D01*
X800447Y678113D01*
X800204Y677627D01*
X800058Y677336D01*
X800010Y677287D01*
Y677239D01*
X799086Y675490D01*
X798649Y674712D01*
X798212Y673935D01*
X797871Y673352D01*
X797580Y672866D01*
X797483Y672671D01*
X797386Y672525D01*
X797337Y672477D01*
Y672428D01*
X796900Y671748D01*
X796511Y671116D01*
X796365Y670873D01*
X796219Y670679D01*
X796171Y670533D01*
X796122Y670485D01*
X795588Y669707D01*
X795102Y668978D01*
X794908Y668638D01*
X794762Y668395D01*
X794665Y668250D01*
X794616Y668201D01*
X793158Y666257D01*
X793061Y666160D01*
X793012Y666063D01*
X792770Y665771D01*
X792721Y665723D01*
X792672Y665674D01*
X792381Y665383D01*
X792284Y665285D01*
X792235Y665237D01*
X792041Y665140D01*
X791846Y665091D01*
X791652Y665140D01*
X791603D01*
X791506Y665237D01*
X791458Y665383D01*
Y665626D01*
X791506Y665820D01*
X791555Y665917D01*
X791701Y666257D01*
X791846Y666549D01*
X791944Y666743D01*
X791992Y666840D01*
X792138Y667132D01*
X792235Y667375D01*
X792332Y667569D01*
X792381Y667618D01*
X792478Y667812D01*
X792575Y667958D01*
X792624Y668007D01*
X793255Y669124D01*
X793547Y669659D01*
X793790Y670096D01*
X793984Y670485D01*
X794179Y670776D01*
X794276Y671019D01*
X794324Y671068D01*
X794810Y671942D01*
X795248Y672768D01*
X795685Y673546D01*
X796025Y674275D01*
X796365Y674858D01*
X796608Y675344D01*
X796754Y675635D01*
X796803Y675684D01*
Y675732D01*
X797240Y676607D01*
X797629Y677482D01*
X797969Y678259D01*
X798309Y678939D01*
X798552Y679571D01*
X798746Y680008D01*
X798892Y680300D01*
X798941Y680349D01*
Y680397D01*
X799329Y681272D01*
X799669Y682146D01*
X799961Y682972D01*
X800253Y683701D01*
X800447Y684333D01*
X800641Y684819D01*
X800690Y685013D01*
X800738Y685159D01*
X800787Y685208D01*
Y685256D01*
X801078Y686179D01*
X801321Y687054D01*
X801516Y687880D01*
X801710Y688657D01*
X801807Y689289D01*
X801905Y689775D01*
Y689969D01*
X801953Y690115D01*
Y690212D01*
X802050Y690941D01*
X802099Y691573D01*
Y692253D01*
X802050Y692982D01*
X802002Y693614D01*
X801953Y693905D01*
Y694100D01*
X801905Y694197D01*
Y694245D01*
X801759Y694926D01*
X801564Y695509D01*
X801467Y695752D01*
X801370Y695897D01*
X801321Y695994D01*
Y696043D01*
X800933Y696578D01*
X800544Y696966D01*
X800253Y697258D01*
X800155Y697307D01*
X800107Y697355D01*
X799718Y697598D01*
X799281Y697841D01*
X798892Y697987D01*
X798503Y698132D01*
X798212Y698230D01*
X797969Y698278D01*
X797774Y698327D01*
X797726D01*
X796803Y698375D01*
X796365D01*
X795976D01*
X795636D01*
X795393Y698327D01*
X795199D01*
X795151D01*
X794373Y698230D01*
X793644Y698084D01*
X792915Y697890D01*
X792332Y697744D01*
X791798Y697549D01*
X791409Y697452D01*
X791166Y697355D01*
X791069Y697307D01*
X790340Y697015D01*
X789611Y696723D01*
X788979Y696432D01*
X788445Y696140D01*
X788008Y695897D01*
X787668Y695703D01*
X787473Y695606D01*
X787376Y695557D01*
X786501Y695071D01*
X785724Y694585D01*
X784995Y694100D01*
X784363Y693711D01*
X783829Y693371D01*
X783440Y693079D01*
X783197Y692885D01*
X783100Y692836D01*
X782371Y692302D01*
X781691Y691767D01*
X781059Y691281D01*
X780476Y690795D01*
X779990Y690407D01*
X779650Y690115D01*
X779407Y689872D01*
X779310Y689824D01*
X778581Y689143D01*
X777852Y688463D01*
X777172Y687783D01*
X776492Y687151D01*
X775957Y686568D01*
X775520Y686131D01*
X775229Y685839D01*
X775180Y685791D01*
X775131Y685742D01*
X774257Y684819D01*
X773479Y683944D01*
X772750Y683070D01*
X772119Y682292D01*
X771584Y681660D01*
X771196Y681126D01*
X771050Y680932D01*
X770953Y680786D01*
X770855Y680737D01*
Y680689D01*
X770175Y679668D01*
X769543Y678696D01*
X768960Y677773D01*
X768475Y676899D01*
X768134Y676218D01*
X767940Y675878D01*
X767843Y675635D01*
X767746Y675441D01*
X767648Y675295D01*
X767600Y675198D01*
Y675149D01*
X767162Y674080D01*
X766822Y673060D01*
X766579Y672088D01*
X766434Y671262D01*
X766337Y670533D01*
X766288Y670242D01*
Y669999D01*
X766239Y669804D01*
Y668930D01*
X766288Y668444D01*
Y668250D01*
X766337Y668104D01*
Y667958D01*
X766482Y667326D01*
X766677Y666840D01*
X766774Y666598D01*
X766871Y666452D01*
X766920Y666355D01*
Y666306D01*
X767308Y665771D01*
X767697Y665431D01*
X767989Y665188D01*
X768086Y665140D01*
X768134D01*
X768669Y664897D01*
X769203Y664751D01*
X769398Y664703D01*
X769592Y664654D01*
X769689D01*
X769738D01*
X770418Y664605D01*
X771001Y664654D01*
X771244Y664703D01*
X771439D01*
X771584Y664751D01*
X771633D01*
X772362Y664897D01*
X772993Y665091D01*
X773236Y665188D01*
X773431Y665237D01*
X773576Y665285D01*
X773625D01*
X774354Y665528D01*
X774986Y665771D01*
X775277Y665869D01*
X775471Y665917D01*
X775569Y666014D01*
X775617D01*
X776298Y666306D01*
X776832Y666500D01*
X777075Y666598D01*
X777221Y666646D01*
X777318Y666695D01*
X777366D01*
X778873Y667375D01*
X780282Y668152D01*
X781594Y668881D01*
X782711Y669561D01*
X783197Y669853D01*
X783635Y670145D01*
X784023Y670436D01*
X784363Y670630D01*
X784655Y670825D01*
X784849Y670971D01*
X784947Y671019D01*
X784995Y671068D01*
X786307Y672040D01*
X787473Y673011D01*
X788591Y673983D01*
X789514Y674858D01*
X790292Y675635D01*
X790632Y675975D01*
X790923Y676267D01*
X791117Y676510D01*
X791263Y676656D01*
X791360Y676753D01*
X791409Y676801D01*
X791701Y677190D01*
X792089Y677627D01*
X792381Y677919D01*
X792429Y678016D01*
X792478Y678065D01*
X792964Y678648D01*
X793401Y679182D01*
X793596Y679425D01*
X793741Y679620D01*
X793790Y679717D01*
X793839Y679765D01*
X794324Y680397D01*
X794665Y680932D01*
X794810Y681174D01*
X794908Y681320D01*
X795005Y681417D01*
Y681466D01*
X795296Y682049D01*
X795442Y682486D01*
X795539Y682778D01*
Y682875D01*
X795442Y682729D01*
X795248Y682681D01*
X795053Y682632D01*
X794956D01*
X794713Y682584D01*
X794422Y682535D01*
X793790Y682389D01*
X793547Y682292D01*
X793304Y682243D01*
X793158Y682195D01*
X793110D01*
X792089Y681903D01*
X791603Y681709D01*
X791117Y681563D01*
X790729Y681417D01*
X790437Y681272D01*
X790194Y681223D01*
X790146Y681174D01*
X788931Y680592D01*
X788348Y680349D01*
X787862Y680057D01*
X787425Y679863D01*
X787133Y679668D01*
X786890Y679571D01*
X786842Y679522D01*
X785627Y678794D01*
X785092Y678454D01*
X784606Y678113D01*
X784218Y677870D01*
X783878Y677627D01*
X783683Y677482D01*
X783635Y677433D01*
X783100Y676947D01*
X782566Y676510D01*
X782128Y676073D01*
X781740Y675684D01*
X781448Y675295D01*
X781254Y675052D01*
X781108Y674858D01*
X781059Y674809D01*
X780914Y674663D01*
X780671Y674518D01*
X780476Y674469D01*
X780379Y674420D01*
X780185Y674372D01*
X780039D01*
X779796Y674469D01*
X779650Y674566D01*
X779602Y674663D01*
X779553Y675052D01*
X779602Y675392D01*
X779699Y675684D01*
X779747Y675732D01*
Y675781D01*
X779990Y676267D01*
X780233Y676704D01*
X780331Y676899D01*
X780379Y676996D01*
X780476Y677093D01*
Y677141D01*
X780816Y677676D01*
X781156Y678211D01*
X781302Y678405D01*
X781448Y678551D01*
X781497Y678648D01*
X781545Y678696D01*
X781982Y679279D01*
X782274Y679717D01*
X782517Y680008D01*
X782566Y680057D01*
Y680106D01*
X782857Y680494D01*
X783100Y680834D01*
X783295Y681029D01*
X783343Y681126D01*
X783586Y681417D01*
X783732Y681563D01*
X783829Y681660D01*
X784412Y682292D01*
X784898Y682875D01*
X785092Y683070D01*
X785238Y683215D01*
X785287Y683313D01*
X785335Y683361D01*
X785821Y683896D01*
X786210Y684430D01*
X786356Y684624D01*
X786501Y684770D01*
X786550Y684867D01*
X786599Y684916D01*
X787036Y685548D01*
X787376Y686131D01*
X787522Y686374D01*
X787619Y686568D01*
X787668Y686665D01*
X787716Y686714D01*
X788105Y687346D01*
X788424Y687801D01*
X788396Y687783D01*
X788348Y687734D01*
X788008Y687491D01*
X787668Y687248D01*
X787425Y687054D01*
X787376Y687005D01*
X787327D01*
X786696Y686519D01*
X786161Y686082D01*
X785627Y685645D01*
X785190Y685256D01*
X784801Y684916D01*
X784509Y684673D01*
X784315Y684479D01*
X784266Y684430D01*
X783246Y683410D01*
X782809Y682924D01*
X782371Y682486D01*
X782031Y682146D01*
X781788Y681806D01*
X781594Y681612D01*
X781545Y681563D01*
X780719Y680592D01*
X780379Y680106D01*
X780039Y679668D01*
X779796Y679279D01*
X779602Y678988D01*
X779456Y678794D01*
X779407Y678745D01*
X779067Y678162D01*
X778776Y677579D01*
X778533Y676996D01*
X778387Y676510D01*
X778241Y676073D01*
X778193Y675732D01*
X778144Y675538D01*
Y675441D01*
X778193Y675101D01*
X778290Y674809D01*
X778338Y674566D01*
X778387Y674469D01*
Y674129D01*
X778290Y673886D01*
X778193Y673789D01*
X778144D01*
X777901Y673740D01*
X777755Y673789D01*
X777707Y673837D01*
X777658D01*
X777415Y673983D01*
X777366Y674032D01*
X777221Y674129D01*
X777172Y674177D01*
X776881Y674615D01*
X776686Y675004D01*
X776589Y675295D01*
X776540Y675344D01*
Y675392D01*
X776443Y675878D01*
Y676801D01*
X776492Y677287D01*
X776589Y677725D01*
X776638Y678065D01*
X776686Y678113D01*
Y678162D01*
X776783Y678648D01*
X776881Y678988D01*
X776929Y679231D01*
X776978Y679328D01*
X777561Y680592D01*
X777852Y681174D01*
X778144Y681709D01*
X778387Y682146D01*
X778581Y682535D01*
X778727Y682729D01*
X778776Y682827D01*
X779213Y683507D01*
X779602Y684138D01*
X780039Y684673D01*
X780428Y685208D01*
X780768Y685645D01*
X781059Y685936D01*
X781254Y686131D01*
X781302Y686228D01*
X781837Y686811D01*
X782420Y687346D01*
X782906Y687831D01*
X783392Y688269D01*
X783829Y688657D01*
X784120Y688900D01*
X784315Y689095D01*
X784412Y689143D01*
X785044Y689581D01*
X785627Y689969D01*
X786210Y690261D01*
X786744Y690552D01*
X787182Y690747D01*
X787570Y690893D01*
X787765Y690941D01*
X787862Y690990D01*
X788445Y691135D01*
X789028Y691184D01*
X789271Y691233D01*
X789417D01*
X789563D01*
X789611D01*
X789951Y691184D01*
X790243Y691087D01*
X790680Y690844D01*
X790923Y690552D01*
X791020Y690504D01*
Y690455D01*
X791215Y690067D01*
X791360Y689678D01*
X791458Y689338D01*
Y688609D01*
X791409Y688512D01*
Y688463D01*
X791117Y687783D01*
X790826Y687248D01*
X790680Y687005D01*
X790534Y686860D01*
X790486Y686762D01*
X790437Y686714D01*
X789611Y685693D01*
X789222Y685256D01*
X788834Y684867D01*
X788542Y684527D01*
X788299Y684236D01*
X788105Y684090D01*
X788056Y684041D01*
X787570Y683604D01*
X787372Y683445D01*
X787425Y683458D01*
X787473Y683507D01*
X788494Y683896D01*
X788931Y684090D01*
X789368Y684187D01*
X789708Y684333D01*
X789951Y684430D01*
X790146Y684479D01*
X790194D01*
X791117Y684722D01*
X791506Y684819D01*
X791846Y684916D01*
X792138Y684965D01*
X792381Y685013D01*
X792527Y685062D01*
X792575D01*
X792964Y685110D01*
X793255Y685159D01*
X793547Y685208D01*
X793790D01*
X793936Y685256D01*
X794081D01*
X794130D01*
X794179D01*
X794713D01*
X795151Y685208D01*
X795539Y685110D01*
X795831Y685013D01*
X796074Y684916D01*
X796268Y684819D01*
X796365Y684722D01*
X796414D01*
X796657Y684479D01*
X796851Y684187D01*
X797143Y683701D01*
X797191Y683507D01*
X797240Y683313D01*
X797288Y683215D01*
Y683167D01*
X797337Y682486D01*
Y681855D01*
X797288Y681612D01*
Y681417D01*
X797240Y681320D01*
Y681272D01*
X797046Y680592D01*
X796803Y680008D01*
X796705Y679814D01*
X796608Y679668D01*
X796560Y679571D01*
Y679522D01*
X795588Y677870D01*
X794616Y676364D01*
X793693Y675004D01*
X793255Y674420D01*
X792818Y673837D01*
X792429Y673352D01*
X792041Y672914D01*
X791749Y672525D01*
X791458Y672234D01*
X791215Y671991D01*
X791069Y671797D01*
X790972Y671699D01*
X790923Y671651D01*
X789708Y670485D01*
X788445Y669367D01*
X787230Y668395D01*
X786113Y667521D01*
X785627Y667132D01*
X785141Y666792D01*
X784752Y666500D01*
X784412Y666257D01*
X784120Y666063D01*
X783926Y665917D01*
X783780Y665869D01*
X783732Y665820D01*
X782371Y664994D01*
X781788Y664605D01*
X781205Y664314D01*
X780719Y664022D01*
X780379Y663828D01*
X780136Y663731D01*
X780039Y663682D01*
X778630Y663002D01*
X777998Y662759D01*
X777415Y662516D01*
X776929Y662321D01*
X776589Y662176D01*
X776346Y662127D01*
X776249Y662079D01*
X775569Y661836D01*
X774937Y661641D01*
X774305Y661496D01*
X773819Y661398D01*
X773382Y661350D01*
X773042Y661301D01*
X772848Y661253D01*
X772750D01*
X772119Y661204D01*
X771487Y661253D01*
X770953Y661301D01*
X770418Y661350D01*
X770029Y661398D01*
X769689Y661496D01*
X769446Y661544D01*
X769398D01*
X768766Y661739D01*
X768134Y662030D01*
X767600Y662321D01*
X767162Y662613D01*
X766774Y662905D01*
X766531Y663099D01*
X766337Y663293D01*
X766288Y663342D01*
X765802Y663828D01*
X765413Y664362D01*
X765073Y664800D01*
X764830Y665237D01*
X764636Y665577D01*
X764490Y665869D01*
X764393Y666063D01*
Y666112D01*
X764150Y666840D01*
X764004Y667521D01*
X763907Y668201D01*
X763810Y668784D01*
Y670047D01*
X763956Y671505D01*
X764053Y672185D01*
X764150Y672768D01*
X764247Y673303D01*
X764344Y673692D01*
X764393Y673935D01*
X764442Y674032D01*
X764636Y674761D01*
X764879Y675441D01*
X765122Y676073D01*
X765316Y676607D01*
X765510Y677093D01*
X765656Y677482D01*
X765753Y677676D01*
X765802Y677773D01*
X766094Y678405D01*
X766385Y678988D01*
X766677Y679571D01*
X766920Y680008D01*
X767114Y680446D01*
X767308Y680737D01*
X767405Y680932D01*
X767454Y680980D01*
X767891Y681758D01*
X768329Y682438D01*
X768766Y683118D01*
X769203Y683701D01*
X769543Y684187D01*
X769835Y684576D01*
X770029Y684819D01*
X770078Y684916D01*
X770612Y685596D01*
X771196Y686276D01*
X771681Y686908D01*
X772167Y687443D01*
X772605Y687880D01*
X772896Y688220D01*
X773091Y688415D01*
X773188Y688512D01*
X774354Y689726D01*
X775471Y690844D01*
X776589Y691864D01*
X777561Y692739D01*
X778436Y693468D01*
X778776Y693808D01*
X779116Y694051D01*
X779359Y694245D01*
X779553Y694391D01*
X779650Y694488D01*
X779699Y694537D01*
X781011Y695509D01*
X782323Y696432D01*
X783537Y697209D01*
X784655Y697890D01*
X785190Y698181D01*
X785627Y698473D01*
X786015Y698667D01*
X786356Y698861D01*
X786647Y699007D01*
X786842Y699104D01*
X786987Y699202D01*
X787036D01*
X787862Y699590D01*
X788639Y699930D01*
X789368Y700222D01*
X790000Y700465D01*
X790534Y700659D01*
X790972Y700805D01*
X791215Y700902D01*
X791263Y700951D01*
X791312D01*
X792089Y701194D01*
X792867Y701388D01*
X793596Y701485D01*
X794227Y701631D01*
X794810Y701680D01*
X795248Y701728D01*
X795539Y701777D01*
X795588D01*
X795636D01*
X796462D01*
X797240Y701728D01*
D02*
G37*
G36*
X796462Y630738D02*
X796705Y630689D01*
X797094Y630446D01*
X797288Y630252D01*
X797386Y630203D01*
Y630155D01*
X797531Y629815D01*
X797629Y629572D01*
X797677Y629377D01*
Y629280D01*
X797629Y628940D01*
X797580Y628648D01*
X797531Y628454D01*
Y628406D01*
X797386Y628114D01*
X797240Y627822D01*
X797143Y627628D01*
X797094Y627579D01*
X796900Y627288D01*
X796754Y627094D01*
X796657Y626996D01*
X796608Y626948D01*
X796074Y626268D01*
X795636Y625636D01*
X795442Y625393D01*
X795296Y625199D01*
X795199Y625101D01*
X795151Y625053D01*
X794567Y624373D01*
X794033Y623741D01*
X793839Y623547D01*
X793693Y623352D01*
X793596Y623255D01*
X793547Y623206D01*
X793372Y622973D01*
X793547Y623061D01*
X794081Y623352D01*
X794324Y623449D01*
X794470Y623547D01*
X794567Y623595D01*
X794616D01*
X795102Y623789D01*
X795539Y623935D01*
X795831Y623984D01*
X795879Y624033D01*
X795928D01*
X796122D01*
X796365D01*
X796705Y623887D01*
X796997Y623741D01*
X797046Y623692D01*
X797094D01*
X797386Y623352D01*
X797580Y622963D01*
X797629Y622672D01*
X797677Y622623D01*
Y622575D01*
X797726Y622332D01*
X797677Y622089D01*
X797580Y621700D01*
X797434Y621457D01*
X797386Y621360D01*
X797288Y621263D01*
X797191Y621117D01*
X797094Y620971D01*
X797046Y620923D01*
X796900Y620680D01*
X796754Y620534D01*
X796705Y620485D01*
X796657Y620437D01*
X796219Y619951D01*
X795879Y619562D01*
X795636Y619319D01*
X795539Y619222D01*
X795151Y618785D01*
X794810Y618347D01*
X794616Y618056D01*
X794519Y618007D01*
Y617959D01*
X793839Y617133D01*
X793383Y616607D01*
X793353Y616550D01*
X793110Y616112D01*
X792867Y615723D01*
X792672Y615335D01*
X792527Y615092D01*
X792429Y614897D01*
X792381Y614849D01*
X791701Y613780D01*
X791360Y613245D01*
X791069Y612808D01*
X790826Y612419D01*
X790632Y612079D01*
X790486Y611885D01*
X790437Y611836D01*
X790049Y611302D01*
X789660Y610864D01*
X789320Y610573D01*
X789028Y610281D01*
X788785Y610136D01*
X788591Y610038D01*
X788506Y609953D01*
X788931Y610038D01*
X789417Y610136D01*
X789660Y610184D01*
X789854D01*
X789951Y610233D01*
X790000D01*
X790729Y610330D01*
X791360Y610427D01*
X791652Y610476D01*
X791846D01*
X791944Y610524D01*
X791992D01*
X792624Y610719D01*
X793207Y610962D01*
X793450Y611059D01*
X793644Y611156D01*
X793741Y611205D01*
X793790Y611253D01*
X794373Y611739D01*
X794859Y612176D01*
X795053Y612371D01*
X795199Y612517D01*
X795248Y612614D01*
X795296Y612662D01*
X795588Y613245D01*
X795782Y613780D01*
X795831Y614023D01*
X795879Y614217D01*
Y614363D01*
X795831Y614800D01*
X795782Y615189D01*
X795734Y615432D01*
Y615529D01*
X795685Y615626D01*
X795636Y615821D01*
X795588Y616015D01*
Y616112D01*
X795539Y616307D01*
Y616501D01*
X795588Y616695D01*
X795685Y616841D01*
X795734Y616890D01*
X795976D01*
X796171Y616841D01*
X796317Y616792D01*
X796365Y616744D01*
X796560Y616550D01*
X796705Y616404D01*
X796754Y616258D01*
X796803Y616209D01*
X796900Y616015D01*
X796997Y615869D01*
X797046Y615772D01*
X797094Y615723D01*
X797143Y615626D01*
X797191Y615529D01*
X797386Y615092D01*
X797531Y614606D01*
X797580Y614412D01*
X797629Y614266D01*
Y613488D01*
X797580Y612857D01*
X797434Y612274D01*
X797337Y611788D01*
X797191Y611350D01*
X797046Y611010D01*
X796997Y610816D01*
X796948Y610719D01*
X796657Y610233D01*
X796317Y609747D01*
X795976Y609358D01*
X795636Y609018D01*
X795345Y608775D01*
X795102Y608532D01*
X794908Y608435D01*
X794859Y608386D01*
X793839Y607803D01*
X793304Y607560D01*
X792867Y607366D01*
X792478Y607220D01*
X792187Y607123D01*
X791944Y607026D01*
X791895D01*
X791312Y606880D01*
X790826Y606734D01*
X790632Y606686D01*
X790486D01*
X790389Y606637D01*
X790340D01*
X789757Y606443D01*
X789271Y606297D01*
X789125Y606248D01*
X788979Y606200D01*
X788882Y606151D01*
X788834D01*
X788154Y605957D01*
X787619Y605762D01*
X787425Y605665D01*
X787279Y605617D01*
X787182Y605568D01*
X787133D01*
X786599Y605325D01*
X786210Y605131D01*
X785918Y604985D01*
X785870Y604936D01*
X785821D01*
X785530Y604791D01*
X785335Y604596D01*
X785190Y604451D01*
X785141Y604402D01*
X784947Y604159D01*
X784752Y603916D01*
X784606Y603770D01*
X784558Y603722D01*
X784315Y603479D01*
X784023Y603284D01*
X783829Y603187D01*
X783780Y603139D01*
X783392Y602993D01*
X783052Y602944D01*
X782809D01*
X782760D01*
X782711D01*
X782225Y603041D01*
X781788Y603236D01*
X781545Y603430D01*
X781448Y603479D01*
Y603527D01*
X781254Y603722D01*
X781156Y603965D01*
X780962Y604353D01*
X780914Y604645D01*
Y604791D01*
X780962Y605374D01*
X781108Y605811D01*
X781156Y606006D01*
X781254Y606151D01*
X781302Y606200D01*
Y606248D01*
X781594Y606686D01*
X781885Y607026D01*
X782080Y607269D01*
X782177Y607366D01*
X782614Y607706D01*
X782954Y607949D01*
X783197Y608144D01*
X783295Y608192D01*
X783683Y608435D01*
X784023Y608678D01*
X784315Y608872D01*
X784412Y608969D01*
X784461D01*
X785044Y609407D01*
X785578Y609844D01*
X786113Y610330D01*
X786599Y610767D01*
X786987Y611156D01*
X787279Y611496D01*
X787522Y611690D01*
X787570Y611788D01*
X788639Y613051D01*
X789125Y613586D01*
X789563Y614120D01*
X789733Y614314D01*
X789854Y614557D01*
X790049Y614849D01*
X790146Y615092D01*
X790243Y615238D01*
X790292Y615286D01*
X790826Y616161D01*
X791069Y616598D01*
X791312Y616938D01*
X791555Y617278D01*
X791656Y617447D01*
X791506Y617327D01*
X791360Y617181D01*
X791263Y617133D01*
X791215Y617084D01*
X790534Y616501D01*
X789903Y616015D01*
X789660Y615821D01*
X789465Y615675D01*
X789368Y615578D01*
X789320Y615529D01*
X788591Y614946D01*
X788056Y614460D01*
X787813Y614266D01*
X787668Y614120D01*
X787570Y614072D01*
X787522Y614023D01*
X787473Y613974D01*
X787376Y613926D01*
X787327Y613829D01*
X787279D01*
X786987Y613586D01*
X786939Y613488D01*
X786890D01*
X786744Y613343D01*
X786599Y613245D01*
X786453Y613148D01*
X786404Y613100D01*
X786161Y612905D01*
X785967Y612857D01*
X785918Y612808D01*
X785870D01*
X785578D01*
X785287Y612905D01*
X785092Y613003D01*
X785044Y613051D01*
X784898Y613197D01*
X784801Y613343D01*
X784752Y613634D01*
Y613926D01*
X784801Y614120D01*
X784898Y614314D01*
X784995Y614460D01*
X785044Y614509D01*
X785238Y614752D01*
X785384Y615043D01*
X785530Y615189D01*
X785578Y615286D01*
X785773Y615578D01*
X785967Y615869D01*
X786113Y616064D01*
X786161Y616112D01*
X786356Y616355D01*
X786501Y616550D01*
X786599Y616695D01*
X786647Y616744D01*
X787182Y617376D01*
X787668Y618007D01*
X787862Y618250D01*
X788008Y618445D01*
X788056Y618542D01*
X788105Y618590D01*
X788591Y619271D01*
X789028Y619854D01*
X789222Y620097D01*
X789368Y620242D01*
X789417Y620340D01*
X789465Y620388D01*
X790437Y621700D01*
X790874Y622283D01*
X791263Y622818D01*
X791603Y623304D01*
X791895Y623644D01*
X792089Y623887D01*
X792138Y623984D01*
X792624Y624616D01*
X793110Y625199D01*
X793498Y625685D01*
X793839Y626073D01*
X794081Y626365D01*
X794324Y626559D01*
X794422Y626705D01*
X794470Y626754D01*
X793936Y626316D01*
X793353Y625928D01*
X793110Y625733D01*
X792915Y625587D01*
X792770Y625539D01*
X792721Y625490D01*
X791895Y624956D01*
X791555Y624664D01*
X791215Y624421D01*
X790972Y624227D01*
X790777Y624081D01*
X790632Y623984D01*
X790583Y623935D01*
X789806Y623304D01*
X789514Y623012D01*
X789222Y622769D01*
X788979Y622575D01*
X788785Y622380D01*
X788688Y622283D01*
X788639Y622235D01*
X788056Y621603D01*
X787570Y621117D01*
X787376Y620923D01*
X787230Y620777D01*
X787182Y620680D01*
X787133Y620631D01*
X786599Y619951D01*
X786161Y619368D01*
X786015Y619125D01*
X785870Y618979D01*
X785821Y618882D01*
X785773Y618833D01*
X785287Y618202D01*
X784947Y617667D01*
X784849Y617424D01*
X784752Y617230D01*
X784655Y617133D01*
Y617084D01*
X784363Y616355D01*
X784120Y615772D01*
X784072Y615529D01*
X784023Y615335D01*
X783975Y615238D01*
Y615189D01*
X783878Y614460D01*
X783926Y613829D01*
X783975Y613586D01*
Y613391D01*
X784023Y613294D01*
Y613003D01*
X783975Y612857D01*
X783926Y612760D01*
X783829Y612662D01*
X783683D01*
X783635D01*
X783343Y612711D01*
X783197Y612808D01*
X783100Y612857D01*
X782711Y613197D01*
X782468Y613586D01*
X782371Y613926D01*
X782323Y614023D01*
Y614072D01*
X782225Y614606D01*
X782128Y615043D01*
Y615481D01*
X782177Y616355D01*
X782225Y616792D01*
X782323Y617181D01*
X782371Y617473D01*
X782468Y617764D01*
X782517Y617910D01*
Y617959D01*
X782857Y618882D01*
X783003Y619319D01*
X783149Y619659D01*
X783295Y620000D01*
X783440Y620242D01*
X783489Y620388D01*
X783537Y620437D01*
X784023Y621263D01*
X784266Y621651D01*
X784461Y621992D01*
X784655Y622283D01*
X784801Y622478D01*
X784898Y622623D01*
X784947Y622672D01*
X785481Y623352D01*
X785967Y623935D01*
X786113Y624130D01*
X786258Y624275D01*
X786356Y624373D01*
X786404Y624421D01*
X786501Y624567D01*
X786647Y624713D01*
X786987Y625101D01*
X787279Y625393D01*
X787376Y625490D01*
X787425Y625539D01*
X788056Y626170D01*
X788688Y626754D01*
X788931Y626996D01*
X789174Y627191D01*
X789320Y627337D01*
X789368Y627385D01*
X790292Y628114D01*
X790729Y628406D01*
X791166Y628697D01*
X791506Y628989D01*
X791798Y629183D01*
X791992Y629280D01*
X792041Y629329D01*
X792575Y629669D01*
X793110Y629912D01*
X793596Y630155D01*
X794033Y630349D01*
X794422Y630446D01*
X794713Y630544D01*
X794908Y630641D01*
X794956D01*
X795393Y630738D01*
X795782Y630787D01*
X796074D01*
X796171D01*
X796219D01*
X796462Y630738D01*
D02*
G37*
G36*
X796511Y604888D02*
X796657D01*
X796754Y604839D01*
X796803D01*
X797094Y604645D01*
X797337Y604451D01*
X797434Y604305D01*
X797483Y604256D01*
X797580Y603965D01*
X797629Y603673D01*
Y603090D01*
X797580Y602847D01*
Y602604D01*
X797483Y602313D01*
X797434Y602118D01*
X797337Y601973D01*
Y601924D01*
X797240Y601730D01*
X797094Y601535D01*
X796997Y601389D01*
X796948Y601341D01*
X796705Y601098D01*
X796511Y600855D01*
X796365Y600758D01*
X796317Y600709D01*
X796025Y600515D01*
X795734Y600418D01*
X795539Y600320D01*
X795491D01*
X795199Y600272D01*
X794908Y600223D01*
X794713Y600272D01*
X794665D01*
X794324Y600466D01*
X794081Y600661D01*
X793984Y600855D01*
X793936Y600952D01*
X793839Y601292D01*
X793741Y601632D01*
Y602264D01*
X793790Y602556D01*
X793839Y602750D01*
X793887Y602847D01*
X793984Y603139D01*
X794033Y603333D01*
X794081Y603479D01*
X794130Y603527D01*
X794470Y604013D01*
X794810Y604353D01*
X795102Y604596D01*
X795199Y604694D01*
X795248D01*
X795491Y604839D01*
X795782Y604888D01*
X796268Y604936D01*
X796511Y604888D01*
D02*
G37*
G36*
X812157Y670290D02*
X812303Y670096D01*
X812400Y669853D01*
Y669756D01*
X812303Y669464D01*
X812109Y669221D01*
X811963Y669076D01*
X811914Y669027D01*
X811671Y668833D01*
X811477Y668735D01*
X811380Y668638D01*
X811331Y668590D01*
X810554Y668007D01*
X810213Y667715D01*
X809922Y667472D01*
X809630Y667278D01*
X809436Y667132D01*
X809339Y667035D01*
X809290Y666986D01*
X808561Y666403D01*
X807881Y665917D01*
X807590Y665723D01*
X807395Y665577D01*
X807249Y665480D01*
X807201Y665431D01*
X805111Y663925D01*
X803119Y662419D01*
X802196Y661739D01*
X801273Y661058D01*
X800447Y660378D01*
X799621Y659746D01*
X798892Y659163D01*
X798260Y658677D01*
X797677Y658191D01*
X797191Y657803D01*
X796803Y657511D01*
X796511Y657268D01*
X796317Y657122D01*
X796268Y657074D01*
X794276Y655422D01*
X792332Y653818D01*
X790583Y652312D01*
X789757Y651583D01*
X788979Y650951D01*
X788251Y650320D01*
X787619Y649785D01*
X787036Y649299D01*
X786599Y648911D01*
X786210Y648570D01*
X785918Y648328D01*
X785724Y648182D01*
X785675Y648133D01*
X784704Y647307D01*
X783829Y646481D01*
X782954Y645752D01*
X782225Y645121D01*
X781594Y644538D01*
X781108Y644149D01*
X780914Y643954D01*
X780768Y643857D01*
X780719Y643760D01*
X780671D01*
X779747Y642934D01*
X778873Y642157D01*
X778095Y641379D01*
X777366Y640650D01*
X777147Y640448D01*
X777998Y640796D01*
X778970Y641185D01*
X779893Y641476D01*
X780719Y641768D01*
X781059Y641865D01*
X781351Y641962D01*
X781545Y642059D01*
X781740Y642108D01*
X781837Y642157D01*
X781885D01*
X783100Y642545D01*
X784266Y642886D01*
X785384Y643177D01*
X786404Y643420D01*
X787230Y643663D01*
X787570Y643760D01*
X787862Y643809D01*
X788105Y643857D01*
X788299Y643906D01*
X788396Y643954D01*
X788445D01*
X788834Y644052D01*
X789271Y644100D01*
X790097Y644295D01*
X790486Y644392D01*
X790777Y644440D01*
X790972Y644489D01*
X791069D01*
X792284Y644683D01*
X792818Y644781D01*
X793304Y644829D01*
X793741Y644878D01*
X794081Y644926D01*
X794276Y644975D01*
X794373D01*
X795588Y645023D01*
X796122Y645072D01*
X796608D01*
X796997Y645023D01*
X797288D01*
X797531D01*
X797580D01*
X798114Y644926D01*
X798600Y644829D01*
X799038Y644683D01*
X799378Y644489D01*
X799669Y644343D01*
X799864Y644246D01*
X799961Y644149D01*
X800010Y644100D01*
X800204Y643809D01*
X800350Y643517D01*
X800447Y643323D01*
Y643274D01*
X800495Y642886D01*
X800447Y642594D01*
X800350Y642351D01*
X800301Y642254D01*
X800058Y641816D01*
X799718Y641379D01*
X799426Y640990D01*
X799135Y640602D01*
X798843Y640262D01*
X798600Y640019D01*
X798455Y639824D01*
X798406Y639776D01*
X797483Y638804D01*
X797094Y638367D01*
X796705Y637978D01*
X796365Y637638D01*
X796122Y637395D01*
X795928Y637249D01*
X795879Y637200D01*
X794859Y636326D01*
X794422Y635888D01*
X793984Y635548D01*
X793644Y635257D01*
X793353Y635014D01*
X793158Y634868D01*
X793110Y634819D01*
X792624Y634382D01*
X792187Y633993D01*
X791798Y633653D01*
X791458Y633362D01*
X791215Y633119D01*
X791020Y632973D01*
X790923Y632876D01*
X790874Y632827D01*
X790000Y632050D01*
X789125Y631321D01*
X788348Y630592D01*
X787619Y629961D01*
X787036Y629475D01*
X786550Y629037D01*
X786258Y628794D01*
X786210Y628697D01*
X786161D01*
X785287Y627920D01*
X784412Y627191D01*
X783635Y626511D01*
X782906Y625879D01*
X782323Y625344D01*
X781837Y624907D01*
X781545Y624664D01*
X781497Y624567D01*
X781448D01*
X780865Y624130D01*
X780282Y623644D01*
X779699Y623158D01*
X779116Y622672D01*
X778678Y622235D01*
X778290Y621894D01*
X778047Y621651D01*
X777950Y621554D01*
X777172Y620826D01*
X776443Y620097D01*
X775714Y619465D01*
X775083Y618882D01*
X774500Y618347D01*
X774062Y618007D01*
X773771Y617764D01*
X773722Y617667D01*
X773674D01*
X772848Y616987D01*
X772070Y616307D01*
X771341Y615675D01*
X770758Y615140D01*
X770272Y614655D01*
X769884Y614314D01*
X769689Y614120D01*
X769592Y614023D01*
X768232Y612662D01*
X767600Y611982D01*
X766968Y611399D01*
X766482Y610913D01*
X766045Y610476D01*
X765802Y610233D01*
X765705Y610136D01*
X764927Y609358D01*
X764150Y608629D01*
X763518Y607998D01*
X762935Y607415D01*
X762449Y606977D01*
X762109Y606589D01*
X761915Y606394D01*
X761818Y606297D01*
X761186Y605617D01*
X760554Y604985D01*
X759971Y604451D01*
X759485Y603916D01*
X759048Y603479D01*
X758756Y603187D01*
X758513Y602944D01*
X758465Y602896D01*
X758076Y602507D01*
X757687Y602070D01*
X757396Y601632D01*
X757104Y601244D01*
X756861Y600855D01*
X756716Y600563D01*
X756618Y600369D01*
X756570Y600320D01*
X756521Y600223D01*
X756473Y600175D01*
X756376Y600029D01*
X756278Y599932D01*
X756133Y599786D01*
X755987Y599689D01*
X755841Y599640D01*
X755792D01*
X755647D01*
X755549Y599689D01*
X755355Y599883D01*
X755258Y600078D01*
X755209Y600126D01*
Y600175D01*
X755404Y600758D01*
X755598Y601341D01*
X755792Y601875D01*
X755987Y602313D01*
X756181Y602701D01*
X756327Y602993D01*
X756424Y603187D01*
X756473Y603236D01*
X757056Y604256D01*
X757347Y604694D01*
X757639Y605082D01*
X757882Y605422D01*
X758076Y605665D01*
X758173Y605811D01*
X758222Y605860D01*
X758999Y606832D01*
X759388Y607269D01*
X759728Y607706D01*
X760020Y608046D01*
X760214Y608289D01*
X760360Y608484D01*
X760408Y608532D01*
X761235Y609504D01*
X761623Y609941D01*
X761963Y610330D01*
X762255Y610622D01*
X762498Y610864D01*
X762644Y611059D01*
X762692Y611107D01*
X763664Y612176D01*
X764150Y612662D01*
X764587Y613100D01*
X764976Y613488D01*
X765267Y613780D01*
X765462Y613974D01*
X765559Y614023D01*
X766142Y614606D01*
X766774Y615189D01*
X767357Y615821D01*
X767891Y616355D01*
X768377Y616841D01*
X768717Y617278D01*
X768960Y617521D01*
X769057Y617570D01*
Y617619D01*
X769738Y618396D01*
X770418Y619076D01*
X771050Y619757D01*
X771584Y620340D01*
X772070Y620777D01*
X772410Y621166D01*
X772605Y621360D01*
X772702Y621457D01*
X773334Y622089D01*
X773917Y622623D01*
X774451Y623158D01*
X774937Y623595D01*
X775326Y623984D01*
X775617Y624227D01*
X775812Y624421D01*
X775860Y624470D01*
X777269Y625685D01*
X778630Y626899D01*
X779942Y628017D01*
X781108Y629037D01*
X781642Y629475D01*
X782128Y629912D01*
X782566Y630252D01*
X782954Y630592D01*
X783246Y630835D01*
X783440Y631029D01*
X783586Y631127D01*
X783635Y631175D01*
X785190Y632487D01*
X786696Y633750D01*
X788154Y634965D01*
X789465Y636034D01*
X790049Y636520D01*
X790583Y636958D01*
X791069Y637346D01*
X791458Y637686D01*
X791798Y637929D01*
X792041Y638172D01*
X792187Y638269D01*
X792235Y638318D01*
X793061Y639290D01*
X793450Y639727D01*
X793790Y640116D01*
X794130Y640456D01*
X794373Y640699D01*
X794519Y640893D01*
X794567Y640942D01*
X795442Y641816D01*
X795831Y642205D01*
X796171Y642497D01*
X796414Y642788D01*
X796608Y642983D01*
X796754Y643080D01*
X796803Y643128D01*
X795879Y642983D01*
X795393Y642886D01*
X794956Y642788D01*
X794567Y642691D01*
X794276Y642643D01*
X794033Y642594D01*
X793984D01*
X792770Y642302D01*
X792187Y642157D01*
X791701Y642011D01*
X791263Y641914D01*
X790972Y641816D01*
X790729Y641768D01*
X790680D01*
X789465Y641379D01*
X788931Y641233D01*
X788396Y641088D01*
X788008Y640942D01*
X787668Y640845D01*
X787425Y640748D01*
X787376D01*
X786161Y640310D01*
X785627Y640116D01*
X785141Y639970D01*
X784704Y639824D01*
X784412Y639727D01*
X784169Y639630D01*
X784120D01*
X782857Y639193D01*
X781642Y638707D01*
X780476Y638318D01*
X779504Y637929D01*
X779067Y637784D01*
X778678Y637638D01*
X778290Y637492D01*
X777998Y637346D01*
X777804Y637298D01*
X777609Y637200D01*
X777512Y637152D01*
X777464D01*
X776249Y636666D01*
X775131Y636131D01*
X774062Y635645D01*
X773091Y635208D01*
X772313Y634819D01*
X771973Y634625D01*
X771681Y634528D01*
X771439Y634382D01*
X771293Y634285D01*
X771196Y634236D01*
X771147D01*
X770855Y634139D01*
X770612Y633993D01*
X770418Y633945D01*
X770369Y633896D01*
X770029Y633799D01*
X769738Y633702D01*
X769543D01*
X769446D01*
X769106Y633750D01*
X768815Y633848D01*
X768329Y634091D01*
X768183Y634285D01*
X768037Y634382D01*
X767989Y634479D01*
X767940Y634528D01*
X767794Y634868D01*
X767746Y635160D01*
Y635451D01*
X767794Y635743D01*
X767843Y635937D01*
X767891Y636083D01*
X767940Y636180D01*
Y636229D01*
X768232Y636715D01*
X768475Y637103D01*
X768669Y637346D01*
X768766Y637443D01*
X769689Y638415D01*
X770126Y638804D01*
X770515Y639193D01*
X770807Y639484D01*
X771050Y639727D01*
X771244Y639873D01*
X771293Y639921D01*
X772216Y640748D01*
X772605Y641088D01*
X772945Y641428D01*
X773236Y641719D01*
X773479Y641914D01*
X773625Y642059D01*
X773674Y642108D01*
X774694Y643080D01*
X775666Y643954D01*
X776540Y644781D01*
X777318Y645509D01*
X777950Y646092D01*
X778436Y646530D01*
X778630Y646675D01*
X778776Y646821D01*
X778824Y646870D01*
X778873Y646918D01*
X779796Y647745D01*
X780719Y648522D01*
X781642Y649299D01*
X782468Y649980D01*
X783197Y650611D01*
X783489Y650854D01*
X783780Y651049D01*
X783975Y651243D01*
X784120Y651389D01*
X784218Y651437D01*
X784266Y651486D01*
X785724Y652701D01*
X787182Y653867D01*
X788591Y654936D01*
X789806Y655956D01*
X790389Y656394D01*
X790874Y656782D01*
X791312Y657122D01*
X791701Y657414D01*
X791992Y657608D01*
X792235Y657803D01*
X792381Y657900D01*
X792429Y657948D01*
X793984Y659115D01*
X795491Y660232D01*
X796948Y661253D01*
X797580Y661739D01*
X798212Y662176D01*
X798795Y662564D01*
X799329Y662953D01*
X799766Y663245D01*
X800155Y663536D01*
X800447Y663731D01*
X800690Y663876D01*
X800835Y663974D01*
X800884Y664022D01*
X802342Y664945D01*
X803071Y665383D01*
X803702Y665820D01*
X804237Y666160D01*
X804674Y666452D01*
X804966Y666646D01*
X805014Y666695D01*
X805063D01*
X805889Y667229D01*
X806715Y667764D01*
X807492Y668201D01*
X808173Y668590D01*
X808707Y668930D01*
X809145Y669173D01*
X809436Y669318D01*
X809485Y669367D01*
X809533D01*
X809630Y669416D01*
X809825Y669513D01*
X809970Y669561D01*
X810019Y669610D01*
X810311Y669756D01*
X810554Y669902D01*
X810748Y669999D01*
X810797Y670047D01*
X811137Y670193D01*
X811477Y670242D01*
X811720Y670339D01*
X811768D01*
X811817D01*
X812011D01*
X812157Y670290D01*
D02*
G37*
G36*
X798649Y588270D02*
X799232Y588222D01*
X799718Y588124D01*
X800204Y588027D01*
X800593Y587930D01*
X800884Y587881D01*
X801078Y587784D01*
X801127D01*
X801613Y587541D01*
X802050Y587298D01*
X802439Y587007D01*
X802731Y586764D01*
X802973Y586521D01*
X803119Y586326D01*
X803216Y586181D01*
X803265Y586132D01*
X803897Y585403D01*
X804431Y584674D01*
X804820Y583994D01*
X805063Y583314D01*
X805257Y582779D01*
X805403Y582342D01*
X805452Y582051D01*
Y581953D01*
X805500Y581079D01*
Y580253D01*
X805452Y579427D01*
X805403Y578746D01*
X805306Y578163D01*
X805257Y577677D01*
X805160Y577386D01*
Y577289D01*
X804966Y576414D01*
X804723Y575588D01*
X804480Y574811D01*
X804285Y574130D01*
X804091Y573596D01*
X803897Y573158D01*
X803800Y572867D01*
X803751Y572770D01*
X803411Y571992D01*
X803071Y571215D01*
X802779Y570583D01*
X802488Y570000D01*
X802245Y569514D01*
X802050Y569126D01*
X801953Y568931D01*
X801905Y568834D01*
X801030Y567328D01*
X800155Y565919D01*
X799329Y564655D01*
X798503Y563489D01*
X798163Y562955D01*
X797823Y562517D01*
X797531Y562128D01*
X797288Y561788D01*
X797094Y561497D01*
X796948Y561302D01*
X796851Y561205D01*
X796803Y561157D01*
X795685Y559796D01*
X794567Y558533D01*
X793450Y557318D01*
X792429Y556298D01*
X791944Y555812D01*
X791506Y555423D01*
X791166Y555034D01*
X790826Y554743D01*
X790534Y554500D01*
X790340Y554305D01*
X790243Y554208D01*
X790194Y554160D01*
X789222Y553237D01*
X788737Y552848D01*
X788299Y552459D01*
X787862Y552119D01*
X787570Y551876D01*
X787376Y551682D01*
X787279Y551633D01*
X786647Y551147D01*
X786064Y550758D01*
X785530Y550370D01*
X785044Y550030D01*
X784655Y549787D01*
X784363Y549592D01*
X784169Y549495D01*
X784120Y549446D01*
X783732Y549155D01*
X783392Y548961D01*
X783149Y548815D01*
X783052Y548766D01*
X782663Y548572D01*
X782323Y548475D01*
X782080Y548377D01*
X781982D01*
X781837Y548523D01*
X781788Y548669D01*
X781740Y548912D01*
Y549106D01*
X781788Y549155D01*
X781885Y549349D01*
X782031Y549495D01*
X782080Y549592D01*
X782128Y549641D01*
X782323Y549835D01*
X782371Y549884D01*
X782420Y549932D01*
X782517Y550030D01*
X782566Y550078D01*
X782614D01*
X783732Y551244D01*
X784801Y552313D01*
X785773Y553334D01*
X786647Y554208D01*
X787376Y554986D01*
X787668Y555277D01*
X787911Y555569D01*
X788105Y555763D01*
X788251Y555909D01*
X788348Y556006D01*
X788396Y556055D01*
X789417Y557124D01*
X790340Y558193D01*
X791215Y559213D01*
X791944Y560136D01*
X792624Y560914D01*
X792867Y561205D01*
X793061Y561497D01*
X793255Y561740D01*
X793401Y561886D01*
X793450Y561983D01*
X793498Y562031D01*
X794324Y563198D01*
X795151Y564315D01*
X795831Y565384D01*
X796462Y566356D01*
X796948Y567182D01*
X797191Y567522D01*
X797337Y567814D01*
X797483Y568056D01*
X797580Y568251D01*
X797677Y568348D01*
Y568397D01*
X798357Y569611D01*
X798941Y570875D01*
X799475Y572041D01*
X799912Y573110D01*
X800107Y573547D01*
X800301Y573985D01*
X800447Y574373D01*
X800544Y574713D01*
X800641Y575005D01*
X800738Y575199D01*
X800787Y575297D01*
Y575345D01*
X800981Y576123D01*
X801176Y576803D01*
X801273Y577143D01*
X801321Y577386D01*
X801370Y577532D01*
Y577580D01*
X801516Y578503D01*
X801613Y578941D01*
Y579329D01*
X801662Y579621D01*
Y580107D01*
X801613Y580981D01*
X801564Y581370D01*
X801516Y581662D01*
X801419Y581953D01*
X801370Y582148D01*
X801321Y582294D01*
Y582342D01*
X801176Y582682D01*
X800981Y583022D01*
X800544Y583508D01*
X800350Y583703D01*
X800204Y583848D01*
X800107Y583897D01*
X800058Y583946D01*
X799621Y584140D01*
X799232Y584237D01*
X798843Y584334D01*
X798455Y584383D01*
X798163D01*
X797920D01*
X797774D01*
X797726D01*
X796851Y584286D01*
X796462Y584237D01*
X796122Y584140D01*
X795831Y584091D01*
X795636Y584043D01*
X795491Y583994D01*
X795442D01*
X794567Y583751D01*
X793741Y583460D01*
X792964Y583168D01*
X792284Y582925D01*
X791701Y582682D01*
X791312Y582488D01*
X791020Y582391D01*
X790923Y582342D01*
X790097Y581953D01*
X789320Y581565D01*
X788639Y581176D01*
X788008Y580836D01*
X787473Y580496D01*
X787036Y580253D01*
X786793Y580107D01*
X786696Y580058D01*
X785918Y579572D01*
X785190Y579086D01*
X784509Y578649D01*
X783926Y578212D01*
X783440Y577872D01*
X783052Y577580D01*
X782809Y577386D01*
X782711Y577337D01*
X781302Y576220D01*
X780671Y575734D01*
X780088Y575248D01*
X779602Y574859D01*
X779213Y574568D01*
X778970Y574325D01*
X778873Y574276D01*
X777561Y573110D01*
X776298Y571992D01*
X775131Y570875D01*
X774062Y569854D01*
X773625Y569369D01*
X773188Y568980D01*
X772848Y568591D01*
X772556Y568251D01*
X772313Y568008D01*
X772119Y567814D01*
X772021Y567716D01*
X771973Y567668D01*
X770807Y566307D01*
X769689Y564947D01*
X768766Y563635D01*
X767940Y562420D01*
X767600Y561886D01*
X767308Y561400D01*
X767065Y560962D01*
X766822Y560622D01*
X766677Y560282D01*
X766531Y560088D01*
X766482Y559942D01*
X766434Y559893D01*
X766094Y559116D01*
X765802Y558484D01*
X765705Y558193D01*
X765608Y557998D01*
X765510Y557853D01*
Y557804D01*
X765170Y557027D01*
X765025Y556638D01*
X764927Y556298D01*
X764830Y556006D01*
X764733Y555812D01*
X764684Y555666D01*
Y555617D01*
X764442Y554791D01*
X764393Y554403D01*
X764296Y554063D01*
X764247Y553771D01*
Y553577D01*
X764199Y553431D01*
Y553382D01*
X764150Y552556D01*
Y551827D01*
X764199Y551536D01*
Y551342D01*
X764247Y551196D01*
Y551147D01*
X764393Y550758D01*
X764587Y550418D01*
X764782Y550175D01*
X764927Y549981D01*
X765122Y549835D01*
X765219Y549738D01*
X765316Y549641D01*
X765365D01*
X765899Y549446D01*
X766434Y549349D01*
X766677D01*
X766871D01*
X766968D01*
X767017D01*
X767697Y549446D01*
X768377Y549592D01*
X768620Y549689D01*
X768815Y549787D01*
X768960Y549835D01*
X769009D01*
X769738Y550127D01*
X770321Y550418D01*
X770515Y550516D01*
X770710Y550613D01*
X770807Y550661D01*
X770855D01*
X771244Y550904D01*
X771584Y551099D01*
X771827Y551244D01*
X771876Y551293D01*
X771924D01*
X772313Y551536D01*
X772653Y551779D01*
X772896Y551973D01*
X772945Y552022D01*
X772993D01*
X773382Y552313D01*
X773771Y552556D01*
X774062Y552751D01*
X774111Y552848D01*
X774159D01*
X774645Y553237D01*
X775083Y553577D01*
X775277Y553722D01*
X775423Y553868D01*
X775520Y553917D01*
X775569Y553965D01*
X775666Y554063D01*
X775763Y554160D01*
X775909Y554208D01*
X775812D01*
X775714D01*
X775666Y554257D01*
X775957Y554208D01*
X776200Y554160D01*
X776346Y554063D01*
X776443Y553965D01*
X776492Y553820D01*
Y553722D01*
X776395Y553382D01*
X776249Y553091D01*
X776200Y552896D01*
X776152Y552848D01*
X776006Y552605D01*
X775909Y552459D01*
X775812Y552411D01*
Y552362D01*
X775714Y552168D01*
X775666Y552119D01*
X775131Y551487D01*
X774645Y550953D01*
X774451Y550758D01*
X774305Y550613D01*
X774208Y550516D01*
X774159Y550467D01*
X773576Y549932D01*
X773042Y549495D01*
X772848Y549349D01*
X772702Y549252D01*
X772605Y549155D01*
X772556D01*
X771681Y548523D01*
X771244Y548232D01*
X770855Y548037D01*
X770515Y547843D01*
X770272Y547697D01*
X770078Y547649D01*
X770029Y547600D01*
X769495Y547357D01*
X769009Y547163D01*
X768523Y547017D01*
X768086Y546920D01*
X767746Y546871D01*
X767454Y546823D01*
X767260Y546774D01*
X767211D01*
X766677Y546725D01*
X766142D01*
X765656D01*
X765267Y546774D01*
X764879Y546871D01*
X764636Y546920D01*
X764442Y546968D01*
X764393D01*
X763907Y547163D01*
X763470Y547406D01*
X763032Y547697D01*
X762692Y547989D01*
X762449Y548280D01*
X762255Y548523D01*
X762109Y548718D01*
X762061Y548766D01*
X761769Y549301D01*
X761526Y549884D01*
X761332Y550418D01*
X761186Y550904D01*
X761137Y551342D01*
X761089Y551682D01*
X761040Y551876D01*
Y553237D01*
X761089Y553868D01*
X761137Y554354D01*
X761186Y554840D01*
X761235Y555180D01*
X761283Y555374D01*
Y555472D01*
X761575Y556735D01*
X761720Y557318D01*
X761915Y557804D01*
X762012Y558241D01*
X762158Y558582D01*
X762206Y558776D01*
X762255Y558873D01*
X762498Y559456D01*
X762692Y560039D01*
X762935Y560525D01*
X763081Y560914D01*
X763227Y561254D01*
X763372Y561545D01*
X763421Y561691D01*
X763470Y561740D01*
X764344Y563343D01*
X765267Y564850D01*
X766142Y566210D01*
X766579Y566842D01*
X767017Y567425D01*
X767405Y567959D01*
X767746Y568445D01*
X768037Y568834D01*
X768329Y569223D01*
X768572Y569466D01*
X768717Y569660D01*
X768815Y569806D01*
X768863Y569854D01*
X770078Y571215D01*
X771244Y572478D01*
X772410Y573644D01*
X773431Y574665D01*
X773868Y575151D01*
X774305Y575539D01*
X774694Y575880D01*
X774986Y576171D01*
X775277Y576414D01*
X775471Y576608D01*
X775569Y576706D01*
X775617Y576754D01*
X777026Y577920D01*
X778387Y579038D01*
X779650Y580058D01*
X780816Y580933D01*
X781351Y581322D01*
X781837Y581662D01*
X782274Y581953D01*
X782614Y582196D01*
X782906Y582391D01*
X783100Y582536D01*
X783246Y582634D01*
X783295Y582682D01*
X784801Y583654D01*
X786356Y584529D01*
X787813Y585257D01*
X789174Y585938D01*
X789757Y586181D01*
X790340Y586424D01*
X790826Y586667D01*
X791215Y586812D01*
X791555Y586958D01*
X791846Y587055D01*
X791992Y587152D01*
X792041D01*
X793012Y587493D01*
X793498Y587638D01*
X793936Y587736D01*
X794324Y587833D01*
X794616Y587930D01*
X794810Y587979D01*
X794908D01*
X796074Y588173D01*
X796608Y588222D01*
X797094Y588270D01*
X797483Y588319D01*
X797774D01*
X798017D01*
X798066D01*
X798649Y588270D01*
D02*
G37*
G36*
X794179Y555326D02*
Y555083D01*
X794130Y554840D01*
X794081Y554548D01*
X793984Y554305D01*
X793936Y554063D01*
X793839Y553917D01*
Y553868D01*
X793304Y552896D01*
X793012Y552459D01*
X792770Y552022D01*
X792527Y551633D01*
X792332Y551342D01*
X792235Y551147D01*
X792187Y551099D01*
X791360Y549932D01*
X790972Y549349D01*
X790583Y548863D01*
X790292Y548426D01*
X790049Y548086D01*
X789854Y547892D01*
X789806Y547794D01*
X789320Y547163D01*
X788882Y546628D01*
X788445Y546191D01*
X788105Y545851D01*
X787813Y545559D01*
X787570Y545365D01*
X787425Y545268D01*
X787522D01*
X787619Y545219D01*
X787668D01*
X787862Y545171D01*
X787959Y545219D01*
X788056Y545268D01*
X789222Y545948D01*
X789708Y546288D01*
X790194Y546580D01*
X790583Y546823D01*
X790874Y547017D01*
X791069Y547163D01*
X791117Y547211D01*
X792187Y547940D01*
X792672Y548280D01*
X793158Y548572D01*
X793547Y548815D01*
X793839Y549009D01*
X794033Y549106D01*
X794081Y549155D01*
X794519Y549398D01*
X794908Y549641D01*
X795199Y549835D01*
X795296Y549884D01*
X795345D01*
X795879Y550078D01*
X796365Y550175D01*
X796560D01*
X796705D01*
X796803D01*
X796851D01*
X797143Y550127D01*
X797386Y550030D01*
X797774Y549738D01*
X798017Y549446D01*
X798066Y549349D01*
Y549301D01*
X798163Y548961D01*
X798212Y548669D01*
X798163Y548135D01*
X798114Y547940D01*
X798066Y547794D01*
X798017Y547697D01*
Y547649D01*
X797823Y547406D01*
X797677Y547163D01*
X797580Y547066D01*
X797531Y547017D01*
X797337Y546823D01*
X797191Y546628D01*
X797046Y546483D01*
X796997Y546434D01*
X796317Y545754D01*
X795782Y545171D01*
X795539Y544928D01*
X795393Y544733D01*
X795296Y544636D01*
X795248Y544588D01*
X794616Y543907D01*
X794130Y543324D01*
X793936Y543130D01*
X793790Y542935D01*
X793693Y542838D01*
X793644Y542790D01*
X793304Y542304D01*
X793242Y542224D01*
X793596Y542401D01*
X794033Y542595D01*
X794422Y542692D01*
X794713Y542790D01*
X794908Y542887D01*
X794956D01*
X795393Y542984D01*
X795782Y543033D01*
X796074D01*
X796171D01*
X796219D01*
X796462Y542984D01*
X796705Y542935D01*
X797094Y542692D01*
X797288Y542498D01*
X797386Y542449D01*
Y542401D01*
X797531Y542061D01*
X797629Y541818D01*
X797677Y541623D01*
Y541526D01*
X797629Y541186D01*
X797580Y540895D01*
X797531Y540700D01*
Y540652D01*
X797386Y540360D01*
X797240Y540069D01*
X797143Y539874D01*
X797094Y539826D01*
X796900Y539534D01*
X796754Y539340D01*
X796657Y539243D01*
X796608Y539194D01*
X796074Y538514D01*
X795636Y537882D01*
X795442Y537639D01*
X795296Y537445D01*
X795199Y537347D01*
X795151Y537299D01*
X794567Y536619D01*
X794033Y535987D01*
X793839Y535793D01*
X793693Y535598D01*
X793596Y535501D01*
X793547Y535452D01*
X793372Y535219D01*
X793547Y535307D01*
X794081Y535598D01*
X794324Y535695D01*
X794470Y535793D01*
X794567Y535841D01*
X794616D01*
X795102Y536036D01*
X795539Y536181D01*
X795831Y536230D01*
X795879Y536279D01*
X795928D01*
X796122D01*
X796365D01*
X796705Y536133D01*
X796997Y535987D01*
X797046Y535938D01*
X797094D01*
X797386Y535598D01*
X797580Y535210D01*
X797629Y534918D01*
X797677Y534869D01*
Y534821D01*
X797726Y534578D01*
X797677Y534335D01*
X797580Y533946D01*
X797434Y533703D01*
X797386Y533606D01*
X797288Y533509D01*
X797191Y533363D01*
X797094Y533217D01*
X797046Y533169D01*
X796900Y532926D01*
X796754Y532780D01*
X796705Y532732D01*
X796657Y532683D01*
X796219Y532197D01*
X795879Y531808D01*
X795636Y531565D01*
X795539Y531468D01*
X795151Y531031D01*
X794810Y530593D01*
X794616Y530302D01*
X794519Y530253D01*
Y530205D01*
X793839Y529379D01*
X793207Y528650D01*
X792672Y527921D01*
X792187Y527338D01*
X791798Y526804D01*
X791568Y526497D01*
X792041Y526755D01*
X792478Y527046D01*
X792818Y527241D01*
X793012Y527387D01*
X793110Y527435D01*
X794422Y528213D01*
X795005Y528601D01*
X795539Y528941D01*
X796025Y529233D01*
X796365Y529476D01*
X796608Y529622D01*
X796705Y529670D01*
X798066Y530496D01*
X798698Y530885D01*
X799232Y531225D01*
X799718Y531517D01*
X800107Y531760D01*
X800350Y531905D01*
X800447Y531954D01*
X801176Y532391D01*
X801807Y532732D01*
X802390Y533072D01*
X802876Y533363D01*
X803265Y533606D01*
X803557Y533801D01*
X803751Y533898D01*
X803800Y533946D01*
X804285Y534238D01*
X804771Y534529D01*
X805209Y534772D01*
X805549Y534967D01*
X805840Y535161D01*
X806035Y535258D01*
X806180Y535307D01*
X806229Y535355D01*
X806861Y535695D01*
X807444Y535987D01*
X807638Y536084D01*
X807832Y536181D01*
X807930Y536230D01*
X807978D01*
X808659Y536521D01*
X809242Y536764D01*
X809485Y536862D01*
X809679Y536959D01*
X809776Y537007D01*
X809825D01*
X810165Y537056D01*
X810408Y537105D01*
X810602D01*
X810748Y537056D01*
X810942Y536959D01*
X810991Y536910D01*
Y536716D01*
X810894Y536521D01*
X810845Y536327D01*
X810797Y536279D01*
X810602Y536036D01*
X810505Y535841D01*
X810408Y535744D01*
X810359Y535695D01*
X810116Y535452D01*
X810019Y535404D01*
X809970Y535355D01*
X809825Y535258D01*
X809727Y535161D01*
X809630Y535112D01*
X808659Y534335D01*
X808173Y533995D01*
X807735Y533655D01*
X807395Y533412D01*
X807104Y533217D01*
X806909Y533072D01*
X806861Y533023D01*
X805840Y532246D01*
X805354Y531905D01*
X804917Y531614D01*
X804577Y531322D01*
X804285Y531128D01*
X804091Y530982D01*
X804043Y530934D01*
X803557Y530593D01*
X803071Y530253D01*
X802828Y530108D01*
X802633Y529962D01*
X802536Y529913D01*
X802488Y529865D01*
X801710Y529379D01*
X800981Y528893D01*
X800690Y528699D01*
X800398Y528553D01*
X800253Y528456D01*
X800204Y528407D01*
X799232Y527775D01*
X798746Y527484D01*
X798357Y527192D01*
X798017Y526949D01*
X797726Y526755D01*
X797531Y526658D01*
X797483Y526609D01*
X796414Y525929D01*
X795928Y525589D01*
X795539Y525297D01*
X795151Y525103D01*
X794908Y524908D01*
X794713Y524811D01*
X794665Y524763D01*
X794179Y524422D01*
X793741Y524131D01*
X793304Y523839D01*
X792964Y523645D01*
X792721Y523451D01*
X792527Y523305D01*
X792381Y523256D01*
X792332Y523208D01*
X791992Y522965D01*
X791701Y522771D01*
X791263Y522479D01*
X791020Y522285D01*
X790923Y522236D01*
X790292Y521799D01*
X789660Y521361D01*
X789125Y520973D01*
X788688Y520681D01*
X788299Y520390D01*
X788008Y520195D01*
X787813Y520098D01*
X787765Y520049D01*
X786793Y519369D01*
X786356Y519078D01*
X785918Y518835D01*
X785627Y518640D01*
X785335Y518494D01*
X785190Y518397D01*
X785141Y518349D01*
X784169Y517766D01*
X783732Y517474D01*
X783343Y517183D01*
X783052Y516940D01*
X782760Y516745D01*
X782614Y516648D01*
X782566Y516600D01*
X781691Y515919D01*
X781302Y515628D01*
X780962Y515385D01*
X780719Y515190D01*
X780476Y514996D01*
X780379Y514948D01*
X780331Y514899D01*
X779553Y514413D01*
X778873Y513927D01*
X778290Y513538D01*
X777755Y513198D01*
X777366Y512907D01*
X777026Y512712D01*
X776832Y512566D01*
X776783Y512518D01*
X775714Y511789D01*
X775229Y511449D01*
X774840Y511206D01*
X774500Y510963D01*
X774257Y510817D01*
X774184Y510781D01*
X774159Y510574D01*
Y510186D01*
X774111Y509846D01*
Y509554D01*
X774062Y509360D01*
Y509165D01*
X774014Y508777D01*
X773965Y508436D01*
X773917Y508193D01*
Y507999D01*
X773868Y507853D01*
Y507659D01*
X774111Y507951D01*
X774402Y508291D01*
X775083Y508874D01*
X775374Y509117D01*
X775617Y509311D01*
X775812Y509457D01*
X775860Y509505D01*
X776395Y509894D01*
X776881Y510234D01*
X777269Y510574D01*
X777658Y510817D01*
X777950Y511060D01*
X778144Y511255D01*
X778290Y511352D01*
X778338Y511400D01*
X779116Y511983D01*
X779747Y512518D01*
X780039Y512712D01*
X780233Y512858D01*
X780379Y512955D01*
X780428Y513004D01*
X781108Y513490D01*
X781642Y513927D01*
X781837Y514073D01*
X781982Y514170D01*
X782080Y514219D01*
X782128Y514267D01*
X783003Y514850D01*
X783829Y515433D01*
X784606Y516016D01*
X785287Y516502D01*
X785870Y516891D01*
X786307Y517231D01*
X786599Y517426D01*
X786647Y517523D01*
X786696D01*
X788348Y518689D01*
X789174Y519223D01*
X789854Y519709D01*
X790486Y520147D01*
X790923Y520438D01*
X791117Y520584D01*
X791263Y520633D01*
X791312Y520730D01*
X791360D01*
X791846Y521021D01*
X792235Y521313D01*
X792527Y521507D01*
X792575Y521556D01*
X792624D01*
X793061Y521847D01*
X793498Y522090D01*
X793644Y522236D01*
X793790Y522285D01*
X793887Y522382D01*
X793936D01*
X794179Y522528D01*
X794422Y522673D01*
X794616Y522771D01*
X794665Y522819D01*
X794713D01*
X795102Y523013D01*
X795442Y523111D01*
X795685Y523208D01*
X795734D01*
X795782D01*
X796171Y523256D01*
X796560D01*
X796803Y523208D01*
X796851Y523159D01*
X796900D01*
X797288Y522916D01*
X797483Y522625D01*
X797629Y522382D01*
X797677Y522333D01*
Y522285D01*
X797726Y521799D01*
Y521410D01*
X797677Y521167D01*
X797629Y521070D01*
X797483Y520730D01*
X797288Y520487D01*
X797191Y520292D01*
X797143Y520244D01*
X796803Y519904D01*
X796560Y519612D01*
X796365Y519418D01*
X796317Y519369D01*
X796074Y519126D01*
X795879Y518883D01*
X795734Y518737D01*
X795685Y518689D01*
X795005Y517911D01*
X794713Y517523D01*
X794422Y517231D01*
X794227Y516940D01*
X794033Y516745D01*
X793936Y516600D01*
X793887Y516551D01*
X793255Y515725D01*
X793054Y515489D01*
X792867Y515190D01*
X792672Y514802D01*
X792527Y514559D01*
X792429Y514364D01*
X792381Y514316D01*
X791701Y513247D01*
X791360Y512712D01*
X791069Y512275D01*
X790826Y511886D01*
X790632Y511546D01*
X790486Y511352D01*
X790437Y511303D01*
X790049Y510769D01*
X789660Y510331D01*
X789320Y510040D01*
X789028Y509748D01*
X788785Y509603D01*
X788591Y509505D01*
X788506Y509420D01*
X788931Y509505D01*
X789417Y509603D01*
X789660Y509651D01*
X789854D01*
X789951Y509700D01*
X790000D01*
X790729Y509797D01*
X791360Y509894D01*
X791652Y509943D01*
X791846D01*
X791944Y509991D01*
X791992D01*
X792624Y510186D01*
X793207Y510429D01*
X793450Y510526D01*
X793644Y510623D01*
X793741Y510672D01*
X793790Y510720D01*
X794373Y511206D01*
X794859Y511643D01*
X795053Y511838D01*
X795199Y511983D01*
X795248Y512081D01*
X795296Y512129D01*
X795588Y512712D01*
X795782Y513247D01*
X795831Y513490D01*
X795879Y513684D01*
Y513830D01*
X795831Y514267D01*
X795782Y514656D01*
X795734Y514899D01*
Y514996D01*
X795685Y515093D01*
X795636Y515288D01*
X795588Y515482D01*
Y515579D01*
X795539Y515774D01*
Y515968D01*
X795588Y516162D01*
X795685Y516308D01*
X795734Y516357D01*
X795976D01*
X796171Y516308D01*
X796317Y516259D01*
X796365Y516211D01*
X796560Y516016D01*
X796705Y515871D01*
X796754Y515725D01*
X796803Y515676D01*
X796900Y515482D01*
X796997Y515336D01*
X797046Y515239D01*
X797094Y515190D01*
X797143Y515093D01*
X797191Y514996D01*
X797386Y514559D01*
X797531Y514073D01*
X797580Y513879D01*
X797629Y513733D01*
Y512955D01*
X797580Y512324D01*
X797434Y511740D01*
X797337Y511255D01*
X797191Y510817D01*
X797046Y510477D01*
X796997Y510283D01*
X796948Y510186D01*
X796657Y509700D01*
X796317Y509214D01*
X795976Y508825D01*
X795636Y508485D01*
X795345Y508242D01*
X795102Y507999D01*
X794908Y507902D01*
X794859Y507853D01*
X793839Y507270D01*
X793304Y507027D01*
X792867Y506833D01*
X792478Y506687D01*
X792187Y506590D01*
X791944Y506493D01*
X791895D01*
X791312Y506347D01*
X790826Y506201D01*
X790632Y506153D01*
X790486D01*
X790389Y506104D01*
X790340D01*
X789757Y505910D01*
X789271Y505764D01*
X789125Y505715D01*
X788979Y505667D01*
X788882Y505618D01*
X788834D01*
X788154Y505424D01*
X787619Y505229D01*
X787425Y505132D01*
X787279Y505084D01*
X787182Y505035D01*
X787133D01*
X786599Y504792D01*
X786210Y504598D01*
X785918Y504452D01*
X785870Y504403D01*
X785821D01*
X785530Y504258D01*
X785335Y504063D01*
X785190Y503918D01*
X785141Y503869D01*
X784947Y503626D01*
X784752Y503383D01*
X784606Y503237D01*
X784558Y503189D01*
X784315Y502946D01*
X784023Y502751D01*
X783829Y502654D01*
X783780Y502606D01*
X783392Y502460D01*
X783052Y502411D01*
X782809D01*
X782760D01*
X782711D01*
X782225Y502508D01*
X781788Y502703D01*
X781545Y502897D01*
X781448Y502946D01*
Y502994D01*
X781254Y503189D01*
X781156Y503432D01*
X780962Y503820D01*
X780914Y504112D01*
Y504258D01*
X780962Y504841D01*
X781108Y505278D01*
X781156Y505472D01*
X781254Y505618D01*
X781302Y505667D01*
Y505715D01*
X781594Y506153D01*
X781885Y506493D01*
X782080Y506736D01*
X782177Y506833D01*
X782614Y507173D01*
X782954Y507416D01*
X783197Y507610D01*
X783295Y507659D01*
X783683Y507902D01*
X784023Y508145D01*
X784315Y508339D01*
X784412Y508436D01*
X784461D01*
X785044Y508874D01*
X785578Y509311D01*
X786113Y509797D01*
X786599Y510234D01*
X786987Y510623D01*
X787279Y510963D01*
X787522Y511157D01*
X787570Y511255D01*
X788639Y512518D01*
X789125Y513052D01*
X789563Y513587D01*
X789611Y513643D01*
X789903Y514121D01*
X790243Y514656D01*
X790583Y515142D01*
X790826Y515531D01*
X791020Y515822D01*
X791166Y516016D01*
X791215Y516114D01*
X791603Y516648D01*
X791944Y517085D01*
X792235Y517474D01*
X792187Y517426D01*
X791652Y517037D01*
X791215Y516648D01*
X790777Y516308D01*
X790437Y516065D01*
X790194Y515871D01*
X790097Y515822D01*
X789368Y515336D01*
X788688Y514850D01*
X788056Y514364D01*
X787522Y513976D01*
X787036Y513635D01*
X786696Y513393D01*
X786501Y513198D01*
X786404Y513150D01*
X785092Y512081D01*
X784461Y511546D01*
X783878Y511109D01*
X783343Y510720D01*
X782954Y510380D01*
X782711Y510186D01*
X782614Y510137D01*
X780962Y508971D01*
X780185Y508436D01*
X779456Y507951D01*
X778824Y507562D01*
X778338Y507222D01*
X778144Y507124D01*
X777998Y507027D01*
X777950Y506979D01*
X777901D01*
X777804Y506833D01*
X777658Y506638D01*
X777415Y506444D01*
X777172Y506250D01*
X776881Y506055D01*
X776686Y505861D01*
X776492Y505764D01*
X776443Y505715D01*
X775374Y504938D01*
X774888Y504598D01*
X774402Y504306D01*
X774014Y504015D01*
X773722Y503820D01*
X773479Y503675D01*
X773431Y503626D01*
X773285Y502460D01*
X773188Y501925D01*
X773139Y501391D01*
X773091Y500953D01*
X773042Y500613D01*
X772993Y500419D01*
Y500322D01*
X772799Y498961D01*
X772702Y498378D01*
X772653Y497795D01*
X772556Y497309D01*
X772507Y496969D01*
X772459Y496726D01*
Y496629D01*
X772264Y495220D01*
X772021Y493859D01*
X771827Y492645D01*
X771681Y491527D01*
X771584Y491090D01*
X771536Y490652D01*
X771487Y490264D01*
X771439Y489972D01*
X771390Y489729D01*
X771341Y489535D01*
Y489389D01*
X771098Y488126D01*
X770904Y486911D01*
X770710Y485745D01*
X770515Y484724D01*
X770467Y484239D01*
X770369Y483850D01*
X770321Y483461D01*
X770272Y483170D01*
X770224Y482926D01*
Y482732D01*
X770175Y482635D01*
Y482586D01*
X769981Y481712D01*
X769932Y481323D01*
X769884Y480934D01*
X769786Y480594D01*
Y480351D01*
X769738Y480205D01*
Y480157D01*
X769689Y479671D01*
X769592Y479282D01*
X769543Y478894D01*
X769495Y478602D01*
X769446Y478359D01*
X769398Y478165D01*
Y478019D01*
X769203Y477387D01*
X769057Y476901D01*
X768912Y476561D01*
X768766Y476318D01*
X768620Y476221D01*
X768572Y476124D01*
X768475D01*
X768377D01*
X768329Y476221D01*
X768232Y476464D01*
X768183Y476804D01*
Y477144D01*
X768134Y477533D01*
X768183Y477873D01*
Y478213D01*
X768232Y478845D01*
X768280Y479428D01*
Y479720D01*
X768329Y479914D01*
Y480108D01*
X768377Y480983D01*
X768426Y481372D01*
X768475Y481760D01*
Y482100D01*
X768523Y482343D01*
Y482586D01*
X768669Y483947D01*
X768766Y485259D01*
X768863Y486474D01*
X769009Y487543D01*
X769057Y488028D01*
Y488466D01*
X769106Y488806D01*
X769155Y489146D01*
Y489389D01*
X769203Y489583D01*
Y489729D01*
X769349Y491041D01*
X769446Y492304D01*
X769592Y493519D01*
X769689Y494637D01*
X769738Y495171D01*
X769786Y495609D01*
X769835Y495997D01*
X769884Y496337D01*
Y496629D01*
X769932Y496823D01*
Y497018D01*
X770078Y498087D01*
X770126Y498573D01*
X770175Y499010D01*
X770224Y499350D01*
Y499641D01*
X770272Y499836D01*
Y499884D01*
X770321Y500370D01*
X770369Y500808D01*
X770418Y501196D01*
X770467Y501488D01*
Y501634D01*
Y501828D01*
X770515Y502023D01*
Y502071D01*
X769495Y501294D01*
X769057Y500953D01*
X768717Y500662D01*
X768377Y500419D01*
X768134Y500225D01*
X767989Y500127D01*
X767940Y500079D01*
X767065Y499447D01*
X766677Y499156D01*
X766337Y498913D01*
X766045Y498718D01*
X765802Y498573D01*
X765656Y498475D01*
X765608Y498427D01*
X764782Y497892D01*
X764393Y497649D01*
X764053Y497455D01*
X763761Y497261D01*
X763567Y497115D01*
X763421Y497066D01*
X763372Y497018D01*
X762546Y496532D01*
X762158Y496386D01*
X761818Y496192D01*
X761575Y496095D01*
X761380Y495997D01*
X761235Y495900D01*
X761186D01*
X760894Y495852D01*
X760700Y495803D01*
X760506D01*
X760408Y495852D01*
X760263Y495949D01*
X760214Y495997D01*
X760165Y496240D01*
Y496435D01*
X760214Y496580D01*
X760263Y496629D01*
X760360Y496823D01*
X760506Y497018D01*
X760554Y497115D01*
X760603Y497163D01*
X760700Y497309D01*
X760749Y497358D01*
X760797Y497406D01*
X761478Y498087D01*
X762206Y498767D01*
X762887Y499399D01*
X763470Y499933D01*
X764004Y500370D01*
X764393Y500710D01*
X764684Y500905D01*
X764733Y501002D01*
X764782D01*
X765559Y501634D01*
X766288Y502168D01*
X766968Y502703D01*
X767551Y503189D01*
X768037Y503577D01*
X768377Y503918D01*
X768620Y504112D01*
X768717Y504160D01*
X768815Y504209D01*
X768912Y504306D01*
X769203Y504549D01*
X769446Y504743D01*
X769495Y504792D01*
X769543Y504841D01*
X770078Y505229D01*
X770515Y505570D01*
X770710Y505715D01*
X770844Y505805D01*
X770855Y505861D01*
Y505958D01*
X770904Y506687D01*
X771001Y507270D01*
X771050Y507853D01*
X771098Y508291D01*
X771147Y508631D01*
Y508922D01*
X771196Y509068D01*
Y509117D01*
X769835Y507902D01*
X769155Y507367D01*
X768523Y506881D01*
X767989Y506444D01*
X767600Y506104D01*
X767308Y505910D01*
X767211Y505812D01*
X766385Y505181D01*
X765608Y504501D01*
X764879Y503869D01*
X764296Y503286D01*
X763761Y502751D01*
X763421Y502363D01*
X763372Y502314D01*
X763421D01*
X763664Y502411D01*
X763956Y502460D01*
X764539Y502654D01*
X764830Y502751D01*
X765073Y502800D01*
X765219Y502849D01*
X765267D01*
X764976Y502265D01*
X764684Y501828D01*
X764442Y501439D01*
X764247Y501196D01*
X764101Y501002D01*
X763956Y500856D01*
X763907Y500759D01*
X763858D01*
X763421Y500419D01*
X762935Y500127D01*
X762789Y500030D01*
X762644Y499933D01*
X762546Y499884D01*
X762498D01*
X761963Y499787D01*
X761526Y499836D01*
X761283Y499884D01*
X761186Y499933D01*
X760846Y500127D01*
X760603Y500322D01*
X760506Y500516D01*
X760457Y500613D01*
X760311Y500953D01*
Y501634D01*
X760408Y502071D01*
X760506Y502411D01*
X760603Y502654D01*
X760651Y502703D01*
Y502751D01*
X761040Y503432D01*
X761429Y504015D01*
X761818Y504598D01*
X762158Y505084D01*
X762498Y505472D01*
X762741Y505812D01*
X762935Y506007D01*
X762984Y506055D01*
X764004Y507124D01*
X764490Y507562D01*
X764927Y507999D01*
X765267Y508339D01*
X765608Y508582D01*
X765802Y508777D01*
X765851Y508825D01*
X766968Y509748D01*
X767503Y510137D01*
X767989Y510526D01*
X768377Y510817D01*
X768669Y511060D01*
X768863Y511206D01*
X768960Y511255D01*
X770078Y512081D01*
X770564Y512421D01*
X770953Y512761D01*
X771341Y513004D01*
X771584Y513198D01*
X771779Y513344D01*
X771827Y513393D01*
X771876Y513733D01*
X771924Y514024D01*
X771973Y514267D01*
Y514364D01*
X772021Y514705D01*
X772070Y515045D01*
X772119Y515239D01*
Y515336D01*
X772167Y515676D01*
X772264Y515968D01*
X772313Y516162D01*
Y516211D01*
X772362Y516454D01*
X772410Y516551D01*
Y516648D01*
X772556Y517620D01*
X772653Y518057D01*
X772702Y518446D01*
X772799Y518786D01*
X772848Y519029D01*
X772896Y519223D01*
Y519272D01*
X773139Y520147D01*
X773236Y520584D01*
X773334Y520924D01*
X773382Y521216D01*
X773479Y521410D01*
X773528Y521556D01*
Y521702D01*
X773576Y521847D01*
X773625Y521944D01*
X773674Y521993D01*
X773819Y522285D01*
X773868Y522382D01*
Y522430D01*
X773965Y522576D01*
X774062Y522722D01*
X774159Y522819D01*
X774208Y522868D01*
X774402Y523013D01*
X774548Y523062D01*
X774743D01*
X774791D01*
X775034Y522916D01*
X775131Y522771D01*
X775229Y522673D01*
Y522625D01*
X775277Y522382D01*
Y521313D01*
X775180Y520001D01*
X775083Y518835D01*
X774937Y517766D01*
X774840Y516842D01*
X774694Y516065D01*
X774645Y515725D01*
Y515482D01*
X774597Y515288D01*
X774548Y515142D01*
Y514996D01*
X775569Y515822D01*
X776638Y516648D01*
X777658Y517426D01*
X778581Y518106D01*
X779407Y518689D01*
X779747Y518932D01*
X780039Y519126D01*
X780282Y519272D01*
X780476Y519418D01*
X780573Y519466D01*
X780622Y519515D01*
X781885Y520341D01*
X783149Y521167D01*
X784315Y521896D01*
X785384Y522576D01*
X785870Y522868D01*
X786307Y523111D01*
X786696Y523354D01*
X786987Y523548D01*
X787279Y523742D01*
X787473Y523839D01*
X787570Y523888D01*
X787619Y523937D01*
X787911Y524131D01*
X788251Y524374D01*
X788675Y524639D01*
X788785Y524860D01*
X788834Y525054D01*
X788931Y525103D01*
Y525151D01*
X789417Y526026D01*
X789660Y526415D01*
X789854Y526804D01*
X790049Y527095D01*
X790146Y527338D01*
X790243Y527484D01*
X790292Y527532D01*
X790826Y528407D01*
X791069Y528844D01*
X791312Y529184D01*
X791555Y529524D01*
X791656Y529693D01*
X791506Y529573D01*
X791360Y529427D01*
X791263Y529379D01*
X791215Y529330D01*
X790534Y528747D01*
X789903Y528261D01*
X789660Y528067D01*
X789465Y527921D01*
X789368Y527824D01*
X789320Y527775D01*
X788591Y527192D01*
X788056Y526706D01*
X787813Y526512D01*
X787668Y526366D01*
X787570Y526318D01*
X787522Y526269D01*
X787473Y526220D01*
X787376Y526172D01*
X787327Y526075D01*
X787279D01*
X786987Y525832D01*
X786939Y525734D01*
X786890D01*
X786744Y525589D01*
X786599Y525491D01*
X786453Y525394D01*
X786404Y525346D01*
X786161Y525151D01*
X785967Y525103D01*
X785918Y525054D01*
X785870D01*
X785578D01*
X785287Y525151D01*
X785092Y525249D01*
X785044Y525297D01*
X784898Y525443D01*
X784801Y525589D01*
X784752Y525880D01*
Y526172D01*
X784801Y526366D01*
X784898Y526561D01*
X784995Y526706D01*
X785044Y526755D01*
X785238Y526998D01*
X785384Y527289D01*
X785530Y527435D01*
X785578Y527532D01*
X785773Y527824D01*
X785967Y528115D01*
X786113Y528310D01*
X786161Y528358D01*
X786356Y528601D01*
X786501Y528796D01*
X786599Y528941D01*
X786647Y528990D01*
X787182Y529622D01*
X787668Y530253D01*
X787862Y530496D01*
X788008Y530691D01*
X788056Y530788D01*
X788105Y530836D01*
X788591Y531517D01*
X789028Y532100D01*
X789222Y532343D01*
X789368Y532489D01*
X789417Y532586D01*
X789465Y532634D01*
X790437Y533946D01*
X790874Y534529D01*
X791263Y535064D01*
X791603Y535550D01*
X791895Y535890D01*
X792089Y536133D01*
X792138Y536230D01*
X792624Y536862D01*
X793110Y537445D01*
X793498Y537931D01*
X793839Y538319D01*
X794081Y538611D01*
X794324Y538805D01*
X794422Y538951D01*
X794470Y539000D01*
X793936Y538562D01*
X793353Y538174D01*
X793110Y537979D01*
X792915Y537833D01*
X792770Y537785D01*
X792721Y537736D01*
X791895Y537202D01*
X791555Y536910D01*
X791215Y536667D01*
X790972Y536473D01*
X790777Y536327D01*
X790632Y536230D01*
X790583Y536181D01*
X789806Y535550D01*
X789514Y535258D01*
X789222Y535015D01*
X788979Y534821D01*
X788785Y534627D01*
X788688Y534529D01*
X788639Y534481D01*
X788056Y533849D01*
X787570Y533363D01*
X787376Y533169D01*
X787230Y533023D01*
X787182Y532926D01*
X787133Y532877D01*
X786599Y532197D01*
X786161Y531614D01*
X786015Y531371D01*
X785870Y531225D01*
X785821Y531128D01*
X785773Y531079D01*
X785287Y530448D01*
X784947Y529913D01*
X784849Y529670D01*
X784752Y529476D01*
X784655Y529379D01*
Y529330D01*
X784363Y528601D01*
X784120Y528018D01*
X784072Y527775D01*
X784023Y527581D01*
X783975Y527484D01*
Y527435D01*
X783878Y526706D01*
X783926Y526075D01*
X783975Y525832D01*
Y525637D01*
X784023Y525540D01*
Y525249D01*
X783975Y525103D01*
X783926Y525006D01*
X783829Y524908D01*
X783683D01*
X783635D01*
X783343Y524957D01*
X783197Y525054D01*
X783100Y525103D01*
X782711Y525443D01*
X782468Y525832D01*
X782371Y526172D01*
X782323Y526269D01*
Y526318D01*
X782225Y526852D01*
X782128Y527289D01*
Y527727D01*
X782177Y528601D01*
X782225Y529039D01*
X782323Y529427D01*
X782371Y529719D01*
X782468Y530010D01*
X782517Y530156D01*
Y530205D01*
X782857Y531128D01*
X783003Y531565D01*
X783149Y531905D01*
X783295Y532246D01*
X783440Y532489D01*
X783489Y532634D01*
X783537Y532683D01*
X784023Y533509D01*
X784266Y533898D01*
X784461Y534238D01*
X784655Y534529D01*
X784801Y534724D01*
X784898Y534869D01*
X784947Y534918D01*
X785481Y535598D01*
X785967Y536181D01*
X786113Y536376D01*
X786258Y536521D01*
X786356Y536619D01*
X786404Y536667D01*
X786501Y536813D01*
X786647Y536959D01*
X786987Y537347D01*
X787279Y537639D01*
X787376Y537736D01*
X787425Y537785D01*
X788056Y538416D01*
X788688Y539000D01*
X788931Y539243D01*
X789174Y539437D01*
X789222Y539486D01*
X789271Y539583D01*
Y539631D01*
X789563Y540069D01*
X789757Y540409D01*
X789951Y540603D01*
X790000Y540700D01*
X790243Y540992D01*
X790389Y541283D01*
X790486Y541478D01*
X790534Y541526D01*
Y541575D01*
X791020Y542304D01*
X791409Y542935D01*
X791603Y543178D01*
X791691Y543295D01*
X791263Y542984D01*
X791069Y542838D01*
X790923Y542692D01*
X790826Y542644D01*
X790777Y542595D01*
X790243Y542255D01*
X789708Y542061D01*
X789514Y541964D01*
X789368D01*
X789271Y541915D01*
X789222D01*
X788882Y541866D01*
X788591D01*
X788008Y541915D01*
X787765Y542012D01*
X787570Y542061D01*
X787473Y542109D01*
X787425D01*
X786987Y542304D01*
X786647Y542498D01*
X786453Y542595D01*
X786356Y542644D01*
X786015Y542741D01*
X785675Y542838D01*
X785481Y542887D01*
X785384D01*
X785190Y542838D01*
X785141D01*
X784898Y542741D01*
X784849Y542692D01*
X784801D01*
X784363Y542449D01*
X783878Y542255D01*
X783732Y542158D01*
X783586Y542109D01*
X783489Y542061D01*
X783440D01*
X783149Y541964D01*
X782809Y541915D01*
X782274Y541964D01*
X782080Y542012D01*
X781885Y542061D01*
X781788Y542109D01*
X781740D01*
X781400Y542304D01*
X781156Y542498D01*
X781011Y542741D01*
X780865Y542984D01*
X780816Y543178D01*
X780768Y543373D01*
Y543518D01*
X780816Y543859D01*
X780865Y544150D01*
X781108Y544636D01*
X781254Y544830D01*
X781351Y544976D01*
X781400Y545025D01*
X781448Y545073D01*
X781740Y545316D01*
X782031Y545462D01*
X782566Y545705D01*
X782809Y545802D01*
X783003D01*
X783100Y545851D01*
X783149D01*
X783780D01*
X784315D01*
X784509D01*
X784606D01*
X784704D01*
X784752D01*
X784947Y545899D01*
X785141Y545997D01*
X785530Y546288D01*
X785724Y546434D01*
X785870Y546580D01*
X785967Y546628D01*
X786015Y546677D01*
X786647Y547260D01*
X787230Y547892D01*
X787473Y548135D01*
X787668Y548329D01*
X787813Y548475D01*
X787862Y548523D01*
X788591Y549349D01*
X788882Y549738D01*
X789174Y550078D01*
X789465Y550370D01*
X789660Y550613D01*
X789757Y550758D01*
X789806Y550807D01*
X790486Y551585D01*
X790777Y551925D01*
X791020Y552216D01*
X791263Y552459D01*
X791409Y552605D01*
X791506Y552702D01*
X791555Y552751D01*
X792089Y553382D01*
X792575Y553965D01*
X792721Y554208D01*
X792867Y554403D01*
X792964Y554500D01*
X793012Y554548D01*
X793255Y554889D01*
X793450Y555132D01*
X793644Y555277D01*
X793790Y555374D01*
X793984Y555472D01*
X794081D01*
X794179Y555326D01*
D02*
G37*
G36*
X797337Y507367D02*
X797580Y507270D01*
X797920Y507076D01*
X798114Y506833D01*
X798163Y506784D01*
Y506736D01*
X798260Y506493D01*
X798309Y506250D01*
X798357Y505861D01*
X798309Y505521D01*
X798260Y505472D01*
Y505424D01*
X798114Y505181D01*
X797969Y504986D01*
X797871Y504938D01*
X797823Y504889D01*
X797531Y504646D01*
X797434Y504598D01*
X797386Y504549D01*
X796268Y503626D01*
X795199Y502751D01*
X794227Y501877D01*
X793353Y501099D01*
X792624Y500468D01*
X792332Y500176D01*
X792089Y499933D01*
X791895Y499739D01*
X791749Y499593D01*
X791701Y499544D01*
X791652Y499496D01*
X790680Y498524D01*
X789806Y497601D01*
X789028Y496726D01*
X788299Y495997D01*
X787856Y495517D01*
X788202Y495706D01*
X788396Y495852D01*
X788591Y495997D01*
X788688Y496046D01*
X788737Y496095D01*
X789417Y496532D01*
X790049Y496872D01*
X790292Y497066D01*
X790486Y497163D01*
X790632Y497212D01*
X790680Y497261D01*
X791360Y497649D01*
X791944Y497990D01*
X792187Y498087D01*
X792332Y498184D01*
X792429Y498281D01*
X792478D01*
X793061Y498524D01*
X793547Y498718D01*
X793741Y498767D01*
X793887Y498815D01*
X793984Y498864D01*
X794033D01*
X794276Y498913D01*
X794519D01*
X794859Y498815D01*
X795053Y498670D01*
X795102Y498621D01*
X795151Y498427D01*
X795199Y498184D01*
X795102Y497698D01*
X795005Y497504D01*
X794956Y497309D01*
X794859Y497212D01*
Y497163D01*
X794422Y496435D01*
X793984Y495852D01*
X793790Y495609D01*
X793644Y495414D01*
X793596Y495317D01*
X793547Y495268D01*
X793012Y494637D01*
X792575Y494102D01*
X792381Y493908D01*
X792235Y493762D01*
X792187Y493665D01*
X792138Y493616D01*
X791895Y493373D01*
X791701Y493130D01*
X791409Y492839D01*
X791312Y492693D01*
X791263Y492645D01*
X790437Y491673D01*
X790097Y491235D01*
X789757Y490798D01*
X789465Y490458D01*
X789271Y490215D01*
X789125Y490021D01*
X789077Y489972D01*
X788688Y489486D01*
X788383Y489143D01*
X788445Y489195D01*
X788639Y489389D01*
X788834Y489486D01*
X788882Y489535D01*
X789854Y490167D01*
X790292Y490458D01*
X790632Y490652D01*
X790972Y490847D01*
X791215Y490993D01*
X791360Y491041D01*
X791409Y491090D01*
X791798Y491284D01*
X792187Y491478D01*
X792478Y491624D01*
X792527Y491673D01*
X792575D01*
X793061Y491916D01*
X793498Y492062D01*
X793790Y492159D01*
X793839Y492207D01*
X793887D01*
X794373Y492353D01*
X794810Y492450D01*
X795005Y492499D01*
X795102D01*
X795199Y492547D01*
X795248D01*
X795734Y492596D01*
X796219D01*
X796365Y492547D01*
X796511D01*
X796608D01*
X796657D01*
X796851Y492450D01*
X797046Y492402D01*
X797191Y492353D01*
X797240D01*
X797434Y492256D01*
X797580Y492110D01*
X797677Y492013D01*
X797726Y491964D01*
X797871Y491673D01*
X797969Y491430D01*
X798017Y491138D01*
Y490750D01*
X797969Y490604D01*
X797920Y490555D01*
Y490507D01*
X797677Y490021D01*
X797434Y489681D01*
X797288Y489486D01*
X797240Y489389D01*
X797046Y489195D01*
X796851Y489000D01*
X796705Y488854D01*
X796657Y488806D01*
X796414Y488514D01*
X796171Y488320D01*
X796074Y488174D01*
X796025Y488126D01*
X795393Y487397D01*
X794810Y486717D01*
X794616Y486474D01*
X794422Y486279D01*
X794324Y486133D01*
X794276Y486085D01*
X793596Y485259D01*
X793304Y484919D01*
X793061Y484579D01*
X792901Y484387D01*
X793110Y484481D01*
X793596Y484724D01*
X794033Y484919D01*
X794422Y485016D01*
X794713Y485113D01*
X794908Y485210D01*
X794956D01*
X795393Y485307D01*
X795782Y485356D01*
X796074D01*
X796171D01*
X796219D01*
X796462Y485307D01*
X796705Y485259D01*
X797094Y485016D01*
X797288Y484822D01*
X797386Y484773D01*
Y484724D01*
X797531Y484384D01*
X797629Y484141D01*
X797677Y483947D01*
Y483850D01*
X797629Y483510D01*
X797580Y483218D01*
X797531Y483024D01*
Y482975D01*
X797386Y482684D01*
X797240Y482392D01*
X797143Y482198D01*
X797094Y482149D01*
X796900Y481857D01*
X796754Y481663D01*
X796657Y481566D01*
X796608Y481517D01*
X796074Y480837D01*
X795636Y480205D01*
X795442Y479963D01*
X795296Y479768D01*
X795199Y479671D01*
X795151Y479622D01*
X794567Y478942D01*
X794033Y478310D01*
X793839Y478116D01*
X793693Y477922D01*
X793596Y477825D01*
X793547Y477776D01*
X793372Y477543D01*
X793547Y477630D01*
X794081Y477922D01*
X794324Y478019D01*
X794470Y478116D01*
X794567Y478165D01*
X794616D01*
X795102Y478359D01*
X795539Y478505D01*
X795831Y478553D01*
X795879Y478602D01*
X795928D01*
X796122D01*
X796365D01*
X796705Y478456D01*
X796997Y478310D01*
X797046Y478262D01*
X797094D01*
X797386Y477922D01*
X797580Y477533D01*
X797629Y477242D01*
X797677Y477193D01*
Y477144D01*
X797726Y476901D01*
X797677Y476658D01*
X797580Y476270D01*
X797434Y476027D01*
X797386Y475929D01*
X797288Y475832D01*
X797191Y475687D01*
X797094Y475541D01*
X797046Y475492D01*
X796900Y475249D01*
X796754Y475103D01*
X796705Y475055D01*
X796657Y475006D01*
X796219Y474520D01*
X795879Y474132D01*
X795636Y473889D01*
X795539Y473792D01*
X795151Y473354D01*
X794810Y472917D01*
X794616Y472625D01*
X794519Y472577D01*
Y472528D01*
X793839Y471702D01*
X793207Y470973D01*
X792672Y470244D01*
X792449Y469977D01*
X792575Y470050D01*
X793061Y470342D01*
X793498Y470585D01*
X793790Y470779D01*
X794033Y470876D01*
X794081Y470925D01*
X794616Y471168D01*
X795053Y471362D01*
X795442Y471508D01*
X795782Y471605D01*
X796025Y471654D01*
X796219D01*
X796317D01*
X796365D01*
X796608Y471605D01*
X796851Y471556D01*
X797191Y471314D01*
X797386Y471071D01*
X797434Y471022D01*
Y470973D01*
X797531Y470730D01*
X797580Y470487D01*
X797629Y470099D01*
X797580Y469807D01*
Y469710D01*
X797434Y469467D01*
X797337Y469321D01*
X797240Y469224D01*
X797191Y469175D01*
X796851Y468884D01*
X796705Y468835D01*
X796657Y468787D01*
X795831Y468204D01*
X795102Y467669D01*
X794470Y467232D01*
X793936Y466795D01*
X793547Y466454D01*
X793207Y466212D01*
X793012Y466017D01*
X792964Y465969D01*
X792478Y465483D01*
X791992Y465045D01*
X791603Y464608D01*
X791263Y464219D01*
X791020Y463928D01*
X790777Y463685D01*
X790680Y463539D01*
X790632Y463490D01*
X789951Y462616D01*
X789660Y462178D01*
X789417Y461838D01*
X789222Y461547D01*
X789077Y461304D01*
X789028Y461158D01*
X788979Y461110D01*
X788445Y460284D01*
X788154Y459943D01*
X788008Y459798D01*
X787716Y459555D01*
X787522Y459312D01*
X787425Y459069D01*
X787473Y459117D01*
X787570Y459215D01*
X787716Y459409D01*
X787911Y459652D01*
X788154Y459943D01*
X788299Y460089D01*
X788542Y460284D01*
X788785Y460478D01*
X788979Y460624D01*
X789028Y460672D01*
X789514Y461012D01*
X790000Y461353D01*
X790389Y461595D01*
X790729Y461790D01*
X791020Y461984D01*
X791215Y462081D01*
X791360Y462130D01*
X791409Y462178D01*
X791846Y462421D01*
X792284Y462616D01*
X792478Y462713D01*
X792624Y462810D01*
X792721Y462859D01*
X792770D01*
X793401Y463150D01*
X793936Y463345D01*
X794179Y463442D01*
X794373Y463490D01*
X794470Y463539D01*
X794519D01*
X795151Y463733D01*
X795734Y463831D01*
X795928D01*
X796122Y463879D01*
X796219D01*
X796268D01*
X796560Y463831D01*
X796851Y463782D01*
X797240Y463539D01*
X797483Y463296D01*
X797580Y463247D01*
Y463199D01*
X797726Y462907D01*
X797823Y462664D01*
X797871Y462470D01*
Y462421D01*
X797823Y462130D01*
X797774Y461887D01*
X797726Y461741D01*
Y461693D01*
X797629Y461450D01*
X797531Y461255D01*
X797434Y461158D01*
Y461110D01*
X797143Y460769D01*
X797094Y460672D01*
X797046Y460624D01*
X796122Y459652D01*
X795734Y459166D01*
X795393Y458729D01*
X795151Y458388D01*
X794956Y458097D01*
X794810Y457903D01*
X794762Y457854D01*
X793984Y456785D01*
X793644Y456299D01*
X793353Y455910D01*
X793061Y455570D01*
X792867Y455327D01*
X792721Y455133D01*
X792672Y455084D01*
X792429Y454744D01*
X792187Y454404D01*
X791992Y454210D01*
X791944Y454113D01*
X791652Y453772D01*
X791409Y453432D01*
X791215Y453238D01*
X791166Y453141D01*
X791117Y453092D01*
X791020Y452995D01*
X790972Y452898D01*
X790923Y452849D01*
X790777Y452655D01*
X790632Y452461D01*
X790534Y452315D01*
X790486Y452266D01*
X790292Y452072D01*
X790097Y451877D01*
X789951Y451780D01*
X789903Y451732D01*
X789660Y451586D01*
X789417Y451537D01*
X789271D01*
X789222D01*
X789125Y451634D01*
X789077Y451732D01*
X789028Y452023D01*
X789077Y452266D01*
X789125Y452315D01*
Y452363D01*
X789320Y452801D01*
X789514Y453189D01*
X789660Y453481D01*
X789708Y453529D01*
Y453578D01*
X789951Y454015D01*
X790243Y454404D01*
X790389Y454744D01*
X790486Y454793D01*
Y454841D01*
X790777Y455279D01*
X791020Y455667D01*
X791215Y455959D01*
X791312Y456007D01*
Y456056D01*
X791603Y456445D01*
X791798Y456785D01*
X791944Y456979D01*
X791992Y457076D01*
X792187Y457368D01*
X792284Y457514D01*
X792332Y457611D01*
Y457660D01*
X792721Y458243D01*
X793110Y458777D01*
X793255Y459020D01*
X793401Y459215D01*
X793450Y459312D01*
X793498Y459360D01*
X793741Y459652D01*
X793858Y459798D01*
X793839D01*
X793353Y459458D01*
X792915Y459215D01*
X792575Y459020D01*
X792527Y458923D01*
X792478D01*
X791701Y458388D01*
X791312Y458145D01*
X791020Y457951D01*
X790777Y457757D01*
X790534Y457611D01*
X790437Y457514D01*
X790389Y457465D01*
X789660Y456882D01*
X789028Y456348D01*
X788785Y456153D01*
X788591Y455959D01*
X788445Y455862D01*
X788396Y455813D01*
X787619Y455133D01*
X787279Y454793D01*
X786939Y454453D01*
X786696Y454210D01*
X786501Y454015D01*
X786356Y453870D01*
X786307Y453821D01*
X785530Y453092D01*
X785190Y452801D01*
X784898Y452558D01*
X784606Y452363D01*
X784412Y452217D01*
X784315Y452169D01*
X784266Y452120D01*
X784023Y451975D01*
X783829Y451877D01*
X783392Y451829D01*
X783100D01*
X783052D01*
X783003D01*
X782566Y452023D01*
X782225Y452266D01*
X781982Y452509D01*
X781934Y452558D01*
Y452606D01*
X781837Y452898D01*
X781740Y453189D01*
Y453724D01*
X781788Y453967D01*
X781837Y454113D01*
X781885Y454210D01*
Y454258D01*
X782128Y454696D01*
X782371Y455182D01*
X782614Y455619D01*
X782906Y456007D01*
X783100Y456396D01*
X783295Y456688D01*
X783440Y456882D01*
X783489Y456931D01*
X784266Y458000D01*
X784655Y458534D01*
X784995Y459020D01*
X785335Y459409D01*
X785578Y459700D01*
X785724Y459895D01*
X785773Y459992D01*
X786744Y461158D01*
X787182Y461741D01*
X787619Y462227D01*
X787959Y462664D01*
X788251Y463004D01*
X788445Y463199D01*
X788494Y463296D01*
X789028Y463879D01*
X789051Y463905D01*
X788882Y463782D01*
X788396Y463442D01*
X788105Y463247D01*
X788056Y463150D01*
X788008D01*
X787522Y462810D01*
X787085Y462519D01*
X786890Y462421D01*
X786793Y462324D01*
X786696Y462227D01*
X786647D01*
X786064Y461790D01*
X785481Y461353D01*
X785238Y461158D01*
X785044Y461012D01*
X784898Y460915D01*
X784849Y460867D01*
X784655Y460721D01*
X784461Y460575D01*
X784266Y460478D01*
X784218Y460429D01*
X783926Y460235D01*
X783683Y460089D01*
X783537Y459992D01*
X783489Y459943D01*
X783246Y459798D01*
X782954Y459652D01*
X782760Y459603D01*
X782663Y459555D01*
X782468Y459506D01*
X782323Y459555D01*
X782128Y459652D01*
X782080Y459846D01*
Y459943D01*
X782225Y460332D01*
X782371Y460672D01*
X782566Y460915D01*
X782614Y460964D01*
Y461012D01*
X782906Y461353D01*
X783197Y461693D01*
X783392Y461936D01*
X783440Y461984D01*
Y462033D01*
X784606Y463345D01*
X785190Y463976D01*
X785773Y464511D01*
X786210Y464948D01*
X786599Y465337D01*
X786842Y465531D01*
X786939Y465628D01*
X787668Y466260D01*
X788348Y466843D01*
X788795Y467221D01*
X788834Y467378D01*
X788931Y467426D01*
Y467475D01*
X789417Y468349D01*
X789660Y468738D01*
X789854Y469127D01*
X790049Y469418D01*
X790146Y469661D01*
X790243Y469807D01*
X790292Y469856D01*
X790826Y470730D01*
X791069Y471168D01*
X791312Y471508D01*
X791555Y471848D01*
X791656Y472016D01*
X791506Y471897D01*
X791360Y471751D01*
X791263Y471702D01*
X791215Y471654D01*
X790534Y471071D01*
X789903Y470585D01*
X789660Y470390D01*
X789465Y470244D01*
X789368Y470147D01*
X789320Y470099D01*
X788591Y469516D01*
X788056Y469030D01*
X787813Y468835D01*
X787668Y468690D01*
X787570Y468641D01*
X787522Y468592D01*
X787473Y468544D01*
X787376Y468495D01*
X787327Y468398D01*
X787279D01*
X786987Y468155D01*
X786939Y468058D01*
X786890D01*
X786744Y467912D01*
X786599Y467815D01*
X786453Y467718D01*
X786404Y467669D01*
X786161Y467475D01*
X785967Y467426D01*
X785918Y467378D01*
X785870D01*
X785578D01*
X785287Y467475D01*
X785092Y467572D01*
X785044Y467621D01*
X784898Y467766D01*
X784801Y467912D01*
X784752Y468204D01*
Y468495D01*
X784801Y468690D01*
X784898Y468884D01*
X784995Y469030D01*
X785044Y469078D01*
X785238Y469321D01*
X785384Y469613D01*
X785530Y469759D01*
X785578Y469856D01*
X785773Y470147D01*
X785967Y470439D01*
X786113Y470633D01*
X786161Y470682D01*
X786356Y470925D01*
X786501Y471119D01*
X786599Y471265D01*
X786647Y471314D01*
X787182Y471945D01*
X787668Y472577D01*
X787862Y472820D01*
X788008Y473014D01*
X788056Y473111D01*
X788105Y473160D01*
X788591Y473840D01*
X789028Y474423D01*
X789222Y474666D01*
X789368Y474812D01*
X789417Y474909D01*
X789465Y474958D01*
X790437Y476270D01*
X790874Y476853D01*
X791263Y477387D01*
X791603Y477873D01*
X791895Y478213D01*
X792089Y478456D01*
X792138Y478553D01*
X792624Y479185D01*
X793110Y479768D01*
X793498Y480254D01*
X793839Y480643D01*
X794081Y480934D01*
X794324Y481129D01*
X794422Y481274D01*
X794470Y481323D01*
X793936Y480886D01*
X793353Y480497D01*
X793110Y480303D01*
X792915Y480157D01*
X792770Y480108D01*
X792721Y480060D01*
X791895Y479525D01*
X791555Y479234D01*
X791215Y478991D01*
X790972Y478796D01*
X790777Y478651D01*
X790632Y478553D01*
X790583Y478505D01*
X789806Y477873D01*
X789514Y477582D01*
X789222Y477339D01*
X788979Y477144D01*
X788785Y476950D01*
X788688Y476853D01*
X788639Y476804D01*
X788056Y476172D01*
X787570Y475687D01*
X787376Y475492D01*
X787230Y475346D01*
X787182Y475249D01*
X787133Y475201D01*
X786599Y474520D01*
X786161Y473937D01*
X786015Y473694D01*
X785870Y473549D01*
X785821Y473451D01*
X785773Y473403D01*
X785287Y472771D01*
X784947Y472237D01*
X784849Y471994D01*
X784752Y471799D01*
X784655Y471702D01*
Y471654D01*
X784363Y470925D01*
X784120Y470342D01*
X784072Y470099D01*
X784023Y469904D01*
X783975Y469807D01*
Y469759D01*
X783878Y469030D01*
X783926Y468398D01*
X783975Y468155D01*
Y467961D01*
X784023Y467864D01*
Y467572D01*
X783975Y467426D01*
X783926Y467329D01*
X783829Y467232D01*
X783683D01*
X783635D01*
X783343Y467281D01*
X783197Y467378D01*
X783100Y467426D01*
X782711Y467766D01*
X782468Y468155D01*
X782371Y468495D01*
X782323Y468592D01*
Y468641D01*
X782225Y469175D01*
X782128Y469613D01*
Y470050D01*
X782177Y470925D01*
X782225Y471362D01*
X782323Y471751D01*
X782371Y472042D01*
X782468Y472334D01*
X782517Y472480D01*
Y472528D01*
X782857Y473451D01*
X783003Y473889D01*
X783149Y474229D01*
X783295Y474569D01*
X783440Y474812D01*
X783489Y474958D01*
X783537Y475006D01*
X784023Y475832D01*
X784266Y476221D01*
X784461Y476561D01*
X784655Y476853D01*
X784801Y477047D01*
X784898Y477193D01*
X784947Y477242D01*
X785481Y477922D01*
X785967Y478505D01*
X786113Y478699D01*
X786258Y478845D01*
X786356Y478942D01*
X786404Y478991D01*
X786501Y479137D01*
X786647Y479282D01*
X786987Y479671D01*
X787279Y479963D01*
X787376Y480060D01*
X787425Y480108D01*
X788056Y480740D01*
X788688Y481323D01*
X788931Y481566D01*
X789174Y481760D01*
X789320Y481906D01*
X789333Y481920D01*
X789611Y482441D01*
X790000Y483072D01*
X790146Y483364D01*
X790292Y483558D01*
X790340Y483704D01*
X790389Y483753D01*
X790874Y484481D01*
X791069Y484822D01*
X791263Y485065D01*
X791409Y485307D01*
X791506Y485453D01*
X791555Y485550D01*
X791603Y485599D01*
X791749Y485842D01*
X791895Y486036D01*
X792089Y486328D01*
X792138Y486425D01*
X792187Y486474D01*
X792721Y487202D01*
X792915Y487543D01*
X793110Y487834D01*
X793255Y488028D01*
X793401Y488223D01*
X793450Y488320D01*
X793498Y488369D01*
X793693Y488612D01*
X793887Y488854D01*
X793911Y488879D01*
X793790Y488806D01*
X793110Y488320D01*
X792818Y488126D01*
X792575Y487980D01*
X792429Y487883D01*
X792381Y487834D01*
X791603Y487251D01*
X791215Y487008D01*
X790923Y486765D01*
X790680Y486619D01*
X790437Y486474D01*
X790340Y486376D01*
X790292Y486328D01*
X789514Y485745D01*
X788882Y485162D01*
X788591Y484967D01*
X788396Y484773D01*
X788251Y484676D01*
X788202Y484627D01*
X787862Y484287D01*
X787522Y483996D01*
X787327Y483801D01*
X787230Y483753D01*
X786842Y483412D01*
X786404Y483121D01*
X786210Y482975D01*
X786064Y482878D01*
X785967Y482781D01*
X785918D01*
X785773Y482635D01*
X785627Y482441D01*
X785432Y482295D01*
X785384Y482246D01*
X785044Y481955D01*
X784801Y481760D01*
X784606Y481615D01*
X784509Y481566D01*
X784266Y481420D01*
X784023Y481323D01*
X783635Y481274D01*
X783295D01*
X783246Y481323D01*
X783197D01*
X782760Y481517D01*
X782420Y481760D01*
X782225Y482003D01*
X782177Y482052D01*
Y482100D01*
X782031Y482392D01*
X781982Y482635D01*
X781934Y482829D01*
Y483121D01*
X781982Y483364D01*
X782031Y483558D01*
Y483607D01*
X782274Y484239D01*
X782566Y484724D01*
X782711Y484919D01*
X782809Y485016D01*
X782857Y485113D01*
X782906Y485162D01*
X783295Y485648D01*
X783635Y486036D01*
X783829Y486328D01*
X783926Y486376D01*
Y486425D01*
X785141Y487834D01*
X785675Y488514D01*
X786210Y489098D01*
X786599Y489583D01*
X786939Y489972D01*
X787133Y490215D01*
X787230Y490312D01*
X787813Y490993D01*
X788348Y491624D01*
X788834Y492207D01*
X789028Y492450D01*
X788737Y492159D01*
X788445Y491867D01*
X788202Y491624D01*
X788056Y491478D01*
X788008Y491430D01*
X786987Y490555D01*
X786501Y490167D01*
X786064Y489826D01*
X785724Y489535D01*
X785384Y489292D01*
X785190Y489146D01*
X785141Y489098D01*
X784898Y488952D01*
X784655Y488903D01*
X784266Y488806D01*
X783975Y488854D01*
X783926D01*
X783878D01*
X783440Y489049D01*
X783100Y489292D01*
X782906Y489535D01*
X782809Y489583D01*
Y489632D01*
X782711Y489972D01*
X782614Y490264D01*
Y490798D01*
X782663Y490993D01*
X782711Y491090D01*
X782760Y491187D01*
Y491235D01*
X783246Y492110D01*
X783489Y492547D01*
X783732Y492936D01*
X783926Y493228D01*
X784120Y493519D01*
X784218Y493665D01*
X784266Y493713D01*
X784995Y494637D01*
X785335Y495074D01*
X785675Y495463D01*
X785918Y495803D01*
X786161Y496046D01*
X786307Y496240D01*
X786356Y496289D01*
X787230Y497309D01*
X787668Y497795D01*
X788056Y498184D01*
X788396Y498573D01*
X788639Y498864D01*
X788834Y499058D01*
X788882Y499107D01*
X789368Y499641D01*
X789806Y500079D01*
X790209Y500438D01*
X790097Y500370D01*
X789903Y500225D01*
X789757Y500127D01*
X789708Y500079D01*
X788834Y499496D01*
X788445Y499204D01*
X788105Y498961D01*
X787862Y498767D01*
X787619Y498621D01*
X787522Y498524D01*
X787473Y498475D01*
X786744Y497892D01*
X786064Y497406D01*
X785821Y497261D01*
X785627Y497115D01*
X785481Y497018D01*
X785432Y496969D01*
X784655Y496435D01*
X784315Y496240D01*
X783975Y496046D01*
X783732Y495900D01*
X783537Y495754D01*
X783392Y495706D01*
X783343Y495657D01*
X783246Y495609D01*
X783100Y495511D01*
X782954Y495463D01*
X782906Y495414D01*
X782614Y495268D01*
X782371Y495171D01*
X782177Y495074D01*
X782128D01*
X781788Y494977D01*
X781497Y494928D01*
X781302Y494880D01*
X781205D01*
X781059D01*
X780914Y494977D01*
X780865Y495123D01*
Y495560D01*
X780914Y495657D01*
Y495706D01*
X781108Y495900D01*
X781302Y496095D01*
X781740Y496532D01*
X781982Y496726D01*
X782177Y496872D01*
X782274Y496969D01*
X782323Y497018D01*
X783003Y497649D01*
X783586Y498184D01*
X783780Y498378D01*
X783926Y498573D01*
X784023Y498670D01*
X784072Y498718D01*
X784655Y499350D01*
X785238Y499982D01*
X785530Y500225D01*
X785724Y500419D01*
X785870Y500565D01*
X785918Y500613D01*
X786744Y501342D01*
X787133Y501682D01*
X787473Y501974D01*
X787765Y502217D01*
X787959Y502411D01*
X788105Y502508D01*
X788154Y502557D01*
X788882Y503189D01*
X789465Y503675D01*
X789708Y503869D01*
X789903Y504015D01*
X790000Y504112D01*
X790049Y504160D01*
X790632Y504598D01*
X791117Y504938D01*
X791312Y505084D01*
X791458Y505132D01*
X791506Y505229D01*
X791555D01*
X792478Y505764D01*
X792915Y506007D01*
X793304Y506250D01*
X793644Y506444D01*
X793936Y506590D01*
X794130Y506638D01*
X794179Y506687D01*
X794713Y506930D01*
X795199Y507124D01*
X795685Y507222D01*
X796122Y507319D01*
X796511Y507367D01*
X796851Y507416D01*
X797046D01*
X797094D01*
X797337Y507367D01*
D02*
G37*
%LPC*%
G36*
X792915Y518154D02*
X792721Y518009D01*
X792527Y517766D01*
X792624Y517863D01*
X792915Y518154D01*
D02*
G37*
G36*
X763324Y502265D02*
X763130Y502168D01*
X762838Y502071D01*
X762595Y501925D01*
Y501877D01*
X762644Y501731D01*
X762692Y501682D01*
X762741D01*
X762789Y501731D01*
X762887Y501828D01*
X763081Y502023D01*
X763178Y502120D01*
X763324Y502265D01*
D02*
G37*
%LPD*%
D35*
X749180Y1288250D02*
Y1292249D01*
Y1288250D02*
Y1292249D01*
X823180D01*
X749180D02*
X823180D01*
Y1234750D02*
Y1292249D01*
Y1234750D02*
Y1292249D01*
X749180Y1234750D02*
X823180D01*
X749180D02*
X823180D01*
X749180D02*
Y1268250D01*
Y1234750D02*
Y1268250D01*
Y299163D02*
Y303164D01*
Y299163D02*
Y303164D01*
X823180D01*
X749180D02*
X823180D01*
Y245664D02*
Y303164D01*
Y245664D02*
Y303164D01*
X749180Y245664D02*
X823180D01*
X749180D02*
X823180D01*
X749180D02*
Y279163D01*
Y245664D02*
Y279163D01*
M02*
