G04*
G04 #@! TF.GenerationSoftware,Altium Limited,Altium Designer,20.1.14 (287)*
G04*
G04 Layer_Color=8388736*
%FSLAX44Y44*%
%MOMM*%
G71*
G04*
G04 #@! TF.SameCoordinates,F9CCF83C-BBFD-4EAF-9253-F7A08A0B78FC*
G04*
G04*
G04 #@! TF.FilePolarity,Negative*
G04*
G01*
G75*
%ADD18R,1.8000X2.6000*%
%ADD19R,0.6500X0.6500*%
%ADD20R,2.3000X2.3000*%
%ADD21R,1.3000X2.3000*%
%ADD22R,1.7750X1.7750*%
%ADD23C,1.7750*%
%ADD24C,0.8500*%
%ADD25C,2.2000*%
D18*
X773252Y345713D02*
D03*
X801752D02*
D03*
X773252Y1102400D02*
D03*
X801752D02*
D03*
X773252Y908011D02*
D03*
X801752D02*
D03*
X773252Y705172D02*
D03*
X801752D02*
D03*
X773252Y519235D02*
D03*
X801752D02*
D03*
D19*
X820900Y434958D02*
D03*
X828900D02*
D03*
Y1102090D02*
D03*
X820900D02*
D03*
X828900Y909007D02*
D03*
X820900D02*
D03*
X828900Y704886D02*
D03*
X820900D02*
D03*
X828900Y519785D02*
D03*
X820900D02*
D03*
X828900Y344164D02*
D03*
X820900D02*
D03*
Y1200925D02*
D03*
X828900D02*
D03*
Y1007841D02*
D03*
X820900D02*
D03*
X828900Y806097D02*
D03*
X820900D02*
D03*
X828900Y610627D02*
D03*
X820900D02*
D03*
D20*
X775090Y435928D02*
D03*
X775524Y1198486D02*
D03*
X775082Y1008493D02*
D03*
Y805652D02*
D03*
Y610325D02*
D03*
D21*
X795090Y435928D02*
D03*
X795524Y1198486D02*
D03*
X795082Y1008493D02*
D03*
Y805652D02*
D03*
Y610325D02*
D03*
D22*
X798680Y1258250D02*
D03*
Y269163D02*
D03*
D23*
X773680Y1258250D02*
D03*
Y269163D02*
D03*
D24*
X757680Y1278250D02*
D03*
Y289163D02*
D03*
D25*
X705350Y1209590D02*
D03*
X868070D02*
D03*
Y323380D02*
D03*
X705350D02*
D03*
M02*
