G04*
G04 #@! TF.GenerationSoftware,Altium Limited,Altium Designer,20.1.14 (287)*
G04*
G04 Layer_Color=65535*
%FSLAX44Y44*%
%MOMM*%
G71*
G04*
G04 #@! TF.SameCoordinates,99A645DD-A7E4-4CA2-B257-33081834DCFA*
G04*
G04*
G04 #@! TF.FilePolarity,Positive*
G04*
G01*
G75*
%ADD10C,0.1000*%
%ADD11C,0.2000*%
G36*
X2030159Y873214D02*
X2030194Y873179D01*
X2030263Y873075D01*
X2030298Y873005D01*
Y872866D01*
X2030263Y872728D01*
X2030228Y872519D01*
Y872484D01*
X2030159Y872380D01*
X2030090Y872241D01*
X2030020Y872068D01*
X2029881Y871825D01*
X2029777Y871547D01*
X2029430Y870957D01*
X2029395Y870922D01*
X2029361Y870818D01*
X2029256Y870679D01*
X2029117Y870471D01*
X2028978Y870228D01*
X2028805Y869950D01*
X2028423Y869359D01*
X2028388Y869325D01*
X2028319Y869221D01*
X2028215Y869047D01*
X2028076Y868839D01*
X2027902Y868596D01*
X2027694Y868318D01*
X2027242Y867693D01*
X2027208Y867658D01*
X2027138Y867554D01*
X2026999Y867380D01*
X2026826Y867137D01*
X2026617Y866894D01*
X2026374Y866582D01*
X2025819Y865853D01*
X2025854D01*
X2025992Y865887D01*
X2026062D01*
X2026178D01*
X2026236D01*
X2026444Y865922D01*
X2026722Y865957D01*
X2027034Y865991D01*
X2027381Y866026D01*
X2027416D01*
X2027555Y866061D01*
X2027763D01*
X2028006Y866096D01*
X2028319Y866130D01*
X2028666Y866165D01*
X2029430Y866269D01*
X2029569D01*
X2029708Y866304D01*
X2029916D01*
X2030159Y866339D01*
X2030437Y866373D01*
X2030749Y866408D01*
X2031131Y866443D01*
X2031930Y866512D01*
X2032798Y866616D01*
X2033701Y866686D01*
X2034638Y866790D01*
X2034742D01*
X2034881Y866825D01*
X2035055D01*
X2035298Y866860D01*
X2035541Y866894D01*
X2035853D01*
X2036201Y866929D01*
X2036965Y867033D01*
X2037833Y867103D01*
X2038770Y867172D01*
X2039742Y867276D01*
X2039916D01*
X2040090Y867311D01*
X2040332D01*
X2040610Y867346D01*
X2040888Y867380D01*
X2041513Y867415D01*
X2041652D01*
X2041791Y867450D01*
X2041999D01*
X2042416Y867485D01*
X2042867Y867519D01*
X2043110D01*
X2043353Y867554D01*
X2043631Y867519D01*
X2043874D01*
X2044117Y867485D01*
X2044291Y867415D01*
X2044360Y867380D01*
Y867311D01*
Y867241D01*
X2044291Y867207D01*
X2044221Y867103D01*
X2044048Y866998D01*
X2043805Y866894D01*
X2043457Y866790D01*
X2043006Y866651D01*
X2042902D01*
X2042763Y866616D01*
X2042590Y866582D01*
X2042381Y866547D01*
X2042103Y866512D01*
X2041826Y866443D01*
X2041478Y866408D01*
X2041444D01*
X2041340Y866373D01*
X2041166D01*
X2040923Y866304D01*
X2040645Y866269D01*
X2040367Y866235D01*
X2039742Y866096D01*
X2039708D01*
X2039638Y866061D01*
X2039499D01*
X2039326Y866026D01*
X2039117Y865991D01*
X2038840Y865957D01*
X2038562Y865887D01*
X2038215Y865853D01*
X2037485Y865714D01*
X2036652Y865575D01*
X2035784Y865436D01*
X2034881Y865262D01*
X2034777D01*
X2034638Y865228D01*
X2034465Y865193D01*
X2034256Y865158D01*
X2033978Y865123D01*
X2033666Y865089D01*
X2033353Y865019D01*
X2032555Y864915D01*
X2031687Y864776D01*
X2030715Y864603D01*
X2029708Y864464D01*
X2029638D01*
X2029465Y864429D01*
X2029222Y864394D01*
X2028874Y864325D01*
X2028458Y864290D01*
X2028041Y864221D01*
X2027069Y864082D01*
X2026999D01*
X2026861Y864047D01*
X2026617Y864012D01*
X2026305Y863978D01*
X2025923Y863943D01*
X2025541Y863873D01*
X2024708Y863769D01*
X2024673Y863735D01*
X2024569Y863561D01*
X2024430Y863353D01*
X2024222Y863075D01*
X2024013Y862728D01*
X2023770Y862380D01*
X2023215Y861617D01*
X2023180Y861582D01*
X2023111Y861443D01*
X2022972Y861304D01*
X2022833Y861096D01*
X2022694Y860922D01*
X2022555Y860748D01*
X2022416Y860644D01*
X2022312Y860575D01*
Y860540D01*
X2022277Y860505D01*
X2022208Y860401D01*
X2022138Y860262D01*
X2021895Y859915D01*
X2021617Y859464D01*
X2021270Y858943D01*
X2020888Y858387D01*
X2020055Y857207D01*
X2020020Y857137D01*
X2019881Y856964D01*
X2019638Y856686D01*
X2019361Y856304D01*
X2019048Y855887D01*
X2018666Y855436D01*
X2017902Y854499D01*
X2017867Y854429D01*
X2017729Y854290D01*
X2017555Y854047D01*
X2017312Y853700D01*
X2017034Y853318D01*
X2016687Y852867D01*
X2016340Y852381D01*
X2015993Y851860D01*
X2015958Y851790D01*
X2015819Y851617D01*
X2015645Y851374D01*
X2015402Y851061D01*
X2015125Y850749D01*
X2014847Y850367D01*
X2014812Y850332D01*
X2015090Y850540D01*
X2015402Y850783D01*
X2015784Y851061D01*
X2015854Y851096D01*
X2015993Y851200D01*
X2016201Y851339D01*
X2016479Y851512D01*
X2016826Y851756D01*
X2017208Y851999D01*
X2017550Y852207D01*
X2017590Y852242D01*
X2017972Y852554D01*
X2018354Y852901D01*
X2019256Y853665D01*
X2019326Y853700D01*
X2019465Y853874D01*
X2019708Y854082D01*
X2019986Y854360D01*
X2020298Y854707D01*
X2020645Y855089D01*
X2020958Y855471D01*
X2021270Y855887D01*
Y855922D01*
X2021340Y855992D01*
X2021479Y856200D01*
X2021652Y856443D01*
X2021826Y856721D01*
X2021861Y856790D01*
X2021999Y856964D01*
X2022173Y857207D01*
X2022416Y857519D01*
X2022486Y857589D01*
X2022659Y857728D01*
X2022902Y857936D01*
X2023215Y858144D01*
X2023249D01*
X2023284Y858179D01*
X2023388Y858249D01*
X2023527Y858283D01*
X2023840Y858387D01*
X2024256Y858422D01*
X2024361D01*
X2024569Y858387D01*
X2024847Y858249D01*
X2025020Y858179D01*
X2025159Y858040D01*
X2025194D01*
X2025229Y857971D01*
X2025367Y857797D01*
X2025506Y857485D01*
X2025576Y857137D01*
Y857103D01*
Y857068D01*
Y856894D01*
X2025541Y856651D01*
X2025437Y856374D01*
X2025402Y856339D01*
X2025333Y856200D01*
X2025194Y855992D01*
X2025020Y855818D01*
X2024986Y855783D01*
X2024881Y855679D01*
X2024708Y855540D01*
X2024534Y855401D01*
X2024499Y855367D01*
X2024395Y855262D01*
X2024256Y855124D01*
X2024152Y854915D01*
Y854881D01*
X2024117Y854846D01*
X2024013Y854637D01*
X2023874Y854360D01*
X2023701Y853978D01*
Y853943D01*
X2023666Y853874D01*
X2023631Y853769D01*
X2023562Y853631D01*
X2023423Y853249D01*
X2023284Y852762D01*
Y852728D01*
X2023249Y852658D01*
X2023215Y852554D01*
X2023180Y852450D01*
X2023076Y852103D01*
X2022937Y851686D01*
Y851651D01*
X2022902Y851582D01*
Y851478D01*
X2022867Y851339D01*
X2022763Y850992D01*
X2022659Y850575D01*
Y850540D01*
X2022590Y850367D01*
X2022520Y850158D01*
X2022416Y849881D01*
X2022277Y849568D01*
X2022104Y849186D01*
X2021687Y848457D01*
X2021652Y848422D01*
X2021583Y848283D01*
X2021409Y848110D01*
X2021236Y847901D01*
X2020992Y847658D01*
X2020715Y847415D01*
X2020367Y847172D01*
X2020020Y846964D01*
X2019951Y846929D01*
X2019812Y846894D01*
X2019569Y846790D01*
X2019256Y846686D01*
X2018909Y846617D01*
X2018492Y846513D01*
X2018041Y846478D01*
X2017486D01*
X2017381Y846513D01*
X2017242Y846547D01*
X2016895Y846651D01*
X2016583Y846790D01*
X2016513Y846825D01*
X2016444Y846860D01*
X2016409Y846894D01*
X2016340Y846929D01*
X2016236Y846999D01*
X2016097Y847068D01*
X2016062Y847103D01*
X2015958Y847138D01*
X2015854Y847242D01*
X2015715Y847381D01*
X2015680Y847415D01*
X2015645Y847519D01*
X2015611Y847658D01*
Y847832D01*
X2015645Y847867D01*
X2015750Y847936D01*
X2015888Y847971D01*
X2016027D01*
X2016166Y847936D01*
X2016236D01*
X2016375Y847901D01*
X2016513Y847867D01*
X2016583Y847832D01*
X2016652D01*
X2016826Y847797D01*
X2017104Y847763D01*
X2017416Y847728D01*
X2017520D01*
X2017659Y847763D01*
X2017833Y847797D01*
X2018215Y847936D01*
X2018631Y848144D01*
X2018666Y848179D01*
X2018736Y848214D01*
X2018840Y848318D01*
X2018979Y848457D01*
X2019291Y848804D01*
X2019638Y849221D01*
X2019673Y849256D01*
X2019708Y849325D01*
X2019777Y849464D01*
X2019847Y849638D01*
X2020020Y850054D01*
X2020159Y850506D01*
Y850540D01*
X2020194Y850610D01*
Y850749D01*
X2020229Y850957D01*
X2020298Y851408D01*
X2020367Y851929D01*
Y851964D01*
X2020402Y852033D01*
Y852172D01*
X2020437Y852346D01*
X2020506Y852693D01*
X2020567Y852997D01*
X2020506Y852936D01*
X2020437Y852797D01*
X2020333Y852624D01*
X2020125Y852415D01*
X2019916Y852172D01*
X2019604Y851894D01*
X2019222Y851617D01*
X2019187Y851582D01*
X2019048Y851478D01*
X2018805Y851339D01*
X2018527Y851165D01*
X2018215Y850957D01*
X2017833Y850714D01*
X2017069Y850228D01*
X2017034Y850193D01*
X2016895Y850124D01*
X2016722Y850019D01*
X2016444Y849881D01*
X2016230Y849747D01*
X2016062Y849603D01*
X2015472Y849151D01*
X2015437Y849117D01*
X2015333Y849047D01*
X2015194Y848908D01*
X2014986Y848769D01*
X2014777Y848561D01*
X2014500Y848353D01*
X2013944Y847867D01*
X2013909Y847832D01*
X2013805Y847728D01*
X2013631Y847589D01*
X2013458Y847415D01*
X2013423Y847381D01*
X2013284Y847242D01*
X2013076Y847068D01*
X2012833Y846825D01*
X2012798Y846790D01*
X2012659Y846721D01*
X2012486Y846582D01*
X2012243Y846478D01*
X2012173Y846443D01*
X2012000Y846408D01*
X2011722D01*
X2011375Y846443D01*
X2011340D01*
X2011305Y846478D01*
X2011131Y846582D01*
X2010923Y846721D01*
X2010750Y846999D01*
Y847033D01*
X2010715Y847068D01*
X2010680Y847242D01*
Y847519D01*
X2010715Y847797D01*
Y847832D01*
Y847867D01*
X2010784Y848040D01*
X2010854Y848283D01*
X2010993Y848561D01*
Y848596D01*
X2011027Y848631D01*
X2011097Y848769D01*
X2011201Y848943D01*
X2011305Y849117D01*
Y849151D01*
X2011375Y849221D01*
X2011409Y849325D01*
X2011514Y849429D01*
X2011687Y849742D01*
X2011895Y850054D01*
Y850089D01*
X2011930Y850124D01*
X2012069Y850332D01*
X2012277Y850610D01*
X2012486Y850957D01*
Y850992D01*
X2012555Y851026D01*
X2012590Y851131D01*
X2012694Y851269D01*
X2012902Y851582D01*
X2013215Y852033D01*
X2013562Y852519D01*
X2013944Y853110D01*
X2014777Y854290D01*
Y854325D01*
X2014847Y854360D01*
X2014986Y854568D01*
X2015229Y854881D01*
X2015506Y855297D01*
X2015854Y855783D01*
X2016270Y856339D01*
X2016687Y856929D01*
X2017104Y857554D01*
X2017138Y857589D01*
X2017173Y857658D01*
X2017242Y857762D01*
X2017347Y857901D01*
X2017659Y858283D01*
X2018006Y858769D01*
X2018041Y858804D01*
X2018111Y858908D01*
X2018215Y859047D01*
X2018354Y859255D01*
X2018736Y859707D01*
X2019152Y860262D01*
X2019187Y860297D01*
X2019256Y860401D01*
X2019395Y860540D01*
X2019569Y860748D01*
X2019742Y861026D01*
X2019986Y861304D01*
X2020229Y861651D01*
X2020506Y862033D01*
X2020541Y862068D01*
X2020645Y862207D01*
X2020784Y862380D01*
X2020958Y862589D01*
X2021374Y863075D01*
X2021617Y863283D01*
X2021826Y863457D01*
X2021687D01*
X2021583Y863422D01*
X2021444D01*
X2021270Y863387D01*
X2021027Y863353D01*
X2020750Y863318D01*
X2020611D01*
X2020472Y863283D01*
X2020263D01*
X2020020Y863248D01*
X2019742D01*
X2019595Y863231D01*
X2019569Y863179D01*
X2019465Y863005D01*
X2019291Y862762D01*
X2019117Y862485D01*
X2018875Y862137D01*
X2018354Y861373D01*
X2018319Y861339D01*
X2018215Y861200D01*
X2018076Y860957D01*
X2017867Y860679D01*
X2017625Y860297D01*
X2017347Y859880D01*
X2017000Y859394D01*
X2016652Y858839D01*
X2016618Y858804D01*
X2016583Y858735D01*
X2016444Y858561D01*
X2016305Y858387D01*
X2016131Y858144D01*
X2015923Y857867D01*
X2015437Y857242D01*
X2015402Y857207D01*
X2015333Y857103D01*
X2015194Y856894D01*
X2015020Y856686D01*
X2014812Y856408D01*
X2014604Y856096D01*
X2014187Y855401D01*
X2014152Y855367D01*
X2014083Y855262D01*
X2013979Y855054D01*
X2013840Y854846D01*
X2013666Y854533D01*
X2013458Y854221D01*
X2012972Y853526D01*
X2012937Y853492D01*
X2012868Y853353D01*
X2012729Y853144D01*
X2012520Y852867D01*
X2012312Y852554D01*
X2012034Y852172D01*
X2011722Y851721D01*
X2011409Y851269D01*
X2011375Y851200D01*
X2011236Y851026D01*
X2011027Y850714D01*
X2010889Y850506D01*
X2010715Y850263D01*
X2010680Y850228D01*
X2010645Y850124D01*
X2010541Y849985D01*
X2010402Y849811D01*
X2010264Y849568D01*
X2010055Y849256D01*
X2009847Y848943D01*
X2009604Y848596D01*
X2009569Y848561D01*
X2009500Y848422D01*
X2009361Y848249D01*
X2009222Y847971D01*
X2009014Y847693D01*
X2008770Y847346D01*
X2008284Y846582D01*
X2008250Y846547D01*
X2008180Y846408D01*
X2008041Y846200D01*
X2007868Y845957D01*
X2007659Y845679D01*
X2007451Y845332D01*
X2007000Y844638D01*
X2006965Y844603D01*
X2006895Y844499D01*
X2006791Y844290D01*
X2006652Y844082D01*
X2006305Y843561D01*
X2005958Y843006D01*
X2005923Y842971D01*
X2005889Y842901D01*
X2005784Y842763D01*
X2005680Y842589D01*
X2005437Y842242D01*
X2005194Y841895D01*
X2005159Y841860D01*
X2005055Y841721D01*
X2004916Y841513D01*
X2004708Y841270D01*
X2004500Y840957D01*
X2004257Y840610D01*
X2003701Y839881D01*
X2003666Y839846D01*
X2003562Y839707D01*
X2003423Y839499D01*
X2003250Y839256D01*
X2003007Y838943D01*
X2002764Y838596D01*
X2002208Y837902D01*
X2002173Y837832D01*
X2002104Y837763D01*
X2002034Y837658D01*
X2002000Y837624D01*
X2001965Y837554D01*
X2001791Y837381D01*
X2001757Y837346D01*
X2001687Y837277D01*
X2001548Y837207D01*
X2001375Y837068D01*
X2001340Y837033D01*
X2001201Y836999D01*
X2001062Y836929D01*
X2000923D01*
X2000889Y836964D01*
X2000819Y837103D01*
X2000784Y837207D01*
Y837346D01*
X2000819Y837520D01*
X2000854Y837763D01*
Y837797D01*
X2000889Y837867D01*
X2000958Y838006D01*
X2001028Y838179D01*
X2001201Y838596D01*
X2001409Y839082D01*
Y839117D01*
X2001444Y839186D01*
X2001514Y839325D01*
X2001583Y839464D01*
X2001791Y839881D01*
X2002034Y840332D01*
X2002069Y840367D01*
X2002104Y840471D01*
X2002173Y840610D01*
X2002312Y840818D01*
X2002451Y841061D01*
X2002625Y841374D01*
X2002833Y841721D01*
X2003041Y842068D01*
X2003076Y842103D01*
X2003145Y842242D01*
X2003284Y842450D01*
X2003458Y842728D01*
X2003666Y843075D01*
X2003909Y843492D01*
X2004152Y843943D01*
X2004465Y844464D01*
X2004500Y844533D01*
X2004604Y844707D01*
X2004777Y844985D01*
X2004986Y845332D01*
X2005229Y845714D01*
X2005507Y846165D01*
X2006097Y847138D01*
X2006132Y847207D01*
X2006236Y847381D01*
X2006409Y847624D01*
X2006618Y847971D01*
X2006861Y848353D01*
X2007139Y848769D01*
X2007694Y849707D01*
X2007729Y849776D01*
X2007833Y849915D01*
X2007972Y850158D01*
X2008180Y850471D01*
X2008365Y850809D01*
X2008145Y850644D01*
X2007764Y850367D01*
X2007347Y850019D01*
X2006826Y849638D01*
X2006305Y849186D01*
X2005715Y848700D01*
X2005680D01*
X2005645Y848631D01*
X2005437Y848492D01*
X2005125Y848249D01*
X2004812Y847971D01*
X2004743Y847901D01*
X2004569Y847728D01*
X2004291Y847485D01*
X2003944Y847172D01*
X2003909Y847138D01*
X2003875Y847103D01*
X2003770Y846999D01*
X2003597Y846894D01*
X2003562Y846860D01*
X2003458Y846790D01*
X2003354Y846721D01*
X2003284Y846651D01*
X2003215Y846617D01*
X2003041Y846513D01*
X2002764Y846443D01*
X2002590Y846408D01*
X2002416Y846443D01*
X2002382D01*
X2002347Y846478D01*
X2002139Y846513D01*
X2001861Y846651D01*
X2001618Y846860D01*
Y846894D01*
X2001583Y846929D01*
X2001479Y847138D01*
X2001375Y847381D01*
Y847554D01*
Y847693D01*
Y847728D01*
X2001409Y847763D01*
X2001444Y847971D01*
X2001548Y848283D01*
X2001687Y848631D01*
Y848665D01*
X2001722Y848735D01*
X2001791Y848839D01*
X2001861Y849013D01*
X2002069Y849394D01*
X2002132Y849519D01*
X2001965Y849394D01*
X2001930Y849360D01*
X2001861Y849290D01*
X2001722Y849186D01*
X2001583Y849047D01*
X2001132Y848665D01*
X2000645Y848249D01*
X2000611Y848214D01*
X2000541Y848144D01*
X2000403Y848040D01*
X2000229Y847901D01*
X1999778Y847589D01*
X1999291Y847207D01*
X1999257Y847172D01*
X1999187Y847103D01*
X1999048Y846999D01*
X1998840Y846860D01*
X1998805Y846825D01*
X1998666Y846756D01*
X1998458Y846651D01*
X1998250Y846547D01*
X1998215D01*
X1998076Y846513D01*
X1997868Y846478D01*
X1997625Y846443D01*
X1997555D01*
X1997416Y846478D01*
X1997243Y846547D01*
X1997000Y846651D01*
X1996965D01*
X1996930Y846721D01*
X1996791Y846860D01*
X1996618Y847138D01*
X1996583Y847311D01*
X1996548Y847485D01*
Y847519D01*
Y847589D01*
Y847797D01*
X1996583Y848075D01*
X1996653Y848388D01*
Y848422D01*
X1996722Y848561D01*
X1996791Y848769D01*
X1996861Y849047D01*
X1997000Y849360D01*
X1997126Y849612D01*
X1997069Y849568D01*
X1996722Y849325D01*
X1996687Y849290D01*
X1996618Y849221D01*
X1996479Y849117D01*
X1996340Y848978D01*
X1995923Y848631D01*
X1995437Y848179D01*
X1995403Y848144D01*
X1995333Y848075D01*
X1995194Y847971D01*
X1995021Y847797D01*
X1994604Y847415D01*
X1994118Y846929D01*
X1994083Y846894D01*
X1993979Y846790D01*
X1993840Y846686D01*
X1993701Y846547D01*
X1993666Y846513D01*
X1993597Y846443D01*
X1993423Y846339D01*
X1993250Y846200D01*
X1993215D01*
X1993146Y846165D01*
X1993042Y846131D01*
X1992903Y846096D01*
X1992521Y846061D01*
X1992312Y846096D01*
X1992069Y846165D01*
X1992034D01*
X1991965Y846200D01*
X1991757Y846374D01*
X1991548Y846651D01*
X1991479Y846825D01*
X1991444Y847033D01*
Y847068D01*
Y847138D01*
Y847242D01*
Y847381D01*
X1991514Y847728D01*
X1991653Y848110D01*
Y848144D01*
X1991687Y848214D01*
X1991826Y848422D01*
X1992000Y848700D01*
X1992173Y849013D01*
X1992208Y849047D01*
X1992278Y849186D01*
X1992417Y849394D01*
X1992590Y849672D01*
X1992798Y850019D01*
X1993042Y850367D01*
X1993562Y851131D01*
X1993597Y851165D01*
X1993701Y851304D01*
X1993840Y851512D01*
X1994014Y851790D01*
X1994222Y852137D01*
X1994465Y852485D01*
X1994951Y853318D01*
X1994986Y853387D01*
X1995021Y853457D01*
X1994986Y853596D01*
Y853631D01*
X1994951Y853700D01*
Y853769D01*
X1994882Y853665D01*
X1994743Y853492D01*
X1994534Y853283D01*
X1994291Y853040D01*
X1993979Y852728D01*
X1993597Y852415D01*
X1993146Y852068D01*
X1993076Y852033D01*
X1992937Y851894D01*
X1992694Y851721D01*
X1992382Y851512D01*
X1992034Y851235D01*
X1991618Y850957D01*
X1990784Y850367D01*
X1990750Y850332D01*
X1990611Y850263D01*
X1990403Y850124D01*
X1990125Y849950D01*
X1989812Y849776D01*
X1989500Y849568D01*
X1988805Y849186D01*
X1988771D01*
X1988667Y849117D01*
X1988493Y849082D01*
X1988319Y849013D01*
X1988111Y848978D01*
X1987937Y848943D01*
X1987764D01*
X1987660Y849013D01*
Y849082D01*
X1987729Y849221D01*
X1987798Y849325D01*
X1987903Y849464D01*
X1988076Y849603D01*
X1988319Y849776D01*
X1988354Y849811D01*
X1988423Y849881D01*
X1988562Y849985D01*
X1988736Y850089D01*
X1989153Y850436D01*
X1989604Y850818D01*
X1989639Y850853D01*
X1989708Y850922D01*
X1989812Y851026D01*
X1989986Y851200D01*
X1990194Y851374D01*
X1990437Y851582D01*
X1990993Y852068D01*
X1991028Y852103D01*
X1991132Y852172D01*
X1991305Y852311D01*
X1991514Y852519D01*
X1991757Y852728D01*
X1992034Y852936D01*
X1992625Y853457D01*
X1992659Y853492D01*
X1992764Y853596D01*
X1992903Y853735D01*
X1993076Y853908D01*
X1993528Y854325D01*
X1993944Y854776D01*
X1993979Y854811D01*
X1994014Y854881D01*
X1994118Y854985D01*
X1994222Y855124D01*
X1994430Y855401D01*
X1994500Y855540D01*
X1994534Y855679D01*
Y855714D01*
Y855783D01*
Y855853D01*
Y855992D01*
Y856374D01*
Y856825D01*
Y856860D01*
X1994569Y856929D01*
Y857068D01*
X1994639Y857242D01*
X1994812Y857624D01*
X1994916Y857832D01*
X1995090Y858040D01*
X1995125Y858075D01*
X1995159Y858110D01*
X1995264Y858179D01*
X1995403Y858283D01*
X1995750Y858457D01*
X1995958Y858492D01*
X1996201Y858526D01*
X1996305D01*
X1996444Y858492D01*
X1996583Y858457D01*
X1996757Y858353D01*
X1996930Y858249D01*
X1997069Y858075D01*
X1997208Y857832D01*
Y857797D01*
X1997243Y857728D01*
X1997278Y857589D01*
X1997312Y857450D01*
X1997347Y857068D01*
X1997312Y856825D01*
X1997243Y856617D01*
Y856582D01*
X1997208Y856512D01*
X1997173Y856408D01*
X1997104Y856304D01*
X1996965Y855957D01*
X1996791Y855644D01*
Y855610D01*
X1996757Y855575D01*
X1996687Y855401D01*
Y855367D01*
X1996653Y855228D01*
Y855158D01*
X1996687Y855019D01*
X1996757Y854776D01*
X1996826Y854533D01*
X1996861Y854464D01*
X1996930Y854325D01*
X1997069Y854082D01*
X1997208Y853769D01*
Y853735D01*
X1997243Y853665D01*
X1997278Y853526D01*
X1997347Y853353D01*
X1997382Y852936D01*
Y852728D01*
X1997347Y852485D01*
Y852450D01*
X1997312Y852381D01*
Y852276D01*
X1997243Y852137D01*
X1997104Y851756D01*
X1996861Y851374D01*
X1996826Y851339D01*
X1996791Y851269D01*
X1996687Y851165D01*
X1996583Y851026D01*
X1996361Y850721D01*
X1996444Y850783D01*
X1996618Y850922D01*
X1997069Y851200D01*
X1997590Y851547D01*
X1997625D01*
X1997659Y851582D01*
X1997798Y851651D01*
X1998007Y851756D01*
X1998215Y851929D01*
X1998284Y851964D01*
X1998423Y852103D01*
X1998666Y852242D01*
X1998979Y852450D01*
X1999014D01*
X1999083Y852485D01*
X1999118Y852519D01*
X1999257Y852693D01*
X1999430Y852867D01*
X1999847Y853318D01*
X2000298Y853769D01*
X2000333Y853804D01*
X2000403Y853874D01*
X2000611Y854082D01*
X2000889Y854325D01*
X2000993Y854429D01*
X2001097Y854499D01*
X2001132Y854533D01*
X2001201Y854603D01*
X2001305Y854707D01*
X2001444Y854811D01*
X2001861Y855158D01*
X2002347Y855540D01*
X2002382Y855575D01*
X2002486Y855644D01*
X2002625Y855749D01*
X2002833Y855887D01*
X2003076Y856026D01*
X2003354Y856200D01*
X2003944Y856547D01*
X2003979Y856582D01*
X2004083Y856617D01*
X2004257Y856721D01*
X2004500Y856825D01*
X2004743Y856929D01*
X2005055Y857033D01*
X2005715Y857276D01*
X2005750D01*
X2005854Y857311D01*
X2006062Y857380D01*
X2006270Y857415D01*
X2006548Y857485D01*
X2006861Y857519D01*
X2007486Y857554D01*
X2007798D01*
X2008111Y857485D01*
X2008493Y857415D01*
X2008527D01*
X2008597Y857380D01*
X2008840Y857311D01*
X2009118Y857137D01*
X2009361Y856860D01*
X2009395Y856790D01*
X2009465Y856686D01*
X2009500Y856478D01*
Y856443D01*
Y856339D01*
X2009430Y856269D01*
X2009361Y856235D01*
X2009256Y856200D01*
X2009048D01*
X2008979Y856235D01*
X2008840D01*
X2008666Y856269D01*
X2008215Y856304D01*
X2007694Y856235D01*
X2007659D01*
X2007590Y856200D01*
X2007451Y856165D01*
X2007277Y856130D01*
X2006861Y855957D01*
X2006340Y855749D01*
X2006305D01*
X2006236Y855679D01*
X2006097Y855610D01*
X2005923Y855540D01*
X2005541Y855297D01*
X2005090Y854950D01*
X2005055Y854915D01*
X2004986Y854881D01*
X2004882Y854776D01*
X2004708Y854672D01*
X2004291Y854360D01*
X2003805Y853978D01*
X2003770Y853943D01*
X2003701Y853908D01*
X2003597Y853804D01*
X2003458Y853665D01*
X2003111Y853318D01*
X2002659Y852901D01*
X2002625Y852867D01*
X2002555Y852797D01*
X2002416Y852658D01*
X2002278Y852485D01*
X2002104Y852276D01*
X2001895Y852068D01*
X2001444Y851512D01*
X2001409Y851478D01*
X2001340Y851374D01*
X2001236Y851235D01*
X2001097Y851061D01*
X2000923Y850818D01*
X2000715Y850575D01*
X2000333Y849985D01*
X2000298Y849950D01*
X2000264Y849846D01*
X2000159Y849707D01*
X2000020Y849533D01*
X1999743Y849117D01*
X1999430Y848735D01*
X1999465Y848769D01*
X1999569Y848839D01*
X1999708Y849013D01*
X1999916Y849186D01*
X2000194Y849429D01*
X2000541Y849707D01*
X2000958Y850054D01*
X2001409Y850401D01*
X2001479Y850436D01*
X2001653Y850575D01*
X2001895Y850783D01*
X2002243Y851026D01*
X2002625Y851304D01*
X2003041Y851617D01*
X2003979Y852311D01*
X2004014Y852346D01*
X2004083Y852381D01*
X2004187Y852485D01*
X2004361Y852624D01*
X2004777Y852936D01*
X2005264Y853283D01*
X2005298Y853318D01*
X2005368Y853353D01*
X2005507Y853457D01*
X2005680Y853596D01*
X2006132Y853943D01*
X2006583Y854325D01*
X2006618Y854360D01*
X2006722Y854429D01*
X2006861Y854533D01*
X2007034Y854672D01*
X2007069Y854707D01*
X2007208Y854811D01*
X2007416Y854950D01*
X2007625Y855089D01*
X2007694Y855124D01*
X2007798Y855228D01*
X2008007Y855332D01*
X2008180Y855471D01*
X2008215Y855506D01*
X2008319Y855575D01*
X2008458Y855644D01*
X2008597Y855679D01*
X2008805D01*
X2009014Y855644D01*
X2009118Y855575D01*
X2009222Y855471D01*
X2009256Y855436D01*
X2009326Y855297D01*
X2009395Y855089D01*
Y854881D01*
Y854846D01*
X2009361Y854811D01*
X2009326Y854672D01*
X2009187Y854499D01*
X2009152Y854464D01*
X2009083Y854360D01*
X2009014Y854256D01*
X2008909Y854151D01*
Y854117D01*
X2008840Y854082D01*
X2008666Y853874D01*
Y853839D01*
X2008597Y853804D01*
X2008562Y853735D01*
X2008527Y853700D01*
X2008493Y853665D01*
X2008458Y853596D01*
X2008354Y853492D01*
X2008215Y853318D01*
X2007868Y852936D01*
X2007451Y852415D01*
X2007416Y852381D01*
X2007347Y852311D01*
X2007243Y852172D01*
X2007104Y851999D01*
X2006757Y851547D01*
X2006340Y851061D01*
X2006305Y851026D01*
X2006270Y850957D01*
X2006166Y850853D01*
X2006081Y850746D01*
X2006201Y850818D01*
X2006444Y850992D01*
X2006687Y851165D01*
X2007000Y851339D01*
X2007625Y851721D01*
X2007659Y851756D01*
X2007764Y851825D01*
X2007937Y851894D01*
X2008145Y852033D01*
X2008423Y852172D01*
X2008701Y852346D01*
X2009326Y852693D01*
X2009361D01*
X2009395Y852762D01*
X2009534Y852797D01*
X2009692Y852876D01*
X2009881Y853179D01*
X2010055Y853422D01*
X2010194Y853631D01*
X2010229Y853665D01*
X2010264Y853735D01*
X2010333Y853874D01*
X2010472Y854082D01*
X2010611Y854290D01*
X2010784Y854568D01*
X2010958Y854881D01*
X2011166Y855228D01*
X2011652Y855992D01*
X2012173Y856825D01*
X2012763Y857728D01*
X2013354Y858630D01*
X2013388Y858665D01*
X2013423Y858735D01*
X2013527Y858874D01*
X2013631Y859047D01*
X2013770Y859255D01*
X2013944Y859499D01*
X2014361Y860089D01*
X2014847Y860748D01*
X2015402Y861478D01*
X2015993Y862242D01*
X2016583Y862971D01*
X2016479D01*
X2016375Y862936D01*
X2016236Y862901D01*
X2016062D01*
X2015819Y862867D01*
X2015263Y862762D01*
X2014604Y862693D01*
X2013840Y862589D01*
X2013006Y862519D01*
X2012069Y862450D01*
X2011305D01*
X2011131Y862485D01*
X2011097D01*
X2011027Y862554D01*
X2010923Y862623D01*
X2010819Y862797D01*
Y862832D01*
Y862971D01*
X2010854Y863075D01*
X2010958Y863214D01*
X2010993Y863248D01*
X2011062Y863318D01*
X2011166Y863387D01*
X2011270Y863457D01*
X2011305D01*
X2011375Y863492D01*
X2011583Y863596D01*
X2011618Y863630D01*
X2011687Y863665D01*
X2011791Y863700D01*
X2011895D01*
X2012000Y863735D01*
X2012138Y863804D01*
X2012347Y863839D01*
X2012590Y863908D01*
X2012902Y863978D01*
X2013527Y864151D01*
X2013562D01*
X2013701Y864186D01*
X2013875Y864221D01*
X2014118Y864290D01*
X2014395Y864325D01*
X2014708Y864394D01*
X2015402Y864498D01*
X2015472D01*
X2015541Y864533D01*
X2015715Y864568D01*
X2015750D01*
X2015888Y864603D01*
X2016097Y864672D01*
X2016340Y864707D01*
X2016409D01*
X2016548Y864742D01*
X2016791Y864776D01*
X2017034Y864811D01*
X2017104D01*
X2017277Y864846D01*
X2017486Y864880D01*
X2017729Y864915D01*
X2017763Y864950D01*
X2017867Y865089D01*
X2018006Y865262D01*
X2018180Y865540D01*
X2018423Y865818D01*
X2018666Y866165D01*
X2019256Y866964D01*
X2019291Y867033D01*
X2019395Y867172D01*
X2019569Y867380D01*
X2019777Y867658D01*
X2020055Y868005D01*
X2020333Y868387D01*
X2020992Y869186D01*
X2021027Y869221D01*
X2021166Y869359D01*
X2021340Y869603D01*
X2021583Y869846D01*
X2021895Y870158D01*
X2022208Y870505D01*
X2022972Y871234D01*
X2023006Y871269D01*
X2023145Y871408D01*
X2023388Y871582D01*
X2023666Y871825D01*
X2024013Y872068D01*
X2024430Y872346D01*
X2024847Y872623D01*
X2025333Y872901D01*
X2025367D01*
X2025402Y872936D01*
X2025576Y873005D01*
X2025819Y873075D01*
X2026131Y873144D01*
X2026617D01*
X2026861Y873040D01*
X2026930Y873005D01*
X2027069Y872936D01*
X2027208Y872762D01*
X2027347Y872519D01*
X2027381Y872450D01*
X2027416Y872276D01*
X2027451Y871964D01*
X2027381Y871582D01*
Y871547D01*
X2027347Y871478D01*
X2027277Y871373D01*
X2027208Y871269D01*
X2026999Y870922D01*
X2026756Y870609D01*
Y870575D01*
X2026687Y870540D01*
X2026583Y870436D01*
X2026444Y870332D01*
X2026270Y870193D01*
X2025992Y870019D01*
X2025680Y869811D01*
X2025263Y869603D01*
Y869637D01*
X2025298Y869741D01*
X2025333Y869915D01*
X2025402Y870123D01*
X2025541Y870540D01*
X2025576Y870748D01*
X2025645Y870922D01*
Y870957D01*
X2025611Y870922D01*
X2025333Y870679D01*
X2024951Y870297D01*
X2024534Y869880D01*
X2024083Y869359D01*
X2023597Y868804D01*
X2023145Y868214D01*
X2023076Y868144D01*
X2022937Y867936D01*
X2022694Y867658D01*
X2022381Y867276D01*
X2022034Y866825D01*
X2021652Y866339D01*
X2020784Y865366D01*
X2020819D01*
X2020923Y865401D01*
X2021131D01*
X2021374Y865436D01*
X2021687Y865471D01*
X2022104Y865505D01*
X2022520Y865575D01*
X2023041Y865610D01*
X2023111D01*
X2023151Y865618D01*
X2023215Y865714D01*
X2023319Y865853D01*
X2023562Y866165D01*
X2023840Y866547D01*
X2023874Y866582D01*
X2023909Y866616D01*
X2024048Y866790D01*
X2024222Y866998D01*
X2024291Y867068D01*
X2024326Y867137D01*
X2024361Y867207D01*
X2024499Y867380D01*
X2024742Y867623D01*
X2025020Y867971D01*
X2025367Y868387D01*
X2025749Y868873D01*
X2026131Y869394D01*
X2026583Y869950D01*
Y869984D01*
X2026652Y870019D01*
X2026791Y870228D01*
X2027034Y870505D01*
X2027347Y870887D01*
X2027728Y871304D01*
X2028180Y871790D01*
X2028666Y872311D01*
X2029152Y872797D01*
X2029187Y872832D01*
X2029222Y872866D01*
X2029326Y872936D01*
X2029361Y872971D01*
X2029430Y873005D01*
X2029569Y873109D01*
X2029708Y873179D01*
X2029742Y873214D01*
X2029847Y873248D01*
X2029985D01*
X2030159Y873214D01*
D02*
G37*
G36*
X1990368Y872589D02*
X1990611Y872554D01*
X1990923Y872519D01*
X1991271Y872415D01*
X1991653Y872276D01*
X1992069Y872103D01*
X1992451Y871894D01*
X1992486Y871859D01*
X1992625Y871755D01*
X1992798Y871616D01*
X1993007Y871443D01*
X1993215Y871200D01*
X1993423Y870887D01*
X1993597Y870575D01*
X1993736Y870228D01*
Y870193D01*
X1993771Y870054D01*
X1993805Y869880D01*
X1993875Y869603D01*
X1993909Y869325D01*
Y868978D01*
Y868596D01*
X1993875Y868214D01*
Y868179D01*
X1993840Y868040D01*
X1993805Y867832D01*
X1993771Y867589D01*
X1993701Y867276D01*
X1993597Y866929D01*
X1993458Y866582D01*
X1993284Y866200D01*
X1993250Y866165D01*
X1993215Y866026D01*
X1993111Y865853D01*
X1992972Y865610D01*
X1992833Y865332D01*
X1992625Y865019D01*
X1992173Y864394D01*
Y864360D01*
X1992104Y864290D01*
X1992034Y864186D01*
X1991930Y864047D01*
X1991618Y863665D01*
X1991236Y863248D01*
X1991201Y863214D01*
X1991132Y863144D01*
X1991028Y863040D01*
X1990889Y862901D01*
X1990507Y862554D01*
X1990055Y862172D01*
X1990021Y862137D01*
X1989882Y862068D01*
X1989847D01*
X1989812Y861998D01*
X1989708Y861929D01*
X1989535Y861825D01*
X1989500Y861790D01*
X1989361Y861755D01*
X1989153Y861651D01*
X1988910Y861582D01*
X1988840D01*
X1988736Y861617D01*
X1988667Y861686D01*
X1988597Y861790D01*
X1988562Y861964D01*
X1988528Y862172D01*
X1988562Y862137D01*
Y862068D01*
Y861998D01*
X1988597Y862103D01*
X1988667Y862172D01*
X1988736Y862242D01*
X1988771Y862276D01*
X1988805Y862346D01*
X1988910Y862450D01*
X1989014Y862589D01*
X1989257Y862901D01*
X1989535Y863248D01*
Y863283D01*
X1989604Y863318D01*
X1989743Y863526D01*
X1989917Y863804D01*
X1990125Y864082D01*
Y864117D01*
X1990159Y864151D01*
X1990298Y864325D01*
X1990472Y864568D01*
X1990646Y864846D01*
Y864880D01*
X1990680Y864915D01*
X1990784Y865089D01*
X1990923Y865332D01*
X1991097Y865610D01*
Y865644D01*
X1991132Y865714D01*
X1991201Y865853D01*
X1991271Y865991D01*
X1991479Y866408D01*
X1991687Y866929D01*
Y866964D01*
X1991722Y867068D01*
X1991792Y867207D01*
X1991861Y867380D01*
X1991965Y867866D01*
X1992034Y868353D01*
Y868387D01*
Y868457D01*
Y868596D01*
Y868769D01*
X1991965Y869151D01*
X1991826Y869533D01*
Y869568D01*
X1991757Y869637D01*
X1991687Y869707D01*
X1991583Y869846D01*
X1991444Y869950D01*
X1991271Y870089D01*
X1991028Y870228D01*
X1990750Y870332D01*
X1990715D01*
X1990611Y870366D01*
X1990472D01*
X1990264Y870401D01*
X1989743D01*
X1989153Y870366D01*
X1989118D01*
X1989014Y870332D01*
X1988875D01*
X1988667Y870297D01*
X1988423Y870228D01*
X1988146Y870193D01*
X1987555Y870019D01*
X1987521D01*
X1987417Y869984D01*
X1987278Y869915D01*
X1987069Y869846D01*
X1986826Y869776D01*
X1986548Y869672D01*
X1985993Y869429D01*
X1985958D01*
X1985854Y869359D01*
X1985715Y869290D01*
X1985507Y869221D01*
X1985055Y869012D01*
X1984500Y868769D01*
X1984465Y868735D01*
X1984361Y868700D01*
X1984222Y868596D01*
X1983979Y868491D01*
X1983736Y868318D01*
X1983423Y868144D01*
X1983076Y867936D01*
X1982694Y867693D01*
X1981826Y867103D01*
X1980889Y866443D01*
X1979917Y865644D01*
X1978944Y864811D01*
X1978910Y864776D01*
X1978840Y864707D01*
X1978701Y864568D01*
X1978528Y864394D01*
X1978285Y864186D01*
X1978007Y863943D01*
X1977729Y863630D01*
X1977382Y863318D01*
X1976653Y862554D01*
X1975854Y861721D01*
X1975056Y860818D01*
X1974222Y859880D01*
X1974187Y859811D01*
X1974014Y859637D01*
X1973806Y859360D01*
X1973528Y859012D01*
X1973181Y858596D01*
X1972833Y858144D01*
X1972035Y857137D01*
X1972000Y857068D01*
X1971861Y856894D01*
X1971653Y856617D01*
X1971410Y856269D01*
X1971097Y855853D01*
X1970785Y855367D01*
X1970438Y854846D01*
X1970090Y854290D01*
X1970056Y854221D01*
X1969951Y854047D01*
X1969778Y853735D01*
X1969535Y853353D01*
X1969292Y852901D01*
X1969014Y852415D01*
X1968736Y851860D01*
X1968458Y851269D01*
X1968424Y851200D01*
X1968354Y850992D01*
X1968215Y850714D01*
X1968042Y850297D01*
X1967868Y849811D01*
X1967660Y849256D01*
X1967451Y848665D01*
X1967278Y848040D01*
Y848006D01*
X1967243Y847901D01*
X1967208Y847763D01*
X1967174Y847554D01*
X1967104Y847311D01*
X1967070Y847033D01*
X1967000Y846408D01*
Y846374D01*
Y846270D01*
Y846096D01*
Y845888D01*
X1967035Y845610D01*
X1967104Y845332D01*
X1967174Y845054D01*
X1967313Y844742D01*
X1967347Y844707D01*
X1967382Y844638D01*
X1967486Y844533D01*
X1967625Y844395D01*
X1967972Y844082D01*
X1968215Y843943D01*
X1968458Y843839D01*
X1968493D01*
X1968597Y843804D01*
X1968736Y843770D01*
X1968945Y843700D01*
X1969153Y843665D01*
X1969431Y843631D01*
X1970056Y843596D01*
X1970403D01*
X1970611Y843631D01*
X1970889D01*
X1971201Y843700D01*
X1971861Y843804D01*
X1971896D01*
X1972000Y843839D01*
X1972174Y843874D01*
X1972417Y843943D01*
X1972903Y844082D01*
X1973458Y844221D01*
X1973493D01*
X1973562Y844256D01*
X1973701Y844325D01*
X1973910Y844395D01*
X1974153Y844464D01*
X1974431Y844568D01*
X1974743Y844707D01*
X1975056Y844846D01*
X1975819Y845158D01*
X1976653Y845540D01*
X1977556Y845957D01*
X1978424Y846443D01*
X1978458D01*
X1978528Y846513D01*
X1978667Y846582D01*
X1978840Y846686D01*
X1979049Y846790D01*
X1979292Y846964D01*
X1979882Y847311D01*
X1980576Y847763D01*
X1981340Y848249D01*
X1982139Y848839D01*
X1982972Y849429D01*
X1983007Y849464D01*
X1983076Y849499D01*
X1983181Y849603D01*
X1983354Y849742D01*
X1983562Y849881D01*
X1983771Y850054D01*
X1984326Y850540D01*
X1984986Y851061D01*
X1985715Y851686D01*
X1986479Y852346D01*
X1987243Y853075D01*
X1987278Y853110D01*
X1987347Y853179D01*
X1987451Y853283D01*
X1987590Y853422D01*
X1987798Y853596D01*
X1988007Y853804D01*
X1988562Y854325D01*
X1989187Y854950D01*
X1989917Y855644D01*
X1990680Y856408D01*
X1991514Y857207D01*
Y857242D01*
X1991548Y857276D01*
X1991618Y857346D01*
X1991653Y857380D01*
X1991687Y857415D01*
X1991826Y857554D01*
X1991861Y857589D01*
X1991930Y857624D01*
X1992034Y857728D01*
X1992173Y857797D01*
X1992208Y857832D01*
X1992347D01*
X1992521Y857797D01*
X1992625Y857762D01*
X1992729Y857658D01*
Y857589D01*
X1992659Y857415D01*
X1992590Y857172D01*
X1992451Y856894D01*
X1992417Y856825D01*
X1992312Y856651D01*
X1992173Y856408D01*
X1991965Y856130D01*
X1991930Y856096D01*
X1991861Y855957D01*
X1991722Y855749D01*
X1991548Y855471D01*
X1991305Y855124D01*
X1991028Y854742D01*
X1990750Y854325D01*
X1990403Y853874D01*
X1990368Y853804D01*
X1990229Y853665D01*
X1990055Y853457D01*
X1989812Y853144D01*
X1989535Y852832D01*
X1989257Y852485D01*
X1988597Y851790D01*
X1988562Y851756D01*
X1988493Y851686D01*
X1988354Y851547D01*
X1988180Y851339D01*
X1987972Y851096D01*
X1987694Y850853D01*
X1987417Y850540D01*
X1987069Y850193D01*
X1986340Y849464D01*
X1985472Y848665D01*
X1984569Y847867D01*
X1983597Y847068D01*
X1983562Y847033D01*
X1983493Y846964D01*
X1983354Y846860D01*
X1983146Y846721D01*
X1982903Y846547D01*
X1982625Y846339D01*
X1982312Y846096D01*
X1981931Y845853D01*
X1981097Y845263D01*
X1980194Y844672D01*
X1979187Y844047D01*
X1978111Y843422D01*
X1978042Y843388D01*
X1977903Y843318D01*
X1977625Y843179D01*
X1977278Y843006D01*
X1976861Y842797D01*
X1976410Y842589D01*
X1975854Y842346D01*
X1975299Y842103D01*
X1975229Y842068D01*
X1975021Y841999D01*
X1974708Y841860D01*
X1974326Y841721D01*
X1973840Y841582D01*
X1973285Y841408D01*
X1972695Y841235D01*
X1972070Y841096D01*
X1972000D01*
X1971792Y841027D01*
X1971445Y840992D01*
X1971028Y840922D01*
X1970542Y840888D01*
X1969951Y840853D01*
X1969361D01*
X1968736Y840888D01*
X1968667D01*
X1968458Y840922D01*
X1968146Y841027D01*
X1967764Y841165D01*
X1967278Y841339D01*
X1966792Y841617D01*
X1966271Y841999D01*
X1965750Y842450D01*
X1965715Y842485D01*
X1965611Y842554D01*
X1965472Y842658D01*
X1965299Y842832D01*
X1965125Y843040D01*
X1964917Y843318D01*
X1964743Y843631D01*
X1964570Y843978D01*
Y844013D01*
X1964500Y844151D01*
X1964465Y844360D01*
X1964396Y844638D01*
X1964326Y844985D01*
X1964257Y845332D01*
X1964222Y845749D01*
X1964188Y846165D01*
Y846200D01*
Y846374D01*
Y846582D01*
X1964222Y846860D01*
X1964257Y847207D01*
X1964292Y847589D01*
X1964431Y848422D01*
Y848492D01*
X1964465Y848631D01*
X1964535Y848839D01*
X1964604Y849117D01*
X1964674Y849429D01*
X1964778Y849776D01*
X1965021Y850471D01*
Y850506D01*
X1965090Y850610D01*
X1965160Y850818D01*
X1965264Y851061D01*
X1965368Y851339D01*
X1965542Y851686D01*
X1965715Y852103D01*
X1965889Y852519D01*
X1966375Y853492D01*
X1966896Y854533D01*
X1967521Y855644D01*
X1968215Y856721D01*
X1968250Y856755D01*
X1968320Y856860D01*
X1968424Y856999D01*
X1968563Y857207D01*
X1968736Y857450D01*
X1968945Y857762D01*
X1969188Y858110D01*
X1969465Y858492D01*
X1970090Y859325D01*
X1970820Y860228D01*
X1971618Y861200D01*
X1972451Y862207D01*
X1972486Y862242D01*
X1972556Y862311D01*
X1972695Y862450D01*
X1972868Y862658D01*
X1973076Y862867D01*
X1973320Y863144D01*
X1973597Y863457D01*
X1973945Y863769D01*
X1974674Y864498D01*
X1975507Y865332D01*
X1976410Y866165D01*
X1977382Y867033D01*
X1977417Y867068D01*
X1977521Y867137D01*
X1977660Y867241D01*
X1977833Y867415D01*
X1978111Y867623D01*
X1978389Y867832D01*
X1978736Y868075D01*
X1979118Y868353D01*
X1979535Y868665D01*
X1979986Y868978D01*
X1980958Y869603D01*
X1982035Y870262D01*
X1983181Y870887D01*
X1983215Y870922D01*
X1983319Y870957D01*
X1983528Y871061D01*
X1983771Y871165D01*
X1984048Y871269D01*
X1984396Y871443D01*
X1984812Y871582D01*
X1985229Y871755D01*
X1985298Y871790D01*
X1985437Y871825D01*
X1985680Y871929D01*
X1985993Y871998D01*
X1986340Y872137D01*
X1986757Y872241D01*
X1987660Y872450D01*
X1987729D01*
X1987868Y872484D01*
X1988111Y872519D01*
X1988458Y872554D01*
X1988805Y872589D01*
X1989257Y872623D01*
X1990229D01*
X1990368Y872589D01*
D02*
G37*
G36*
X1907105Y870575D02*
X1907591Y870505D01*
X1908077Y870401D01*
X1908598Y870228D01*
X1908633D01*
X1908772Y870158D01*
X1908980Y870054D01*
X1909223Y869915D01*
X1909536Y869741D01*
X1909848Y869498D01*
X1910230Y869221D01*
X1910577Y868873D01*
X1910612Y868839D01*
X1910751Y868700D01*
X1910890Y868526D01*
X1911098Y868248D01*
X1911306Y867936D01*
X1911515Y867554D01*
X1911723Y867103D01*
X1911862Y866651D01*
Y866616D01*
X1911897Y866443D01*
X1911966Y866200D01*
X1912001Y865922D01*
X1912036Y865540D01*
X1912070Y865158D01*
X1912105Y864707D01*
X1912070Y864255D01*
Y864186D01*
X1912036Y864047D01*
X1912001Y863804D01*
X1911966Y863491D01*
X1911897Y863144D01*
X1911792Y862693D01*
X1911654Y862242D01*
X1911480Y861755D01*
X1911445Y861686D01*
X1911411Y861512D01*
X1911306Y861269D01*
X1911167Y860922D01*
X1910994Y860505D01*
X1910820Y860054D01*
X1910334Y859047D01*
X1910299Y858978D01*
X1910230Y858804D01*
X1910091Y858561D01*
X1909883Y858214D01*
X1909674Y857797D01*
X1909397Y857380D01*
X1908806Y856408D01*
X1908772Y856374D01*
X1908737Y856269D01*
X1908633Y856130D01*
X1908494Y855922D01*
X1908320Y855679D01*
X1908112Y855401D01*
X1907869Y855054D01*
X1907591Y854707D01*
X1906966Y853908D01*
X1906272Y853040D01*
X1905473Y852137D01*
X1904640Y851269D01*
X1904605Y851235D01*
X1904536Y851165D01*
X1904397Y851061D01*
X1904223Y850887D01*
X1904015Y850679D01*
X1903737Y850471D01*
X1903425Y850193D01*
X1903077Y849915D01*
X1902661Y849603D01*
X1902244Y849290D01*
X1901272Y848631D01*
X1900195Y847936D01*
X1899015Y847242D01*
X1898980D01*
X1898911Y847207D01*
X1898806Y847138D01*
X1898668Y847068D01*
X1898251Y846894D01*
X1897765Y846756D01*
X1897730D01*
X1897661Y846721D01*
X1897522D01*
X1897348Y846686D01*
X1896897D01*
X1896411Y846721D01*
X1896376D01*
X1896306Y846756D01*
X1896168Y846790D01*
X1896029Y846825D01*
X1895681Y847033D01*
X1895473Y847172D01*
X1895300Y847346D01*
Y847381D01*
X1895230Y847450D01*
X1895161Y847589D01*
X1895091Y847763D01*
X1895022Y847971D01*
X1894952Y848249D01*
X1894918Y848561D01*
Y848943D01*
Y848978D01*
Y849012D01*
Y849117D01*
X1894952Y849221D01*
Y849394D01*
X1894987Y849603D01*
X1895022Y849811D01*
X1895056Y850089D01*
Y850124D01*
X1895091Y850228D01*
X1895126Y850401D01*
X1895161Y850610D01*
X1895230Y850853D01*
X1895300Y851131D01*
X1895473Y851790D01*
Y851825D01*
X1895508Y851964D01*
X1895577Y852137D01*
X1895681Y852381D01*
X1895751Y852693D01*
X1895890Y853006D01*
X1896168Y853735D01*
X1896202Y853769D01*
X1896212Y853807D01*
X1896098Y853665D01*
X1895786Y853318D01*
X1895751Y853283D01*
X1895647Y853144D01*
X1895439Y852971D01*
X1895195Y852762D01*
X1894918Y852485D01*
X1894605Y852207D01*
X1893876Y851617D01*
X1893841Y851582D01*
X1893772Y851547D01*
X1893668Y851443D01*
X1893494Y851339D01*
X1893112Y851131D01*
X1892626Y850922D01*
X1892591D01*
X1892522Y850887D01*
X1892001D01*
X1891758Y850957D01*
X1891480Y851061D01*
X1891202Y851200D01*
X1891168D01*
X1891133Y851269D01*
X1890925Y851443D01*
X1890751Y851756D01*
X1890682Y851964D01*
X1890647Y852207D01*
Y852242D01*
Y852346D01*
Y852450D01*
X1890682Y852624D01*
X1890716Y853040D01*
X1890820Y853457D01*
X1890855Y853526D01*
X1890890Y853665D01*
X1890994Y853943D01*
X1891133Y854255D01*
X1891341Y854637D01*
X1891550Y855054D01*
X1891827Y855471D01*
X1892140Y855922D01*
X1892175Y855992D01*
X1892314Y856130D01*
X1892487Y856339D01*
X1892765Y856651D01*
X1893077Y856999D01*
X1893425Y857346D01*
X1893807Y857762D01*
X1894223Y858144D01*
X1894293Y858179D01*
X1894431Y858318D01*
X1894640Y858526D01*
X1894952Y858769D01*
X1895334Y859047D01*
X1895716Y859360D01*
X1896168Y859637D01*
X1896654Y859950D01*
X1896723Y859985D01*
X1896862Y860089D01*
X1897140Y860228D01*
X1897452Y860401D01*
X1897834Y860610D01*
X1898251Y860818D01*
X1899154Y861235D01*
X1899223Y861269D01*
X1899397Y861304D01*
X1899640Y861373D01*
X1899987Y861443D01*
X1900022D01*
X1900056Y861478D01*
X1900300Y861512D01*
X1900612Y861582D01*
X1900959Y861617D01*
X1901619D01*
X1901966Y861547D01*
X1902001D01*
X1902036Y861512D01*
X1902244Y861443D01*
X1902522Y861304D01*
X1902834Y861096D01*
X1902869Y861061D01*
X1902938Y860957D01*
X1902973Y860922D01*
X1903077Y860748D01*
Y860714D01*
X1903112Y860679D01*
X1903147Y860575D01*
X1903112Y860401D01*
Y860367D01*
X1903042Y860297D01*
X1902869Y860228D01*
X1902626D01*
X1902556Y860262D01*
X1902383Y860297D01*
X1902175Y860367D01*
X1901931Y860401D01*
X1901862D01*
X1901723Y860367D01*
X1901480Y860332D01*
X1901168Y860228D01*
X1900820Y860123D01*
X1900404Y859950D01*
X1899987Y859742D01*
X1899570Y859498D01*
X1899536Y859464D01*
X1899397Y859360D01*
X1899188Y859221D01*
X1898911Y859047D01*
X1898598Y858804D01*
X1898251Y858561D01*
X1897556Y857971D01*
X1897522Y857936D01*
X1897383Y857797D01*
X1897140Y857624D01*
X1896897Y857380D01*
X1896584Y857068D01*
X1896237Y856755D01*
X1895508Y856026D01*
X1895473Y855992D01*
X1895334Y855853D01*
X1895161Y855644D01*
X1894918Y855367D01*
X1894640Y855054D01*
X1894327Y854672D01*
X1894015Y854290D01*
X1893668Y853839D01*
Y853804D01*
X1893633Y853769D01*
X1893494Y853596D01*
X1893320Y853353D01*
X1893147Y853110D01*
X1893112Y853075D01*
X1893099Y853055D01*
X1893425Y853283D01*
X1893876Y853561D01*
X1893911Y853596D01*
X1893980Y853630D01*
X1894119Y853700D01*
X1894293Y853804D01*
X1894709Y854047D01*
X1895161Y854360D01*
X1895195Y854394D01*
X1895265Y854429D01*
X1895369Y854533D01*
X1895508Y854637D01*
X1895890Y854915D01*
X1896272Y855262D01*
X1896306Y855297D01*
X1896376Y855332D01*
X1896480Y855436D01*
X1896619Y855575D01*
X1897036Y855922D01*
X1897487Y856339D01*
X1897556Y856408D01*
X1897661Y856512D01*
X1897869Y856686D01*
X1897938Y856721D01*
X1898077Y856860D01*
X1898320Y857033D01*
X1898598Y857242D01*
X1898633D01*
X1898668Y857276D01*
X1898876Y857450D01*
X1899188Y857658D01*
X1899605Y857971D01*
X1899640Y858005D01*
X1899709Y858040D01*
X1899813Y858144D01*
X1899952Y858248D01*
X1900334Y858492D01*
X1900716Y858735D01*
X1900751D01*
X1900820Y858804D01*
X1900890Y858839D01*
X1901029Y858908D01*
X1901341Y859082D01*
X1901688Y859255D01*
X1901723D01*
X1901758Y859290D01*
X1901966Y859360D01*
X1902209Y859394D01*
X1902487Y859360D01*
X1902556Y859325D01*
X1902626Y859221D01*
X1902695Y859047D01*
Y858943D01*
X1902661Y858804D01*
X1902626Y858735D01*
X1902591Y858596D01*
X1902487Y858422D01*
X1902383Y858318D01*
X1902348Y858283D01*
X1902209Y858179D01*
X1902036Y858040D01*
X1901758Y857832D01*
X1901480Y857554D01*
X1901168Y857242D01*
X1900855Y856860D01*
X1900508Y856478D01*
X1900473Y856443D01*
X1900369Y856304D01*
X1900195Y856061D01*
X1900022Y855783D01*
X1899779Y855436D01*
X1899536Y855054D01*
X1899015Y854186D01*
X1898980Y854151D01*
X1898911Y853978D01*
X1898772Y853769D01*
X1898633Y853457D01*
X1898425Y853110D01*
X1898251Y852693D01*
X1897834Y851825D01*
X1897800Y851790D01*
X1897765Y851617D01*
X1897661Y851408D01*
X1897556Y851131D01*
X1897452Y850783D01*
X1897314Y850436D01*
X1897105Y849707D01*
Y849672D01*
X1897070Y849568D01*
X1897036Y849394D01*
X1896966Y849221D01*
X1896862Y848769D01*
X1896827Y848561D01*
X1896793Y848388D01*
Y848318D01*
X1896758Y848179D01*
X1896723Y848040D01*
X1896619Y847971D01*
X1896689D01*
X1896897Y848040D01*
X1897209Y848144D01*
X1897626Y848353D01*
X1897661D01*
X1897730Y848422D01*
X1897834Y848492D01*
X1898008Y848596D01*
X1898390Y848839D01*
X1898841Y849186D01*
X1898876Y849221D01*
X1898945Y849256D01*
X1899084Y849360D01*
X1899258Y849499D01*
X1899640Y849811D01*
X1900056Y850158D01*
X1900091Y850193D01*
X1900161Y850228D01*
X1900369Y850436D01*
X1900681Y850714D01*
X1900959Y850922D01*
X1900994Y850957D01*
X1901063Y851026D01*
X1901168Y851131D01*
X1901341Y851269D01*
X1901550Y851478D01*
X1901793Y851721D01*
X1902348Y852276D01*
X1902973Y852936D01*
X1903667Y853735D01*
X1904362Y854568D01*
X1905056Y855505D01*
X1905091Y855540D01*
X1905126Y855610D01*
X1905230Y855749D01*
X1905369Y855957D01*
X1905508Y856200D01*
X1905716Y856478D01*
X1905925Y856790D01*
X1906133Y857137D01*
X1906619Y857936D01*
X1907140Y858873D01*
X1907695Y859880D01*
X1908181Y860957D01*
Y860992D01*
X1908216Y861061D01*
X1908251Y861165D01*
X1908320Y861339D01*
X1908459Y861721D01*
X1908667Y862207D01*
Y862242D01*
X1908737Y862311D01*
X1908772Y862450D01*
X1908841Y862658D01*
X1909015Y863110D01*
X1909188Y863630D01*
Y863665D01*
X1909223Y863769D01*
X1909258Y863908D01*
X1909327Y864082D01*
X1909466Y864533D01*
X1909570Y865054D01*
Y865089D01*
X1909605Y865193D01*
Y865332D01*
X1909640Y865505D01*
X1909674Y865922D01*
X1909640Y866408D01*
Y866443D01*
Y866512D01*
X1909605Y866651D01*
X1909570Y866790D01*
X1909466Y867172D01*
X1909292Y867554D01*
Y867589D01*
X1909258Y867658D01*
X1909084Y867866D01*
X1908841Y868144D01*
X1908459Y868422D01*
X1908424D01*
X1908355Y868457D01*
X1908251Y868526D01*
X1908077Y868596D01*
X1907730Y868734D01*
X1907279Y868839D01*
X1907174D01*
X1907070Y868873D01*
X1906931D01*
X1906584Y868908D01*
X1905959D01*
X1905820Y868873D01*
X1905647D01*
X1905438Y868839D01*
X1904917Y868769D01*
X1904327Y868665D01*
X1903633Y868491D01*
X1902904Y868248D01*
X1902140Y867936D01*
X1902105D01*
X1902036Y867901D01*
X1901931Y867832D01*
X1901793Y867762D01*
X1901619Y867693D01*
X1901376Y867554D01*
X1900890Y867311D01*
X1900265Y866964D01*
X1899605Y866547D01*
X1898911Y866096D01*
X1898181Y865610D01*
X1898147D01*
X1898112Y865540D01*
X1898008Y865471D01*
X1897869Y865366D01*
X1897487Y865089D01*
X1897036Y864707D01*
X1896480Y864255D01*
X1895855Y863735D01*
X1895230Y863179D01*
X1894570Y862554D01*
X1894536Y862519D01*
X1894501Y862485D01*
X1894293Y862276D01*
X1893980Y861964D01*
X1893564Y861582D01*
X1893112Y861096D01*
X1892626Y860610D01*
X1892140Y860089D01*
X1891654Y859568D01*
X1891619Y859498D01*
X1891445Y859325D01*
X1891237Y859082D01*
X1890959Y858735D01*
X1890612Y858318D01*
X1890265Y857867D01*
X1889883Y857380D01*
X1889501Y856860D01*
X1889466Y856790D01*
X1889327Y856617D01*
X1889119Y856339D01*
X1888876Y855957D01*
X1888598Y855505D01*
X1888251Y854985D01*
X1887904Y854429D01*
X1887557Y853804D01*
X1887522Y853735D01*
X1887453Y853596D01*
X1887314Y853353D01*
X1887140Y853040D01*
X1886932Y852658D01*
X1886723Y852207D01*
X1886515Y851686D01*
X1886307Y851165D01*
X1886272Y851096D01*
X1886203Y850922D01*
X1886133Y850644D01*
X1885994Y850262D01*
X1885890Y849846D01*
X1885751Y849325D01*
X1885647Y848804D01*
X1885578Y848249D01*
Y848214D01*
Y848075D01*
X1885543Y847901D01*
Y847658D01*
Y847381D01*
Y847068D01*
X1885578Y846408D01*
Y846374D01*
X1885612Y846235D01*
X1885647Y846061D01*
X1885716Y845853D01*
X1885820Y845575D01*
X1885925Y845297D01*
X1886098Y844985D01*
X1886272Y844707D01*
X1886307Y844672D01*
X1886341Y844603D01*
X1886550Y844395D01*
X1886828Y844117D01*
X1887209Y843839D01*
X1887244D01*
X1887314Y843804D01*
X1887418Y843735D01*
X1887591Y843665D01*
X1888008Y843526D01*
X1888494Y843422D01*
X1888529D01*
X1888598Y843388D01*
X1888737D01*
X1888945Y843353D01*
X1889397Y843318D01*
X1889918Y843283D01*
X1890404D01*
X1890855Y843318D01*
X1891376Y843388D01*
X1891445D01*
X1891550Y843422D01*
X1891689D01*
X1892036Y843492D01*
X1892487Y843561D01*
X1893043Y843700D01*
X1893633Y843839D01*
X1894258Y844013D01*
X1894918Y844221D01*
X1894952D01*
X1894987Y844256D01*
X1895091Y844290D01*
X1895230Y844325D01*
X1895577Y844464D01*
X1896029Y844603D01*
X1896550Y844811D01*
X1897140Y845019D01*
X1897765Y845263D01*
X1898390Y845540D01*
X1898425D01*
X1898459Y845575D01*
X1898668Y845679D01*
X1898980Y845818D01*
X1899431Y845992D01*
X1899918Y846235D01*
X1900473Y846478D01*
X1901098Y846756D01*
X1901723Y847068D01*
X1901758D01*
X1901793Y847103D01*
X1902001Y847207D01*
X1902348Y847381D01*
X1902765Y847624D01*
X1903286Y847867D01*
X1903841Y848179D01*
X1904431Y848492D01*
X1905056Y848839D01*
X1905091Y848874D01*
X1905265Y848943D01*
X1905473Y849082D01*
X1905751Y849221D01*
X1906063Y849394D01*
X1906445Y849603D01*
X1907244Y850054D01*
X1907279Y850089D01*
X1907383Y850158D01*
X1907522Y850228D01*
X1907556Y850262D01*
X1907695Y850332D01*
X1907869Y850401D01*
X1908077Y850506D01*
X1908147Y850540D01*
X1908286Y850610D01*
X1908494Y850714D01*
X1908737Y850818D01*
X1908806Y850853D01*
X1908945Y850887D01*
X1909119D01*
X1909223Y850853D01*
X1909292Y850783D01*
Y850749D01*
X1909327Y850610D01*
X1909292Y850471D01*
X1909223Y850332D01*
X1909188Y850297D01*
X1909119Y850228D01*
X1908911Y850019D01*
X1908876Y849985D01*
X1908841Y849950D01*
X1908633Y849776D01*
X1908563Y849742D01*
X1908494Y849672D01*
X1907105Y848631D01*
X1907070Y848596D01*
X1906966Y848526D01*
X1906792Y848422D01*
X1906550Y848283D01*
X1906029Y847936D01*
X1905473Y847554D01*
X1905438Y847519D01*
X1905334Y847485D01*
X1905195Y847381D01*
X1905022Y847276D01*
X1904570Y846999D01*
X1904084Y846686D01*
X1904050D01*
X1904015Y846651D01*
X1903911Y846582D01*
X1903772Y846513D01*
X1903425Y846304D01*
X1903008Y846061D01*
X1902452Y845749D01*
X1901897Y845436D01*
X1900647Y844776D01*
X1900612D01*
X1900577Y844742D01*
X1900369Y844638D01*
X1900022Y844464D01*
X1899605Y844221D01*
X1899084Y843978D01*
X1898494Y843700D01*
X1897869Y843422D01*
X1897209Y843145D01*
X1897140Y843110D01*
X1896931Y843040D01*
X1896619Y842901D01*
X1896202Y842728D01*
X1895716Y842520D01*
X1895161Y842311D01*
X1894501Y842103D01*
X1893841Y841860D01*
X1893807D01*
X1893772Y841825D01*
X1893668Y841790D01*
X1893529Y841756D01*
X1893147Y841686D01*
X1892695Y841582D01*
X1892105Y841443D01*
X1891480Y841374D01*
X1890786Y841304D01*
X1890091Y841270D01*
X1889848D01*
X1889536Y841304D01*
X1889154Y841339D01*
X1888737Y841374D01*
X1888251Y841443D01*
X1887730Y841547D01*
X1887244Y841686D01*
X1887175Y841721D01*
X1887036Y841756D01*
X1886793Y841860D01*
X1886480Y841999D01*
X1886133Y842138D01*
X1885751Y842346D01*
X1885369Y842624D01*
X1884987Y842901D01*
X1884953Y842936D01*
X1884848Y843040D01*
X1884675Y843249D01*
X1884466Y843492D01*
X1884223Y843770D01*
X1883980Y844151D01*
X1883737Y844568D01*
X1883529Y845019D01*
X1883494Y845089D01*
X1883459Y845228D01*
X1883390Y845506D01*
X1883286Y845853D01*
X1883216Y846269D01*
X1883147Y846756D01*
X1883112Y847311D01*
Y847901D01*
Y847936D01*
Y847971D01*
X1883147Y848179D01*
X1883182Y848492D01*
X1883216Y848908D01*
X1883321Y849360D01*
X1883390Y849881D01*
X1883529Y850436D01*
X1883703Y850992D01*
Y851026D01*
X1883737Y851061D01*
X1883807Y851235D01*
X1883911Y851547D01*
X1884050Y851929D01*
X1884223Y852381D01*
X1884432Y852901D01*
X1884675Y853457D01*
X1884953Y854047D01*
Y854082D01*
X1885022Y854186D01*
X1885091Y854325D01*
X1885195Y854533D01*
X1885334Y854776D01*
X1885473Y855054D01*
X1885682Y855367D01*
X1885890Y855749D01*
X1886376Y856547D01*
X1886932Y857415D01*
X1887591Y858353D01*
X1888286Y859290D01*
X1888320Y859325D01*
X1888390Y859394D01*
X1888494Y859533D01*
X1888633Y859707D01*
X1888807Y859950D01*
X1889050Y860193D01*
X1889570Y860818D01*
X1890195Y861512D01*
X1890925Y862311D01*
X1891723Y863110D01*
X1892591Y863943D01*
X1892661Y864012D01*
X1892800Y864151D01*
X1893043Y864360D01*
X1893355Y864672D01*
X1893737Y865019D01*
X1894189Y865366D01*
X1894675Y865783D01*
X1895161Y866165D01*
X1895230Y866200D01*
X1895404Y866339D01*
X1895681Y866547D01*
X1896029Y866790D01*
X1896445Y867103D01*
X1896931Y867415D01*
X1897418Y867728D01*
X1897973Y868040D01*
X1898008Y868075D01*
X1898147Y868144D01*
X1898355Y868283D01*
X1898668Y868422D01*
X1898980Y868596D01*
X1899397Y868804D01*
X1899813Y869012D01*
X1900265Y869221D01*
X1900334Y869255D01*
X1900473Y869325D01*
X1900751Y869429D01*
X1901098Y869568D01*
X1901480Y869707D01*
X1901931Y869880D01*
X1902418Y870054D01*
X1902938Y870193D01*
X1903008Y870228D01*
X1903181Y870262D01*
X1903459Y870332D01*
X1903841Y870401D01*
X1904258Y870471D01*
X1904744Y870540D01*
X1905786Y870644D01*
X1906688D01*
X1907105Y870575D01*
D02*
G37*
G36*
X1952729Y858387D02*
X1953007Y858248D01*
X1953181Y858179D01*
X1953320Y858040D01*
X1953354D01*
X1953389Y857971D01*
X1953528Y857797D01*
X1953667Y857485D01*
X1953736Y857137D01*
Y857103D01*
Y857068D01*
Y856894D01*
X1953702Y856651D01*
X1953598Y856374D01*
X1953563Y856339D01*
X1953493Y856200D01*
X1953354Y855992D01*
X1953181Y855818D01*
X1953146Y855783D01*
X1953042Y855679D01*
X1952868Y855540D01*
X1952695Y855401D01*
X1952660Y855367D01*
X1952556Y855262D01*
X1952417Y855124D01*
X1952313Y854915D01*
Y854880D01*
X1952278Y854846D01*
X1952174Y854637D01*
X1952035Y854360D01*
X1951861Y853978D01*
Y853943D01*
X1951827Y853874D01*
X1951792Y853769D01*
X1951723Y853630D01*
X1951584Y853249D01*
X1951445Y852762D01*
Y852728D01*
X1951410Y852658D01*
X1951375Y852554D01*
X1951341Y852450D01*
X1951236Y852103D01*
X1951098Y851686D01*
Y851651D01*
X1951063Y851582D01*
Y851478D01*
X1951028Y851339D01*
X1950924Y850992D01*
X1950820Y850575D01*
Y850540D01*
X1950750Y850367D01*
X1950681Y850158D01*
X1950577Y849881D01*
X1950438Y849568D01*
X1950264Y849186D01*
X1949848Y848457D01*
X1949813Y848422D01*
X1949743Y848283D01*
X1949570Y848110D01*
X1949396Y847901D01*
X1949153Y847658D01*
X1948875Y847415D01*
X1948528Y847172D01*
X1948181Y846964D01*
X1948111Y846929D01*
X1947973Y846894D01*
X1947729Y846790D01*
X1947417Y846686D01*
X1947070Y846617D01*
X1946653Y846513D01*
X1946202Y846478D01*
X1945646D01*
X1945542Y846513D01*
X1945403Y846547D01*
X1945056Y846651D01*
X1944743Y846790D01*
X1944674Y846825D01*
X1944604Y846860D01*
X1944570Y846894D01*
X1944500Y846929D01*
X1944396Y846999D01*
X1944257Y847068D01*
X1944223Y847103D01*
X1944118Y847138D01*
X1944014Y847242D01*
X1943875Y847381D01*
X1943841Y847415D01*
X1943806Y847519D01*
X1943771Y847658D01*
Y847832D01*
X1943806Y847867D01*
X1943910Y847936D01*
X1944049Y847971D01*
X1944188D01*
X1944327Y847936D01*
X1944396D01*
X1944535Y847901D01*
X1944674Y847867D01*
X1944743Y847832D01*
X1944813D01*
X1944987Y847797D01*
X1945264Y847763D01*
X1945577Y847728D01*
X1945681D01*
X1945820Y847763D01*
X1945993Y847797D01*
X1946375Y847936D01*
X1946792Y848144D01*
X1946827Y848179D01*
X1946896Y848214D01*
X1947000Y848318D01*
X1947139Y848457D01*
X1947452Y848804D01*
X1947799Y849221D01*
X1947834Y849256D01*
X1947868Y849325D01*
X1947938Y849464D01*
X1948007Y849637D01*
X1948181Y850054D01*
X1948320Y850506D01*
Y850540D01*
X1948354Y850610D01*
Y850749D01*
X1948389Y850957D01*
X1948459Y851408D01*
X1948528Y851929D01*
Y851964D01*
X1948563Y852033D01*
Y852172D01*
X1948598Y852346D01*
X1948667Y852693D01*
X1948728Y852997D01*
X1948667Y852936D01*
X1948598Y852797D01*
X1948493Y852624D01*
X1948285Y852415D01*
X1948077Y852172D01*
X1947764Y851894D01*
X1947382Y851617D01*
X1947348Y851582D01*
X1947209Y851478D01*
X1946966Y851339D01*
X1946688Y851165D01*
X1946375Y850957D01*
X1945993Y850714D01*
X1945229Y850228D01*
X1945195Y850193D01*
X1945056Y850124D01*
X1944882Y850019D01*
X1944604Y849881D01*
X1944327Y849707D01*
X1944014Y849533D01*
X1943974Y849512D01*
X1943598Y849186D01*
X1943007Y848700D01*
X1942973D01*
X1942938Y848631D01*
X1942730Y848492D01*
X1942417Y848249D01*
X1942105Y847971D01*
X1942035Y847901D01*
X1941862Y847728D01*
X1941584Y847485D01*
X1941237Y847172D01*
X1941202Y847138D01*
X1941167Y847103D01*
X1941063Y846999D01*
X1940889Y846894D01*
X1940855Y846860D01*
X1940750Y846790D01*
X1940646Y846721D01*
X1940577Y846651D01*
X1940507Y846617D01*
X1940334Y846513D01*
X1940056Y846443D01*
X1939882Y846408D01*
X1939709Y846443D01*
X1939674D01*
X1939639Y846478D01*
X1939431Y846513D01*
X1939153Y846651D01*
X1938910Y846860D01*
Y846894D01*
X1938875Y846929D01*
X1938771Y847138D01*
X1938667Y847381D01*
Y847554D01*
Y847693D01*
Y847728D01*
X1938702Y847763D01*
X1938737Y847971D01*
X1938841Y848283D01*
X1938980Y848631D01*
Y848665D01*
X1939014Y848735D01*
X1939084Y848839D01*
X1939153Y849012D01*
X1939362Y849394D01*
X1939424Y849519D01*
X1939257Y849394D01*
X1939223Y849360D01*
X1939153Y849290D01*
X1939014Y849186D01*
X1938875Y849047D01*
X1938424Y848665D01*
X1937938Y848249D01*
X1937903Y848214D01*
X1937834Y848144D01*
X1937695Y848040D01*
X1937521Y847901D01*
X1937070Y847589D01*
X1936584Y847207D01*
X1936549Y847172D01*
X1936480Y847103D01*
X1936341Y846999D01*
X1936132Y846860D01*
X1936098Y846825D01*
X1935959Y846756D01*
X1935750Y846651D01*
X1935542Y846547D01*
X1935507D01*
X1935368Y846513D01*
X1935160Y846478D01*
X1934917Y846443D01*
X1934848D01*
X1934709Y846478D01*
X1934535Y846547D01*
X1934292Y846651D01*
X1934257D01*
X1934223Y846721D01*
X1934084Y846860D01*
X1933910Y847138D01*
X1933875Y847311D01*
X1933841Y847485D01*
Y847519D01*
Y847589D01*
Y847797D01*
X1933875Y848075D01*
X1933945Y848388D01*
Y848422D01*
X1934014Y848561D01*
X1934084Y848769D01*
X1934153Y849047D01*
X1934292Y849360D01*
X1934466Y849707D01*
X1934639Y850089D01*
X1934882Y850471D01*
X1934917Y850506D01*
X1934987Y850644D01*
X1935125Y850853D01*
X1935334Y851096D01*
X1935542Y851408D01*
X1935750Y851721D01*
X1936271Y852381D01*
X1936306Y852415D01*
X1936410Y852519D01*
X1936549Y852693D01*
X1936723Y852867D01*
X1937139Y853318D01*
X1937591Y853769D01*
X1937625Y853804D01*
X1937695Y853874D01*
X1937903Y854082D01*
X1938181Y854325D01*
X1938285Y854429D01*
X1938389Y854499D01*
X1938424Y854533D01*
X1938493Y854603D01*
X1938598Y854707D01*
X1938737Y854811D01*
X1939153Y855158D01*
X1939639Y855540D01*
X1939674Y855575D01*
X1939778Y855644D01*
X1939917Y855749D01*
X1940125Y855887D01*
X1940368Y856026D01*
X1940646Y856200D01*
X1941237Y856547D01*
X1941271Y856582D01*
X1941375Y856617D01*
X1941549Y856721D01*
X1941792Y856825D01*
X1942035Y856929D01*
X1942348Y857033D01*
X1943007Y857276D01*
X1943042D01*
X1943146Y857311D01*
X1943355Y857380D01*
X1943563Y857415D01*
X1943841Y857485D01*
X1944153Y857519D01*
X1944778Y857554D01*
X1945091D01*
X1945403Y857485D01*
X1945785Y857415D01*
X1945820D01*
X1945889Y857380D01*
X1946132Y857311D01*
X1946410Y857137D01*
X1946653Y856860D01*
X1946688Y856790D01*
X1946757Y856686D01*
X1946792Y856478D01*
Y856443D01*
Y856339D01*
X1946723Y856269D01*
X1946653Y856235D01*
X1946549Y856200D01*
X1946341D01*
X1946271Y856235D01*
X1946132D01*
X1945959Y856269D01*
X1945507Y856304D01*
X1944987Y856235D01*
X1944952D01*
X1944882Y856200D01*
X1944743Y856165D01*
X1944570Y856130D01*
X1944153Y855957D01*
X1943632Y855749D01*
X1943598D01*
X1943528Y855679D01*
X1943389Y855610D01*
X1943216Y855540D01*
X1942834Y855297D01*
X1942382Y854950D01*
X1942348Y854915D01*
X1942278Y854880D01*
X1942174Y854776D01*
X1942000Y854672D01*
X1941584Y854360D01*
X1941098Y853978D01*
X1941063Y853943D01*
X1940993Y853908D01*
X1940889Y853804D01*
X1940750Y853665D01*
X1940403Y853318D01*
X1939952Y852901D01*
X1939917Y852867D01*
X1939848Y852797D01*
X1939709Y852658D01*
X1939570Y852485D01*
X1939396Y852276D01*
X1939188Y852068D01*
X1938737Y851512D01*
X1938702Y851478D01*
X1938632Y851374D01*
X1938528Y851235D01*
X1938389Y851061D01*
X1938216Y850818D01*
X1938007Y850575D01*
X1937625Y849985D01*
X1937591Y849950D01*
X1937556Y849846D01*
X1937452Y849707D01*
X1937313Y849533D01*
X1937035Y849117D01*
X1936723Y848735D01*
X1936757Y848769D01*
X1936862Y848839D01*
X1937000Y849012D01*
X1937209Y849186D01*
X1937487Y849429D01*
X1937834Y849707D01*
X1938250Y850054D01*
X1938702Y850401D01*
X1938771Y850436D01*
X1938945Y850575D01*
X1939188Y850783D01*
X1939535Y851026D01*
X1939917Y851304D01*
X1940334Y851617D01*
X1941271Y852311D01*
X1941306Y852346D01*
X1941375Y852381D01*
X1941480Y852485D01*
X1941653Y852624D01*
X1942070Y852936D01*
X1942556Y853283D01*
X1942591Y853318D01*
X1942660Y853353D01*
X1942799Y853457D01*
X1942973Y853596D01*
X1943424Y853943D01*
X1943875Y854325D01*
X1943910Y854360D01*
X1944014Y854429D01*
X1944153Y854533D01*
X1944327Y854672D01*
X1944362Y854707D01*
X1944500Y854811D01*
X1944709Y854950D01*
X1944917Y855089D01*
X1944987Y855124D01*
X1945091Y855228D01*
X1945299Y855332D01*
X1945473Y855471D01*
X1945507Y855505D01*
X1945612Y855575D01*
X1945750Y855644D01*
X1945889Y855679D01*
X1946098D01*
X1946306Y855644D01*
X1946410Y855575D01*
X1946514Y855471D01*
X1946549Y855436D01*
X1946618Y855297D01*
X1946688Y855089D01*
Y854880D01*
Y854846D01*
X1946653Y854811D01*
X1946618Y854672D01*
X1946479Y854499D01*
X1946445Y854464D01*
X1946375Y854360D01*
X1946306Y854255D01*
X1946202Y854151D01*
Y854117D01*
X1946132Y854082D01*
X1945959Y853874D01*
Y853839D01*
X1945889Y853804D01*
X1945854Y853735D01*
X1945820Y853700D01*
X1945785Y853665D01*
X1945750Y853596D01*
X1945646Y853492D01*
X1945507Y853318D01*
X1945160Y852936D01*
X1944743Y852415D01*
X1944709Y852381D01*
X1944639Y852311D01*
X1944535Y852172D01*
X1944396Y851999D01*
X1944049Y851547D01*
X1943632Y851061D01*
X1943598Y851026D01*
X1943563Y850957D01*
X1943459Y850853D01*
X1943373Y850746D01*
X1943493Y850818D01*
X1943737Y850992D01*
X1943980Y851165D01*
X1944292Y851339D01*
X1944917Y851721D01*
X1944952Y851756D01*
X1945056Y851825D01*
X1945229Y851894D01*
X1945438Y852033D01*
X1945612Y852120D01*
X1945750Y852242D01*
X1946132Y852554D01*
X1946514Y852901D01*
X1947417Y853665D01*
X1947487Y853700D01*
X1947625Y853874D01*
X1947868Y854082D01*
X1948146Y854360D01*
X1948459Y854707D01*
X1948806Y855089D01*
X1949118Y855471D01*
X1949431Y855887D01*
Y855922D01*
X1949500Y855992D01*
X1949639Y856200D01*
X1949813Y856443D01*
X1949986Y856721D01*
X1950021Y856790D01*
X1950160Y856964D01*
X1950334Y857207D01*
X1950577Y857519D01*
X1950646Y857589D01*
X1950820Y857728D01*
X1951063Y857936D01*
X1951375Y858144D01*
X1951410D01*
X1951445Y858179D01*
X1951549Y858248D01*
X1951688Y858283D01*
X1952000Y858387D01*
X1952417Y858422D01*
X1952521D01*
X1952729Y858387D01*
D02*
G37*
G36*
X1955785Y876755D02*
X1955924Y876686D01*
X1956063Y876547D01*
X1956098Y876477D01*
Y876373D01*
Y876339D01*
X1956063Y876234D01*
X1955993Y876130D01*
X1955889Y876026D01*
X1955820Y875957D01*
X1955715Y875887D01*
X1955681Y875852D01*
X1955611Y875818D01*
X1955577Y875783D01*
X1955438Y875714D01*
X1955229Y875609D01*
X1954952Y875436D01*
X1954674Y875227D01*
X1954361Y875019D01*
X1954049Y874741D01*
X1953771Y874464D01*
X1953736Y874429D01*
X1953563Y874255D01*
X1953354Y874047D01*
X1953042Y873734D01*
X1952660Y873387D01*
X1952278Y872971D01*
X1951827Y872519D01*
X1951341Y872068D01*
X1951271Y871998D01*
X1951132Y871859D01*
X1950854Y871616D01*
X1950542Y871269D01*
X1950125Y870853D01*
X1949674Y870401D01*
X1949153Y869846D01*
X1948598Y869290D01*
X1948528Y869221D01*
X1948354Y869047D01*
X1948042Y868734D01*
X1947695Y868387D01*
X1947278Y867936D01*
X1946792Y867484D01*
X1945820Y866512D01*
X1945750Y866443D01*
X1945612Y866304D01*
X1945368Y866026D01*
X1945021Y865679D01*
X1944639Y865262D01*
X1944188Y864741D01*
X1943702Y864186D01*
X1943216Y863596D01*
Y863561D01*
X1943146Y863526D01*
X1942973Y863318D01*
X1942730Y863005D01*
X1942348Y862589D01*
X1941931Y862137D01*
X1941480Y861617D01*
X1940959Y861096D01*
X1940438Y860540D01*
X1940368Y860471D01*
X1940195Y860297D01*
X1939952Y860019D01*
X1939639Y859707D01*
X1939292Y859290D01*
X1938945Y858873D01*
X1938598Y858457D01*
X1938285Y858040D01*
Y858005D01*
X1938216Y857971D01*
X1938042Y857762D01*
X1937730Y857415D01*
X1937348Y856999D01*
X1936896Y856478D01*
X1936410Y855922D01*
X1935889Y855297D01*
X1935334Y854672D01*
Y854637D01*
X1935264Y854603D01*
X1935091Y854394D01*
X1934778Y854047D01*
X1934431Y853630D01*
X1933980Y853110D01*
X1933459Y852554D01*
X1932938Y851929D01*
X1932383Y851304D01*
X1932348Y851269D01*
X1932278Y851200D01*
X1932174Y851061D01*
X1932000Y850887D01*
X1931792Y850644D01*
X1931549Y850367D01*
X1931271Y850054D01*
X1930959Y849707D01*
X1930924Y849672D01*
X1930820Y849533D01*
X1930646Y849325D01*
X1930438Y849082D01*
X1930195Y848769D01*
X1929883Y848457D01*
X1929258Y847728D01*
X1929223Y847693D01*
X1929119Y847554D01*
X1928945Y847381D01*
X1928702Y847138D01*
X1928424Y846860D01*
X1928112Y846582D01*
X1927417Y845922D01*
X1927383Y845888D01*
X1927244Y845783D01*
X1927070Y845610D01*
X1926827Y845401D01*
X1926549Y845193D01*
X1926271Y844985D01*
X1925959Y844742D01*
X1925646Y844568D01*
X1925577Y844533D01*
X1925403Y844464D01*
X1925195Y844429D01*
X1924917Y844464D01*
X1924883D01*
X1924744Y844533D01*
X1924535Y844638D01*
X1924327Y844776D01*
X1924292Y844811D01*
X1924223Y844881D01*
X1924153Y845019D01*
X1924049Y845228D01*
X1923910Y845471D01*
X1923806Y845783D01*
X1923737Y846131D01*
X1923667Y846513D01*
Y846547D01*
Y846721D01*
Y846929D01*
X1923633Y847207D01*
Y847554D01*
X1923667Y847936D01*
X1923702Y848804D01*
Y848874D01*
X1923737Y849012D01*
X1923772Y849256D01*
X1923806Y849568D01*
X1923841Y849915D01*
X1923910Y850297D01*
X1924049Y851165D01*
Y851235D01*
X1924084Y851374D01*
X1924119Y851582D01*
X1924188Y851860D01*
X1924327Y852450D01*
X1924362Y852762D01*
X1924431Y853040D01*
Y853075D01*
X1924466Y853144D01*
X1924501Y853283D01*
X1924535Y853457D01*
X1924570Y853665D01*
X1924639Y853908D01*
X1924813Y854499D01*
X1924987Y855228D01*
X1925195Y856026D01*
X1925438Y856860D01*
X1925716Y857728D01*
Y857762D01*
X1925751Y857832D01*
X1925785Y857971D01*
X1925855Y858110D01*
X1925924Y858318D01*
X1925994Y858561D01*
X1926202Y859151D01*
X1926410Y859811D01*
X1926688Y860505D01*
X1926937Y861113D01*
X1926792Y860957D01*
X1926271Y860436D01*
X1925716Y859880D01*
X1925160Y859255D01*
X1924570Y858596D01*
Y858561D01*
X1924501Y858526D01*
X1924431Y858422D01*
X1924292Y858283D01*
X1924014Y857936D01*
X1923598Y857485D01*
X1923147Y856964D01*
X1922626Y856339D01*
X1922035Y855714D01*
X1921445Y855019D01*
X1921410Y854985D01*
X1921306Y854846D01*
X1921133Y854637D01*
X1920890Y854360D01*
X1920612Y854047D01*
X1920265Y853630D01*
X1919883Y853179D01*
X1919431Y852658D01*
X1918980Y852103D01*
X1918459Y851512D01*
X1917383Y850262D01*
X1916237Y848874D01*
X1915056Y847450D01*
X1915022Y847415D01*
X1914917Y847276D01*
X1914744Y847068D01*
X1914536Y846790D01*
X1914258Y846443D01*
X1913911Y846026D01*
X1913563Y845575D01*
X1913147Y845054D01*
X1912695Y844464D01*
X1912209Y843874D01*
X1911723Y843214D01*
X1911237Y842554D01*
X1910161Y841131D01*
X1909084Y839638D01*
X1909049Y839603D01*
X1908980Y839499D01*
X1908876Y839360D01*
X1908737Y839152D01*
X1908390Y838665D01*
X1907973Y838145D01*
X1907938Y838110D01*
X1907869Y838040D01*
X1907765Y837902D01*
X1907626Y837693D01*
X1907452Y837485D01*
X1907244Y837242D01*
X1906827Y836686D01*
X1906792Y836652D01*
X1906723Y836582D01*
X1906654Y836443D01*
X1906515Y836270D01*
X1906480Y836235D01*
X1906376Y836131D01*
X1906202Y835992D01*
X1905994Y835922D01*
X1905925D01*
X1905751Y835992D01*
X1905612Y836096D01*
X1905577Y836200D01*
Y836339D01*
Y836374D01*
Y836408D01*
X1905647Y836582D01*
X1905681Y836825D01*
X1905786Y837068D01*
X1905820Y837103D01*
X1905890Y837242D01*
X1905994Y837415D01*
X1906098Y837624D01*
X1906133Y837658D01*
X1906167Y837763D01*
X1906237Y837902D01*
X1906272Y837971D01*
Y838006D01*
X1906306Y838040D01*
X1906411Y838249D01*
X1906584Y838561D01*
X1906827Y838943D01*
X1907105Y839429D01*
X1907417Y839985D01*
X1907799Y840575D01*
X1908181Y841165D01*
Y841200D01*
X1908216Y841235D01*
X1908355Y841443D01*
X1908563Y841756D01*
X1908806Y842138D01*
X1909119Y842589D01*
X1909431Y843110D01*
X1910091Y844151D01*
X1910126Y844186D01*
X1910195Y844290D01*
X1910299Y844464D01*
X1910438Y844672D01*
X1910647Y844950D01*
X1910855Y845263D01*
X1911133Y845644D01*
X1911411Y846061D01*
X1911723Y846513D01*
X1912070Y846964D01*
X1912799Y848006D01*
X1913598Y849082D01*
X1914431Y850193D01*
X1914466Y850228D01*
X1914536Y850332D01*
X1914674Y850506D01*
X1914813Y850714D01*
X1915022Y850992D01*
X1915265Y851304D01*
X1915542Y851651D01*
X1915855Y852068D01*
X1916584Y852936D01*
X1917348Y853943D01*
X1918181Y854985D01*
X1919049Y856026D01*
X1919084Y856061D01*
X1919119Y856130D01*
X1919223Y856235D01*
X1919362Y856374D01*
X1919501Y856582D01*
X1919674Y856790D01*
X1920126Y857311D01*
X1920612Y857901D01*
X1921167Y858561D01*
X1921723Y859221D01*
X1922313Y859880D01*
X1922348Y859915D01*
X1922383Y859950D01*
X1922487Y860054D01*
X1922591Y860193D01*
X1922903Y860540D01*
X1923320Y860992D01*
X1923841Y861547D01*
X1924431Y862172D01*
X1925056Y862866D01*
X1925751Y863596D01*
X1925785Y863630D01*
X1925889Y863735D01*
X1926028Y863908D01*
X1926237Y864116D01*
X1926480Y864360D01*
X1926723Y864637D01*
X1927313Y865297D01*
X1927348Y865332D01*
X1927452Y865471D01*
X1927626Y865644D01*
X1927834Y865853D01*
X1928112Y866130D01*
X1928389Y866443D01*
X1929084Y867103D01*
X1929153Y867172D01*
X1929327Y867311D01*
X1929605Y867484D01*
X1929952Y867693D01*
X1929987D01*
X1930056Y867728D01*
X1930160Y867762D01*
X1930299Y867797D01*
X1930508Y867832D01*
X1930716D01*
X1930924Y867797D01*
X1931167Y867693D01*
X1931202Y867658D01*
X1931271Y867623D01*
X1931341Y867519D01*
X1931480Y867415D01*
X1931653Y867068D01*
X1931723Y866860D01*
X1931758Y866616D01*
Y866547D01*
Y866408D01*
X1931688Y866200D01*
X1931619Y865957D01*
X1931584Y865922D01*
X1931549Y865783D01*
X1931445Y865610D01*
X1931375Y865401D01*
Y865366D01*
X1931341Y865297D01*
X1931271Y865193D01*
X1931167Y865019D01*
X1931098Y864811D01*
X1930959Y864568D01*
X1930681Y864012D01*
X1930369Y863318D01*
X1930021Y862554D01*
X1929639Y861755D01*
X1929292Y860887D01*
Y860853D01*
X1929258Y860783D01*
X1929188Y860644D01*
X1929153Y860505D01*
X1929049Y860297D01*
X1928945Y860019D01*
X1928841Y859742D01*
X1928737Y859429D01*
X1928459Y858735D01*
X1928181Y857901D01*
X1927834Y857033D01*
X1927521Y856130D01*
Y856096D01*
X1927452Y855922D01*
X1927383Y855714D01*
X1927278Y855401D01*
X1927174Y855054D01*
X1927035Y854672D01*
X1926723Y853804D01*
Y853769D01*
X1926653Y853596D01*
X1926584Y853353D01*
X1926480Y853075D01*
X1926376Y852693D01*
X1926271Y852311D01*
X1925994Y851443D01*
Y851408D01*
X1925959Y851235D01*
X1925889Y851026D01*
X1925820Y850714D01*
X1925716Y850367D01*
X1925612Y849950D01*
X1925403Y849082D01*
Y849047D01*
X1925369Y848874D01*
X1925334Y848665D01*
X1925264Y848388D01*
X1925195Y848075D01*
X1925126Y847728D01*
X1925021Y847068D01*
X1925056Y847103D01*
X1925126Y847207D01*
X1925264Y847346D01*
X1925473Y847519D01*
X1925681Y847763D01*
X1925959Y848040D01*
X1926584Y848665D01*
X1926619Y848700D01*
X1926758Y848804D01*
X1926931Y848978D01*
X1927174Y849221D01*
X1927452Y849464D01*
X1927764Y849742D01*
X1928459Y850332D01*
X1928494Y850367D01*
X1928563Y850471D01*
X1928737Y850644D01*
X1928910Y850887D01*
X1929153Y851165D01*
X1929431Y851512D01*
X1929744Y851894D01*
X1930091Y852311D01*
X1930855Y853249D01*
X1931723Y854290D01*
X1932625Y855367D01*
X1933563Y856478D01*
X1933598Y856512D01*
X1933667Y856617D01*
X1933806Y856755D01*
X1933980Y856964D01*
X1934223Y857242D01*
X1934466Y857554D01*
X1934778Y857901D01*
X1935091Y858283D01*
X1935820Y859117D01*
X1936618Y860054D01*
X1937487Y861026D01*
X1938355Y862033D01*
X1938389Y862068D01*
X1938528Y862207D01*
X1938702Y862415D01*
X1938980Y862693D01*
X1939292Y863040D01*
X1939674Y863422D01*
X1940056Y863839D01*
X1940507Y864290D01*
X1940577Y864360D01*
X1940716Y864498D01*
X1940993Y864741D01*
X1941306Y865089D01*
X1941723Y865471D01*
X1942209Y865922D01*
X1942695Y866408D01*
X1943250Y866894D01*
X1943285D01*
X1943320Y866964D01*
X1943493Y867137D01*
X1943806Y867380D01*
X1944153Y867728D01*
X1944535Y868109D01*
X1944987Y868526D01*
X1945403Y868978D01*
X1945820Y869394D01*
X1945854Y869464D01*
X1945993Y869603D01*
X1946202Y869811D01*
X1946479Y870089D01*
X1946792Y870401D01*
X1947139Y870748D01*
X1947903Y871443D01*
X1947938Y871478D01*
X1948077Y871582D01*
X1948250Y871755D01*
X1948459Y871964D01*
X1948736Y872207D01*
X1949049Y872484D01*
X1949743Y873075D01*
X1949778Y873109D01*
X1949917Y873214D01*
X1950091Y873352D01*
X1950334Y873561D01*
X1950646Y873804D01*
X1950959Y874082D01*
X1951653Y874637D01*
X1951688Y874672D01*
X1951792Y874741D01*
X1951966Y874880D01*
X1952209Y875054D01*
X1952486Y875262D01*
X1952799Y875471D01*
X1953528Y875887D01*
X1953563Y875922D01*
X1953702Y875991D01*
X1953910Y876096D01*
X1954188Y876234D01*
X1954500Y876373D01*
X1954882Y876512D01*
X1955299Y876651D01*
X1955715Y876790D01*
X1955750D01*
X1955785Y876755D01*
D02*
G37*
G36*
X1954917Y849186D02*
X1955160Y849117D01*
X1955229Y849082D01*
X1955368Y849012D01*
X1955507Y848839D01*
X1955646Y848596D01*
Y848561D01*
X1955681Y848422D01*
X1955646Y848214D01*
X1955611Y848006D01*
Y847971D01*
X1955542Y847832D01*
X1955473Y847624D01*
X1955334Y847415D01*
X1955299Y847381D01*
X1955229Y847276D01*
X1955056Y847138D01*
X1954882Y846964D01*
X1954848Y846929D01*
X1954743Y846860D01*
X1954604Y846756D01*
X1954465Y846686D01*
X1954431D01*
X1954327Y846617D01*
X1954188Y846582D01*
X1953979Y846513D01*
X1953806D01*
X1953632Y846478D01*
X1953215D01*
X1953007Y846513D01*
X1952799Y846582D01*
X1952764Y846617D01*
X1952660Y846686D01*
X1952521Y846860D01*
X1952382Y847068D01*
Y847103D01*
X1952348Y847172D01*
Y847276D01*
X1952313Y847450D01*
X1952348Y847797D01*
X1952382Y848006D01*
X1952486Y848179D01*
Y848214D01*
X1952556Y848283D01*
X1952729Y848492D01*
X1952973Y848735D01*
X1953320Y848978D01*
X1953354Y849012D01*
X1953459Y849047D01*
X1953598Y849082D01*
X1953806Y849151D01*
X1953875Y849186D01*
X1954014Y849221D01*
X1954223Y849256D01*
X1954674D01*
X1954917Y849186D01*
D02*
G37*
G36*
X2030888Y858422D02*
X2030958Y858318D01*
Y858214D01*
Y858144D01*
X2030923Y858005D01*
X2030888Y857797D01*
X2030819Y857554D01*
Y857519D01*
X2030749Y857380D01*
X2030680Y857207D01*
X2030576Y856999D01*
X2030541Y856964D01*
X2030506Y856860D01*
X2030437Y856755D01*
X2030402Y856686D01*
X2030367Y856651D01*
X2030333Y856547D01*
X2030228Y856408D01*
X2030124Y856235D01*
X2029985Y855992D01*
X2029847Y855749D01*
X2029465Y855193D01*
X2029430Y855158D01*
X2029361Y855054D01*
X2029256Y854915D01*
X2029152Y854742D01*
X2028805Y854256D01*
X2028388Y853735D01*
X2028353Y853700D01*
X2028284Y853631D01*
X2028180Y853457D01*
X2028041Y853283D01*
X2027867Y853040D01*
X2027659Y852762D01*
X2027242Y852137D01*
X2027208Y852103D01*
X2027138Y851999D01*
X2027034Y851860D01*
X2026986Y851779D01*
X2027242Y852068D01*
X2027555Y852381D01*
X2027937Y852728D01*
X2027972Y852762D01*
X2028111Y852901D01*
X2028319Y853075D01*
X2028597Y853318D01*
X2028874Y853596D01*
X2029222Y853908D01*
X2029951Y854533D01*
X2029985Y854568D01*
X2030124Y854672D01*
X2030298Y854846D01*
X2030541Y855019D01*
X2030819Y855262D01*
X2031131Y855506D01*
X2031791Y856026D01*
X2031826Y856061D01*
X2031930Y856130D01*
X2032138Y856269D01*
X2032346Y856408D01*
X2032624Y856582D01*
X2032937Y856755D01*
X2033562Y857103D01*
X2033596D01*
X2033666Y857137D01*
X2033735Y857172D01*
X2033874Y857207D01*
X2034256D01*
X2034465Y857137D01*
X2034708Y857068D01*
X2034742D01*
X2034777Y856999D01*
X2034951Y856860D01*
X2035124Y856617D01*
X2035263Y856304D01*
Y856269D01*
Y856235D01*
X2035298Y856026D01*
X2035228Y855749D01*
X2035194Y855575D01*
X2035090Y855401D01*
X2035055Y855367D01*
X2034951Y855228D01*
X2034777Y854985D01*
X2034569Y854742D01*
X2034326Y854429D01*
X2034048Y854082D01*
X2033423Y853353D01*
X2033388Y853318D01*
X2033284Y853214D01*
X2033110Y853040D01*
X2032902Y852832D01*
X2032694Y852624D01*
X2032867Y852762D01*
X2033284Y853110D01*
X2033735Y853492D01*
X2034221Y853908D01*
X2034291Y853978D01*
X2034465Y854117D01*
X2034742Y854360D01*
X2035090Y854637D01*
X2035506Y855019D01*
X2035992Y855401D01*
X2036999Y856269D01*
X2037034D01*
X2037069Y856339D01*
X2037277Y856478D01*
X2037555Y856721D01*
X2037902Y856999D01*
X2037937Y857033D01*
X2038006Y857068D01*
X2038076Y857137D01*
X2038215Y857242D01*
X2038562Y857450D01*
X2039013Y857624D01*
X2039048D01*
X2039187Y857658D01*
X2039360Y857693D01*
X2039569D01*
X2039708Y857658D01*
X2039881Y857624D01*
X2040090Y857519D01*
X2040124D01*
X2040159Y857485D01*
X2040332Y857346D01*
X2040506Y857103D01*
X2040645Y856790D01*
Y856755D01*
X2040680Y856721D01*
Y856478D01*
X2040645Y856200D01*
X2040576Y856026D01*
X2040471Y855853D01*
X2040437Y855783D01*
X2040332Y855644D01*
X2040194Y855471D01*
X2039985Y855228D01*
X2039951Y855193D01*
X2039846Y855054D01*
X2039708Y854950D01*
X2039603Y854846D01*
Y854811D01*
X2039534Y854742D01*
X2039465Y854637D01*
X2039360Y854499D01*
X2039152Y854186D01*
X2038909Y853908D01*
X2038874Y853839D01*
X2038735Y853700D01*
X2038527Y853457D01*
X2038284Y853214D01*
X2038249Y853179D01*
X2038180Y853075D01*
X2038041Y852936D01*
X2037902Y852728D01*
X2037485Y852276D01*
X2037069Y851721D01*
X2037034Y851686D01*
X2036965Y851617D01*
X2036860Y851443D01*
X2036756Y851269D01*
X2036583Y851061D01*
X2036409Y850783D01*
X2035992Y850228D01*
X2035958Y850193D01*
X2035888Y850089D01*
X2035784Y849915D01*
X2035645Y849707D01*
X2035298Y849221D01*
X2035246Y849134D01*
X2035263Y849151D01*
X2035437Y849290D01*
X2035610Y849429D01*
X2035645Y849464D01*
X2035715Y849499D01*
X2035853Y849603D01*
X2035992Y849707D01*
X2036201Y849846D01*
X2036444Y849985D01*
X2036965Y850367D01*
X2036999Y850401D01*
X2037069Y850436D01*
X2037277Y850575D01*
X2037416Y850679D01*
X2037590Y850783D01*
X2037624Y850818D01*
X2037694Y850853D01*
X2037798Y850922D01*
X2037971Y851026D01*
X2038145Y851165D01*
X2038388Y851304D01*
X2038909Y851651D01*
X2038944Y851686D01*
X2039048Y851721D01*
X2039187Y851825D01*
X2039395Y851929D01*
X2039846Y852207D01*
X2040218Y852405D01*
X2040228Y852415D01*
X2040332Y852519D01*
X2040471Y852693D01*
X2040645Y852867D01*
X2041062Y853318D01*
X2041513Y853769D01*
X2041548Y853804D01*
X2041617Y853874D01*
X2041826Y854082D01*
X2042103Y854325D01*
X2042207Y854429D01*
X2042312Y854499D01*
X2042346Y854533D01*
X2042416Y854603D01*
X2042520Y854707D01*
X2042659Y854811D01*
X2043076Y855158D01*
X2043562Y855540D01*
X2043596Y855575D01*
X2043701Y855644D01*
X2043839Y855749D01*
X2044048Y855887D01*
X2044291Y856026D01*
X2044569Y856200D01*
X2045159Y856547D01*
X2045194Y856582D01*
X2045298Y856617D01*
X2045471Y856721D01*
X2045714Y856825D01*
X2045957Y856929D01*
X2046270Y857033D01*
X2046930Y857276D01*
X2046964D01*
X2047069Y857311D01*
X2047277Y857380D01*
X2047485Y857415D01*
X2047763Y857485D01*
X2048076Y857519D01*
X2048701Y857554D01*
X2049013D01*
X2049326Y857485D01*
X2049707Y857415D01*
X2049742D01*
X2049812Y857380D01*
X2050055Y857311D01*
X2050332Y857137D01*
X2050576Y856860D01*
X2050610Y856790D01*
X2050680Y856686D01*
X2050714Y856478D01*
Y856443D01*
Y856339D01*
X2050645Y856269D01*
X2050576Y856235D01*
X2050471Y856200D01*
X2050263D01*
X2050193Y856235D01*
X2050055D01*
X2049881Y856269D01*
X2049430Y856304D01*
X2048909Y856235D01*
X2048874D01*
X2048805Y856200D01*
X2048666Y856165D01*
X2048492Y856130D01*
X2048076Y855957D01*
X2047555Y855749D01*
X2047520D01*
X2047451Y855679D01*
X2047312Y855610D01*
X2047138Y855540D01*
X2046756Y855297D01*
X2046305Y854950D01*
X2046270Y854915D01*
X2046201Y854881D01*
X2046096Y854776D01*
X2045923Y854672D01*
X2045506Y854360D01*
X2045020Y853978D01*
X2044985Y853943D01*
X2044916Y853908D01*
X2044812Y853804D01*
X2044673Y853665D01*
X2044326Y853318D01*
X2043874Y852901D01*
X2043839Y852867D01*
X2043770Y852797D01*
X2043631Y852658D01*
X2043492Y852485D01*
X2043319Y852276D01*
X2043110Y852068D01*
X2042659Y851512D01*
X2042624Y851478D01*
X2042555Y851374D01*
X2042451Y851235D01*
X2042312Y851061D01*
X2042138Y850818D01*
X2041930Y850575D01*
X2041548Y849985D01*
X2041513Y849950D01*
X2041478Y849846D01*
X2041374Y849707D01*
X2041235Y849533D01*
X2040957Y849117D01*
X2040645Y848735D01*
X2040680Y848769D01*
X2040784Y848839D01*
X2040923Y849013D01*
X2041131Y849186D01*
X2041409Y849429D01*
X2041756Y849707D01*
X2042173Y850054D01*
X2042624Y850401D01*
X2042694Y850436D01*
X2042867Y850575D01*
X2043110Y850783D01*
X2043457Y851026D01*
X2043839Y851304D01*
X2044256Y851617D01*
X2045194Y852311D01*
X2045228Y852346D01*
X2045298Y852381D01*
X2045402Y852485D01*
X2045576Y852624D01*
X2045992Y852936D01*
X2046478Y853283D01*
X2046513Y853318D01*
X2046582Y853353D01*
X2046721Y853457D01*
X2046895Y853596D01*
X2047346Y853943D01*
X2047798Y854325D01*
X2047832Y854360D01*
X2047937Y854429D01*
X2048076Y854533D01*
X2048249Y854672D01*
X2048284Y854707D01*
X2048423Y854811D01*
X2048631Y854950D01*
X2048839Y855089D01*
X2048909Y855124D01*
X2049013Y855228D01*
X2049221Y855332D01*
X2049395Y855471D01*
X2049430Y855506D01*
X2049534Y855575D01*
X2049673Y855644D01*
X2049812Y855679D01*
X2050020D01*
X2050228Y855644D01*
X2050332Y855575D01*
X2050437Y855471D01*
X2050471Y855436D01*
X2050541Y855297D01*
X2050610Y855089D01*
Y854881D01*
Y854846D01*
X2050576Y854811D01*
X2050541Y854672D01*
X2050402Y854499D01*
X2050367Y854464D01*
X2050298Y854360D01*
X2050228Y854256D01*
X2050124Y854151D01*
Y854117D01*
X2050055Y854082D01*
X2049881Y853874D01*
Y853839D01*
X2049812Y853804D01*
X2049777Y853735D01*
X2049742Y853700D01*
X2049707Y853665D01*
X2049673Y853596D01*
X2049568Y853492D01*
X2049430Y853318D01*
X2049082Y852936D01*
X2048666Y852415D01*
X2048631Y852381D01*
X2048562Y852311D01*
X2048457Y852172D01*
X2048319Y851999D01*
X2047971Y851547D01*
X2047555Y851061D01*
X2047520Y851026D01*
X2047485Y850957D01*
X2047381Y850853D01*
X2047296Y850746D01*
X2047416Y850818D01*
X2047659Y850992D01*
X2047902Y851165D01*
X2048214Y851339D01*
X2048839Y851721D01*
X2048874Y851756D01*
X2048978Y851825D01*
X2049152Y851894D01*
X2049360Y852033D01*
X2049638Y852172D01*
X2049916Y852346D01*
X2050541Y852693D01*
X2050576D01*
X2050610Y852762D01*
X2050722Y852790D01*
X2050992Y853110D01*
X2051409Y853596D01*
X2051860Y854117D01*
X2051930Y854186D01*
X2052068Y854360D01*
X2052346Y854637D01*
X2052659Y854950D01*
X2053041Y855367D01*
X2053492Y855783D01*
X2054430Y856617D01*
X2054464D01*
X2054499Y856651D01*
X2054673Y856790D01*
X2054916Y856999D01*
X2055159Y857207D01*
X2055193D01*
X2055228Y857242D01*
X2055402Y857380D01*
X2055645Y857485D01*
X2055923Y857589D01*
X2055992D01*
X2056131Y857554D01*
X2056200Y857415D01*
X2056235Y857311D01*
X2056200Y857172D01*
X2056166Y857103D01*
X2056131Y856964D01*
X2056027Y856755D01*
X2055923Y856582D01*
X2055888Y856547D01*
X2055818Y856443D01*
X2055714Y856269D01*
X2055575Y856061D01*
X2055541Y856026D01*
X2055471Y855887D01*
X2055367Y855749D01*
X2055263Y855610D01*
X2055228Y855575D01*
X2055159Y855471D01*
X2055055Y855332D01*
X2054916Y855158D01*
X2054603Y854742D01*
X2054291Y854325D01*
Y854290D01*
X2054221Y854221D01*
X2054152Y854151D01*
X2054082Y854012D01*
X2053874Y853700D01*
X2053631Y853353D01*
Y853318D01*
X2053562Y853283D01*
X2053423Y853075D01*
X2053180Y852728D01*
X2053092Y852607D01*
X2053110Y852624D01*
X2053527Y853006D01*
X2053596Y853040D01*
X2053735Y853179D01*
X2053978Y853387D01*
X2054291Y853631D01*
X2054638Y853943D01*
X2055055Y854256D01*
X2055888Y854950D01*
X2055957Y854985D01*
X2056096Y855089D01*
X2056305Y855262D01*
X2056582Y855506D01*
X2056930Y855749D01*
X2057312Y856026D01*
X2058075Y856582D01*
X2058110Y856617D01*
X2058249Y856721D01*
X2058457Y856860D01*
X2058735Y856999D01*
X2059013Y857207D01*
X2059325Y857380D01*
X2059673Y857554D01*
X2059985Y857728D01*
X2060020D01*
X2060089Y857762D01*
X2060193Y857797D01*
X2060367Y857832D01*
X2060749D01*
X2060957Y857762D01*
X2061166Y857693D01*
X2061200D01*
X2061235Y857658D01*
X2061409Y857485D01*
X2061582Y857242D01*
X2061721Y856929D01*
Y856894D01*
Y856860D01*
Y856651D01*
X2061687Y856339D01*
X2061617Y856200D01*
X2061513Y856026D01*
X2061478Y855992D01*
X2061443Y855922D01*
X2061339Y855783D01*
X2061200Y855575D01*
X2061027Y855367D01*
X2060818Y855124D01*
X2060298Y854568D01*
X2060263Y854533D01*
X2060159Y854429D01*
X2060020Y854290D01*
X2059846Y854117D01*
X2059603Y853874D01*
X2059360Y853631D01*
X2058874Y853075D01*
X2058839Y853040D01*
X2058770Y852936D01*
X2058631Y852797D01*
X2058492Y852624D01*
X2058110Y852172D01*
X2057693Y851651D01*
X2057659Y851617D01*
X2057589Y851547D01*
X2057485Y851374D01*
X2057346Y851200D01*
X2057207Y850992D01*
X2057034Y850714D01*
X2056652Y850158D01*
Y850124D01*
X2056582Y850089D01*
X2056443Y849846D01*
X2056270Y849533D01*
X2056027Y849186D01*
Y849172D01*
X2056131Y849256D01*
X2056339Y849429D01*
X2056374Y849464D01*
X2056443Y849499D01*
X2056582Y849603D01*
X2056756Y849707D01*
X2057138Y849985D01*
X2057555Y850263D01*
X2057589D01*
X2057659Y850297D01*
X2057763Y850367D01*
X2057971Y850506D01*
X2058041Y850540D01*
X2058180Y850644D01*
X2058423Y850783D01*
X2058700Y850992D01*
X2058735D01*
X2058770Y851061D01*
X2058978Y851200D01*
X2059256Y851374D01*
X2059568Y851582D01*
X2059603D01*
X2059638Y851651D01*
X2059881Y851756D01*
X2060159Y851964D01*
X2060471Y852137D01*
X2060506D01*
X2060541Y852172D01*
X2060749Y852276D01*
X2061027Y852415D01*
X2061339Y852554D01*
X2061374D01*
X2061409Y852589D01*
X2061582Y852624D01*
X2061791Y852589D01*
X2061860Y852554D01*
X2061929Y852485D01*
Y852450D01*
Y852346D01*
X2061895Y852172D01*
X2061791Y851999D01*
X2061756Y851964D01*
X2061687Y851860D01*
X2061548Y851721D01*
X2061409Y851582D01*
X2061374Y851547D01*
X2061270Y851478D01*
X2061131Y851374D01*
X2060992Y851269D01*
X2060957Y851235D01*
X2060888Y851200D01*
X2060818Y851131D01*
X2060784Y851096D01*
X2060714Y851061D01*
X2060575Y850922D01*
X2060332Y850749D01*
X2060089Y850540D01*
X2060020Y850506D01*
X2059881Y850367D01*
X2059638Y850193D01*
X2059395Y850019D01*
X2059360Y849985D01*
X2059221Y849881D01*
X2059048Y849742D01*
X2058804Y849533D01*
X2058527Y849325D01*
X2058180Y849082D01*
X2057416Y848526D01*
X2057381Y848492D01*
X2057242Y848388D01*
X2057034Y848249D01*
X2056791Y848075D01*
X2056478Y847832D01*
X2056131Y847554D01*
X2055437Y846894D01*
X2055402Y846860D01*
X2055332Y846825D01*
X2055089Y846617D01*
X2055055D01*
X2054985Y846547D01*
X2054846Y846478D01*
X2054673Y846408D01*
X2054638D01*
X2054534Y846374D01*
X2054360Y846339D01*
X2054152Y846304D01*
X2054117D01*
X2053978Y846339D01*
X2053805Y846408D01*
X2053596Y846513D01*
X2053562D01*
X2053527Y846582D01*
X2053353Y846756D01*
X2053180Y847033D01*
X2053145Y847242D01*
X2053110Y847450D01*
Y847485D01*
Y847554D01*
X2053145Y847693D01*
Y847832D01*
X2053214Y848249D01*
X2053353Y848700D01*
Y848735D01*
X2053388Y848804D01*
X2053423Y848943D01*
X2053492Y849117D01*
X2053631Y849499D01*
X2053839Y849950D01*
Y849985D01*
X2053874Y850054D01*
X2053943Y850158D01*
X2054013Y850297D01*
X2054152Y850610D01*
X2054325Y850922D01*
X2054360Y850957D01*
X2054395Y851061D01*
X2054464Y851200D01*
X2054603Y851408D01*
X2054742Y851651D01*
X2054916Y851929D01*
X2055159Y852276D01*
X2055402Y852624D01*
X2055437Y852658D01*
X2055541Y852797D01*
X2055680Y852971D01*
X2055818Y853144D01*
X2055923Y853249D01*
X2056131Y853422D01*
X2056305Y853561D01*
X2056443Y853665D01*
X2056513Y853735D01*
X2056548Y853769D01*
X2056374Y853700D01*
X2056200Y853561D01*
X2056027Y853353D01*
X2055923Y853249D01*
X2055680Y853040D01*
X2055089Y852658D01*
X2055055Y852624D01*
X2054950Y852589D01*
X2054777Y852485D01*
X2054568Y852346D01*
X2054325Y852172D01*
X2054013Y851964D01*
X2053388Y851478D01*
X2053353Y851443D01*
X2053249Y851374D01*
X2053075Y851200D01*
X2052867Y851026D01*
X2052589Y850783D01*
X2052277Y850506D01*
X2051964Y850158D01*
X2051617Y849811D01*
X2051582Y849776D01*
X2051443Y849638D01*
X2051270Y849394D01*
X2051027Y849117D01*
X2050714Y848735D01*
X2050402Y848283D01*
X2050020Y847763D01*
X2049603Y847172D01*
X2049568Y847138D01*
X2049534Y847033D01*
X2049326Y846790D01*
X2049291Y846756D01*
X2049221Y846686D01*
X2049117Y846617D01*
X2048944Y846513D01*
X2048874D01*
X2048666Y846478D01*
X2048388Y846513D01*
X2048214Y846547D01*
X2048041Y846617D01*
X2048006D01*
X2047971Y846651D01*
X2047798Y846790D01*
X2047624Y847033D01*
X2047589Y847207D01*
X2047555Y847381D01*
Y847415D01*
Y847485D01*
Y847624D01*
X2047589Y847797D01*
X2047659Y848040D01*
X2047763Y848318D01*
X2047902Y848631D01*
X2048076Y849013D01*
X2048110Y849047D01*
X2048180Y849221D01*
X2048319Y849429D01*
X2048492Y849742D01*
X2048701Y850089D01*
X2048753Y850179D01*
X2048562Y850019D01*
X2048041Y849638D01*
X2047520Y849186D01*
X2046930Y848700D01*
X2046895D01*
X2046860Y848631D01*
X2046652Y848492D01*
X2046339Y848249D01*
X2046027Y847971D01*
X2045957Y847901D01*
X2045784Y847728D01*
X2045506Y847485D01*
X2045159Y847172D01*
X2045124Y847138D01*
X2045089Y847103D01*
X2044985Y846999D01*
X2044812Y846894D01*
X2044777Y846860D01*
X2044673Y846790D01*
X2044569Y846721D01*
X2044499Y846651D01*
X2044430Y846617D01*
X2044256Y846513D01*
X2043978Y846443D01*
X2043805Y846408D01*
X2043631Y846443D01*
X2043596D01*
X2043562Y846478D01*
X2043353Y846513D01*
X2043076Y846651D01*
X2042832Y846860D01*
Y846894D01*
X2042798Y846929D01*
X2042694Y847138D01*
X2042590Y847381D01*
Y847554D01*
Y847693D01*
Y847728D01*
X2042624Y847763D01*
X2042659Y847971D01*
X2042763Y848283D01*
X2042902Y848631D01*
Y848665D01*
X2042937Y848735D01*
X2043006Y848839D01*
X2043076Y849013D01*
X2043284Y849394D01*
X2043346Y849519D01*
X2043180Y849394D01*
X2043145Y849360D01*
X2043076Y849290D01*
X2042937Y849186D01*
X2042798Y849047D01*
X2042346Y848665D01*
X2041860Y848249D01*
X2041826Y848214D01*
X2041756Y848144D01*
X2041617Y848040D01*
X2041444Y847901D01*
X2040992Y847589D01*
X2040506Y847207D01*
X2040471Y847172D01*
X2040402Y847103D01*
X2040263Y846999D01*
X2040055Y846860D01*
X2040020Y846825D01*
X2039881Y846756D01*
X2039673Y846651D01*
X2039465Y846547D01*
X2039430D01*
X2039291Y846513D01*
X2039083Y846478D01*
X2038840Y846443D01*
X2038770D01*
X2038631Y846478D01*
X2038458Y846547D01*
X2038215Y846651D01*
X2038180D01*
X2038145Y846721D01*
X2038006Y846860D01*
X2037833Y847138D01*
X2037798Y847311D01*
X2037763Y847485D01*
Y847519D01*
Y847589D01*
Y847797D01*
X2037798Y848075D01*
X2037867Y848388D01*
Y848422D01*
X2037937Y848561D01*
X2038006Y848769D01*
X2038076Y849047D01*
X2038215Y849360D01*
X2038388Y849707D01*
X2038456Y849856D01*
X2038319Y849742D01*
X2038076Y849568D01*
X2037833Y849360D01*
X2037242Y848874D01*
X2037208Y848839D01*
X2037103Y848769D01*
X2036965Y848631D01*
X2036791Y848492D01*
X2036305Y848075D01*
X2035784Y847624D01*
X2035749Y847589D01*
X2035645Y847519D01*
X2035506Y847346D01*
X2035298Y847172D01*
X2035263Y847138D01*
X2035159Y847033D01*
X2035020Y846894D01*
X2034881Y846756D01*
X2034812Y846721D01*
X2034673Y846617D01*
X2034430Y846443D01*
X2034083Y846270D01*
X2034048D01*
X2034013Y846235D01*
X2033909Y846200D01*
X2033631D01*
X2033423Y846235D01*
X2033249Y846304D01*
X2033041Y846408D01*
X2033006Y846443D01*
X2032937Y846513D01*
X2032833Y846617D01*
X2032763Y846756D01*
Y846790D01*
X2032728Y846894D01*
X2032694Y847033D01*
X2032624Y847172D01*
Y847207D01*
Y847276D01*
Y847381D01*
X2032590Y847485D01*
Y847832D01*
X2032624Y848179D01*
Y848214D01*
X2032659Y848283D01*
Y848353D01*
X2032694Y848492D01*
X2032763Y848804D01*
X2032867Y849151D01*
Y849186D01*
X2032902Y849221D01*
X2032971Y849429D01*
X2033076Y849742D01*
X2033249Y850089D01*
Y850124D01*
X2033284Y850158D01*
X2033388Y850367D01*
X2033527Y850644D01*
X2033666Y850922D01*
X2033701Y850957D01*
X2033735Y851061D01*
X2033840Y851235D01*
X2033978Y851478D01*
X2034117Y851721D01*
X2034326Y852033D01*
X2034777Y852728D01*
X2034812Y852762D01*
X2034881Y852901D01*
X2035020Y853040D01*
X2035057Y853085D01*
X2034812Y852867D01*
X2034465Y852589D01*
X2034430Y852554D01*
X2034291Y852450D01*
X2034117Y852311D01*
X2033874Y852103D01*
X2033562Y851860D01*
X2033249Y851617D01*
X2032555Y851026D01*
X2032520Y850992D01*
X2032416Y850922D01*
X2032208Y850714D01*
X2032034Y850575D01*
X2031860Y850401D01*
X2031826Y850367D01*
X2031756Y850332D01*
X2031652Y850228D01*
X2031513Y850089D01*
X2031131Y849776D01*
X2030680Y849394D01*
X2030645Y849360D01*
X2030576Y849325D01*
X2030437Y849221D01*
X2030263Y849082D01*
X2029847Y848769D01*
X2029326Y848457D01*
X2029291D01*
X2029222Y848388D01*
X2029083Y848353D01*
X2028944Y848283D01*
X2028597Y848214D01*
X2028423Y848249D01*
X2028284Y848283D01*
X2028249Y848318D01*
X2028145Y848457D01*
X2028076Y848700D01*
Y848874D01*
X2028111Y849047D01*
Y849082D01*
X2028145Y849151D01*
X2028180Y849256D01*
X2028215Y849394D01*
X2028353Y849742D01*
X2028527Y850158D01*
Y850193D01*
X2028597Y850263D01*
X2028666Y850367D01*
X2028736Y850540D01*
X2028978Y850957D01*
X2029256Y851443D01*
X2029291Y851478D01*
X2029326Y851582D01*
X2029395Y851721D01*
X2029534Y851894D01*
X2029777Y852346D01*
X2030090Y852832D01*
X2030124Y852867D01*
X2030159Y852936D01*
X2030263Y853075D01*
X2030367Y853214D01*
X2030502Y853461D01*
X2030159Y853144D01*
X2029638Y852624D01*
X2029013Y852068D01*
X2028353Y851443D01*
X2027659Y850749D01*
X2027624Y850714D01*
X2027590Y850679D01*
X2027486Y850575D01*
X2027347Y850436D01*
X2027173Y850263D01*
X2026965Y850054D01*
X2026513Y849533D01*
X2025958Y848908D01*
X2025333Y848214D01*
X2024708Y847450D01*
X2024048Y846651D01*
X2024013Y846617D01*
X2023979Y846547D01*
X2023805Y846339D01*
X2023770Y846304D01*
X2023736Y846235D01*
X2023597Y846131D01*
X2023423Y846026D01*
X2023388D01*
X2023354Y845992D01*
X2023111Y845957D01*
X2022833Y845992D01*
X2022659Y846026D01*
X2022486Y846096D01*
X2022451D01*
X2022416Y846131D01*
X2022242Y846270D01*
X2022104Y846513D01*
X2022034Y846686D01*
X2021999Y846860D01*
Y846894D01*
Y847033D01*
X2022034Y847276D01*
X2022069Y847554D01*
X2022138Y847867D01*
X2022208Y848214D01*
X2022347Y848561D01*
X2022520Y848943D01*
X2022555Y848978D01*
X2022590Y849117D01*
X2022694Y849325D01*
X2022833Y849568D01*
X2023006Y849846D01*
X2023180Y850158D01*
X2023562Y850818D01*
Y850853D01*
X2023631Y850888D01*
X2023666Y850992D01*
X2023770Y851131D01*
X2024013Y851478D01*
X2024326Y851894D01*
X2024361Y851929D01*
X2024430Y851999D01*
X2024534Y852137D01*
X2024673Y852311D01*
X2025020Y852728D01*
X2025472Y853249D01*
X2025506Y853283D01*
X2025576Y853387D01*
X2025715Y853526D01*
X2025888Y853735D01*
X2026097Y853978D01*
X2026340Y854256D01*
X2026861Y854846D01*
X2026895Y854881D01*
X2026999Y854985D01*
X2027138Y855124D01*
X2027312Y855332D01*
X2027763Y855749D01*
X2028215Y856165D01*
X2028249Y856200D01*
X2028319Y856269D01*
X2028458Y856374D01*
X2028597Y856512D01*
X2028978Y856929D01*
X2029430Y857415D01*
X2029465Y857450D01*
X2029534Y857519D01*
X2029638Y857658D01*
X2029777Y857832D01*
X2030090Y858144D01*
X2030228Y858283D01*
X2030367Y858422D01*
X2030402D01*
X2030472Y858457D01*
X2030784D01*
X2030888Y858422D01*
D02*
G37*
%LPC*%
G36*
X2025958Y871512D02*
X2025923D01*
X2025819Y871339D01*
X2025749Y871130D01*
X2025680Y870991D01*
X2025784Y871096D01*
X2025854Y871165D01*
X2025992Y871304D01*
X2026062Y871373D01*
X2026097Y871408D01*
Y871443D01*
X2026062Y871478D01*
X2025958Y871512D01*
D02*
G37*
G36*
X2014604Y850124D02*
X2014430Y849985D01*
X2014326Y849846D01*
X2014534Y850054D01*
X2014604Y850124D01*
D02*
G37*
%LPD*%
D10*
X1994454Y1011954D02*
G03*
X1995454Y1011954I500J0D01*
G01*
D02*
G03*
X1994454Y1011954I-500J0D01*
G01*
X1747935Y932219D02*
G03*
X1747935Y933219I0J500D01*
G01*
D02*
G03*
X1747935Y932219I0J-500D01*
G01*
X1996954Y1016954D02*
Y1029454D01*
X2025954Y1016454D02*
Y1029954D01*
X1890422Y1156543D02*
Y1160543D01*
Y1156543D02*
Y1160543D01*
Y1156543D02*
X1964422D01*
X1890422D02*
X1964422D01*
Y1214043D01*
Y1156543D02*
Y1214043D01*
X1890422D02*
X1964422D01*
X1890422D02*
X1964422D01*
X1890422Y1180543D02*
Y1214043D01*
Y1180543D02*
Y1214043D01*
X2062133Y1082020D02*
X2072133D01*
X2062133D02*
X2072133D01*
X2102133D02*
X2116403D01*
X2102133D02*
X2116403D01*
Y992620D02*
Y1082020D01*
Y992620D02*
Y1082020D01*
X2104633Y992620D02*
X2116403D01*
X2104633D02*
X2116403D01*
X2064633D02*
X2072133D01*
Y992320D02*
Y992620D01*
X2064633Y992320D02*
X2072133D01*
X2064633D02*
Y992620D01*
X1927986Y1032617D02*
Y1064617D01*
X1895986Y1032617D02*
Y1064617D01*
X1609243Y973349D02*
Y1153349D01*
Y973349D02*
Y1153349D01*
X1295243D02*
X1359743D01*
X1295243D02*
X1359743D01*
X1295243Y973349D02*
Y1153349D01*
Y973349D02*
Y1153349D01*
Y973349D02*
X1359743D01*
X1295243D02*
X1359743D01*
X1867000Y1180777D02*
Y1214277D01*
X1718000D02*
X1867000D01*
X1718000Y1156777D02*
Y1214277D01*
Y1156777D02*
X1867000D01*
Y1160777D01*
X1588784Y729009D02*
Y856509D01*
Y729009D02*
Y856509D01*
X1517684Y729009D02*
Y856509D01*
Y729009D02*
Y856509D01*
Y728009D02*
X1588234D01*
X1517684D02*
X1588234D01*
X1518184Y886509D02*
X1588234D01*
X1518184D02*
X1588234D01*
D11*
X2032633Y1003320D02*
G03*
X2032633Y1004320I0J500D01*
G01*
D02*
G03*
X2032633Y1003320I0J-500D01*
G01*
D02*
G03*
X2032633Y1004320I0J500D01*
G01*
X1369643Y959349D02*
G03*
X1369643Y960349I0J500D01*
G01*
D02*
G03*
X1369643Y959349I0J-500D01*
G01*
D02*
G03*
X1369643Y960349I0J500D01*
G01*
X1510734Y847509D02*
G03*
X1510734Y845509I0J-1000D01*
G01*
D02*
G03*
X1510734Y847509I0J1000D01*
G01*
D02*
G03*
X1510734Y845509I0J-1000D01*
G01*
X1518959Y1216973D02*
Y1226973D01*
X1544959D01*
Y1216973D02*
Y1226973D01*
X1537459Y1181973D02*
X1555459D01*
X1508459D02*
X1526459D01*
X1508459Y1216973D02*
X1526459D01*
X1537459D02*
X1555459D01*
X1435077Y1217206D02*
Y1227206D01*
X1461077D01*
Y1217206D02*
Y1227206D01*
X1453577Y1182206D02*
X1471577D01*
X1424577D02*
X1442577D01*
X1424577Y1217206D02*
X1442577D01*
X1453577D02*
X1471577D01*
X2066834Y954142D02*
X2094834D01*
Y933142D02*
Y954142D01*
X2066834Y933142D02*
X2094834D01*
X2061940Y925175D02*
X2072440D01*
X2075940Y895675D02*
Y924675D01*
Y895675D02*
X2080440D01*
Y924675D01*
X2075940D02*
X2080440D01*
X1982755Y929836D02*
Y941836D01*
X1953755Y929836D02*
X1982755D01*
X1953755D02*
Y941836D01*
X1982755D01*
X1983255Y945336D02*
Y954336D01*
X1743439Y1090591D02*
Y1122591D01*
X1842439D01*
Y1090591D02*
Y1122591D01*
X1743439Y1090591D02*
X1842439D01*
X1741739Y1071591D02*
Y1087091D01*
X2006349Y1050879D02*
X2018349D01*
X2006349Y1042879D02*
X2022949D01*
X1715435Y907219D02*
Y927219D01*
X1855435D01*
Y907219D02*
Y927219D01*
X1715435Y827219D02*
Y832219D01*
Y827219D02*
X1855435D01*
Y832219D01*
X1755435Y787219D02*
Y827219D01*
Y787219D02*
X1815435D01*
Y827219D01*
X1755435Y677219D02*
Y787219D01*
Y677219D02*
X1762935Y667219D01*
X1792935D01*
X1800435Y677219D01*
Y787219D01*
X1755435Y677219D02*
X1800435D01*
X1734915Y1033008D02*
X1876116D01*
Y1006508D02*
Y1033008D01*
X1720715Y1006508D02*
X1876116D01*
X1720715D02*
Y1019758D01*
X1596808Y1173208D02*
X1688248D01*
X1596808D02*
Y1203288D01*
X1703488D01*
Y1188248D02*
Y1203288D01*
X1988660Y1181744D02*
X1991660D01*
X1988660Y1196244D02*
X1991660D01*
X2008290Y1066727D02*
Y1072727D01*
Y995811D02*
Y1001811D01*
M02*
