G04*
G04 #@! TF.GenerationSoftware,Altium Limited,Altium Designer,20.1.14 (287)*
G04*
G04 Layer_Physical_Order=2*
G04 Layer_Color=16711680*
%FSLAX44Y44*%
%MOMM*%
G71*
G04*
G04 #@! TF.SameCoordinates,99A645DD-A7E4-4CA2-B257-33081834DCFA*
G04*
G04*
G04 #@! TF.FilePolarity,Positive*
G04*
G01*
G75*
%ADD11C,0.2000*%
%ADD79R,0.4500X0.4500*%
%ADD84R,0.5200X0.5600*%
%ADD101C,0.2540*%
%ADD102C,0.3000*%
%ADD103C,0.6000*%
%ADD105C,0.7500*%
%ADD106R,1.5750X1.5750*%
%ADD107C,1.5750*%
%ADD108C,0.6500*%
%ADD109C,0.3250*%
%ADD110R,1.5000X1.5000*%
%ADD111C,1.5000*%
%ADD112C,5.1600*%
%ADD113C,1.8000*%
%ADD114R,1.8000X1.8000*%
%ADD115C,1.6500*%
%ADD116R,1.6500X1.6500*%
%ADD117C,1.9500*%
%ADD118C,1.5400*%
%ADD119C,2.0000*%
%ADD120C,0.7000*%
%ADD121R,0.8500X0.3000*%
%ADD122R,0.3000X0.8500*%
%ADD123R,2.5500X2.5500*%
%ADD124C,0.4000*%
G36*
X1872324Y1047753D02*
X1872324Y1047753D01*
X1872479Y1046972D01*
X1872921Y1046311D01*
X1874947Y1044285D01*
X1874461Y1043112D01*
X1842326D01*
X1840375Y1042724D01*
X1838721Y1041619D01*
X1835207Y1038104D01*
X1834102Y1036450D01*
X1833714Y1034499D01*
Y1031595D01*
X1833463Y1031092D01*
X1833154Y1030617D01*
X1832784Y1030173D01*
X1832686Y1030078D01*
X1830968Y1029366D01*
X1828670Y1027603D01*
X1826907Y1025305D01*
X1825799Y1022629D01*
X1825421Y1019758D01*
X1825799Y1016886D01*
X1826907Y1014211D01*
X1828670Y1011913D01*
X1830968Y1010150D01*
X1833644Y1009041D01*
X1836516Y1008663D01*
X1839387Y1009041D01*
X1842063Y1010150D01*
X1844361Y1011913D01*
X1846124Y1014211D01*
X1847232Y1016886D01*
X1847610Y1019758D01*
X1847232Y1022629D01*
X1846124Y1025305D01*
X1844529Y1027384D01*
X1844495Y1027455D01*
X1844216Y1028169D01*
X1843975Y1028895D01*
X1843910Y1029137D01*
Y1032387D01*
X1844438Y1032916D01*
X1924891D01*
X1926842Y1033304D01*
X1928496Y1034409D01*
X1930744Y1036657D01*
X1931917Y1036171D01*
Y1031802D01*
X1888044Y987929D01*
X1545691D01*
X1512782Y1020838D01*
X1511790Y1021501D01*
X1510619Y1021734D01*
X1510619Y1021734D01*
X1434053D01*
X1418986Y1036801D01*
Y1124600D01*
X1419920Y1125435D01*
X1421474Y1125126D01*
X1423620Y1125553D01*
X1425440Y1126768D01*
X1426655Y1128587D01*
X1427082Y1130733D01*
X1426655Y1132879D01*
X1425440Y1134699D01*
X1423620Y1135914D01*
X1421474Y1136341D01*
X1419328Y1135914D01*
X1417509Y1134699D01*
X1416886Y1133765D01*
X1415364Y1133774D01*
X1414609Y1134903D01*
X1412790Y1136118D01*
X1410644Y1136545D01*
X1408498Y1136118D01*
X1406679Y1134903D01*
X1405463Y1133084D01*
X1405036Y1130938D01*
X1405463Y1128792D01*
X1406679Y1126972D01*
X1408298Y1125890D01*
Y1033511D01*
X1408298Y1033511D01*
X1408531Y1032340D01*
X1409194Y1031348D01*
X1428600Y1011942D01*
X1428600Y1011942D01*
X1429593Y1011279D01*
X1430763Y1011046D01*
X1430763Y1011046D01*
X1507459D01*
X1511014Y1007491D01*
X1510528Y1006318D01*
X1490939D01*
X1489663Y1006064D01*
X1488581Y1005341D01*
X1483915Y1000676D01*
X1483603Y1000738D01*
X1481457Y1000311D01*
X1479638Y999095D01*
X1478422Y997276D01*
X1477995Y995130D01*
X1478422Y992984D01*
X1479638Y991165D01*
X1481457Y989949D01*
X1483603Y989522D01*
X1485749Y989949D01*
X1487569Y991165D01*
X1488784Y992984D01*
X1489211Y995130D01*
X1488977Y996307D01*
X1491089Y998420D01*
X1492076Y997610D01*
X1491853Y997276D01*
X1491426Y995130D01*
X1491853Y992984D01*
X1493068Y991165D01*
X1494887Y989949D01*
X1497033Y989522D01*
X1499179Y989949D01*
X1500999Y991165D01*
X1501420Y991796D01*
X1512249D01*
X1536052Y967992D01*
X1537134Y967270D01*
X1538409Y967016D01*
X1920892D01*
X1935462Y952447D01*
X1936543Y951724D01*
X1937819Y951470D01*
X2029147D01*
X2036863Y943754D01*
Y927584D01*
X2036232Y927162D01*
X2035017Y925343D01*
X2034590Y923197D01*
X2035017Y921051D01*
X2036232Y919231D01*
X2038051Y918016D01*
X2040197Y917589D01*
X2042343Y918016D01*
X2044163Y919231D01*
X2045378Y921051D01*
X2045805Y923197D01*
X2045378Y925343D01*
X2044163Y927162D01*
X2043531Y927584D01*
Y945135D01*
X2043278Y946411D01*
X2042555Y947492D01*
X2032885Y957162D01*
X2031804Y957884D01*
X2030528Y958138D01*
X1939200D01*
X1924631Y972708D01*
X1923549Y973430D01*
X1922273Y973684D01*
X1901865D01*
X1901379Y974857D01*
X1924673Y998152D01*
X1926076Y997214D01*
X1928222Y996787D01*
X1930368Y997214D01*
X1932187Y998430D01*
X1933403Y1000249D01*
X1933830Y1002395D01*
X1933403Y1004541D01*
X1932187Y1006360D01*
X1930368Y1007576D01*
X1928222Y1008003D01*
X1926719Y1007704D01*
X1926093Y1008874D01*
X1940416Y1023197D01*
X1941589Y1022711D01*
Y1020778D01*
X1951339D01*
Y1011028D01*
X1963600D01*
X1964473Y1010119D01*
Y1003571D01*
X1963203Y1002893D01*
X1962980Y1003041D01*
X1960834Y1003468D01*
X1958688Y1003041D01*
X1956869Y1001826D01*
X1955653Y1000006D01*
X1955226Y997860D01*
X1955653Y995714D01*
X1956869Y993895D01*
X1958688Y992680D01*
X1960834Y992253D01*
X1962980Y992680D01*
X1963884Y993284D01*
X1965154Y992605D01*
Y970551D01*
X1965426Y969186D01*
X1966199Y968028D01*
X1970278Y963950D01*
X1971435Y963176D01*
X1972801Y962905D01*
X2034222D01*
X2048132Y948995D01*
Y919015D01*
X2042535Y913418D01*
X2006048D01*
X2005544Y914172D01*
X2003725Y915388D01*
X2001579Y915815D01*
X1999433Y915388D01*
X1997614Y914172D01*
X1996398Y912353D01*
X1995971Y910207D01*
X1996398Y908061D01*
X1997614Y906242D01*
X1999433Y905026D01*
X2001579Y904599D01*
X2003725Y905026D01*
X2005544Y906242D01*
X2005570Y906281D01*
X2044013D01*
X2045378Y906552D01*
X2046536Y907326D01*
X2054224Y915013D01*
X2054997Y916171D01*
X2055269Y917537D01*
Y950473D01*
X2054997Y951838D01*
X2054224Y952996D01*
X2038223Y968996D01*
X2037065Y969770D01*
X2035700Y970042D01*
X1974279D01*
X1972291Y972029D01*
Y991925D01*
X1973096Y992318D01*
X1973766Y992012D01*
X1973973Y990970D01*
X1974747Y989813D01*
X1975139Y989420D01*
X1975527Y987471D01*
X1976743Y985652D01*
X1978562Y984436D01*
X1980708Y984009D01*
X1982854Y984436D01*
X1984673Y985652D01*
X1985889Y987471D01*
X1986315Y989617D01*
X1985889Y991763D01*
X1984673Y993583D01*
X1982854Y994798D01*
X1981520Y995063D01*
Y1001867D01*
X1989415D01*
Y1010367D01*
X1989093D01*
X1988695Y1011419D01*
X1988683Y1011637D01*
X1992531Y1015485D01*
X1992973Y1016147D01*
X1993128Y1016927D01*
Y1021933D01*
X1993811Y1022616D01*
X2000967D01*
X2001153Y1022653D01*
X2008167D01*
X2008947Y1022808D01*
X2009073Y1022892D01*
X2010167D01*
Y1024495D01*
X2010206Y1024692D01*
Y1030492D01*
X2011224Y1031219D01*
X2012940D01*
Y1010646D01*
X2013095Y1009866D01*
X2013410Y1009394D01*
X2013214Y1009100D01*
X2013059Y1008320D01*
Y1001051D01*
X2013059Y1001051D01*
X2013214Y1000271D01*
X2013656Y999609D01*
X2013656Y999609D01*
X2023298Y989967D01*
X2023960Y989525D01*
X2024740Y989370D01*
X2097903D01*
X2097928Y989349D01*
Y839745D01*
Y838871D01*
X2097587Y837156D01*
X2096918Y835541D01*
X2095946Y834087D01*
X2094710Y832851D01*
X2093256Y831880D01*
X2091641Y831210D01*
X2089947Y830873D01*
X2089805Y830902D01*
X2089534Y831040D01*
X2088898Y831089D01*
X2088574Y831195D01*
X2088400Y831181D01*
X2088152Y831230D01*
X2087973D01*
X2087725Y831181D01*
X2087551Y831195D01*
X2087226Y831089D01*
X2086591Y831040D01*
X2086320Y830902D01*
X2086157Y830869D01*
X1372508D01*
X1370793Y831210D01*
X1369178Y831880D01*
X1367724Y832851D01*
X1366488Y834087D01*
X1365516Y835541D01*
X1364847Y837156D01*
X1364506Y838871D01*
Y839745D01*
Y1206901D01*
Y1207775D01*
X1364847Y1209490D01*
X1365516Y1211105D01*
X1366488Y1212559D01*
X1367724Y1213795D01*
X1369178Y1214766D01*
X1370793Y1215435D01*
X1372508Y1215777D01*
X1440469D01*
X1441407Y1214507D01*
X1441269Y1213456D01*
X1441501Y1211693D01*
X1442181Y1210051D01*
X1443263Y1208641D01*
X1444673Y1207560D01*
X1446315Y1206879D01*
X1448077Y1206647D01*
X1449839Y1206879D01*
X1451481Y1207560D01*
X1452891Y1208641D01*
X1453973Y1210051D01*
X1454653Y1211693D01*
X1454885Y1213456D01*
X1454747Y1214507D01*
X1455686Y1215777D01*
X1524485D01*
X1525320Y1214507D01*
X1525151Y1213223D01*
X1525383Y1211460D01*
X1526063Y1209818D01*
X1527145Y1208408D01*
X1528555Y1207327D01*
X1530197Y1206646D01*
X1531959Y1206414D01*
X1533721Y1206646D01*
X1535363Y1207327D01*
X1536773Y1208408D01*
X1537855Y1209818D01*
X1538535Y1211460D01*
X1538767Y1213223D01*
X1538598Y1214507D01*
X1539433Y1215777D01*
X1872324D01*
X1872324Y1047753D01*
D02*
G37*
G36*
X1945352Y1182638D02*
X1944842Y1182458D01*
X1944392Y1182158D01*
X1944002Y1181738D01*
X1943672Y1181198D01*
X1943402Y1180538D01*
X1943192Y1179758D01*
X1943042Y1178858D01*
X1942952Y1177838D01*
X1942922Y1176698D01*
X1936922D01*
X1936892Y1177838D01*
X1936802Y1178858D01*
X1936652Y1179758D01*
X1936442Y1180538D01*
X1936172Y1181198D01*
X1935842Y1181738D01*
X1935452Y1182158D01*
X1935002Y1182458D01*
X1934492Y1182638D01*
X1933922Y1182698D01*
X1945922D01*
X1945352Y1182638D01*
D02*
G37*
G36*
X1420941Y1127274D02*
X1420565Y1127319D01*
X1420205Y1127336D01*
X1419861Y1127324D01*
X1419532Y1127283D01*
X1419219Y1127215D01*
X1418923Y1127117D01*
X1418642Y1126992D01*
X1418377Y1126838D01*
X1418128Y1126655D01*
X1417895Y1126444D01*
X1416693Y1128071D01*
X1416892Y1128288D01*
X1417076Y1128526D01*
X1417245Y1128786D01*
X1417399Y1129067D01*
X1417537Y1129369D01*
X1417661Y1129692D01*
X1417770Y1130036D01*
X1417863Y1130402D01*
X1418005Y1131197D01*
X1420941Y1127274D01*
D02*
G37*
G36*
X1413325Y1128637D02*
X1412943Y1127952D01*
X1412787Y1127621D01*
X1412656Y1127297D01*
X1412548Y1126980D01*
X1412465Y1126671D01*
X1412405Y1126368D01*
X1412369Y1126073D01*
X1412357Y1125786D01*
X1410357Y1125349D01*
X1410341Y1125666D01*
X1410293Y1125972D01*
X1410213Y1126265D01*
X1410101Y1126547D01*
X1409957Y1126817D01*
X1409780Y1127075D01*
X1409572Y1127322D01*
X1409332Y1127557D01*
X1409059Y1127780D01*
X1408755Y1127991D01*
X1413552Y1128990D01*
X1413325Y1128637D01*
D02*
G37*
G36*
X2091641Y1215435D02*
X2093256Y1214766D01*
X2094710Y1213795D01*
X2095946Y1212559D01*
X2096918Y1211105D01*
X2097587Y1209490D01*
X2097928Y1207775D01*
Y1206901D01*
Y1086995D01*
X2097903Y1086975D01*
X2025843D01*
X2025715Y1086949D01*
X2025584Y1086958D01*
X2025328Y1086872D01*
X2025063Y1086819D01*
X2024954Y1086747D01*
X2024830Y1086705D01*
X2014085Y1080553D01*
X2013881Y1080375D01*
X2013656Y1080225D01*
X2013583Y1080116D01*
X2013484Y1080030D01*
X2013364Y1079788D01*
X2013214Y1079563D01*
X2013188Y1079435D01*
X2013130Y1079318D01*
X2013111Y1079048D01*
X2013059Y1078783D01*
X2013059Y1067957D01*
X2013214Y1067177D01*
X2013315Y1067026D01*
X2013095Y1066697D01*
X2012940Y1065917D01*
Y1042337D01*
X1993089D01*
Y1042778D01*
X1980589D01*
Y1030975D01*
X1980550Y1030778D01*
Y1023574D01*
X1980547Y1023570D01*
X1980543Y1023567D01*
X1978339D01*
X1978142Y1023528D01*
X1954089D01*
Y1030778D01*
Y1040778D01*
Y1050028D01*
X1980589D01*
Y1045778D01*
X1993089D01*
Y1052778D01*
X1983339D01*
Y1062528D01*
X1967898D01*
Y1065535D01*
X1967665Y1066705D01*
X1967002Y1067698D01*
X1967002Y1067698D01*
X1961754Y1072946D01*
X1960762Y1073609D01*
X1959591Y1073842D01*
X1959591Y1073842D01*
X1945397D01*
X1944692Y1075112D01*
X1945020Y1076759D01*
Y1180205D01*
X1945125Y1180463D01*
X1945251Y1180668D01*
X1949797D01*
Y1200418D01*
X1930047D01*
Y1200418D01*
X1928968Y1200879D01*
Y1215777D01*
X2089926D01*
X2091641Y1215435D01*
D02*
G37*
G36*
X1934719Y1180463D02*
X1934824Y1180205D01*
Y1078871D01*
X1930141Y1074188D01*
X1928968Y1074674D01*
Y1180206D01*
X1930047Y1180668D01*
Y1180668D01*
X1934593D01*
X1934719Y1180463D01*
D02*
G37*
G36*
X1965844Y1062117D02*
X1965914Y1061217D01*
X1965956Y1060997D01*
X1966008Y1060817D01*
X1966069Y1060677D01*
X1966140Y1060577D01*
X1966219Y1060518D01*
X1966308Y1060498D01*
X1963369D01*
X1963459Y1060518D01*
X1963539Y1060577D01*
X1963609Y1060677D01*
X1963670Y1060817D01*
X1963722Y1060997D01*
X1963764Y1061217D01*
X1963797Y1061478D01*
X1963834Y1062117D01*
X1963839Y1062497D01*
X1965839D01*
X1965844Y1062117D01*
D02*
G37*
G36*
X1960844D02*
X1960914Y1061217D01*
X1960956Y1060997D01*
X1961008Y1060817D01*
X1961069Y1060677D01*
X1961140Y1060577D01*
X1961219Y1060518D01*
X1961308Y1060498D01*
X1958369D01*
X1958459Y1060518D01*
X1958539Y1060577D01*
X1958609Y1060677D01*
X1958670Y1060817D01*
X1958722Y1060997D01*
X1958764Y1061217D01*
X1958797Y1061478D01*
X1958834Y1062117D01*
X1958839Y1062497D01*
X1960839D01*
X1960844Y1062117D01*
D02*
G37*
G36*
X2079127Y1065019D02*
X2079127Y1011543D01*
X2078229Y1010645D01*
X2059533Y1010646D01*
X2059490Y1010859D01*
X2058109Y1012926D01*
X2056042Y1014307D01*
X2053603Y1014792D01*
X2051164Y1014307D01*
X2049097Y1012926D01*
X2047715Y1010859D01*
X2047673Y1010646D01*
X2014979Y1010646D01*
Y1031219D01*
X2020363D01*
X2023791Y1027791D01*
X2024783Y1027128D01*
X2025954Y1026895D01*
X2050244D01*
X2050244Y1026895D01*
X2051415Y1027128D01*
X2052407Y1027791D01*
X2053531Y1028915D01*
X2054600Y1028702D01*
X2056746Y1029129D01*
X2058566Y1030345D01*
X2059781Y1032164D01*
X2060208Y1034310D01*
X2059781Y1036456D01*
X2058566Y1038275D01*
X2056746Y1039491D01*
X2054600Y1039918D01*
X2052454Y1039491D01*
X2050635Y1038275D01*
X2049420Y1036456D01*
X2048993Y1034310D01*
X2049000Y1034273D01*
X2047956Y1033013D01*
X2036714D01*
X2036035Y1034283D01*
X2036673Y1035237D01*
X2037100Y1037383D01*
X2036673Y1039529D01*
X2035457Y1041349D01*
X2033638Y1042564D01*
X2031492Y1042991D01*
X2029346Y1042564D01*
X2028865Y1042242D01*
X2028391Y1042337D01*
X2028390Y1042337D01*
X2014979D01*
Y1065917D01*
X2047291Y1065917D01*
X2047715Y1063781D01*
X2049097Y1061714D01*
X2051164Y1060332D01*
X2053603Y1059847D01*
X2056042Y1060332D01*
X2058109Y1061714D01*
X2059490Y1063781D01*
X2059915Y1065917D01*
X2078229Y1065917D01*
X2079127Y1065019D01*
D02*
G37*
G36*
X1926929Y1070976D02*
X1924801Y1068848D01*
X1923696Y1067194D01*
X1923308Y1065243D01*
Y1044132D01*
X1922288Y1043112D01*
X1879004D01*
X1874363Y1047753D01*
X1874363Y1215777D01*
X1926929D01*
Y1070976D01*
D02*
G37*
G36*
X1991078Y1040658D02*
X1991139Y1040578D01*
X1991239Y1040508D01*
X1991378Y1040447D01*
X1991559Y1040395D01*
X1991779Y1040353D01*
X1992039Y1040320D01*
X1992679Y1040283D01*
X1993058Y1040278D01*
Y1038278D01*
X1992679Y1038273D01*
X1991779Y1038203D01*
X1991559Y1038161D01*
X1991378Y1038109D01*
X1991239Y1038048D01*
X1991139Y1037978D01*
X1991078Y1037898D01*
X1991059Y1037808D01*
Y1040748D01*
X1991078Y1040658D01*
D02*
G37*
G36*
Y1035658D02*
X1991139Y1035578D01*
X1991239Y1035508D01*
X1991378Y1035447D01*
X1991559Y1035395D01*
X1991779Y1035353D01*
X1992039Y1035320D01*
X1992679Y1035283D01*
X1993058Y1035278D01*
Y1033278D01*
X1992679Y1033273D01*
X1991779Y1033203D01*
X1991559Y1033161D01*
X1991378Y1033109D01*
X1991239Y1033048D01*
X1991139Y1032978D01*
X1991078Y1032898D01*
X1991059Y1032808D01*
Y1035748D01*
X1991078Y1035658D01*
D02*
G37*
G36*
X2054565Y1030810D02*
X2054169Y1030803D01*
X2053791Y1030774D01*
X2053432Y1030723D01*
X2053092Y1030650D01*
X2052772Y1030555D01*
X2052470Y1030437D01*
X2052186Y1030297D01*
X2051922Y1030136D01*
X2051677Y1029952D01*
X2051451Y1029746D01*
X2050037Y1031161D01*
X2050242Y1031387D01*
X2050426Y1031632D01*
X2050588Y1031896D01*
X2050727Y1032179D01*
X2050845Y1032481D01*
X2050940Y1032802D01*
X2051013Y1033142D01*
X2051064Y1033501D01*
X2051093Y1033878D01*
X2051100Y1034275D01*
X2054565Y1030810D01*
D02*
G37*
G36*
X1841812Y1032435D02*
X1841836Y1031637D01*
X1841909Y1030837D01*
X1842031Y1030036D01*
X1842201Y1029232D01*
X1842420Y1028426D01*
X1842688Y1027618D01*
X1843005Y1026808D01*
X1843784Y1025182D01*
X1844247Y1024365D01*
X1832064Y1027580D01*
X1832776Y1028029D01*
X1833413Y1028524D01*
X1833975Y1029065D01*
X1834462Y1029652D01*
X1834875Y1030284D01*
X1835212Y1030962D01*
X1835474Y1031685D01*
X1835662Y1032455D01*
X1835774Y1033270D01*
X1835812Y1034130D01*
X1841812Y1032435D01*
D02*
G37*
G36*
X2008167Y1030492D02*
Y1024692D01*
X2000967D01*
Y1024655D01*
X1992966D01*
X1991089Y1022778D01*
Y1016927D01*
X1987190Y1013028D01*
X1978403D01*
Y1013419D01*
X1978339Y1013741D01*
Y1021528D01*
X1981339D01*
X1981839Y1022028D01*
X1982089D01*
Y1022278D01*
X1982589Y1022778D01*
Y1030778D01*
X2007881D01*
X2008167Y1030492D01*
D02*
G37*
G36*
X1976339Y1010837D02*
X1973799D01*
X1973795Y1011259D01*
X1973730Y1012259D01*
X1973692Y1012503D01*
X1973644Y1012703D01*
X1973589Y1012859D01*
X1973524Y1012970D01*
X1973451Y1013036D01*
X1973369Y1013058D01*
X1976308D01*
X1976339Y1010837D01*
D02*
G37*
G36*
X2097903Y991409D02*
X2024740D01*
X2015098Y1001051D01*
Y1008320D01*
X2037103Y1008320D01*
Y1008320D01*
X2037390Y1008607D01*
X2047077Y1008606D01*
X2047230Y1008420D01*
X2047715Y1005981D01*
X2049097Y1003914D01*
X2051164Y1002533D01*
X2053603Y1002048D01*
X2056042Y1002533D01*
X2058109Y1003914D01*
X2059490Y1005981D01*
X2059975Y1008420D01*
X2060128Y1008606D01*
X2078229Y1008606D01*
X2079009Y1008761D01*
X2079671Y1009203D01*
X2079671Y1009203D01*
X2080569Y1010101D01*
X2080569Y1010101D01*
X2081011Y1010763D01*
X2081166Y1011543D01*
X2081166Y1065019D01*
X2081166Y1065019D01*
X2081011Y1065799D01*
X2080569Y1066461D01*
X2079671Y1067359D01*
X2079009Y1067801D01*
X2078229Y1067956D01*
X2059915Y1067956D01*
X2059718Y1067917D01*
X2059638D01*
X2059490Y1068659D01*
X2058109Y1070726D01*
X2056042Y1072107D01*
X2053603Y1072592D01*
X2051164Y1072107D01*
X2049097Y1070726D01*
X2047715Y1068659D01*
X2047568Y1067917D01*
X2047488D01*
X2047291Y1067956D01*
X2037104Y1067956D01*
X2037103Y1067957D01*
Y1067957D01*
X2015098Y1067957D01*
X2015098Y1078783D01*
X2025843Y1084935D01*
X2097903D01*
Y991409D01*
D02*
G37*
G36*
X1977817Y1008058D02*
X1975223D01*
X1975228Y1008072D01*
X1975233Y1008111D01*
X1975237Y1008178D01*
X1975250Y1009386D01*
X1977790D01*
X1977817Y1008058D01*
D02*
G37*
G36*
X1971245Y1013033D02*
X1971188Y1012957D01*
X1971137Y1012830D01*
X1971093Y1012652D01*
X1971057Y1012423D01*
X1971026Y1012144D01*
X1970976Y1011001D01*
X1970972Y1010518D01*
X1970971D01*
X1970942Y1008089D01*
X1967162Y1008058D01*
X1967404Y1008086D01*
X1967620Y1008164D01*
X1967810Y1008294D01*
X1967975Y1008475D01*
X1968115Y1008706D01*
X1968229Y1008989D01*
X1968318Y1009322D01*
X1968382Y1009707D01*
X1968420Y1010142D01*
X1968431Y1010575D01*
X1968369Y1013058D01*
X1971308D01*
X1971245Y1013033D01*
D02*
G37*
G36*
X1982946Y1003897D02*
X1982920Y1004031D01*
X1982844Y1004150D01*
X1982717Y1004255D01*
X1982539Y1004347D01*
X1982310Y1004424D01*
X1982031Y1004487D01*
X1981701Y1004536D01*
X1981334Y1004570D01*
X1980734Y1004514D01*
X1980404Y1004447D01*
X1980125Y1004362D01*
X1979896Y1004257D01*
X1979718Y1004134D01*
X1979591Y1003992D01*
X1979515Y1003830D01*
X1979490Y1003650D01*
Y1008089D01*
X1979515Y1007908D01*
X1979591Y1007747D01*
X1979718Y1007605D01*
X1979896Y1007481D01*
X1980125Y1007377D01*
X1980404Y1007291D01*
X1980734Y1007225D01*
X1981115Y1007177D01*
X1981163Y1007174D01*
X1981320Y1007187D01*
X1981701Y1007247D01*
X1982031Y1007331D01*
X1982310Y1007439D01*
X1982539Y1007570D01*
X1982717Y1007726D01*
X1982844Y1007906D01*
X1982920Y1008109D01*
X1982946Y1008336D01*
Y1003897D01*
D02*
G37*
G36*
X1488118Y998367D02*
X1487887Y998119D01*
X1487685Y997862D01*
X1487510Y997598D01*
X1487364Y997326D01*
X1487247Y997046D01*
X1487157Y996759D01*
X1487095Y996464D01*
X1487062Y996161D01*
X1487057Y995850D01*
X1487080Y995532D01*
X1483271Y998614D01*
X1483598Y998656D01*
X1483916Y998719D01*
X1484225Y998802D01*
X1484523Y998905D01*
X1484813Y999030D01*
X1485093Y999175D01*
X1485363Y999340D01*
X1485624Y999526D01*
X1485876Y999733D01*
X1486118Y999960D01*
X1488118Y998367D01*
D02*
G37*
G36*
X1963715Y999885D02*
X1963887Y999742D01*
X1964085Y999616D01*
X1964307Y999506D01*
X1964554Y999414D01*
X1964826Y999338D01*
X1965124Y999279D01*
X1965446Y999237D01*
X1965794Y999211D01*
X1966166Y999203D01*
X1966017Y996203D01*
X1965644Y996195D01*
X1964970Y996134D01*
X1964668Y996081D01*
X1964391Y996012D01*
X1964137Y995928D01*
X1963907Y995829D01*
X1963701Y995714D01*
X1963519Y995584D01*
X1963361Y995439D01*
X1963568Y1000045D01*
X1963715Y999885D01*
D02*
G37*
G36*
X1979353Y995620D02*
X1979231Y995530D01*
X1979123Y995380D01*
X1979029Y995170D01*
X1978950Y994900D01*
X1978885Y994570D01*
X1978835Y994180D01*
X1978777Y993220D01*
X1978770Y992650D01*
X1975770D01*
X1975763Y993220D01*
X1975655Y994570D01*
X1975590Y994900D01*
X1975511Y995170D01*
X1975418Y995380D01*
X1975310Y995530D01*
X1975187Y995620D01*
X1975051Y995650D01*
X1979490D01*
X1979353Y995620D01*
D02*
G37*
G36*
X1970805D02*
X1970683Y995530D01*
X1970575Y995380D01*
X1970482Y995170D01*
X1970402Y994900D01*
X1970338Y994570D01*
X1970287Y994180D01*
X1970230Y993220D01*
X1970222Y992650D01*
X1967222D01*
X1967215Y993220D01*
X1967107Y994570D01*
X1967043Y994900D01*
X1966964Y995170D01*
X1966870Y995380D01*
X1966762Y995530D01*
X1966640Y995620D01*
X1966503Y995650D01*
X1970942D01*
X1970805Y995620D01*
D02*
G37*
G36*
X2041479Y928223D02*
X2041515Y927898D01*
X2041574Y927584D01*
X2041656Y927282D01*
X2041762Y926990D01*
X2041892Y926709D01*
X2042046Y926440D01*
X2042223Y926181D01*
X2042423Y925933D01*
X2042648Y925696D01*
X2037747D01*
X2037972Y925933D01*
X2038172Y926181D01*
X2038349Y926440D01*
X2038503Y926709D01*
X2038632Y926990D01*
X2038739Y927282D01*
X2038821Y927584D01*
X2038880Y927898D01*
X2038916Y928223D01*
X2038927Y928558D01*
X2041467D01*
X2041479Y928223D01*
D02*
G37*
G36*
X2004491Y912191D02*
X2004688Y912014D01*
X2004904Y911859D01*
X2005141Y911723D01*
X2005398Y911609D01*
X2005675Y911516D01*
X2005973Y911443D01*
X2006290Y911391D01*
X2006629Y911360D01*
X2006987Y911349D01*
X2006645Y908349D01*
X2006288Y908341D01*
X2005624Y908274D01*
X2005316Y908216D01*
X2005025Y908140D01*
X2004750Y908049D01*
X2004492Y907940D01*
X2004250Y907815D01*
X2004024Y907673D01*
X2003815Y907514D01*
X2004315Y912389D01*
X2004491Y912191D01*
D02*
G37*
%LPC*%
G36*
X1698498Y1198498D02*
X1692247D01*
Y1192247D01*
X1698498D01*
Y1198498D01*
D02*
G37*
G36*
X1684247D02*
X1677998D01*
Y1192247D01*
X1684247D01*
Y1198498D01*
D02*
G37*
G36*
X1385830Y1207972D02*
X1382436Y1207525D01*
X1379274Y1206216D01*
X1376558Y1204132D01*
X1374474Y1201416D01*
X1373165Y1198254D01*
X1372718Y1194860D01*
X1373165Y1191466D01*
X1374474Y1188304D01*
X1376558Y1185588D01*
X1379274Y1183504D01*
X1382436Y1182195D01*
X1385830Y1181748D01*
X1389224Y1182195D01*
X1392386Y1183504D01*
X1395102Y1185588D01*
X1397186Y1188304D01*
X1398495Y1191466D01*
X1398942Y1194860D01*
X1398495Y1198254D01*
X1397186Y1201416D01*
X1395102Y1204132D01*
X1392386Y1206216D01*
X1389224Y1207525D01*
X1385830Y1207972D01*
D02*
G37*
G36*
X1842500Y1200359D02*
X1840020Y1200032D01*
X1837709Y1199075D01*
X1835725Y1197552D01*
X1834202Y1195568D01*
X1833245Y1193257D01*
X1832918Y1190777D01*
X1833245Y1188297D01*
X1834202Y1185986D01*
X1835725Y1184001D01*
X1837709Y1182478D01*
X1840020Y1181521D01*
X1842500Y1181195D01*
X1844980Y1181521D01*
X1847291Y1182478D01*
X1849276Y1184001D01*
X1850798Y1185986D01*
X1851756Y1188297D01*
X1852082Y1190777D01*
X1851756Y1193257D01*
X1850798Y1195568D01*
X1849276Y1197552D01*
X1847291Y1199075D01*
X1844980Y1200032D01*
X1842500Y1200359D01*
D02*
G37*
G36*
X1817500D02*
X1815020Y1200032D01*
X1812709Y1199075D01*
X1810725Y1197552D01*
X1809202Y1195568D01*
X1808245Y1193257D01*
X1807918Y1190777D01*
X1808245Y1188297D01*
X1809202Y1185986D01*
X1810725Y1184001D01*
X1812709Y1182478D01*
X1815020Y1181521D01*
X1817500Y1181195D01*
X1819980Y1181521D01*
X1822291Y1182478D01*
X1824276Y1184001D01*
X1825798Y1185986D01*
X1826756Y1188297D01*
X1827082Y1190777D01*
X1826756Y1193257D01*
X1825798Y1195568D01*
X1824276Y1197552D01*
X1822291Y1199075D01*
X1819980Y1200032D01*
X1817500Y1200359D01*
D02*
G37*
G36*
X1792500D02*
X1790020Y1200032D01*
X1787709Y1199075D01*
X1785725Y1197552D01*
X1784202Y1195568D01*
X1783245Y1193257D01*
X1782918Y1190777D01*
X1783245Y1188297D01*
X1784202Y1185986D01*
X1785725Y1184001D01*
X1787709Y1182478D01*
X1790020Y1181521D01*
X1792500Y1181195D01*
X1794980Y1181521D01*
X1797291Y1182478D01*
X1799276Y1184001D01*
X1800798Y1185986D01*
X1801756Y1188297D01*
X1802082Y1190777D01*
X1801756Y1193257D01*
X1800798Y1195568D01*
X1799276Y1197552D01*
X1797291Y1199075D01*
X1794980Y1200032D01*
X1792500Y1200359D01*
D02*
G37*
G36*
X1767500D02*
X1765020Y1200032D01*
X1762709Y1199075D01*
X1760725Y1197552D01*
X1759202Y1195568D01*
X1758245Y1193257D01*
X1757918Y1190777D01*
X1758245Y1188297D01*
X1759202Y1185986D01*
X1760725Y1184001D01*
X1762709Y1182478D01*
X1765020Y1181521D01*
X1767500Y1181195D01*
X1769980Y1181521D01*
X1772291Y1182478D01*
X1774276Y1184001D01*
X1775798Y1185986D01*
X1776756Y1188297D01*
X1777082Y1190777D01*
X1776756Y1193257D01*
X1775798Y1195568D01*
X1774276Y1197552D01*
X1772291Y1199075D01*
X1769980Y1200032D01*
X1767500Y1200359D01*
D02*
G37*
G36*
X1742500D02*
X1740020Y1200032D01*
X1737709Y1199075D01*
X1735725Y1197552D01*
X1734202Y1195568D01*
X1733245Y1193257D01*
X1732918Y1190777D01*
X1733245Y1188297D01*
X1734202Y1185986D01*
X1735725Y1184001D01*
X1737709Y1182478D01*
X1740020Y1181521D01*
X1742500Y1181195D01*
X1744980Y1181521D01*
X1747291Y1182478D01*
X1749276Y1184001D01*
X1750798Y1185986D01*
X1751756Y1188297D01*
X1752082Y1190777D01*
X1751756Y1193257D01*
X1750798Y1195568D01*
X1749276Y1197552D01*
X1747291Y1199075D01*
X1744980Y1200032D01*
X1742500Y1200359D01*
D02*
G37*
G36*
X1698498Y1184248D02*
X1692247D01*
Y1177998D01*
X1698498D01*
Y1184248D01*
D02*
G37*
G36*
X1684247D02*
X1677998D01*
Y1177998D01*
X1684247D01*
Y1184248D01*
D02*
G37*
G36*
X1637448Y1198586D02*
X1634772Y1198234D01*
X1632278Y1197201D01*
X1630137Y1195558D01*
X1628494Y1193417D01*
X1627462Y1190923D01*
X1627109Y1188248D01*
X1627462Y1185572D01*
X1628494Y1183078D01*
X1630137Y1180937D01*
X1632278Y1179294D01*
X1634772Y1178261D01*
X1637448Y1177909D01*
X1640123Y1178261D01*
X1642617Y1179294D01*
X1644758Y1180937D01*
X1646401Y1183078D01*
X1647434Y1185572D01*
X1647786Y1188248D01*
X1647434Y1190923D01*
X1646401Y1193417D01*
X1644758Y1195558D01*
X1642617Y1197201D01*
X1640123Y1198234D01*
X1637448Y1198586D01*
D02*
G37*
G36*
X1612048D02*
X1609372Y1198234D01*
X1606878Y1197201D01*
X1604737Y1195558D01*
X1603094Y1193417D01*
X1602061Y1190923D01*
X1601709Y1188248D01*
X1602061Y1185572D01*
X1603094Y1183078D01*
X1604737Y1180937D01*
X1606878Y1179294D01*
X1609372Y1178261D01*
X1612048Y1177909D01*
X1614723Y1178261D01*
X1617217Y1179294D01*
X1619358Y1180937D01*
X1621001Y1183078D01*
X1622034Y1185572D01*
X1622386Y1188248D01*
X1622034Y1190923D01*
X1621001Y1193417D01*
X1619358Y1195558D01*
X1617217Y1197201D01*
X1614723Y1198234D01*
X1612048Y1198586D01*
D02*
G37*
G36*
X1662848D02*
X1660172Y1198234D01*
X1657678Y1197201D01*
X1655537Y1195558D01*
X1653894Y1193417D01*
X1652861Y1190923D01*
X1652509Y1188248D01*
X1652837Y1185759D01*
X1652806Y1185503D01*
X1652666Y1184757D01*
X1652489Y1184080D01*
X1652277Y1183470D01*
X1652256Y1183423D01*
X1627177Y1158344D01*
X1400845D01*
X1400844Y1158344D01*
X1399347Y1158046D01*
X1399267Y1158101D01*
X1398696Y1159192D01*
X1406034Y1166530D01*
X1406644Y1166409D01*
X1408790Y1166836D01*
X1410609Y1168051D01*
X1411824Y1169871D01*
X1412251Y1172017D01*
X1411920Y1173682D01*
X1412708Y1174952D01*
X1549756D01*
X1556618Y1168090D01*
X1556316Y1166568D01*
X1556743Y1164422D01*
X1557958Y1162603D01*
X1559778Y1161388D01*
X1561924Y1160961D01*
X1564070Y1161388D01*
X1565889Y1162603D01*
X1567104Y1164422D01*
X1567531Y1166568D01*
X1567104Y1168714D01*
X1565889Y1170534D01*
X1564070Y1171749D01*
X1561973Y1172166D01*
X1553495Y1180644D01*
X1552413Y1181367D01*
X1551137Y1181621D01*
X1538817D01*
X1538092Y1182891D01*
X1538535Y1183960D01*
X1538767Y1185723D01*
X1538535Y1187485D01*
X1537855Y1189127D01*
X1536773Y1190537D01*
X1535363Y1191619D01*
X1533721Y1192299D01*
X1531959Y1192531D01*
X1530197Y1192299D01*
X1528555Y1191619D01*
X1527145Y1190537D01*
X1526063Y1189127D01*
X1525383Y1187485D01*
X1525151Y1185723D01*
X1525383Y1183960D01*
X1525826Y1182891D01*
X1525101Y1181621D01*
X1454702D01*
X1454114Y1182891D01*
X1454653Y1184193D01*
X1454885Y1185956D01*
X1454653Y1187718D01*
X1453973Y1189360D01*
X1452891Y1190770D01*
X1451481Y1191852D01*
X1449839Y1192532D01*
X1448077Y1192764D01*
X1446315Y1192532D01*
X1444673Y1191852D01*
X1443263Y1190770D01*
X1442181Y1189360D01*
X1441501Y1187718D01*
X1441269Y1185956D01*
X1441501Y1184193D01*
X1442041Y1182891D01*
X1441452Y1181621D01*
X1399881D01*
X1398605Y1181367D01*
X1397524Y1180644D01*
X1375624Y1158744D01*
X1374901Y1157663D01*
X1374647Y1156387D01*
Y994160D01*
X1374901Y992884D01*
X1375624Y991803D01*
X1396298Y971128D01*
Y914137D01*
X1396552Y912861D01*
X1397275Y911780D01*
X1424408Y884647D01*
X1425489Y883924D01*
X1426765Y883670D01*
X1491245D01*
X1498269Y876646D01*
Y853053D01*
X1498523Y851777D01*
X1499245Y850696D01*
X1505789Y844152D01*
X1506871Y843429D01*
X1508147Y843175D01*
X1520047D01*
X1520142Y843132D01*
X1520689Y842823D01*
X1521286Y842429D01*
X1521911Y841959D01*
X1522238Y841672D01*
X1522261Y841618D01*
X1523816Y839591D01*
X1525842Y838036D01*
X1528202Y837059D01*
X1530734Y836726D01*
X1533266Y837059D01*
X1535626Y838036D01*
X1537652Y839591D01*
X1539207Y841618D01*
X1540184Y843977D01*
X1540518Y846509D01*
X1540184Y849042D01*
X1539207Y851401D01*
X1537652Y853427D01*
X1535626Y854982D01*
X1533266Y855960D01*
X1530734Y856293D01*
X1528202Y855960D01*
X1525842Y854982D01*
X1523816Y853427D01*
X1522261Y851401D01*
X1522238Y851346D01*
X1521911Y851060D01*
X1521286Y850590D01*
X1520689Y850195D01*
X1520142Y849887D01*
X1520047Y849843D01*
X1509528D01*
X1504937Y854434D01*
Y878027D01*
X1504683Y879303D01*
X1503961Y880385D01*
X1494984Y889362D01*
X1493902Y890085D01*
X1492626Y890338D01*
X1428146D01*
X1402966Y915518D01*
Y972509D01*
X1402713Y973785D01*
X1401990Y974867D01*
X1381315Y995541D01*
Y1003110D01*
X1381926Y1003457D01*
X1382585Y1003576D01*
X1389280Y996881D01*
X1388932Y995130D01*
X1389359Y992984D01*
X1390574Y991165D01*
X1392394Y989949D01*
X1394540Y989522D01*
X1396686Y989949D01*
X1398505Y991165D01*
X1399721Y992984D01*
X1400148Y995130D01*
X1399721Y997276D01*
X1398505Y999095D01*
X1396686Y1000311D01*
X1394932Y1000660D01*
X1388114Y1007477D01*
Y1028029D01*
X1389384Y1028154D01*
X1389459Y1027777D01*
X1390343Y1026454D01*
X1416083Y1000715D01*
Y923583D01*
X1416083Y923583D01*
X1416393Y922022D01*
X1417277Y920699D01*
X1432424Y905553D01*
X1433747Y904669D01*
X1435308Y904358D01*
X1435308Y904358D01*
X1738434D01*
Y902719D01*
X1757435D01*
Y921719D01*
X1738434D01*
Y912515D01*
X1436997D01*
X1424240Y925273D01*
Y1002404D01*
X1424240Y1002404D01*
X1423929Y1003965D01*
X1423045Y1005288D01*
X1423045Y1005288D01*
X1397306Y1031027D01*
Y1144959D01*
X1402534Y1150188D01*
X1628866D01*
X1628866Y1150188D01*
X1630427Y1150498D01*
X1631750Y1151382D01*
X1658023Y1177655D01*
X1658071Y1177677D01*
X1658680Y1177889D01*
X1659357Y1178066D01*
X1660079Y1178201D01*
X1660403Y1178231D01*
X1662848Y1177909D01*
X1665523Y1178261D01*
X1668017Y1179294D01*
X1670158Y1180937D01*
X1671801Y1183078D01*
X1672834Y1185572D01*
X1673186Y1188248D01*
X1672834Y1190923D01*
X1671801Y1193417D01*
X1670158Y1195558D01*
X1668017Y1197201D01*
X1665523Y1198234D01*
X1662848Y1198586D01*
D02*
G37*
G36*
X1725660Y1180039D02*
X1723180Y1179712D01*
X1720869Y1178755D01*
X1718885Y1177232D01*
X1717362Y1175248D01*
X1716405Y1172937D01*
X1716078Y1170457D01*
X1716405Y1167977D01*
X1717362Y1165666D01*
X1718885Y1163681D01*
X1720869Y1162158D01*
X1723180Y1161201D01*
X1725660Y1160875D01*
X1728140Y1161201D01*
X1730451Y1162158D01*
X1732436Y1163681D01*
X1733958Y1165666D01*
X1734916Y1167977D01*
X1735242Y1170457D01*
X1734916Y1172937D01*
X1733958Y1175248D01*
X1732436Y1177232D01*
X1730451Y1178755D01*
X1728140Y1179712D01*
X1725660Y1180039D01*
D02*
G37*
G36*
X1865916Y1030007D02*
Y1023758D01*
X1872165D01*
X1871524Y1025305D01*
X1869761Y1027603D01*
X1867463Y1029366D01*
X1865916Y1030007D01*
D02*
G37*
G36*
X1857915D02*
X1856368Y1029366D01*
X1854070Y1027603D01*
X1852307Y1025305D01*
X1851666Y1023758D01*
X1857915D01*
Y1030007D01*
D02*
G37*
G36*
X1872165Y1015758D02*
X1865916D01*
Y1009509D01*
X1867463Y1010150D01*
X1869761Y1011913D01*
X1871524Y1014211D01*
X1872165Y1015758D01*
D02*
G37*
G36*
X1857915D02*
X1851666D01*
X1852307Y1014211D01*
X1854070Y1011913D01*
X1856368Y1010150D01*
X1857915Y1009509D01*
Y1015758D01*
D02*
G37*
G36*
X1745916Y1030758D02*
X1723916D01*
Y1008758D01*
X1745916D01*
Y1030758D01*
D02*
G37*
G36*
X1811116Y1030853D02*
X1808244Y1030475D01*
X1805568Y1029366D01*
X1803270Y1027603D01*
X1801507Y1025305D01*
X1800399Y1022629D01*
X1800021Y1019758D01*
X1800399Y1016886D01*
X1801507Y1014211D01*
X1803270Y1011913D01*
X1805568Y1010150D01*
X1808244Y1009041D01*
X1811116Y1008663D01*
X1813987Y1009041D01*
X1816663Y1010150D01*
X1818961Y1011913D01*
X1820724Y1014211D01*
X1821832Y1016886D01*
X1822210Y1019758D01*
X1821832Y1022629D01*
X1820724Y1025305D01*
X1818961Y1027603D01*
X1816663Y1029366D01*
X1813987Y1030475D01*
X1811116Y1030853D01*
D02*
G37*
G36*
X1785715D02*
X1782844Y1030475D01*
X1780168Y1029366D01*
X1777870Y1027603D01*
X1776107Y1025305D01*
X1774999Y1022629D01*
X1774621Y1019758D01*
X1774999Y1016886D01*
X1776107Y1014211D01*
X1777870Y1011913D01*
X1780168Y1010150D01*
X1782844Y1009041D01*
X1785715Y1008663D01*
X1788587Y1009041D01*
X1791263Y1010150D01*
X1793561Y1011913D01*
X1795324Y1014211D01*
X1796432Y1016886D01*
X1796810Y1019758D01*
X1796432Y1022629D01*
X1795324Y1025305D01*
X1793561Y1027603D01*
X1791263Y1029366D01*
X1788587Y1030475D01*
X1785715Y1030853D01*
D02*
G37*
G36*
X1760316D02*
X1757444Y1030475D01*
X1754768Y1029366D01*
X1752470Y1027603D01*
X1750707Y1025305D01*
X1749599Y1022629D01*
X1749221Y1019758D01*
X1749599Y1016886D01*
X1750707Y1014211D01*
X1752470Y1011913D01*
X1754768Y1010150D01*
X1757444Y1009041D01*
X1760316Y1008663D01*
X1763187Y1009041D01*
X1765863Y1010150D01*
X1768161Y1011913D01*
X1769924Y1014211D01*
X1771032Y1016886D01*
X1771410Y1019758D01*
X1771032Y1022629D01*
X1769924Y1025305D01*
X1768161Y1027603D01*
X1765863Y1029366D01*
X1763187Y1030475D01*
X1760316Y1030853D01*
D02*
G37*
G36*
X1822935Y921801D02*
X1820455Y921475D01*
X1818143Y920517D01*
X1816159Y918995D01*
X1814636Y917010D01*
X1813679Y914699D01*
X1813353Y912219D01*
X1813679Y909739D01*
X1814636Y907428D01*
X1816159Y905444D01*
X1818143Y903921D01*
X1820455Y902964D01*
X1822935Y902637D01*
X1825414Y902964D01*
X1827726Y903921D01*
X1829710Y905444D01*
X1831233Y907428D01*
X1832190Y909739D01*
X1832516Y912219D01*
X1832190Y914699D01*
X1831233Y917010D01*
X1829710Y918995D01*
X1827726Y920517D01*
X1825414Y921475D01*
X1822935Y921801D01*
D02*
G37*
G36*
X1407404Y1000738D02*
X1405258Y1000311D01*
X1403439Y999095D01*
X1402224Y997276D01*
X1401797Y995130D01*
X1402224Y992984D01*
X1403439Y991165D01*
X1404372Y990542D01*
Y920168D01*
X1404625Y918892D01*
X1405348Y917810D01*
X1428521Y894638D01*
X1429602Y893915D01*
X1430878Y893661D01*
X1704371D01*
X1704619Y892415D01*
X1703775Y892066D01*
X1700044Y889779D01*
X1696716Y886937D01*
X1693874Y883610D01*
X1691588Y879879D01*
X1689913Y875836D01*
X1688892Y871581D01*
X1688863Y871219D01*
X1744006D01*
X1743977Y871581D01*
X1742956Y875836D01*
X1741281Y879879D01*
X1738995Y883610D01*
X1736153Y886937D01*
X1732825Y889779D01*
X1729095Y892066D01*
X1728250Y892415D01*
X1728498Y893661D01*
X1770211D01*
X1771486Y893915D01*
X1772568Y894638D01*
X1780462Y902532D01*
X1780516Y902552D01*
X1781100Y902718D01*
X1781775Y902857D01*
X1782521Y902965D01*
X1782892Y902990D01*
X1782955Y902964D01*
X1785435Y902637D01*
X1787914Y902964D01*
X1790226Y903921D01*
X1792210Y905444D01*
X1793733Y907428D01*
X1794690Y909739D01*
X1795016Y912219D01*
X1794690Y914699D01*
X1793733Y917010D01*
X1792210Y918995D01*
X1790226Y920517D01*
X1787914Y921475D01*
X1785435Y921801D01*
X1782955Y921475D01*
X1780643Y920517D01*
X1778659Y918995D01*
X1777136Y917010D01*
X1776179Y914699D01*
X1775853Y912219D01*
X1776179Y909739D01*
X1776205Y909676D01*
X1776180Y909305D01*
X1776073Y908560D01*
X1775933Y907885D01*
X1775768Y907301D01*
X1775747Y907247D01*
X1768829Y900329D01*
X1432259D01*
X1411040Y921549D01*
Y990944D01*
X1411370Y991165D01*
X1412585Y992984D01*
X1413012Y995130D01*
X1412585Y997276D01*
X1411370Y999095D01*
X1409550Y1000311D01*
X1407404Y1000738D01*
D02*
G37*
G36*
X1858434Y894790D02*
Y871219D01*
X1882006D01*
X1881977Y871581D01*
X1880956Y875836D01*
X1879281Y879879D01*
X1876995Y883610D01*
X1874153Y886937D01*
X1870825Y889779D01*
X1867094Y892066D01*
X1863052Y893740D01*
X1858797Y894762D01*
X1858434Y894790D01*
D02*
G37*
G36*
X1850435D02*
X1850072Y894762D01*
X1845817Y893740D01*
X1841774Y892066D01*
X1838044Y889779D01*
X1834716Y886937D01*
X1831874Y883610D01*
X1829588Y879879D01*
X1827913Y875836D01*
X1826892Y871581D01*
X1826863Y871219D01*
X1850435D01*
Y894790D01*
D02*
G37*
G36*
X1588284Y883261D02*
X1585217Y882857D01*
X1582358Y881673D01*
X1579904Y879790D01*
X1578020Y877335D01*
X1576836Y874477D01*
X1576433Y871409D01*
X1576836Y868342D01*
X1578020Y865484D01*
X1579904Y863029D01*
X1582358Y861146D01*
X1585217Y859962D01*
X1588284Y859558D01*
X1591351Y859962D01*
X1594210Y861146D01*
X1596664Y863029D01*
X1598548Y865484D01*
X1599731Y868342D01*
X1600135Y871409D01*
X1599731Y874477D01*
X1598548Y877335D01*
X1596664Y879790D01*
X1594210Y881673D01*
X1591351Y882857D01*
X1588284Y883261D01*
D02*
G37*
G36*
X1518184D02*
X1515117Y882857D01*
X1512258Y881673D01*
X1509804Y879790D01*
X1507920Y877335D01*
X1506736Y874477D01*
X1506333Y871409D01*
X1506736Y868342D01*
X1507920Y865484D01*
X1509804Y863029D01*
X1512258Y861146D01*
X1515117Y859962D01*
X1518184Y859558D01*
X1521251Y859962D01*
X1524110Y861146D01*
X1526564Y863029D01*
X1528448Y865484D01*
X1529632Y868342D01*
X1530035Y871409D01*
X1529632Y874477D01*
X1528448Y877335D01*
X1526564Y879790D01*
X1524110Y881673D01*
X1521251Y882857D01*
X1518184Y883261D01*
D02*
G37*
G36*
X1579734Y855352D02*
Y850509D01*
X1584576D01*
X1584207Y851401D01*
X1582652Y853427D01*
X1580626Y854982D01*
X1579734Y855352D01*
D02*
G37*
G36*
X1571734D02*
X1570842Y854982D01*
X1568816Y853427D01*
X1567261Y851401D01*
X1566892Y850509D01*
X1571734D01*
Y855352D01*
D02*
G37*
G36*
X1882006Y863219D02*
X1858434D01*
Y839648D01*
X1858797Y839677D01*
X1863052Y840698D01*
X1867094Y842373D01*
X1870825Y844659D01*
X1874153Y847501D01*
X1876995Y850828D01*
X1879281Y854559D01*
X1880956Y858602D01*
X1881977Y862857D01*
X1882006Y863219D01*
D02*
G37*
G36*
X1850435D02*
X1826863D01*
X1826892Y862857D01*
X1827913Y858602D01*
X1829588Y854559D01*
X1831874Y850828D01*
X1834716Y847501D01*
X1838044Y844659D01*
X1841774Y842373D01*
X1845817Y840698D01*
X1850072Y839677D01*
X1850435Y839648D01*
Y863219D01*
D02*
G37*
G36*
X1744006D02*
X1720435D01*
Y839648D01*
X1720797Y839677D01*
X1725052Y840698D01*
X1729095Y842373D01*
X1732825Y844659D01*
X1736153Y847501D01*
X1738995Y850828D01*
X1741281Y854559D01*
X1742956Y858602D01*
X1743977Y862857D01*
X1744006Y863219D01*
D02*
G37*
G36*
X1712435D02*
X1688863D01*
X1688892Y862857D01*
X1689913Y858602D01*
X1691588Y854559D01*
X1693874Y850828D01*
X1696716Y847501D01*
X1700044Y844659D01*
X1703775Y842373D01*
X1707817Y840698D01*
X1712072Y839677D01*
X1712435Y839648D01*
Y863219D01*
D02*
G37*
G36*
X2078210Y864792D02*
X2074816Y864345D01*
X2071654Y863036D01*
X2068938Y860952D01*
X2066855Y858236D01*
X2065545Y855074D01*
X2065098Y851680D01*
X2065545Y848286D01*
X2066855Y845124D01*
X2068938Y842408D01*
X2071654Y840324D01*
X2074816Y839015D01*
X2078210Y838568D01*
X2081604Y839015D01*
X2084766Y840324D01*
X2087482Y842408D01*
X2089565Y845124D01*
X2090875Y848286D01*
X2091322Y851680D01*
X2090875Y855074D01*
X2089565Y858236D01*
X2087482Y860952D01*
X2084766Y863036D01*
X2081604Y864345D01*
X2078210Y864792D01*
D02*
G37*
G36*
X1385830D02*
X1382436Y864345D01*
X1379274Y863036D01*
X1376558Y860952D01*
X1374474Y858236D01*
X1373165Y855074D01*
X1372718Y851680D01*
X1373165Y848286D01*
X1374474Y845124D01*
X1376558Y842408D01*
X1379274Y840324D01*
X1382436Y839015D01*
X1385830Y838568D01*
X1389224Y839015D01*
X1392386Y840324D01*
X1395102Y842408D01*
X1397186Y845124D01*
X1398495Y848286D01*
X1398942Y851680D01*
X1398495Y855074D01*
X1397186Y858236D01*
X1395102Y860952D01*
X1392386Y863036D01*
X1389224Y864345D01*
X1385830Y864792D01*
D02*
G37*
G36*
X1584576Y842509D02*
X1579734D01*
Y837667D01*
X1580626Y838036D01*
X1582652Y839591D01*
X1584207Y841618D01*
X1584576Y842509D01*
D02*
G37*
G36*
X1571734D02*
X1566892D01*
X1567261Y841618D01*
X1568816Y839591D01*
X1570842Y838036D01*
X1571734Y837667D01*
Y842509D01*
D02*
G37*
%LPD*%
G36*
X1662765Y1179998D02*
X1661737Y1179984D01*
X1659855Y1179811D01*
X1659002Y1179651D01*
X1658206Y1179443D01*
X1657469Y1179187D01*
X1656790Y1178881D01*
X1656169Y1178527D01*
X1655607Y1178125D01*
X1655102Y1177674D01*
X1652274Y1180502D01*
X1652725Y1181007D01*
X1653127Y1181569D01*
X1653481Y1182190D01*
X1653787Y1182869D01*
X1654043Y1183606D01*
X1654252Y1184402D01*
X1654411Y1185255D01*
X1654522Y1186167D01*
X1654584Y1187137D01*
X1654598Y1188165D01*
X1662765Y1179998D01*
D02*
G37*
G36*
X1559977Y1171256D02*
X1560225Y1171048D01*
X1560483Y1170857D01*
X1560750Y1170684D01*
X1561027Y1170528D01*
X1561312Y1170390D01*
X1561607Y1170269D01*
X1561912Y1170166D01*
X1562225Y1170080D01*
X1562548Y1170012D01*
X1558493Y1167262D01*
X1558540Y1167570D01*
X1558557Y1167872D01*
X1558542Y1168168D01*
X1558496Y1168457D01*
X1558419Y1168740D01*
X1558312Y1169016D01*
X1558173Y1169286D01*
X1558003Y1169550D01*
X1557802Y1169807D01*
X1557570Y1170058D01*
X1559738Y1171482D01*
X1559977Y1171256D01*
D02*
G37*
G36*
X1392826Y999859D02*
X1393072Y999649D01*
X1393327Y999455D01*
X1393591Y999277D01*
X1393864Y999114D01*
X1394145Y998967D01*
X1394435Y998835D01*
X1394734Y998718D01*
X1395042Y998618D01*
X1395359Y998533D01*
X1391154Y996017D01*
X1391217Y996317D01*
X1391247Y996612D01*
X1391244Y996901D01*
X1391208Y997185D01*
X1391140Y997464D01*
X1391038Y997737D01*
X1390903Y998005D01*
X1390736Y998268D01*
X1390536Y998525D01*
X1390303Y998778D01*
X1392589Y1000084D01*
X1392826Y999859D01*
D02*
G37*
G36*
X1740465Y904750D02*
X1740425Y905070D01*
X1740305Y905357D01*
X1740105Y905610D01*
X1739825Y905829D01*
X1739465Y906015D01*
X1739025Y906167D01*
X1738505Y906285D01*
X1737905Y906369D01*
X1737225Y906420D01*
X1736465Y906437D01*
Y910437D01*
X1737229Y910457D01*
X1737913Y910517D01*
X1738517Y910617D01*
X1739041Y910757D01*
X1739484Y910937D01*
X1739847Y911157D01*
X1740129Y911417D01*
X1740332Y911717D01*
X1740454Y912057D01*
X1740495Y912437D01*
X1740465Y904750D01*
D02*
G37*
G36*
X1525235Y841119D02*
X1524441Y841902D01*
X1522935Y843221D01*
X1522222Y843756D01*
X1521537Y844209D01*
X1520879Y844580D01*
X1520248Y844868D01*
X1519645Y845074D01*
X1519068Y845198D01*
X1518519Y845239D01*
Y847779D01*
X1519068Y847821D01*
X1519645Y847944D01*
X1520248Y848150D01*
X1520879Y848438D01*
X1521537Y848809D01*
X1522222Y849262D01*
X1522935Y849798D01*
X1524441Y851116D01*
X1525235Y851899D01*
Y841119D01*
D02*
G37*
G36*
X1409854Y992594D02*
X1409670Y992328D01*
X1409507Y992054D01*
X1409366Y991772D01*
X1409247Y991481D01*
X1409149Y991182D01*
X1409073Y990875D01*
X1409019Y990559D01*
X1408987Y990235D01*
X1408976Y989902D01*
X1406436Y989667D01*
X1406423Y990005D01*
X1406385Y990330D01*
X1406322Y990640D01*
X1406234Y990937D01*
X1406121Y991220D01*
X1405983Y991490D01*
X1405820Y991745D01*
X1405631Y991987D01*
X1405417Y992215D01*
X1405179Y992429D01*
X1410060Y992851D01*
X1409854Y992594D01*
D02*
G37*
G36*
X1785359Y904720D02*
X1784282Y904712D01*
X1782350Y904580D01*
X1781495Y904457D01*
X1780714Y904296D01*
X1780008Y904096D01*
X1779375Y903857D01*
X1778817Y903581D01*
X1778333Y903266D01*
X1777924Y902913D01*
X1776128Y904708D01*
X1776481Y905118D01*
X1776796Y905602D01*
X1777073Y906160D01*
X1777311Y906792D01*
X1777511Y907499D01*
X1777672Y908279D01*
X1777796Y909134D01*
X1777927Y911067D01*
X1777935Y912144D01*
X1785359Y904720D01*
D02*
G37*
%LPC*%
G36*
X2078210Y1207972D02*
X2074816Y1207525D01*
X2071654Y1206216D01*
X2068938Y1204132D01*
X2066855Y1201416D01*
X2065545Y1198254D01*
X2065098Y1194860D01*
X2065545Y1191466D01*
X2066855Y1188304D01*
X2068938Y1185588D01*
X2071654Y1183504D01*
X2074816Y1182195D01*
X2078210Y1181748D01*
X2081604Y1182195D01*
X2084766Y1183504D01*
X2087482Y1185588D01*
X2089565Y1188304D01*
X2090875Y1191466D01*
X2091322Y1194860D01*
X2090875Y1198254D01*
X2089565Y1201416D01*
X2087482Y1204132D01*
X2084766Y1206216D01*
X2081604Y1207525D01*
X2078210Y1207972D01*
D02*
G37*
G36*
X1918922Y1199575D02*
Y1194543D01*
X1923954D01*
X1923548Y1195523D01*
X1921965Y1197586D01*
X1919902Y1199168D01*
X1918922Y1199575D01*
D02*
G37*
G36*
X1910922Y1199574D02*
X1909942Y1199168D01*
X1907879Y1197586D01*
X1906296Y1195523D01*
X1905890Y1194543D01*
X1910922D01*
Y1199574D01*
D02*
G37*
G36*
Y1186543D02*
X1905890D01*
X1906296Y1185563D01*
X1907879Y1183500D01*
X1909942Y1181917D01*
X1910922Y1181511D01*
Y1186543D01*
D02*
G37*
G36*
X1923954D02*
X1918922D01*
Y1181511D01*
X1919902Y1181917D01*
X1921965Y1183500D01*
X1923548Y1185563D01*
X1923954Y1186543D01*
D02*
G37*
G36*
X1898922Y1180125D02*
X1896442Y1179798D01*
X1894131Y1178841D01*
X1892146Y1177318D01*
X1890624Y1175334D01*
X1889666Y1173023D01*
X1889340Y1170543D01*
X1889666Y1168063D01*
X1890624Y1165752D01*
X1892146Y1163767D01*
X1894131Y1162244D01*
X1896442Y1161287D01*
X1898922Y1160961D01*
X1901402Y1161287D01*
X1903713Y1162244D01*
X1905697Y1163767D01*
X1907220Y1165752D01*
X1908177Y1168063D01*
X1908504Y1170543D01*
X1908177Y1173023D01*
X1907220Y1175334D01*
X1905697Y1177318D01*
X1903713Y1178841D01*
X1901402Y1179798D01*
X1898922Y1180125D01*
D02*
G37*
%LPD*%
D11*
X1544424Y984870D02*
X1889311D01*
X1934976Y1030535D01*
X1510619Y1018675D02*
X1544424Y984870D01*
X1893193Y980300D02*
X1939771Y1026878D01*
X1508726Y1014105D02*
X1542531Y980300D01*
X1893193D01*
X1934976Y1030535D02*
Y1062522D01*
X1939771Y1026878D02*
Y1060854D01*
X2050244Y1029954D02*
X2054600Y1034310D01*
X2025954Y1029954D02*
X2050244D01*
X2021630Y1034278D02*
X2025954Y1029954D01*
X1986839Y1034278D02*
X2021630D01*
X2030285Y1037383D02*
X2031492D01*
X2028391Y1039278D02*
X2030285Y1037383D01*
X1986839Y1039278D02*
X2028391D01*
X1415927Y1125891D02*
X1421765Y1131729D01*
X1415927Y1035534D02*
X1432786Y1018675D01*
X1510619D01*
X1415927Y1035534D02*
Y1125891D01*
X1934976Y1062522D02*
X1943237Y1070783D01*
X1959591D01*
X1964839Y1065535D01*
Y1056278D02*
Y1065535D01*
X1411357Y1033511D02*
X1430763Y1014105D01*
X1508726D01*
X1411357Y1033511D02*
Y1130046D01*
X1939771Y1060854D02*
X1945130Y1066213D01*
X1956573D01*
X1959839Y1056278D02*
Y1062947D01*
X1956573Y1066213D02*
X1959839Y1062947D01*
D79*
X1968723Y1005869D02*
D03*
Y997869D02*
D03*
X1977270D02*
D03*
Y1005869D02*
D03*
X1985165Y998117D02*
D03*
Y1006117D02*
D03*
D84*
X1997582Y1019655D02*
D03*
Y1027455D02*
D03*
X2005567Y1027692D02*
D03*
Y1019892D02*
D03*
D101*
X1497033Y995130D02*
X1513630D01*
X1538409Y970350D01*
X1922273D01*
X1490939Y1002984D02*
X1513002D01*
X1540526Y975460D01*
X1897266D01*
X1923583Y1001777D01*
X1922273Y970350D02*
X1937819Y954804D01*
X1384780Y1149991D02*
X1407619Y1172830D01*
X2030528Y954804D02*
X2040197Y945135D01*
X1937819Y954804D02*
X2030528D01*
X2040197Y923197D02*
Y945135D01*
X1927604Y1001777D02*
X1928222Y1002395D01*
X1923583Y1001777D02*
X1927604D01*
X1384780Y1006096D02*
X1394540Y996337D01*
X1384780Y1006096D02*
Y1149991D01*
X1377981Y994160D02*
X1399632Y972509D01*
X1377981Y1156387D02*
X1399881Y1178287D01*
X1377981Y994160D02*
Y1156387D01*
X1968723Y1005869D02*
X1969702Y1006849D01*
Y1017141D02*
X1969729Y1017168D01*
X1969702Y1006849D02*
Y1017141D01*
X1974839Y1013649D02*
Y1017278D01*
X1975069Y1010837D02*
Y1013419D01*
X1974839Y1013649D02*
X1975069Y1013419D01*
Y1010837D02*
X1976520Y1009386D01*
Y1006619D02*
Y1009386D01*
Y1006619D02*
X1977270Y1005869D01*
X1984917D02*
X1985165Y1006117D01*
X1977270Y1005869D02*
X1984917D01*
X1399881Y1178287D02*
X1551137D01*
X1561924Y1166568D02*
Y1167500D01*
X1551137Y1178287D02*
X1561924Y1167500D01*
X1492626Y887004D02*
X1501603Y878027D01*
X1399632Y914137D02*
X1426765Y887004D01*
X1492626D01*
X1501603Y853053D02*
Y878027D01*
X1394540Y995130D02*
Y996337D01*
X1399632Y914137D02*
Y972509D01*
X1508147Y846509D02*
X1530734D01*
X1501603Y853053D02*
X1508147Y846509D01*
X1770211Y896995D02*
X1785435Y912219D01*
X1407706Y920168D02*
X1430878Y896995D01*
X1770211D01*
X1407706Y920168D02*
Y995296D01*
X1483568Y995613D02*
X1490939Y1002984D01*
D102*
X2051700Y917537D02*
Y950473D01*
X2044013Y909849D02*
X2051700Y917537D01*
X2035700Y966473D02*
X2051700Y950473D01*
X2001174Y909849D02*
X2044013D01*
X1972801Y966473D02*
X2035700D01*
X1968723Y970551D02*
X1972801Y966473D01*
X1960726Y997703D02*
X1966306D01*
X1968723Y970551D02*
Y997869D01*
X1966306Y997703D02*
X1966472Y997869D01*
X1968723D01*
X1977270Y992336D02*
X1979766Y989840D01*
X1977270Y992336D02*
Y997869D01*
D103*
X1928406Y1065243D02*
X1939922Y1076759D01*
Y1190543D01*
X1928406Y1041528D02*
Y1065243D01*
X1842326Y1038014D02*
X1924891D01*
X1928406Y1041528D01*
X1838812Y1022054D02*
Y1034499D01*
X1842326Y1038014D01*
X1836516Y1019758D02*
X1838812Y1022054D01*
D105*
X1531959Y1185723D02*
D03*
Y1213223D02*
D03*
X1448077Y1185956D02*
D03*
Y1213456D02*
D03*
D106*
X1939922Y1190543D02*
D03*
D107*
X1914922D02*
D03*
D108*
X1898922Y1170543D02*
D03*
X1725660Y1170457D02*
D03*
D109*
X2053603Y1066220D02*
D03*
Y1008420D02*
D03*
D110*
X1747935Y912219D02*
D03*
D111*
X1785435D02*
D03*
X1822935D02*
D03*
X1742500Y1190777D02*
D03*
X1767500D02*
D03*
X1792500D02*
D03*
X1817500D02*
D03*
X1842500D02*
D03*
D112*
X1716434Y867219D02*
D03*
X1854435D02*
D03*
D113*
X1861915Y1019758D02*
D03*
X1836516D02*
D03*
X1811116D02*
D03*
X1785715D02*
D03*
X1760316D02*
D03*
D114*
X1734915D02*
D03*
D115*
X1612048Y1188248D02*
D03*
X1637448D02*
D03*
X1662848D02*
D03*
D116*
X1688248D02*
D03*
D117*
X1518184Y871409D02*
D03*
X1588284D02*
D03*
D118*
X1575734Y846509D02*
D03*
X1530734D02*
D03*
D119*
X2078210Y1194860D02*
D03*
Y851680D02*
D03*
X1385830D02*
D03*
Y1194860D02*
D03*
D120*
X1555976Y994142D02*
D03*
X1547744Y993788D02*
D03*
X2006185Y1052277D02*
D03*
X1997830Y1046298D02*
D03*
X2040000Y1160000D02*
D03*
Y1120000D02*
D03*
Y880000D02*
D03*
Y840000D02*
D03*
X2000000Y1160000D02*
D03*
Y1120000D02*
D03*
Y840000D02*
D03*
X1960000D02*
D03*
X1920000Y960000D02*
D03*
Y840000D02*
D03*
X1880000Y960000D02*
D03*
Y840000D02*
D03*
X1840000Y960000D02*
D03*
X1800000Y1160000D02*
D03*
Y1120000D02*
D03*
Y960000D02*
D03*
Y880000D02*
D03*
Y840000D02*
D03*
X1760000Y1120000D02*
D03*
Y960000D02*
D03*
Y880000D02*
D03*
Y840000D02*
D03*
X1720000Y1120000D02*
D03*
Y1080000D02*
D03*
Y1040000D02*
D03*
Y960000D02*
D03*
X1680000Y1160000D02*
D03*
Y1120000D02*
D03*
Y1080000D02*
D03*
Y1040000D02*
D03*
Y960000D02*
D03*
Y880000D02*
D03*
Y840000D02*
D03*
X1640000Y1120000D02*
D03*
Y1080000D02*
D03*
Y1040000D02*
D03*
Y960000D02*
D03*
Y880000D02*
D03*
Y840000D02*
D03*
X1600000Y1080000D02*
D03*
Y1040000D02*
D03*
Y840000D02*
D03*
X1560000Y1080000D02*
D03*
Y1040000D02*
D03*
Y880000D02*
D03*
Y840000D02*
D03*
X1520000Y1080000D02*
D03*
Y1040000D02*
D03*
X1480000Y1080000D02*
D03*
Y1040000D02*
D03*
Y880000D02*
D03*
Y840000D02*
D03*
X1440000Y1000000D02*
D03*
Y960000D02*
D03*
Y840000D02*
D03*
X1400000D02*
D03*
X2001579Y910207D02*
D03*
X1986254Y1017939D02*
D03*
X1960834Y997860D02*
D03*
X1421474Y1130733D02*
D03*
X1410644Y1130938D02*
D03*
X1980708Y989617D02*
D03*
X2031492Y1037383D02*
D03*
X2054600Y1034310D02*
D03*
X2027624Y1078807D02*
D03*
X2032983Y1073771D02*
D03*
X2026203Y997907D02*
D03*
X2031820Y1003976D02*
D03*
X2031140Y1053623D02*
D03*
Y1014589D02*
D03*
Y1022583D02*
D03*
Y1060786D02*
D03*
X2022673Y984427D02*
D03*
X2015302Y984278D02*
D03*
X2007706Y984353D02*
D03*
X1406644Y1172017D02*
D03*
X1497033Y995130D02*
D03*
X2040197Y923197D02*
D03*
X1845637Y1066825D02*
D03*
X1845771Y1075027D02*
D03*
Y1083095D02*
D03*
X1561924Y1166568D02*
D03*
X1899294Y1072034D02*
D03*
X1909638D02*
D03*
X1914072Y1080164D02*
D03*
X1903727D02*
D03*
X1892398D02*
D03*
X1892318Y1055581D02*
D03*
Y1065925D02*
D03*
X1884188Y1070358D02*
D03*
Y1060014D02*
D03*
Y1048684D02*
D03*
X1369700Y924744D02*
D03*
X1483603Y995130D02*
D03*
X1407404D02*
D03*
X1394540D02*
D03*
X1369921Y1126310D02*
D03*
Y1132570D02*
D03*
X1369700Y930904D02*
D03*
Y964125D02*
D03*
Y957965D02*
D03*
Y1000745D02*
D03*
Y994485D02*
D03*
X2000474Y984369D02*
D03*
X1914348Y1026216D02*
D03*
X1908411D02*
D03*
X1902786D02*
D03*
X1928222Y1002395D02*
D03*
D121*
X1986839Y1049278D02*
D03*
Y1044278D02*
D03*
Y1039278D02*
D03*
Y1034278D02*
D03*
Y1029278D02*
D03*
Y1024278D02*
D03*
X1947839D02*
D03*
Y1029278D02*
D03*
Y1034278D02*
D03*
Y1039278D02*
D03*
Y1044278D02*
D03*
Y1049278D02*
D03*
D122*
X1979839Y1017278D02*
D03*
X1974839D02*
D03*
X1969839D02*
D03*
X1964839D02*
D03*
X1959839D02*
D03*
X1954839D02*
D03*
Y1056278D02*
D03*
X1959839D02*
D03*
X1964839D02*
D03*
X1969839D02*
D03*
X1974839D02*
D03*
X1979839D02*
D03*
D123*
X1967339Y1036778D02*
D03*
D124*
X1393227Y1029338D02*
Y1146649D01*
X1400844Y1154266D02*
X1628866D01*
X1393227Y1146649D02*
X1400844Y1154266D01*
X1393227Y1029338D02*
X1420161Y1002404D01*
X1628866Y1154266D02*
X1662848Y1188248D01*
X1744152Y908437D02*
X1747935Y912219D01*
X1435308Y908437D02*
X1744152D01*
X1420161Y923583D02*
X1435308Y908437D01*
X1420161Y923583D02*
Y1002404D01*
M02*
