G04*
G04 #@! TF.GenerationSoftware,Altium Limited,Altium Designer,20.1.14 (287)*
G04*
G04 Layer_Color=32896*
%FSLAX44Y44*%
%MOMM*%
G71*
G04*
G04 #@! TF.SameCoordinates,99A645DD-A7E4-4CA2-B257-33081834DCFA*
G04*
G04*
G04 #@! TF.FilePolarity,Positive*
G04*
G01*
G75*
%ADD131C,0.2500*%
G36*
X1452014Y1205342D02*
X1452083Y1205300D01*
X1452139Y1205259D01*
X1452180Y1205203D01*
X1452208Y1205162D01*
X1452236Y1205134D01*
Y1205120D01*
X1452263Y1205009D01*
Y1204912D01*
Y1204829D01*
X1452236Y1204746D01*
X1452208Y1204690D01*
X1452180Y1204649D01*
X1452166Y1204621D01*
X1452153Y1204607D01*
X1452055Y1204524D01*
X1451931Y1204441D01*
X1451792Y1204357D01*
X1451639Y1204274D01*
X1451501Y1204205D01*
X1451376Y1204149D01*
X1451293Y1204108D01*
X1451279Y1204094D01*
X1451265D01*
X1451071Y1203997D01*
X1450904Y1203886D01*
X1450766Y1203789D01*
X1450641Y1203692D01*
X1450544Y1203608D01*
X1450474Y1203539D01*
X1450433Y1203484D01*
X1450419Y1203470D01*
X1450308Y1203331D01*
X1450211Y1203206D01*
X1450141Y1203095D01*
X1450072Y1202998D01*
X1450031Y1202915D01*
X1450003Y1202846D01*
X1449989Y1202804D01*
Y1202790D01*
X1449906Y1202568D01*
X1449864Y1202485D01*
X1449823Y1202402D01*
X1449795Y1202333D01*
X1449767Y1202291D01*
X1449739Y1202263D01*
Y1202249D01*
X1449684Y1202180D01*
X1449615Y1202124D01*
X1449559Y1202083D01*
X1449490Y1202055D01*
X1449448Y1202041D01*
X1449406Y1202027D01*
X1449365D01*
X1449309Y1202041D01*
X1449268Y1202069D01*
X1449226Y1202111D01*
X1449198Y1202166D01*
X1449143Y1202305D01*
X1449088Y1202457D01*
X1449060Y1202610D01*
X1449046Y1202749D01*
X1449032Y1202804D01*
Y1202846D01*
Y1202873D01*
Y1202887D01*
X1449018Y1203192D01*
X1449032Y1203470D01*
X1449074Y1203692D01*
X1449101Y1203886D01*
X1449143Y1204025D01*
X1449185Y1204135D01*
X1449212Y1204191D01*
X1449226Y1204219D01*
X1449282Y1204302D01*
X1449351Y1204385D01*
X1449531Y1204538D01*
X1449753Y1204676D01*
X1449975Y1204801D01*
X1450197Y1204898D01*
X1450294Y1204940D01*
X1450377Y1204967D01*
X1450447Y1204995D01*
X1450502Y1205023D01*
X1450530Y1205037D01*
X1450544D01*
X1450724Y1205092D01*
X1450877Y1205148D01*
X1451015Y1205189D01*
X1451154Y1205231D01*
X1451376Y1205286D01*
X1451542Y1205342D01*
X1451667Y1205356D01*
X1451750Y1205384D01*
X1451931D01*
X1452014Y1205342D01*
D02*
G37*
G36*
X1440517Y1205800D02*
X1440669Y1205786D01*
X1440808Y1205772D01*
X1440919Y1205758D01*
X1441002Y1205744D01*
X1441086Y1205730D01*
X1441141Y1205703D01*
X1441183Y1205689D01*
X1441210Y1205675D01*
X1441238Y1205661D01*
X1441252Y1205647D01*
X1441266Y1205605D01*
Y1205564D01*
X1441210Y1205453D01*
X1441127Y1205314D01*
X1441016Y1205175D01*
X1440905Y1205037D01*
X1440808Y1204926D01*
X1440739Y1204843D01*
X1440711Y1204829D01*
Y1204815D01*
X1440572Y1204662D01*
X1440461Y1204510D01*
X1440364Y1204371D01*
X1440281Y1204246D01*
X1440226Y1204149D01*
X1440170Y1204066D01*
X1440156Y1204011D01*
X1440142Y1203997D01*
X1440073Y1203830D01*
X1440018Y1203650D01*
X1439962Y1203456D01*
X1439921Y1203262D01*
X1439879Y1203095D01*
X1439851Y1202957D01*
X1439837Y1202901D01*
X1439823Y1202859D01*
Y1202846D01*
Y1202832D01*
X1439782Y1202596D01*
X1439726Y1202402D01*
X1439685Y1202222D01*
X1439657Y1202083D01*
X1439615Y1201958D01*
X1439574Y1201847D01*
X1439546Y1201764D01*
X1439518Y1201695D01*
X1439491Y1201639D01*
X1439463Y1201598D01*
X1439421Y1201556D01*
X1439407Y1201528D01*
X1439393D01*
X1439366Y1201542D01*
X1439338Y1201584D01*
X1439310Y1201653D01*
X1439283Y1201722D01*
X1439269Y1201819D01*
X1439255Y1201930D01*
X1439241Y1202166D01*
X1439227Y1202402D01*
X1439213Y1202513D01*
Y1202610D01*
Y1202693D01*
Y1202749D01*
Y1202790D01*
Y1202804D01*
Y1202971D01*
Y1203123D01*
X1439199Y1203262D01*
Y1203387D01*
X1439185Y1203595D01*
X1439158Y1203761D01*
X1439144Y1203872D01*
X1439130Y1203955D01*
X1439116Y1203997D01*
Y1204011D01*
X1439061Y1204121D01*
X1438978Y1204246D01*
X1438894Y1204357D01*
X1438783Y1204482D01*
X1438686Y1204579D01*
X1438617Y1204662D01*
X1438548Y1204718D01*
X1438534Y1204732D01*
X1438409Y1204843D01*
X1438312Y1204954D01*
X1438229Y1205051D01*
X1438159Y1205134D01*
X1438048Y1205286D01*
X1437993Y1205397D01*
X1437965Y1205495D01*
Y1205550D01*
X1437979Y1205578D01*
Y1205592D01*
X1438021Y1205633D01*
X1438076Y1205661D01*
X1438173Y1205689D01*
X1438284Y1205703D01*
X1438409Y1205730D01*
X1438548Y1205744D01*
X1438839Y1205772D01*
X1439130Y1205800D01*
X1439255D01*
X1439380Y1205814D01*
X1440337D01*
X1440517Y1205800D01*
D02*
G37*
G36*
X1439893Y1200946D02*
X1439934Y1200932D01*
X1439990Y1200863D01*
X1440018Y1200793D01*
Y1200779D01*
Y1200765D01*
X1440004Y1200696D01*
X1439990Y1200654D01*
X1439921Y1200599D01*
X1439851Y1200571D01*
X1439823D01*
X1439754Y1200585D01*
X1439713Y1200599D01*
X1439657Y1200668D01*
X1439629Y1200738D01*
Y1200751D01*
Y1200765D01*
X1439643Y1200835D01*
X1439657Y1200876D01*
X1439726Y1200932D01*
X1439796Y1200959D01*
X1439823D01*
X1439893Y1200946D01*
D02*
G37*
G36*
X1447423Y1205758D02*
X1447617Y1205744D01*
X1447784Y1205730D01*
X1447923Y1205703D01*
X1448020Y1205689D01*
X1448103Y1205661D01*
X1448172Y1205647D01*
X1448214Y1205633D01*
X1448242Y1205619D01*
X1448255Y1205605D01*
X1448269Y1205592D01*
X1448283Y1205536D01*
Y1205481D01*
X1448255Y1205411D01*
X1448228Y1205342D01*
X1448186Y1205273D01*
X1448158Y1205231D01*
X1448131Y1205189D01*
X1448117Y1205175D01*
X1448006Y1205037D01*
X1447881Y1204870D01*
X1447742Y1204690D01*
X1447604Y1204510D01*
X1447465Y1204343D01*
X1447354Y1204191D01*
X1447312Y1204149D01*
X1447285Y1204108D01*
X1447257Y1204080D01*
Y1204066D01*
X1447021Y1203761D01*
X1446813Y1203456D01*
X1446619Y1203165D01*
X1446439Y1202887D01*
X1446300Y1202652D01*
X1446231Y1202554D01*
X1446189Y1202471D01*
X1446147Y1202402D01*
X1446120Y1202346D01*
X1446092Y1202319D01*
Y1202305D01*
X1444927Y1200266D01*
X1444913Y1200238D01*
X1444885Y1200197D01*
X1444844Y1200127D01*
X1444788Y1200058D01*
X1444677Y1199850D01*
X1444553Y1199642D01*
X1444428Y1199420D01*
X1444372Y1199323D01*
X1444317Y1199226D01*
X1444275Y1199157D01*
X1444247Y1199101D01*
X1444220Y1199060D01*
Y1199046D01*
X1443970Y1198616D01*
X1443721Y1198186D01*
X1443499Y1197784D01*
X1443277Y1197409D01*
X1443194Y1197257D01*
X1443110Y1197104D01*
X1443027Y1196965D01*
X1442972Y1196854D01*
X1442916Y1196771D01*
X1442874Y1196702D01*
X1442861Y1196660D01*
X1442847Y1196646D01*
X1442722Y1196425D01*
X1442611Y1196230D01*
X1442514Y1196064D01*
X1442431Y1195925D01*
X1442375Y1195800D01*
X1442306Y1195690D01*
X1442264Y1195606D01*
X1442223Y1195537D01*
X1442195Y1195481D01*
X1442181Y1195440D01*
X1442153Y1195385D01*
X1442139Y1195357D01*
X1442126Y1195301D01*
X1442084Y1195232D01*
X1442015Y1195135D01*
X1441945Y1195052D01*
X1441876Y1194968D01*
X1441807Y1194899D01*
X1441765Y1194844D01*
X1441751Y1194830D01*
X1441654Y1194746D01*
X1441571Y1194677D01*
X1441488Y1194622D01*
X1441418Y1194580D01*
X1441363Y1194552D01*
X1441321Y1194538D01*
X1441293Y1194525D01*
X1441280D01*
X1441183Y1194511D01*
X1441072Y1194497D01*
X1440822Y1194511D01*
X1440628D01*
X1440572Y1194525D01*
X1440545D01*
X1440350Y1194552D01*
X1440198Y1194594D01*
X1440073Y1194622D01*
X1439976Y1194663D01*
X1439921Y1194691D01*
X1439865Y1194719D01*
X1439851Y1194733D01*
X1439837D01*
X1439782Y1194788D01*
X1439726Y1194885D01*
X1439629Y1195079D01*
X1439602Y1195176D01*
X1439574Y1195260D01*
X1439546Y1195315D01*
Y1195329D01*
X1439518Y1195468D01*
X1439505Y1195592D01*
X1439491Y1195703D01*
Y1195800D01*
Y1195870D01*
X1439505Y1195925D01*
Y1195953D01*
Y1195967D01*
X1439546Y1196147D01*
X1439588Y1196286D01*
X1439602Y1196341D01*
X1439615Y1196383D01*
X1439629Y1196397D01*
Y1196411D01*
X1439685Y1196535D01*
X1439726Y1196619D01*
X1439754Y1196674D01*
X1439768Y1196688D01*
X1439782Y1196757D01*
Y1196799D01*
X1439768Y1196813D01*
X1439754Y1196827D01*
X1439713Y1196841D01*
X1439671Y1196854D01*
X1439560Y1196868D01*
X1439324D01*
X1439255Y1196882D01*
X1439199Y1196896D01*
X1439158Y1196910D01*
X1439116Y1196924D01*
X1439102Y1196938D01*
X1439088Y1197007D01*
Y1197090D01*
X1439116Y1197173D01*
X1439130Y1197187D01*
Y1197201D01*
X1439172Y1197312D01*
X1439213Y1197437D01*
X1439283Y1197673D01*
X1439297Y1197784D01*
X1439310Y1197867D01*
X1439324Y1197922D01*
Y1197936D01*
X1439352Y1198117D01*
X1439393Y1198283D01*
X1439449Y1198449D01*
X1439491Y1198588D01*
X1439546Y1198727D01*
X1439588Y1198824D01*
X1439615Y1198879D01*
X1439629Y1198907D01*
X1439879Y1199490D01*
X1439962Y1198852D01*
X1439976Y1198741D01*
X1439990Y1198643D01*
X1440031Y1198491D01*
X1440073Y1198394D01*
X1440115Y1198325D01*
X1440156Y1198283D01*
X1440184Y1198255D01*
X1440212D01*
X1440240Y1198269D01*
X1440267Y1198297D01*
X1440323Y1198366D01*
X1440378Y1198477D01*
X1440420Y1198588D01*
X1440461Y1198713D01*
X1440489Y1198810D01*
X1440517Y1198879D01*
Y1198907D01*
X1440558Y1199143D01*
X1440614Y1199323D01*
X1440656Y1199462D01*
X1440711Y1199573D01*
X1440753Y1199642D01*
X1440794Y1199684D01*
X1440808Y1199711D01*
X1440822D01*
X1440850Y1199753D01*
X1440878Y1199822D01*
X1440891Y1199975D01*
Y1200044D01*
X1440878Y1200114D01*
Y1200155D01*
Y1200169D01*
X1440864Y1200294D01*
X1440878Y1200405D01*
X1440905Y1200474D01*
X1440933Y1200544D01*
X1440974Y1200585D01*
X1441016Y1200613D01*
X1441030Y1200627D01*
X1441044D01*
X1441086Y1200654D01*
X1441127Y1200682D01*
X1441238Y1200793D01*
X1441335Y1200932D01*
X1441446Y1201084D01*
X1441543Y1201237D01*
X1441626Y1201362D01*
X1441654Y1201417D01*
X1441682Y1201459D01*
X1441696Y1201473D01*
Y1201487D01*
X1441848Y1201764D01*
X1441945Y1201986D01*
X1442029Y1202180D01*
X1442084Y1202333D01*
X1442112Y1202443D01*
X1442126Y1202527D01*
X1442139Y1202568D01*
Y1202582D01*
X1442153Y1202652D01*
X1442167Y1202735D01*
X1442209Y1202846D01*
X1442250Y1202971D01*
X1442375Y1203248D01*
X1442514Y1203539D01*
X1442653Y1203816D01*
X1442708Y1203955D01*
X1442777Y1204066D01*
X1442819Y1204149D01*
X1442861Y1204232D01*
X1442874Y1204274D01*
X1442888Y1204288D01*
X1443623Y1205703D01*
X1445870Y1205758D01*
X1446272Y1205772D01*
X1447201D01*
X1447423Y1205758D01*
D02*
G37*
G36*
X1450780Y1201792D02*
X1450835Y1201722D01*
X1450877Y1201639D01*
X1450932Y1201542D01*
X1450974Y1201445D01*
X1451057Y1201237D01*
X1451085Y1201140D01*
X1451112Y1201070D01*
X1451126Y1201015D01*
Y1201001D01*
X1451209Y1200724D01*
X1451251Y1200599D01*
X1451279Y1200488D01*
X1451320Y1200405D01*
X1451334Y1200335D01*
X1451362Y1200294D01*
Y1200280D01*
X1451404Y1200169D01*
X1451445Y1200086D01*
X1451473Y1200003D01*
X1451487Y1199947D01*
X1451514Y1199906D01*
Y1199878D01*
X1451528Y1199864D01*
X1451556Y1199781D01*
X1451570Y1199697D01*
X1451584Y1199642D01*
Y1199628D01*
Y1199614D01*
Y1199490D01*
X1451556Y1199365D01*
X1451542Y1199323D01*
X1451528Y1199281D01*
X1451514Y1199254D01*
Y1199240D01*
X1451182Y1198144D01*
X1451112Y1197950D01*
X1451043Y1197811D01*
X1450974Y1197701D01*
X1450890Y1197631D01*
X1450835Y1197589D01*
X1450780Y1197576D01*
X1450752Y1197562D01*
X1450738D01*
X1450668Y1197576D01*
X1450613Y1197631D01*
X1450571Y1197687D01*
X1450544Y1197770D01*
X1450516Y1197839D01*
X1450502Y1197908D01*
X1450488Y1197950D01*
Y1197964D01*
X1450474Y1198047D01*
Y1198158D01*
X1450461Y1198269D01*
Y1198394D01*
X1450447Y1198671D01*
X1450433Y1198962D01*
Y1199226D01*
Y1199351D01*
Y1199448D01*
Y1199531D01*
Y1199600D01*
Y1199642D01*
Y1199656D01*
Y1199864D01*
Y1200072D01*
X1450447Y1200252D01*
Y1200419D01*
X1450461Y1200710D01*
X1450474Y1200959D01*
X1450488Y1201154D01*
X1450502Y1201279D01*
X1450516Y1201362D01*
Y1201389D01*
X1450530Y1201500D01*
X1450544Y1201584D01*
X1450571Y1201653D01*
X1450585Y1201722D01*
X1450627Y1201792D01*
X1450682Y1201833D01*
X1450724D01*
X1450780Y1201792D01*
D02*
G37*
G36*
X1453317Y1194927D02*
X1453359Y1194913D01*
X1453414Y1194844D01*
X1453442Y1194760D01*
Y1194746D01*
Y1194733D01*
X1453428Y1194663D01*
X1453414Y1194608D01*
X1453387Y1194580D01*
X1453345Y1194552D01*
X1453276Y1194525D01*
X1453248D01*
X1453179Y1194538D01*
X1453137Y1194552D01*
X1453082Y1194636D01*
X1453054Y1194705D01*
Y1194719D01*
Y1194733D01*
X1453068Y1194802D01*
X1453082Y1194857D01*
X1453109Y1194885D01*
X1453151Y1194913D01*
X1453220Y1194941D01*
X1453248D01*
X1453317Y1194927D01*
D02*
G37*
G36*
X1446952Y1199961D02*
X1446993Y1199906D01*
X1447035Y1199809D01*
X1447063Y1199684D01*
X1447090Y1199545D01*
X1447118Y1199379D01*
X1447160Y1199032D01*
X1447188Y1198671D01*
Y1198505D01*
X1447201Y1198366D01*
Y1198241D01*
X1447215Y1198144D01*
Y1198089D01*
Y1198061D01*
X1447229Y1197811D01*
X1447243Y1197589D01*
Y1197382D01*
X1447257Y1197201D01*
X1447271Y1197035D01*
X1447285Y1196896D01*
X1447298Y1196771D01*
X1447312Y1196660D01*
X1447326Y1196563D01*
X1447340Y1196494D01*
Y1196425D01*
X1447354Y1196383D01*
X1447368Y1196314D01*
Y1196300D01*
X1447410Y1196161D01*
X1447479Y1196022D01*
X1447562Y1195898D01*
X1447645Y1195773D01*
X1447728Y1195676D01*
X1447784Y1195592D01*
X1447839Y1195537D01*
X1447853Y1195523D01*
X1447964Y1195398D01*
X1448061Y1195287D01*
X1448145Y1195190D01*
X1448200Y1195093D01*
X1448242Y1195010D01*
X1448283Y1194941D01*
X1448311Y1194816D01*
X1448325Y1194719D01*
X1448311Y1194649D01*
X1448297Y1194608D01*
X1448283Y1194594D01*
X1448228Y1194552D01*
X1448145Y1194511D01*
X1448047Y1194469D01*
X1447937Y1194441D01*
X1447687Y1194400D01*
X1447410Y1194358D01*
X1447146Y1194344D01*
X1447035D01*
X1446924Y1194331D01*
X1446466D01*
X1446258Y1194344D01*
X1446064Y1194358D01*
X1445898Y1194372D01*
X1445745Y1194386D01*
X1445621Y1194414D01*
X1445509Y1194441D01*
X1445412Y1194469D01*
X1445343Y1194483D01*
X1445288Y1194511D01*
X1445204Y1194552D01*
X1445163Y1194580D01*
X1445149Y1194594D01*
X1445121Y1194649D01*
Y1194719D01*
X1445135Y1194788D01*
X1445163Y1194857D01*
X1445246Y1195024D01*
X1445371Y1195204D01*
X1445496Y1195357D01*
X1445607Y1195481D01*
X1445662Y1195537D01*
X1445704Y1195579D01*
X1445717Y1195592D01*
X1445731Y1195606D01*
X1445884Y1195759D01*
X1445995Y1195898D01*
X1446092Y1196022D01*
X1446175Y1196133D01*
X1446217Y1196217D01*
X1446258Y1196272D01*
X1446286Y1196314D01*
Y1196328D01*
X1446328Y1196452D01*
X1446355Y1196577D01*
X1446397Y1196827D01*
Y1196952D01*
X1446411Y1197035D01*
Y1197090D01*
Y1197118D01*
Y1197534D01*
X1446439Y1197908D01*
X1446453Y1198255D01*
X1446480Y1198546D01*
X1446494Y1198671D01*
X1446508Y1198782D01*
X1446522Y1198879D01*
X1446536Y1198962D01*
X1446550Y1199032D01*
Y1199073D01*
X1446564Y1199101D01*
Y1199115D01*
X1446591Y1199268D01*
X1446619Y1199406D01*
X1446647Y1199517D01*
X1446688Y1199614D01*
X1446716Y1199711D01*
X1446744Y1199781D01*
X1446799Y1199878D01*
X1446841Y1199947D01*
X1446882Y1199975D01*
X1446896Y1199989D01*
X1446910D01*
X1446952Y1199961D01*
D02*
G37*
G36*
X1456826Y1205370D02*
X1457020Y1205356D01*
X1457173Y1205342D01*
X1457298Y1205328D01*
X1457409Y1205300D01*
X1457492Y1205286D01*
X1457547Y1205273D01*
X1457589Y1205259D01*
X1457617Y1205245D01*
X1457630Y1205231D01*
X1457644Y1205217D01*
X1457658Y1205175D01*
X1457672Y1205120D01*
X1457644Y1205009D01*
X1457589Y1204898D01*
X1457520Y1204787D01*
X1457436Y1204690D01*
X1457353Y1204607D01*
X1457298Y1204551D01*
X1457284Y1204538D01*
X1456757Y1204121D01*
Y1199628D01*
Y1199115D01*
Y1198630D01*
Y1198200D01*
X1456771Y1197825D01*
Y1197479D01*
Y1197160D01*
X1456785Y1196896D01*
Y1196660D01*
Y1196466D01*
X1456798Y1196300D01*
Y1196161D01*
Y1196050D01*
X1456812Y1195967D01*
Y1195911D01*
Y1195884D01*
Y1195870D01*
X1456826Y1195717D01*
X1456840Y1195579D01*
X1456854Y1195454D01*
X1456868Y1195357D01*
X1456909Y1195163D01*
X1456951Y1195038D01*
X1456992Y1194941D01*
X1457034Y1194871D01*
X1457048Y1194844D01*
X1457062Y1194830D01*
X1457159Y1194719D01*
X1457228Y1194636D01*
X1457270Y1194566D01*
X1457284Y1194511D01*
Y1194469D01*
X1457270Y1194441D01*
X1457256Y1194414D01*
X1457214Y1194386D01*
X1457173Y1194358D01*
X1457034Y1194317D01*
X1456868Y1194275D01*
X1456687Y1194247D01*
X1456507Y1194233D01*
X1456355Y1194220D01*
X1456299Y1194206D01*
X1455661D01*
X1455564Y1194220D01*
X1455467Y1194233D01*
X1455328Y1194247D01*
X1455231Y1194275D01*
X1455176Y1194303D01*
X1455148Y1194331D01*
X1455134D01*
X1454954Y1194427D01*
X1454787Y1194497D01*
X1454718Y1194511D01*
X1454663Y1194525D01*
X1454607D01*
X1454399Y1194566D01*
X1454316Y1194594D01*
X1454233Y1194636D01*
X1454177Y1194663D01*
X1454136Y1194691D01*
X1454108Y1194719D01*
X1454094D01*
X1454025Y1194802D01*
X1453941Y1194913D01*
X1453886Y1195052D01*
X1453831Y1195190D01*
X1453789Y1195315D01*
X1453747Y1195426D01*
X1453734Y1195495D01*
X1453720Y1195523D01*
X1453678Y1195676D01*
X1453650Y1195800D01*
X1453609Y1195911D01*
X1453581Y1196009D01*
X1453553Y1196092D01*
X1453539Y1196161D01*
X1453498Y1196258D01*
X1453470Y1196328D01*
X1453456Y1196355D01*
X1453442Y1196369D01*
X1453428Y1196397D01*
X1453414Y1196466D01*
X1453401Y1196591D01*
X1453387Y1196744D01*
X1453373Y1196910D01*
X1453359Y1197118D01*
X1453331Y1197548D01*
X1453317Y1197978D01*
X1453304Y1198186D01*
X1453290Y1198352D01*
Y1198505D01*
X1453276Y1198630D01*
Y1198699D01*
Y1198727D01*
X1453262Y1199157D01*
X1453234Y1199573D01*
X1453220Y1199975D01*
X1453206Y1200363D01*
Y1200724D01*
X1453193Y1201057D01*
X1453179Y1201362D01*
Y1201653D01*
Y1201903D01*
X1453165Y1202138D01*
Y1202333D01*
Y1202499D01*
Y1202624D01*
Y1202721D01*
Y1202790D01*
Y1202804D01*
Y1205314D01*
X1455328Y1205370D01*
X1455717Y1205384D01*
X1456604D01*
X1456826Y1205370D01*
D02*
G37*
G36*
X1449268Y1197312D02*
X1449337Y1197284D01*
X1449406Y1197229D01*
X1449476Y1197160D01*
X1449615Y1197007D01*
X1449725Y1196854D01*
X1449767Y1196799D01*
X1449809Y1196744D01*
X1449823Y1196716D01*
X1449836Y1196702D01*
X1449933Y1196563D01*
X1450017Y1196439D01*
X1450141Y1196230D01*
X1450239Y1196064D01*
X1450294Y1195939D01*
X1450336Y1195856D01*
X1450350Y1195800D01*
X1450363Y1195787D01*
Y1195773D01*
X1450391Y1195703D01*
X1450447Y1195606D01*
X1450530Y1195495D01*
X1450613Y1195371D01*
X1450710Y1195260D01*
X1450793Y1195163D01*
X1450849Y1195107D01*
X1450877Y1195079D01*
X1451001Y1194941D01*
X1451098Y1194816D01*
X1451182Y1194733D01*
X1451223Y1194663D01*
X1451265Y1194608D01*
X1451279Y1194580D01*
X1451293Y1194552D01*
Y1194511D01*
X1451265Y1194455D01*
X1451223Y1194400D01*
X1451168Y1194344D01*
X1451057Y1194261D01*
X1451029Y1194233D01*
X1451015Y1194220D01*
X1450849Y1194136D01*
X1450655Y1194067D01*
X1450461Y1194025D01*
X1450253Y1194012D01*
X1450072Y1193998D01*
X1449781D01*
X1448893Y1194053D01*
Y1195690D01*
Y1195884D01*
Y1196050D01*
X1448907Y1196203D01*
Y1196355D01*
X1448921Y1196605D01*
X1448935Y1196799D01*
X1448949Y1196938D01*
X1448963Y1197035D01*
X1448977Y1197104D01*
Y1197118D01*
X1449018Y1197229D01*
X1449074Y1197298D01*
X1449129Y1197326D01*
X1449198Y1197340D01*
X1449268Y1197312D01*
D02*
G37*
G36*
X1546313Y1205265D02*
X1546340Y1205238D01*
Y1205210D01*
Y1205154D01*
Y1205140D01*
Y1205126D01*
X1546271Y1205016D01*
X1546188Y1204932D01*
X1546119Y1204863D01*
X1546105Y1204849D01*
X1546091D01*
X1545994Y1204808D01*
X1545911Y1204794D01*
X1545855Y1204808D01*
X1545827Y1204835D01*
X1545800Y1204863D01*
X1545786Y1204891D01*
Y1204919D01*
Y1204932D01*
X1545800Y1205002D01*
X1545813Y1205016D01*
X1545869Y1205099D01*
X1545938Y1205168D01*
X1546008Y1205210D01*
X1546077Y1205251D01*
X1546133Y1205265D01*
X1546188Y1205279D01*
X1546216Y1205293D01*
X1546285D01*
X1546313Y1205265D01*
D02*
G37*
G36*
X1535371Y1205917D02*
X1535385Y1205875D01*
X1535371Y1205820D01*
X1535343Y1205764D01*
X1535315Y1205709D01*
X1535301Y1205654D01*
X1535273Y1205612D01*
Y1205598D01*
X1535190Y1205390D01*
X1535149Y1205321D01*
X1535121Y1205251D01*
X1535107Y1205196D01*
X1535093Y1205154D01*
X1535079Y1205140D01*
Y1205126D01*
X1535024Y1205016D01*
X1534968Y1204932D01*
X1534913Y1204877D01*
X1534844Y1204835D01*
X1534788Y1204808D01*
X1534733Y1204794D01*
X1534691D01*
X1534594Y1204808D01*
X1534525Y1204849D01*
X1534483Y1204905D01*
X1534455Y1204960D01*
X1534441Y1205016D01*
Y1205071D01*
Y1205113D01*
Y1205126D01*
X1534483Y1205238D01*
X1534566Y1205348D01*
X1534649Y1205459D01*
X1534747Y1205543D01*
X1534844Y1205626D01*
X1534927Y1205681D01*
X1534968Y1205723D01*
X1534996Y1205737D01*
X1535093Y1205806D01*
X1535163Y1205848D01*
X1535232Y1205889D01*
X1535273Y1205903D01*
X1535343Y1205931D01*
X1535357D01*
X1535371Y1205917D01*
D02*
G37*
G36*
X1524775D02*
X1524789Y1205875D01*
X1524775Y1205820D01*
X1524747Y1205764D01*
X1524720Y1205709D01*
X1524706Y1205654D01*
X1524678Y1205612D01*
Y1205598D01*
X1524595Y1205390D01*
X1524553Y1205321D01*
X1524525Y1205251D01*
X1524512Y1205196D01*
X1524498Y1205154D01*
X1524484Y1205140D01*
Y1205126D01*
X1524428Y1205016D01*
X1524373Y1204932D01*
X1524317Y1204877D01*
X1524248Y1204835D01*
X1524193Y1204808D01*
X1524137Y1204794D01*
X1524096D01*
X1523999Y1204808D01*
X1523929Y1204849D01*
X1523888Y1204905D01*
X1523860Y1204960D01*
X1523846Y1205016D01*
Y1205071D01*
Y1205113D01*
Y1205126D01*
X1523888Y1205238D01*
X1523971Y1205348D01*
X1524054Y1205459D01*
X1524151Y1205543D01*
X1524248Y1205626D01*
X1524331Y1205681D01*
X1524373Y1205723D01*
X1524401Y1205737D01*
X1524498Y1205806D01*
X1524567Y1205848D01*
X1524636Y1205889D01*
X1524678Y1205903D01*
X1524747Y1205931D01*
X1524761D01*
X1524775Y1205917D01*
D02*
G37*
G36*
X1512155Y1206458D02*
X1512210Y1206444D01*
X1512238Y1206430D01*
X1512307Y1206333D01*
X1512349Y1206236D01*
X1512377Y1206125D01*
X1512391Y1206028D01*
Y1205931D01*
Y1205848D01*
X1512377Y1205792D01*
Y1205778D01*
X1512335Y1205626D01*
X1512280Y1205487D01*
X1512210Y1205362D01*
X1512155Y1205265D01*
X1512086Y1205182D01*
X1512030Y1205126D01*
X1512002Y1205085D01*
X1511989Y1205071D01*
X1511850Y1204932D01*
X1511739Y1204766D01*
X1511656Y1204613D01*
X1511572Y1204461D01*
X1511531Y1204336D01*
X1511489Y1204225D01*
X1511461Y1204156D01*
Y1204128D01*
X1511420Y1204003D01*
X1511392Y1203906D01*
X1511351Y1203823D01*
X1511323Y1203754D01*
X1511281Y1203698D01*
X1511240Y1203656D01*
X1511170Y1203615D01*
X1511087Y1203629D01*
X1511018Y1203670D01*
X1510934Y1203740D01*
X1510865Y1203837D01*
X1510796Y1203948D01*
X1510740Y1204072D01*
X1510643Y1204308D01*
X1510602Y1204419D01*
X1510574Y1204502D01*
X1510546Y1204558D01*
Y1204572D01*
X1510491Y1204752D01*
X1510449Y1204932D01*
X1510408Y1205085D01*
X1510380Y1205224D01*
X1510338Y1205473D01*
X1510324Y1205654D01*
X1510310Y1205806D01*
Y1205903D01*
X1510324Y1205959D01*
Y1205973D01*
X1510380Y1206097D01*
X1510463Y1206194D01*
X1510574Y1206250D01*
X1510685Y1206305D01*
X1510796Y1206333D01*
X1510893Y1206347D01*
X1510990D01*
X1511226Y1206361D01*
X1511337D01*
X1511434Y1206375D01*
X1511517Y1206389D01*
X1511572D01*
X1511614Y1206402D01*
X1511628D01*
X1511725Y1206416D01*
X1511822Y1206444D01*
X1511877D01*
X1511933Y1206458D01*
X1511975Y1206472D01*
X1512086D01*
X1512155Y1206458D01*
D02*
G37*
G36*
X1510504Y1203018D02*
X1510546Y1203005D01*
X1510602Y1202935D01*
X1510629Y1202866D01*
Y1202852D01*
Y1202838D01*
Y1202783D01*
X1510602Y1202755D01*
X1510588Y1202727D01*
X1510491D01*
X1510408Y1202755D01*
X1510352Y1202797D01*
X1510296Y1202838D01*
X1510269Y1202866D01*
X1510241Y1202922D01*
Y1202949D01*
X1510255Y1202977D01*
X1510269Y1203005D01*
X1510338Y1203018D01*
X1510408Y1203032D01*
X1510435D01*
X1510504Y1203018D01*
D02*
G37*
G36*
X1519561Y1206056D02*
X1519602Y1206028D01*
X1519616Y1206014D01*
X1519630D01*
X1519658Y1205973D01*
X1519672Y1205903D01*
X1519699Y1205806D01*
X1519713Y1205695D01*
X1519727Y1205556D01*
X1519741Y1205418D01*
X1519755Y1205099D01*
Y1204794D01*
X1519769Y1204655D01*
Y1204530D01*
Y1204419D01*
Y1204336D01*
Y1204281D01*
Y1204267D01*
Y1204100D01*
Y1203934D01*
X1519755Y1203656D01*
Y1203435D01*
X1519741Y1203254D01*
X1519727Y1203116D01*
Y1203018D01*
X1519713Y1202963D01*
Y1202949D01*
X1519685Y1202824D01*
X1519644Y1202727D01*
X1519616Y1202644D01*
X1519561Y1202589D01*
X1519533Y1202547D01*
X1519491Y1202519D01*
X1519477Y1202505D01*
X1519464D01*
X1519353Y1202478D01*
X1519242D01*
X1519145Y1202505D01*
X1519061Y1202547D01*
X1518978Y1202575D01*
X1518923Y1202616D01*
X1518895Y1202644D01*
X1518881Y1202658D01*
X1518784Y1202769D01*
X1518715Y1202866D01*
X1518673Y1202977D01*
X1518631Y1203088D01*
X1518618Y1203171D01*
X1518604Y1203240D01*
Y1203296D01*
Y1203310D01*
X1518590Y1203546D01*
X1518562Y1203670D01*
X1518534Y1203767D01*
X1518521Y1203865D01*
X1518493Y1203934D01*
X1518479Y1203989D01*
Y1204003D01*
X1518437Y1204142D01*
X1518396Y1204281D01*
X1518354Y1204391D01*
X1518313Y1204489D01*
X1518285Y1204558D01*
X1518257Y1204627D01*
X1518243Y1204655D01*
Y1204669D01*
X1518174Y1204863D01*
X1518132Y1205057D01*
X1518118Y1205126D01*
X1518104Y1205182D01*
Y1205224D01*
Y1205238D01*
Y1205348D01*
X1518118Y1205432D01*
X1518132Y1205501D01*
X1518160Y1205556D01*
X1518188Y1205598D01*
X1518215Y1205626D01*
X1518229Y1205654D01*
X1518243D01*
X1518340Y1205737D01*
X1518465Y1205806D01*
X1518715Y1205917D01*
X1518826Y1205959D01*
X1518909Y1205986D01*
X1518964Y1206014D01*
X1518992D01*
X1519158Y1206056D01*
X1519297Y1206070D01*
X1519491D01*
X1519561Y1206056D01*
D02*
G37*
G36*
X1514249Y1206416D02*
X1514540Y1206402D01*
X1514818Y1206375D01*
X1514942D01*
X1515053Y1206361D01*
X1515150D01*
X1515220Y1206347D01*
X1515289D01*
X1516759Y1206236D01*
X1516842Y1196029D01*
X1517342Y1195835D01*
X1517466Y1195779D01*
X1517564Y1195724D01*
X1517647Y1195668D01*
X1517702Y1195599D01*
X1517730Y1195544D01*
X1517744Y1195474D01*
Y1195419D01*
X1517730Y1195363D01*
X1517688Y1195252D01*
X1517619Y1195169D01*
X1517577Y1195114D01*
X1517550Y1195086D01*
X1517494Y1195058D01*
X1517439Y1195030D01*
X1517355Y1195003D01*
X1517258Y1194975D01*
X1517050Y1194947D01*
X1516828Y1194933D01*
X1516274D01*
X1515872Y1194961D01*
X1515456Y1195003D01*
X1515053Y1195044D01*
X1514693Y1195100D01*
X1514526Y1195114D01*
X1514374Y1195141D01*
X1514249Y1195169D01*
X1514138Y1195183D01*
X1514041Y1195197D01*
X1513972Y1195211D01*
X1513930Y1195225D01*
X1513916D01*
X1513764Y1195252D01*
X1513611Y1195266D01*
X1513361Y1195280D01*
X1513167Y1195266D01*
X1513015Y1195238D01*
X1512904Y1195197D01*
X1512834Y1195155D01*
X1512793Y1195127D01*
X1512779Y1195114D01*
X1512724Y1195058D01*
X1512668Y1195016D01*
X1512599Y1194961D01*
X1512557Y1194933D01*
X1512516D01*
X1512488Y1194947D01*
X1512432Y1195003D01*
X1512391Y1195058D01*
X1512377Y1195086D01*
X1512294Y1195225D01*
X1512238Y1195335D01*
X1512210Y1195446D01*
X1512197Y1195530D01*
Y1195585D01*
Y1195627D01*
X1512210Y1195654D01*
Y1195668D01*
X1512252Y1195724D01*
X1512321Y1195765D01*
X1512391Y1195793D01*
X1512612D01*
X1512654Y1195779D01*
X1512668D01*
X1512793Y1195751D01*
X1513015D01*
X1513056Y1195765D01*
X1513084Y1195779D01*
X1513098Y1195793D01*
X1513126Y1195849D01*
X1513139Y1195932D01*
X1513153Y1196043D01*
Y1196154D01*
X1513167Y1196265D01*
Y1196362D01*
Y1196417D01*
Y1196445D01*
Y1196584D01*
X1513181Y1196695D01*
X1513195Y1196805D01*
X1513209Y1196889D01*
X1513250Y1197027D01*
X1513292Y1197111D01*
X1513334Y1197166D01*
X1513375Y1197194D01*
X1513403Y1197208D01*
X1513417D01*
X1513486Y1197222D01*
X1513542Y1197277D01*
X1513583Y1197346D01*
X1513611Y1197416D01*
X1513639Y1197499D01*
X1513653Y1197554D01*
Y1197610D01*
Y1197624D01*
Y1197929D01*
X1513639Y1198067D01*
Y1198192D01*
X1513625Y1198303D01*
Y1198387D01*
X1513611Y1198442D01*
Y1198456D01*
X1513597Y1198595D01*
X1513569Y1198692D01*
X1513556Y1198775D01*
X1513542Y1198816D01*
Y1198844D01*
X1513528Y1198872D01*
Y1198886D01*
X1513514Y1198927D01*
Y1198983D01*
X1513500Y1199066D01*
Y1199163D01*
X1513486Y1199274D01*
X1513472Y1199510D01*
X1513459Y1199732D01*
Y1199843D01*
Y1199940D01*
X1513445Y1200023D01*
Y1200078D01*
Y1200120D01*
Y1200134D01*
Y1200314D01*
X1513431Y1200522D01*
X1513417Y1200758D01*
X1513403Y1200980D01*
Y1201188D01*
X1513389Y1201354D01*
X1513375Y1201410D01*
Y1201465D01*
Y1201493D01*
Y1201507D01*
X1513348Y1201854D01*
X1513334Y1202186D01*
X1513320Y1202478D01*
X1513306Y1202727D01*
X1513292Y1202935D01*
Y1203018D01*
X1513278Y1203088D01*
Y1203143D01*
Y1203185D01*
Y1203199D01*
Y1203213D01*
X1513264Y1203490D01*
Y1203754D01*
X1513250Y1204017D01*
Y1204239D01*
Y1204447D01*
Y1204586D01*
Y1204655D01*
Y1204697D01*
Y1204710D01*
Y1204724D01*
Y1205002D01*
X1513264Y1205251D01*
X1513278Y1205459D01*
X1513292Y1205640D01*
X1513320Y1205778D01*
X1513334Y1205875D01*
X1513348Y1205945D01*
Y1205959D01*
X1513389Y1206111D01*
X1513431Y1206222D01*
X1513486Y1206305D01*
X1513528Y1206361D01*
X1513569Y1206402D01*
X1513611Y1206416D01*
X1513625Y1206430D01*
X1513972D01*
X1514249Y1206416D01*
D02*
G37*
G36*
X1547422Y1196029D02*
X1547464Y1195973D01*
X1547505Y1195904D01*
X1547519Y1195807D01*
X1547533Y1195710D01*
X1547547Y1195641D01*
Y1195585D01*
Y1195557D01*
X1547533Y1195391D01*
X1547519Y1195266D01*
X1547492Y1195183D01*
X1547450Y1195127D01*
X1547408Y1195086D01*
X1547381Y1195072D01*
X1547367Y1195058D01*
X1547353D01*
X1547283Y1195086D01*
X1547242Y1195141D01*
X1547200Y1195211D01*
X1547186Y1195308D01*
X1547173Y1195405D01*
X1547159Y1195474D01*
Y1195530D01*
Y1195557D01*
X1547173Y1195724D01*
X1547186Y1195849D01*
X1547214Y1195932D01*
X1547256Y1196001D01*
X1547297Y1196029D01*
X1547325Y1196043D01*
X1547339Y1196057D01*
X1547353D01*
X1547422Y1196029D01*
D02*
G37*
G36*
X1534358Y1206111D02*
X1534372Y1206084D01*
X1534400Y1205986D01*
X1534414Y1205889D01*
Y1205862D01*
Y1205848D01*
X1534400Y1205751D01*
X1534372Y1205667D01*
X1534344Y1205598D01*
X1534303Y1205556D01*
X1534220Y1205487D01*
X1534206Y1205459D01*
X1534192D01*
X1534150Y1205404D01*
X1534122Y1205321D01*
X1534109Y1205224D01*
Y1205099D01*
Y1204988D01*
Y1204905D01*
X1534122Y1204835D01*
Y1204808D01*
X1534150Y1204613D01*
X1534192Y1204433D01*
X1534233Y1204281D01*
X1534261Y1204170D01*
X1534303Y1204072D01*
X1534330Y1204003D01*
X1534344Y1203962D01*
X1534358Y1203948D01*
X1534372Y1203892D01*
X1534400Y1203823D01*
X1534414Y1203726D01*
X1534427Y1203615D01*
X1534455Y1203365D01*
X1534469Y1203088D01*
X1534483Y1202811D01*
Y1202700D01*
X1534497Y1202589D01*
Y1202492D01*
Y1202422D01*
Y1202381D01*
Y1202367D01*
X1534525Y1201701D01*
X1534539Y1201382D01*
X1534552Y1201077D01*
X1534566Y1200786D01*
X1534580Y1200522D01*
X1534594Y1200259D01*
X1534608Y1200037D01*
X1534622Y1199815D01*
X1534636Y1199635D01*
X1534649Y1199468D01*
Y1199330D01*
X1534663Y1199232D01*
X1534677Y1199149D01*
Y1199094D01*
Y1199080D01*
X1534705Y1198816D01*
X1534719Y1198581D01*
X1534747Y1198359D01*
X1534774Y1198151D01*
X1534788Y1197971D01*
X1534816Y1197804D01*
X1534830Y1197652D01*
X1534844Y1197513D01*
X1534871Y1197402D01*
X1534885Y1197305D01*
X1534899Y1197222D01*
Y1197152D01*
X1534913Y1197097D01*
X1534927Y1197055D01*
Y1197041D01*
Y1197027D01*
X1534968Y1196805D01*
X1535010Y1196598D01*
X1535052Y1196403D01*
X1535093Y1196237D01*
X1535121Y1196084D01*
X1535149Y1195987D01*
X1535163Y1195918D01*
Y1195890D01*
X1535204Y1195710D01*
X1535232Y1195585D01*
X1535260Y1195488D01*
X1535273Y1195419D01*
X1535301Y1195377D01*
Y1195349D01*
X1535315Y1195335D01*
X1535329Y1195322D01*
Y1195280D01*
Y1195183D01*
X1535315Y1195100D01*
X1535301Y1195072D01*
Y1195058D01*
X1535204Y1194975D01*
X1535093Y1194919D01*
X1534955Y1194878D01*
X1534594D01*
X1534525Y1194892D01*
X1534497D01*
X1534275Y1194947D01*
X1534053Y1195030D01*
X1533859Y1195114D01*
X1533692Y1195211D01*
X1533554Y1195294D01*
X1533443Y1195377D01*
X1533374Y1195433D01*
X1533346Y1195446D01*
X1533082Y1195641D01*
X1532847Y1195835D01*
X1532639Y1196029D01*
X1532431Y1196223D01*
X1532264Y1196403D01*
X1532098Y1196584D01*
X1531959Y1196736D01*
X1531834Y1196903D01*
X1531737Y1197041D01*
X1531654Y1197166D01*
X1531571Y1197277D01*
X1531515Y1197374D01*
X1531474Y1197457D01*
X1531446Y1197513D01*
X1531418Y1197541D01*
Y1197554D01*
X1531335Y1197762D01*
X1531252Y1197998D01*
X1531182Y1198234D01*
X1531127Y1198497D01*
X1531044Y1199011D01*
X1530974Y1199524D01*
X1530960Y1199760D01*
X1530947Y1199981D01*
X1530933Y1200175D01*
Y1200356D01*
X1530919Y1200495D01*
Y1200592D01*
Y1200661D01*
Y1200689D01*
Y1201063D01*
X1530947Y1201410D01*
X1530974Y1201743D01*
X1531002Y1202048D01*
X1531044Y1202325D01*
X1531099Y1202575D01*
X1531141Y1202811D01*
X1531196Y1203018D01*
X1531252Y1203199D01*
X1531293Y1203351D01*
X1531349Y1203490D01*
X1531390Y1203601D01*
X1531418Y1203684D01*
X1531446Y1203754D01*
X1531474Y1203781D01*
Y1203795D01*
X1531584Y1203989D01*
X1531709Y1204184D01*
X1531862Y1204364D01*
X1532014Y1204544D01*
X1532361Y1204863D01*
X1532694Y1205154D01*
X1532860Y1205265D01*
X1533013Y1205376D01*
X1533152Y1205473D01*
X1533263Y1205556D01*
X1533374Y1205626D01*
X1533443Y1205667D01*
X1533498Y1205695D01*
X1533512Y1205709D01*
X1533748Y1205848D01*
X1533928Y1205945D01*
X1534067Y1206028D01*
X1534178Y1206070D01*
X1534247Y1206097D01*
X1534303Y1206125D01*
X1534330D01*
X1534358Y1206111D01*
D02*
G37*
G36*
X1523763D02*
X1523777Y1206084D01*
X1523804Y1205986D01*
X1523818Y1205889D01*
Y1205862D01*
Y1205848D01*
X1523804Y1205751D01*
X1523777Y1205667D01*
X1523749Y1205598D01*
X1523707Y1205556D01*
X1523624Y1205487D01*
X1523610Y1205459D01*
X1523596D01*
X1523555Y1205404D01*
X1523527Y1205321D01*
X1523513Y1205224D01*
Y1205099D01*
Y1204988D01*
Y1204905D01*
X1523527Y1204835D01*
Y1204808D01*
X1523555Y1204613D01*
X1523596Y1204433D01*
X1523638Y1204281D01*
X1523666Y1204170D01*
X1523707Y1204072D01*
X1523735Y1204003D01*
X1523749Y1203962D01*
X1523763Y1203948D01*
X1523777Y1203892D01*
X1523804Y1203823D01*
X1523818Y1203726D01*
X1523832Y1203615D01*
X1523860Y1203365D01*
X1523874Y1203088D01*
X1523888Y1202811D01*
Y1202700D01*
X1523901Y1202589D01*
Y1202492D01*
Y1202422D01*
Y1202381D01*
Y1202367D01*
X1523929Y1201701D01*
X1523943Y1201382D01*
X1523957Y1201077D01*
X1523971Y1200786D01*
X1523985Y1200522D01*
X1523999Y1200259D01*
X1524012Y1200037D01*
X1524026Y1199815D01*
X1524040Y1199635D01*
X1524054Y1199468D01*
Y1199330D01*
X1524068Y1199232D01*
X1524082Y1199149D01*
Y1199094D01*
Y1199080D01*
X1524109Y1198816D01*
X1524123Y1198581D01*
X1524151Y1198359D01*
X1524179Y1198151D01*
X1524193Y1197971D01*
X1524220Y1197804D01*
X1524234Y1197652D01*
X1524248Y1197513D01*
X1524276Y1197402D01*
X1524290Y1197305D01*
X1524304Y1197222D01*
Y1197152D01*
X1524317Y1197097D01*
X1524331Y1197055D01*
Y1197041D01*
Y1197027D01*
X1524373Y1196805D01*
X1524415Y1196598D01*
X1524456Y1196403D01*
X1524498Y1196237D01*
X1524525Y1196084D01*
X1524553Y1195987D01*
X1524567Y1195918D01*
Y1195890D01*
X1524609Y1195710D01*
X1524636Y1195585D01*
X1524664Y1195488D01*
X1524678Y1195419D01*
X1524706Y1195377D01*
Y1195349D01*
X1524720Y1195335D01*
X1524733Y1195322D01*
Y1195280D01*
Y1195183D01*
X1524720Y1195100D01*
X1524706Y1195072D01*
Y1195058D01*
X1524609Y1194975D01*
X1524498Y1194919D01*
X1524359Y1194878D01*
X1523999D01*
X1523929Y1194892D01*
X1523901D01*
X1523680Y1194947D01*
X1523458Y1195030D01*
X1523264Y1195114D01*
X1523097Y1195211D01*
X1522958Y1195294D01*
X1522847Y1195377D01*
X1522778Y1195433D01*
X1522750Y1195446D01*
X1522487Y1195641D01*
X1522251Y1195835D01*
X1522043Y1196029D01*
X1521835Y1196223D01*
X1521669Y1196403D01*
X1521502Y1196584D01*
X1521364Y1196736D01*
X1521239Y1196903D01*
X1521142Y1197041D01*
X1521058Y1197166D01*
X1520975Y1197277D01*
X1520920Y1197374D01*
X1520878Y1197457D01*
X1520850Y1197513D01*
X1520823Y1197541D01*
Y1197554D01*
X1520739Y1197762D01*
X1520656Y1197998D01*
X1520587Y1198234D01*
X1520531Y1198497D01*
X1520448Y1199011D01*
X1520379Y1199524D01*
X1520365Y1199760D01*
X1520351Y1199981D01*
X1520337Y1200175D01*
Y1200356D01*
X1520323Y1200495D01*
Y1200592D01*
Y1200661D01*
Y1200689D01*
Y1201063D01*
X1520351Y1201410D01*
X1520379Y1201743D01*
X1520407Y1202048D01*
X1520448Y1202325D01*
X1520504Y1202575D01*
X1520545Y1202811D01*
X1520601Y1203018D01*
X1520656Y1203199D01*
X1520698Y1203351D01*
X1520753Y1203490D01*
X1520795Y1203601D01*
X1520823Y1203684D01*
X1520850Y1203754D01*
X1520878Y1203781D01*
Y1203795D01*
X1520989Y1203989D01*
X1521114Y1204184D01*
X1521266Y1204364D01*
X1521419Y1204544D01*
X1521766Y1204863D01*
X1522099Y1205154D01*
X1522265Y1205265D01*
X1522417Y1205376D01*
X1522556Y1205473D01*
X1522667Y1205556D01*
X1522778Y1205626D01*
X1522847Y1205667D01*
X1522903Y1205695D01*
X1522917Y1205709D01*
X1523152Y1205848D01*
X1523333Y1205945D01*
X1523472Y1206028D01*
X1523582Y1206070D01*
X1523652Y1206097D01*
X1523707Y1206125D01*
X1523735D01*
X1523763Y1206111D01*
D02*
G37*
G36*
X1537118Y1205903D02*
X1537340Y1205875D01*
X1537437Y1205848D01*
X1537534Y1205834D01*
X1537617Y1205820D01*
X1537673Y1205806D01*
X1537714Y1205792D01*
X1537728D01*
X1537936Y1205723D01*
X1538144Y1205654D01*
X1538519Y1205473D01*
X1538865Y1205279D01*
X1539157Y1205071D01*
X1539281Y1204974D01*
X1539392Y1204877D01*
X1539489Y1204794D01*
X1539559Y1204724D01*
X1539628Y1204655D01*
X1539670Y1204613D01*
X1539698Y1204586D01*
X1539711Y1204572D01*
X1540003Y1204225D01*
X1540238Y1203851D01*
X1540433Y1203490D01*
X1540571Y1203157D01*
X1540641Y1203005D01*
X1540682Y1202866D01*
X1540724Y1202741D01*
X1540765Y1202630D01*
X1540793Y1202547D01*
X1540807Y1202478D01*
X1540821Y1202436D01*
Y1202422D01*
X1540890Y1201978D01*
X1540932Y1201521D01*
X1540946Y1201063D01*
Y1200647D01*
Y1200453D01*
X1540932Y1200273D01*
Y1200106D01*
X1540918Y1199967D01*
Y1199857D01*
X1540904Y1199773D01*
Y1199718D01*
Y1199704D01*
X1540876Y1199413D01*
X1540835Y1199149D01*
X1540807Y1198913D01*
X1540765Y1198678D01*
X1540724Y1198470D01*
X1540682Y1198289D01*
X1540627Y1198123D01*
X1540585Y1197971D01*
X1540544Y1197846D01*
X1540502Y1197735D01*
X1540474Y1197638D01*
X1540433Y1197568D01*
X1540419Y1197499D01*
X1540391Y1197457D01*
X1540377Y1197443D01*
Y1197430D01*
X1540238Y1197194D01*
X1540086Y1196958D01*
X1539933Y1196736D01*
X1539781Y1196542D01*
X1539642Y1196376D01*
X1539531Y1196237D01*
X1539462Y1196154D01*
X1539434Y1196140D01*
Y1196126D01*
X1539323Y1196015D01*
X1539226Y1195918D01*
X1539046Y1195751D01*
X1538921Y1195641D01*
X1538810Y1195557D01*
X1538727Y1195516D01*
X1538685Y1195488D01*
X1538657Y1195474D01*
X1538643D01*
X1538560Y1195460D01*
X1538477Y1195433D01*
X1538325Y1195335D01*
X1538255Y1195280D01*
X1538200Y1195238D01*
X1538158Y1195211D01*
X1538144Y1195197D01*
X1538075Y1195141D01*
X1538006Y1195100D01*
X1537825Y1195016D01*
X1537742Y1194975D01*
X1537673Y1194961D01*
X1537631Y1194933D01*
X1537617D01*
X1537326Y1194864D01*
X1537201Y1194850D01*
X1537076Y1194836D01*
X1536979Y1194822D01*
X1536841D01*
X1536716Y1194836D01*
X1536605Y1194878D01*
X1536535Y1194933D01*
X1536466Y1194989D01*
X1536438Y1195044D01*
X1536411Y1195100D01*
X1536397Y1195127D01*
Y1195141D01*
X1536383Y1195266D01*
X1536397Y1195391D01*
X1536425Y1195502D01*
X1536480Y1195599D01*
X1536522Y1195682D01*
X1536577Y1195751D01*
X1536605Y1195793D01*
X1536619Y1195807D01*
X1536674Y1195876D01*
X1536730Y1195959D01*
X1536813Y1196154D01*
X1536882Y1196376D01*
X1536938Y1196598D01*
X1536979Y1196792D01*
X1537007Y1196972D01*
X1537021Y1197027D01*
X1537035Y1197083D01*
Y1197111D01*
Y1197124D01*
X1537049Y1197333D01*
X1537076Y1197596D01*
X1537090Y1197887D01*
X1537118Y1198192D01*
X1537132Y1198539D01*
X1537146Y1198886D01*
X1537173Y1199593D01*
X1537187Y1199926D01*
X1537201Y1200245D01*
Y1200536D01*
X1537215Y1200786D01*
Y1200994D01*
X1537229Y1201091D01*
Y1201160D01*
Y1201216D01*
Y1201257D01*
Y1201285D01*
Y1201299D01*
X1537243Y1201757D01*
Y1202173D01*
X1537257Y1202547D01*
Y1202880D01*
Y1203171D01*
Y1203421D01*
Y1203643D01*
Y1203837D01*
Y1203989D01*
Y1204128D01*
Y1204239D01*
X1537243Y1204322D01*
Y1204378D01*
Y1204419D01*
Y1204447D01*
X1537215Y1204655D01*
X1537173Y1204835D01*
X1537118Y1204974D01*
X1537063Y1205099D01*
X1537007Y1205182D01*
X1536965Y1205251D01*
X1536938Y1205279D01*
X1536924Y1205293D01*
X1536827Y1205390D01*
X1536744Y1205473D01*
X1536674Y1205556D01*
X1536633Y1205626D01*
X1536591Y1205667D01*
X1536577Y1205709D01*
X1536563Y1205723D01*
Y1205737D01*
Y1205792D01*
X1536591Y1205848D01*
X1536633Y1205875D01*
X1536716Y1205903D01*
X1536799D01*
X1536896Y1205917D01*
X1537118Y1205903D01*
D02*
G37*
G36*
X1526523D02*
X1526744Y1205875D01*
X1526841Y1205848D01*
X1526939Y1205834D01*
X1527022Y1205820D01*
X1527077Y1205806D01*
X1527119Y1205792D01*
X1527133D01*
X1527341Y1205723D01*
X1527549Y1205654D01*
X1527923Y1205473D01*
X1528270Y1205279D01*
X1528561Y1205071D01*
X1528686Y1204974D01*
X1528797Y1204877D01*
X1528894Y1204794D01*
X1528963Y1204724D01*
X1529033Y1204655D01*
X1529074Y1204613D01*
X1529102Y1204586D01*
X1529116Y1204572D01*
X1529407Y1204225D01*
X1529643Y1203851D01*
X1529837Y1203490D01*
X1529976Y1203157D01*
X1530045Y1203005D01*
X1530087Y1202866D01*
X1530128Y1202741D01*
X1530170Y1202630D01*
X1530198Y1202547D01*
X1530211Y1202478D01*
X1530225Y1202436D01*
Y1202422D01*
X1530295Y1201978D01*
X1530336Y1201521D01*
X1530350Y1201063D01*
Y1200647D01*
Y1200453D01*
X1530336Y1200273D01*
Y1200106D01*
X1530323Y1199967D01*
Y1199857D01*
X1530309Y1199773D01*
Y1199718D01*
Y1199704D01*
X1530281Y1199413D01*
X1530239Y1199149D01*
X1530211Y1198913D01*
X1530170Y1198678D01*
X1530128Y1198470D01*
X1530087Y1198289D01*
X1530031Y1198123D01*
X1529990Y1197971D01*
X1529948Y1197846D01*
X1529906Y1197735D01*
X1529879Y1197638D01*
X1529837Y1197568D01*
X1529823Y1197499D01*
X1529796Y1197457D01*
X1529782Y1197443D01*
Y1197430D01*
X1529643Y1197194D01*
X1529490Y1196958D01*
X1529338Y1196736D01*
X1529185Y1196542D01*
X1529047Y1196376D01*
X1528936Y1196237D01*
X1528866Y1196154D01*
X1528839Y1196140D01*
Y1196126D01*
X1528728Y1196015D01*
X1528631Y1195918D01*
X1528450Y1195751D01*
X1528325Y1195641D01*
X1528215Y1195557D01*
X1528131Y1195516D01*
X1528090Y1195488D01*
X1528062Y1195474D01*
X1528048D01*
X1527965Y1195460D01*
X1527882Y1195433D01*
X1527729Y1195335D01*
X1527660Y1195280D01*
X1527604Y1195238D01*
X1527563Y1195211D01*
X1527549Y1195197D01*
X1527480Y1195141D01*
X1527410Y1195100D01*
X1527230Y1195016D01*
X1527147Y1194975D01*
X1527077Y1194961D01*
X1527036Y1194933D01*
X1527022D01*
X1526731Y1194864D01*
X1526606Y1194850D01*
X1526481Y1194836D01*
X1526384Y1194822D01*
X1526245D01*
X1526120Y1194836D01*
X1526009Y1194878D01*
X1525940Y1194933D01*
X1525871Y1194989D01*
X1525843Y1195044D01*
X1525815Y1195100D01*
X1525801Y1195127D01*
Y1195141D01*
X1525788Y1195266D01*
X1525801Y1195391D01*
X1525829Y1195502D01*
X1525885Y1195599D01*
X1525926Y1195682D01*
X1525982Y1195751D01*
X1526009Y1195793D01*
X1526023Y1195807D01*
X1526079Y1195876D01*
X1526134Y1195959D01*
X1526217Y1196154D01*
X1526287Y1196376D01*
X1526342Y1196598D01*
X1526384Y1196792D01*
X1526412Y1196972D01*
X1526425Y1197027D01*
X1526439Y1197083D01*
Y1197111D01*
Y1197124D01*
X1526453Y1197333D01*
X1526481Y1197596D01*
X1526495Y1197887D01*
X1526523Y1198192D01*
X1526536Y1198539D01*
X1526550Y1198886D01*
X1526578Y1199593D01*
X1526592Y1199926D01*
X1526606Y1200245D01*
Y1200536D01*
X1526620Y1200786D01*
Y1200994D01*
X1526633Y1201091D01*
Y1201160D01*
Y1201216D01*
Y1201257D01*
Y1201285D01*
Y1201299D01*
X1526647Y1201757D01*
Y1202173D01*
X1526661Y1202547D01*
Y1202880D01*
Y1203171D01*
Y1203421D01*
Y1203643D01*
Y1203837D01*
Y1203989D01*
Y1204128D01*
Y1204239D01*
X1526647Y1204322D01*
Y1204378D01*
Y1204419D01*
Y1204447D01*
X1526620Y1204655D01*
X1526578Y1204835D01*
X1526523Y1204974D01*
X1526467Y1205099D01*
X1526412Y1205182D01*
X1526370Y1205251D01*
X1526342Y1205279D01*
X1526328Y1205293D01*
X1526231Y1205390D01*
X1526148Y1205473D01*
X1526079Y1205556D01*
X1526037Y1205626D01*
X1525996Y1205667D01*
X1525982Y1205709D01*
X1525968Y1205723D01*
Y1205737D01*
Y1205792D01*
X1525996Y1205848D01*
X1526037Y1205875D01*
X1526120Y1205903D01*
X1526204D01*
X1526301Y1205917D01*
X1526523Y1205903D01*
D02*
G37*
G36*
X1550986Y1205917D02*
X1551181D01*
X1551250Y1205903D01*
X1551264D01*
X1551402Y1205875D01*
X1551513Y1205848D01*
X1551597Y1205806D01*
X1551652Y1205764D01*
X1551708Y1205723D01*
X1551735Y1205681D01*
X1551749Y1205667D01*
Y1205654D01*
X1551763Y1205584D01*
X1551777Y1205529D01*
X1551749Y1205404D01*
X1551694Y1205279D01*
X1551611Y1205168D01*
X1551513Y1205071D01*
X1551444Y1205002D01*
X1551389Y1204946D01*
X1551361Y1204932D01*
X1550834Y1204544D01*
Y1200106D01*
Y1199593D01*
Y1199121D01*
Y1198692D01*
X1550848Y1198317D01*
Y1197971D01*
Y1197665D01*
X1550862Y1197402D01*
Y1197166D01*
Y1196972D01*
X1550876Y1196805D01*
Y1196667D01*
Y1196570D01*
X1550889Y1196487D01*
Y1196431D01*
Y1196403D01*
Y1196389D01*
X1550903Y1196237D01*
X1550917Y1196112D01*
X1550959Y1195876D01*
X1551000Y1195696D01*
X1551042Y1195571D01*
X1551097Y1195474D01*
X1551125Y1195405D01*
X1551153Y1195377D01*
X1551167Y1195363D01*
X1551264Y1195252D01*
X1551319Y1195169D01*
X1551361Y1195100D01*
X1551375Y1195044D01*
Y1195003D01*
Y1194975D01*
X1551361Y1194947D01*
X1551319Y1194919D01*
X1551264Y1194878D01*
X1551125Y1194836D01*
X1550959Y1194795D01*
X1550778Y1194767D01*
X1550612Y1194739D01*
X1550473D01*
X1550432Y1194725D01*
X1549946D01*
X1549849Y1194739D01*
X1549683Y1194753D01*
X1549558Y1194781D01*
X1549489Y1194809D01*
X1549433Y1194836D01*
X1549405Y1194864D01*
X1549336Y1194933D01*
X1549239Y1194975D01*
X1549114Y1195016D01*
X1548989Y1195030D01*
X1548878Y1195044D01*
X1548781Y1195058D01*
X1548684D01*
X1548518Y1195072D01*
X1548379Y1195100D01*
X1548268Y1195141D01*
X1548185Y1195183D01*
X1548129Y1195225D01*
X1548074Y1195266D01*
X1548060Y1195294D01*
X1548046Y1195308D01*
X1547991Y1195419D01*
X1547949Y1195557D01*
X1547908Y1195710D01*
X1547880Y1195876D01*
X1547866Y1196015D01*
X1547852Y1196140D01*
Y1196223D01*
Y1196237D01*
Y1196251D01*
X1547838Y1196389D01*
X1547811Y1196514D01*
X1547769Y1196625D01*
X1547741Y1196722D01*
X1547700Y1196792D01*
X1547672Y1196847D01*
X1547658Y1196875D01*
X1547644Y1196889D01*
X1547575Y1196972D01*
X1547533Y1197027D01*
X1547492Y1197069D01*
X1547450Y1197097D01*
X1547408Y1197138D01*
X1547395D01*
X1547381Y1197152D01*
Y1197194D01*
X1547422Y1197291D01*
X1547464Y1197388D01*
X1547478Y1197416D01*
X1547492Y1197430D01*
X1547519Y1197457D01*
X1547547Y1197485D01*
X1547589Y1197596D01*
X1547603Y1197749D01*
X1547616Y1197901D01*
X1547630Y1198054D01*
Y1198178D01*
Y1198234D01*
Y1198276D01*
Y1198289D01*
Y1198303D01*
X1547616Y1198608D01*
X1547603Y1198886D01*
X1547575Y1199163D01*
X1547561Y1199399D01*
X1547533Y1199607D01*
Y1199690D01*
X1547519Y1199760D01*
Y1199815D01*
X1547505Y1199857D01*
Y1199884D01*
Y1199898D01*
X1547464Y1200217D01*
X1547436Y1200550D01*
X1547395Y1200883D01*
X1547367Y1201202D01*
X1547353Y1201354D01*
Y1201493D01*
X1547339Y1201618D01*
X1547325Y1201715D01*
Y1201798D01*
X1547311Y1201868D01*
Y1201909D01*
Y1201923D01*
X1547283Y1202381D01*
X1547256Y1202797D01*
X1547242Y1203157D01*
X1547228Y1203324D01*
Y1203476D01*
Y1203615D01*
X1547214Y1203740D01*
Y1203851D01*
Y1203934D01*
Y1204003D01*
Y1204059D01*
Y1204086D01*
Y1204100D01*
X1547242Y1205848D01*
X1549433Y1205903D01*
X1549683Y1205917D01*
X1549919D01*
X1550127Y1205931D01*
X1550889D01*
X1550986Y1205917D01*
D02*
G37*
G36*
X1544232Y1205723D02*
X1544246Y1205695D01*
Y1205681D01*
X1544260Y1205584D01*
X1544316Y1205501D01*
X1544385Y1205445D01*
X1544454Y1205418D01*
X1544538Y1205390D01*
X1544607Y1205376D01*
X1544829D01*
X1544967Y1205348D01*
X1545065Y1205335D01*
X1545134Y1205307D01*
X1545189Y1205279D01*
X1545217Y1205251D01*
X1545245Y1205238D01*
Y1205224D01*
X1545273Y1205154D01*
X1545259Y1205071D01*
X1545245Y1204974D01*
X1545203Y1204877D01*
X1545162Y1204794D01*
X1545134Y1204724D01*
X1545106Y1204669D01*
X1545092Y1204655D01*
X1545009Y1204502D01*
X1544954Y1204378D01*
X1544912Y1204267D01*
X1544898Y1204184D01*
Y1204128D01*
X1544912Y1204072D01*
X1544926Y1204059D01*
Y1204045D01*
X1545009Y1203934D01*
X1545065Y1203837D01*
X1545120Y1203767D01*
X1545134Y1203754D01*
Y1203740D01*
X1545162Y1203684D01*
Y1203629D01*
X1545148Y1203573D01*
X1545134Y1203518D01*
X1545092Y1203448D01*
X1545065Y1203435D01*
Y1203421D01*
X1545023Y1203310D01*
X1544995Y1203185D01*
X1544954Y1202908D01*
Y1202783D01*
X1544940Y1202672D01*
Y1202602D01*
Y1202589D01*
Y1202575D01*
Y1202353D01*
X1544981Y1202131D01*
X1545023Y1201923D01*
X1545065Y1201729D01*
X1545120Y1201576D01*
X1545162Y1201451D01*
X1545189Y1201368D01*
X1545203Y1201354D01*
Y1201340D01*
X1545259Y1201229D01*
X1545314Y1201132D01*
X1545439Y1200980D01*
X1545550Y1200869D01*
X1545661Y1200800D01*
X1545772Y1200744D01*
X1545855Y1200730D01*
X1545911Y1200716D01*
X1545924D01*
X1545994Y1200703D01*
X1546049Y1200661D01*
X1546077Y1200605D01*
X1546091Y1200550D01*
Y1200467D01*
X1546077Y1200384D01*
X1546022Y1200189D01*
X1545952Y1200009D01*
X1545869Y1199843D01*
X1545841Y1199787D01*
X1545813Y1199732D01*
X1545786Y1199704D01*
Y1199690D01*
X1545716Y1199565D01*
X1545661Y1199413D01*
X1545564Y1199080D01*
X1545495Y1198733D01*
X1545439Y1198373D01*
X1545425Y1198206D01*
X1545411Y1198054D01*
Y1197915D01*
X1545397Y1197790D01*
Y1197679D01*
Y1197610D01*
Y1197554D01*
Y1197541D01*
Y1197346D01*
Y1197166D01*
X1545411Y1197000D01*
Y1196861D01*
Y1196736D01*
X1545425Y1196625D01*
Y1196528D01*
X1545439Y1196431D01*
X1545453Y1196306D01*
X1545467Y1196223D01*
X1545481Y1196168D01*
Y1196154D01*
X1545522Y1196043D01*
X1545592Y1195932D01*
X1545689Y1195807D01*
X1545772Y1195710D01*
X1545869Y1195613D01*
X1545938Y1195544D01*
X1545994Y1195488D01*
X1546008Y1195474D01*
X1546119Y1195377D01*
X1546202Y1195280D01*
X1546285Y1195197D01*
X1546340Y1195114D01*
X1546424Y1194989D01*
X1546479Y1194878D01*
X1546493Y1194795D01*
X1546507Y1194739D01*
X1546493Y1194711D01*
Y1194697D01*
X1546451Y1194656D01*
X1546396Y1194628D01*
X1546313Y1194600D01*
X1546216Y1194573D01*
X1545980Y1194531D01*
X1545716Y1194503D01*
X1545467Y1194490D01*
X1545356D01*
X1545245Y1194476D01*
X1544746D01*
X1544482Y1194490D01*
X1544274Y1194503D01*
X1544108Y1194531D01*
X1543983Y1194545D01*
X1543886Y1194559D01*
X1543830Y1194573D01*
X1543816D01*
X1543678Y1194628D01*
X1543525Y1194684D01*
X1543373Y1194767D01*
X1543234Y1194850D01*
X1543123Y1194933D01*
X1543026Y1195003D01*
X1542970Y1195044D01*
X1542943Y1195058D01*
X1542652Y1195280D01*
X1542416Y1195488D01*
X1542222Y1195668D01*
X1542069Y1195835D01*
X1541958Y1195959D01*
X1541875Y1196057D01*
X1541833Y1196112D01*
X1541819Y1196140D01*
X1541722Y1196334D01*
X1541639Y1196542D01*
X1541584Y1196750D01*
X1541556Y1196958D01*
X1541528Y1197124D01*
X1541514Y1197277D01*
Y1197333D01*
Y1197374D01*
Y1197388D01*
Y1197402D01*
X1541528Y1197721D01*
X1541584Y1198026D01*
X1541667Y1198303D01*
X1541750Y1198539D01*
X1541847Y1198733D01*
X1541917Y1198886D01*
X1541958Y1198941D01*
X1541972Y1198983D01*
X1542000Y1198997D01*
Y1199011D01*
X1542124Y1199177D01*
X1542249Y1199316D01*
X1542374Y1199441D01*
X1542471Y1199524D01*
X1542554Y1199593D01*
X1542610Y1199635D01*
X1542652Y1199662D01*
X1542665Y1199676D01*
X1542804Y1199746D01*
X1542957Y1199801D01*
X1543137Y1199843D01*
X1543317Y1199884D01*
X1543484Y1199926D01*
X1543622Y1199954D01*
X1543678D01*
X1543719Y1199967D01*
X1543747D01*
X1543872Y1200009D01*
X1543969Y1200065D01*
X1544038Y1200134D01*
X1544080Y1200217D01*
X1544108Y1200286D01*
X1544135Y1200356D01*
Y1200397D01*
Y1200411D01*
X1544108Y1200536D01*
X1544038Y1200647D01*
X1543955Y1200716D01*
X1543844Y1200786D01*
X1543733Y1200814D01*
X1543650Y1200841D01*
X1543581Y1200855D01*
X1543553D01*
X1543387Y1200883D01*
X1543234Y1200924D01*
X1542943Y1201049D01*
X1542707Y1201188D01*
X1542499Y1201354D01*
X1542346Y1201507D01*
X1542235Y1201646D01*
X1542194Y1201701D01*
X1542166Y1201743D01*
X1542138Y1201757D01*
Y1201770D01*
X1542055Y1201923D01*
X1541986Y1202076D01*
X1541917Y1202242D01*
X1541875Y1202394D01*
X1541833Y1202686D01*
X1541819Y1202963D01*
Y1203185D01*
X1541833Y1203282D01*
X1541847Y1203365D01*
X1541861Y1203435D01*
Y1203490D01*
X1541875Y1203518D01*
Y1203532D01*
X1541917Y1203670D01*
X1541986Y1203823D01*
X1542069Y1203962D01*
X1542166Y1204100D01*
X1542374Y1204378D01*
X1542596Y1204627D01*
X1542804Y1204835D01*
X1542901Y1204919D01*
X1542998Y1205002D01*
X1543068Y1205057D01*
X1543123Y1205099D01*
X1543151Y1205126D01*
X1543165Y1205140D01*
X1543359Y1205293D01*
X1543525Y1205404D01*
X1543664Y1205501D01*
X1543789Y1205584D01*
X1543900Y1205640D01*
X1543983Y1205681D01*
X1544052Y1205709D01*
X1544108Y1205723D01*
X1544191Y1205737D01*
X1544232Y1205723D01*
D02*
G37*
D131*
X1992339Y1056778D02*
G03*
X1992339Y1056778I-1250J0D01*
G01*
M02*
