G04*
G04 #@! TF.GenerationSoftware,Altium Limited,Altium Designer,20.1.14 (287)*
G04*
G04 Layer_Color=8388736*
%FSLAX44Y44*%
%MOMM*%
G71*
G04*
G04 #@! TF.SameCoordinates,99A645DD-A7E4-4CA2-B257-33081834DCFA*
G04*
G04*
G04 #@! TF.FilePolarity,Negative*
G04*
G01*
G75*
%ADD30R,0.8000X1.0500*%
%ADD37R,1.4000X1.2000*%
%ADD38R,1.2500X0.8000*%
%ADD39R,0.6500X0.6500*%
%ADD40R,1.1000X2.2000*%
%ADD41R,1.1000X1.6000*%
%ADD42R,1.2000X0.9000*%
%ADD43R,0.8000X0.9000*%
%ADD44R,0.7200X0.7600*%
%ADD45C,1.2000*%
%ADD46R,2.2000X2.3800*%
%ADD47R,1.3500X0.5000*%
%ADD48R,2.9500X1.6700*%
%ADD49R,2.9500X0.4500*%
%ADD50R,0.6000X0.6100*%
%ADD51R,0.6000X0.7500*%
%ADD52R,0.8000X1.1000*%
%ADD53R,0.8500X1.7500*%
%ADD54R,0.8700X0.6200*%
%ADD55R,0.8500X0.8500*%
%ADD56R,1.5300X1.5300*%
%ADD57R,0.9500X1.0500*%
%ADD58R,1.1000X1.2000*%
%ADD59R,0.7600X0.7200*%
%ADD60R,0.6500X0.6500*%
%ADD61R,0.8500X0.8500*%
%ADD62C,0.9500*%
%ADD63R,1.7750X1.7750*%
%ADD64C,1.7750*%
%ADD65C,0.8500*%
%ADD66C,0.5250*%
%ADD67R,1.7000X1.7000*%
%ADD68C,1.7000*%
%ADD69C,5.3600*%
%ADD70C,2.0000*%
%ADD71R,2.0000X2.0000*%
%ADD72C,1.8500*%
%ADD73R,1.8500X1.8500*%
%ADD74C,2.1500*%
%ADD75C,1.7400*%
%ADD76C,2.2000*%
G36*
X1468904Y926727D02*
X1469163Y926625D01*
X1469436Y926470D01*
X1469845Y926236D01*
X1470255Y926003D01*
X1470694Y925663D01*
X1471079Y925308D01*
X1471411Y924938D01*
X1471426Y924884D01*
X1471509Y924792D01*
X1471675Y924607D01*
X1471802Y924354D01*
X1472163Y923877D01*
X1472471Y923385D01*
X1472485Y923332D01*
X1472422Y923141D01*
X1472350Y922776D01*
X1472263Y922464D01*
X1472175Y922152D01*
X1472190Y922099D01*
X1472166Y921977D01*
X1472088Y921840D01*
X1472040Y921597D01*
X1471904Y921041D01*
X1471837Y920446D01*
X1471851Y920393D01*
X1471827Y920271D01*
X1471818Y920096D01*
X1471730Y919784D01*
X1471673Y919365D01*
X1471576Y918877D01*
X1471440Y918322D01*
X1471280Y917644D01*
X1470408Y914525D01*
X1470369Y914457D01*
X1470345Y914335D01*
X1470199Y914237D01*
X1470145Y914222D01*
X1470023Y914247D01*
X1470038Y914193D01*
X1469960Y914056D01*
X1469897Y913866D01*
X1469849Y913623D01*
X1469621Y912984D01*
X1469368Y912224D01*
X1469077Y911395D01*
X1468801Y910513D01*
X1468549Y909753D01*
X1468360Y909182D01*
X1468374Y909129D01*
X1468282Y909046D01*
X1468102Y908651D01*
X1467693Y908251D01*
X1467470Y908017D01*
X1467109Y907860D01*
X1467056Y907845D01*
X1466934Y907870D01*
X1466758Y907879D01*
X1466530Y907874D01*
X1466027Y908024D01*
X1465496Y908282D01*
X1465428Y908320D01*
X1465223Y908437D01*
X1464950Y908593D01*
X1464472Y908865D01*
X1464335Y908943D01*
X1464131Y909059D01*
X1463843Y909268D01*
X1463638Y909385D01*
X1463570Y909424D01*
X1463487Y909516D01*
X1463282Y909633D01*
X1463102Y909871D01*
X1462853Y910149D01*
X1462657Y910441D01*
X1462501Y910801D01*
X1462452Y911191D01*
X1462491Y911259D01*
X1462592Y911517D01*
X1462733Y911844D01*
X1462859Y912224D01*
X1463258Y913082D01*
X1463437Y913477D01*
X1463578Y913804D01*
X1463617Y913872D01*
X1463719Y914130D01*
X1463899Y914525D01*
X1464103Y915042D01*
X1464384Y915695D01*
X1464690Y916470D01*
X1464967Y917353D01*
X1465077Y917687D01*
X1465054Y917665D01*
X1464368Y917016D01*
X1464275Y916933D01*
X1464129Y916835D01*
X1463959Y916616D01*
X1462446Y914991D01*
X1462393Y914976D01*
X1462261Y914825D01*
X1462077Y914659D01*
X1461853Y914425D01*
X1461536Y914108D01*
X1461220Y913791D01*
X1460456Y913005D01*
X1460418Y912937D01*
X1460286Y912786D01*
X1460077Y912498D01*
X1459722Y912113D01*
X1459668Y912098D01*
X1459630Y912030D01*
X1459420Y911742D01*
X1459104Y911425D01*
X1458803Y911054D01*
X1458710Y910971D01*
X1458525Y910805D01*
X1458263Y910503D01*
X1457908Y910117D01*
X1457869Y910049D01*
X1457684Y909883D01*
X1457382Y909512D01*
X1456949Y908990D01*
X1456896Y908976D01*
X1456872Y908854D01*
X1456594Y908605D01*
X1456239Y908220D01*
X1455923Y907903D01*
X1455884Y907834D01*
X1455699Y907668D01*
X1455398Y907298D01*
X1454980Y906722D01*
X1454887Y906639D01*
X1454678Y906351D01*
X1454352Y905859D01*
X1453973Y905352D01*
X1453516Y904708D01*
X1453020Y903996D01*
X1452578Y903299D01*
X1452121Y902655D01*
X1452082Y902587D01*
X1451965Y902382D01*
X1451756Y902094D01*
X1451508Y901738D01*
X1450934Y900889D01*
X1450701Y900480D01*
X1450453Y900124D01*
X1450414Y900056D01*
X1450375Y899987D01*
X1450181Y899646D01*
X1449972Y899358D01*
X1449894Y899222D01*
X1449855Y899153D01*
X1449466Y898471D01*
X1449427Y898402D01*
X1449350Y898266D01*
X1449248Y898008D01*
X1449107Y897681D01*
X1448703Y897052D01*
X1448509Y896711D01*
X1448246Y896408D01*
X1448208Y896340D01*
X1448183Y896218D01*
X1448081Y895960D01*
X1448042Y895891D01*
X1448018Y895770D01*
X1447941Y895633D01*
X1447916Y895511D01*
X1447878Y895443D01*
X1447800Y895306D01*
X1447644Y895033D01*
X1447465Y894639D01*
X1447192Y894161D01*
X1446857Y893493D01*
X1446498Y892703D01*
X1446129Y891738D01*
X1446105Y891616D01*
X1446003Y891358D01*
X1445823Y890963D01*
X1445634Y890392D01*
X1445148Y889222D01*
X1444959Y888652D01*
X1444770Y888082D01*
X1444086Y886166D01*
X1444047Y886098D01*
X1443999Y885854D01*
X1443911Y885542D01*
X1443839Y885177D01*
X1443713Y884797D01*
X1443640Y884431D01*
X1443553Y884119D01*
X1443490Y883929D01*
X1443451Y883861D01*
X1443441Y883685D01*
X1443354Y883373D01*
X1443282Y883008D01*
X1443185Y882521D01*
X1443103Y881980D01*
X1443035Y881385D01*
X1442983Y880737D01*
X1442997Y880684D01*
X1442949Y880440D01*
X1442984Y880104D01*
X1442979Y879699D01*
X1442932Y878822D01*
X1442942Y878364D01*
X1442938Y877960D01*
X1442953Y877906D01*
X1442928Y877785D01*
X1442895Y877487D01*
X1442887Y877447D01*
X1448106Y882113D01*
X1448125Y882148D01*
X1448218Y882231D01*
X1448388Y882450D01*
X1448651Y882752D01*
X1448967Y883070D01*
X1449415Y883538D01*
X1450023Y884050D01*
X1450724Y884646D01*
X1450762Y884714D01*
X1451001Y884895D01*
X1451186Y885061D01*
X1451356Y885280D01*
X1451619Y885583D01*
X1451935Y885900D01*
X1452027Y885983D01*
X1452105Y886119D01*
X1452236Y886270D01*
X1452275Y886339D01*
X1452353Y886475D01*
X1452538Y886641D01*
X1452723Y886807D01*
X1452815Y886890D01*
X1453000Y887056D01*
X1453331Y887319D01*
X1453779Y887788D01*
X1453818Y887856D01*
X1454017Y887968D01*
X1454241Y888203D01*
X1454465Y888437D01*
X1455020Y888934D01*
X1455258Y889115D01*
X1455443Y889281D01*
X1455482Y889349D01*
X1455574Y889432D01*
X1455759Y889598D01*
X1456022Y889901D01*
X1456392Y890232D01*
X1456800Y890632D01*
X1457355Y891130D01*
X1457948Y891696D01*
X1458041Y891779D01*
X1458226Y891945D01*
X1458542Y892262D01*
X1458912Y892594D01*
X1459282Y892926D01*
X1459598Y893243D01*
X1459914Y893560D01*
X1460099Y893726D01*
X1460153Y893741D01*
X1460191Y893809D01*
X1460338Y893907D01*
X1460537Y894019D01*
X1461448Y894269D01*
X1461635Y894267D01*
X1461769Y894357D01*
X1461877Y894386D01*
X1462130Y894513D01*
X1462183Y894528D01*
X1462276Y894611D01*
X1462514Y894792D01*
X1463907Y895174D01*
X1463922Y895120D01*
X1463951Y895013D01*
X1464039Y894691D01*
X1464103Y894248D01*
X1464094Y894073D01*
X1464070Y893951D01*
X1464084Y893897D01*
X1463992Y893814D01*
X1464586Y893747D01*
X1464547Y893679D01*
X1464499Y893435D01*
X1464412Y893123D01*
X1464324Y892811D01*
X1464252Y892446D01*
X1464111Y892119D01*
X1464063Y891875D01*
X1463985Y891739D01*
X1463893Y891656D01*
X1463761Y891505D01*
X1463537Y891271D01*
X1463499Y891202D01*
X1463353Y891105D01*
X1463182Y890885D01*
X1462997Y890719D01*
X1462959Y890651D01*
X1462866Y890568D01*
X1462818Y890324D01*
X1462677Y889998D01*
X1462302Y889895D01*
X1462263Y889827D01*
X1462025Y889646D01*
X1461723Y889275D01*
X1461237Y888739D01*
X1461183Y888724D01*
X1461105Y888587D01*
X1460974Y888436D01*
X1460789Y888270D01*
X1460449Y887831D01*
X1460079Y887499D01*
X1460025Y887485D01*
X1459947Y887348D01*
X1459763Y887182D01*
X1459446Y886865D01*
X1459091Y886480D01*
X1458605Y885943D01*
X1457972Y885309D01*
X1457223Y884470D01*
X1457170Y884455D01*
X1457092Y884319D01*
X1456907Y884153D01*
X1456722Y883987D01*
X1456669Y883972D01*
X1456576Y883889D01*
X1456430Y883792D01*
X1456338Y883709D01*
X1456284Y883694D01*
X1456206Y883557D01*
X1455983Y883323D01*
X1455666Y883006D01*
X1455574Y882923D01*
X1455481Y882840D01*
X1455428Y882825D01*
X1455389Y882757D01*
X1455112Y882508D01*
X1454849Y882206D01*
X1454586Y881903D01*
X1454533Y881889D01*
X1454494Y881821D01*
X1454348Y881723D01*
X1454163Y881557D01*
X1453715Y881089D01*
X1453175Y880537D01*
X1453136Y880469D01*
X1453059Y880332D01*
X1452874Y880166D01*
X1452621Y880040D01*
X1452567Y880025D01*
X1452382Y879859D01*
X1451998Y879581D01*
X1451565Y879059D01*
X1451511Y879044D01*
X1451487Y878922D01*
X1451278Y878634D01*
X1450976Y878264D01*
X1450675Y877893D01*
X1450636Y877825D01*
X1450451Y877659D01*
X1450203Y877303D01*
X1449863Y876864D01*
X1449770Y876781D01*
X1449615Y876508D01*
X1449352Y876205D01*
X1449182Y875986D01*
X1449128Y875971D01*
X1449089Y875903D01*
X1448958Y875752D01*
X1448734Y875518D01*
X1448403Y875254D01*
X1447995Y874854D01*
X1447455Y874303D01*
X1447362Y874220D01*
X1447177Y874054D01*
X1446861Y873737D01*
X1446452Y873336D01*
X1445990Y872922D01*
X1445504Y872385D01*
X1444355Y871321D01*
X1444317Y871253D01*
X1444132Y871087D01*
X1443908Y870853D01*
X1443592Y870536D01*
X1443290Y870165D01*
X1443027Y869863D01*
X1442818Y869575D01*
X1442648Y869355D01*
X1442609Y869287D01*
X1442424Y869121D01*
X1442118Y868980D01*
X1441528Y868818D01*
X1441246Y868798D01*
X1440963Y868778D01*
X1440749Y868719D01*
X1438268Y869364D01*
X1438200Y869403D01*
X1438063Y869481D01*
X1437912Y869612D01*
X1437639Y869767D01*
X1437351Y869976D01*
X1436995Y870224D01*
X1436503Y870550D01*
X1436488Y870604D01*
X1436444Y870764D01*
X1436409Y871100D01*
X1436375Y871437D01*
X1436311Y871880D01*
X1436232Y872377D01*
X1436046Y873477D01*
X1435912Y874593D01*
X1435740Y875640D01*
X1435730Y876098D01*
X1435681Y876488D01*
X1435714Y876785D01*
X1435709Y877014D01*
X1435694Y877068D01*
X1435719Y877190D01*
X1435782Y877380D01*
X1435777Y877609D01*
X1435820Y878081D01*
X1435815Y878310D01*
X1435824Y878486D01*
X1435809Y878539D01*
X1435795Y878593D01*
X1435814Y878944D01*
X1435750Y879387D01*
X1435763Y879967D01*
X1438119Y888389D01*
X1438105Y888443D01*
X1438182Y888579D01*
X1438245Y888769D01*
X1438416Y888989D01*
X1438454Y889057D01*
X1438547Y889140D01*
X1438517Y889247D01*
X1438542Y889369D01*
X1438551Y889544D01*
X1438590Y889613D01*
X1438614Y889734D01*
X1438726Y890168D01*
X1438764Y890236D01*
X1438789Y890358D01*
X1438866Y890495D01*
X1438905Y890563D01*
X1438944Y890631D01*
X1439007Y890821D01*
X1439080Y891187D01*
X1439206Y891567D01*
X1439356Y892069D01*
X1439560Y892586D01*
X1440046Y893756D01*
X1440614Y894833D01*
X1440638Y894955D01*
X1440663Y895077D01*
X1440711Y895321D01*
X1440750Y895389D01*
X1440813Y895579D01*
X1440993Y895974D01*
X1441377Y896252D01*
X1441362Y896306D01*
X1441440Y896442D01*
X1441542Y896701D01*
X1441668Y897081D01*
X1441887Y897544D01*
X1442130Y898129D01*
X1442518Y898812D01*
X1442985Y899631D01*
X1443024Y899699D01*
X1443116Y899782D01*
X1443432Y900099D01*
X1443788Y900485D01*
X1443934Y900582D01*
X1443972Y900650D01*
X1444050Y900787D01*
X1444206Y901060D01*
X1444322Y901265D01*
X1444493Y901484D01*
X1444687Y901826D01*
X1444935Y902182D01*
X1445207Y902660D01*
X1445572Y903220D01*
X1445975Y903849D01*
X1446471Y904561D01*
X1447045Y905410D01*
X1447657Y906327D01*
X1447696Y906395D01*
X1447828Y906546D01*
X1447983Y906819D01*
X1448231Y907175D01*
X1448518Y907600D01*
X1448844Y908092D01*
X1449534Y909146D01*
X1450263Y910267D01*
X1451007Y911335D01*
X1451333Y911828D01*
X1451634Y912198D01*
X1451882Y912554D01*
X1452038Y912828D01*
X1452077Y912896D01*
X1452169Y912979D01*
X1452300Y913130D01*
X1452417Y913335D01*
X1452865Y913803D01*
X1453366Y914286D01*
X1453419Y914301D01*
X1453458Y914369D01*
X1453589Y914520D01*
X1453775Y914686D01*
X1454237Y915101D01*
X1454762Y915706D01*
X1454801Y915774D01*
X1454893Y915857D01*
X1455064Y916077D01*
X1455287Y916311D01*
X1455550Y916613D01*
X1455905Y916999D01*
X1456314Y917399D01*
X1456708Y917852D01*
X1457695Y918872D01*
X1458829Y919989D01*
X1460055Y921190D01*
X1461403Y922366D01*
X1461456Y922381D01*
X1461549Y922463D01*
X1461680Y922615D01*
X1461865Y922781D01*
X1462157Y922976D01*
X1462435Y923225D01*
X1463150Y923766D01*
X1464026Y924352D01*
X1464956Y924953D01*
X1465954Y925515D01*
X1466981Y925969D01*
X1467088Y925999D01*
X1467273Y926165D01*
X1467327Y926179D01*
X1467366Y926248D01*
X1467672Y926389D01*
X1468086Y926560D01*
X1468393Y926702D01*
X1468607Y926761D01*
X1468729Y926737D01*
X1468851Y926712D01*
X1468836Y926766D01*
X1468904Y926727D01*
D02*
G37*
G36*
X1469488Y949544D02*
X1469738Y949419D01*
X1469925Y949294D01*
X1470175Y949107D01*
X1470238Y949044D01*
X1470300Y948857D01*
X1470363Y948732D01*
Y948482D01*
X1470425Y948170D01*
Y947795D01*
X1470238D01*
Y947857D01*
Y947920D01*
X1470175Y947982D01*
X1470050Y947920D01*
X1469988Y947857D01*
X1470050Y947795D01*
Y947732D01*
X1470113Y947670D01*
X1470175Y947295D01*
Y946795D01*
Y946670D01*
X1470113Y946482D01*
X1470050Y946233D01*
X1469988Y946108D01*
Y946045D01*
X1469925Y945795D01*
X1469863Y945420D01*
X1469738Y944983D01*
X1469550Y944421D01*
X1469300Y943921D01*
X1468925Y943358D01*
X1468426Y942859D01*
Y942796D01*
X1468301Y942671D01*
X1468113Y942234D01*
X1467863Y941796D01*
X1467801Y941671D01*
X1467738Y941546D01*
Y941484D01*
X1467613Y941421D01*
X1467488Y941234D01*
X1467301Y941046D01*
X1466738Y940359D01*
X1466051Y939547D01*
X1465989Y939484D01*
X1465864Y939359D01*
X1465676Y939109D01*
X1465426Y938859D01*
X1464926Y938172D01*
X1464427Y937547D01*
X1464364Y937485D01*
X1464114Y937172D01*
X1463739Y936673D01*
X1463239Y935923D01*
X1463177Y935860D01*
X1463114Y935735D01*
X1462927Y935548D01*
X1462615Y935235D01*
X1462302Y934923D01*
X1461802Y934548D01*
X1461240Y934173D01*
X1460615Y933736D01*
X1459303Y930737D01*
Y930674D01*
X1459178Y930487D01*
X1459053Y930299D01*
X1458866Y930174D01*
X1458803Y930112D01*
X1458678Y929987D01*
X1458428Y929674D01*
X1458053Y929299D01*
X1457553Y928675D01*
X1456991Y927987D01*
X1456241Y927050D01*
X1455366Y925925D01*
X1455304Y925863D01*
X1455242Y925738D01*
X1455054Y925488D01*
X1454867Y925238D01*
X1454429Y924738D01*
X1454242Y924488D01*
X1454117Y924301D01*
X1454054Y924238D01*
X1453929Y924051D01*
X1453617Y923676D01*
X1453429Y923363D01*
X1453117Y923051D01*
X1452805Y922614D01*
X1452430Y922114D01*
X1451992Y921551D01*
X1451492Y920864D01*
X1450930Y920114D01*
X1450243Y919240D01*
X1449493Y918240D01*
X1448681Y917178D01*
X1448618Y917115D01*
X1448493Y916865D01*
X1448181Y916490D01*
X1447743Y915928D01*
X1447056Y915116D01*
X1446681Y914616D01*
X1446244Y914116D01*
X1445744Y913491D01*
X1445244Y912804D01*
X1444619Y912054D01*
X1443932Y911242D01*
X1443869Y911179D01*
X1443744Y911054D01*
X1443557Y910804D01*
X1443307Y910554D01*
X1443244Y910492D01*
X1443120Y910367D01*
X1442807Y909929D01*
Y909867D01*
X1442745Y909804D01*
X1442620Y909617D01*
X1442495Y909305D01*
Y909242D01*
X1442370Y909117D01*
X1442307Y908930D01*
X1442182Y908805D01*
X1442120Y908742D01*
X1441995Y908555D01*
X1441745Y908242D01*
X1441495Y907805D01*
X1441183Y907243D01*
X1440870Y906618D01*
X1440558Y905868D01*
X1440245Y904993D01*
Y904931D01*
X1440120Y904681D01*
X1440058Y904431D01*
X1439933Y904181D01*
X1439870Y904118D01*
X1439745Y903868D01*
X1439558Y903556D01*
X1439308Y903181D01*
X1439246Y903056D01*
X1439121Y902806D01*
X1438933Y902369D01*
X1438683Y901869D01*
X1438621Y901744D01*
X1438496Y901494D01*
X1438371Y901182D01*
X1438183Y900869D01*
X1438121Y900807D01*
X1438058Y900619D01*
X1437871Y900432D01*
X1437684Y900119D01*
X1437433Y899870D01*
X1437121Y899620D01*
X1436746Y899432D01*
X1436371Y899370D01*
X1435871D01*
X1435497Y899432D01*
X1435434D01*
X1435184Y899495D01*
X1434872Y899557D01*
X1434559D01*
Y899620D01*
X1434497Y899682D01*
X1434247Y899994D01*
X1433810Y900557D01*
X1433185Y901182D01*
X1433122Y901244D01*
X1432935Y901494D01*
X1432622Y901931D01*
X1432310Y902494D01*
X1432060Y903244D01*
X1431810Y904056D01*
X1431685Y905056D01*
X1431747Y906118D01*
Y906180D01*
X1431810Y906430D01*
X1431872Y906743D01*
X1431935Y907118D01*
X1431997Y907555D01*
X1432060Y907930D01*
X1432122Y908242D01*
Y908430D01*
X1432622Y912616D01*
Y912679D01*
Y912804D01*
X1432685Y913054D01*
Y913366D01*
X1432810Y914178D01*
X1432872Y915053D01*
X1432997Y916053D01*
X1433060Y916928D01*
X1433122Y917302D01*
Y917615D01*
X1433185Y917865D01*
Y918052D01*
Y918115D01*
Y918240D01*
Y918490D01*
X1433247Y918865D01*
Y919364D01*
X1433310Y919989D01*
X1433372Y920739D01*
X1433497Y921676D01*
Y921739D01*
X1433560Y921989D01*
X1433622Y922301D01*
X1433685Y922801D01*
X1433747Y923426D01*
X1433810Y924176D01*
X1433934Y924988D01*
X1433997Y925925D01*
Y925988D01*
Y926175D01*
X1434059Y926425D01*
X1434122Y926738D01*
Y926863D01*
X1434184Y927113D01*
X1434247Y927612D01*
Y927675D01*
X1433997Y927300D01*
X1433685Y926863D01*
X1433310Y926363D01*
X1433247Y926300D01*
X1433122Y926113D01*
X1432935Y925863D01*
X1432747Y925550D01*
X1432247Y924863D01*
X1431997Y924551D01*
X1431810Y924238D01*
X1431747Y924176D01*
X1431685Y924051D01*
X1431560Y923863D01*
X1431373Y923613D01*
X1431123Y923239D01*
X1430873Y922864D01*
X1430560Y922364D01*
X1430498Y922301D01*
X1430435Y922114D01*
X1430248Y921864D01*
X1430060Y921614D01*
X1429686Y920989D01*
X1429498Y920677D01*
X1429311Y920489D01*
X1428373Y919052D01*
X1428311Y918990D01*
X1428123Y918740D01*
X1427874Y918302D01*
X1427499Y917740D01*
Y917677D01*
X1427436Y917615D01*
X1427186Y917302D01*
X1426936Y916928D01*
X1426749Y916615D01*
X1422375Y910367D01*
Y910304D01*
X1422250Y910179D01*
X1422187Y910117D01*
X1422125Y909992D01*
Y909929D01*
X1422063Y909867D01*
X1421812Y909492D01*
X1421750Y909429D01*
X1421688Y909305D01*
X1421500Y909055D01*
X1421250Y908680D01*
X1420875Y908180D01*
X1420500Y907555D01*
X1420000Y906868D01*
X1419438Y905993D01*
X1419376Y905868D01*
X1419188Y905618D01*
X1418876Y905181D01*
X1418501Y904618D01*
X1417626Y903493D01*
X1417189Y902931D01*
X1416814Y902494D01*
Y902431D01*
X1416751Y902369D01*
X1416626Y902181D01*
X1416501Y901931D01*
X1416189Y901307D01*
X1415752Y900432D01*
X1415252Y899495D01*
X1414627Y898432D01*
X1413440Y896120D01*
X1413377Y896058D01*
X1413252Y895871D01*
X1413065Y895621D01*
X1412752Y895433D01*
X1412690Y895371D01*
X1412502Y895308D01*
X1412253Y895246D01*
X1412003Y895183D01*
X1411940D01*
X1411878Y895246D01*
X1411440Y895371D01*
X1410940Y895621D01*
X1410316Y896058D01*
X1410253D01*
X1410190Y896120D01*
X1409941Y896308D01*
X1409878Y896433D01*
X1409753Y896558D01*
X1409566Y896745D01*
X1409503Y896808D01*
X1409378Y896995D01*
X1409128Y897245D01*
X1408878Y897620D01*
X1407629Y898682D01*
Y898745D01*
X1407566Y898932D01*
X1407504Y899182D01*
X1407441Y899432D01*
Y899495D01*
X1407379Y899682D01*
Y899932D01*
X1407316Y900244D01*
X1411144Y905993D01*
X1411003D01*
X1411065Y906055D01*
X1411128Y906180D01*
X1411315Y906430D01*
X1411503Y906743D01*
X1413877Y910367D01*
X1413940Y910429D01*
X1414002Y910617D01*
X1414252Y910867D01*
X1414502Y911179D01*
X1414564Y911242D01*
X1414752Y911491D01*
X1415002Y911679D01*
X1415127Y911929D01*
X1415189Y911991D01*
Y912116D01*
X1415314Y912241D01*
X1415439Y912491D01*
X1415627Y912804D01*
X1415876Y913179D01*
X1416189Y913616D01*
X1416564Y914178D01*
X1416626Y914241D01*
X1416751Y914491D01*
X1417001Y914866D01*
X1417314Y915303D01*
X1417689Y915803D01*
X1418126Y916428D01*
X1419126Y917677D01*
X1419251Y917802D01*
X1419313Y917927D01*
X1419501Y918177D01*
X1422500Y922676D01*
X1422562Y922801D01*
X1422750Y923051D01*
X1423062Y923488D01*
X1423437Y923988D01*
X1423937Y924613D01*
X1424499Y925238D01*
X1425686Y926613D01*
Y926675D01*
X1425811Y926863D01*
X1425936Y927175D01*
X1426186Y927612D01*
X1426499Y928175D01*
X1426874Y928800D01*
X1427436Y929612D01*
X1428061Y930549D01*
X1432060Y935985D01*
X1432122Y936110D01*
X1432372Y936423D01*
X1432685Y936923D01*
X1433185Y937547D01*
X1433247Y937610D01*
X1433310Y937735D01*
X1433622Y938110D01*
X1433934Y938485D01*
X1434059Y938672D01*
X1434184Y938797D01*
Y938859D01*
X1434309Y938985D01*
X1434434Y939109D01*
X1434559Y939297D01*
X1434809Y939609D01*
X1435059Y939922D01*
X1435122Y939984D01*
X1435184Y940109D01*
X1435372Y940297D01*
X1435559Y940547D01*
X1435934Y941046D01*
X1436246Y941546D01*
Y941609D01*
X1436309Y941671D01*
X1436434Y941859D01*
X1436621Y942109D01*
X1436746Y942421D01*
X1436996Y942796D01*
X1437246Y943233D01*
X1437496Y943796D01*
X1437558Y943858D01*
X1437746Y943983D01*
X1437996Y944171D01*
X1438246Y944483D01*
X1438933Y945170D01*
X1439246Y945545D01*
X1439496Y945920D01*
X1439558D01*
X1439621Y945983D01*
X1439995Y946170D01*
X1440558Y946420D01*
X1441308Y946670D01*
X1441370D01*
X1441495Y946732D01*
X1441682Y946795D01*
X1441995Y946920D01*
X1442620Y947170D01*
X1443369Y947420D01*
X1443432Y947357D01*
X1443495Y947295D01*
X1443869Y946982D01*
X1444244Y946545D01*
X1444369Y946295D01*
X1444432Y946108D01*
X1445181Y941609D01*
Y941546D01*
X1445119Y941421D01*
X1445057Y941171D01*
X1444994Y940859D01*
X1444619Y940047D01*
X1444307Y939609D01*
X1443994Y939172D01*
X1443932Y939109D01*
X1443744Y938859D01*
X1443495Y938485D01*
X1443182Y938047D01*
X1442807Y937422D01*
X1442495Y936735D01*
X1442182Y935985D01*
X1441932Y935173D01*
Y935110D01*
X1441870Y934923D01*
Y934735D01*
X1441807Y934423D01*
X1441745Y933861D01*
X1441682Y933611D01*
Y933486D01*
Y931799D01*
Y931736D01*
Y931611D01*
X1441620Y931299D01*
Y930986D01*
X1441557Y930549D01*
Y930112D01*
X1441432Y929050D01*
X1441370Y927862D01*
X1441245Y926675D01*
X1441120Y925550D01*
Y925051D01*
X1441058Y924613D01*
Y924551D01*
Y924363D01*
Y924051D01*
Y923676D01*
Y922801D01*
X1441183Y921801D01*
Y921739D01*
Y921489D01*
Y921051D01*
X1441058Y920427D01*
X1440685Y917211D01*
X1440808Y917365D01*
X1440995Y917552D01*
X1441120Y917677D01*
X1441245Y917802D01*
X1441432Y917990D01*
X1441495Y918052D01*
X1441620Y918240D01*
X1442057Y918615D01*
X1442120Y918677D01*
X1442182Y918740D01*
X1442557Y919115D01*
X1443120Y919677D01*
X1443744Y920489D01*
X1445057Y922239D01*
X1445119Y922301D01*
X1445307Y922551D01*
X1445556Y922926D01*
X1446056Y923488D01*
Y923551D01*
X1446181Y923613D01*
X1446306Y923801D01*
X1446494Y924051D01*
X1446994Y924738D01*
X1447618Y925613D01*
X1448431Y926675D01*
X1449368Y927862D01*
X1450430Y929174D01*
X1451555Y930487D01*
X1451617Y930549D01*
X1451742Y930612D01*
X1451930Y930799D01*
X1452180Y930924D01*
X1452242D01*
X1452367Y930986D01*
X1452555Y931049D01*
X1452592Y931037D01*
X1458214Y936396D01*
X1458303Y936485D01*
Y936548D01*
X1458428Y936673D01*
X1458491Y936860D01*
X1458678Y937235D01*
X1458741Y937297D01*
X1458866Y937547D01*
X1458990Y937735D01*
X1459053Y937797D01*
Y938172D01*
X1459115Y938235D01*
X1459240Y938297D01*
X1459439Y938463D01*
X1459365Y938610D01*
Y939047D01*
X1459490Y939547D01*
X1460063D01*
X1460428Y939234D01*
X1460303Y939109D01*
X1460053Y938985D01*
X1459615Y938610D01*
X1459439Y938463D01*
X1459553Y938235D01*
X1459803Y937922D01*
X1460053Y937672D01*
X1460365Y937485D01*
X1460553Y937422D01*
X1460615Y937360D01*
Y937860D01*
X1460678Y938235D01*
X1460740Y938485D01*
Y938610D01*
Y938797D01*
Y938985D01*
X1460490Y939297D01*
X1460240Y939484D01*
X1460178Y939547D01*
X1460063D01*
X1459990Y939609D01*
Y939672D01*
X1460053Y939734D01*
X1460178Y940109D01*
X1460428Y940484D01*
X1460678Y940921D01*
X1460740Y940984D01*
X1460990Y941234D01*
X1461365Y941609D01*
X1461927Y941984D01*
X1462240Y941609D01*
Y941671D01*
X1462302Y941734D01*
X1462552Y942046D01*
X1462740Y942296D01*
X1462865Y942359D01*
X1462990D01*
X1462927Y942484D01*
Y942608D01*
X1462865Y942734D01*
Y942983D01*
Y943296D01*
Y943358D01*
X1462927Y943546D01*
X1462990Y943796D01*
X1463114Y944046D01*
Y943983D01*
X1463177Y943921D01*
X1463239D01*
X1463364Y943983D01*
X1463552Y944233D01*
X1463802Y944546D01*
X1464177Y945108D01*
X1464239Y945170D01*
X1464364Y945420D01*
X1464552Y945733D01*
X1464801Y946108D01*
X1465364Y946920D01*
X1465676Y947357D01*
X1465926Y947670D01*
X1465989Y947732D01*
X1466176Y947920D01*
X1466551Y948170D01*
X1467051Y948482D01*
X1467113D01*
X1467301Y948544D01*
X1467551Y948607D01*
X1467676Y948544D01*
X1467738Y948482D01*
Y948419D01*
X1467613Y948357D01*
X1467676D01*
X1467801Y948482D01*
X1467988Y948607D01*
X1468238Y948857D01*
X1468301Y948919D01*
X1468551Y949107D01*
X1468925Y949357D01*
X1469425Y949607D01*
X1469488Y949544D01*
D02*
G37*
G36*
X1412756Y851220D02*
X1412850Y851210D01*
X1413069Y851189D01*
X1413298Y851148D01*
X1413517Y851096D01*
X1413610Y851054D01*
X1413683Y851012D01*
X1413756Y850960D01*
X1413798Y850908D01*
X1413808Y850898D01*
X1413819Y850846D01*
Y850773D01*
X1413798Y850658D01*
X1413777Y850596D01*
X1413746Y850512D01*
X1413694Y850429D01*
X1413631Y850335D01*
X1413558Y850231D01*
X1413465Y850117D01*
X1413350Y849992D01*
X1413215Y849856D01*
X1413204Y849846D01*
X1413173Y849815D01*
X1413121Y849762D01*
X1413058Y849700D01*
X1412986Y849617D01*
X1412913Y849523D01*
X1412777Y849325D01*
X1412767Y849315D01*
X1412746Y849273D01*
X1412715Y849200D01*
X1412663Y849096D01*
X1412600Y848950D01*
X1412527Y848773D01*
X1412496Y848669D01*
X1412454Y848555D01*
X1412402Y848429D01*
X1412361Y848294D01*
Y848284D01*
X1412350Y848252D01*
X1412330Y848200D01*
X1412319Y848128D01*
X1412288Y848055D01*
X1412257Y847961D01*
X1412194Y847774D01*
X1412111Y847586D01*
X1412059Y847492D01*
X1412017Y847419D01*
X1411965Y847346D01*
X1411913Y847294D01*
X1411861Y847263D01*
X1411809Y847253D01*
X1411767D01*
X1411715Y847274D01*
X1411653Y847294D01*
X1411590Y847326D01*
X1411528Y847378D01*
X1411465Y847451D01*
X1411423Y847555D01*
Y847565D01*
X1411413Y847607D01*
X1411403Y847659D01*
Y847732D01*
Y847805D01*
X1411423Y847898D01*
X1411455Y847982D01*
X1411507Y848055D01*
Y848065D01*
X1411517Y848086D01*
X1411538Y848138D01*
X1411559Y848221D01*
Y848273D01*
X1411569Y848346D01*
X1411580Y848419D01*
X1411590Y848513D01*
Y848617D01*
X1411600Y848732D01*
Y848867D01*
Y849023D01*
Y849034D01*
Y849054D01*
Y849075D01*
Y849117D01*
Y849221D01*
X1411590Y849336D01*
Y849471D01*
X1411580Y849585D01*
X1411569Y849700D01*
X1411548Y849773D01*
Y849783D01*
X1411538Y849804D01*
X1411528Y849825D01*
X1411507Y849867D01*
X1411444Y849960D01*
X1411392Y850013D01*
X1411340Y850064D01*
X1411330Y850075D01*
X1411288Y850117D01*
X1411236Y850158D01*
X1411163Y850231D01*
X1411101Y850294D01*
X1411038Y850377D01*
X1410986Y850450D01*
X1410955Y850512D01*
Y850523D01*
Y850544D01*
Y850585D01*
Y850627D01*
X1410965Y850689D01*
X1410986Y850752D01*
X1411017Y850825D01*
X1411059Y850908D01*
X1411069Y850919D01*
X1411121Y850960D01*
X1411153Y850981D01*
X1411205Y851012D01*
X1411267Y851043D01*
X1411340Y851075D01*
X1411423Y851096D01*
X1411528Y851127D01*
X1411642Y851158D01*
X1411777Y851179D01*
X1411923Y851200D01*
X1412090Y851220D01*
X1412277Y851231D01*
X1412663D01*
X1412756Y851220D01*
D02*
G37*
G36*
X1411288Y847086D02*
X1411351Y847076D01*
X1411413Y847045D01*
X1411476Y846992D01*
X1411538Y846919D01*
X1411580Y846815D01*
X1411590Y846670D01*
Y846649D01*
Y846607D01*
X1411569Y846534D01*
X1411548Y846461D01*
X1411507Y846378D01*
X1411444Y846305D01*
X1411361Y846263D01*
X1411246Y846243D01*
X1411236D01*
X1411194Y846253D01*
X1411132Y846263D01*
X1411069Y846295D01*
X1411007Y846347D01*
X1410944Y846420D01*
X1410903Y846524D01*
X1410892Y846670D01*
Y846690D01*
X1410903Y846732D01*
X1410913Y846805D01*
X1410934Y846888D01*
X1410976Y846961D01*
X1411038Y847034D01*
X1411121Y847076D01*
X1411236Y847097D01*
X1411246D01*
X1411288Y847086D01*
D02*
G37*
G36*
X1408882Y851220D02*
X1409132D01*
X1409382Y851210D01*
X1409507Y851200D01*
X1409611Y851189D01*
X1409705Y851179D01*
X1409778Y851168D01*
X1409799D01*
X1409841Y851158D01*
X1409903Y851137D01*
X1409986Y851096D01*
X1410070Y851043D01*
X1410163Y850971D01*
X1410247Y850877D01*
X1410320Y850762D01*
X1410330Y850752D01*
X1410340Y850710D01*
X1410351Y850648D01*
X1410361Y850575D01*
Y850491D01*
X1410340Y850408D01*
X1410299Y850325D01*
X1410236Y850252D01*
X1410226Y850242D01*
X1410205Y850210D01*
X1410174Y850158D01*
X1410143Y850075D01*
X1410101Y849971D01*
X1410080Y849835D01*
X1410070Y849669D01*
Y849461D01*
Y849450D01*
Y849440D01*
X1410080Y849398D01*
Y849356D01*
X1410101Y849242D01*
X1410132Y849096D01*
X1410174Y848919D01*
X1410226Y848711D01*
X1410299Y848502D01*
X1410382Y848273D01*
Y848263D01*
X1410392Y848252D01*
X1410403Y848221D01*
X1410413Y848180D01*
X1410455Y848075D01*
X1410497Y847940D01*
X1410528Y847774D01*
X1410569Y847586D01*
X1410590Y847388D01*
X1410601Y847180D01*
Y847159D01*
Y847117D01*
X1410611Y847045D01*
Y846961D01*
X1410622Y846857D01*
X1410642Y846763D01*
X1410674Y846659D01*
X1410705Y846565D01*
X1410715Y846555D01*
X1410726Y846524D01*
X1410746Y846482D01*
X1410767Y846420D01*
X1410788Y846347D01*
X1410799Y846263D01*
X1410819Y846180D01*
Y846076D01*
Y846066D01*
Y846024D01*
X1410830Y845951D01*
X1410840Y845868D01*
X1410851Y845753D01*
X1410861Y845618D01*
X1410871Y845462D01*
X1410892Y845295D01*
Y845274D01*
X1410903Y845222D01*
X1410913Y845139D01*
X1410924Y845035D01*
X1410934Y844816D01*
X1410944Y844712D01*
Y844628D01*
Y844618D01*
Y844597D01*
Y844556D01*
X1410934Y844503D01*
Y844431D01*
X1410924Y844347D01*
X1410903Y844253D01*
X1410882Y844139D01*
Y844129D01*
X1410871Y844087D01*
X1410861Y844035D01*
X1410840Y843983D01*
X1410819Y843920D01*
X1410788Y843858D01*
X1410746Y843816D01*
X1410705Y843785D01*
Y843774D01*
X1410694Y843754D01*
X1410684Y843712D01*
X1410663Y843660D01*
X1410611Y843525D01*
X1410599Y843496D01*
X1410622Y843504D01*
X1410715Y843514D01*
X1410819Y843504D01*
X1410871Y843493D01*
X1410913Y843462D01*
X1410955Y843420D01*
X1410997Y843368D01*
Y843358D01*
Y843337D01*
X1411007Y843295D01*
X1410997Y843254D01*
X1410986Y843139D01*
X1410965Y843066D01*
X1410934Y843004D01*
Y842993D01*
X1410924Y842973D01*
X1410871Y842910D01*
X1410788Y842816D01*
X1410663Y842744D01*
X1410653D01*
X1410632Y842733D01*
X1410590Y842723D01*
X1410497D01*
X1410434Y842733D01*
X1410361Y842754D01*
X1410299Y842785D01*
X1410288Y842796D01*
X1410278Y842827D01*
X1410257Y842879D01*
X1410278Y842900D01*
X1410320Y842941D01*
X1410361Y843004D01*
X1410403Y843066D01*
X1410476Y843212D01*
X1410549Y843379D01*
X1410599Y843496D01*
X1410528Y843473D01*
X1410455Y843431D01*
X1410403Y843400D01*
X1410382Y843389D01*
X1410309Y843254D01*
X1410267Y843139D01*
X1410247Y843035D01*
Y842952D01*
X1410257Y842879D01*
X1410247Y842868D01*
X1410236D01*
X1410215Y842848D01*
X1410163Y842827D01*
X1410101Y842806D01*
X1410018Y842785D01*
X1409913Y842764D01*
X1409778Y842754D01*
X1409622Y842744D01*
X1409549D01*
X1409476Y842754D01*
X1409382Y842764D01*
X1409174Y842796D01*
X1409080Y842827D01*
X1409007Y842868D01*
X1408997Y842879D01*
X1408976Y842900D01*
X1408945Y842931D01*
X1408903Y842993D01*
X1408851Y843077D01*
X1408789Y843181D01*
X1408726Y843306D01*
X1408664Y843462D01*
X1408653Y843473D01*
X1408643Y843514D01*
X1408612Y843587D01*
X1408580Y843670D01*
X1408549Y843774D01*
X1408508Y843889D01*
X1408435Y844139D01*
Y844160D01*
X1408424Y844202D01*
X1408403Y844264D01*
X1408383Y844337D01*
X1408331Y844524D01*
X1408299Y844608D01*
X1408278Y844691D01*
Y844701D01*
X1408268Y844722D01*
X1408247Y844774D01*
X1408226Y844826D01*
X1408195Y844899D01*
X1408153Y844983D01*
X1408101Y845076D01*
X1408039Y845180D01*
X1408029Y845201D01*
X1407997Y845253D01*
X1407956Y845347D01*
X1407903Y845482D01*
X1407872Y845566D01*
X1407841Y845649D01*
X1407799Y845753D01*
X1407768Y845868D01*
X1407726Y845993D01*
X1407695Y846128D01*
X1407654Y846284D01*
X1407612Y846441D01*
Y846451D01*
X1407601Y846482D01*
X1407591Y846524D01*
X1407581Y846586D01*
X1407560Y846670D01*
X1407539Y846753D01*
X1407487Y846961D01*
X1407414Y847190D01*
X1407352Y847430D01*
X1407268Y847680D01*
X1407195Y847898D01*
Y847909D01*
X1407175Y847951D01*
X1407154Y848013D01*
X1407122Y848096D01*
X1407091Y848200D01*
X1407050Y848336D01*
X1406998Y848492D01*
X1406945Y848680D01*
Y848690D01*
X1406935Y848700D01*
Y848732D01*
X1406925Y848773D01*
X1406893Y848867D01*
X1406852Y848992D01*
X1406810Y849138D01*
X1406758Y849284D01*
X1406706Y849440D01*
X1406654Y849585D01*
X1406643Y849606D01*
X1406633Y849648D01*
X1406602Y849710D01*
X1406560Y849794D01*
X1406466Y849981D01*
X1406404Y850064D01*
X1406341Y850137D01*
X1406331Y850148D01*
X1406321Y850179D01*
X1406289Y850221D01*
X1406268Y850283D01*
X1406237Y850346D01*
X1406206Y850429D01*
X1406196Y850512D01*
X1406185Y850606D01*
X1406196Y850689D01*
X1406216Y850783D01*
X1406258Y850877D01*
X1406331Y850960D01*
X1406435Y851033D01*
X1406560Y851096D01*
X1406727Y851148D01*
X1406831Y851168D01*
X1406935Y851189D01*
X1406987D01*
X1407018Y851200D01*
X1407122D01*
X1407268Y851210D01*
X1407456Y851220D01*
X1407685D01*
X1407956Y851231D01*
X1408643D01*
X1408882Y851220D01*
D02*
G37*
G36*
X1415464Y845055D02*
X1415506D01*
X1415610Y845024D01*
X1415745Y844993D01*
X1415891Y844930D01*
X1416058Y844857D01*
X1416224Y844753D01*
X1416380Y844618D01*
X1416391Y844608D01*
X1416433Y844566D01*
X1416485Y844514D01*
X1416537Y844431D01*
X1416599Y844347D01*
X1416651Y844243D01*
X1416693Y844129D01*
X1416714Y844014D01*
Y844004D01*
Y843962D01*
X1416703Y843889D01*
X1416693Y843795D01*
X1416672Y843681D01*
X1416630Y843535D01*
X1416578Y843379D01*
X1416495Y843202D01*
X1416485Y843191D01*
X1416474Y843150D01*
X1416443Y843108D01*
X1416401Y843046D01*
X1416287Y842900D01*
X1416224Y842837D01*
X1416151Y842785D01*
X1416141D01*
X1416120Y842764D01*
X1416078Y842754D01*
X1416016Y842733D01*
X1415954Y842712D01*
X1415870Y842691D01*
X1415766Y842681D01*
X1415662Y842671D01*
X1415589D01*
X1415537Y842681D01*
X1415412Y842691D01*
X1415277Y842712D01*
X1415266D01*
X1415245Y842723D01*
X1415214Y842733D01*
X1415172Y842744D01*
X1415068Y842764D01*
X1414975Y842796D01*
X1414954Y842806D01*
X1414912Y842816D01*
X1414882Y842832D01*
X1414881Y842827D01*
X1414860Y842764D01*
X1414818Y842702D01*
X1414766Y842650D01*
X1414756D01*
X1414735Y842639D01*
X1414704Y842629D01*
X1414652Y842618D01*
X1414589D01*
X1414506Y842629D01*
X1414423Y842660D01*
X1414319Y842712D01*
X1414308Y842733D01*
X1414267Y842775D01*
X1414214Y842837D01*
X1414152Y842921D01*
X1414100Y843025D01*
X1414058Y843129D01*
X1414048Y843233D01*
Y843285D01*
X1414058Y843337D01*
X1414069Y843347D01*
X1414079Y843368D01*
X1414110Y843389D01*
X1414152Y843420D01*
X1414207Y843429D01*
X1414152Y843493D01*
X1414089Y843597D01*
X1414048Y843733D01*
X1414027Y843889D01*
X1414037Y844066D01*
Y844077D01*
Y844087D01*
X1414058Y844149D01*
X1414079Y844243D01*
X1414121Y844358D01*
X1414173Y844483D01*
X1414235Y844608D01*
X1414329Y844722D01*
X1414433Y844816D01*
X1414454Y844826D01*
X1414506Y844857D01*
X1414600Y844910D01*
X1414714Y844962D01*
X1414860Y845014D01*
X1415027Y845045D01*
X1415214Y845066D01*
X1415433D01*
X1415464Y845055D01*
D02*
G37*
G36*
X1420202Y851137D02*
X1420171Y849304D01*
Y849294D01*
Y849263D01*
Y849211D01*
Y849127D01*
Y849044D01*
X1420161Y848929D01*
Y848804D01*
Y848669D01*
X1420150Y848523D01*
Y848357D01*
X1420140Y848003D01*
X1420119Y847617D01*
X1420109Y847222D01*
X1420088Y846805D01*
X1420067Y846399D01*
X1420036Y846003D01*
X1420005Y845628D01*
X1419984Y845451D01*
X1419973Y845285D01*
X1419953Y845128D01*
X1419932Y844983D01*
X1419911Y844847D01*
X1419890Y844733D01*
X1419863Y844653D01*
X1419942Y844660D01*
X1419963D01*
X1420005Y844649D01*
X1420057Y844608D01*
X1420088Y844587D01*
X1420119Y844545D01*
X1420150Y844503D01*
X1420182Y844441D01*
X1420202Y844368D01*
X1420223Y844274D01*
X1420234Y844170D01*
X1420244Y844056D01*
Y843910D01*
X1420234Y843754D01*
Y843743D01*
X1420223Y843702D01*
X1420213Y843639D01*
Y843566D01*
X1420202Y843504D01*
X1420192Y843441D01*
X1420182Y843400D01*
Y843379D01*
X1420338D01*
X1420379Y843368D01*
X1420442Y843358D01*
X1420567Y843327D01*
X1420629Y843285D01*
X1420692Y843243D01*
X1420702Y843233D01*
X1420713Y843223D01*
X1420744Y843191D01*
X1420765Y843150D01*
X1420786Y843108D01*
X1420806Y843046D01*
Y842973D01*
X1420796Y842900D01*
Y842889D01*
X1420786Y842858D01*
X1420765Y842806D01*
X1420723Y842754D01*
X1420671Y842702D01*
X1420588Y842650D01*
X1420484Y842598D01*
X1420338Y842567D01*
X1420317D01*
X1420296Y842556D01*
X1420213D01*
X1420150Y842546D01*
X1420078Y842535D01*
X1419994D01*
X1419900Y842525D01*
X1419786Y842514D01*
X1419661Y842504D01*
X1419525Y842494D01*
X1419369Y842483D01*
X1419203D01*
X1419026Y842473D01*
X1418828Y842462D01*
X1418057D01*
X1417880Y842473D01*
X1417516Y842494D01*
X1417349Y842504D01*
X1417193Y842525D01*
X1417057Y842556D01*
X1416953Y842587D01*
X1416870Y842618D01*
X1416828Y842660D01*
Y842671D01*
X1416818Y842702D01*
Y842754D01*
X1416839Y842837D01*
X1416870Y842931D01*
X1416943Y843035D01*
X1416995Y843098D01*
X1417057Y843170D01*
X1417141Y843243D01*
X1417224Y843316D01*
X1417568Y843566D01*
Y849669D01*
X1417224Y849981D01*
X1417214Y849992D01*
X1417203Y850013D01*
X1417172Y850054D01*
X1417141Y850106D01*
X1417099Y850169D01*
X1417068Y850231D01*
X1417016Y850398D01*
X1416995Y850481D01*
Y850564D01*
X1417005Y850648D01*
X1417037Y850742D01*
X1417099Y850814D01*
X1417172Y850898D01*
X1417287Y850960D01*
X1417422Y851023D01*
X1417432D01*
X1417453Y851033D01*
X1417495Y851043D01*
X1417557Y851064D01*
X1417651Y851075D01*
X1417786Y851096D01*
X1417870Y851106D01*
X1417963D01*
X1418068Y851116D01*
X1418182Y851127D01*
X1418224D01*
X1418276Y851137D01*
X1418411D01*
X1418505Y851148D01*
X1418713Y851158D01*
X1418942Y851168D01*
X1419578D01*
X1420202Y851137D01*
D02*
G37*
G36*
X1486568Y862676D02*
X1486578Y862666D01*
X1486589Y862656D01*
X1486599Y862624D01*
X1486620Y862593D01*
X1486641Y862541D01*
X1486651Y862479D01*
X1486672Y862406D01*
X1486693Y862302D01*
X1486714Y862187D01*
X1486734Y862041D01*
X1486745Y861875D01*
X1486766Y861687D01*
Y861458D01*
X1486776Y861208D01*
Y860927D01*
Y860906D01*
Y860854D01*
Y860781D01*
Y860677D01*
X1486766Y860552D01*
Y860417D01*
X1486755Y860260D01*
X1486745Y860104D01*
X1486714Y859802D01*
X1486693Y859656D01*
X1486672Y859521D01*
X1486641Y859396D01*
X1486609Y859302D01*
X1486578Y859230D01*
X1486537Y859188D01*
X1486526D01*
X1486485Y859167D01*
X1486422Y859157D01*
X1486349Y859146D01*
X1486266D01*
X1486182Y859157D01*
X1486089Y859188D01*
X1486005Y859250D01*
X1485995Y859261D01*
X1485974Y859292D01*
X1485932Y859334D01*
X1485880Y859407D01*
X1485828Y859490D01*
X1485766Y859594D01*
X1485714Y859708D01*
X1485662Y859844D01*
X1485651Y859865D01*
X1485641Y859906D01*
X1485620Y859979D01*
X1485589Y860073D01*
X1485547Y860188D01*
X1485516Y860302D01*
X1485433Y860542D01*
Y860552D01*
X1485412Y860594D01*
X1485391Y860656D01*
X1485360Y860740D01*
X1485318Y860844D01*
X1485276Y860948D01*
X1485162Y861187D01*
X1485152Y861198D01*
X1485131Y861239D01*
X1485099Y861302D01*
X1485058Y861364D01*
X1484954Y861521D01*
X1484891Y861593D01*
X1484829Y861656D01*
X1484818Y861666D01*
X1484808Y861677D01*
X1484745Y861729D01*
X1484672Y861802D01*
X1484599Y861864D01*
X1484589Y861875D01*
X1484558Y861927D01*
X1484516Y861989D01*
X1484475Y862073D01*
Y862083D01*
Y862093D01*
X1484464Y862156D01*
X1484475Y862229D01*
X1484516Y862302D01*
X1484527Y862312D01*
X1484558Y862354D01*
X1484610Y862385D01*
X1484662Y862416D01*
X1484672Y862427D01*
X1484714Y862437D01*
X1484787Y862447D01*
X1484881Y862468D01*
X1484995Y862479D01*
X1485131D01*
X1485287Y862458D01*
X1485464Y862427D01*
X1485506D01*
X1485547Y862416D01*
X1485610Y862427D01*
X1485683Y862437D01*
X1485776Y862458D01*
X1485891Y862499D01*
X1486016Y862562D01*
X1486037Y862572D01*
X1486078Y862593D01*
X1486141Y862624D01*
X1486214Y862656D01*
X1486307Y862676D01*
X1486401Y862697D01*
X1486485D01*
X1486568Y862676D01*
D02*
G37*
G36*
X1449442Y862604D02*
X1449452D01*
X1449483Y862593D01*
X1449536Y862572D01*
X1449588Y862541D01*
X1449650Y862489D01*
X1449702Y862406D01*
X1449754Y862312D01*
X1449785Y862187D01*
Y862166D01*
X1449796Y862114D01*
X1449806Y862020D01*
X1449817Y861958D01*
X1449827Y861885D01*
X1449838Y861802D01*
Y861708D01*
X1449848Y861604D01*
X1449858Y861489D01*
Y861364D01*
X1449869Y861218D01*
X1449879Y861062D01*
Y860896D01*
Y860875D01*
Y860833D01*
Y860750D01*
Y860646D01*
Y860531D01*
Y860396D01*
Y860240D01*
X1449869Y860083D01*
X1449848Y859771D01*
X1449827Y859615D01*
X1449806Y859469D01*
X1449785Y859334D01*
X1449754Y859209D01*
X1449713Y859115D01*
X1449671Y859042D01*
X1449661D01*
X1449650Y859021D01*
X1449588Y858990D01*
X1449483Y858959D01*
X1449359D01*
X1449296Y858969D01*
X1449223Y859000D01*
X1449150Y859042D01*
X1449077Y859105D01*
X1449005Y859188D01*
X1448921Y859302D01*
X1448859Y859438D01*
X1448786Y859604D01*
Y859615D01*
X1448775Y859636D01*
X1448765Y859667D01*
X1448744Y859719D01*
X1448723Y859792D01*
X1448703Y859885D01*
X1448671Y859990D01*
X1448640Y860115D01*
Y860125D01*
X1448630Y860156D01*
X1448619Y860198D01*
X1448598Y860250D01*
X1448578Y860323D01*
X1448557Y860406D01*
X1448494Y860583D01*
X1448432Y860760D01*
X1448359Y860937D01*
X1448328Y861021D01*
X1448286Y861094D01*
X1448255Y861156D01*
X1448223Y861198D01*
Y861208D01*
X1448203Y861229D01*
X1448182Y861260D01*
X1448150Y861312D01*
X1448088Y861427D01*
X1448026Y861573D01*
X1447973Y861729D01*
X1447953Y861812D01*
Y861895D01*
Y861968D01*
X1447973Y862041D01*
X1448005Y862104D01*
X1448057Y862166D01*
X1448067Y862177D01*
X1448098Y862187D01*
X1448140Y862208D01*
X1448192Y862218D01*
X1448255Y862239D01*
X1448338Y862250D01*
X1448421D01*
X1448505Y862239D01*
X1448536D01*
X1448567Y862250D01*
X1448619Y862260D01*
X1448682Y862281D01*
X1448754Y862312D01*
X1448827Y862364D01*
X1448921Y862437D01*
X1448932Y862447D01*
X1448963Y862468D01*
X1449015Y862499D01*
X1449077Y862541D01*
X1449161Y862572D01*
X1449244Y862604D01*
X1449338Y862614D01*
X1449442Y862604D01*
D02*
G37*
G36*
X1482964Y862635D02*
X1483037D01*
X1483194Y862593D01*
X1483266Y862572D01*
X1483329Y862531D01*
X1483339D01*
X1483360Y862510D01*
X1483381Y862479D01*
X1483412Y862447D01*
X1483444Y862395D01*
X1483475Y862322D01*
X1483485Y862239D01*
X1483496Y862145D01*
Y862135D01*
Y862125D01*
X1483485Y862062D01*
X1483475Y861979D01*
X1483444Y861864D01*
Y861854D01*
X1483433Y861843D01*
X1483402Y861791D01*
X1483339Y861739D01*
X1483298Y861729D01*
X1483246Y861718D01*
X1483152D01*
X1483079Y861729D01*
X1482996Y861739D01*
X1482985Y861750D01*
X1482944Y861760D01*
X1482881Y861791D01*
X1482798Y861823D01*
X1482777Y861833D01*
X1482725Y861854D01*
X1482663Y861885D01*
X1482612Y861907D01*
X1482631Y861885D01*
X1482663Y861833D01*
X1482694Y861760D01*
X1482725Y861687D01*
X1482746Y861604D01*
Y861583D01*
X1482756Y861521D01*
X1482777Y861427D01*
X1482787Y861312D01*
X1482798Y861177D01*
Y861031D01*
X1482787Y860885D01*
X1482767Y860729D01*
Y860719D01*
Y860708D01*
X1482756Y860646D01*
X1482746Y860552D01*
X1482735Y860448D01*
X1482725Y860208D01*
Y860094D01*
X1482735Y860000D01*
Y859990D01*
X1482746Y859948D01*
Y859917D01*
Y859875D01*
X1482756Y859823D01*
Y859761D01*
X1482767Y859688D01*
X1482777Y859594D01*
X1482787Y859500D01*
X1482798Y859375D01*
X1482808Y859240D01*
X1482819Y859094D01*
X1482829Y858917D01*
X1482840Y858730D01*
Y858719D01*
Y858678D01*
X1482850Y858625D01*
Y858542D01*
X1482860Y858448D01*
Y858324D01*
X1482871Y858188D01*
X1482881Y858042D01*
Y857876D01*
X1482892Y857699D01*
Y857501D01*
X1482902Y857303D01*
X1482912Y856865D01*
Y856397D01*
Y856386D01*
Y856355D01*
Y856314D01*
Y856251D01*
Y856178D01*
X1482923Y856095D01*
Y855907D01*
Y855699D01*
X1482933Y855491D01*
X1482944Y855303D01*
Y855210D01*
X1482954Y855137D01*
Y855126D01*
X1482964Y855085D01*
X1482975Y855022D01*
X1482985Y854949D01*
X1482996Y854876D01*
X1483017Y854814D01*
X1483027Y854762D01*
X1483048Y854731D01*
X1483058Y854720D01*
X1483089Y854699D01*
X1483131Y854647D01*
X1483183Y854585D01*
X1483235Y854501D01*
X1483277Y854408D01*
X1483319Y854293D01*
X1483339Y854158D01*
Y854147D01*
Y854095D01*
Y854033D01*
Y853960D01*
X1483319Y853877D01*
X1483298Y853793D01*
X1483256Y853720D01*
X1483194Y853668D01*
X1483173Y853658D01*
X1483121Y853648D01*
X1483027Y853627D01*
X1482892Y853616D01*
X1482808Y853627D01*
X1482715D01*
X1482610Y853648D01*
X1482496Y853668D01*
X1482371Y853700D01*
X1482236Y853741D01*
X1482079Y853804D01*
X1481923Y853866D01*
X1481913D01*
X1481882Y853887D01*
X1481840Y853908D01*
X1481777Y853929D01*
X1481715Y853970D01*
X1481631Y854012D01*
X1481454Y854106D01*
X1481257Y854220D01*
X1481069Y854345D01*
X1480903Y854481D01*
X1480830Y854543D01*
X1480767Y854606D01*
X1480757Y854616D01*
X1480715Y854668D01*
X1480663Y854731D01*
X1480590Y854835D01*
X1480507Y854949D01*
X1480413Y855106D01*
X1480309Y855272D01*
X1480194Y855460D01*
X1480090Y855678D01*
X1479986Y855907D01*
X1479882Y856168D01*
X1479788Y856439D01*
X1479705Y856730D01*
X1479642Y857032D01*
X1479590Y857355D01*
X1479559Y857688D01*
Y857699D01*
Y857709D01*
Y857772D01*
Y857865D01*
Y857990D01*
X1479570Y858146D01*
X1479580Y858324D01*
X1479590Y858521D01*
X1479622Y858730D01*
X1479663Y858959D01*
X1479715Y859198D01*
X1479778Y859438D01*
X1479851Y859677D01*
X1479944Y859917D01*
X1480059Y860156D01*
X1480194Y860375D01*
X1480351Y860583D01*
X1480361Y860594D01*
X1480382Y860625D01*
X1480423Y860667D01*
X1480476Y860719D01*
X1480528Y860792D01*
X1480600Y860864D01*
X1480757Y861041D01*
X1480934Y861229D01*
X1481111Y861416D01*
X1481288Y861583D01*
X1481361Y861656D01*
X1481434Y861708D01*
X1481454Y861718D01*
X1481496Y861750D01*
X1481579Y861802D01*
X1481684Y861854D01*
X1481809Y861916D01*
X1481954Y861979D01*
X1482121Y862031D01*
X1482308Y862062D01*
X1482354D01*
X1482413Y862020D01*
X1482475Y861968D01*
X1482538Y861937D01*
X1482579Y861927D01*
X1482590Y861916D01*
X1482612Y861907D01*
X1482558Y861968D01*
X1482486Y862020D01*
X1482423Y862052D01*
X1482361Y862062D01*
X1482354D01*
X1482340Y862073D01*
X1482288Y862145D01*
X1482246Y862239D01*
X1482225Y862343D01*
Y862354D01*
X1482236Y862395D01*
X1482256Y862437D01*
X1482308Y862499D01*
X1482381Y862551D01*
X1482433Y862572D01*
X1482496Y862604D01*
X1482569Y862614D01*
X1482652Y862635D01*
X1482746Y862645D01*
X1482912D01*
X1482964Y862635D01*
D02*
G37*
G36*
X1463345Y862624D02*
X1463397Y862604D01*
X1463470Y862562D01*
X1463574Y862520D01*
X1463699Y862458D01*
X1463844Y862385D01*
X1464001Y862302D01*
X1464167Y862218D01*
X1464511Y862031D01*
X1464844Y861833D01*
X1464990Y861729D01*
X1465136Y861625D01*
X1465250Y861531D01*
X1465354Y861437D01*
X1465365Y861427D01*
X1465375Y861416D01*
X1465396Y861385D01*
X1465427Y861344D01*
X1465459Y861302D01*
X1465500Y861239D01*
X1465542Y861167D01*
X1465594Y861083D01*
X1465636Y860989D01*
X1465677Y860885D01*
X1465719Y860771D01*
X1465750Y860656D01*
X1465802Y860375D01*
X1465823Y860219D01*
Y860052D01*
Y860042D01*
Y860021D01*
Y859979D01*
X1465813Y859927D01*
Y859865D01*
X1465802Y859792D01*
X1465771Y859615D01*
X1465729Y859417D01*
X1465656Y859219D01*
X1465563Y859021D01*
X1465438Y858834D01*
X1465417Y858813D01*
X1465365Y858761D01*
X1465282Y858688D01*
X1465167Y858615D01*
X1465021Y858532D01*
X1464844Y858459D01*
X1464636Y858407D01*
X1464521Y858396D01*
X1464396Y858386D01*
X1464355D01*
X1464303Y858375D01*
X1464240D01*
X1464115Y858334D01*
X1464053Y858313D01*
X1464011Y858271D01*
X1464001Y858251D01*
X1463990Y858230D01*
X1463980Y858188D01*
Y858136D01*
Y858074D01*
X1464001Y858001D01*
X1464032Y857907D01*
Y857896D01*
Y857886D01*
Y857876D01*
X1464042Y857886D01*
X1464063Y857896D01*
X1464094Y857907D01*
X1464136Y857917D01*
X1464188Y857938D01*
X1464271Y857969D01*
X1464282Y857980D01*
X1464323Y857990D01*
X1464386Y858011D01*
X1464469Y858021D01*
X1464636Y858053D01*
X1464730Y858042D01*
X1464803Y858032D01*
X1464813D01*
X1464834Y858021D01*
X1464875Y858001D01*
X1464938Y857969D01*
X1465011Y857917D01*
X1465105Y857855D01*
X1465209Y857761D01*
X1465334Y857657D01*
X1465354Y857646D01*
X1465396Y857605D01*
X1465459Y857532D01*
X1465531Y857459D01*
X1465604Y857365D01*
X1465677Y857272D01*
X1465729Y857178D01*
X1465761Y857084D01*
Y857074D01*
X1465771Y857042D01*
X1465781Y856980D01*
X1465792Y856897D01*
Y856782D01*
Y856636D01*
Y856459D01*
X1465781Y856251D01*
Y856241D01*
Y856230D01*
Y856199D01*
X1465771Y856157D01*
Y856053D01*
X1465761Y855939D01*
Y855814D01*
Y855689D01*
X1465771Y855595D01*
Y855564D01*
X1465781Y855533D01*
X1465792Y855512D01*
X1465823Y855501D01*
X1465854Y855480D01*
X1465906Y855460D01*
X1465969Y855439D01*
X1466063Y855428D01*
X1466167Y855418D01*
X1466208D01*
X1466250Y855407D01*
X1466302Y855397D01*
X1466365Y855376D01*
X1466427Y855355D01*
X1466479Y855314D01*
X1466531Y855262D01*
X1466573Y855199D01*
X1466604Y855116D01*
X1466615Y855022D01*
X1466604Y854908D01*
X1466562Y854762D01*
X1466490Y854606D01*
X1466385Y854418D01*
X1466313Y854314D01*
X1466240Y854200D01*
X1466229Y854189D01*
X1466188Y854147D01*
X1466125Y854085D01*
X1466052Y854012D01*
X1465969Y853939D01*
X1465875Y853866D01*
X1465771Y853793D01*
X1465677Y853752D01*
X1465667D01*
X1465625Y853741D01*
X1465563Y853720D01*
X1465469Y853710D01*
X1465344Y853689D01*
X1465188Y853668D01*
X1464990Y853658D01*
X1464532D01*
X1464396Y853668D01*
X1464251Y853679D01*
X1464105Y853689D01*
X1463959Y853710D01*
X1463844Y853731D01*
X1463834D01*
X1463803Y853752D01*
X1463751Y853773D01*
X1463678Y853804D01*
X1463595Y853856D01*
X1463511Y853908D01*
X1463407Y853981D01*
X1463303Y854074D01*
X1463293Y854095D01*
X1463251Y854137D01*
X1463199Y854200D01*
X1463126Y854283D01*
X1463053Y854387D01*
X1462991Y854491D01*
X1462938Y854595D01*
X1462897Y854699D01*
Y854710D01*
X1462886Y854751D01*
X1462876Y854835D01*
X1462865Y854939D01*
X1462855Y855012D01*
Y855095D01*
X1462845Y855178D01*
Y855283D01*
Y855397D01*
X1462834Y855522D01*
Y855657D01*
Y855814D01*
Y855824D01*
Y855845D01*
Y855887D01*
Y855939D01*
Y856001D01*
Y856074D01*
X1462824Y856251D01*
X1462813Y856439D01*
X1462793Y856647D01*
X1462761Y856845D01*
X1462730Y857022D01*
Y857032D01*
Y857042D01*
X1462709Y857095D01*
X1462688Y857178D01*
X1462668Y857272D01*
X1462636Y857365D01*
X1462595Y857459D01*
X1462563Y857542D01*
X1462522Y857605D01*
Y857615D01*
X1462511Y857626D01*
X1462491Y857657D01*
X1462480Y857699D01*
X1462470Y857761D01*
X1462459Y857824D01*
X1462449Y857896D01*
X1462459Y857980D01*
Y857990D01*
X1462470Y858021D01*
X1462480Y858074D01*
X1462511Y858157D01*
X1462553Y858251D01*
X1462605Y858365D01*
X1462688Y858501D01*
X1462782Y858646D01*
Y858657D01*
X1462793Y858667D01*
X1462834Y858730D01*
X1462886Y858823D01*
X1462949Y858948D01*
X1463001Y859094D01*
X1463042Y859250D01*
X1463063Y859427D01*
X1463053Y859511D01*
X1463042Y859604D01*
Y859615D01*
Y859625D01*
X1463032Y859688D01*
X1463022Y859761D01*
Y859865D01*
Y859958D01*
X1463032Y860052D01*
X1463053Y860125D01*
X1463095Y860177D01*
X1463105Y860188D01*
X1463115Y860198D01*
X1463147Y860240D01*
X1463168Y860302D01*
X1463199Y860385D01*
X1463220Y860510D01*
X1463230Y860583D01*
X1463240Y860667D01*
X1463251Y860760D01*
Y860864D01*
Y860875D01*
Y860885D01*
Y860917D01*
Y860958D01*
Y861052D01*
Y861123D01*
X1463230Y861094D01*
X1463220Y861083D01*
X1463199Y861073D01*
X1463157Y861052D01*
X1463105Y861041D01*
X1463032Y861031D01*
X1462949Y861041D01*
X1462845Y861073D01*
X1462730Y861135D01*
X1462720Y861146D01*
X1462678Y861177D01*
X1462626Y861218D01*
X1462574Y861281D01*
X1462511Y861344D01*
X1462459Y861427D01*
X1462418Y861510D01*
X1462407Y861604D01*
Y861614D01*
X1462418Y861656D01*
X1462428Y861708D01*
X1462449Y861770D01*
X1462491Y861833D01*
X1462553Y861885D01*
X1462626Y861927D01*
X1462740Y861937D01*
X1462782D01*
X1462824Y861916D01*
X1462886Y861895D01*
X1462959Y861854D01*
X1463007Y861820D01*
X1462980Y861937D01*
X1462970Y862104D01*
Y862114D01*
Y862124D01*
X1462980Y862187D01*
X1462991Y862270D01*
X1463011Y862374D01*
X1463053Y862468D01*
X1463115Y862551D01*
X1463209Y862614D01*
X1463261Y862624D01*
X1463324Y862635D01*
X1463345Y862624D01*
D02*
G37*
G36*
X1418210Y862635D02*
X1418252Y862624D01*
X1418346Y862583D01*
X1418377Y862551D01*
X1418398Y862499D01*
Y862489D01*
Y862479D01*
X1418408Y862416D01*
X1418419Y862333D01*
X1418408Y862260D01*
Y862250D01*
X1418398Y862208D01*
X1418387Y862145D01*
X1418377Y862083D01*
Y862073D01*
X1418367Y862041D01*
X1418335Y861958D01*
Y861947D01*
Y861937D01*
X1418325Y861927D01*
Y861916D01*
Y861885D01*
X1418304Y861843D01*
X1418283Y861802D01*
X1418241Y861760D01*
X1418179Y861718D01*
X1418085Y861687D01*
X1417971Y861677D01*
X1417960D01*
X1417919Y861687D01*
X1417867Y861708D01*
X1417804Y861760D01*
X1417762Y861833D01*
X1417742Y861885D01*
X1417721Y861937D01*
Y862010D01*
Y862093D01*
X1417731Y862187D01*
X1417752Y862302D01*
X1417762Y862312D01*
X1417773Y862354D01*
X1417804Y862406D01*
X1417856Y862479D01*
X1417908Y862541D01*
X1417971Y862593D01*
X1418054Y862635D01*
X1418137Y862645D01*
X1418179D01*
X1418210Y862635D01*
D02*
G37*
G36*
X1410952Y862614D02*
X1411025Y862593D01*
X1411108Y862562D01*
X1411223Y862499D01*
X1411368Y862427D01*
X1411545Y862322D01*
X1411556Y862312D01*
X1411597Y862291D01*
X1411660Y862250D01*
X1411743Y862197D01*
X1411837Y862135D01*
X1411951Y862062D01*
X1412066Y861979D01*
X1412201Y861875D01*
X1412472Y861656D01*
X1412733Y861396D01*
X1412858Y861260D01*
X1412982Y861114D01*
X1413087Y860969D01*
X1413170Y860812D01*
X1413180Y860802D01*
X1413191Y860771D01*
X1413212Y860729D01*
X1413243Y860656D01*
X1413274Y860573D01*
X1413305Y860469D01*
X1413347Y860344D01*
X1413389Y860208D01*
X1413430Y860042D01*
X1413472Y859865D01*
X1413503Y859677D01*
X1413534Y859459D01*
X1413566Y859229D01*
X1413586Y858979D01*
X1413607Y858709D01*
Y858428D01*
Y858407D01*
Y858355D01*
Y858282D01*
X1413597Y858167D01*
Y858042D01*
X1413586Y857886D01*
X1413576Y857719D01*
X1413555Y857542D01*
X1413514Y857157D01*
X1413441Y856761D01*
X1413347Y856376D01*
X1413284Y856199D01*
X1413212Y856032D01*
Y856022D01*
X1413191Y855991D01*
X1413170Y855949D01*
X1413139Y855887D01*
X1413087Y855814D01*
X1413035Y855730D01*
X1412962Y855626D01*
X1412878Y855522D01*
X1412785Y855397D01*
X1412680Y855272D01*
X1412556Y855137D01*
X1412420Y854991D01*
X1412264Y854845D01*
X1412097Y854699D01*
X1411910Y854543D01*
X1411712Y854387D01*
X1411691Y854377D01*
X1411639Y854335D01*
X1411545Y854272D01*
X1411431Y854210D01*
X1411285Y854137D01*
X1411129Y854064D01*
X1410941Y854002D01*
X1410743Y853960D01*
X1410723D01*
X1410660Y853950D01*
X1410566D01*
X1410452Y853960D01*
X1410327Y853981D01*
X1410191Y854022D01*
X1410077Y854095D01*
X1409973Y854200D01*
Y854210D01*
X1409962Y854252D01*
Y854314D01*
X1409952Y854377D01*
Y854449D01*
Y854512D01*
Y854564D01*
X1409962Y854585D01*
X1409973Y854595D01*
X1409983Y854616D01*
X1409994Y854658D01*
X1410004Y854710D01*
X1410025Y854783D01*
X1410056Y854876D01*
X1410077Y855001D01*
Y855022D01*
X1410087Y855064D01*
X1410108Y855147D01*
X1410129Y855251D01*
X1410150Y855366D01*
X1410181Y855501D01*
X1410212Y855647D01*
X1410244Y855803D01*
Y855824D01*
X1410254Y855845D01*
Y855887D01*
X1410264Y855928D01*
X1410275Y855991D01*
X1410285Y856064D01*
X1410296Y856147D01*
X1410306Y856241D01*
X1410316Y856345D01*
X1410337Y856470D01*
X1410348Y856595D01*
X1410368Y856751D01*
X1410379Y856907D01*
X1410400Y857084D01*
X1410410Y857272D01*
Y857282D01*
Y857324D01*
X1410421Y857376D01*
X1410431Y857459D01*
Y857563D01*
X1410441Y857678D01*
X1410452Y857813D01*
X1410462Y857969D01*
X1410473Y858146D01*
X1410483Y858323D01*
X1410493Y858521D01*
X1410504Y858740D01*
X1410514Y858959D01*
X1410525Y859188D01*
X1410546Y859677D01*
Y859688D01*
Y859719D01*
Y859781D01*
Y859844D01*
X1410556Y859927D01*
Y860021D01*
X1410566Y860229D01*
X1410577Y860437D01*
X1410598Y860625D01*
X1410608Y860708D01*
X1410618Y860781D01*
X1410639Y860833D01*
X1410650Y860864D01*
X1410660Y860875D01*
X1410670Y860906D01*
X1410691Y860958D01*
X1410723Y861031D01*
X1410743Y861114D01*
X1410775Y861208D01*
X1410798Y861292D01*
X1410754Y861271D01*
X1410691Y861260D01*
X1410618Y861250D01*
X1410608D01*
X1410566Y861260D01*
X1410504Y861271D01*
X1410421Y861302D01*
X1410348Y861344D01*
X1410264Y861416D01*
X1410191Y861510D01*
X1410129Y861635D01*
X1410119Y861656D01*
X1410098Y861718D01*
X1410087Y861760D01*
X1410056Y861812D01*
X1410025Y861885D01*
X1409994Y861958D01*
Y861968D01*
Y861979D01*
X1409973Y862041D01*
X1409962Y862124D01*
Y862229D01*
Y862322D01*
X1409994Y862406D01*
X1410046Y862468D01*
X1410087Y862479D01*
X1410129Y862489D01*
X1410150D01*
X1410181Y862479D01*
X1410223Y862468D01*
X1410285Y862437D01*
X1410358Y862406D01*
X1410441Y862354D01*
X1410535Y862291D01*
X1410556Y862281D01*
X1410598Y862250D01*
X1410608Y862241D01*
Y862229D01*
X1410618Y862114D01*
X1410660Y862010D01*
X1410702Y861927D01*
X1410764Y861864D01*
X1410816Y861812D01*
X1410868Y861781D01*
X1410900Y861760D01*
X1410910Y861750D01*
X1410900Y861739D01*
X1410889Y861708D01*
X1410868Y861656D01*
X1410858Y861604D01*
X1410848Y861541D01*
X1410837Y861489D01*
X1410827Y861448D01*
Y861437D01*
X1410806Y861323D01*
X1410798Y861292D01*
X1410858Y861323D01*
X1410931Y861396D01*
X1410972Y861489D01*
X1410993Y861573D01*
X1411004Y861646D01*
Y861698D01*
Y861718D01*
X1410962Y861833D01*
X1410900Y861947D01*
X1410816Y862041D01*
X1410743Y862124D01*
X1410660Y862197D01*
X1410608Y862241D01*
Y862250D01*
Y862291D01*
X1410618Y862354D01*
X1410639Y862437D01*
X1410670Y862510D01*
X1410723Y862572D01*
X1410785Y862614D01*
X1410879Y862635D01*
X1410910D01*
X1410952Y862614D01*
D02*
G37*
G36*
X1426271Y862499D02*
X1426364Y862489D01*
X1426469Y862468D01*
X1426562Y862437D01*
X1426656Y862395D01*
X1426729Y862343D01*
X1426750Y862333D01*
X1426781Y862312D01*
X1426823Y862291D01*
X1426885Y862260D01*
X1426979Y862229D01*
X1427083Y862197D01*
X1427218Y862156D01*
X1427239D01*
X1427281Y862135D01*
X1427354Y862114D01*
X1427448Y862073D01*
X1427635Y861979D01*
X1427718Y861916D01*
X1427791Y861854D01*
X1427802Y861843D01*
X1427822Y861812D01*
X1427854Y861770D01*
X1427895Y861698D01*
X1427947Y861593D01*
X1427999Y861469D01*
X1428062Y861312D01*
X1428114Y861125D01*
X1428124Y861104D01*
X1428145Y861041D01*
X1428166Y860948D01*
X1428197Y860833D01*
X1428228Y860687D01*
X1428249Y860510D01*
X1428260Y860333D01*
Y860135D01*
Y860125D01*
Y860115D01*
X1428249Y860052D01*
X1428228Y859969D01*
X1428197Y859875D01*
X1428145Y859771D01*
X1428062Y859688D01*
X1427958Y859625D01*
X1427895Y859615D01*
X1427822Y859604D01*
X1427781D01*
X1427739Y859615D01*
X1427677Y859636D01*
X1427604Y859656D01*
X1427541Y859698D01*
X1427468Y859761D01*
X1427395Y859834D01*
X1427385Y859844D01*
X1427364Y859875D01*
X1427333Y859917D01*
X1427291Y859979D01*
X1427239Y860052D01*
X1427198Y860125D01*
X1427093Y860302D01*
Y860312D01*
X1427073Y860344D01*
X1427041Y860396D01*
X1427000Y860458D01*
X1426948Y860542D01*
X1426875Y860635D01*
X1426791Y860729D01*
X1426698Y860833D01*
X1426687Y860844D01*
X1426646Y860885D01*
X1426583Y860937D01*
X1426500Y861010D01*
X1426385Y861083D01*
X1426250Y861177D01*
X1426104Y861271D01*
X1425927Y861364D01*
X1425917Y861375D01*
X1425885Y861385D01*
X1425854Y861406D01*
X1425802Y861437D01*
X1425677Y861531D01*
X1425542Y861646D01*
X1425479Y861718D01*
X1425427Y861791D01*
X1425385Y861875D01*
X1425365Y861958D01*
X1425354Y862052D01*
X1425365Y862145D01*
X1425396Y862250D01*
X1425458Y862354D01*
X1425469Y862364D01*
X1425500Y862374D01*
X1425542Y862406D01*
X1425615Y862437D01*
X1425708Y862458D01*
X1425823Y862489D01*
X1425958Y862499D01*
X1426115Y862510D01*
X1426187D01*
X1426271Y862499D01*
D02*
G37*
G36*
X1477976Y862541D02*
X1478143Y862531D01*
X1478185D01*
X1478226Y862520D01*
X1478289D01*
X1478372Y862510D01*
X1478455Y862510D01*
X1478643Y862479D01*
X1478841Y862447D01*
X1479028Y862406D01*
X1479111Y862385D01*
X1479184Y862354D01*
X1479247Y862322D01*
X1479299Y862291D01*
X1479309Y862281D01*
X1479320Y862250D01*
X1479340Y862197D01*
X1479361Y862145D01*
X1479372Y862073D01*
Y861989D01*
X1479351Y861916D01*
X1479309Y861833D01*
X1479299Y861823D01*
X1479288Y861802D01*
X1479257Y861760D01*
X1479216Y861718D01*
X1479101Y861604D01*
X1478955Y861479D01*
X1478945Y861469D01*
X1478924Y861448D01*
X1478882Y861416D01*
X1478841Y861354D01*
X1478778Y861291D01*
X1478716Y861198D01*
X1478653Y861104D01*
X1478591Y860979D01*
X1478580Y860969D01*
X1478570Y860917D01*
X1478539Y860854D01*
X1478518Y860750D01*
X1478486Y860635D01*
X1478455Y860500D01*
X1478445Y860344D01*
X1478434Y860177D01*
Y860167D01*
Y860146D01*
Y860104D01*
X1478424Y860052D01*
X1478414Y859927D01*
X1478382Y859781D01*
X1478330Y859636D01*
X1478257Y859511D01*
X1478205Y859459D01*
X1478153Y859417D01*
X1478080Y859396D01*
X1478008Y859386D01*
X1477987D01*
X1477945Y859396D01*
X1477872Y859427D01*
X1477799Y859500D01*
X1477758Y859542D01*
X1477726Y859604D01*
X1477685Y859667D01*
X1477653Y859750D01*
X1477633Y859854D01*
X1477612Y859969D01*
X1477591Y860104D01*
Y860260D01*
Y860281D01*
Y860323D01*
Y860396D01*
X1477581Y860479D01*
X1477560Y860667D01*
X1477539Y860750D01*
X1477508Y860823D01*
Y860833D01*
X1477487Y860854D01*
X1477466Y860896D01*
X1477414Y860958D01*
X1477362Y861041D01*
X1477278Y861135D01*
X1477174Y861250D01*
X1477039Y861385D01*
X1476373Y862229D01*
X1476935Y862479D01*
X1476945D01*
X1476997Y862499D01*
X1477070Y862510D01*
X1477122Y862520D01*
X1477195Y862531D01*
X1477268D01*
X1477351Y862541D01*
X1477455Y862551D01*
X1477820D01*
X1477976Y862541D01*
D02*
G37*
G36*
X1435029D02*
X1435195Y862531D01*
X1435237D01*
X1435279Y862520D01*
X1435341D01*
X1435425Y862510D01*
X1435508D01*
X1435695Y862479D01*
X1435893Y862447D01*
X1436081Y862406D01*
X1436164Y862385D01*
X1436237Y862354D01*
X1436299Y862322D01*
X1436351Y862291D01*
X1436362Y862281D01*
X1436372Y862250D01*
X1436393Y862197D01*
X1436414Y862145D01*
X1436424Y862073D01*
Y861989D01*
X1436404Y861916D01*
X1436362Y861833D01*
X1436351Y861823D01*
X1436341Y861802D01*
X1436310Y861760D01*
X1436268Y861718D01*
X1436154Y861604D01*
X1436008Y861479D01*
X1435997Y861469D01*
X1435977Y861448D01*
X1435935Y861416D01*
X1435893Y861354D01*
X1435831Y861291D01*
X1435768Y861198D01*
X1435706Y861104D01*
X1435643Y860979D01*
X1435633Y860969D01*
X1435623Y860917D01*
X1435591Y860854D01*
X1435570Y860750D01*
X1435539Y860635D01*
X1435508Y860500D01*
X1435497Y860344D01*
X1435487Y860177D01*
Y860167D01*
Y860146D01*
Y860104D01*
X1435477Y860052D01*
X1435466Y859927D01*
X1435435Y859781D01*
X1435383Y859636D01*
X1435310Y859511D01*
X1435258Y859459D01*
X1435206Y859417D01*
X1435133Y859396D01*
X1435060Y859386D01*
X1435039D01*
X1434998Y859396D01*
X1434925Y859427D01*
X1434852Y859500D01*
X1434810Y859542D01*
X1434779Y859604D01*
X1434737Y859667D01*
X1434706Y859750D01*
X1434685Y859854D01*
X1434664Y859969D01*
X1434644Y860104D01*
Y860260D01*
Y860281D01*
Y860323D01*
Y860396D01*
X1434633Y860479D01*
X1434612Y860667D01*
X1434592Y860750D01*
X1434560Y860823D01*
Y860833D01*
X1434539Y860854D01*
X1434519Y860896D01*
X1434467Y860958D01*
X1434415Y861041D01*
X1434331Y861135D01*
X1434227Y861250D01*
X1434092Y861385D01*
X1433425Y862229D01*
X1433987Y862479D01*
X1433998D01*
X1434050Y862499D01*
X1434123Y862510D01*
X1434175Y862520D01*
X1434248Y862531D01*
X1434321D01*
X1434404Y862541D01*
X1434508Y862551D01*
X1434873D01*
X1435029Y862541D01*
D02*
G37*
G36*
X1477945Y858917D02*
X1477997Y858896D01*
X1478060Y858865D01*
X1478122Y858802D01*
X1478174Y858730D01*
X1478216Y858625D01*
Y858605D01*
Y858563D01*
Y858501D01*
X1478205Y858438D01*
X1478174Y858365D01*
X1478122Y858303D01*
X1478039Y858261D01*
X1477935Y858240D01*
X1477924D01*
X1477883Y858251D01*
X1477830Y858261D01*
X1477768Y858282D01*
X1477695Y858323D01*
X1477643Y858386D01*
X1477601Y858469D01*
X1477591Y858584D01*
Y858594D01*
Y858636D01*
X1477601Y858698D01*
X1477622Y858761D01*
X1477653Y858823D01*
X1477706Y858886D01*
X1477768Y858927D01*
X1477862Y858938D01*
X1477903D01*
X1477945Y858917D01*
D02*
G37*
G36*
X1434998D02*
X1435050Y858896D01*
X1435112Y858865D01*
X1435175Y858802D01*
X1435227Y858730D01*
X1435268Y858625D01*
Y858605D01*
Y858563D01*
Y858501D01*
X1435258Y858438D01*
X1435227Y858365D01*
X1435175Y858303D01*
X1435091Y858261D01*
X1434987Y858240D01*
X1434977D01*
X1434935Y858251D01*
X1434883Y858261D01*
X1434821Y858282D01*
X1434748Y858323D01*
X1434696Y858386D01*
X1434654Y858469D01*
X1434644Y858584D01*
Y858594D01*
Y858636D01*
X1434654Y858698D01*
X1434675Y858761D01*
X1434706Y858823D01*
X1434758Y858886D01*
X1434821Y858927D01*
X1434914Y858938D01*
X1434956D01*
X1434998Y858917D01*
D02*
G37*
G36*
X1419241Y862250D02*
X1419418Y862208D01*
X1419627Y862156D01*
X1419856Y862083D01*
X1420116Y861979D01*
X1420126D01*
X1420147Y861958D01*
X1420189Y861947D01*
X1420241Y861916D01*
X1420366Y861843D01*
X1420522Y861750D01*
X1420689Y861625D01*
X1420855Y861489D01*
X1421001Y861344D01*
X1421064Y861260D01*
X1421116Y861177D01*
X1421126Y861156D01*
X1421137Y861125D01*
X1421157Y861094D01*
X1421178Y861041D01*
X1421199Y860989D01*
X1421220Y860917D01*
X1421241Y860844D01*
X1421262Y860750D01*
X1421282Y860646D01*
X1421303Y860531D01*
X1421324Y860417D01*
X1421345Y860281D01*
X1421355Y860135D01*
X1421366Y859979D01*
Y859813D01*
Y859802D01*
Y859781D01*
Y859740D01*
Y859688D01*
Y859625D01*
Y859563D01*
X1421355Y859407D01*
X1421345Y859229D01*
X1421335Y859052D01*
X1421314Y858896D01*
X1421303Y858834D01*
X1421293Y858771D01*
Y858761D01*
X1421282Y858719D01*
X1421251Y858657D01*
X1421220Y858573D01*
X1421168Y858480D01*
X1421105Y858355D01*
X1421022Y858230D01*
X1420907Y858084D01*
Y858074D01*
X1420887Y858063D01*
X1420835Y858001D01*
X1420741Y857907D01*
X1420626Y857792D01*
X1420470Y857657D01*
X1420283Y857522D01*
X1420074Y857386D01*
X1419835Y857261D01*
X1419824D01*
X1419804Y857251D01*
X1419772Y857230D01*
X1419720Y857219D01*
X1419658Y857188D01*
X1419595Y857168D01*
X1419418Y857115D01*
X1419220Y857053D01*
X1418991Y857011D01*
X1418752Y856970D01*
X1418502Y856959D01*
X1418398D01*
X1418283Y856980D01*
X1418158Y857001D01*
X1418012Y857042D01*
X1417887Y857105D01*
X1417773Y857188D01*
X1417721Y857240D01*
X1417690Y857303D01*
Y857324D01*
X1417679Y857365D01*
X1417669Y857438D01*
Y857522D01*
X1417700Y857636D01*
X1417752Y857751D01*
X1417794Y857813D01*
X1417846Y857876D01*
X1417908Y857949D01*
X1417981Y858011D01*
X1417992Y858021D01*
X1418012Y858042D01*
X1418033Y858074D01*
X1418075Y858115D01*
X1418106Y858178D01*
X1418148Y858251D01*
X1418189Y858344D01*
X1418231Y858448D01*
Y858459D01*
X1418252Y858511D01*
X1418262Y858552D01*
X1418273Y858594D01*
X1418283Y858657D01*
X1418304Y858730D01*
X1418314Y858813D01*
X1418335Y858907D01*
X1418356Y859011D01*
X1418377Y859136D01*
X1418408Y859271D01*
X1418429Y859427D01*
X1418450Y859594D01*
X1418481Y859781D01*
Y859792D01*
X1418491Y859823D01*
Y859875D01*
X1418502Y859948D01*
X1418523Y860031D01*
X1418533Y860125D01*
X1418564Y860333D01*
X1418585Y860552D01*
X1418616Y860760D01*
X1418627Y860854D01*
Y860937D01*
X1418637Y861010D01*
Y861062D01*
Y861073D01*
Y861104D01*
Y861146D01*
Y861198D01*
Y861239D01*
Y861291D01*
X1418627Y861323D01*
Y861333D01*
X1418616Y861344D01*
X1418585Y861385D01*
X1418533Y861448D01*
X1418481Y861520D01*
X1418439Y861625D01*
X1418408Y861729D01*
Y861864D01*
X1418429Y862000D01*
Y862010D01*
X1418439Y862020D01*
X1418460Y862052D01*
X1418491Y862083D01*
X1418523Y862124D01*
X1418575Y862156D01*
X1418648Y862197D01*
X1418731Y862229D01*
X1418825Y862250D01*
X1418939Y862260D01*
X1419075D01*
X1419241Y862250D01*
D02*
G37*
G36*
X1426823Y859979D02*
X1426937Y859948D01*
X1426948Y859938D01*
X1426958Y859927D01*
X1426968Y859906D01*
X1426989Y859875D01*
X1427010Y859823D01*
X1427031Y859761D01*
X1427052Y859688D01*
X1427062Y859594D01*
X1427083Y859469D01*
X1427104Y859334D01*
X1427125Y859167D01*
X1427135Y858979D01*
X1427146Y858761D01*
X1427156Y858511D01*
Y858230D01*
Y858209D01*
Y858157D01*
Y858084D01*
Y857980D01*
X1427146Y857855D01*
Y857719D01*
X1427135Y857574D01*
Y857417D01*
X1427104Y857105D01*
X1427093Y856959D01*
X1427073Y856824D01*
X1427041Y856709D01*
X1427021Y856605D01*
X1426989Y856532D01*
X1426948Y856491D01*
X1426927Y856480D01*
X1426885Y856470D01*
X1426823Y856449D01*
X1426729Y856439D01*
X1426635D01*
X1426521Y856470D01*
X1426406Y856522D01*
X1426354Y856563D01*
X1426302Y856616D01*
X1426292Y856626D01*
X1426260Y856668D01*
X1426219Y856740D01*
X1426167Y856834D01*
X1426115Y856949D01*
X1426073Y857074D01*
X1426042Y857230D01*
X1426031Y857397D01*
Y857407D01*
Y857449D01*
Y857511D01*
Y857574D01*
Y857646D01*
X1426021Y857699D01*
Y857740D01*
X1426010Y857761D01*
X1426000Y857772D01*
X1425990Y857792D01*
X1425958Y857844D01*
X1425938Y857917D01*
Y857980D01*
X1425927Y858042D01*
Y858115D01*
X1425938Y858209D01*
X1425948Y858303D01*
X1425969Y858417D01*
X1425990Y858552D01*
X1426021Y858698D01*
Y858709D01*
X1426031Y858730D01*
X1426042Y858782D01*
X1426052Y858834D01*
X1426073Y858896D01*
X1426094Y858979D01*
X1426146Y859146D01*
X1426208Y859334D01*
X1426281Y859521D01*
X1426344Y859688D01*
X1426385Y859761D01*
X1426416Y859823D01*
X1426427Y859834D01*
X1426448Y859865D01*
X1426500Y859896D01*
X1426552Y859938D01*
X1426635Y859969D01*
X1426718Y859990D01*
X1426823Y859979D01*
D02*
G37*
G36*
X1456982Y862635D02*
X1457075D01*
X1457284Y862604D01*
X1457502Y862572D01*
X1457721Y862520D01*
X1457815Y862479D01*
X1457888Y862447D01*
X1457961Y862395D01*
X1458013Y862343D01*
X1458023Y862333D01*
X1458044Y862291D01*
X1458054Y862218D01*
Y862114D01*
X1458033Y861989D01*
X1458002Y861906D01*
X1457961Y861823D01*
X1457919Y861729D01*
X1457846Y861625D01*
X1457763Y861510D01*
X1457669Y861396D01*
X1457284Y860979D01*
X1457242Y858709D01*
Y858698D01*
Y858678D01*
Y858646D01*
Y858605D01*
Y858552D01*
X1457231Y858490D01*
Y858334D01*
X1457221Y858146D01*
X1457211Y857928D01*
X1457200Y857699D01*
X1457180Y857449D01*
X1457138Y856949D01*
X1457117Y856699D01*
X1457086Y856470D01*
X1457054Y856251D01*
X1457013Y856064D01*
X1456971Y855897D01*
X1456950Y855835D01*
X1456929Y855772D01*
Y855762D01*
X1456909Y855730D01*
X1456888Y855678D01*
X1456857Y855605D01*
X1456763Y855460D01*
X1456648Y855314D01*
X1456638Y855303D01*
X1456617Y855283D01*
X1456586Y855262D01*
X1456534Y855230D01*
X1456482Y855199D01*
X1456409Y855178D01*
X1456336Y855168D01*
X1456263D01*
X1456253Y855178D01*
X1456221Y855210D01*
X1456190Y855262D01*
X1456159Y855345D01*
X1456149Y855439D01*
Y855574D01*
X1456190Y855730D01*
X1456221Y855824D01*
X1456263Y855918D01*
Y855928D01*
X1456284Y855939D01*
X1456315Y856001D01*
X1456346Y856084D01*
X1456367Y856178D01*
Y856189D01*
Y856199D01*
Y856262D01*
X1456357Y856355D01*
X1456326Y856491D01*
Y856501D01*
X1456315Y856532D01*
X1456305Y856595D01*
X1456294Y856688D01*
X1456284Y856813D01*
X1456273Y856897D01*
X1456263Y856980D01*
X1456253Y857084D01*
X1456242Y857188D01*
X1456221Y857313D01*
X1456211Y857449D01*
Y857459D01*
Y857480D01*
X1456201Y857522D01*
Y857584D01*
X1456190Y857657D01*
Y857740D01*
X1456180Y857844D01*
Y857959D01*
X1456169Y858084D01*
X1456159Y858230D01*
Y858375D01*
X1456149Y858532D01*
X1456138Y858886D01*
Y859261D01*
Y861052D01*
X1455649Y861458D01*
X1455638Y861469D01*
X1455596Y861500D01*
X1455544Y861552D01*
X1455482Y861604D01*
X1455347Y861750D01*
X1455284Y861833D01*
X1455242Y861906D01*
Y861916D01*
X1455232Y861937D01*
X1455222Y861979D01*
Y862041D01*
Y862104D01*
X1455242Y862177D01*
X1455263Y862250D01*
X1455315Y862333D01*
X1455326Y862343D01*
X1455378Y862385D01*
X1455409Y862406D01*
X1455461Y862437D01*
X1455513Y862458D01*
X1455586Y862489D01*
X1455680Y862520D01*
X1455774Y862551D01*
X1455888Y862572D01*
X1456024Y862593D01*
X1456169Y862614D01*
X1456336Y862635D01*
X1456523Y862645D01*
X1456898D01*
X1456982Y862635D01*
D02*
G37*
G36*
X1427906Y856501D02*
X1427968Y856470D01*
X1428031Y856397D01*
X1428093Y856313D01*
X1428135Y856199D01*
X1428177Y856053D01*
X1428208Y855866D01*
Y855855D01*
X1428218Y855814D01*
Y855762D01*
X1428228Y855678D01*
Y855584D01*
X1428239Y855470D01*
Y855355D01*
Y855220D01*
Y853887D01*
X1427239Y853835D01*
X1427187D01*
X1427146Y853825D01*
X1426666D01*
X1426541Y853835D01*
X1426427Y853845D01*
X1426416D01*
X1426385Y853856D01*
X1426344Y853877D01*
X1426292Y853908D01*
X1426239Y853950D01*
X1426187Y854002D01*
X1426135Y854074D01*
X1426104Y854158D01*
Y854168D01*
X1426094Y854200D01*
X1426083Y854241D01*
Y854304D01*
Y854335D01*
X1426021Y854272D01*
X1425927Y854231D01*
X1425813Y854220D01*
X1425802D01*
X1425760Y854231D01*
X1425698Y854241D01*
X1425636Y854262D01*
X1425573Y854304D01*
X1425511Y854366D01*
X1425469Y854460D01*
X1425458Y854574D01*
Y854585D01*
X1425469Y854626D01*
X1425479Y854689D01*
X1425500Y854751D01*
X1425542Y854814D01*
X1425604Y854876D01*
X1425698Y854918D01*
X1425813Y854929D01*
X1425865D01*
X1425927Y854908D01*
X1425990Y854887D01*
X1426052Y854845D01*
X1426115Y854783D01*
X1426156Y854689D01*
X1426161Y854634D01*
X1426177Y854658D01*
X1426250Y854751D01*
X1426344Y854835D01*
X1426354Y854845D01*
X1426375Y854856D01*
X1426406Y854887D01*
X1426448Y854929D01*
X1426500Y854980D01*
X1426562Y855043D01*
X1426625Y855126D01*
X1426708Y855230D01*
X1426718Y855241D01*
X1426750Y855283D01*
X1426791Y855345D01*
X1426844Y855428D01*
X1426916Y855533D01*
X1426989Y855657D01*
X1427062Y855803D01*
X1427146Y855959D01*
Y855970D01*
X1427166Y856001D01*
X1427187Y856043D01*
X1427218Y856095D01*
X1427260Y856157D01*
X1427302Y856230D01*
X1427416Y856397D01*
X1427427Y856407D01*
X1427448Y856418D01*
X1427479Y856439D01*
X1427520Y856470D01*
X1427635Y856511D01*
X1427697Y856532D01*
X1427833D01*
X1427906Y856501D01*
D02*
G37*
G36*
X1470489Y862593D02*
X1470582Y862583D01*
X1470686Y862562D01*
X1470801Y862531D01*
X1470916Y862489D01*
X1471030Y862427D01*
X1471113Y862354D01*
X1471124Y862343D01*
X1471134Y862322D01*
X1471165Y862291D01*
X1471197Y862250D01*
X1471238Y862135D01*
X1471249Y862062D01*
Y861979D01*
Y861968D01*
Y861947D01*
X1471238Y861906D01*
X1471228Y861864D01*
X1471197Y861770D01*
X1471165Y861729D01*
X1471134Y861698D01*
X1471124Y861687D01*
X1471082Y861646D01*
X1471020Y861573D01*
X1470957Y861469D01*
Y861458D01*
X1470947Y861448D01*
X1470926Y861416D01*
X1470905Y861375D01*
X1470863Y861271D01*
X1470832Y861135D01*
Y861114D01*
X1470822Y861083D01*
Y861031D01*
X1470811Y860958D01*
X1470801Y860854D01*
X1470791Y860729D01*
X1470780Y860573D01*
X1470770Y860375D01*
X1470759Y860146D01*
Y860021D01*
X1470749Y859875D01*
Y859719D01*
Y859563D01*
X1470739Y859386D01*
Y859198D01*
X1470728Y858990D01*
Y858782D01*
Y858552D01*
X1470718Y858313D01*
Y858053D01*
Y857782D01*
Y857772D01*
Y857751D01*
Y857709D01*
Y857657D01*
Y857584D01*
Y857511D01*
Y857417D01*
Y857313D01*
Y857084D01*
Y856834D01*
Y856563D01*
Y856282D01*
Y855991D01*
X1470728Y855710D01*
Y855449D01*
X1470739Y855210D01*
X1470749Y855001D01*
Y854908D01*
Y854835D01*
X1470759Y854762D01*
X1470770Y854710D01*
Y854668D01*
X1470780Y854647D01*
Y854626D01*
X1470791Y854574D01*
X1470780Y854491D01*
X1470759Y854387D01*
X1470707Y854293D01*
X1470676Y854241D01*
X1470624Y854200D01*
X1470561Y854158D01*
X1470489Y854116D01*
X1470395Y854085D01*
X1470291Y854064D01*
X1470270D01*
X1470218Y854054D01*
X1470114Y854043D01*
X1469812D01*
X1469603Y854064D01*
X1469364Y854085D01*
X1469083Y854137D01*
X1469072D01*
X1469051Y854147D01*
X1469010Y854158D01*
X1468958Y854168D01*
X1468895Y854189D01*
X1468822Y854210D01*
X1468709Y854245D01*
X1468708Y854252D01*
X1468635Y854345D01*
X1468551Y854408D01*
X1468447Y854449D01*
X1468333Y854470D01*
X1468250Y854491D01*
X1468145D01*
X1468302Y854397D01*
X1468479Y854324D01*
X1468656Y854262D01*
X1468709Y854245D01*
X1468718Y854200D01*
X1468729Y854137D01*
Y854127D01*
X1468718Y854085D01*
X1468697Y854033D01*
X1468656Y853970D01*
X1468593Y853897D01*
X1468489Y853845D01*
X1468427Y853825D01*
X1468343Y853804D01*
X1468260Y853793D01*
X1468135D01*
X1468073Y853804D01*
X1467979Y853814D01*
X1467875Y853835D01*
X1467771Y853877D01*
X1467677Y853939D01*
X1467614Y854022D01*
X1467604Y854074D01*
X1467603Y854077D01*
X1467594Y854064D01*
X1467531Y854002D01*
X1467448Y853939D01*
X1467354Y853897D01*
X1467239Y853887D01*
X1467177Y853897D01*
X1467104Y853908D01*
X1467094Y853918D01*
X1467073Y853960D01*
X1467041Y854012D01*
X1467010Y854095D01*
X1467000Y854189D01*
Y854304D01*
X1467041Y854429D01*
X1467083Y854491D01*
X1467125Y854564D01*
X1467135Y854574D01*
X1467177Y854595D01*
X1467239Y854626D01*
X1467312Y854658D01*
X1467396Y854668D01*
X1467489D01*
X1467594Y854637D01*
X1467635Y854616D01*
X1467687Y854574D01*
Y854564D01*
X1467698Y854554D01*
X1467708Y854522D01*
Y854481D01*
Y854418D01*
Y854356D01*
X1467666Y854314D01*
X1467625Y854252D01*
X1467604Y854189D01*
X1467594Y854147D01*
Y854137D01*
X1467603Y854077D01*
X1467635Y854116D01*
X1467656Y854158D01*
X1467666Y854179D01*
X1467687Y854272D01*
X1467708Y854356D01*
X1467729Y854377D01*
X1467833Y854439D01*
X1467896Y854460D01*
X1467968Y854481D01*
X1468062Y854491D01*
X1468145D01*
X1468083Y854543D01*
X1468020Y854595D01*
X1468010Y854606D01*
X1467979Y854658D01*
X1467927Y854731D01*
X1467885Y854835D01*
X1467833Y854980D01*
X1467781Y855168D01*
X1467771Y855272D01*
X1467750Y855387D01*
X1467739Y855522D01*
Y855657D01*
Y855668D01*
Y855689D01*
Y855741D01*
Y855814D01*
Y855897D01*
Y856012D01*
Y856157D01*
Y856324D01*
X1467729Y856532D01*
Y856761D01*
X1467718Y857022D01*
Y857313D01*
X1467698Y857646D01*
X1467687Y858011D01*
X1467677Y858417D01*
X1467656Y858865D01*
Y858875D01*
Y858886D01*
Y858948D01*
X1467646Y859042D01*
Y859156D01*
X1467635Y859302D01*
Y859469D01*
X1467625Y859646D01*
X1467614Y859823D01*
X1467604Y860198D01*
X1467594Y860385D01*
X1467583Y860552D01*
X1467573Y860708D01*
X1467562Y860844D01*
X1467552Y860948D01*
X1467541Y861021D01*
Y861031D01*
X1467531Y861073D01*
X1467521Y861135D01*
X1467510Y861198D01*
X1467489Y861354D01*
X1467469Y861427D01*
X1467458Y861489D01*
X1467448Y861500D01*
X1467427Y861520D01*
X1467396Y861562D01*
X1467354Y861604D01*
X1467250Y861739D01*
X1467166Y861885D01*
X1467125Y861968D01*
X1467104Y862041D01*
X1467094Y862124D01*
X1467104Y862197D01*
X1467135Y862270D01*
X1467187Y862333D01*
X1467260Y862395D01*
X1467375Y862437D01*
X1467385D01*
X1467427Y862447D01*
X1467489Y862458D01*
X1467573Y862479D01*
X1467698Y862489D01*
X1467833Y862510D01*
X1468010Y862520D01*
X1468208Y862541D01*
X1468281D01*
X1468364Y862551D01*
X1468479D01*
X1468614Y862562D01*
X1468770D01*
X1468937Y862572D01*
X1469114Y862583D01*
X1469489Y862593D01*
X1469666Y862604D01*
X1470426D01*
X1470489Y862593D01*
D02*
G37*
G36*
X1485433Y858355D02*
X1485568D01*
X1485714Y858344D01*
X1485870Y858334D01*
X1486037Y858313D01*
X1486370Y858271D01*
X1486537Y858240D01*
X1486682Y858198D01*
X1486807Y858157D01*
X1486911Y858105D01*
X1486995Y858042D01*
X1487036Y857969D01*
Y857959D01*
X1487047Y857917D01*
Y857865D01*
Y857782D01*
X1487026Y857688D01*
X1486995Y857574D01*
X1486943Y857438D01*
X1486859Y857282D01*
X1486849Y857272D01*
X1486828Y857220D01*
X1486807Y857178D01*
X1486797Y857126D01*
X1486776Y857074D01*
X1486755Y857001D01*
X1486734Y856918D01*
X1486714Y856813D01*
X1486682Y856709D01*
X1486662Y856584D01*
X1486651Y856439D01*
X1486630Y856282D01*
X1486609Y856105D01*
X1486599Y855918D01*
Y855907D01*
Y855887D01*
Y855835D01*
Y855782D01*
X1486589Y855720D01*
Y855637D01*
X1486578Y855470D01*
X1486557Y855283D01*
X1486547Y855106D01*
X1486516Y854939D01*
X1486505Y854876D01*
X1486485Y854824D01*
Y854814D01*
X1486464Y854783D01*
X1486443Y854741D01*
X1486391Y854679D01*
X1486339Y854616D01*
X1486255Y854543D01*
X1486151Y854460D01*
X1486016Y854387D01*
X1485995Y854377D01*
X1485943Y854345D01*
X1485849Y854304D01*
X1485787Y854283D01*
X1485703Y854262D01*
X1485620Y854231D01*
X1485526Y854210D01*
X1485422Y854179D01*
X1485297Y854158D01*
X1485172Y854127D01*
X1485027Y854106D01*
X1484870Y854095D01*
X1484704Y854074D01*
X1484620D01*
X1484558Y854064D01*
X1484485D01*
X1484402Y854074D01*
X1484235Y854085D01*
X1484048Y854116D01*
X1483891Y854158D01*
X1483819Y854200D01*
X1483756Y854241D01*
X1483714Y854293D01*
X1483694Y854356D01*
Y854366D01*
Y854408D01*
Y854470D01*
Y854533D01*
X1483714Y854595D01*
X1483735Y854658D01*
X1483777Y854699D01*
X1483839Y854710D01*
X1483871D01*
X1483912Y854720D01*
X1483964Y854741D01*
X1484016Y854772D01*
X1484079Y854824D01*
X1484152Y854887D01*
X1484214Y854970D01*
X1484225Y854981D01*
X1484235Y854991D01*
X1484277Y855043D01*
X1484308Y855095D01*
X1484329Y855116D01*
Y855126D01*
X1484308Y855137D01*
X1484266Y855158D01*
X1484256Y855168D01*
X1484225Y855199D01*
X1484193Y855262D01*
X1484173Y855303D01*
X1484152Y855356D01*
X1484131Y855428D01*
X1484110Y855501D01*
X1484089Y855595D01*
X1484068Y855710D01*
X1484058Y855835D01*
Y855970D01*
Y856126D01*
Y856303D01*
Y856314D01*
Y856324D01*
X1484068Y856386D01*
Y856480D01*
Y856584D01*
X1484079Y856699D01*
X1484068Y856803D01*
Y856897D01*
X1484048Y856959D01*
Y856970D01*
X1484037Y856980D01*
X1484016Y857011D01*
X1483996Y857053D01*
X1483954Y857095D01*
X1483902Y857157D01*
X1483829Y857220D01*
X1483746Y857292D01*
X1483735Y857303D01*
X1483725Y857313D01*
X1483662Y857376D01*
X1483579Y857469D01*
X1483485Y857574D01*
X1483402Y857699D01*
X1483329Y857834D01*
X1483319Y857896D01*
X1483308Y857959D01*
Y858021D01*
X1483329Y858074D01*
X1483339Y858084D01*
X1483350Y858105D01*
X1483381Y858115D01*
X1483412Y858146D01*
X1483464Y858167D01*
X1483527Y858188D01*
X1483610Y858219D01*
X1483714Y858251D01*
X1483839Y858271D01*
X1483985Y858303D01*
X1484162Y858324D01*
X1484370Y858334D01*
X1484599Y858355D01*
X1484860Y858365D01*
X1485318D01*
X1485433Y858355D01*
D02*
G37*
G36*
X1454107Y854762D02*
X1454180Y854751D01*
X1454191D01*
X1454211Y854741D01*
X1454253Y854731D01*
X1454295Y854699D01*
X1454388Y854637D01*
X1454430Y854585D01*
X1454461Y854522D01*
X1454472Y854512D01*
X1454482Y854470D01*
X1454493Y854418D01*
X1454503Y854345D01*
Y854262D01*
X1454493Y854179D01*
X1454451Y854095D01*
X1454378Y854012D01*
X1454368Y854002D01*
X1454336Y853981D01*
X1454284Y853960D01*
X1454222Y853950D01*
X1454139Y853939D01*
X1454034Y853950D01*
X1453920Y853991D01*
X1453857Y854022D01*
X1453795Y854064D01*
X1453784Y854074D01*
X1453764Y854095D01*
X1453722Y854127D01*
X1453691Y854179D01*
X1453685Y854186D01*
X1453701Y854210D01*
X1453712Y854220D01*
X1453743Y854324D01*
Y854429D01*
X1453732Y854543D01*
X1453701Y854658D01*
X1453687Y854690D01*
X1453712Y854710D01*
X1453774Y854741D01*
X1453784D01*
X1453805Y854751D01*
X1453847Y854762D01*
X1453899D01*
X1454034Y854772D01*
X1454107Y854762D01*
D02*
G37*
G36*
X1423022Y862583D02*
X1423188D01*
X1423365Y862572D01*
X1423573Y862562D01*
X1423626D01*
X1423678Y862551D01*
X1423761D01*
X1423844Y862541D01*
X1423948D01*
X1424178Y862520D01*
X1424417Y862499D01*
X1424636Y862468D01*
X1424729Y862458D01*
X1424813Y862437D01*
X1424875Y862427D01*
X1424927Y862406D01*
X1424938Y862385D01*
X1424958Y862354D01*
X1424979Y862291D01*
X1425000Y862197D01*
X1425011Y862124D01*
X1425021Y862052D01*
X1425031Y861968D01*
X1425042Y861875D01*
X1425052Y861760D01*
X1425063Y861635D01*
Y861489D01*
X1425073Y861323D01*
Y861146D01*
X1425083Y860958D01*
Y860740D01*
Y860510D01*
Y860250D01*
X1425073Y859969D01*
Y859667D01*
X1425063Y859344D01*
X1425052Y859000D01*
X1425031Y858625D01*
X1425011Y858219D01*
X1424990Y857792D01*
X1424969Y857345D01*
X1424938Y856855D01*
Y856845D01*
Y856803D01*
Y856751D01*
X1424927Y856678D01*
X1424938Y856522D01*
X1424948Y856355D01*
Y856345D01*
X1424958Y856324D01*
X1424969Y856293D01*
X1424979Y856241D01*
X1425000Y856147D01*
X1425031Y856064D01*
X1425042Y856053D01*
X1425052Y856001D01*
X1425063Y855939D01*
Y855845D01*
Y855835D01*
Y855824D01*
X1425031Y855762D01*
X1425000Y855720D01*
X1424958Y855668D01*
X1424906Y855605D01*
X1424834Y855543D01*
X1424823Y855533D01*
X1424813Y855522D01*
X1424781Y855480D01*
X1424761Y855428D01*
X1424740Y855355D01*
X1424719Y855262D01*
X1424709Y855137D01*
X1424719Y854991D01*
Y854980D01*
Y854960D01*
Y854897D01*
X1424709Y854845D01*
X1424698Y854824D01*
X1424750Y854835D01*
X1424834D01*
X1424927Y854824D01*
X1425011Y854803D01*
X1425094Y854741D01*
X1425146Y854658D01*
X1425167Y854606D01*
Y854533D01*
Y854522D01*
X1425156Y854491D01*
X1425146Y854439D01*
X1425115Y854387D01*
X1425073Y854324D01*
X1425000Y854272D01*
X1424906Y854220D01*
X1424771Y854189D01*
X1424750D01*
X1424709Y854179D01*
X1424625Y854168D01*
X1424532Y854158D01*
X1424417Y854137D01*
X1424282Y854116D01*
X1424001Y854085D01*
X1423980D01*
X1423938Y854074D01*
X1423875Y854064D01*
X1423803Y854054D01*
X1423636Y854022D01*
X1423563Y854002D01*
X1423511Y853981D01*
X1423501D01*
X1423459Y853960D01*
X1423396Y853950D01*
X1423292Y853929D01*
X1423230Y853918D01*
X1423147D01*
X1423063Y853908D01*
X1422855D01*
X1422740Y853918D01*
X1422605Y853929D01*
X1422459Y853939D01*
X1422449D01*
X1422417Y853950D01*
X1422366Y853960D01*
X1422313Y853970D01*
X1422168Y854022D01*
X1422011Y854095D01*
X1421949Y854147D01*
X1421886Y854210D01*
X1421845Y854283D01*
X1421824Y854366D01*
X1421814Y854470D01*
X1421834Y854574D01*
X1421886Y854699D01*
X1421970Y854835D01*
X1421980Y854845D01*
Y854866D01*
X1421991Y854908D01*
X1422001Y854960D01*
X1422011Y855033D01*
X1422022Y855147D01*
X1422043Y855283D01*
X1422053Y855460D01*
X1422063Y855564D01*
Y855678D01*
X1422074Y855803D01*
X1422084Y855939D01*
Y856084D01*
X1422095Y856241D01*
Y856418D01*
X1422105Y856605D01*
X1422115Y856813D01*
Y857022D01*
X1422126Y857261D01*
Y857511D01*
X1422136Y857772D01*
Y858053D01*
X1422188Y861125D01*
X1421886Y861427D01*
Y861437D01*
X1421866Y861448D01*
X1421824Y861500D01*
X1421761Y861583D01*
X1421689Y861687D01*
X1421626Y861802D01*
X1421564Y861927D01*
X1421532Y862041D01*
Y862093D01*
Y862145D01*
Y862156D01*
X1421553Y862187D01*
X1421584Y862239D01*
X1421637Y862291D01*
X1421709Y862364D01*
X1421824Y862427D01*
X1421886Y862468D01*
X1421970Y862499D01*
X1422053Y862531D01*
X1422157Y862562D01*
X1422168D01*
X1422220Y862572D01*
X1422251D01*
X1422303Y862583D01*
X1422438D01*
X1422522Y862593D01*
X1422865D01*
X1423022Y862583D01*
D02*
G37*
G36*
X1409160Y862427D02*
X1409244Y862395D01*
X1409306Y862364D01*
X1409369Y862322D01*
X1409410Y862260D01*
X1409431Y862187D01*
Y862093D01*
Y862083D01*
X1409421Y862062D01*
X1409400Y862020D01*
X1409369Y861968D01*
X1409327Y861906D01*
X1409265Y861833D01*
X1409202Y861750D01*
X1409108Y861666D01*
X1409098Y861656D01*
X1409088Y861646D01*
X1409056Y861604D01*
X1409035Y861552D01*
X1409004Y861489D01*
X1408973Y861396D01*
X1408952Y861281D01*
X1408931Y861146D01*
Y861125D01*
Y861094D01*
Y861052D01*
Y861000D01*
Y860927D01*
Y860833D01*
Y860719D01*
Y860583D01*
Y860427D01*
Y860240D01*
Y860031D01*
Y859792D01*
X1408942Y859521D01*
Y859219D01*
X1408952Y858886D01*
Y858875D01*
Y858865D01*
Y858823D01*
Y858782D01*
Y858730D01*
X1408963Y858667D01*
Y858511D01*
X1408973Y858323D01*
Y858115D01*
X1408983Y857886D01*
X1408994Y857646D01*
X1409015Y857136D01*
X1409025Y856876D01*
X1409035Y856636D01*
X1409046Y856407D01*
X1409056Y856199D01*
X1409077Y856012D01*
X1409088Y855866D01*
Y855855D01*
Y855835D01*
X1409098Y855803D01*
X1409108Y855751D01*
X1409119Y855637D01*
X1409150Y855491D01*
X1409192Y855345D01*
X1409233Y855189D01*
X1409285Y855064D01*
X1409317Y855012D01*
X1409348Y854970D01*
X1409358Y854960D01*
X1409390Y854918D01*
X1409431Y854845D01*
X1409483Y854762D01*
X1409525Y854658D01*
X1409546Y854533D01*
X1409567Y854408D01*
X1409546Y854262D01*
Y854252D01*
X1409535Y854210D01*
X1409504Y854158D01*
X1409462Y854095D01*
X1409410Y854033D01*
X1409327Y853970D01*
X1409233Y853929D01*
X1409098Y853908D01*
X1408963D01*
X1408869Y853918D01*
X1408754Y853929D01*
X1408629Y853939D01*
X1408504Y853970D01*
X1408380Y854002D01*
X1408369D01*
X1408327Y854022D01*
X1408275Y854043D01*
X1408202Y854074D01*
X1408057Y854147D01*
X1407984Y854189D01*
X1407932Y854231D01*
X1407921Y854241D01*
X1407900Y854252D01*
X1407838Y854314D01*
X1407765Y854366D01*
X1407734Y854377D01*
X1407713Y854387D01*
X1407702D01*
X1407671Y854397D01*
X1407609Y854418D01*
X1407536Y854449D01*
X1407432Y854512D01*
X1407307Y854606D01*
X1407234Y854668D01*
X1407161Y854741D01*
X1407078Y854814D01*
X1406984Y854908D01*
Y854918D01*
X1406963Y854929D01*
X1406942Y854960D01*
X1406901Y855001D01*
X1406817Y855106D01*
X1406713Y855230D01*
X1406599Y855387D01*
X1406474Y855564D01*
X1406359Y855741D01*
X1406255Y855928D01*
Y855939D01*
X1406245Y855959D01*
X1406224Y855991D01*
X1406203Y856032D01*
X1406182Y856095D01*
X1406151Y856168D01*
X1406120Y856251D01*
X1406088Y856355D01*
X1406047Y856470D01*
X1406015Y856595D01*
X1405984Y856740D01*
X1405953Y856897D01*
X1405911Y857074D01*
X1405891Y857261D01*
X1405859Y857459D01*
X1405838Y857678D01*
Y857688D01*
Y857730D01*
X1405828Y857792D01*
Y857876D01*
X1405818Y857990D01*
Y858105D01*
X1405807Y858240D01*
Y858396D01*
Y858719D01*
X1405828Y859073D01*
X1405859Y859427D01*
X1405911Y859771D01*
Y859781D01*
X1405922Y859813D01*
X1405932Y859865D01*
X1405953Y859927D01*
X1405984Y860011D01*
X1406015Y860104D01*
X1406047Y860219D01*
X1406099Y860333D01*
X1406213Y860594D01*
X1406359Y860875D01*
X1406547Y861156D01*
X1406765Y861427D01*
X1406776Y861437D01*
X1406797Y861458D01*
X1406828Y861489D01*
X1406880Y861541D01*
X1406942Y861604D01*
X1407026Y861666D01*
X1407119Y861739D01*
X1407224Y861812D01*
X1407338Y861895D01*
X1407463Y861979D01*
X1407598Y862052D01*
X1407755Y862135D01*
X1407911Y862208D01*
X1408088Y862281D01*
X1408275Y862343D01*
X1408463Y862395D01*
X1408473D01*
X1408504Y862406D01*
X1408557Y862416D01*
X1408629Y862427D01*
X1408702Y862437D01*
X1408786D01*
X1408973Y862447D01*
X1409160Y862427D01*
D02*
G37*
G36*
X1452753Y862656D02*
X1452962Y862635D01*
X1453181Y862614D01*
X1453399Y862583D01*
X1453607Y862541D01*
X1453805Y862499D01*
X1453982Y862437D01*
X1454139Y862354D01*
X1454263Y862270D01*
X1454305Y862218D01*
X1454347Y862166D01*
X1454368Y862104D01*
X1454378Y862041D01*
Y862031D01*
Y862000D01*
X1454357Y861958D01*
X1454336Y861895D01*
X1454295Y861833D01*
X1454232Y861750D01*
X1454149Y861656D01*
X1454034Y861562D01*
X1454024D01*
X1454014Y861541D01*
X1453982Y861510D01*
X1453951Y861469D01*
X1453920Y861416D01*
X1453889Y861354D01*
X1453857Y861271D01*
X1453837Y861177D01*
Y861167D01*
Y861146D01*
X1453826Y861114D01*
Y861073D01*
X1453816Y861031D01*
Y860958D01*
X1453805Y860885D01*
Y860791D01*
X1453795Y860687D01*
X1453784Y860562D01*
Y860417D01*
X1453774Y860250D01*
X1453764Y860063D01*
Y859854D01*
X1453753Y859625D01*
Y859615D01*
Y859573D01*
Y859521D01*
Y859448D01*
X1453743Y859354D01*
Y859240D01*
Y859115D01*
X1453732Y858979D01*
X1453722Y858688D01*
X1453701Y858375D01*
X1453680Y858053D01*
X1453649Y857740D01*
Y857730D01*
Y857709D01*
X1453639Y857667D01*
Y857615D01*
X1453628Y857553D01*
X1453618Y857480D01*
X1453597Y857313D01*
X1453576Y857136D01*
X1453555Y856959D01*
X1453535Y856803D01*
X1453524Y856730D01*
X1453514Y856678D01*
Y856668D01*
X1453503Y856636D01*
Y856584D01*
X1453493Y856522D01*
X1453472Y856376D01*
Y856220D01*
Y856209D01*
Y856189D01*
X1453483Y856157D01*
X1453493Y856105D01*
X1453524Y855991D01*
X1453576Y855855D01*
Y855845D01*
X1453587Y855835D01*
X1453597Y855772D01*
X1453618Y855689D01*
X1453639Y855584D01*
X1453649Y855480D01*
X1453639Y855376D01*
X1453607Y855283D01*
X1453545Y855220D01*
X1453535D01*
X1453514Y855199D01*
X1453493Y855178D01*
X1453472Y855137D01*
Y855095D01*
X1453483Y855043D01*
X1453514Y854980D01*
X1453587Y854908D01*
X1453597Y854887D01*
X1453628Y854835D01*
X1453660Y854751D01*
X1453687Y854690D01*
X1453660Y854668D01*
X1453628Y854626D01*
X1453597Y854574D01*
X1453587Y854522D01*
X1453576Y854491D01*
Y854460D01*
Y854449D01*
X1453587Y854366D01*
X1453607Y854293D01*
X1453685Y854186D01*
X1453680Y854179D01*
X1453649Y854137D01*
X1453587Y854085D01*
X1453493Y854022D01*
X1453368Y853970D01*
X1453212Y853908D01*
X1453118Y853877D01*
X1453014Y853856D01*
X1452962D01*
X1452899Y853845D01*
X1452826D01*
X1452733Y853856D01*
X1452639Y853866D01*
X1452545Y853887D01*
X1452441Y853918D01*
X1452431Y853929D01*
X1452389Y853939D01*
X1452327Y853981D01*
X1452243Y854033D01*
X1452129Y854116D01*
X1451993Y854220D01*
X1451827Y854356D01*
X1451629Y854533D01*
X1451608D01*
X1451566Y854554D01*
X1451493Y854585D01*
X1451410Y854637D01*
X1451400D01*
X1451389Y854658D01*
X1451327Y854710D01*
X1451243Y854803D01*
X1451139Y854929D01*
X1451129Y854939D01*
X1451118Y854960D01*
X1451087Y855001D01*
X1451066Y855043D01*
X1451004Y855126D01*
X1450973Y855168D01*
X1450952Y855189D01*
X1450941Y855199D01*
X1450931Y855220D01*
X1450921Y855262D01*
X1450900Y855303D01*
X1450879Y855366D01*
X1450858Y855449D01*
X1450827Y855543D01*
Y855553D01*
X1450816Y855595D01*
X1450806Y855647D01*
X1450796Y855710D01*
X1450764Y855855D01*
X1450754Y855918D01*
Y855980D01*
Y855991D01*
Y856012D01*
Y856053D01*
Y856105D01*
Y856189D01*
X1450744Y856293D01*
Y856418D01*
X1450733Y856574D01*
Y856584D01*
Y856595D01*
Y856647D01*
X1450723Y856730D01*
Y856834D01*
Y856949D01*
X1450712Y857074D01*
Y857199D01*
Y857313D01*
Y857324D01*
Y857376D01*
Y857449D01*
Y857553D01*
Y857699D01*
Y857876D01*
Y858084D01*
Y858334D01*
Y858344D01*
Y858375D01*
Y858428D01*
Y858480D01*
Y858615D01*
Y858678D01*
Y858740D01*
Y861312D01*
X1450369Y861562D01*
X1450348Y861583D01*
X1450306Y861625D01*
X1450244Y861698D01*
X1450181Y861781D01*
X1450119Y861895D01*
X1450067Y862010D01*
X1450046Y862135D01*
Y862208D01*
X1450056Y862270D01*
X1450067Y862291D01*
X1450077Y862302D01*
X1450108Y862322D01*
X1450140Y862354D01*
X1450192Y862385D01*
X1450265Y862416D01*
X1450348Y862458D01*
X1450452Y862489D01*
X1450587Y862520D01*
X1450744Y862551D01*
X1450931Y862583D01*
X1451150Y862614D01*
X1451400Y862635D01*
X1451691Y862656D01*
X1452014Y862666D01*
X1452556D01*
X1452753Y862656D01*
D02*
G37*
G36*
X1475466Y861916D02*
Y861906D01*
X1475487Y861895D01*
X1475529Y861833D01*
X1475591Y861750D01*
X1475664Y861635D01*
X1475727Y861520D01*
X1475789Y861396D01*
X1475831Y861281D01*
X1475852Y861177D01*
Y861167D01*
X1475862Y861146D01*
X1475873Y861114D01*
X1475883Y861073D01*
X1475904Y861031D01*
X1475925Y860969D01*
X1475956Y860885D01*
X1475998Y860791D01*
X1476039Y860677D01*
X1476102Y860552D01*
X1476164Y860396D01*
X1476248Y860219D01*
X1476331Y860021D01*
X1476435Y859792D01*
X1476445Y859781D01*
X1476456Y859740D01*
X1476487Y859677D01*
X1476529Y859594D01*
X1476570Y859490D01*
X1476622Y859386D01*
X1476737Y859146D01*
X1476852Y858896D01*
X1476914Y858782D01*
X1476966Y858678D01*
X1477008Y858584D01*
X1477049Y858511D01*
X1477070Y858448D01*
X1477091Y858417D01*
X1477101Y858396D01*
X1477133Y858344D01*
X1477174Y858261D01*
X1477226Y858157D01*
X1477278Y858032D01*
X1477341Y857886D01*
X1477393Y857719D01*
X1477445Y857553D01*
X1477455Y857532D01*
X1477466Y857480D01*
X1477487Y857407D01*
X1477497Y857379D01*
Y857397D01*
X1477508Y857522D01*
X1477539Y857626D01*
X1477581Y857719D01*
X1477612Y857751D01*
X1477653Y857772D01*
X1477695D01*
X1477747Y857751D01*
X1477810Y857719D01*
X1477883Y857657D01*
X1477935Y857605D01*
X1477976Y857553D01*
X1478028Y857490D01*
X1478080Y857417D01*
X1478143Y857334D01*
X1478195Y857230D01*
Y857219D01*
X1478205Y857209D01*
X1478216Y857178D01*
X1478226Y857147D01*
X1478257Y857042D01*
X1478278Y856897D01*
X1478309Y856720D01*
X1478320Y856501D01*
Y856251D01*
X1478299Y855980D01*
Y855970D01*
Y855949D01*
X1478289Y855907D01*
Y855855D01*
X1478268Y855741D01*
X1478257Y855595D01*
X1478237Y855449D01*
X1478226Y855324D01*
Y855272D01*
Y855241D01*
Y855210D01*
Y855199D01*
X1478237Y855189D01*
X1478257Y855158D01*
X1478278Y855116D01*
X1478309Y855043D01*
X1478330Y854949D01*
X1478341Y854824D01*
Y854678D01*
X1478309Y854512D01*
Y854491D01*
X1478289Y854439D01*
X1478268Y854366D01*
X1478226Y854272D01*
X1478185Y854179D01*
X1478132Y854095D01*
X1478070Y854012D01*
X1477997Y853960D01*
X1477987D01*
X1477955Y853939D01*
X1477914Y853929D01*
X1477841Y853908D01*
X1477747Y853887D01*
X1477622Y853866D01*
X1477466Y853845D01*
X1477289Y853835D01*
X1476414Y853793D01*
X1475768Y854939D01*
X1475758Y854960D01*
X1475727Y855012D01*
X1475696Y855053D01*
X1475664Y855106D01*
X1475633Y855168D01*
X1475591Y855241D01*
X1475539Y855335D01*
X1475477Y855428D01*
X1475414Y855543D01*
X1475341Y855668D01*
X1475258Y855803D01*
X1475175Y855949D01*
X1475081Y856116D01*
X1474977Y856293D01*
X1474967Y856303D01*
X1474956Y856334D01*
X1474925Y856386D01*
X1474883Y856449D01*
X1474842Y856532D01*
X1474789Y856626D01*
X1474675Y856824D01*
X1474550Y857042D01*
X1474425Y857261D01*
X1474373Y857355D01*
X1474321Y857449D01*
X1474269Y857532D01*
X1474238Y857594D01*
Y857605D01*
X1474217Y857636D01*
X1474196Y857678D01*
X1474165Y857740D01*
X1474123Y857813D01*
X1474071Y857896D01*
X1474019Y857990D01*
X1473956Y858094D01*
X1473821Y858323D01*
X1473675Y858584D01*
X1473509Y858834D01*
X1473352Y859094D01*
Y859105D01*
X1473332Y859125D01*
X1473311Y859156D01*
X1473280Y859209D01*
X1473248Y859271D01*
X1473207Y859334D01*
X1473113Y859490D01*
X1473009Y859677D01*
X1472894Y859865D01*
X1472790Y860063D01*
X1472696Y860250D01*
Y860260D01*
X1472686Y860271D01*
X1472655Y860333D01*
X1472592Y860437D01*
X1472509Y860562D01*
X1472405Y860719D01*
X1472280Y860885D01*
X1472134Y861062D01*
X1471957Y861250D01*
X1471947Y861260D01*
X1471926Y861291D01*
X1471894Y861333D01*
X1471853Y861385D01*
X1471811Y861458D01*
X1471759Y861531D01*
X1471665Y861708D01*
X1471624Y861802D01*
X1471592Y861906D01*
X1471572Y862000D01*
X1471561Y862093D01*
X1471572Y862177D01*
X1471603Y862260D01*
X1471655Y862322D01*
X1471728Y862385D01*
X1471749Y862395D01*
X1471770D01*
X1471801Y862406D01*
X1471842Y862416D01*
X1471894Y862427D01*
X1471967Y862437D01*
X1472051Y862447D01*
X1472155Y862458D01*
X1472269Y862468D01*
X1472394Y862479D01*
X1472551Y862489D01*
X1472717Y862499D01*
X1472905Y862510D01*
X1475019D01*
X1475466Y861916D01*
D02*
G37*
G36*
X1472967Y858355D02*
X1473019Y858323D01*
X1473061Y858292D01*
X1473092Y858240D01*
Y858219D01*
X1473103Y858188D01*
Y858126D01*
Y858042D01*
X1473092Y857938D01*
Y857782D01*
Y857699D01*
X1473082Y857594D01*
Y857584D01*
Y857574D01*
Y857542D01*
Y857511D01*
Y857407D01*
Y857272D01*
X1473092Y857105D01*
X1473103Y856917D01*
X1473123Y856709D01*
X1473144Y856480D01*
X1473175Y856251D01*
X1473217Y856012D01*
X1473269Y855772D01*
X1473342Y855543D01*
X1473415Y855314D01*
X1473509Y855095D01*
X1473613Y854908D01*
X1473738Y854731D01*
X1473759Y854710D01*
X1473800Y854668D01*
X1473863Y854595D01*
X1473936Y854501D01*
X1473998Y854397D01*
X1474040Y854283D01*
X1474061Y854158D01*
X1474050Y854106D01*
X1474029Y854043D01*
X1474019Y854033D01*
X1473988Y854012D01*
X1473967Y853991D01*
X1473925Y853970D01*
X1473873Y853950D01*
X1473811Y853929D01*
X1473738Y853908D01*
X1473654Y853887D01*
X1473540Y853856D01*
X1473415Y853845D01*
X1473280Y853825D01*
X1473113Y853814D01*
X1472925Y853804D01*
X1472717Y853793D01*
X1472446D01*
X1472342Y853804D01*
X1472113Y853814D01*
X1471884Y853845D01*
X1471770Y853866D01*
X1471665Y853887D01*
X1471572Y853918D01*
X1471488Y853950D01*
X1471426Y853991D01*
X1471384Y854033D01*
Y854043D01*
X1471374Y854074D01*
Y854137D01*
X1471395Y854220D01*
X1471426Y854324D01*
X1471488Y854460D01*
X1471582Y854616D01*
X1471644Y854710D01*
X1471717Y854803D01*
X1471728Y854814D01*
X1471738Y854824D01*
X1471790Y854887D01*
X1471853Y854980D01*
X1471936Y855085D01*
X1472019Y855189D01*
X1472092Y855283D01*
X1472144Y855355D01*
X1472155Y855376D01*
X1472165Y855387D01*
Y855397D01*
Y855428D01*
Y855449D01*
Y855491D01*
Y855543D01*
Y855605D01*
Y855678D01*
Y855772D01*
Y855887D01*
Y856012D01*
Y856157D01*
Y856334D01*
Y856522D01*
Y856740D01*
Y856751D01*
Y856793D01*
Y856855D01*
Y856938D01*
X1472176Y857032D01*
Y857147D01*
X1472196Y857386D01*
X1472238Y857646D01*
X1472280Y857886D01*
X1472321Y858001D01*
X1472353Y858094D01*
X1472394Y858167D01*
X1472446Y858230D01*
X1472457D01*
X1472467Y858240D01*
X1472519Y858271D01*
X1472603Y858313D01*
X1472707Y858344D01*
X1472811Y858365D01*
X1472925D01*
X1472967Y858355D01*
D02*
G37*
G36*
X1432519Y861916D02*
Y861906D01*
X1432540Y861895D01*
X1432582Y861833D01*
X1432644Y861750D01*
X1432717Y861635D01*
X1432780Y861520D01*
X1432842Y861396D01*
X1432884Y861281D01*
X1432904Y861177D01*
Y861167D01*
X1432915Y861146D01*
X1432925Y861114D01*
X1432936Y861073D01*
X1432957Y861031D01*
X1432977Y860969D01*
X1433009Y860885D01*
X1433050Y860791D01*
X1433092Y860677D01*
X1433154Y860552D01*
X1433217Y860396D01*
X1433300Y860219D01*
X1433383Y860021D01*
X1433488Y859792D01*
X1433498Y859781D01*
X1433508Y859740D01*
X1433540Y859677D01*
X1433581Y859594D01*
X1433623Y859490D01*
X1433675Y859386D01*
X1433790Y859146D01*
X1433904Y858896D01*
X1433967Y858782D01*
X1434019Y858678D01*
X1434060Y858584D01*
X1434102Y858511D01*
X1434123Y858448D01*
X1434144Y858417D01*
X1434154Y858396D01*
X1434185Y858344D01*
X1434227Y858261D01*
X1434279Y858157D01*
X1434331Y858032D01*
X1434394Y857886D01*
X1434446Y857719D01*
X1434498Y857553D01*
X1434508Y857532D01*
X1434519Y857480D01*
X1434539Y857407D01*
X1434550Y857379D01*
Y857397D01*
X1434560Y857522D01*
X1434592Y857626D01*
X1434633Y857719D01*
X1434664Y857751D01*
X1434706Y857772D01*
X1434748D01*
X1434800Y857751D01*
X1434862Y857719D01*
X1434935Y857657D01*
X1434987Y857605D01*
X1435029Y857553D01*
X1435081Y857490D01*
X1435133Y857417D01*
X1435195Y857334D01*
X1435248Y857230D01*
Y857219D01*
X1435258Y857209D01*
X1435268Y857178D01*
X1435279Y857147D01*
X1435310Y857042D01*
X1435331Y856897D01*
X1435362Y856720D01*
X1435372Y856501D01*
Y856251D01*
X1435352Y855980D01*
Y855970D01*
Y855949D01*
X1435341Y855907D01*
Y855855D01*
X1435320Y855741D01*
X1435310Y855595D01*
X1435289Y855449D01*
X1435279Y855324D01*
Y855272D01*
Y855241D01*
Y855210D01*
Y855199D01*
X1435289Y855189D01*
X1435310Y855158D01*
X1435331Y855116D01*
X1435362Y855043D01*
X1435383Y854949D01*
X1435393Y854824D01*
Y854678D01*
X1435362Y854512D01*
Y854491D01*
X1435341Y854439D01*
X1435320Y854366D01*
X1435279Y854272D01*
X1435237Y854179D01*
X1435185Y854095D01*
X1435123Y854012D01*
X1435050Y853960D01*
X1435039D01*
X1435008Y853939D01*
X1434966Y853929D01*
X1434893Y853908D01*
X1434800Y853887D01*
X1434675Y853866D01*
X1434519Y853845D01*
X1434342Y853835D01*
X1433467Y853793D01*
X1432821Y854939D01*
X1432811Y854960D01*
X1432780Y855012D01*
X1432748Y855053D01*
X1432717Y855106D01*
X1432686Y855168D01*
X1432644Y855241D01*
X1432592Y855335D01*
X1432529Y855428D01*
X1432467Y855543D01*
X1432394Y855668D01*
X1432311Y855803D01*
X1432227Y855949D01*
X1432134Y856116D01*
X1432030Y856293D01*
X1432019Y856303D01*
X1432009Y856334D01*
X1431978Y856386D01*
X1431936Y856449D01*
X1431894Y856532D01*
X1431842Y856626D01*
X1431728Y856824D01*
X1431603Y857042D01*
X1431478Y857261D01*
X1431426Y857355D01*
X1431374Y857449D01*
X1431322Y857532D01*
X1431290Y857594D01*
Y857605D01*
X1431269Y857636D01*
X1431249Y857678D01*
X1431217Y857740D01*
X1431176Y857813D01*
X1431124Y857896D01*
X1431072Y857990D01*
X1431009Y858094D01*
X1430874Y858323D01*
X1430728Y858584D01*
X1430561Y858834D01*
X1430405Y859094D01*
Y859105D01*
X1430384Y859125D01*
X1430363Y859156D01*
X1430332Y859209D01*
X1430301Y859271D01*
X1430259Y859334D01*
X1430166Y859490D01*
X1430061Y859677D01*
X1429947Y859865D01*
X1429843Y860063D01*
X1429749Y860250D01*
Y860260D01*
X1429739Y860271D01*
X1429707Y860333D01*
X1429645Y860437D01*
X1429561Y860562D01*
X1429457Y860719D01*
X1429332Y860885D01*
X1429187Y861062D01*
X1429010Y861250D01*
X1428999Y861260D01*
X1428978Y861291D01*
X1428947Y861333D01*
X1428905Y861385D01*
X1428864Y861458D01*
X1428812Y861531D01*
X1428718Y861708D01*
X1428676Y861802D01*
X1428645Y861906D01*
X1428624Y862000D01*
X1428614Y862093D01*
X1428624Y862177D01*
X1428656Y862260D01*
X1428708Y862322D01*
X1428781Y862385D01*
X1428801Y862395D01*
X1428822D01*
X1428853Y862406D01*
X1428895Y862416D01*
X1428947Y862427D01*
X1429020Y862437D01*
X1429103Y862447D01*
X1429207Y862458D01*
X1429322Y862468D01*
X1429447Y862479D01*
X1429603Y862489D01*
X1429770Y862499D01*
X1429957Y862510D01*
X1432071D01*
X1432519Y861916D01*
D02*
G37*
G36*
X1430020Y858355D02*
X1430072Y858323D01*
X1430114Y858292D01*
X1430145Y858240D01*
Y858219D01*
X1430155Y858188D01*
Y858126D01*
Y858042D01*
X1430145Y857938D01*
Y857782D01*
Y857699D01*
X1430134Y857594D01*
Y857584D01*
Y857574D01*
Y857542D01*
Y857511D01*
Y857407D01*
Y857272D01*
X1430145Y857105D01*
X1430155Y856917D01*
X1430176Y856709D01*
X1430197Y856480D01*
X1430228Y856251D01*
X1430270Y856012D01*
X1430322Y855772D01*
X1430395Y855543D01*
X1430468Y855314D01*
X1430561Y855095D01*
X1430665Y854908D01*
X1430790Y854731D01*
X1430811Y854710D01*
X1430853Y854668D01*
X1430915Y854595D01*
X1430988Y854501D01*
X1431051Y854397D01*
X1431092Y854283D01*
X1431113Y854158D01*
X1431103Y854106D01*
X1431082Y854043D01*
X1431072Y854033D01*
X1431040Y854012D01*
X1431019Y853991D01*
X1430978Y853970D01*
X1430926Y853950D01*
X1430863Y853929D01*
X1430790Y853908D01*
X1430707Y853887D01*
X1430592Y853856D01*
X1430468Y853845D01*
X1430332Y853825D01*
X1430166Y853814D01*
X1429978Y853804D01*
X1429770Y853793D01*
X1429499D01*
X1429395Y853804D01*
X1429166Y853814D01*
X1428937Y853845D01*
X1428822Y853866D01*
X1428718Y853887D01*
X1428624Y853918D01*
X1428541Y853950D01*
X1428479Y853991D01*
X1428437Y854033D01*
Y854043D01*
X1428426Y854074D01*
Y854137D01*
X1428447Y854220D01*
X1428479Y854324D01*
X1428541Y854460D01*
X1428635Y854616D01*
X1428697Y854710D01*
X1428770Y854803D01*
X1428781Y854814D01*
X1428791Y854824D01*
X1428843Y854887D01*
X1428905Y854980D01*
X1428989Y855085D01*
X1429072Y855189D01*
X1429145Y855283D01*
X1429197Y855355D01*
X1429207Y855376D01*
X1429218Y855387D01*
Y855397D01*
Y855428D01*
Y855449D01*
Y855491D01*
Y855543D01*
Y855605D01*
Y855678D01*
Y855772D01*
Y855887D01*
Y856012D01*
Y856157D01*
Y856334D01*
Y856522D01*
Y856740D01*
Y856751D01*
Y856793D01*
Y856855D01*
Y856938D01*
X1429228Y857032D01*
Y857147D01*
X1429249Y857386D01*
X1429291Y857646D01*
X1429332Y857886D01*
X1429374Y858001D01*
X1429405Y858094D01*
X1429447Y858167D01*
X1429499Y858230D01*
X1429509D01*
X1429520Y858240D01*
X1429572Y858271D01*
X1429655Y858313D01*
X1429759Y858344D01*
X1429863Y858365D01*
X1429978D01*
X1430020Y858355D01*
D02*
G37*
G36*
X1417513Y862562D02*
Y861458D01*
Y861448D01*
Y861427D01*
Y861385D01*
Y861323D01*
Y861229D01*
X1417502Y861125D01*
Y861000D01*
X1417492Y860844D01*
X1417481Y860667D01*
X1417471Y860469D01*
X1417460Y860240D01*
X1417440Y859979D01*
X1417419Y859688D01*
X1417398Y859375D01*
X1417377Y859021D01*
X1417346Y858636D01*
Y858625D01*
Y858615D01*
Y858584D01*
X1417336Y858542D01*
X1417325Y858438D01*
X1417315Y858292D01*
X1417304Y858126D01*
X1417283Y857938D01*
X1417273Y857730D01*
X1417252Y857511D01*
X1417211Y857063D01*
X1417190Y856845D01*
X1417169Y856647D01*
X1417148Y856449D01*
X1417135Y856346D01*
X1417242Y856355D01*
X1417252D01*
X1417294Y856345D01*
X1417356Y856313D01*
X1417419Y856251D01*
X1417450Y856209D01*
X1417481Y856157D01*
X1417513Y856095D01*
X1417544Y856022D01*
X1417565Y855928D01*
X1417585Y855814D01*
X1417596Y855699D01*
Y855553D01*
Y855543D01*
Y855522D01*
Y855480D01*
Y855428D01*
X1417585Y855293D01*
X1417565Y855137D01*
X1417544Y854970D01*
X1417502Y854824D01*
X1417471Y854762D01*
X1417440Y854699D01*
X1417416Y854668D01*
X1417471D01*
X1417554Y854678D01*
X1417575D01*
X1417627Y854689D01*
X1417700Y854699D01*
X1417794D01*
X1417887Y854689D01*
X1417992Y854668D01*
X1418085Y854616D01*
X1418169Y854543D01*
X1418179Y854533D01*
X1418200Y854501D01*
X1418221Y854449D01*
X1418231Y854387D01*
X1418241Y854304D01*
X1418221Y854210D01*
X1418179Y854106D01*
X1418137Y854043D01*
X1418096Y853981D01*
X1418085Y853970D01*
X1418054Y853929D01*
X1417992Y853887D01*
X1417919Y853835D01*
X1417814Y853804D01*
X1417700Y853773D01*
X1417575D01*
X1417502Y853793D01*
X1417429Y853814D01*
X1417419D01*
X1417388Y853835D01*
X1417315Y853845D01*
X1417273Y853856D01*
X1417211Y853866D01*
X1417138D01*
X1417054Y853877D01*
X1416961Y853887D01*
X1416721D01*
X1416575Y853897D01*
X1416419Y853887D01*
X1416148D01*
X1416075Y853877D01*
X1415992D01*
X1415898Y853866D01*
X1415784D01*
X1415669Y853856D01*
X1415419Y853835D01*
X1415159Y853804D01*
X1414899Y853773D01*
X1414669Y853731D01*
X1414638D01*
X1414607Y853720D01*
X1414555D01*
X1414440Y853710D01*
X1414295Y853720D01*
X1414149Y853741D01*
X1414013Y853793D01*
X1413899Y853877D01*
X1413847Y853929D01*
X1413816Y853991D01*
Y854012D01*
X1413805Y854054D01*
X1413795Y854127D01*
Y854210D01*
X1413826Y854314D01*
X1413878Y854418D01*
X1413909Y854481D01*
X1413961Y854533D01*
X1414013Y854585D01*
X1414086Y854637D01*
X1414472Y854991D01*
Y861312D01*
X1414170Y861531D01*
X1414149Y861552D01*
X1414097Y861593D01*
X1414024Y861677D01*
X1413951Y861770D01*
X1413878Y861885D01*
X1413826Y862010D01*
X1413805Y862073D01*
X1413795Y862145D01*
X1413805Y862208D01*
X1413816Y862281D01*
Y862291D01*
X1413836Y862322D01*
X1413857Y862364D01*
X1413899Y862416D01*
X1413961Y862458D01*
X1414045Y862510D01*
X1414149Y862551D01*
X1414274Y862572D01*
X1414315D01*
X1414347Y862583D01*
X1414399D01*
X1414451Y862593D01*
X1414597D01*
X1414690Y862604D01*
X1415701D01*
X1417513Y862562D01*
D02*
G37*
G36*
X1461887D02*
Y861375D01*
Y861364D01*
Y861323D01*
Y861271D01*
Y861187D01*
Y861083D01*
Y860958D01*
X1461876Y860823D01*
Y860656D01*
X1461866Y860490D01*
Y860292D01*
X1461855Y860083D01*
X1461845Y859865D01*
X1461835Y859636D01*
X1461814Y859396D01*
X1461782Y858875D01*
Y858865D01*
Y858813D01*
X1461772Y858740D01*
X1461762Y858657D01*
X1461751Y858542D01*
X1461741Y858417D01*
X1461709Y858146D01*
X1461678Y857876D01*
X1461658Y857740D01*
X1461637Y857626D01*
X1461616Y857522D01*
X1461595Y857428D01*
X1461564Y857365D01*
X1461547Y857332D01*
X1461564Y857324D01*
X1461574Y857313D01*
X1461605Y857282D01*
X1461637Y857240D01*
X1461689Y857168D01*
X1461699Y857157D01*
X1461709Y857126D01*
X1461730Y857084D01*
X1461741Y857032D01*
Y856959D01*
X1461730Y856876D01*
X1461689Y856782D01*
X1461626Y856678D01*
X1461605Y856657D01*
X1461595Y856626D01*
X1461574Y856574D01*
X1461553Y856501D01*
X1461543Y856407D01*
X1461522Y856282D01*
Y856136D01*
Y856126D01*
Y856095D01*
Y856043D01*
Y855991D01*
Y855939D01*
Y855897D01*
X1461519Y855887D01*
X1461658D01*
X1461741Y855897D01*
X1461762D01*
X1461814Y855887D01*
X1461835Y855866D01*
X1461866Y855845D01*
X1461897Y855803D01*
X1461918Y855751D01*
Y855741D01*
X1461928Y855720D01*
X1461939Y855689D01*
Y855647D01*
X1461960Y855553D01*
Y855449D01*
Y855439D01*
Y855428D01*
Y855397D01*
X1461949Y855355D01*
Y855303D01*
X1461939Y855241D01*
X1461928Y855158D01*
X1461918Y855074D01*
Y855064D01*
Y855033D01*
X1461907Y854980D01*
Y854929D01*
X1461897Y854793D01*
X1461887Y854731D01*
Y854668D01*
Y854658D01*
Y854647D01*
Y854606D01*
Y854585D01*
X1461855Y854564D01*
Y854554D01*
X1461876D01*
Y854543D01*
X1461887Y854554D01*
Y854585D01*
X1461907Y854595D01*
X1461939Y854616D01*
X1461949Y854626D01*
X1461991Y854637D01*
X1462043Y854658D01*
X1462116Y854678D01*
X1462189Y854689D01*
X1462262Y854699D01*
X1462334Y854689D01*
X1462397Y854658D01*
X1462407D01*
X1462418Y854637D01*
X1462439Y854606D01*
X1462470Y854574D01*
X1462501Y854512D01*
X1462522Y854439D01*
X1462532Y854345D01*
X1462543Y854231D01*
Y854220D01*
Y854179D01*
X1462532Y854116D01*
X1462522Y854054D01*
X1462480Y853897D01*
X1462449Y853835D01*
X1462397Y853783D01*
X1462386D01*
X1462376Y853773D01*
X1462345Y853752D01*
X1462293Y853741D01*
X1462241Y853731D01*
X1462178D01*
X1462095Y853741D01*
X1462001Y853773D01*
X1461991D01*
X1461949Y853783D01*
X1461918Y853793D01*
X1461876Y853804D01*
X1461824D01*
X1461762Y853814D01*
X1461678Y853825D01*
X1461585D01*
X1461480Y853835D01*
X1461355D01*
X1461210Y853845D01*
X1460460D01*
X1460366Y853835D01*
X1460137D01*
X1460002Y853825D01*
X1459731Y853814D01*
X1459460Y853793D01*
X1459335Y853783D01*
X1459210Y853762D01*
X1459096Y853752D01*
X1459002Y853731D01*
X1458981D01*
X1458919Y853720D01*
X1458835D01*
X1458721Y853731D01*
X1458617Y853752D01*
X1458502Y853804D01*
X1458408Y853877D01*
X1458377Y853929D01*
X1458346Y853991D01*
Y854012D01*
X1458335Y854054D01*
X1458325Y854116D01*
Y854210D01*
X1458335Y854304D01*
X1458367Y854418D01*
X1458429Y854533D01*
X1458523Y854647D01*
X1458533Y854658D01*
X1458554Y854699D01*
X1458596Y854762D01*
X1458637Y854856D01*
X1458679Y854960D01*
X1458721Y855095D01*
X1458762Y855241D01*
X1458783Y855407D01*
Y855418D01*
Y855428D01*
Y855470D01*
X1458794Y855512D01*
Y855584D01*
X1458804Y855678D01*
Y855793D01*
X1458815Y855928D01*
Y856095D01*
Y856282D01*
X1458825Y856511D01*
Y856761D01*
X1458835Y857053D01*
Y857386D01*
Y857751D01*
Y857949D01*
Y858157D01*
Y858167D01*
Y858188D01*
Y858209D01*
Y858261D01*
Y858375D01*
Y858521D01*
Y858698D01*
Y858907D01*
Y859125D01*
X1458825Y859354D01*
Y859823D01*
X1458815Y860063D01*
Y860271D01*
X1458804Y860469D01*
Y860646D01*
X1458794Y860791D01*
X1458783Y860844D01*
Y860896D01*
Y860906D01*
Y860917D01*
X1458773Y860969D01*
X1458762Y861052D01*
X1458742Y861146D01*
X1458721Y861239D01*
X1458690Y861344D01*
X1458648Y861427D01*
X1458606Y861489D01*
Y861500D01*
X1458585Y861510D01*
X1458544Y861573D01*
X1458481Y861656D01*
X1458419Y861770D01*
X1458356Y861895D01*
X1458315Y862031D01*
X1458294Y862166D01*
X1458304Y862239D01*
X1458315Y862302D01*
Y862312D01*
X1458335Y862343D01*
X1458356Y862374D01*
X1458408Y862427D01*
X1458460Y862468D01*
X1458544Y862510D01*
X1458648Y862551D01*
X1458773Y862572D01*
X1458794D01*
X1458846Y862583D01*
X1458887D01*
X1458950Y862593D01*
X1459085D01*
X1459179Y862604D01*
X1460137D01*
X1461887Y862562D01*
D02*
G37*
G36*
X1449525Y856449D02*
X1449536Y856439D01*
X1449577Y856428D01*
X1449629Y856386D01*
X1449692Y856334D01*
X1449754Y856272D01*
X1449806Y856168D01*
X1449848Y856053D01*
X1449869Y855907D01*
Y855887D01*
Y855835D01*
Y855751D01*
X1449858Y855647D01*
X1449838Y855522D01*
X1449796Y855376D01*
X1449754Y855230D01*
X1449681Y855085D01*
X1449671Y855064D01*
X1449640Y855001D01*
X1449577Y854908D01*
X1449483Y854793D01*
X1449369Y854647D01*
X1449213Y854481D01*
X1449025Y854304D01*
X1448796Y854127D01*
X1448786D01*
X1448765Y854106D01*
X1448734Y854085D01*
X1448692Y854054D01*
X1448567Y853981D01*
X1448432Y853897D01*
X1448265Y853825D01*
X1448098Y853762D01*
X1448026Y853741D01*
X1447942Y853731D01*
X1447869Y853741D01*
X1447807Y853752D01*
X1447796D01*
X1447765Y853773D01*
X1447724Y853793D01*
X1447682Y853825D01*
X1447630Y853866D01*
X1447599Y853918D01*
X1447578Y853981D01*
Y854054D01*
Y854064D01*
X1447588Y854095D01*
X1447609Y854147D01*
X1447640Y854210D01*
X1447682Y854293D01*
X1447744Y854397D01*
X1447838Y854501D01*
X1447942Y854626D01*
X1447953Y854647D01*
X1447994Y854689D01*
X1448057Y854762D01*
X1448140Y854856D01*
X1448234Y854980D01*
X1448338Y855116D01*
X1448442Y855272D01*
X1448546Y855449D01*
Y855460D01*
X1448557Y855470D01*
X1448598Y855533D01*
X1448650Y855616D01*
X1448713Y855730D01*
X1448786Y855855D01*
X1448869Y855991D01*
X1448952Y856116D01*
X1449025Y856230D01*
X1449036Y856241D01*
X1449057Y856272D01*
X1449109Y856324D01*
X1449161Y856376D01*
X1449234Y856418D01*
X1449317Y856449D01*
X1449421Y856459D01*
X1449525Y856449D01*
D02*
G37*
G36*
X1445578Y862281D02*
X1445693Y862239D01*
X1445703Y862229D01*
X1445745Y862197D01*
X1445776Y862166D01*
X1445807Y862124D01*
X1445839Y862073D01*
X1445870Y862000D01*
X1445901Y861916D01*
X1445932Y861812D01*
X1445964Y861687D01*
X1445995Y861541D01*
X1446016Y861364D01*
X1446037Y861167D01*
X1446047Y860948D01*
Y860698D01*
Y860677D01*
Y860635D01*
Y860552D01*
Y860448D01*
Y860302D01*
X1446057Y860135D01*
Y859948D01*
Y859729D01*
X1446068Y859479D01*
Y859209D01*
X1446078Y858917D01*
X1446089Y858605D01*
X1446099Y858271D01*
X1446120Y857917D01*
X1446130Y857542D01*
X1446151Y857157D01*
Y857136D01*
Y857095D01*
X1446161Y857011D01*
Y856917D01*
Y856793D01*
X1446172Y856657D01*
Y856501D01*
X1446182Y856345D01*
X1446203Y856022D01*
Y855866D01*
X1446214Y855720D01*
X1446224Y855584D01*
X1446234Y855460D01*
X1446245Y855355D01*
X1446255Y855283D01*
Y855272D01*
X1446266Y855230D01*
X1446286Y855158D01*
X1446318Y855085D01*
X1446359Y854980D01*
X1446422Y854876D01*
X1446495Y854772D01*
X1446578Y854658D01*
X1446599Y854647D01*
X1446640Y854606D01*
X1446693Y854543D01*
X1446755Y854460D01*
X1446817Y854356D01*
X1446859Y854241D01*
X1446870Y854106D01*
Y854043D01*
X1446849Y853970D01*
X1446838Y853950D01*
X1446817Y853908D01*
X1446776Y853856D01*
X1446713Y853783D01*
X1446609Y853720D01*
X1446484Y853668D01*
X1446401Y853637D01*
X1446307Y853627D01*
X1446203Y853616D01*
X1445974D01*
X1445859Y853627D01*
X1445703Y853637D01*
X1445537Y853658D01*
X1445349Y853689D01*
X1445172Y853731D01*
X1445005Y853793D01*
X1444985Y853804D01*
X1444933Y853825D01*
X1444849Y853877D01*
X1444745Y853939D01*
X1444610Y854022D01*
X1444464Y854137D01*
X1444308Y854262D01*
X1444131Y854418D01*
X1444120Y854429D01*
X1444110Y854439D01*
X1444079Y854470D01*
X1444037Y854512D01*
X1443933Y854626D01*
X1443808Y854772D01*
X1443672Y854939D01*
X1443537Y855126D01*
X1443412Y855324D01*
X1443298Y855522D01*
Y855533D01*
X1443287Y855543D01*
X1443277Y855574D01*
X1443256Y855616D01*
X1443235Y855678D01*
X1443204Y855741D01*
X1443183Y855824D01*
X1443152Y855907D01*
X1443121Y856012D01*
X1443089Y856126D01*
X1443058Y856241D01*
X1443027Y856376D01*
X1442996Y856522D01*
X1442964Y856678D01*
X1442933Y856845D01*
X1442912Y857022D01*
Y857032D01*
X1442902Y857074D01*
Y857126D01*
X1442891Y857209D01*
X1442881Y857303D01*
Y857417D01*
X1442871Y857542D01*
Y857688D01*
X1442860Y857844D01*
X1442871Y858001D01*
X1442881Y858355D01*
X1442923Y858730D01*
X1442985Y859115D01*
Y859125D01*
X1442996Y859156D01*
X1443006Y859209D01*
X1443016Y859271D01*
X1443037Y859344D01*
X1443058Y859438D01*
X1443089Y859542D01*
X1443121Y859646D01*
X1443204Y859885D01*
X1443298Y860135D01*
X1443412Y860385D01*
X1443548Y860614D01*
Y860625D01*
X1443568Y860646D01*
X1443589Y860667D01*
X1443620Y860708D01*
X1443714Y860823D01*
X1443839Y860958D01*
X1444006Y861114D01*
X1444204Y861291D01*
X1444433Y861458D01*
X1444704Y861625D01*
X1444714D01*
X1444735Y861646D01*
X1444766Y861656D01*
X1444808Y861687D01*
X1444912Y861750D01*
X1445026Y861833D01*
X1445141Y861927D01*
X1445245Y862020D01*
X1445287Y862062D01*
X1445318Y862114D01*
X1445339Y862145D01*
X1445349Y862187D01*
Y862197D01*
X1445360Y862218D01*
X1445370Y862239D01*
X1445391Y862260D01*
X1445432Y862281D01*
X1445495Y862291D01*
X1445578Y862281D01*
D02*
G37*
%LPC*%
G36*
X1463694Y893848D02*
X1463685Y893673D01*
X1463676Y893497D01*
X1463758Y893405D01*
X1463812Y893419D01*
X1463929Y893624D01*
X1463992Y893814D01*
X1463694Y893848D01*
D02*
G37*
G36*
X1469925Y947920D02*
Y947857D01*
Y947795D01*
X1469988Y947857D01*
X1469925Y947920D01*
D02*
G37*
G36*
X1468738Y944920D02*
X1468676D01*
X1468551Y944858D01*
X1468051Y944796D01*
X1467801Y944733D01*
X1467645D01*
X1467676Y944670D01*
X1467738Y944483D01*
Y944233D01*
X1467863D01*
X1468238Y944296D01*
X1468738D01*
Y944920D01*
D02*
G37*
G36*
X1464614Y943733D02*
X1464489D01*
X1464177Y943608D01*
X1463927Y943358D01*
X1463802Y943171D01*
Y942921D01*
X1464518Y942866D01*
X1464614Y943733D01*
D02*
G37*
G36*
X1434434Y929362D02*
Y929237D01*
X1434372Y929112D01*
Y929050D01*
X1434309Y928675D01*
X1434247Y928612D01*
Y928550D01*
Y928300D01*
Y928237D01*
Y928175D01*
Y927675D01*
X1434434Y927987D01*
X1434622Y928175D01*
X1434747Y928362D01*
X1434809Y928487D01*
X1435059Y928800D01*
X1434747D01*
X1434622Y928862D01*
X1434559Y928924D01*
X1434497Y929174D01*
X1434434Y929362D01*
D02*
G37*
G36*
X1463007Y861820D02*
X1463011Y861802D01*
X1463053Y861687D01*
X1463095Y861604D01*
X1463136Y861552D01*
X1463178Y861510D01*
X1463209Y861489D01*
X1463220Y861479D01*
X1463230Y861469D01*
Y861448D01*
X1463240Y861375D01*
X1463251Y861271D01*
Y861167D01*
Y861123D01*
X1463282Y861167D01*
X1463303Y861250D01*
X1463293Y861333D01*
X1463272Y861416D01*
X1463251Y861489D01*
X1463220Y861552D01*
X1463199Y861593D01*
X1463188Y861604D01*
X1463105Y861718D01*
X1463032Y861802D01*
X1463007Y861820D01*
D02*
G37*
G36*
X1426161Y854634D02*
X1426135Y854595D01*
X1426115Y854574D01*
Y854564D01*
X1426094Y854501D01*
X1426083Y854439D01*
Y854335D01*
X1426125Y854397D01*
X1426146Y854460D01*
X1426167Y854522D01*
Y854564D01*
Y854574D01*
X1426161Y854634D01*
D02*
G37*
%LPD*%
D30*
X1999410Y1188994D02*
D03*
X1980910D02*
D03*
D37*
X1503959Y1190973D02*
D03*
Y1207973D02*
D03*
X1559959Y1190973D02*
D03*
Y1207973D02*
D03*
X1420077Y1191206D02*
D03*
Y1208206D02*
D03*
X1476077Y1191206D02*
D03*
Y1208206D02*
D03*
D38*
X2067190Y900675D02*
D03*
X2089190Y910175D02*
D03*
X2067190Y919675D02*
D03*
D39*
X2053107Y946103D02*
D03*
X2053230Y899551D02*
D03*
Y924898D02*
D03*
X2053107Y938103D02*
D03*
X2053230Y916898D02*
D03*
Y907551D02*
D03*
X1395500Y953154D02*
D03*
Y961154D02*
D03*
X1534328Y1174452D02*
D03*
Y1166452D02*
D03*
D40*
X1496643Y978349D02*
D03*
X1369643Y1148349D02*
D03*
X1382343D02*
D03*
X1395043D02*
D03*
X1407743D02*
D03*
X1420443D02*
D03*
X1433143D02*
D03*
X1445843D02*
D03*
X1458543D02*
D03*
X1471243D02*
D03*
X1483943D02*
D03*
X1496643D02*
D03*
X1509343D02*
D03*
X1522043D02*
D03*
X1534743D02*
D03*
X1547443D02*
D03*
X1560143D02*
D03*
X1572843D02*
D03*
X1585543D02*
D03*
X1598243D02*
D03*
Y978349D02*
D03*
X1585543D02*
D03*
X1572843D02*
D03*
X1560143D02*
D03*
X1547443D02*
D03*
X1534743D02*
D03*
X1522043D02*
D03*
X1509343D02*
D03*
X1483943D02*
D03*
X1471243D02*
D03*
X1458543D02*
D03*
X1445843D02*
D03*
X1433143D02*
D03*
X1420443D02*
D03*
X1407743D02*
D03*
X1395043D02*
D03*
X1382343D02*
D03*
X1369643D02*
D03*
D41*
X2086834Y943642D02*
D03*
X2066834D02*
D03*
D42*
X2003954Y1012954D02*
D03*
D43*
X2020954D02*
D03*
Y1032954D02*
D03*
X2001954D02*
D03*
D44*
X1404863Y961210D02*
D03*
Y953410D02*
D03*
X1524725Y1166972D02*
D03*
Y1174772D02*
D03*
X1849562Y1102089D02*
D03*
Y1109889D02*
D03*
X1584962Y1176810D02*
D03*
Y1169010D02*
D03*
D45*
X1969170Y984570D02*
D03*
X1969170Y891238D02*
D03*
X1934314Y941501D02*
D03*
D46*
X2048603Y1088420D02*
D03*
Y986220D02*
D03*
X2087903Y1088420D02*
D03*
Y986220D02*
D03*
D47*
X2042853Y1006820D02*
D03*
Y1014820D02*
D03*
Y1019820D02*
D03*
Y1029820D02*
D03*
Y1044820D02*
D03*
Y1054820D02*
D03*
Y1059820D02*
D03*
Y1067820D02*
D03*
Y1070820D02*
D03*
Y1062820D02*
D03*
Y1049820D02*
D03*
Y1039820D02*
D03*
Y1034820D02*
D03*
Y1024820D02*
D03*
Y1011820D02*
D03*
Y1003820D02*
D03*
D48*
X1911986Y1051067D02*
D03*
D49*
Y1059667D02*
D03*
D50*
X1902236Y1062967D02*
D03*
X1908736D02*
D03*
X1915236D02*
D03*
X1921736D02*
D03*
D51*
Y1034267D02*
D03*
X1915236D02*
D03*
X1908736D02*
D03*
X1902236D02*
D03*
D52*
X1977755Y949836D02*
D03*
X1968255D02*
D03*
X1958755D02*
D03*
Y921836D02*
D03*
X1977755D02*
D03*
D53*
X1748489Y1079341D02*
D03*
X1761189D02*
D03*
X1773889D02*
D03*
X1786589D02*
D03*
X1799289D02*
D03*
X1811989D02*
D03*
X1824689D02*
D03*
X1837389D02*
D03*
Y1133841D02*
D03*
X1824689D02*
D03*
X1811989D02*
D03*
X1799289D02*
D03*
X1786589D02*
D03*
X1773889D02*
D03*
X1761189D02*
D03*
X1748489D02*
D03*
D54*
X2005099Y1046879D02*
D03*
X2019599D02*
D03*
D55*
X1781864Y943770D02*
D03*
X1771864D02*
D03*
D56*
X1462993Y1034999D02*
D03*
X1444643D02*
D03*
X1426293D02*
D03*
Y1053349D02*
D03*
Y1071699D02*
D03*
X1444643D02*
D03*
X1462993D02*
D03*
Y1053349D02*
D03*
X1444643D02*
D03*
D57*
X1369989Y949349D02*
D03*
X1382489D02*
D03*
D58*
X2000290Y1069727D02*
D03*
X2016290D02*
D03*
X2000290Y998811D02*
D03*
X2016290D02*
D03*
D59*
X1979010Y962544D02*
D03*
X1971210D02*
D03*
X1979010Y910503D02*
D03*
X1971210D02*
D03*
X2018774Y1057524D02*
D03*
X2010974D02*
D03*
X2001985Y1057302D02*
D03*
X1994185D02*
D03*
X1371973Y938647D02*
D03*
X1379773D02*
D03*
X1800541Y943770D02*
D03*
X1792741D02*
D03*
D60*
X1921809Y1015390D02*
D03*
X1929809D02*
D03*
X1912604D02*
D03*
X1904604D02*
D03*
D61*
X1572699Y1179054D02*
D03*
Y1169054D02*
D03*
D62*
X1531959Y1185723D02*
D03*
Y1213223D02*
D03*
X1448077Y1185956D02*
D03*
Y1213456D02*
D03*
D63*
X1939922Y1190543D02*
D03*
D64*
X1914922D02*
D03*
D65*
X1898922Y1170543D02*
D03*
X1725660Y1170457D02*
D03*
D66*
X2053603Y1066220D02*
D03*
Y1008420D02*
D03*
D67*
X1747935Y912219D02*
D03*
D68*
X1785435D02*
D03*
X1822935D02*
D03*
X1742500Y1190777D02*
D03*
X1767500D02*
D03*
X1792500D02*
D03*
X1817500D02*
D03*
X1842500D02*
D03*
D69*
X1716434Y867219D02*
D03*
X1854435D02*
D03*
D70*
X1861915Y1019758D02*
D03*
X1836516D02*
D03*
X1811116D02*
D03*
X1785715D02*
D03*
X1760316D02*
D03*
D71*
X1734915D02*
D03*
D72*
X1612048Y1188248D02*
D03*
X1637448D02*
D03*
X1662848D02*
D03*
D73*
X1688248D02*
D03*
D74*
X1518184Y871409D02*
D03*
X1588284D02*
D03*
D75*
X1575734Y846509D02*
D03*
X1530734D02*
D03*
D76*
X2078210Y1194860D02*
D03*
Y851680D02*
D03*
X1385830D02*
D03*
Y1194860D02*
D03*
M02*
