G04*
G04 #@! TF.GenerationSoftware,Altium Limited,Altium Designer,20.1.14 (287)*
G04*
G04 Layer_Color=128*
%FSLAX44Y44*%
%MOMM*%
G71*
G04*
G04 #@! TF.SameCoordinates,99A645DD-A7E4-4CA2-B257-33081834DCFA*
G04*
G04*
G04 #@! TF.FilePolarity,Positive*
G04*
G01*
G75*
%ADD14R,0.5000X0.5000*%
%ADD19R,0.5700X0.6100*%
%ADD128R,0.9000X0.3500*%
%ADD129R,0.3500X0.9000*%
%ADD130R,2.6000X2.6000*%
D14*
X1968723Y1005869D02*
D03*
Y997869D02*
D03*
X1977270D02*
D03*
Y1005869D02*
D03*
X1985165Y998117D02*
D03*
Y1006117D02*
D03*
D19*
X1997582Y1019655D02*
D03*
Y1027455D02*
D03*
X2005567Y1027692D02*
D03*
Y1019892D02*
D03*
D128*
X1986839Y1049278D02*
D03*
Y1044278D02*
D03*
Y1039278D02*
D03*
Y1034278D02*
D03*
Y1029278D02*
D03*
Y1024278D02*
D03*
X1947839D02*
D03*
Y1029278D02*
D03*
Y1034278D02*
D03*
Y1039278D02*
D03*
Y1044278D02*
D03*
Y1049278D02*
D03*
D129*
X1979839Y1017278D02*
D03*
X1974839D02*
D03*
X1969839D02*
D03*
X1964839D02*
D03*
X1959839D02*
D03*
X1954839D02*
D03*
Y1056278D02*
D03*
X1959839D02*
D03*
X1964839D02*
D03*
X1969839D02*
D03*
X1974839D02*
D03*
X1979839D02*
D03*
D130*
X1967339Y1036778D02*
D03*
M02*
