G04*
G04 #@! TF.GenerationSoftware,Altium Limited,Altium Designer,20.1.14 (287)*
G04*
G04 Layer_Color=8421504*
%FSLAX44Y44*%
%MOMM*%
G71*
G04*
G04 #@! TF.SameCoordinates,99A645DD-A7E4-4CA2-B257-33081834DCFA*
G04*
G04*
G04 #@! TF.FilePolarity,Positive*
G04*
G01*
G75*
%ADD12R,1.2500X1.0500*%
%ADD13R,1.1000X0.6500*%
%ADD14R,0.5000X0.5000*%
%ADD15R,0.9500X2.0500*%
%ADD16R,0.9500X1.4500*%
%ADD17R,1.0500X0.7500*%
%ADD18R,0.6500X0.7500*%
%ADD19R,0.5700X0.6100*%
%ADD20R,2.0500X2.2300*%
%ADD21R,1.2000X0.3500*%
%ADD22R,2.8000X1.5200*%
%ADD23R,2.8000X0.3000*%
%ADD24R,0.4500X0.4600*%
%ADD25R,0.4500X0.6000*%
%ADD26R,0.6500X0.9500*%
%ADD27R,0.7000X1.6000*%
%ADD28R,0.7200X0.4700*%
%ADD29R,0.7000X0.7000*%
%ADD30R,0.8000X1.0500*%
%ADD31R,1.3800X1.3800*%
%ADD32R,0.8000X0.9000*%
%ADD33R,0.9500X1.0500*%
%ADD34R,0.6100X0.5700*%
%ADD35R,0.5000X0.5000*%
%ADD36R,0.7000X0.7000*%
D12*
X1503959Y1190973D02*
D03*
Y1207973D02*
D03*
X1559959Y1190973D02*
D03*
Y1207973D02*
D03*
X1420077Y1191206D02*
D03*
Y1208206D02*
D03*
X1476077Y1191206D02*
D03*
Y1208206D02*
D03*
D13*
X2067190Y900675D02*
D03*
X2089190Y910175D02*
D03*
X2067190Y919675D02*
D03*
D14*
X2053107Y946103D02*
D03*
X2053230Y899551D02*
D03*
Y924898D02*
D03*
X2053107Y938103D02*
D03*
X2053230Y916898D02*
D03*
Y907551D02*
D03*
X1395500Y953154D02*
D03*
Y961154D02*
D03*
X1534328Y1174452D02*
D03*
Y1166452D02*
D03*
D15*
X1496643Y978349D02*
D03*
X1369643Y1148349D02*
D03*
X1382343D02*
D03*
X1395043D02*
D03*
X1407743D02*
D03*
X1420443D02*
D03*
X1433143D02*
D03*
X1445843D02*
D03*
X1458543D02*
D03*
X1471243D02*
D03*
X1483943D02*
D03*
X1496643D02*
D03*
X1509343D02*
D03*
X1522043D02*
D03*
X1534743D02*
D03*
X1547443D02*
D03*
X1560143D02*
D03*
X1572843D02*
D03*
X1585543D02*
D03*
X1598243D02*
D03*
Y978349D02*
D03*
X1585543D02*
D03*
X1572843D02*
D03*
X1560143D02*
D03*
X1547443D02*
D03*
X1534743D02*
D03*
X1522043D02*
D03*
X1509343D02*
D03*
X1483943D02*
D03*
X1471243D02*
D03*
X1458543D02*
D03*
X1445843D02*
D03*
X1433143D02*
D03*
X1420443D02*
D03*
X1407743D02*
D03*
X1395043D02*
D03*
X1382343D02*
D03*
X1369643D02*
D03*
D16*
X2086834Y943642D02*
D03*
X2066834D02*
D03*
D17*
X2003954Y1012954D02*
D03*
D18*
X2020954D02*
D03*
Y1032954D02*
D03*
X2001954D02*
D03*
D19*
X1404863Y961210D02*
D03*
Y953410D02*
D03*
X1524725Y1166972D02*
D03*
Y1174772D02*
D03*
X1849562Y1102089D02*
D03*
Y1109889D02*
D03*
X1584962Y1176810D02*
D03*
Y1169010D02*
D03*
D20*
X2048603Y1088420D02*
D03*
Y986220D02*
D03*
X2087903Y1088420D02*
D03*
Y986220D02*
D03*
D21*
X2042853Y1006820D02*
D03*
Y1014820D02*
D03*
Y1019820D02*
D03*
Y1029820D02*
D03*
Y1044820D02*
D03*
Y1054820D02*
D03*
Y1059820D02*
D03*
Y1067820D02*
D03*
Y1070820D02*
D03*
Y1062820D02*
D03*
Y1049820D02*
D03*
Y1039820D02*
D03*
Y1034820D02*
D03*
Y1024820D02*
D03*
Y1011820D02*
D03*
Y1003820D02*
D03*
D22*
X1911986Y1051067D02*
D03*
D23*
Y1059667D02*
D03*
D24*
X1902236Y1062967D02*
D03*
X1908736D02*
D03*
X1915236D02*
D03*
X1921736D02*
D03*
D25*
Y1034267D02*
D03*
X1915236D02*
D03*
X1908736D02*
D03*
X1902236D02*
D03*
D26*
X1977755Y949836D02*
D03*
X1968255D02*
D03*
X1958755D02*
D03*
Y921836D02*
D03*
X1977755D02*
D03*
D27*
X1748489Y1079341D02*
D03*
X1761189D02*
D03*
X1773889D02*
D03*
X1786589D02*
D03*
X1799289D02*
D03*
X1811989D02*
D03*
X1824689D02*
D03*
X1837389D02*
D03*
Y1133841D02*
D03*
X1824689D02*
D03*
X1811989D02*
D03*
X1799289D02*
D03*
X1786589D02*
D03*
X1773889D02*
D03*
X1761189D02*
D03*
X1748489D02*
D03*
D28*
X2005099Y1046879D02*
D03*
X2019599D02*
D03*
D29*
X1781864Y943770D02*
D03*
X1771864D02*
D03*
D30*
X1999410Y1188994D02*
D03*
X1980910D02*
D03*
D31*
X1462993Y1034999D02*
D03*
X1444643D02*
D03*
X1426293D02*
D03*
Y1053349D02*
D03*
Y1071699D02*
D03*
X1444643D02*
D03*
X1462993D02*
D03*
Y1053349D02*
D03*
X1444643D02*
D03*
D32*
X1369989Y949349D02*
D03*
X1382489D02*
D03*
D33*
X2000290Y1069727D02*
D03*
X2016290D02*
D03*
X2000290Y998811D02*
D03*
X2016290D02*
D03*
D34*
X1979010Y962544D02*
D03*
X1971210D02*
D03*
X1979010Y910503D02*
D03*
X1971210D02*
D03*
X2018774Y1057524D02*
D03*
X2010974D02*
D03*
X2001985Y1057302D02*
D03*
X1994185D02*
D03*
X1371973Y938647D02*
D03*
X1379773D02*
D03*
X1800541Y943770D02*
D03*
X1792741D02*
D03*
D35*
X1921809Y1015390D02*
D03*
X1929809D02*
D03*
X1912604D02*
D03*
X1904604D02*
D03*
D36*
X1572699Y1179054D02*
D03*
Y1169054D02*
D03*
M02*
