M48
;Layer_Color=9474304
;FILE_FORMAT=4:4
METRIC,LZ
;TYPE=PLATED
T1F00S00C0.3000
T2F00S00C0.9900
T3F00S00C1.0000
T4F00S00C1.0500
T5F00S00C1.1000
T6F00S00C1.2000
T7F00S00C1.3000
T8F00S00C3.4400
;TYPE=NON_PLATED
T9F00S00C0.6500
T10F00S00C0.7500
T11F00S00C1.3000
T12F00S00C2.0000
%
T01
X014Y0084
X0144
X0148
Y0088
X0156
Y0084
X01555976Y00994142
X01547744Y00993788
X01497033Y0099513
X01483603
X0148Y0104
X0152
X0156
Y0108
X0152
X0148
X01421474Y01130733
X01410644Y01130938
X01369921Y0113257
Y0112631
X01406644Y01172017
X01561924Y01166568
X0144Y01
X01407404Y0099513
X0139454
X013697Y00994485
Y01000745
Y00964125
Y00957965
Y00930904
Y00924744
X0144Y0096
X0164
X0168
X0172
X0176
X018
X0184
X0188
X0192
X01928222Y01002395
X01960834Y0099786
X01980708Y00989617
X01914348Y01026216
X01908411
X01902786
X01892318Y01055581
Y01065925
X01884188Y01070358
Y01060014
Y01048684
X01899294Y01072034
X01909638
X01914072Y01080164
X01903727
X01892398
X01845771Y01083095
Y01075027
X01845637Y01066825
X018Y0112
Y0116
X0176Y0112
X0172
Y0108
Y0104
X0168
Y0108
Y0112
Y0116
X0164Y0112
Y0108
Y0104
X016
Y0108
X0164Y0088
X0168
Y0084
X0164
X016
X0176
X018
Y0088
X0176
X0188Y0084
X0192
X0196
X02
X0204
Y0088
X02040197Y00923197
X02001579Y00910207
X02000474Y00984369
X02007706Y00984353
X02015302Y00984278
X02022673Y00984427
X02026203Y00997907
X0203182Y01003976
X0203114Y01014589
Y01022583
X02031492Y01037383
X0203114Y01053623
Y01060786
X02032983Y01073771
X02027624Y01078807
X02006185Y01052277
X0199783Y01046298
X01986254Y01017939
X020546Y0103431
X0204Y0112
Y0116
X02
Y0112
T02
X01530734Y00846509
X01575734
T03
X01747935Y00912219
X01785435
X01822935
X018175Y01190777
X017925
X017675
X017425
X018425
T04
X01914922Y01190543
X01939922
T05
X01612048Y01188248
X01637448
X01662848
X01688248
T06
X01734915Y01019758
X01760316
X01785715
X01811116
X01836516
X01861915
T07
X01518184Y00871409
X01588284
T08
X01716434Y00867219
X01854435
T09
X02053603Y0100842
Y0106622
T10
X01448077Y01185956
X01531959Y01185723
Y01213223
X01448077Y01213456
T11
X0172566Y01170457
X01898922Y01170543
T12
X0138583Y0085168
X0207821
Y0119486
X0138583
M30
